<?xml version="1.0" encoding="utf-8" standalone="no"?>
<!DOCTYPE svg PUBLIC "-//W3C//DTD SVG 1.1//EN"
  "http://www.w3.org/Graphics/SVG/1.1/DTD/svg11.dtd">
<svg xmlns:xlink="http://www.w3.org/1999/xlink" width="1304.39952pt" height="461.819797pt" viewBox="0 0 1304.39952 461.819797" xmlns="http://www.w3.org/2000/svg" version="1.1">
 <metadata>
  <rdf:RDF xmlns:dc="http://purl.org/dc/elements/1.1/" xmlns:cc="http://creativecommons.org/ns#" xmlns:rdf="http://www.w3.org/1999/02/22-rdf-syntax-ns#">
   <cc:Work>
    <dc:type rdf:resource="http://purl.org/dc/dcmitype/StillImage"/>
    <dc:date>2026-05-25T16:25:15.302642</dc:date>
    <dc:format>image/svg+xml</dc:format>
    <dc:creator>
     <cc:Agent>
      <dc:title>Matplotlib v3.7.3, https://matplotlib.org/</dc:title>
     </cc:Agent>
    </dc:creator>
   </cc:Work>
  </rdf:RDF>
 </metadata>
 <defs>
  <style type="text/css">*{stroke-linejoin: round; stroke-linecap: butt}</style>
 </defs>
 <g id="figure_1">
  <g id="patch_1">
   <path d="M 0 461.819797 
L 1304.39952 461.819797 
L 1304.39952 0 
L 0 0 
L 0 461.819797 
z
" style="fill: none"/>
  </g>
  <g id="axes_1">
   <g id="patch_2">
    <path d="M 56.380625 305.479865 
L 658.470073 305.479865 
L 658.470073 7.2 
L 56.380625 7.2 
L 56.380625 305.479865 
z
" style="fill: none"/>
   </g>
   <g id="matplotlib.axis_1">
    <g id="xtick_1">
     <g id="line2d_1">
      <defs>
       <path id="m3a5fb8827b" d="M 0 0 
L 0 3.5 
" style="stroke: #000000; stroke-width: 0.8"/>
      </defs>
      <g>
       <use xlink:href="#m3a5fb8827b" x="92.354523" y="305.479865" style="stroke: #000000; stroke-width: 0.8"/>
      </g>
     </g>
     <g id="text_1">
      <text style="font: 12px 'Arial', sans-serif" transform="translate(89.252335 312.479865) rotate(-270)">1-10Kb</text>
     </g>
    </g>
    <g id="xtick_2">
     <g id="line2d_2">
      <g>
       <use xlink:href="#m3a5fb8827b" x="109.566914" y="305.479865" style="stroke: #000000; stroke-width: 0.8"/>
      </g>
     </g>
     <g id="text_2">
      <text style="font: 12px 'Arial', sans-serif" transform="translate(106.464727 312.479865) rotate(-270)">10-100Kb</text>
     </g>
    </g>
    <g id="xtick_3">
     <g id="line2d_3">
      <g>
       <use xlink:href="#m3a5fb8827b" x="126.779305" y="305.479865" style="stroke: #000000; stroke-width: 0.8"/>
      </g>
     </g>
     <g id="text_3">
      <text style="font: 12px 'Arial', sans-serif" transform="translate(123.677118 312.479865) rotate(-270)">100Kb-1Mb</text>
     </g>
    </g>
    <g id="xtick_4">
     <g id="line2d_4">
      <g>
       <use xlink:href="#m3a5fb8827b" x="143.991697" y="305.479865" style="stroke: #000000; stroke-width: 0.8"/>
      </g>
     </g>
     <g id="text_4">
      <text style="font: 12px 'Arial', sans-serif" transform="translate(140.889509 312.479865) rotate(-270)">1Mb-10Mb</text>
     </g>
    </g>
    <g id="xtick_5">
     <g id="line2d_5">
      <g>
       <use xlink:href="#m3a5fb8827b" x="161.204088" y="305.479865" style="stroke: #000000; stroke-width: 0.8"/>
      </g>
     </g>
     <g id="text_5">
      <text style="font: 12px 'Arial', sans-serif" transform="translate(158.1019 312.479865) rotate(-270)">&gt;10Mb</text>
     </g>
    </g>
    <g id="xtick_6">
     <g id="line2d_6">
      <g>
       <use xlink:href="#m3a5fb8827b" x="178.416479" y="305.479865" style="stroke: #000000; stroke-width: 0.8"/>
      </g>
     </g>
     <g id="text_6">
      <text style="font: 12px 'Arial', sans-serif" transform="translate(175.314292 312.479865) rotate(-270)">1-10Kb</text>
     </g>
    </g>
    <g id="xtick_7">
     <g id="line2d_7">
      <g>
       <use xlink:href="#m3a5fb8827b" x="195.628871" y="305.479865" style="stroke: #000000; stroke-width: 0.8"/>
      </g>
     </g>
     <g id="text_7">
      <text style="font: 12px 'Arial', sans-serif" transform="translate(192.526683 312.479865) rotate(-270)">10-100Kb</text>
     </g>
    </g>
    <g id="xtick_8">
     <g id="line2d_8">
      <g>
       <use xlink:href="#m3a5fb8827b" x="212.841262" y="305.479865" style="stroke: #000000; stroke-width: 0.8"/>
      </g>
     </g>
     <g id="text_8">
      <text style="font: 12px 'Arial', sans-serif" transform="translate(209.739074 312.479865) rotate(-270)">100Kb-1Mb</text>
     </g>
    </g>
    <g id="xtick_9">
     <g id="line2d_9">
      <g>
       <use xlink:href="#m3a5fb8827b" x="230.053653" y="305.479865" style="stroke: #000000; stroke-width: 0.8"/>
      </g>
     </g>
     <g id="text_9">
      <text style="font: 12px 'Arial', sans-serif" transform="translate(226.951466 312.479865) rotate(-270)">1Mb-10Mb</text>
     </g>
    </g>
    <g id="xtick_10">
     <g id="line2d_10">
      <g>
       <use xlink:href="#m3a5fb8827b" x="247.266044" y="305.479865" style="stroke: #000000; stroke-width: 0.8"/>
      </g>
     </g>
     <g id="text_10">
      <text style="font: 12px 'Arial', sans-serif" transform="translate(244.163857 312.479865) rotate(-270)">&gt;10Mb</text>
     </g>
    </g>
    <g id="xtick_11">
     <g id="line2d_11">
      <g>
       <use xlink:href="#m3a5fb8827b" x="264.478436" y="305.479865" style="stroke: #000000; stroke-width: 0.8"/>
      </g>
     </g>
     <g id="text_11">
      <text style="font: 12px 'Arial', sans-serif" transform="translate(261.376248 312.479865) rotate(-270)">1-10Kb</text>
     </g>
    </g>
    <g id="xtick_12">
     <g id="line2d_12">
      <g>
       <use xlink:href="#m3a5fb8827b" x="281.690827" y="305.479865" style="stroke: #000000; stroke-width: 0.8"/>
      </g>
     </g>
     <g id="text_12">
      <text style="font: 12px 'Arial', sans-serif" transform="translate(278.58864 312.479865) rotate(-270)">10-100Kb</text>
     </g>
    </g>
    <g id="xtick_13">
     <g id="line2d_13">
      <g>
       <use xlink:href="#m3a5fb8827b" x="298.903218" y="305.479865" style="stroke: #000000; stroke-width: 0.8"/>
      </g>
     </g>
     <g id="text_13">
      <text style="font: 12px 'Arial', sans-serif" transform="translate(295.801031 312.479865) rotate(-270)">100Kb-1Mb</text>
     </g>
    </g>
    <g id="xtick_14">
     <g id="line2d_14">
      <g>
       <use xlink:href="#m3a5fb8827b" x="316.11561" y="305.479865" style="stroke: #000000; stroke-width: 0.8"/>
      </g>
     </g>
     <g id="text_14">
      <text style="font: 12px 'Arial', sans-serif" transform="translate(313.013422 312.479865) rotate(-270)">1Mb-10Mb</text>
     </g>
    </g>
    <g id="xtick_15">
     <g id="line2d_15">
      <g>
       <use xlink:href="#m3a5fb8827b" x="333.328001" y="305.479865" style="stroke: #000000; stroke-width: 0.8"/>
      </g>
     </g>
     <g id="text_15">
      <text style="font: 12px 'Arial', sans-serif" transform="translate(330.225813 312.479865) rotate(-270)">&gt;10Mb</text>
     </g>
    </g>
    <g id="xtick_16">
     <g id="line2d_16">
      <g>
       <use xlink:href="#m3a5fb8827b" x="350.540392" y="305.479865" style="stroke: #000000; stroke-width: 0.8"/>
      </g>
     </g>
     <g id="text_16">
      <text style="font: 12px 'Arial', sans-serif" transform="translate(347.438205 312.479865) rotate(-270)">Translocations</text>
     </g>
    </g>
    <g id="xtick_17">
     <g id="line2d_17">
      <g>
       <use xlink:href="#m3a5fb8827b" x="367.752784" y="305.479865" style="stroke: #000000; stroke-width: 0.8"/>
      </g>
     </g>
     <g id="text_17">
      <text style="font: 12px 'Arial', sans-serif" transform="translate(364.650596 312.479865) rotate(-270)">1-10Kb</text>
     </g>
    </g>
    <g id="xtick_18">
     <g id="line2d_18">
      <g>
       <use xlink:href="#m3a5fb8827b" x="384.965175" y="305.479865" style="stroke: #000000; stroke-width: 0.8"/>
      </g>
     </g>
     <g id="text_18">
      <text style="font: 12px 'Arial', sans-serif" transform="translate(381.862987 312.479865) rotate(-270)">10-100Kb</text>
     </g>
    </g>
    <g id="xtick_19">
     <g id="line2d_19">
      <g>
       <use xlink:href="#m3a5fb8827b" x="402.177566" y="305.479865" style="stroke: #000000; stroke-width: 0.8"/>
      </g>
     </g>
     <g id="text_19">
      <text style="font: 12px 'Arial', sans-serif" transform="translate(399.075379 312.479865) rotate(-270)">100Kb-1Mb</text>
     </g>
    </g>
    <g id="xtick_20">
     <g id="line2d_20">
      <g>
       <use xlink:href="#m3a5fb8827b" x="419.389957" y="305.479865" style="stroke: #000000; stroke-width: 0.8"/>
      </g>
     </g>
     <g id="text_20">
      <text style="font: 12px 'Arial', sans-serif" transform="translate(416.28777 312.479865) rotate(-270)">1Mb-10Mb</text>
     </g>
    </g>
    <g id="xtick_21">
     <g id="line2d_21">
      <g>
       <use xlink:href="#m3a5fb8827b" x="436.602349" y="305.479865" style="stroke: #000000; stroke-width: 0.8"/>
      </g>
     </g>
     <g id="text_21">
      <text style="font: 12px 'Arial', sans-serif" transform="translate(433.500161 312.479865) rotate(-270)">&gt;10Mb</text>
     </g>
    </g>
    <g id="xtick_22">
     <g id="line2d_22">
      <g>
       <use xlink:href="#m3a5fb8827b" x="453.81474" y="305.479865" style="stroke: #000000; stroke-width: 0.8"/>
      </g>
     </g>
     <g id="text_22">
      <text style="font: 12px 'Arial', sans-serif" transform="translate(450.712553 312.479865) rotate(-270)">1-10Kb</text>
     </g>
    </g>
    <g id="xtick_23">
     <g id="line2d_23">
      <g>
       <use xlink:href="#m3a5fb8827b" x="471.027131" y="305.479865" style="stroke: #000000; stroke-width: 0.8"/>
      </g>
     </g>
     <g id="text_23">
      <text style="font: 12px 'Arial', sans-serif" transform="translate(467.924944 312.479865) rotate(-270)">10-100Kb</text>
     </g>
    </g>
    <g id="xtick_24">
     <g id="line2d_24">
      <g>
       <use xlink:href="#m3a5fb8827b" x="488.239523" y="305.479865" style="stroke: #000000; stroke-width: 0.8"/>
      </g>
     </g>
     <g id="text_24">
      <text style="font: 12px 'Arial', sans-serif" transform="translate(485.137335 312.479865) rotate(-270)">100Kb-1Mb</text>
     </g>
    </g>
    <g id="xtick_25">
     <g id="line2d_25">
      <g>
       <use xlink:href="#m3a5fb8827b" x="505.451914" y="305.479865" style="stroke: #000000; stroke-width: 0.8"/>
      </g>
     </g>
     <g id="text_25">
      <text style="font: 12px 'Arial', sans-serif" transform="translate(502.349726 312.479865) rotate(-270)">1Mb-10Mb</text>
     </g>
    </g>
    <g id="xtick_26">
     <g id="line2d_26">
      <g>
       <use xlink:href="#m3a5fb8827b" x="522.664305" y="305.479865" style="stroke: #000000; stroke-width: 0.8"/>
      </g>
     </g>
     <g id="text_26">
      <text style="font: 12px 'Arial', sans-serif" transform="translate(519.562118 312.479865) rotate(-270)">&gt;10Mb</text>
     </g>
    </g>
    <g id="xtick_27">
     <g id="line2d_27">
      <g>
       <use xlink:href="#m3a5fb8827b" x="539.876696" y="305.479865" style="stroke: #000000; stroke-width: 0.8"/>
      </g>
     </g>
     <g id="text_27">
      <text style="font: 12px 'Arial', sans-serif" transform="translate(536.774509 312.479865) rotate(-270)">1-10Kb</text>
     </g>
    </g>
    <g id="xtick_28">
     <g id="line2d_28">
      <g>
       <use xlink:href="#m3a5fb8827b" x="557.089088" y="305.479865" style="stroke: #000000; stroke-width: 0.8"/>
      </g>
     </g>
     <g id="text_28">
      <text style="font: 12px 'Arial', sans-serif" transform="translate(553.9869 312.479865) rotate(-270)">10-100Kb</text>
     </g>
    </g>
    <g id="xtick_29">
     <g id="line2d_29">
      <g>
       <use xlink:href="#m3a5fb8827b" x="574.301479" y="305.479865" style="stroke: #000000; stroke-width: 0.8"/>
      </g>
     </g>
     <g id="text_29">
      <text style="font: 12px 'Arial', sans-serif" transform="translate(571.199292 312.479865) rotate(-270)">100Kb-1Mb</text>
     </g>
    </g>
    <g id="xtick_30">
     <g id="line2d_30">
      <g>
       <use xlink:href="#m3a5fb8827b" x="591.51387" y="305.479865" style="stroke: #000000; stroke-width: 0.8"/>
      </g>
     </g>
     <g id="text_30">
      <text style="font: 12px 'Arial', sans-serif" transform="translate(588.411683 312.479865) rotate(-270)">1Mb-10Mb</text>
     </g>
    </g>
    <g id="xtick_31">
     <g id="line2d_31">
      <g>
       <use xlink:href="#m3a5fb8827b" x="608.726262" y="305.479865" style="stroke: #000000; stroke-width: 0.8"/>
      </g>
     </g>
     <g id="text_31">
      <text style="font: 12px 'Arial', sans-serif" transform="translate(605.624074 312.479865) rotate(-270)">&gt;10Mb</text>
     </g>
    </g>
    <g id="xtick_32">
     <g id="line2d_32">
      <g>
       <use xlink:href="#m3a5fb8827b" x="625.938653" y="305.479865" style="stroke: #000000; stroke-width: 0.8"/>
      </g>
     </g>
     <g id="text_32">
      <text style="font: 12px 'Arial', sans-serif" transform="translate(622.836465 312.479865) rotate(-270)">Translocations</text>
     </g>
    </g>
   </g>
   <g id="matplotlib.axis_2">
    <g id="ytick_1">
     <g id="line2d_33">
      <defs>
       <path id="m6f4c2f6042" d="M 0 0 
L -3.5 0 
" style="stroke: #000000; stroke-width: 0.8"/>
      </defs>
      <g>
       <use xlink:href="#m6f4c2f6042" x="56.380625" y="291.930859" style="stroke: #000000; stroke-width: 0.8"/>
      </g>
     </g>
     <g id="text_33">
      <text style="font: 12px 'Arial', sans-serif; text-anchor: end" x="49.380625" y="296.225547" transform="rotate(-0 49.380625 296.225547)">0.00</text>
     </g>
    </g>
    <g id="ytick_2">
     <g id="line2d_34">
      <g>
       <use xlink:href="#m6f4c2f6042" x="56.380625" y="247.12592" style="stroke: #000000; stroke-width: 0.8"/>
      </g>
     </g>
     <g id="text_34">
      <text style="font: 12px 'Arial', sans-serif; text-anchor: end" x="49.380625" y="251.420607" transform="rotate(-0 49.380625 251.420607)">0.05</text>
     </g>
    </g>
    <g id="ytick_3">
     <g id="line2d_35">
      <g>
       <use xlink:href="#m6f4c2f6042" x="56.380625" y="202.320981" style="stroke: #000000; stroke-width: 0.8"/>
      </g>
     </g>
     <g id="text_35">
      <text style="font: 12px 'Arial', sans-serif; text-anchor: end" x="49.380625" y="206.615668" transform="rotate(-0 49.380625 206.615668)">0.10</text>
     </g>
    </g>
    <g id="ytick_4">
     <g id="line2d_36">
      <g>
       <use xlink:href="#m6f4c2f6042" x="56.380625" y="157.516041" style="stroke: #000000; stroke-width: 0.8"/>
      </g>
     </g>
     <g id="text_36">
      <text style="font: 12px 'Arial', sans-serif; text-anchor: end" x="49.380625" y="161.810729" transform="rotate(-0 49.380625 161.810729)">0.15</text>
     </g>
    </g>
    <g id="ytick_5">
     <g id="line2d_37">
      <g>
       <use xlink:href="#m6f4c2f6042" x="56.380625" y="112.711102" style="stroke: #000000; stroke-width: 0.8"/>
      </g>
     </g>
     <g id="text_37">
      <text style="font: 12px 'Arial', sans-serif; text-anchor: end" x="49.380625" y="117.005789" transform="rotate(-0 49.380625 117.005789)">0.20</text>
     </g>
    </g>
    <g id="ytick_6">
     <g id="line2d_38">
      <g>
       <use xlink:href="#m6f4c2f6042" x="56.380625" y="67.906162" style="stroke: #000000; stroke-width: 0.8"/>
      </g>
     </g>
     <g id="text_38">
      <text style="font: 12px 'Arial', sans-serif; text-anchor: end" x="49.380625" y="72.20085" transform="rotate(-0 49.380625 72.20085)">0.25</text>
     </g>
    </g>
    <g id="ytick_7">
     <g id="line2d_39">
      <g>
       <use xlink:href="#m6f4c2f6042" x="56.380625" y="23.101223" style="stroke: #000000; stroke-width: 0.8"/>
      </g>
     </g>
     <g id="text_39">
      <text style="font: 12px 'Arial', sans-serif; text-anchor: end" x="49.380625" y="27.395911" transform="rotate(-0 49.380625 27.395911)">0.30</text>
     </g>
    </g>
    <g id="text_40">
     <text style="font: 16px 'Arial', sans-serif; text-anchor: middle" x="18.8475" y="156.339932" transform="rotate(-90 18.8475 156.339932)">Feature Importance Score</text>
    </g>
   </g>
   <g id="line2d_40">
    <path d="M 92.354523 290.208315 
L 109.566914 290.565369 
L 126.779305 290.57713 
L 143.991697 290.028531 
L 161.204088 291.115205 
L 178.416479 291.810487 
L 195.628871 291.907117 
L 212.841262 291.260699 
L 230.053653 290.168103 
L 247.266044 291.688493 
L 264.478436 291.692242 
L 281.690827 291.849088 
L 298.903218 291.264869 
L 316.11561 285.213069 
L 333.328001 291.194032 
L 350.540392 290.027662 
L 367.752784 259.198695 
L 384.965175 275.36119 
L 402.177566 282.707359 
L 419.389957 287.211189 
L 436.602349 220.149269 
L 453.81474 242.067138 
L 471.027131 121.267008 
L 488.239523 214.022328 
L 505.451914 283.957293 
L 522.664305 266.979119 
L 539.876696 283.425951 
L 557.089088 282.506803 
L 574.301479 195.896593 
L 591.51387 278.792551 
L 608.726262 173.770861 
L 625.938653 127.804927 
" clip-path="url(#p92074ad16c)" style="fill: none; stroke: #a6cee3; stroke-width: 1.5; stroke-linecap: square"/>
   </g>
   <g id="line2d_41">
    <path d="M 92.354523 291.589349 
L 109.566914 288.130725 
L 126.779305 291.698246 
L 143.991697 283.632153 
L 161.204088 291.408429 
L 178.416479 290.505043 
L 195.628871 290.977661 
L 212.841262 290.471084 
L 230.053653 291.326348 
L 247.266044 291.356832 
L 264.478436 291.664116 
L 281.690827 291.418245 
L 298.903218 291.594696 
L 316.11561 280.177357 
L 333.328001 291.263907 
L 350.540392 279.521114 
L 367.752784 149.737725 
L 384.965175 239.195474 
L 402.177566 231.751105 
L 419.389957 275.535861 
L 436.602349 265.537345 
L 453.81474 227.163249 
L 471.027131 20.758176 
L 488.239523 276.494764 
L 505.451914 287.078336 
L 522.664305 286.84222 
L 539.876696 288.799488 
L 557.089088 279.278231 
L 574.301479 271.760312 
L 591.51387 287.163029 
L 608.726262 279.460066 
L 625.938653 152.398 
" clip-path="url(#p92074ad16c)" style="fill: none; stroke: #1f78b4; stroke-width: 1.5; stroke-linecap: square"/>
   </g>
   <g id="line2d_42">
    <path d="M 92.354523 287.440017 
L 109.566914 211.728521 
L 126.779305 289.24616 
L 143.991697 288.966151 
L 161.204088 290.757712 
L 178.416479 289.001189 
L 195.628871 285.083316 
L 212.841262 291.264986 
L 230.053653 288.639218 
L 247.266044 290.961512 
L 264.478436 290.62997 
L 281.690827 276.482257 
L 298.903218 289.634434 
L 316.11561 285.825898 
L 333.328001 290.812964 
L 350.540392 284.091211 
L 367.752784 217.443875 
L 384.965175 227.000168 
L 402.177566 168.01012 
L 419.389957 238.80151 
L 436.602349 244.268225 
L 453.81474 263.215648 
L 471.027131 258.33347 
L 488.239523 282.567574 
L 505.451914 287.204699 
L 522.664305 252.146663 
L 539.876696 285.507702 
L 557.089088 280.962272 
L 574.301479 235.314307 
L 591.51387 205.895053 
L 608.726262 201.663047 
L 625.938653 266.788926 
" clip-path="url(#p92074ad16c)" style="fill: none; stroke: #b2df8a; stroke-width: 1.5; stroke-linecap: square"/>
   </g>
   <g id="line2d_43">
    <path d="M 92.354523 288.759777 
L 109.566914 287.604398 
L 126.779305 286.269367 
L 143.991697 280.354503 
L 161.204088 288.499253 
L 178.416479 291.440168 
L 195.628871 287.767171 
L 212.841262 289.589704 
L 230.053653 285.213553 
L 247.266044 290.256728 
L 264.478436 288.381672 
L 281.690827 290.889012 
L 298.903218 285.673052 
L 316.11561 252.351318 
L 333.328001 287.20311 
L 350.540392 251.249402 
L 367.752784 213.616408 
L 384.965175 269.078225 
L 402.177566 265.760561 
L 419.389957 280.78368 
L 436.602349 130.174194 
L 453.81474 230.470374 
L 471.027131 169.079255 
L 488.239523 248.831429 
L 505.451914 277.065878 
L 522.664305 278.422987 
L 539.876696 275.383505 
L 557.089088 268.07304 
L 574.301479 278.785519 
L 591.51387 271.698605 
L 608.726262 252.911436 
L 625.938653 204.051424 
" clip-path="url(#p92074ad16c)" style="fill: none; stroke: #33a02c; stroke-width: 1.5; stroke-linecap: square"/>
   </g>
   <g id="line2d_44">
    <path d="M 92.354523 291.915587 
L 109.566914 291.921689 
L 126.779305 287.02283 
L 143.991697 285.786212 
L 161.204088 288.726614 
L 178.416479 291.59003 
L 195.628871 291.002656 
L 212.841262 290.925917 
L 230.053653 249.154643 
L 247.266044 288.777852 
L 264.478436 290.999053 
L 281.690827 291.673014 
L 298.903218 282.24592 
L 316.11561 258.487211 
L 333.328001 275.996646 
L 350.540392 279.637302 
L 367.752784 175.00185 
L 384.965175 261.182937 
L 402.177566 240.532485 
L 419.389957 288.048043 
L 436.602349 230.673346 
L 453.81474 210.979974 
L 471.027131 262.520503 
L 488.239523 262.093601 
L 505.451914 285.610511 
L 522.664305 286.957089 
L 539.876696 277.569339 
L 557.089088 268.603248 
L 574.301479 250.428031 
L 591.51387 287.086406 
L 608.726262 279.845619 
L 625.938653 42.692496 
" clip-path="url(#p92074ad16c)" style="fill: none; stroke: #fb9a99; stroke-width: 1.5; stroke-linecap: square"/>
   </g>
   <g id="line2d_45">
    <path d="M 92.354523 291.205296 
L 109.566914 291.805038 
L 126.779305 279.892882 
L 143.991697 288.010017 
L 161.204088 286.204018 
L 178.416479 291.26648 
L 195.628871 291.792777 
L 212.841262 291.611309 
L 230.053653 288.675817 
L 247.266044 289.228757 
L 264.478436 291.842674 
L 281.690827 291.031062 
L 298.903218 290.955459 
L 316.11561 237.631535 
L 333.328001 289.128998 
L 350.540392 286.271452 
L 367.752784 196.925235 
L 384.965175 223.419017 
L 402.177566 258.224668 
L 419.389957 287.2448 
L 436.602349 139.084795 
L 453.81474 267.196388 
L 471.027131 167.503017 
L 488.239523 251.591583 
L 505.451914 284.712078 
L 522.664305 282.265629 
L 539.876696 259.098051 
L 557.089088 276.506294 
L 574.301479 283.730312 
L 591.51387 286.585944 
L 608.726262 250.37501 
L 625.938653 154.672343 
" clip-path="url(#p92074ad16c)" style="fill: none; stroke: #e31a1c; stroke-width: 1.5; stroke-linecap: square"/>
   </g>
   <g id="line2d_46">
    <path d="M 92.354523 288.468795 
L 109.566914 280.018866 
L 126.779305 290.072876 
L 143.991697 262.670626 
L 161.204088 289.275469 
L 178.416479 290.168714 
L 195.628871 291.505065 
L 212.841262 289.272324 
L 230.053653 288.588136 
L 247.266044 289.662062 
L 264.478436 289.566704 
L 281.690827 290.458501 
L 298.903218 290.583942 
L 316.11561 224.081458 
L 333.328001 289.141015 
L 350.540392 229.524981 
L 367.752784 189.381144 
L 384.965175 259.658562 
L 402.177566 252.194241 
L 419.389957 286.012188 
L 436.602349 184.196804 
L 453.81474 269.328922 
L 471.027131 203.184927 
L 488.239523 275.180385 
L 505.451914 285.590298 
L 522.664305 274.86323 
L 539.876696 285.790626 
L 557.089088 253.960965 
L 574.301479 261.230363 
L 591.51387 283.80239 
L 608.726262 243.509674 
L 625.938653 164.744476 
" clip-path="url(#p92074ad16c)" style="fill: none; stroke: #fdbf6f; stroke-width: 1.5; stroke-linecap: square"/>
   </g>
   <g id="line2d_47">
    <path d="M 92.354523 285.417476 
L 109.566914 264.422674 
L 126.779305 290.592212 
L 143.991697 287.634075 
L 161.204088 290.336633 
L 178.416479 291.523521 
L 195.628871 291.251564 
L 212.841262 291.641426 
L 230.053653 290.749694 
L 247.266044 291.230353 
L 264.478436 291.015437 
L 281.690827 290.494537 
L 298.903218 291.387501 
L 316.11561 268.791169 
L 333.328001 289.28446 
L 350.540392 279.182996 
L 367.752784 256.742767 
L 384.965175 277.328861 
L 402.177566 286.048934 
L 419.389957 287.538162 
L 436.602349 220.06172 
L 453.81474 223.991862 
L 471.027131 41.2802 
L 488.239523 278.345988 
L 505.451914 288.679163 
L 522.664305 288.564927 
L 539.876696 283.266721 
L 557.089088 285.504333 
L 574.301479 286.838184 
L 591.51387 280.919638 
L 608.726262 194.935666 
L 625.938653 80.685875 
" clip-path="url(#p92074ad16c)" style="fill: none; stroke: #ff7f00; stroke-width: 1.5; stroke-linecap: square"/>
   </g>
   <g id="line2d_48">
    <path d="M 92.354523 288.051654 
L 109.566914 283.345976 
L 126.779305 291.270973 
L 143.991697 269.645356 
L 161.204088 290.331233 
L 178.416479 290.828021 
L 195.628871 290.460965 
L 212.841262 291.32528 
L 230.053653 288.913021 
L 247.266044 290.406583 
L 264.478436 290.460914 
L 281.690827 291.263615 
L 298.903218 290.881966 
L 316.11561 223.64651 
L 333.328001 289.533977 
L 350.540392 258.890543 
L 367.752784 175.234961 
L 384.965175 266.48719 
L 402.177566 262.54186 
L 419.389957 285.940956 
L 436.602349 208.548419 
L 453.81474 239.305039 
L 471.027131 139.406897 
L 488.239523 271.678968 
L 505.451914 289.271849 
L 522.664305 281.941629 
L 539.876696 285.19866 
L 557.089088 250.128559 
L 574.301479 285.173202 
L 591.51387 288.46665 
L 608.726262 205.178089 
L 625.938653 191.929215 
" clip-path="url(#p92074ad16c)" style="fill: none; stroke: #cab2d6; stroke-width: 1.5; stroke-linecap: square"/>
   </g>
   <g id="line2d_49">
    <path d="M 92.354523 290.91259 
L 109.566914 281.110978 
L 126.779305 287.843176 
L 143.991697 269.057189 
L 161.204088 289.529491 
L 178.416479 289.156265 
L 195.628871 291.78662 
L 212.841262 290.012731 
L 230.053653 287.677428 
L 247.266044 290.990852 
L 264.478436 285.552688 
L 281.690827 289.622833 
L 298.903218 290.180127 
L 316.11561 239.716823 
L 333.328001 287.99427 
L 350.540392 207.528655 
L 367.752784 160.74697 
L 384.965175 265.824612 
L 402.177566 241.613063 
L 419.389957 284.965937 
L 436.602349 198.675937 
L 453.81474 252.496297 
L 471.027131 244.056844 
L 488.239523 283.987954 
L 505.451914 276.190246 
L 522.664305 278.088511 
L 539.876696 284.234762 
L 557.089088 277.519276 
L 574.301479 261.048813 
L 591.51387 288.015528 
L 608.726262 228.904486 
L 625.938653 150.646817 
" clip-path="url(#p92074ad16c)" style="fill: none; stroke: #6a3d9a; stroke-width: 1.5; stroke-linecap: square"/>
   </g>
   <g id="line2d_50">
    <path d="M 359.146588 305.479865 
L 359.146588 7.2 
" clip-path="url(#p92074ad16c)" style="fill: none; stroke-dasharray: 5.55,2.4; stroke-dashoffset: 0; stroke: #808080; stroke-width: 1.5"/>
   </g>
   <g id="line2d_51">
    <path d="M 83.748327 394.963824 
L 166.367805 394.963824 
" style="fill: none; stroke: #000000; stroke-width: 1.5; stroke-linecap: square"/>
   </g>
   <g id="line2d_52">
    <path d="M 173.252762 394.963824 
L 252.429762 394.963824 
" style="fill: none; stroke: #000000; stroke-width: 1.5; stroke-linecap: square"/>
   </g>
   <g id="line2d_53">
    <path d="M 259.314718 394.963824 
L 338.491718 394.963824 
" style="fill: none; stroke: #000000; stroke-width: 1.5; stroke-linecap: square"/>
   </g>
   <g id="line2d_54">
    <path d="M 362.589066 394.963824 
L 441.766066 394.963824 
" style="fill: none; stroke: #000000; stroke-width: 1.5; stroke-linecap: square"/>
   </g>
   <g id="line2d_55">
    <path d="M 448.651023 394.963824 
L 527.828023 394.963824 
" style="fill: none; stroke: #000000; stroke-width: 1.5; stroke-linecap: square"/>
   </g>
   <g id="line2d_56">
    <path d="M 534.712979 394.963824 
L 613.889979 394.963824 
" style="fill: none; stroke: #000000; stroke-width: 1.5; stroke-linecap: square"/>
   </g>
   <g id="line2d_57">
    <path d="M 359.146588 305.479865 
L 359.146588 454.619797 
" style="fill: none; stroke-dasharray: 5.55,2.4; stroke-dashoffset: 0; stroke: #808080; stroke-width: 1.5"/>
   </g>
   <g id="line2d_58">
    <path d="M 83.748327 424.791811 
L 355.70411 424.791811 
" style="fill: none; stroke: #000000; stroke-width: 1.5; stroke-linecap: square"/>
   </g>
   <g id="line2d_59">
    <path d="M 362.589066 424.791811 
L 631.10237 424.791811 
" style="fill: none; stroke: #000000; stroke-width: 1.5; stroke-linecap: square"/>
   </g>
   <g id="patch_3">
    <path d="M 56.380625 305.479865 
L 56.380625 7.2 
" style="fill: none; stroke: #000000; stroke-width: 0.8; stroke-linejoin: miter; stroke-linecap: square"/>
   </g>
   <g id="patch_4">
    <path d="M 56.380625 305.479865 
L 658.470072 305.479865 
" style="fill: none; stroke: #000000; stroke-width: 0.8; stroke-linejoin: miter; stroke-linecap: square"/>
   </g>
   <g id="text_41">
    <text style="font: 14px 'Arial', sans-serif; text-anchor: start" x="92.354523" y="412.904196" transform="rotate(-0 92.354523 412.904196)">Deletions</text>
   </g>
   <g id="text_42">
    <text style="font: 14px 'Arial', sans-serif; text-anchor: start" x="169.810284" y="412.904196" transform="rotate(-0 169.810284 412.904196)">Duplications</text>
   </g>
   <g id="text_43">
    <text style="font: 14px 'Arial', sans-serif; text-anchor: start" x="264.478436" y="412.904196" transform="rotate(-0 264.478436 412.904196)">Inversions</text>
   </g>
   <g id="text_44">
    <text style="font: 14px 'Arial', sans-serif; text-anchor: start" x="367.752784" y="412.904196" transform="rotate(-0 367.752784 412.904196)">Deletions</text>
   </g>
   <g id="text_45">
    <text style="font: 14px 'Arial', sans-serif; text-anchor: start" x="445.208544" y="412.904196" transform="rotate(-0 445.208544 412.904196)">Duplications</text>
   </g>
   <g id="text_46">
    <text style="font: 14px 'Arial', sans-serif; text-anchor: start" x="539.876696" y="412.904196" transform="rotate(-0 539.876696 412.904196)">Inversions</text>
   </g>
   <g id="patch_5">
    <path d="M 270.209028 209.064147 
Q 250.85803 227.406232 232.31847 244.979185 
" style="fill: none; stroke: #000000; stroke-linecap: round"/>
    <path d="M 239.164809 242.898885 
L 232.31847 244.979185 
L 234.762034 238.253934 
" style="fill: none; stroke: #000000; stroke-linecap: round"/>
   </g>
   <g id="text_47">
    <text style="font: 16px 'Arial', sans-serif; text-anchor: middle" x="281.690827" y="202.320981" transform="rotate(-0 281.690827 202.320981)">Chromomycins</text>
   </g>
   <g id="patch_6">
    <path d="M 564.794155 164.333968 
Q 577.579141 182.510188 589.720897 199.771938 
" style="fill: none; stroke: #000000; stroke-linecap: round"/>
    <path d="M 588.656201 192.696175 
L 589.720897 199.771938 
L 583.421469 196.378237 
" style="fill: none; stroke: #000000; stroke-linecap: round"/>
   </g>
   <g id="text_48">
    <text style="font: 16px 'Arial', sans-serif; text-anchor: middle" x="557.089088" y="157.516041" transform="rotate(-0 557.089088 157.516041)">Antimetabolite</text>
   </g>
   <g id="text_49">
    <text style="font: 20px 'Arial', sans-serif; text-anchor: start" x="171.03974" y="442.688603" transform="rotate(-0 171.03974 442.688603)">Clustered</text>
   </g>
   <g id="text_50">
    <text style="font: 20px 'Arial', sans-serif; text-anchor: start" x="416.352477" y="442.688603" transform="rotate(-0 416.352477 442.688603)">Non-Clustered</text>
   </g>
   <g id="legend_1">
    <g id="line2d_60">
     <path d="M 68.080625 23.821719 
L 81.080625 23.821719 
L 94.080625 23.821719 
" style="fill: none; stroke: #a6cee3; stroke-width: 5; stroke-linecap: square"/>
     <defs>
      <path id="m7d2df322ef" d="M 5 0 
L -5 -0 
" style="stroke: #a6cee3"/>
     </defs>
     <g>
      <use xlink:href="#m7d2df322ef" x="81.080625" y="23.821719" style="fill: #a6cee3; stroke: #a6cee3"/>
     </g>
    </g>
    <g id="text_51">
     <text style="font: 13px 'Arial', sans-serif; text-anchor: start" x="104.480625" y="28.371719" transform="rotate(-0 104.480625 28.371719)">Alkylating agent, Other</text>
    </g>
    <g id="line2d_61">
     <path d="M 68.080625 42.362969 
L 81.080625 42.362969 
L 94.080625 42.362969 
" style="fill: none; stroke: #1f78b4; stroke-width: 5; stroke-linecap: square"/>
     <defs>
      <path id="ma8766072e7" d="M 5 0 
L -5 -0 
" style="stroke: #1f78b4"/>
     </defs>
     <g>
      <use xlink:href="#ma8766072e7" x="81.080625" y="42.362969" style="fill: #1f78b4; stroke: #1f78b4"/>
     </g>
    </g>
    <g id="text_52">
     <text style="font: 13px 'Arial', sans-serif; text-anchor: start" x="104.480625" y="46.912969" transform="rotate(-0 104.480625 46.912969)">Anthracyclines</text>
    </g>
    <g id="line2d_62">
     <path d="M 68.080625 60.904219 
L 81.080625 60.904219 
L 94.080625 60.904219 
" style="fill: none; stroke: #b2df8a; stroke-width: 5; stroke-linecap: square"/>
     <defs>
      <path id="m05e35503cf" d="M 5 0 
L -5 -0 
" style="stroke: #b2df8a"/>
     </defs>
     <g>
      <use xlink:href="#m05e35503cf" x="81.080625" y="60.904219" style="fill: #b2df8a; stroke: #b2df8a"/>
     </g>
    </g>
    <g id="text_53">
     <text style="font: 13px 'Arial', sans-serif; text-anchor: start" x="104.480625" y="65.454219" transform="rotate(-0 104.480625 65.454219)">Antimetabolite</text>
    </g>
    <g id="line2d_63">
     <path d="M 68.080625 79.451562 
L 81.080625 79.451562 
L 94.080625 79.451562 
" style="fill: none; stroke: #33a02c; stroke-width: 5; stroke-linecap: square"/>
     <defs>
      <path id="m02e2319341" d="M 5 0 
L -5 -0 
" style="stroke: #33a02c"/>
     </defs>
     <g>
      <use xlink:href="#m02e2319341" x="81.080625" y="79.451562" style="fill: #33a02c; stroke: #33a02c"/>
     </g>
    </g>
    <g id="text_54">
     <text style="font: 13px 'Arial', sans-serif; text-anchor: start" x="104.480625" y="84.001562" transform="rotate(-0 104.480625 84.001562)">Camptothecin analogs</text>
    </g>
    <g id="line2d_64">
     <path d="M 68.080625 98.15125 
L 81.080625 98.15125 
L 94.080625 98.15125 
" style="fill: none; stroke: #fb9a99; stroke-width: 5; stroke-linecap: square"/>
     <defs>
      <path id="mb5ffdca057" d="M 5 0 
L -5 -0 
" style="stroke: #fb9a99"/>
     </defs>
     <g>
      <use xlink:href="#mb5ffdca057" x="81.080625" y="98.15125" style="fill: #fb9a99; stroke: #fb9a99"/>
     </g>
    </g>
    <g id="text_55">
     <text style="font: 13px 'Arial', sans-serif; text-anchor: start" x="104.480625" y="102.70125" transform="rotate(-0 104.480625 102.70125)">Chromomycins</text>
    </g>
    <g id="line2d_65">
     <path d="M 68.080625 116.6925 
L 81.080625 116.6925 
L 94.080625 116.6925 
" style="fill: none; stroke: #e31a1c; stroke-width: 5; stroke-linecap: square"/>
     <defs>
      <path id="mf0f0ec7f5e" d="M 5 0 
L -5 -0 
" style="stroke: #e31a1c"/>
     </defs>
     <g>
      <use xlink:href="#mf0f0ec7f5e" x="81.080625" y="116.6925" style="fill: #e31a1c; stroke: #e31a1c"/>
     </g>
    </g>
    <g id="text_56">
     <text style="font: 13px 'Arial', sans-serif; text-anchor: start" x="104.480625" y="121.2425" transform="rotate(-0 104.480625 121.2425)">Hydrazines and Triazines</text>
    </g>
    <g id="line2d_66">
     <path d="M 68.080625 135.23375 
L 81.080625 135.23375 
L 94.080625 135.23375 
" style="fill: none; stroke: #fdbf6f; stroke-width: 5; stroke-linecap: square"/>
     <defs>
      <path id="m5931e748cc" d="M 5 0 
L -5 -0 
" style="stroke: #fdbf6f"/>
     </defs>
     <g>
      <use xlink:href="#m5931e748cc" x="81.080625" y="135.23375" style="fill: #fdbf6f; stroke: #fdbf6f"/>
     </g>
    </g>
    <g id="text_57">
     <text style="font: 13px 'Arial', sans-serif; text-anchor: start" x="104.480625" y="139.78375" transform="rotate(-0 104.480625 139.78375)">Mustard gas derivative</text>
    </g>
    <g id="line2d_67">
     <path d="M 68.080625 153.775 
L 81.080625 153.775 
L 94.080625 153.775 
" style="fill: none; stroke: #ff7f00; stroke-width: 5; stroke-linecap: square"/>
     <defs>
      <path id="m7d450fd3d4" d="M 5 0 
L -5 -0 
" style="stroke: #ff7f00"/>
     </defs>
     <g>
      <use xlink:href="#m7d450fd3d4" x="81.080625" y="153.775" style="fill: #ff7f00; stroke: #ff7f00"/>
     </g>
    </g>
    <g id="text_58">
     <text style="font: 13px 'Arial', sans-serif; text-anchor: start" x="104.480625" y="158.325" transform="rotate(-0 104.480625 158.325)">Platinums</text>
    </g>
    <g id="line2d_68">
     <path d="M 68.080625 172.163906 
L 81.080625 172.163906 
L 94.080625 172.163906 
" style="fill: none; stroke: #cab2d6; stroke-width: 5; stroke-linecap: square"/>
     <defs>
      <path id="m45202d7470" d="M 5 0 
L -5 -0 
" style="stroke: #cab2d6"/>
     </defs>
     <g>
      <use xlink:href="#m45202d7470" x="81.080625" y="172.163906" style="fill: #cab2d6; stroke: #cab2d6"/>
     </g>
    </g>
    <g id="text_59">
     <text style="font: 13px 'Arial', sans-serif; text-anchor: start" x="104.480625" y="176.713906" transform="rotate(-0 104.480625 176.713906)">Podophyllotoxins</text>
    </g>
    <g id="line2d_69">
     <path d="M 68.080625 190.705156 
L 81.080625 190.705156 
L 94.080625 190.705156 
" style="fill: none; stroke: #6a3d9a; stroke-width: 5; stroke-linecap: square"/>
     <defs>
      <path id="m05dbe27603" d="M 5 0 
L -5 -0 
" style="stroke: #6a3d9a"/>
     </defs>
     <g>
      <use xlink:href="#m05dbe27603" x="81.080625" y="190.705156" style="fill: #6a3d9a; stroke: #6a3d9a"/>
     </g>
    </g>
    <g id="text_60">
     <text style="font: 13px 'Arial', sans-serif; text-anchor: start" x="104.480625" y="195.255156" transform="rotate(-0 104.480625 195.255156)">Vinca alkaloids</text>
    </g>
   </g>
  </g>
  <g id="axes_2">
   <g id="patch_7">
    <path d="M 695.110073 305.479865 
L 1297.19952 305.479865 
L 1297.19952 7.2 
L 695.110073 7.2 
L 695.110073 305.479865 
z
" style="fill: none"/>
   </g>
   <g id="matplotlib.axis_3">
    <g id="xtick_33">
     <g id="line2d_70">
      <g>
       <use xlink:href="#m3a5fb8827b" x="722.477775" y="305.479865" style="stroke: #000000; stroke-width: 0.8"/>
      </g>
     </g>
     <g id="text_61">
      <text style="font: 12px 'Arial', sans-serif" transform="translate(719.375587 312.479865) rotate(-270)">0:homdel:0-100kb</text>
     </g>
    </g>
    <g id="xtick_34">
     <g id="line2d_71">
      <g>
       <use xlink:href="#m3a5fb8827b" x="734.123605" y="305.479865" style="stroke: #000000; stroke-width: 0.8"/>
      </g>
     </g>
     <g id="text_62">
      <text style="font: 12px 'Arial', sans-serif" transform="translate(731.021418 312.479865) rotate(-270)">0:homdel:100kb-1Mb</text>
     </g>
    </g>
    <g id="xtick_35">
     <g id="line2d_72">
      <g>
       <use xlink:href="#m3a5fb8827b" x="745.769436" y="305.479865" style="stroke: #000000; stroke-width: 0.8"/>
      </g>
     </g>
     <g id="text_63">
      <text style="font: 12px 'Arial', sans-serif" transform="translate(742.667249 312.479865) rotate(-270)">0:homdel:&gt;1Mb</text>
     </g>
    </g>
    <g id="xtick_36">
     <g id="line2d_73">
      <g>
       <use xlink:href="#m3a5fb8827b" x="757.415267" y="305.479865" style="stroke: #000000; stroke-width: 0.8"/>
      </g>
     </g>
     <g id="text_64">
      <text style="font: 12px 'Arial', sans-serif" transform="translate(754.313079 312.479865) rotate(-270)">1:LOH:0-100kb</text>
     </g>
    </g>
    <g id="xtick_37">
     <g id="line2d_74">
      <g>
       <use xlink:href="#m3a5fb8827b" x="769.061097" y="305.479865" style="stroke: #000000; stroke-width: 0.8"/>
      </g>
     </g>
     <g id="text_65">
      <text style="font: 12px 'Arial', sans-serif" transform="translate(765.95891 312.479865) rotate(-270)">1:LOH:100kb-1Mb</text>
     </g>
    </g>
    <g id="xtick_38">
     <g id="line2d_75">
      <g>
       <use xlink:href="#m3a5fb8827b" x="780.706928" y="305.479865" style="stroke: #000000; stroke-width: 0.8"/>
      </g>
     </g>
     <g id="text_66">
      <text style="font: 12px 'Arial', sans-serif" transform="translate(777.604741 312.479865) rotate(-270)">1:LOH:1Mb-10Mb</text>
     </g>
    </g>
    <g id="xtick_39">
     <g id="line2d_76">
      <g>
       <use xlink:href="#m3a5fb8827b" x="792.352759" y="305.479865" style="stroke: #000000; stroke-width: 0.8"/>
      </g>
     </g>
     <g id="text_67">
      <text style="font: 12px 'Arial', sans-serif" transform="translate(789.250571 312.479865) rotate(-270)">1:LOH:10Mb-40Mb</text>
     </g>
    </g>
    <g id="xtick_40">
     <g id="line2d_77">
      <g>
       <use xlink:href="#m3a5fb8827b" x="803.99859" y="305.479865" style="stroke: #000000; stroke-width: 0.8"/>
      </g>
     </g>
     <g id="text_68">
      <text style="font: 12px 'Arial', sans-serif" transform="translate(800.896402 312.479865) rotate(-270)">1:LOH:&gt;40Mb</text>
     </g>
    </g>
    <g id="xtick_41">
     <g id="line2d_78">
      <g>
       <use xlink:href="#m3a5fb8827b" x="815.64442" y="305.479865" style="stroke: #000000; stroke-width: 0.8"/>
      </g>
     </g>
     <g id="text_69">
      <text style="font: 12px 'Arial', sans-serif" transform="translate(812.542233 312.479865) rotate(-270)">2:LOH:0-100kb</text>
     </g>
    </g>
    <g id="xtick_42">
     <g id="line2d_79">
      <g>
       <use xlink:href="#m3a5fb8827b" x="827.290251" y="305.479865" style="stroke: #000000; stroke-width: 0.8"/>
      </g>
     </g>
     <g id="text_70">
      <text style="font: 12px 'Arial', sans-serif" transform="translate(824.188064 312.479865) rotate(-270)">2:LOH:100kb-1Mb</text>
     </g>
    </g>
    <g id="xtick_43">
     <g id="line2d_80">
      <g>
       <use xlink:href="#m3a5fb8827b" x="838.936082" y="305.479865" style="stroke: #000000; stroke-width: 0.8"/>
      </g>
     </g>
     <g id="text_71">
      <text style="font: 12px 'Arial', sans-serif" transform="translate(835.833894 312.479865) rotate(-270)">2:LOH:1Mb-10Mb</text>
     </g>
    </g>
    <g id="xtick_44">
     <g id="line2d_81">
      <g>
       <use xlink:href="#m3a5fb8827b" x="850.581912" y="305.479865" style="stroke: #000000; stroke-width: 0.8"/>
      </g>
     </g>
     <g id="text_72">
      <text style="font: 12px 'Arial', sans-serif" transform="translate(847.479725 312.479865) rotate(-270)">2:LOH:10Mb-40Mb</text>
     </g>
    </g>
    <g id="xtick_45">
     <g id="line2d_82">
      <g>
       <use xlink:href="#m3a5fb8827b" x="862.227743" y="305.479865" style="stroke: #000000; stroke-width: 0.8"/>
      </g>
     </g>
     <g id="text_73">
      <text style="font: 12px 'Arial', sans-serif" transform="translate(859.125556 312.479865) rotate(-270)">2:LOH:&gt;40Mb</text>
     </g>
    </g>
    <g id="xtick_46">
     <g id="line2d_83">
      <g>
       <use xlink:href="#m3a5fb8827b" x="873.873574" y="305.479865" style="stroke: #000000; stroke-width: 0.8"/>
      </g>
     </g>
     <g id="text_74">
      <text style="font: 12px 'Arial', sans-serif" transform="translate(870.771386 312.479865) rotate(-270)">3-4:LOH:0-100kb</text>
     </g>
    </g>
    <g id="xtick_47">
     <g id="line2d_84">
      <g>
       <use xlink:href="#m3a5fb8827b" x="885.519405" y="305.479865" style="stroke: #000000; stroke-width: 0.8"/>
      </g>
     </g>
     <g id="text_75">
      <text style="font: 12px 'Arial', sans-serif" transform="translate(882.417217 312.479865) rotate(-270)">3-4:LOH:100kb-1Mb</text>
     </g>
    </g>
    <g id="xtick_48">
     <g id="line2d_85">
      <g>
       <use xlink:href="#m3a5fb8827b" x="897.165235" y="305.479865" style="stroke: #000000; stroke-width: 0.8"/>
      </g>
     </g>
     <g id="text_76">
      <text style="font: 12px 'Arial', sans-serif" transform="translate(894.063048 312.479865) rotate(-270)">3-4:LOH:1Mb-10Mb</text>
     </g>
    </g>
    <g id="xtick_49">
     <g id="line2d_86">
      <g>
       <use xlink:href="#m3a5fb8827b" x="908.811066" y="305.479865" style="stroke: #000000; stroke-width: 0.8"/>
      </g>
     </g>
     <g id="text_77">
      <text style="font: 12px 'Arial', sans-serif" transform="translate(905.708878 312.479865) rotate(-270)">3-4:LOH:10Mb-40Mb</text>
     </g>
    </g>
    <g id="xtick_50">
     <g id="line2d_87">
      <g>
       <use xlink:href="#m3a5fb8827b" x="920.456897" y="305.479865" style="stroke: #000000; stroke-width: 0.8"/>
      </g>
     </g>
     <g id="text_78">
      <text style="font: 12px 'Arial', sans-serif" transform="translate(917.354709 312.479865) rotate(-270)">3-4:LOH:&gt;40Mb</text>
     </g>
    </g>
    <g id="xtick_51">
     <g id="line2d_88">
      <g>
       <use xlink:href="#m3a5fb8827b" x="932.102727" y="305.479865" style="stroke: #000000; stroke-width: 0.8"/>
      </g>
     </g>
     <g id="text_79">
      <text style="font: 12px 'Arial', sans-serif" transform="translate(929.00054 312.479865) rotate(-270)">5-8:LOH:0-100kb</text>
     </g>
    </g>
    <g id="xtick_52">
     <g id="line2d_89">
      <g>
       <use xlink:href="#m3a5fb8827b" x="943.748558" y="305.479865" style="stroke: #000000; stroke-width: 0.8"/>
      </g>
     </g>
     <g id="text_80">
      <text style="font: 12px 'Arial', sans-serif" transform="translate(940.646371 312.479865) rotate(-270)">5-8:LOH:100kb-1Mb</text>
     </g>
    </g>
    <g id="xtick_53">
     <g id="line2d_90">
      <g>
       <use xlink:href="#m3a5fb8827b" x="955.394389" y="305.479865" style="stroke: #000000; stroke-width: 0.8"/>
      </g>
     </g>
     <g id="text_81">
      <text style="font: 12px 'Arial', sans-serif" transform="translate(952.292201 312.479865) rotate(-270)">5-8:LOH:1Mb-10Mb</text>
     </g>
    </g>
    <g id="xtick_54">
     <g id="line2d_91">
      <g>
       <use xlink:href="#m3a5fb8827b" x="967.040219" y="305.479865" style="stroke: #000000; stroke-width: 0.8"/>
      </g>
     </g>
     <g id="text_82">
      <text style="font: 12px 'Arial', sans-serif" transform="translate(963.938032 312.479865) rotate(-270)">5-8:LOH:10Mb-40Mb</text>
     </g>
    </g>
    <g id="xtick_55">
     <g id="line2d_92">
      <g>
       <use xlink:href="#m3a5fb8827b" x="978.68605" y="305.479865" style="stroke: #000000; stroke-width: 0.8"/>
      </g>
     </g>
     <g id="text_83">
      <text style="font: 12px 'Arial', sans-serif" transform="translate(975.583863 312.479865) rotate(-270)">5-8:LOH:&gt;40Mb</text>
     </g>
    </g>
    <g id="xtick_56">
     <g id="line2d_93">
      <g>
       <use xlink:href="#m3a5fb8827b" x="990.331881" y="305.479865" style="stroke: #000000; stroke-width: 0.8"/>
      </g>
     </g>
     <g id="text_84">
      <text style="font: 12px 'Arial', sans-serif" transform="translate(987.229693 312.479865) rotate(-270)">9+:LOH:0-100kb</text>
     </g>
    </g>
    <g id="xtick_57">
     <g id="line2d_94">
      <g>
       <use xlink:href="#m3a5fb8827b" x="1001.977712" y="305.479865" style="stroke: #000000; stroke-width: 0.8"/>
      </g>
     </g>
     <g id="text_85">
      <text style="font: 12px 'Arial', sans-serif" transform="translate(998.875524 312.479865) rotate(-270)">9+:LOH:100kb-1Mb</text>
     </g>
    </g>
    <g id="xtick_58">
     <g id="line2d_95">
      <g>
       <use xlink:href="#m3a5fb8827b" x="1013.623542" y="305.479865" style="stroke: #000000; stroke-width: 0.8"/>
      </g>
     </g>
     <g id="text_86">
      <text style="font: 12px 'Arial', sans-serif" transform="translate(1010.521355 312.479865) rotate(-270)">9+:LOH:1Mb-10Mb</text>
     </g>
    </g>
    <g id="xtick_59">
     <g id="line2d_96">
      <g>
       <use xlink:href="#m3a5fb8827b" x="1025.269373" y="305.479865" style="stroke: #000000; stroke-width: 0.8"/>
      </g>
     </g>
     <g id="text_87">
      <text style="font: 12px 'Arial', sans-serif" transform="translate(1022.167186 312.479865) rotate(-270)">9+:LOH:10Mb-40Mb</text>
     </g>
    </g>
    <g id="xtick_60">
     <g id="line2d_97">
      <g>
       <use xlink:href="#m3a5fb8827b" x="1036.915204" y="305.479865" style="stroke: #000000; stroke-width: 0.8"/>
      </g>
     </g>
     <g id="text_88">
      <text style="font: 12px 'Arial', sans-serif" transform="translate(1033.813016 312.479865) rotate(-270)">9+:LOH:&gt;40Mb</text>
     </g>
    </g>
    <g id="xtick_61">
     <g id="line2d_98">
      <g>
       <use xlink:href="#m3a5fb8827b" x="1048.561034" y="305.479865" style="stroke: #000000; stroke-width: 0.8"/>
      </g>
     </g>
     <g id="text_89">
      <text style="font: 12px 'Arial', sans-serif" transform="translate(1045.458847 312.479865) rotate(-270)">2:het:0-100kb</text>
     </g>
    </g>
    <g id="xtick_62">
     <g id="line2d_99">
      <g>
       <use xlink:href="#m3a5fb8827b" x="1060.206865" y="305.479865" style="stroke: #000000; stroke-width: 0.8"/>
      </g>
     </g>
     <g id="text_90">
      <text style="font: 12px 'Arial', sans-serif" transform="translate(1057.104678 312.479865) rotate(-270)">2:het:100kb-1Mb</text>
     </g>
    </g>
    <g id="xtick_63">
     <g id="line2d_100">
      <g>
       <use xlink:href="#m3a5fb8827b" x="1071.852696" y="305.479865" style="stroke: #000000; stroke-width: 0.8"/>
      </g>
     </g>
     <g id="text_91">
      <text style="font: 12px 'Arial', sans-serif" transform="translate(1068.750508 312.479865) rotate(-270)">2:het:1Mb-10Mb</text>
     </g>
    </g>
    <g id="xtick_64">
     <g id="line2d_101">
      <g>
       <use xlink:href="#m3a5fb8827b" x="1083.498527" y="305.479865" style="stroke: #000000; stroke-width: 0.8"/>
      </g>
     </g>
     <g id="text_92">
      <text style="font: 12px 'Arial', sans-serif" transform="translate(1080.396339 312.479865) rotate(-270)">2:het:10Mb-40Mb</text>
     </g>
    </g>
    <g id="xtick_65">
     <g id="line2d_102">
      <g>
       <use xlink:href="#m3a5fb8827b" x="1095.144357" y="305.479865" style="stroke: #000000; stroke-width: 0.8"/>
      </g>
     </g>
     <g id="text_93">
      <text style="font: 12px 'Arial', sans-serif" transform="translate(1092.04217 312.479865) rotate(-270)">2:het:&gt;40Mb</text>
     </g>
    </g>
    <g id="xtick_66">
     <g id="line2d_103">
      <g>
       <use xlink:href="#m3a5fb8827b" x="1106.790188" y="305.479865" style="stroke: #000000; stroke-width: 0.8"/>
      </g>
     </g>
     <g id="text_94">
      <text style="font: 12px 'Arial', sans-serif" transform="translate(1103.688 312.479865) rotate(-270)">3-4:het:0-100kb</text>
     </g>
    </g>
    <g id="xtick_67">
     <g id="line2d_104">
      <g>
       <use xlink:href="#m3a5fb8827b" x="1118.436019" y="305.479865" style="stroke: #000000; stroke-width: 0.8"/>
      </g>
     </g>
     <g id="text_95">
      <text style="font: 12px 'Arial', sans-serif" transform="translate(1115.333831 312.479865) rotate(-270)">3-4:het:100kb-1Mb</text>
     </g>
    </g>
    <g id="xtick_68">
     <g id="line2d_105">
      <g>
       <use xlink:href="#m3a5fb8827b" x="1130.081849" y="305.479865" style="stroke: #000000; stroke-width: 0.8"/>
      </g>
     </g>
     <g id="text_96">
      <text style="font: 12px 'Arial', sans-serif" transform="translate(1126.979662 312.479865) rotate(-270)">3-4:het:1Mb-10Mb</text>
     </g>
    </g>
    <g id="xtick_69">
     <g id="line2d_106">
      <g>
       <use xlink:href="#m3a5fb8827b" x="1141.72768" y="305.479865" style="stroke: #000000; stroke-width: 0.8"/>
      </g>
     </g>
     <g id="text_97">
      <text style="font: 12px 'Arial', sans-serif" transform="translate(1138.625493 312.479865) rotate(-270)">3-4:het:10Mb-40Mb</text>
     </g>
    </g>
    <g id="xtick_70">
     <g id="line2d_107">
      <g>
       <use xlink:href="#m3a5fb8827b" x="1153.373511" y="305.479865" style="stroke: #000000; stroke-width: 0.8"/>
      </g>
     </g>
     <g id="text_98">
      <text style="font: 12px 'Arial', sans-serif" transform="translate(1150.271323 312.479865) rotate(-270)">3-4:het:&gt;40Mb</text>
     </g>
    </g>
    <g id="xtick_71">
     <g id="line2d_108">
      <g>
       <use xlink:href="#m3a5fb8827b" x="1165.019341" y="305.479865" style="stroke: #000000; stroke-width: 0.8"/>
      </g>
     </g>
     <g id="text_99">
      <text style="font: 12px 'Arial', sans-serif" transform="translate(1161.917154 312.479865) rotate(-270)">5-8:het:0-100kb</text>
     </g>
    </g>
    <g id="xtick_72">
     <g id="line2d_109">
      <g>
       <use xlink:href="#m3a5fb8827b" x="1176.665172" y="305.479865" style="stroke: #000000; stroke-width: 0.8"/>
      </g>
     </g>
     <g id="text_100">
      <text style="font: 12px 'Arial', sans-serif" transform="translate(1173.562985 312.479865) rotate(-270)">5-8:het:100kb-1Mb</text>
     </g>
    </g>
    <g id="xtick_73">
     <g id="line2d_110">
      <g>
       <use xlink:href="#m3a5fb8827b" x="1188.311003" y="305.479865" style="stroke: #000000; stroke-width: 0.8"/>
      </g>
     </g>
     <g id="text_101">
      <text style="font: 12px 'Arial', sans-serif" transform="translate(1185.208815 312.479865) rotate(-270)">5-8:het:1Mb-10Mb</text>
     </g>
    </g>
    <g id="xtick_74">
     <g id="line2d_111">
      <g>
       <use xlink:href="#m3a5fb8827b" x="1199.956834" y="305.479865" style="stroke: #000000; stroke-width: 0.8"/>
      </g>
     </g>
     <g id="text_102">
      <text style="font: 12px 'Arial', sans-serif" transform="translate(1196.854646 312.479865) rotate(-270)">5-8:het:10Mb-40Mb</text>
     </g>
    </g>
    <g id="xtick_75">
     <g id="line2d_112">
      <g>
       <use xlink:href="#m3a5fb8827b" x="1211.602664" y="305.479865" style="stroke: #000000; stroke-width: 0.8"/>
      </g>
     </g>
     <g id="text_103">
      <text style="font: 12px 'Arial', sans-serif" transform="translate(1208.500477 312.479865) rotate(-270)">5-8:het:&gt;40Mb</text>
     </g>
    </g>
    <g id="xtick_76">
     <g id="line2d_113">
      <g>
       <use xlink:href="#m3a5fb8827b" x="1223.248495" y="305.479865" style="stroke: #000000; stroke-width: 0.8"/>
      </g>
     </g>
     <g id="text_104">
      <text style="font: 12px 'Arial', sans-serif" transform="translate(1220.146308 312.479865) rotate(-270)">9+:het:0-100kb</text>
     </g>
    </g>
    <g id="xtick_77">
     <g id="line2d_114">
      <g>
       <use xlink:href="#m3a5fb8827b" x="1234.894326" y="305.479865" style="stroke: #000000; stroke-width: 0.8"/>
      </g>
     </g>
     <g id="text_105">
      <text style="font: 12px 'Arial', sans-serif" transform="translate(1231.792138 312.479865) rotate(-270)">9+:het:100kb-1Mb</text>
     </g>
    </g>
    <g id="xtick_78">
     <g id="line2d_115">
      <g>
       <use xlink:href="#m3a5fb8827b" x="1246.540156" y="305.479865" style="stroke: #000000; stroke-width: 0.8"/>
      </g>
     </g>
     <g id="text_106">
      <text style="font: 12px 'Arial', sans-serif" transform="translate(1243.437969 312.479865) rotate(-270)">9+:het:1Mb-10Mb</text>
     </g>
    </g>
    <g id="xtick_79">
     <g id="line2d_116">
      <g>
       <use xlink:href="#m3a5fb8827b" x="1258.185987" y="305.479865" style="stroke: #000000; stroke-width: 0.8"/>
      </g>
     </g>
     <g id="text_107">
      <text style="font: 12px 'Arial', sans-serif" transform="translate(1255.0838 312.479865) rotate(-270)">9+:het:10Mb-40Mb</text>
     </g>
    </g>
    <g id="xtick_80">
     <g id="line2d_117">
      <g>
       <use xlink:href="#m3a5fb8827b" x="1269.831818" y="305.479865" style="stroke: #000000; stroke-width: 0.8"/>
      </g>
     </g>
     <g id="text_108">
      <text style="font: 12px 'Arial', sans-serif" transform="translate(1266.72963 312.479865) rotate(-270)">9+:het:&gt;40Mb</text>
     </g>
    </g>
   </g>
   <g id="matplotlib.axis_4">
    <g id="ytick_8">
     <g id="line2d_118">
      <g>
       <use xlink:href="#m6f4c2f6042" x="695.110073" y="291.921689" style="stroke: #000000; stroke-width: 0.8"/>
      </g>
     </g>
     <g id="text_109">
      <text style="font: 12px 'Arial', sans-serif; text-anchor: end" x="688.110073" y="296.216377" transform="rotate(-0 688.110073 296.216377)">0.0</text>
     </g>
    </g>
    <g id="ytick_9">
     <g id="line2d_119">
      <g>
       <use xlink:href="#m6f4c2f6042" x="695.110073" y="241.921757" style="stroke: #000000; stroke-width: 0.8"/>
      </g>
     </g>
     <g id="text_110">
      <text style="font: 12px 'Arial', sans-serif; text-anchor: end" x="688.110073" y="246.216444" transform="rotate(-0 688.110073 246.216444)">0.1</text>
     </g>
    </g>
    <g id="ytick_10">
     <g id="line2d_120">
      <g>
       <use xlink:href="#m6f4c2f6042" x="695.110073" y="191.921824" style="stroke: #000000; stroke-width: 0.8"/>
      </g>
     </g>
     <g id="text_111">
      <text style="font: 12px 'Arial', sans-serif; text-anchor: end" x="688.110073" y="196.216512" transform="rotate(-0 688.110073 196.216512)">0.2</text>
     </g>
    </g>
    <g id="ytick_11">
     <g id="line2d_121">
      <g>
       <use xlink:href="#m6f4c2f6042" x="695.110073" y="141.921892" style="stroke: #000000; stroke-width: 0.8"/>
      </g>
     </g>
     <g id="text_112">
      <text style="font: 12px 'Arial', sans-serif; text-anchor: end" x="688.110073" y="146.216579" transform="rotate(-0 688.110073 146.216579)">0.3</text>
     </g>
    </g>
    <g id="ytick_12">
     <g id="line2d_122">
      <g>
       <use xlink:href="#m6f4c2f6042" x="695.110073" y="91.921959" style="stroke: #000000; stroke-width: 0.8"/>
      </g>
     </g>
     <g id="text_113">
      <text style="font: 12px 'Arial', sans-serif; text-anchor: end" x="688.110073" y="96.216647" transform="rotate(-0 688.110073 96.216647)">0.4</text>
     </g>
    </g>
    <g id="ytick_13">
     <g id="line2d_123">
      <g>
       <use xlink:href="#m6f4c2f6042" x="695.110073" y="41.922027" style="stroke: #000000; stroke-width: 0.8"/>
      </g>
     </g>
     <g id="text_114">
      <text style="font: 12px 'Arial', sans-serif; text-anchor: end" x="688.110073" y="46.216715" transform="rotate(-0 688.110073 46.216715)">0.5</text>
     </g>
    </g>
   </g>
   <g id="line2d_124">
    <path d="M 722.477775 291.902133 
L 734.123605 289.137719 
L 745.769436 285.391499 
L 757.415267 288.954221 
L 769.061097 260.882786 
L 780.706928 255.127899 
L 792.352759 242.263398 
L 803.99859 273.993515 
L 815.64442 287.394046 
L 827.290251 264.880639 
L 838.936082 274.713341 
L 850.581912 276.310233 
L 862.227743 248.462848 
L 873.873574 290.417637 
L 885.519405 290.746898 
L 897.165235 287.675309 
L 908.811066 289.761124 
L 920.456897 291.570512 
L 932.102727 291.894275 
L 943.748558 291.901067 
L 955.394389 291.921689 
L 967.040219 291.921689 
L 978.68605 291.921689 
L 990.331881 291.921689 
L 1001.977712 291.914634 
L 1013.623542 291.921689 
L 1025.269373 291.921689 
L 1036.915204 291.921689 
L 1048.561034 291.921689 
L 1060.206865 291.921689 
L 1071.852696 291.921689 
L 1083.498527 291.921689 
L 1095.144357 291.921689 
L 1106.790188 265.436898 
L 1118.436019 273.917763 
L 1130.081849 250.151856 
L 1141.72768 229.966758 
L 1153.373511 227.665851 
L 1165.019341 291.643296 
L 1176.665172 284.422917 
L 1188.311003 281.589177 
L 1199.956834 289.109157 
L 1211.602664 291.196049 
L 1223.248495 291.827547 
L 1234.894326 291.201847 
L 1246.540156 291.913256 
L 1258.185987 291.921689 
L 1269.831818 291.921689 
" clip-path="url(#p5caae1e1dc)" style="fill: none; stroke: #a6cee3; stroke-width: 1.5; stroke-linecap: square"/>
   </g>
   <g id="line2d_125">
    <path d="M 722.477775 250.476855 
L 734.123605 279.030866 
L 745.769436 277.022358 
L 757.415267 288.857451 
L 769.061097 274.448885 
L 780.706928 239.547032 
L 792.352759 278.436319 
L 803.99859 247.869874 
L 815.64442 288.647754 
L 827.290251 255.365334 
L 838.936082 280.021425 
L 850.581912 281.279421 
L 862.227743 285.313884 
L 873.873574 276.704505 
L 885.519405 278.604591 
L 897.165235 288.498777 
L 908.811066 290.388744 
L 920.456897 291.165596 
L 932.102727 277.963269 
L 943.748558 277.734671 
L 955.394389 289.654392 
L 967.040219 291.866251 
L 978.68605 291.921689 
L 990.331881 291.848238 
L 1001.977712 291.459035 
L 1013.623542 291.913306 
L 1025.269373 291.921689 
L 1036.915204 291.921689 
L 1048.561034 291.921689 
L 1060.206865 291.921689 
L 1071.852696 291.921689 
L 1083.498527 291.921689 
L 1095.144357 291.921689 
L 1106.790188 272.606918 
L 1118.436019 268.11558 
L 1130.081849 282.717571 
L 1141.72768 271.03806 
L 1153.373511 268.80399 
L 1165.019341 290.547354 
L 1176.665172 283.641895 
L 1188.311003 273.787382 
L 1199.956834 287.530526 
L 1211.602664 289.581473 
L 1223.248495 290.477958 
L 1234.894326 270.224845 
L 1246.540156 279.832475 
L 1258.185987 291.921689 
L 1269.831818 291.921689 
" clip-path="url(#p5caae1e1dc)" style="fill: none; stroke: #1f78b4; stroke-width: 1.5; stroke-linecap: square"/>
   </g>
   <g id="line2d_126">
    <path d="M 722.477775 291.879812 
L 734.123605 20.758176 
L 745.769436 291.346021 
L 757.415267 291.478792 
L 769.061097 264.725402 
L 780.706928 282.946739 
L 792.352759 290.719608 
L 803.99859 291.059189 
L 815.64442 278.026889 
L 827.290251 264.171313 
L 838.936082 214.450954 
L 850.581912 289.875986 
L 862.227743 291.902736 
L 873.873574 288.751146 
L 885.519405 270.927436 
L 897.165235 290.887544 
L 908.811066 291.812496 
L 920.456897 291.921689 
L 932.102727 291.787193 
L 943.748558 290.972919 
L 955.394389 284.437895 
L 967.040219 291.921689 
L 978.68605 291.921689 
L 990.331881 291.913214 
L 1001.977712 291.921689 
L 1013.623542 291.921689 
L 1025.269373 291.921689 
L 1036.915204 291.921689 
L 1048.561034 291.921689 
L 1060.206865 291.921689 
L 1071.852696 291.921689 
L 1083.498527 291.921689 
L 1095.144357 291.921689 
L 1106.790188 291.856574 
L 1118.436019 290.703536 
L 1130.081849 288.958526 
L 1141.72768 288.211064 
L 1153.373511 291.416481 
L 1165.019341 291.893467 
L 1176.665172 288.326651 
L 1188.311003 274.89084 
L 1199.956834 291.81957 
L 1211.602664 291.915932 
L 1223.248495 291.907276 
L 1234.894326 288.214531 
L 1246.540156 290.392177 
L 1258.185987 291.921689 
L 1269.831818 291.921689 
" clip-path="url(#p5caae1e1dc)" style="fill: none; stroke: #b2df8a; stroke-width: 1.5; stroke-linecap: square"/>
   </g>
   <g id="line2d_127">
    <path d="M 722.477775 273.509834 
L 734.123605 290.238903 
L 745.769436 287.291436 
L 757.415267 280.352367 
L 769.061097 278.06595 
L 780.706928 240.901183 
L 792.352759 271.485267 
L 803.99859 256.478467 
L 815.64442 287.936328 
L 827.290251 275.010423 
L 838.936082 285.354088 
L 850.581912 281.934694 
L 862.227743 278.350362 
L 873.873574 290.422624 
L 885.519405 268.760048 
L 897.165235 288.571144 
L 908.811066 288.017018 
L 920.456897 289.120689 
L 932.102727 291.233149 
L 943.748558 291.677045 
L 955.394389 291.390805 
L 967.040219 291.919826 
L 978.68605 291.921689 
L 990.331881 291.92042 
L 1001.977712 291.888596 
L 1013.623542 291.921689 
L 1025.269373 291.921689 
L 1036.915204 291.921689 
L 1048.561034 291.921689 
L 1060.206865 291.921689 
L 1071.852696 291.921689 
L 1083.498527 291.921689 
L 1095.144357 291.921689 
L 1106.790188 284.313752 
L 1118.436019 258.11608 
L 1130.081849 269.384537 
L 1141.72768 209.93581 
L 1153.373511 248.153633 
L 1165.019341 289.612332 
L 1176.665172 284.85225 
L 1188.311003 287.041506 
L 1199.956834 261.977377 
L 1211.602664 277.681497 
L 1223.248495 291.204147 
L 1234.894326 286.116979 
L 1246.540156 290.882616 
L 1258.185987 291.921689 
L 1269.831818 291.921689 
" clip-path="url(#p5caae1e1dc)" style="fill: none; stroke: #33a02c; stroke-width: 1.5; stroke-linecap: square"/>
   </g>
   <g id="line2d_128">
    <path d="M 722.477775 291.920163 
L 734.123605 289.760671 
L 745.769436 289.494954 
L 757.415267 288.719671 
L 769.061097 273.496889 
L 780.706928 156.923612 
L 792.352759 264.780185 
L 803.99859 273.937698 
L 815.64442 279.92466 
L 827.290251 282.998078 
L 838.936082 287.871735 
L 850.581912 276.250705 
L 862.227743 290.306763 
L 873.873574 291.765885 
L 885.519405 288.392307 
L 897.165235 289.321491 
L 908.811066 288.598319 
L 920.456897 278.682161 
L 932.102727 291.921689 
L 943.748558 291.830714 
L 955.394389 291.206555 
L 967.040219 291.921689 
L 978.68605 291.921689 
L 990.331881 291.921689 
L 1001.977712 291.921689 
L 1013.623542 291.921689 
L 1025.269373 291.921689 
L 1036.915204 291.921689 
L 1048.561034 291.921689 
L 1060.206865 291.921689 
L 1071.852696 291.921689 
L 1083.498527 291.921689 
L 1095.144357 291.921689 
L 1106.790188 284.812105 
L 1118.436019 239.43984 
L 1130.081849 186.965191 
L 1141.72768 280.314406 
L 1153.373511 257.123396 
L 1165.019341 291.536453 
L 1176.665172 280.983592 
L 1188.311003 289.692985 
L 1199.956834 290.038527 
L 1211.602664 291.078931 
L 1223.248495 291.840484 
L 1234.894326 291.592991 
L 1246.540156 291.814297 
L 1258.185987 291.921689 
L 1269.831818 291.921689 
" clip-path="url(#p5caae1e1dc)" style="fill: none; stroke: #fb9a99; stroke-width: 1.5; stroke-linecap: square"/>
   </g>
   <g id="line2d_129">
    <path d="M 722.477775 287.691308 
L 734.123605 279.939902 
L 745.769436 290.385186 
L 757.415267 286.083514 
L 769.061097 273.778483 
L 780.706928 180.859984 
L 792.352759 247.329654 
L 803.99859 241.343904 
L 815.64442 280.791593 
L 827.290251 284.048339 
L 838.936082 286.545568 
L 850.581912 285.765588 
L 862.227743 288.899391 
L 873.873574 288.599291 
L 885.519405 289.294906 
L 897.165235 289.130494 
L 908.811066 289.867087 
L 920.456897 291.530674 
L 932.102727 291.13263 
L 943.748558 291.833028 
L 955.394389 291.850083 
L 967.040219 291.921689 
L 978.68605 291.921689 
L 990.331881 291.917715 
L 1001.977712 291.90416 
L 1013.623542 291.921689 
L 1025.269373 291.921689 
L 1036.915204 291.921689 
L 1048.561034 291.921689 
L 1060.206865 291.921689 
L 1071.852696 291.921689 
L 1083.498527 291.921689 
L 1095.144357 291.921689 
L 1106.790188 273.517806 
L 1118.436019 262.862622 
L 1130.081849 258.042685 
L 1141.72768 227.033552 
L 1153.373511 247.531379 
L 1165.019341 290.631599 
L 1176.665172 288.506917 
L 1188.311003 287.166076 
L 1199.956834 289.504881 
L 1211.602664 289.083802 
L 1223.248495 291.645012 
L 1234.894326 291.606904 
L 1246.540156 291.52577 
L 1258.185987 291.921689 
L 1269.831818 291.921689 
" clip-path="url(#p5caae1e1dc)" style="fill: none; stroke: #e31a1c; stroke-width: 1.5; stroke-linecap: square"/>
   </g>
   <g id="line2d_130">
    <path d="M 722.477775 280.121132 
L 734.123605 288.305857 
L 745.769436 278.24285 
L 757.415267 282.905555 
L 769.061097 270.144134 
L 780.706928 224.76477 
L 792.352759 282.299648 
L 803.99859 225.060345 
L 815.64442 283.381204 
L 827.290251 283.185216 
L 838.936082 284.092126 
L 850.581912 277.675164 
L 862.227743 269.918547 
L 873.873574 291.047343 
L 885.519405 278.479232 
L 897.165235 285.987199 
L 908.811066 285.310019 
L 920.456897 288.813517 
L 932.102727 284.043617 
L 943.748558 277.321559 
L 955.394389 280.868054 
L 967.040219 291.772642 
L 978.68605 291.528938 
L 990.331881 291.827431 
L 1001.977712 291.60977 
L 1013.623542 291.527679 
L 1025.269373 291.921689 
L 1036.915204 291.919728 
L 1048.561034 291.921689 
L 1060.206865 291.921689 
L 1071.852696 291.921689 
L 1083.498527 291.921689 
L 1095.144357 291.921689 
L 1106.790188 286.228357 
L 1118.436019 260.515417 
L 1130.081849 272.02905 
L 1141.72768 265.006017 
L 1153.373511 252.005383 
L 1165.019341 288.426913 
L 1176.665172 285.109087 
L 1188.311003 286.129005 
L 1199.956834 279.165981 
L 1211.602664 283.744906 
L 1223.248495 291.142845 
L 1234.894326 284.464538 
L 1246.540156 290.769174 
L 1258.185987 291.900006 
L 1269.831818 291.921689 
" clip-path="url(#p5caae1e1dc)" style="fill: none; stroke: #fdbf6f; stroke-width: 1.5; stroke-linecap: square"/>
   </g>
   <g id="line2d_131">
    <path d="M 722.477775 291.738584 
L 734.123605 290.165293 
L 745.769436 282.798636 
L 757.415267 283.331582 
L 769.061097 282.962509 
L 780.706928 234.940861 
L 792.352759 272.318869 
L 803.99859 275.556515 
L 815.64442 278.771614 
L 827.290251 281.196266 
L 838.936082 276.014153 
L 850.581912 266.053675 
L 862.227743 259.208156 
L 873.873574 291.429169 
L 885.519405 283.363792 
L 897.165235 289.525285 
L 908.811066 288.917086 
L 920.456897 290.842267 
L 932.102727 291.884341 
L 943.748558 290.225871 
L 955.394389 291.662788 
L 967.040219 291.877874 
L 978.68605 291.921689 
L 990.331881 291.867807 
L 1001.977712 291.896283 
L 1013.623542 291.907752 
L 1025.269373 291.921689 
L 1036.915204 291.921689 
L 1048.561034 291.921689 
L 1060.206865 291.921689 
L 1071.852696 291.921689 
L 1083.498527 291.921689 
L 1095.144357 291.921689 
L 1106.790188 287.485608 
L 1118.436019 273.154474 
L 1130.081849 282.603767 
L 1141.72768 219.413812 
L 1153.373511 232.021355 
L 1165.019341 290.900532 
L 1176.665172 289.025598 
L 1188.311003 279.196061 
L 1199.956834 259.520388 
L 1211.602664 279.16358 
L 1223.248495 287.419377 
L 1234.894326 269.816063 
L 1246.540156 282.847208 
L 1258.185987 291.921689 
L 1269.831818 291.921689 
" clip-path="url(#p5caae1e1dc)" style="fill: none; stroke: #ff7f00; stroke-width: 1.5; stroke-linecap: square"/>
   </g>
   <g id="line2d_132">
    <path d="M 722.477775 283.505046 
L 734.123605 278.841668 
L 745.769436 275.31266 
L 757.415267 289.741204 
L 769.061097 244.937068 
L 780.706928 210.293549 
L 792.352759 279.500581 
L 803.99859 252.822197 
L 815.64442 290.53672 
L 827.290251 267.866755 
L 838.936082 272.195803 
L 850.581912 258.947312 
L 862.227743 271.950506 
L 873.873574 286.976795 
L 885.519405 282.796498 
L 897.165235 287.400309 
L 908.811066 291.587671 
L 920.456897 291.175332 
L 932.102727 271.034521 
L 943.748558 279.149062 
L 955.394389 287.624598 
L 967.040219 291.618857 
L 978.68605 291.919904 
L 990.331881 291.732005 
L 1001.977712 291.81097 
L 1013.623542 291.917022 
L 1025.269373 291.921689 
L 1036.915204 291.921689 
L 1048.561034 291.921689 
L 1060.206865 291.921689 
L 1071.852696 291.921689 
L 1083.498527 291.921689 
L 1095.144357 291.921689 
L 1106.790188 282.668508 
L 1118.436019 275.009192 
L 1130.081849 288.39561 
L 1141.72768 261.696015 
L 1153.373511 243.723367 
L 1165.019341 291.606014 
L 1176.665172 287.909848 
L 1188.311003 288.162915 
L 1199.956834 290.664599 
L 1211.602664 287.92673 
L 1223.248495 291.547963 
L 1234.894326 291.050147 
L 1246.540156 291.39103 
L 1258.185987 291.921689 
L 1269.831818 291.921689 
" clip-path="url(#p5caae1e1dc)" style="fill: none; stroke: #cab2d6; stroke-width: 1.5; stroke-linecap: square"/>
   </g>
   <g id="line2d_133">
    <path d="M 722.477775 258.461814 
L 734.123605 289.709329 
L 745.769436 287.706142 
L 757.415267 286.257969 
L 769.061097 273.859294 
L 780.706928 215.317253 
L 792.352759 286.178053 
L 803.99859 228.50744 
L 815.64442 279.24259 
L 827.290251 289.33884 
L 838.936082 284.439474 
L 850.581912 271.779252 
L 862.227743 288.242353 
L 873.873574 273.500767 
L 885.519405 278.348666 
L 897.165235 289.190317 
L 908.811066 290.728534 
L 920.456897 290.097066 
L 932.102727 263.067101 
L 943.748558 291.027839 
L 955.394389 288.530535 
L 967.040219 291.803685 
L 978.68605 291.803804 
L 990.331881 290.107276 
L 1001.977712 291.162994 
L 1013.623542 291.474921 
L 1025.269373 291.920657 
L 1036.915204 291.921689 
L 1048.561034 291.921689 
L 1060.206865 291.921689 
L 1071.852696 291.921689 
L 1083.498527 291.921689 
L 1095.144357 291.921689 
L 1106.790188 290.103523 
L 1118.436019 253.857656 
L 1130.081849 279.412267 
L 1141.72768 258.150435 
L 1153.373511 238.655366 
L 1165.019341 291.759837 
L 1176.665172 271.100446 
L 1188.311003 287.174142 
L 1199.956834 291.261935 
L 1211.602664 290.587875 
L 1223.248495 291.431557 
L 1234.894326 289.850263 
L 1246.540156 291.743316 
L 1258.185987 291.897346 
L 1269.831818 291.921689 
" clip-path="url(#p5caae1e1dc)" style="fill: none; stroke: #6a3d9a; stroke-width: 1.5; stroke-linecap: square"/>
   </g>
   <g id="patch_8">
    <path d="M 695.110073 305.479865 
L 695.110073 7.2 
" style="fill: none; stroke: #000000; stroke-width: 0.8; stroke-linejoin: miter; stroke-linecap: square"/>
   </g>
   <g id="patch_9">
    <path d="M 695.110073 305.479865 
L 1297.19952 305.479865 
" style="fill: none; stroke: #000000; stroke-width: 0.8; stroke-linejoin: miter; stroke-linecap: square"/>
   </g>
   <g id="patch_10">
    <path d="M 759.133515 47.789594 
Q 747.567348 52.013001 737.051389 55.852921 
" style="fill: none; stroke: #000000; stroke-linecap: round"/>
    <path d="M 744.160736 56.663595 
L 737.051389 55.852921 
L 741.965536 50.651848 
" style="fill: none; stroke: #000000; stroke-linecap: round"/>
   </g>
   <g id="text_115">
    <text style="font: 16px 'Arial', sans-serif; text-anchor: middle" x="786.529844" y="41.922027" transform="rotate(-0 786.529844 41.922027)">Antimetabolite</text>
   </g>
   <g id="patch_11">
    <path d="M 862.579416 173.898541 
Q 851.200051 197.011778 840.314523 219.121958 
" style="fill: none; stroke: #000000; stroke-linecap: round"/>
    <path d="M 846.012328 214.793561 
L 840.314523 219.121958 
L 840.270489 211.966676 
" style="fill: none; stroke: #000000; stroke-linecap: round"/>
   </g>
   <g id="text_116">
    <text style="font: 16px 'Arial', sans-serif; text-anchor: middle" x="868.050658" y="166.921858" transform="rotate(-0 868.050658 166.921858)">Antimetabolite</text>
   </g>
   <g id="patch_12">
    <path d="M 1130.081849 149.288985 
Q 1130.081849 164.603561 1130.081849 178.800102 
" style="fill: none; stroke: #000000; stroke-linecap: round"/>
    <path d="M 1133.281849 172.400102 
L 1130.081849 178.800102 
L 1126.881849 172.400102 
" style="fill: none; stroke: #000000; stroke-linecap: round"/>
   </g>
   <g id="text_117">
    <text style="font: 16px 'Arial', sans-serif; text-anchor: middle" x="1130.081849" y="141.921892" transform="rotate(-0 1130.081849 141.921892)">Chromomycins</text>
   </g>
  </g>
 </g>
 <defs>
  <clipPath id="p92074ad16c">
   <rect x="56.380625" y="7.2" width="602.089448" height="298.279865"/>
  </clipPath>
  <clipPath id="p5caae1e1dc">
   <rect x="695.110073" y="7.2" width="602.089448" height="298.279865"/>
  </clipPath>
 </defs>
</svg>
