<?xml version="1.0" encoding="utf-8" standalone="no"?>
<!DOCTYPE svg PUBLIC "-//W3C//DTD SVG 1.1//EN"
  "http://www.w3.org/Graphics/SVG/1.1/DTD/svg11.dtd">
<svg xmlns:xlink="http://www.w3.org/1999/xlink" width="748.64375pt" height="568.906875pt" viewBox="0 0 748.64375 568.906875" xmlns="http://www.w3.org/2000/svg" version="1.1">
 <metadata>
  <rdf:RDF xmlns:dc="http://purl.org/dc/elements/1.1/" xmlns:cc="http://creativecommons.org/ns#" xmlns:rdf="http://www.w3.org/1999/02/22-rdf-syntax-ns#">
   <cc:Work>
    <dc:type rdf:resource="http://purl.org/dc/dcmitype/StillImage"/>
    <dc:date>2026-05-21T13:25:58.563052</dc:date>
    <dc:format>image/svg+xml</dc:format>
    <dc:creator>
     <cc:Agent>
      <dc:title>Matplotlib v3.7.3, https://matplotlib.org/</dc:title>
     </cc:Agent>
    </dc:creator>
   </cc:Work>
  </rdf:RDF>
 </metadata>
 <defs>
  <style type="text/css">*{stroke-linejoin: round; stroke-linecap: butt}</style>
 </defs>
 <g id="figure_1">
  <g id="patch_1">
   <path d="M -0 568.906875 
L 748.64375 568.906875 
L 748.64375 0 
L -0 0 
L -0 568.906875 
z
" style="fill: none"/>
  </g>
  <g id="axes_1">
   <g id="patch_2">
    <path d="M 54.76375 517.305625 
L 741.44375 517.305625 
L 741.44375 27.515625 
L 54.76375 27.515625 
L 54.76375 517.305625 
z
" style="fill: none"/>
   </g>
   <g id="PolyCollection_1"/>
   <g id="PathCollection_1">
    <defs>
     <path id="m5e28c5a21d" d="M 0 4.330127 
C 1.148363 4.330127 2.249847 3.873878 3.061862 3.061862 
C 3.873878 2.249847 4.330127 1.148363 4.330127 0 
C 4.330127 -1.148363 3.873878 -2.249847 3.061862 -3.061862 
C 2.249847 -3.873878 1.148363 -4.330127 0 -4.330127 
C -1.148363 -4.330127 -2.249847 -3.873878 -3.061862 -3.061862 
C -3.873878 -2.249847 -4.330127 -1.148363 -4.330127 0 
C -4.330127 1.148363 -3.873878 2.249847 -3.061862 3.061862 
C -2.249847 3.873878 -1.148363 4.330127 0 4.330127 
z
" style="stroke: #ffffff; stroke-width: 0.69282"/>
    </defs>
    <g clip-path="url(#pa8feef3868)">
     <use xlink:href="#m5e28c5a21d" x="166.435952" y="70.551755" style="fill: #778899; stroke: #ffffff; stroke-width: 0.69282"/>
     <use xlink:href="#m5e28c5a21d" x="194.180598" y="67.603903" style="fill: #778899; stroke: #ffffff; stroke-width: 0.69282"/>
     <use xlink:href="#m5e28c5a21d" x="144.240235" y="75.375513" style="fill: #778899; stroke: #ffffff; stroke-width: 0.69282"/>
     <use xlink:href="#m5e28c5a21d" x="88.750942" y="495.042443" style="fill: #778899; stroke: #ffffff; stroke-width: 0.69282"/>
     <use xlink:href="#m5e28c5a21d" x="113.721124" y="210.960214" style="fill: #778899; stroke: #ffffff; stroke-width: 0.69282"/>
     <use xlink:href="#m5e28c5a21d" x="97.074336" y="392.457194" style="fill: #778899; stroke: #ffffff; stroke-width: 0.69282"/>
     <use xlink:href="#m5e28c5a21d" x="133.142376" y="84.701445" style="fill: #778899; stroke: #ffffff; stroke-width: 0.69282"/>
     <use xlink:href="#m5e28c5a21d" x="152.563629" y="101.115085" style="fill: #778899; stroke: #ffffff; stroke-width: 0.69282"/>
     <use xlink:href="#m5e28c5a21d" x="418.912235" y="49.778807" style="fill: #778899; stroke: #ffffff; stroke-width: 0.69282"/>
     <use xlink:href="#m5e28c5a21d" x="352.325083" y="57.345378" style="fill: #778899; stroke: #ffffff; stroke-width: 0.69282"/>
     <use xlink:href="#m5e28c5a21d" x="263.542215" y="59.680652" style="fill: #778899; stroke: #ffffff; stroke-width: 0.69282"/>
     <use xlink:href="#m5e28c5a21d" x="321.805972" y="61.386616" style="fill: #778899; stroke: #ffffff; stroke-width: 0.69282"/>
     <use xlink:href="#m5e28c5a21d" x="110.946659" y="271.220081" style="fill: #778899; stroke: #ffffff; stroke-width: 0.69282"/>
     <use xlink:href="#m5e28c5a21d" x="366.197407" y="53.479847" style="fill: #778899; stroke: #ffffff; stroke-width: 0.69282"/>
     <use xlink:href="#m5e28c5a21d" x="180.308275" y="71.878289" style="fill: #778899; stroke: #ffffff; stroke-width: 0.69282"/>
     <use xlink:href="#m5e28c5a21d" x="108.172194" y="310.388994" style="fill: #778899; stroke: #ffffff; stroke-width: 0.69282"/>
     <use xlink:href="#m5e28c5a21d" x="119.270053" y="187.286695" style="fill: #778899; stroke: #ffffff; stroke-width: 0.69282"/>
     <use xlink:href="#m5e28c5a21d" x="147.014699" y="110.347757" style="fill: #778899; stroke: #ffffff; stroke-width: 0.69282"/>
     <use xlink:href="#m5e28c5a21d" x="191.406134" y="55.391374" style="fill: #778899; stroke: #ffffff; stroke-width: 0.69282"/>
     <use xlink:href="#m5e28c5a21d" x="213.601851" y="79.156296" style="fill: #778899; stroke: #ffffff; stroke-width: 0.69282"/>
     <use xlink:href="#m5e28c5a21d" x="163.661487" y="84.701445" style="fill: #778899; stroke: #ffffff; stroke-width: 0.69282"/>
     <use xlink:href="#m5e28c5a21d" x="102.623265" y="341.164569" style="fill: #778899; stroke: #ffffff; stroke-width: 0.69282"/>
     <use xlink:href="#m5e28c5a21d" x="282.963467" y="51.301596" style="fill: #778899; stroke: #ffffff; stroke-width: 0.69282"/>
     <use xlink:href="#m5e28c5a21d" x="185.857205" y="60.563739" style="fill: #778899; stroke: #ffffff; stroke-width: 0.69282"/>
     <use xlink:href="#m5e28c5a21d" x="94.299871" y="495.042443" style="fill: #778899; stroke: #ffffff; stroke-width: 0.69282"/>
     <use xlink:href="#m5e28c5a21d" x="127.593447" y="132.976857" style="fill: #778899; stroke: #ffffff; stroke-width: 0.69282"/>
     <use xlink:href="#m5e28c5a21d" x="130.367912" y="106.29834" style="fill: #778899; stroke: #ffffff; stroke-width: 0.69282"/>
     <use xlink:href="#m5e28c5a21d" x="174.759346" y="58.227832" style="fill: #778899; stroke: #ffffff; stroke-width: 0.69282"/>
     <use xlink:href="#m5e28c5a21d" x="183.08274" y="66.049581" style="fill: #778899; stroke: #ffffff; stroke-width: 0.69282"/>
     <use xlink:href="#m5e28c5a21d" x="124.818982" y="148.817226" style="fill: #778899; stroke: #ffffff; stroke-width: 0.69282"/>
     <use xlink:href="#m5e28c5a21d" x="271.865609" y="55.391374" style="fill: #778899; stroke: #ffffff; stroke-width: 0.69282"/>
     <use xlink:href="#m5e28c5a21d" x="235.797568" y="73.902998" style="fill: #778899; stroke: #ffffff; stroke-width: 0.69282"/>
     <use xlink:href="#m5e28c5a21d" x="169.210417" y="64.184395" style="fill: #778899; stroke: #ffffff; stroke-width: 0.69282"/>
     <use xlink:href="#m5e28c5a21d" x="257.993285" y="68.919099" style="fill: #778899; stroke: #ffffff; stroke-width: 0.69282"/>
    </g>
   </g>
   <g id="PolyCollection_2"/>
   <g id="PathCollection_2">
    <defs>
     <path id="ma2965edfe4" d="M 0 4.330127 
C 1.148363 4.330127 2.249847 3.873878 3.061862 3.061862 
C 3.873878 2.249847 4.330127 1.148363 4.330127 0 
C 4.330127 -1.148363 3.873878 -2.249847 3.061862 -3.061862 
C 2.249847 -3.873878 1.148363 -4.330127 0 -4.330127 
C -1.148363 -4.330127 -2.249847 -3.873878 -3.061862 -3.061862 
C -3.873878 -2.249847 -4.330127 -1.148363 -4.330127 0 
C -4.330127 1.148363 -3.873878 2.249847 -3.061862 3.061862 
C -2.249847 3.873878 -1.148363 4.330127 0 4.330127 
z
" style="stroke: #ffffff; stroke-width: 0.69282"/>
    </defs>
    <g clip-path="url(#pa8feef3868)">
     <use xlink:href="#ma2965edfe4" x="94.299871" y="495.042443" style="fill: #2f4f4f; stroke: #ffffff; stroke-width: 0.69282"/>
     <use xlink:href="#ma2965edfe4" x="113.721124" y="418.103506" style="fill: #2f4f4f; stroke: #ffffff; stroke-width: 0.69282"/>
     <use xlink:href="#ma2965edfe4" x="410.588841" y="319.182015" style="fill: #2f4f4f; stroke: #ffffff; stroke-width: 0.69282"/>
     <use xlink:href="#ma2965edfe4" x="97.074336" y="460.84736" style="fill: #2f4f4f; stroke: #ffffff; stroke-width: 0.69282"/>
     <use xlink:href="#ma2965edfe4" x="99.848801" y="465.732372" style="fill: #2f4f4f; stroke: #ffffff; stroke-width: 0.69282"/>
     <use xlink:href="#ma2965edfe4" x="269.091144" y="345.827535" style="fill: #2f4f4f; stroke: #ffffff; stroke-width: 0.69282"/>
     <use xlink:href="#ma2965edfe4" x="158.112558" y="346.470702" style="fill: #2f4f4f; stroke: #ffffff; stroke-width: 0.69282"/>
     <use xlink:href="#ma2965edfe4" x="91.525407" y="495.042443" style="fill: #2f4f4f; stroke: #ffffff; stroke-width: 0.69282"/>
     <use xlink:href="#ma2965edfe4" x="105.39773" y="441.519704" style="fill: #2f4f4f; stroke: #ffffff; stroke-width: 0.69282"/>
     <use xlink:href="#ma2965edfe4" x="288.512396" y="332.112929" style="fill: #2f4f4f; stroke: #ffffff; stroke-width: 0.69282"/>
     <use xlink:href="#ma2965edfe4" x="147.014699" y="341.164569" style="fill: #2f4f4f; stroke: #ffffff; stroke-width: 0.69282"/>
     <use xlink:href="#ma2965edfe4" x="135.916841" y="376.674848" style="fill: #2f4f4f; stroke: #ffffff; stroke-width: 0.69282"/>
     <use xlink:href="#ma2965edfe4" x="191.406134" y="356.055976" style="fill: #2f4f4f; stroke: #ffffff; stroke-width: 0.69282"/>
     <use xlink:href="#ma2965edfe4" x="130.367912" y="396.560604" style="fill: #2f4f4f; stroke: #ffffff; stroke-width: 0.69282"/>
     <use xlink:href="#ma2965edfe4" x="449.431346" y="306.969486" style="fill: #2f4f4f; stroke: #ffffff; stroke-width: 0.69282"/>
     <use xlink:href="#ma2965edfe4" x="710.231023" y="312.052539" style="fill: #2f4f4f; stroke: #ffffff; stroke-width: 0.69282"/>
     <use xlink:href="#ma2965edfe4" x="88.750942" y="495.042443" style="fill: #2f4f4f; stroke: #ffffff; stroke-width: 0.69282"/>
     <use xlink:href="#ma2965edfe4" x="185.857205" y="351.423094" style="fill: #2f4f4f; stroke: #ffffff; stroke-width: 0.69282"/>
     <use xlink:href="#ma2965edfe4" x="216.376316" y="341.164569" style="fill: #2f4f4f; stroke: #ffffff; stroke-width: 0.69282"/>
    </g>
   </g>
   <g id="matplotlib.axis_1">
    <g id="xtick_1">
     <g id="line2d_1">
      <defs>
       <path id="m81255e3717" d="M 0 0 
L 0 3.5 
" style="stroke: #000000; stroke-width: 0.8"/>
      </defs>
      <g>
       <use xlink:href="#m81255e3717" x="85.976477" y="517.305625" style="stroke: #000000; stroke-width: 0.8"/>
      </g>
     </g>
     <g id="text_1">
      <!-- 0 -->
      <g transform="translate(81.527727 535.758125) scale(0.16 -0.16)">
       <defs>
        <path id="ArialMT-30" d="M 266 2259 
Q 266 3072 433 3567 
Q 600 4063 929 4331 
Q 1259 4600 1759 4600 
Q 2128 4600 2406 4451 
Q 2684 4303 2865 4023 
Q 3047 3744 3150 3342 
Q 3253 2941 3253 2259 
Q 3253 1453 3087 958 
Q 2922 463 2592 192 
Q 2263 -78 1759 -78 
Q 1097 -78 719 397 
Q 266 969 266 2259 
z
M 844 2259 
Q 844 1131 1108 757 
Q 1372 384 1759 384 
Q 2147 384 2411 759 
Q 2675 1134 2675 2259 
Q 2675 3391 2411 3762 
Q 2147 4134 1753 4134 
Q 1366 4134 1134 3806 
Q 844 3388 844 2259 
z
" transform="scale(0.015625)"/>
       </defs>
       <use xlink:href="#ArialMT-30"/>
      </g>
     </g>
    </g>
    <g id="xtick_2">
     <g id="line2d_2">
      <g>
       <use xlink:href="#m81255e3717" x="224.69971" y="517.305625" style="stroke: #000000; stroke-width: 0.8"/>
      </g>
     </g>
     <g id="text_2">
      <!-- 50 -->
      <g transform="translate(215.80221 535.758125) scale(0.16 -0.16)">
       <defs>
        <path id="ArialMT-35" d="M 266 1200 
L 856 1250 
Q 922 819 1161 601 
Q 1400 384 1738 384 
Q 2144 384 2425 690 
Q 2706 997 2706 1503 
Q 2706 1984 2436 2262 
Q 2166 2541 1728 2541 
Q 1456 2541 1237 2417 
Q 1019 2294 894 2097 
L 366 2166 
L 809 4519 
L 3088 4519 
L 3088 3981 
L 1259 3981 
L 1013 2750 
Q 1425 3038 1878 3038 
Q 2478 3038 2890 2622 
Q 3303 2206 3303 1553 
Q 3303 931 2941 478 
Q 2500 -78 1738 -78 
Q 1113 -78 717 272 
Q 322 622 266 1200 
z
" transform="scale(0.015625)"/>
       </defs>
       <use xlink:href="#ArialMT-35"/>
       <use xlink:href="#ArialMT-30" x="55.615234"/>
      </g>
     </g>
    </g>
    <g id="xtick_3">
     <g id="line2d_3">
      <g>
       <use xlink:href="#m81255e3717" x="363.422942" y="517.305625" style="stroke: #000000; stroke-width: 0.8"/>
      </g>
     </g>
     <g id="text_3">
      <!-- 100 -->
      <g transform="translate(350.076692 535.758125) scale(0.16 -0.16)">
       <defs>
        <path id="ArialMT-31" d="M 2384 0 
L 1822 0 
L 1822 3584 
Q 1619 3391 1289 3197 
Q 959 3003 697 2906 
L 697 3450 
Q 1169 3672 1522 3987 
Q 1875 4303 2022 4600 
L 2384 4600 
L 2384 0 
z
" transform="scale(0.015625)"/>
       </defs>
       <use xlink:href="#ArialMT-31"/>
       <use xlink:href="#ArialMT-30" x="55.615234"/>
       <use xlink:href="#ArialMT-30" x="111.230469"/>
      </g>
     </g>
    </g>
    <g id="xtick_4">
     <g id="line2d_4">
      <g>
       <use xlink:href="#m81255e3717" x="502.146174" y="517.305625" style="stroke: #000000; stroke-width: 0.8"/>
      </g>
     </g>
     <g id="text_4">
      <!-- 150 -->
      <g transform="translate(488.799924 535.758125) scale(0.16 -0.16)">
       <use xlink:href="#ArialMT-31"/>
       <use xlink:href="#ArialMT-35" x="55.615234"/>
       <use xlink:href="#ArialMT-30" x="111.230469"/>
      </g>
     </g>
    </g>
    <g id="xtick_5">
     <g id="line2d_5">
      <g>
       <use xlink:href="#m81255e3717" x="640.869407" y="517.305625" style="stroke: #000000; stroke-width: 0.8"/>
      </g>
     </g>
     <g id="text_5">
      <!-- 200 -->
      <g transform="translate(627.523157 535.758125) scale(0.16 -0.16)">
       <defs>
        <path id="ArialMT-32" d="M 3222 541 
L 3222 0 
L 194 0 
Q 188 203 259 391 
Q 375 700 629 1000 
Q 884 1300 1366 1694 
Q 2113 2306 2375 2664 
Q 2638 3022 2638 3341 
Q 2638 3675 2398 3904 
Q 2159 4134 1775 4134 
Q 1369 4134 1125 3890 
Q 881 3647 878 3216 
L 300 3275 
Q 359 3922 746 4261 
Q 1134 4600 1788 4600 
Q 2447 4600 2831 4234 
Q 3216 3869 3216 3328 
Q 3216 3053 3103 2787 
Q 2991 2522 2730 2228 
Q 2469 1934 1863 1422 
Q 1356 997 1212 845 
Q 1069 694 975 541 
L 3222 541 
z
" transform="scale(0.015625)"/>
       </defs>
       <use xlink:href="#ArialMT-32"/>
       <use xlink:href="#ArialMT-30" x="55.615234"/>
       <use xlink:href="#ArialMT-30" x="111.230469"/>
      </g>
     </g>
    </g>
    <g id="text_6">
     <!-- Months from Start of Therapy -->
     <g transform="translate(268.239688 557.4975) scale(0.2 -0.2)">
      <defs>
       <path id="ArialMT-4d" d="M 475 0 
L 475 4581 
L 1388 4581 
L 2472 1338 
Q 2622 884 2691 659 
Q 2769 909 2934 1394 
L 4031 4581 
L 4847 4581 
L 4847 0 
L 4263 0 
L 4263 3834 
L 2931 0 
L 2384 0 
L 1059 3900 
L 1059 0 
L 475 0 
z
" transform="scale(0.015625)"/>
       <path id="ArialMT-6f" d="M 213 1659 
Q 213 2581 725 3025 
Q 1153 3394 1769 3394 
Q 2453 3394 2887 2945 
Q 3322 2497 3322 1706 
Q 3322 1066 3130 698 
Q 2938 331 2570 128 
Q 2203 -75 1769 -75 
Q 1072 -75 642 372 
Q 213 819 213 1659 
z
M 791 1659 
Q 791 1022 1069 705 
Q 1347 388 1769 388 
Q 2188 388 2466 706 
Q 2744 1025 2744 1678 
Q 2744 2294 2464 2611 
Q 2184 2928 1769 2928 
Q 1347 2928 1069 2612 
Q 791 2297 791 1659 
z
" transform="scale(0.015625)"/>
       <path id="ArialMT-6e" d="M 422 0 
L 422 3319 
L 928 3319 
L 928 2847 
Q 1294 3394 1984 3394 
Q 2284 3394 2536 3286 
Q 2788 3178 2913 3003 
Q 3038 2828 3088 2588 
Q 3119 2431 3119 2041 
L 3119 0 
L 2556 0 
L 2556 2019 
Q 2556 2363 2490 2533 
Q 2425 2703 2258 2804 
Q 2091 2906 1866 2906 
Q 1506 2906 1245 2678 
Q 984 2450 984 1813 
L 984 0 
L 422 0 
z
" transform="scale(0.015625)"/>
       <path id="ArialMT-74" d="M 1650 503 
L 1731 6 
Q 1494 -44 1306 -44 
Q 1000 -44 831 53 
Q 663 150 594 308 
Q 525 466 525 972 
L 525 2881 
L 113 2881 
L 113 3319 
L 525 3319 
L 525 4141 
L 1084 4478 
L 1084 3319 
L 1650 3319 
L 1650 2881 
L 1084 2881 
L 1084 941 
Q 1084 700 1114 631 
Q 1144 563 1211 522 
Q 1278 481 1403 481 
Q 1497 481 1650 503 
z
" transform="scale(0.015625)"/>
       <path id="ArialMT-68" d="M 422 0 
L 422 4581 
L 984 4581 
L 984 2938 
Q 1378 3394 1978 3394 
Q 2347 3394 2619 3248 
Q 2891 3103 3008 2847 
Q 3125 2591 3125 2103 
L 3125 0 
L 2563 0 
L 2563 2103 
Q 2563 2525 2380 2717 
Q 2197 2909 1863 2909 
Q 1613 2909 1392 2779 
Q 1172 2650 1078 2428 
Q 984 2206 984 1816 
L 984 0 
L 422 0 
z
" transform="scale(0.015625)"/>
       <path id="ArialMT-73" d="M 197 991 
L 753 1078 
Q 800 744 1014 566 
Q 1228 388 1613 388 
Q 2000 388 2187 545 
Q 2375 703 2375 916 
Q 2375 1106 2209 1216 
Q 2094 1291 1634 1406 
Q 1016 1563 777 1677 
Q 538 1791 414 1992 
Q 291 2194 291 2438 
Q 291 2659 392 2848 
Q 494 3038 669 3163 
Q 800 3259 1026 3326 
Q 1253 3394 1513 3394 
Q 1903 3394 2198 3281 
Q 2494 3169 2634 2976 
Q 2775 2784 2828 2463 
L 2278 2388 
Q 2241 2644 2061 2787 
Q 1881 2931 1553 2931 
Q 1166 2931 1000 2803 
Q 834 2675 834 2503 
Q 834 2394 903 2306 
Q 972 2216 1119 2156 
Q 1203 2125 1616 2013 
Q 2213 1853 2448 1751 
Q 2684 1650 2818 1456 
Q 2953 1263 2953 975 
Q 2953 694 2789 445 
Q 2625 197 2315 61 
Q 2006 -75 1616 -75 
Q 969 -75 630 194 
Q 291 463 197 991 
z
" transform="scale(0.015625)"/>
       <path id="ArialMT-20" transform="scale(0.015625)"/>
       <path id="ArialMT-66" d="M 556 0 
L 556 2881 
L 59 2881 
L 59 3319 
L 556 3319 
L 556 3672 
Q 556 4006 616 4169 
Q 697 4388 901 4523 
Q 1106 4659 1475 4659 
Q 1713 4659 2000 4603 
L 1916 4113 
Q 1741 4144 1584 4144 
Q 1328 4144 1222 4034 
Q 1116 3925 1116 3625 
L 1116 3319 
L 1763 3319 
L 1763 2881 
L 1116 2881 
L 1116 0 
L 556 0 
z
" transform="scale(0.015625)"/>
       <path id="ArialMT-72" d="M 416 0 
L 416 3319 
L 922 3319 
L 922 2816 
Q 1116 3169 1280 3281 
Q 1444 3394 1641 3394 
Q 1925 3394 2219 3213 
L 2025 2691 
Q 1819 2813 1613 2813 
Q 1428 2813 1281 2702 
Q 1134 2591 1072 2394 
Q 978 2094 978 1738 
L 978 0 
L 416 0 
z
" transform="scale(0.015625)"/>
       <path id="ArialMT-6d" d="M 422 0 
L 422 3319 
L 925 3319 
L 925 2853 
Q 1081 3097 1340 3245 
Q 1600 3394 1931 3394 
Q 2300 3394 2536 3241 
Q 2772 3088 2869 2813 
Q 3263 3394 3894 3394 
Q 4388 3394 4653 3120 
Q 4919 2847 4919 2278 
L 4919 0 
L 4359 0 
L 4359 2091 
Q 4359 2428 4304 2576 
Q 4250 2725 4106 2815 
Q 3963 2906 3769 2906 
Q 3419 2906 3187 2673 
Q 2956 2441 2956 1928 
L 2956 0 
L 2394 0 
L 2394 2156 
Q 2394 2531 2256 2718 
Q 2119 2906 1806 2906 
Q 1569 2906 1367 2781 
Q 1166 2656 1075 2415 
Q 984 2175 984 1722 
L 984 0 
L 422 0 
z
" transform="scale(0.015625)"/>
       <path id="ArialMT-53" d="M 288 1472 
L 859 1522 
Q 900 1178 1048 958 
Q 1197 738 1509 602 
Q 1822 466 2213 466 
Q 2559 466 2825 569 
Q 3091 672 3220 851 
Q 3350 1031 3350 1244 
Q 3350 1459 3225 1620 
Q 3100 1781 2813 1891 
Q 2628 1963 1997 2114 
Q 1366 2266 1113 2400 
Q 784 2572 623 2826 
Q 463 3081 463 3397 
Q 463 3744 659 4045 
Q 856 4347 1234 4503 
Q 1613 4659 2075 4659 
Q 2584 4659 2973 4495 
Q 3363 4331 3572 4012 
Q 3781 3694 3797 3291 
L 3216 3247 
Q 3169 3681 2898 3903 
Q 2628 4125 2100 4125 
Q 1550 4125 1298 3923 
Q 1047 3722 1047 3438 
Q 1047 3191 1225 3031 
Q 1400 2872 2139 2705 
Q 2878 2538 3153 2413 
Q 3553 2228 3743 1945 
Q 3934 1663 3934 1294 
Q 3934 928 3725 604 
Q 3516 281 3123 101 
Q 2731 -78 2241 -78 
Q 1619 -78 1198 103 
Q 778 284 539 648 
Q 300 1013 288 1472 
z
" transform="scale(0.015625)"/>
       <path id="ArialMT-61" d="M 2588 409 
Q 2275 144 1986 34 
Q 1697 -75 1366 -75 
Q 819 -75 525 192 
Q 231 459 231 875 
Q 231 1119 342 1320 
Q 453 1522 633 1644 
Q 813 1766 1038 1828 
Q 1203 1872 1538 1913 
Q 2219 1994 2541 2106 
Q 2544 2222 2544 2253 
Q 2544 2597 2384 2738 
Q 2169 2928 1744 2928 
Q 1347 2928 1158 2789 
Q 969 2650 878 2297 
L 328 2372 
Q 403 2725 575 2942 
Q 747 3159 1072 3276 
Q 1397 3394 1825 3394 
Q 2250 3394 2515 3294 
Q 2781 3194 2906 3042 
Q 3031 2891 3081 2659 
Q 3109 2516 3109 2141 
L 3109 1391 
Q 3109 606 3145 398 
Q 3181 191 3288 0 
L 2700 0 
Q 2613 175 2588 409 
z
M 2541 1666 
Q 2234 1541 1622 1453 
Q 1275 1403 1131 1340 
Q 988 1278 909 1158 
Q 831 1038 831 891 
Q 831 666 1001 516 
Q 1172 366 1500 366 
Q 1825 366 2078 508 
Q 2331 650 2450 897 
Q 2541 1088 2541 1459 
L 2541 1666 
z
" transform="scale(0.015625)"/>
       <path id="ArialMT-54" d="M 1659 0 
L 1659 4041 
L 150 4041 
L 150 4581 
L 3781 4581 
L 3781 4041 
L 2266 4041 
L 2266 0 
L 1659 0 
z
" transform="scale(0.015625)"/>
       <path id="ArialMT-65" d="M 2694 1069 
L 3275 997 
Q 3138 488 2766 206 
Q 2394 -75 1816 -75 
Q 1088 -75 661 373 
Q 234 822 234 1631 
Q 234 2469 665 2931 
Q 1097 3394 1784 3394 
Q 2450 3394 2872 2941 
Q 3294 2488 3294 1666 
Q 3294 1616 3291 1516 
L 816 1516 
Q 847 969 1125 678 
Q 1403 388 1819 388 
Q 2128 388 2347 550 
Q 2566 713 2694 1069 
z
M 847 1978 
L 2700 1978 
Q 2663 2397 2488 2606 
Q 2219 2931 1791 2931 
Q 1403 2931 1139 2672 
Q 875 2413 847 1978 
z
" transform="scale(0.015625)"/>
       <path id="ArialMT-70" d="M 422 -1272 
L 422 3319 
L 934 3319 
L 934 2888 
Q 1116 3141 1344 3267 
Q 1572 3394 1897 3394 
Q 2322 3394 2647 3175 
Q 2972 2956 3137 2557 
Q 3303 2159 3303 1684 
Q 3303 1175 3120 767 
Q 2938 359 2589 142 
Q 2241 -75 1856 -75 
Q 1575 -75 1351 44 
Q 1128 163 984 344 
L 984 -1272 
L 422 -1272 
z
M 931 1641 
Q 931 1000 1190 694 
Q 1450 388 1819 388 
Q 2194 388 2461 705 
Q 2728 1022 2728 1688 
Q 2728 2322 2467 2637 
Q 2206 2953 1844 2953 
Q 1484 2953 1207 2617 
Q 931 2281 931 1641 
z
" transform="scale(0.015625)"/>
       <path id="ArialMT-79" d="M 397 -1278 
L 334 -750 
Q 519 -800 656 -800 
Q 844 -800 956 -737 
Q 1069 -675 1141 -563 
Q 1194 -478 1313 -144 
Q 1328 -97 1363 -6 
L 103 3319 
L 709 3319 
L 1400 1397 
Q 1534 1031 1641 628 
Q 1738 1016 1872 1384 
L 2581 3319 
L 3144 3319 
L 1881 -56 
Q 1678 -603 1566 -809 
Q 1416 -1088 1222 -1217 
Q 1028 -1347 759 -1347 
Q 597 -1347 397 -1278 
z
" transform="scale(0.015625)"/>
      </defs>
      <use xlink:href="#ArialMT-4d"/>
      <use xlink:href="#ArialMT-6f" x="83.300781"/>
      <use xlink:href="#ArialMT-6e" x="138.916016"/>
      <use xlink:href="#ArialMT-74" x="194.53125"/>
      <use xlink:href="#ArialMT-68" x="222.314453"/>
      <use xlink:href="#ArialMT-73" x="277.929688"/>
      <use xlink:href="#ArialMT-20" x="327.929688"/>
      <use xlink:href="#ArialMT-66" x="355.712891"/>
      <use xlink:href="#ArialMT-72" x="383.496094"/>
      <use xlink:href="#ArialMT-6f" x="416.796875"/>
      <use xlink:href="#ArialMT-6d" x="472.412109"/>
      <use xlink:href="#ArialMT-20" x="555.712891"/>
      <use xlink:href="#ArialMT-53" x="583.496094"/>
      <use xlink:href="#ArialMT-74" x="650.195312"/>
      <use xlink:href="#ArialMT-61" x="677.978516"/>
      <use xlink:href="#ArialMT-72" x="733.59375"/>
      <use xlink:href="#ArialMT-74" x="766.894531"/>
      <use xlink:href="#ArialMT-20" x="794.677734"/>
      <use xlink:href="#ArialMT-6f" x="822.460938"/>
      <use xlink:href="#ArialMT-66" x="878.076172"/>
      <use xlink:href="#ArialMT-20" x="905.859375"/>
      <use xlink:href="#ArialMT-54" x="931.892578"/>
      <use xlink:href="#ArialMT-68" x="992.976562"/>
      <use xlink:href="#ArialMT-65" x="1048.591797"/>
      <use xlink:href="#ArialMT-72" x="1104.207031"/>
      <use xlink:href="#ArialMT-61" x="1137.507812"/>
      <use xlink:href="#ArialMT-70" x="1193.123047"/>
      <use xlink:href="#ArialMT-79" x="1248.738281"/>
     </g>
    </g>
   </g>
   <g id="matplotlib.axis_2">
    <g id="ytick_1">
     <g id="line2d_6">
      <defs>
       <path id="m6d81978833" d="M 0 0 
L -3.5 0 
" style="stroke: #000000; stroke-width: 0.8"/>
      </defs>
      <g>
       <use xlink:href="#m6d81978833" x="54.76375" y="495.042443" style="stroke: #000000; stroke-width: 0.8"/>
      </g>
     </g>
     <g id="text_7">
      <!-- 0 -->
      <g transform="translate(38.86625 500.768693) scale(0.16 -0.16)">
       <use xlink:href="#ArialMT-30"/>
      </g>
     </g>
    </g>
    <g id="ytick_2">
     <g id="line2d_7">
      <g>
       <use xlink:href="#m6d81978833" x="54.76375" y="433.491293" style="stroke: #000000; stroke-width: 0.8"/>
      </g>
     </g>
     <g id="text_8">
      <!-- 10 -->
      <g transform="translate(29.96875 439.217543) scale(0.16 -0.16)">
       <use xlink:href="#ArialMT-31"/>
       <use xlink:href="#ArialMT-30" x="55.615234"/>
      </g>
     </g>
    </g>
    <g id="ytick_3">
     <g id="line2d_8">
      <g>
       <use xlink:href="#m6d81978833" x="54.76375" y="371.940144" style="stroke: #000000; stroke-width: 0.8"/>
      </g>
     </g>
     <g id="text_9">
      <!-- 20 -->
      <g transform="translate(29.96875 377.666394) scale(0.16 -0.16)">
       <use xlink:href="#ArialMT-32"/>
       <use xlink:href="#ArialMT-30" x="55.615234"/>
      </g>
     </g>
    </g>
    <g id="ytick_4">
     <g id="line2d_9">
      <g>
       <use xlink:href="#m6d81978833" x="54.76375" y="310.388994" style="stroke: #000000; stroke-width: 0.8"/>
      </g>
     </g>
     <g id="text_10">
      <!-- 30 -->
      <g transform="translate(29.96875 316.115244) scale(0.16 -0.16)">
       <defs>
        <path id="ArialMT-33" d="M 269 1209 
L 831 1284 
Q 928 806 1161 595 
Q 1394 384 1728 384 
Q 2125 384 2398 659 
Q 2672 934 2672 1341 
Q 2672 1728 2419 1979 
Q 2166 2231 1775 2231 
Q 1616 2231 1378 2169 
L 1441 2663 
Q 1497 2656 1531 2656 
Q 1891 2656 2178 2843 
Q 2466 3031 2466 3422 
Q 2466 3731 2256 3934 
Q 2047 4138 1716 4138 
Q 1388 4138 1169 3931 
Q 950 3725 888 3313 
L 325 3413 
Q 428 3978 793 4289 
Q 1159 4600 1703 4600 
Q 2078 4600 2393 4439 
Q 2709 4278 2876 4000 
Q 3044 3722 3044 3409 
Q 3044 3113 2884 2869 
Q 2725 2625 2413 2481 
Q 2819 2388 3044 2092 
Q 3269 1797 3269 1353 
Q 3269 753 2831 336 
Q 2394 -81 1725 -81 
Q 1122 -81 723 278 
Q 325 638 269 1209 
z
" transform="scale(0.015625)"/>
       </defs>
       <use xlink:href="#ArialMT-33"/>
       <use xlink:href="#ArialMT-30" x="55.615234"/>
      </g>
     </g>
    </g>
    <g id="ytick_5">
     <g id="line2d_10">
      <g>
       <use xlink:href="#m6d81978833" x="54.76375" y="248.837844" style="stroke: #000000; stroke-width: 0.8"/>
      </g>
     </g>
     <g id="text_11">
      <!-- 40 -->
      <g transform="translate(29.96875 254.564094) scale(0.16 -0.16)">
       <defs>
        <path id="ArialMT-34" d="M 2069 0 
L 2069 1097 
L 81 1097 
L 81 1613 
L 2172 4581 
L 2631 4581 
L 2631 1613 
L 3250 1613 
L 3250 1097 
L 2631 1097 
L 2631 0 
L 2069 0 
z
M 2069 1613 
L 2069 3678 
L 634 1613 
L 2069 1613 
z
" transform="scale(0.015625)"/>
       </defs>
       <use xlink:href="#ArialMT-34"/>
       <use xlink:href="#ArialMT-30" x="55.615234"/>
      </g>
     </g>
    </g>
    <g id="ytick_6">
     <g id="line2d_11">
      <g>
       <use xlink:href="#m6d81978833" x="54.76375" y="187.286695" style="stroke: #000000; stroke-width: 0.8"/>
      </g>
     </g>
     <g id="text_12">
      <!-- 50 -->
      <g transform="translate(29.96875 193.012945) scale(0.16 -0.16)">
       <use xlink:href="#ArialMT-35"/>
       <use xlink:href="#ArialMT-30" x="55.615234"/>
      </g>
     </g>
    </g>
    <g id="ytick_7">
     <g id="line2d_12">
      <g>
       <use xlink:href="#m6d81978833" x="54.76375" y="125.735545" style="stroke: #000000; stroke-width: 0.8"/>
      </g>
     </g>
     <g id="text_13">
      <!-- 60 -->
      <g transform="translate(29.96875 131.461795) scale(0.16 -0.16)">
       <defs>
        <path id="ArialMT-36" d="M 3184 3459 
L 2625 3416 
Q 2550 3747 2413 3897 
Q 2184 4138 1850 4138 
Q 1581 4138 1378 3988 
Q 1113 3794 959 3422 
Q 806 3050 800 2363 
Q 1003 2672 1297 2822 
Q 1591 2972 1913 2972 
Q 2475 2972 2870 2558 
Q 3266 2144 3266 1488 
Q 3266 1056 3080 686 
Q 2894 316 2569 119 
Q 2244 -78 1831 -78 
Q 1128 -78 684 439 
Q 241 956 241 2144 
Q 241 3472 731 4075 
Q 1159 4600 1884 4600 
Q 2425 4600 2770 4297 
Q 3116 3994 3184 3459 
z
M 888 1484 
Q 888 1194 1011 928 
Q 1134 663 1356 523 
Q 1578 384 1822 384 
Q 2178 384 2434 671 
Q 2691 959 2691 1453 
Q 2691 1928 2437 2201 
Q 2184 2475 1800 2475 
Q 1419 2475 1153 2201 
Q 888 1928 888 1484 
z
" transform="scale(0.015625)"/>
       </defs>
       <use xlink:href="#ArialMT-36"/>
       <use xlink:href="#ArialMT-30" x="55.615234"/>
      </g>
     </g>
    </g>
    <g id="ytick_8">
     <g id="line2d_13">
      <g>
       <use xlink:href="#m6d81978833" x="54.76375" y="64.184395" style="stroke: #000000; stroke-width: 0.8"/>
      </g>
     </g>
     <g id="text_14">
      <!-- 70 -->
      <g transform="translate(29.96875 69.910645) scale(0.16 -0.16)">
       <defs>
        <path id="ArialMT-37" d="M 303 3981 
L 303 4522 
L 3269 4522 
L 3269 4084 
Q 2831 3619 2401 2847 
Q 1972 2075 1738 1259 
Q 1569 684 1522 0 
L 944 0 
Q 953 541 1156 1306 
Q 1359 2072 1739 2783 
Q 2119 3494 2547 3981 
L 303 3981 
z
" transform="scale(0.015625)"/>
       </defs>
       <use xlink:href="#ArialMT-37"/>
       <use xlink:href="#ArialMT-30" x="55.615234"/>
      </g>
     </g>
    </g>
    <g id="text_15">
     <!-- Patients with Therapy Signatures (%) -->
     <g transform="translate(21.759375 437.299687) rotate(-90) scale(0.2 -0.2)">
      <defs>
       <path id="ArialMT-50" d="M 494 0 
L 494 4581 
L 2222 4581 
Q 2678 4581 2919 4538 
Q 3256 4481 3484 4323 
Q 3713 4166 3852 3881 
Q 3991 3597 3991 3256 
Q 3991 2672 3619 2267 
Q 3247 1863 2275 1863 
L 1100 1863 
L 1100 0 
L 494 0 
z
M 1100 2403 
L 2284 2403 
Q 2872 2403 3119 2622 
Q 3366 2841 3366 3238 
Q 3366 3525 3220 3729 
Q 3075 3934 2838 4000 
Q 2684 4041 2272 4041 
L 1100 4041 
L 1100 2403 
z
" transform="scale(0.015625)"/>
       <path id="ArialMT-69" d="M 425 3934 
L 425 4581 
L 988 4581 
L 988 3934 
L 425 3934 
z
M 425 0 
L 425 3319 
L 988 3319 
L 988 0 
L 425 0 
z
" transform="scale(0.015625)"/>
       <path id="ArialMT-77" d="M 1034 0 
L 19 3319 
L 600 3319 
L 1128 1403 
L 1325 691 
Q 1338 744 1497 1375 
L 2025 3319 
L 2603 3319 
L 3100 1394 
L 3266 759 
L 3456 1400 
L 4025 3319 
L 4572 3319 
L 3534 0 
L 2950 0 
L 2422 1988 
L 2294 2553 
L 1622 0 
L 1034 0 
z
" transform="scale(0.015625)"/>
       <path id="ArialMT-67" d="M 319 -275 
L 866 -356 
Q 900 -609 1056 -725 
Q 1266 -881 1628 -881 
Q 2019 -881 2231 -725 
Q 2444 -569 2519 -288 
Q 2563 -116 2559 434 
Q 2191 0 1641 0 
Q 956 0 581 494 
Q 206 988 206 1678 
Q 206 2153 378 2554 
Q 550 2956 876 3175 
Q 1203 3394 1644 3394 
Q 2231 3394 2613 2919 
L 2613 3319 
L 3131 3319 
L 3131 450 
Q 3131 -325 2973 -648 
Q 2816 -972 2473 -1159 
Q 2131 -1347 1631 -1347 
Q 1038 -1347 672 -1080 
Q 306 -813 319 -275 
z
M 784 1719 
Q 784 1066 1043 766 
Q 1303 466 1694 466 
Q 2081 466 2343 764 
Q 2606 1063 2606 1700 
Q 2606 2309 2336 2618 
Q 2066 2928 1684 2928 
Q 1309 2928 1046 2623 
Q 784 2319 784 1719 
z
" transform="scale(0.015625)"/>
       <path id="ArialMT-75" d="M 2597 0 
L 2597 488 
Q 2209 -75 1544 -75 
Q 1250 -75 995 37 
Q 741 150 617 320 
Q 494 491 444 738 
Q 409 903 409 1263 
L 409 3319 
L 972 3319 
L 972 1478 
Q 972 1038 1006 884 
Q 1059 663 1231 536 
Q 1403 409 1656 409 
Q 1909 409 2131 539 
Q 2353 669 2445 892 
Q 2538 1116 2538 1541 
L 2538 3319 
L 3100 3319 
L 3100 0 
L 2597 0 
z
" transform="scale(0.015625)"/>
       <path id="ArialMT-28" d="M 1497 -1347 
Q 1031 -759 709 28 
Q 388 816 388 1659 
Q 388 2403 628 3084 
Q 909 3875 1497 4659 
L 1900 4659 
Q 1522 4009 1400 3731 
Q 1209 3300 1100 2831 
Q 966 2247 966 1656 
Q 966 153 1900 -1347 
L 1497 -1347 
z
" transform="scale(0.015625)"/>
       <path id="ArialMT-25" d="M 372 3481 
Q 372 3972 619 4315 
Q 866 4659 1334 4659 
Q 1766 4659 2048 4351 
Q 2331 4044 2331 3447 
Q 2331 2866 2045 2552 
Q 1759 2238 1341 2238 
Q 925 2238 648 2547 
Q 372 2856 372 3481 
z
M 1350 4272 
Q 1141 4272 1002 4090 
Q 863 3909 863 3425 
Q 863 2984 1003 2804 
Q 1144 2625 1350 2625 
Q 1563 2625 1702 2806 
Q 1841 2988 1841 3469 
Q 1841 3913 1700 4092 
Q 1559 4272 1350 4272 
z
M 1353 -169 
L 3859 4659 
L 4316 4659 
L 1819 -169 
L 1353 -169 
z
M 3334 1075 
Q 3334 1569 3581 1911 
Q 3828 2253 4300 2253 
Q 4731 2253 5014 1945 
Q 5297 1638 5297 1041 
Q 5297 459 5011 145 
Q 4725 -169 4303 -169 
Q 3888 -169 3611 142 
Q 3334 453 3334 1075 
z
M 4316 1866 
Q 4103 1866 3964 1684 
Q 3825 1503 3825 1019 
Q 3825 581 3965 400 
Q 4106 219 4313 219 
Q 4528 219 4667 400 
Q 4806 581 4806 1063 
Q 4806 1506 4665 1686 
Q 4525 1866 4316 1866 
z
" transform="scale(0.015625)"/>
       <path id="ArialMT-29" d="M 791 -1347 
L 388 -1347 
Q 1322 153 1322 1656 
Q 1322 2244 1188 2822 
Q 1081 3291 891 3722 
Q 769 4003 388 4659 
L 791 4659 
Q 1378 3875 1659 3084 
Q 1900 2403 1900 1659 
Q 1900 816 1576 28 
Q 1253 -759 791 -1347 
z
" transform="scale(0.015625)"/>
      </defs>
      <use xlink:href="#ArialMT-50"/>
      <use xlink:href="#ArialMT-61" x="66.699219"/>
      <use xlink:href="#ArialMT-74" x="122.314453"/>
      <use xlink:href="#ArialMT-69" x="150.097656"/>
      <use xlink:href="#ArialMT-65" x="172.314453"/>
      <use xlink:href="#ArialMT-6e" x="227.929688"/>
      <use xlink:href="#ArialMT-74" x="283.544922"/>
      <use xlink:href="#ArialMT-73" x="311.328125"/>
      <use xlink:href="#ArialMT-20" x="361.328125"/>
      <use xlink:href="#ArialMT-77" x="389.111328"/>
      <use xlink:href="#ArialMT-69" x="461.328125"/>
      <use xlink:href="#ArialMT-74" x="483.544922"/>
      <use xlink:href="#ArialMT-68" x="511.328125"/>
      <use xlink:href="#ArialMT-20" x="566.943359"/>
      <use xlink:href="#ArialMT-54" x="592.976562"/>
      <use xlink:href="#ArialMT-68" x="654.060547"/>
      <use xlink:href="#ArialMT-65" x="709.675781"/>
      <use xlink:href="#ArialMT-72" x="765.291016"/>
      <use xlink:href="#ArialMT-61" x="798.591797"/>
      <use xlink:href="#ArialMT-70" x="854.207031"/>
      <use xlink:href="#ArialMT-79" x="909.822266"/>
      <use xlink:href="#ArialMT-20" x="959.822266"/>
      <use xlink:href="#ArialMT-53" x="987.605469"/>
      <use xlink:href="#ArialMT-69" x="1054.304688"/>
      <use xlink:href="#ArialMT-67" x="1076.521484"/>
      <use xlink:href="#ArialMT-6e" x="1132.136719"/>
      <use xlink:href="#ArialMT-61" x="1187.751953"/>
      <use xlink:href="#ArialMT-74" x="1243.367188"/>
      <use xlink:href="#ArialMT-75" x="1271.150391"/>
      <use xlink:href="#ArialMT-72" x="1326.765625"/>
      <use xlink:href="#ArialMT-65" x="1360.066406"/>
      <use xlink:href="#ArialMT-73" x="1415.681641"/>
      <use xlink:href="#ArialMT-20" x="1465.681641"/>
      <use xlink:href="#ArialMT-28" x="1493.464844"/>
      <use xlink:href="#ArialMT-25" x="1526.765625"/>
      <use xlink:href="#ArialMT-29" x="1615.681641"/>
     </g>
    </g>
   </g>
   <g id="line2d_14">
    <path d="M 88.750942 495.042443 
L 94.299871 495.042443 
L 97.074336 392.457194 
L 102.623265 341.164569 
L 108.172194 310.388994 
L 110.946659 271.220081 
L 113.721124 210.960214 
L 119.270053 187.286695 
L 124.818982 148.817226 
L 127.593447 132.976857 
L 130.367912 106.29834 
L 133.142376 84.701445 
L 144.240235 75.375513 
L 147.014699 110.347757 
L 152.563629 101.115085 
L 163.661487 84.701445 
L 166.435952 70.551755 
L 169.210417 64.184395 
L 174.759346 58.227832 
L 180.308275 71.878289 
L 183.08274 66.049581 
L 185.857205 60.563739 
L 191.406134 55.391374 
L 194.180598 67.603903 
L 213.601851 79.156296 
L 235.797568 73.902998 
L 257.993285 68.919099 
L 263.542215 59.680652 
L 271.865609 55.391374 
L 282.963467 51.301596 
L 321.805972 61.386616 
L 352.325083 57.345378 
L 366.197407 53.479847 
L 418.912235 49.778807 
" clip-path="url(#pa8feef3868)" style="fill: none; stroke: #778899; stroke-width: 2.5; stroke-linecap: square"/>
   </g>
   <g id="line2d_15">
    <path d="M 88.750942 495.042443 
L 91.525407 495.042443 
L 94.299871 495.042443 
L 97.074336 460.84736 
L 99.848801 465.732372 
L 105.39773 441.519704 
L 113.721124 418.103506 
L 130.367912 396.560604 
L 135.916841 376.674848 
L 147.014699 341.164569 
L 158.112558 346.470702 
L 185.857205 351.423094 
L 191.406134 356.055976 
L 216.376316 341.164569 
L 269.091144 345.827535 
L 288.512396 332.112929 
L 410.588841 319.182015 
L 449.431346 306.969486 
L 710.231023 312.052539 
" clip-path="url(#pa8feef3868)" style="fill: none; stroke: #2f4f4f; stroke-width: 2.5; stroke-linecap: square"/>
   </g>
   <g id="LineCollection_1">
    <path d="M 105.39773 411.948391 
L 133.142376 411.948391 
" clip-path="url(#pa8feef3868)" style="fill: none; stroke: #8b0000; stroke-width: 1.5"/>
   </g>
   <g id="LineCollection_2">
    <path d="M 122.044518 378.095259 
L 149.789164 378.095259 
" clip-path="url(#pa8feef3868)" style="fill: none; stroke: #8b0000; stroke-width: 1.5"/>
   </g>
   <g id="LineCollection_3">
    <path d="M 110.946659 139.939704 
L 138.691306 139.939704 
" clip-path="url(#pa8feef3868)" style="fill: none; stroke: #8b0000; stroke-width: 1.5"/>
   </g>
   <g id="LineCollection_4">
    <path d="M 116.495588 94.95997 
L 144.240235 94.95997 
" clip-path="url(#pa8feef3868)" style="fill: none; stroke: #8b0000; stroke-width: 1.5"/>
   </g>
   <g id="LineCollection_5">
    <path d="M 85.976477 455.034196 
L 110.946659 455.034196 
" clip-path="url(#pa8feef3868)" style="fill: none; stroke: #006400; stroke-width: 1.5"/>
   </g>
   <g id="patch_3">
    <path d="M 54.76375 517.305625 
L 54.76375 27.515625 
" style="fill: none; stroke: #000000; stroke-width: 0.8; stroke-linejoin: miter; stroke-linecap: square"/>
   </g>
   <g id="patch_4">
    <path d="M 54.76375 517.305625 
L 741.44375 517.305625 
" style="fill: none; stroke: #000000; stroke-width: 0.8; stroke-linejoin: miter; stroke-linecap: square"/>
   </g>
   <g id="text_16">
    <!-- 12 mos -->
    <g style="fill: #778899" transform="translate(147.014699 407.623141) scale(0.16 -0.16)">
     <use xlink:href="#ArialMT-31"/>
     <use xlink:href="#ArialMT-32" x="55.615234"/>
     <use xlink:href="#ArialMT-20" x="111.230469"/>
     <use xlink:href="#ArialMT-6d" x="139.013672"/>
     <use xlink:href="#ArialMT-6f" x="222.314453"/>
     <use xlink:href="#ArialMT-73" x="277.929688"/>
    </g>
    <!--    13.5% -->
    <g style="fill: #778899" transform="translate(147.014699 424.546141) scale(0.16 -0.16)">
     <defs>
      <path id="ArialMT-2e" d="M 581 0 
L 581 641 
L 1222 641 
L 1222 0 
L 581 0 
z
" transform="scale(0.015625)"/>
     </defs>
     <use xlink:href="#ArialMT-20"/>
     <use xlink:href="#ArialMT-20" x="27.783203"/>
     <use xlink:href="#ArialMT-20" x="55.566406"/>
     <use xlink:href="#ArialMT-31" x="83.349609"/>
     <use xlink:href="#ArialMT-33" x="138.964844"/>
     <use xlink:href="#ArialMT-2e" x="194.580078"/>
     <use xlink:href="#ArialMT-35" x="222.363281"/>
     <use xlink:href="#ArialMT-25" x="277.978516"/>
    </g>
   </g>
   <g id="text_17">
    <!-- 18 mos -->
    <g style="fill: #778899" transform="translate(169.210417 373.770009) scale(0.16 -0.16)">
     <defs>
      <path id="ArialMT-38" d="M 1131 2484 
Q 781 2613 612 2850 
Q 444 3088 444 3419 
Q 444 3919 803 4259 
Q 1163 4600 1759 4600 
Q 2359 4600 2725 4251 
Q 3091 3903 3091 3403 
Q 3091 3084 2923 2848 
Q 2756 2613 2416 2484 
Q 2838 2347 3058 2040 
Q 3278 1734 3278 1309 
Q 3278 722 2862 322 
Q 2447 -78 1769 -78 
Q 1091 -78 675 323 
Q 259 725 259 1325 
Q 259 1772 486 2073 
Q 713 2375 1131 2484 
z
M 1019 3438 
Q 1019 3113 1228 2906 
Q 1438 2700 1772 2700 
Q 2097 2700 2305 2904 
Q 2513 3109 2513 3406 
Q 2513 3716 2298 3927 
Q 2084 4138 1766 4138 
Q 1444 4138 1231 3931 
Q 1019 3725 1019 3438 
z
M 838 1322 
Q 838 1081 952 856 
Q 1066 631 1291 507 
Q 1516 384 1775 384 
Q 2178 384 2440 643 
Q 2703 903 2703 1303 
Q 2703 1709 2433 1975 
Q 2163 2241 1756 2241 
Q 1359 2241 1098 1978 
Q 838 1716 838 1322 
z
" transform="scale(0.015625)"/>
     </defs>
     <use xlink:href="#ArialMT-31"/>
     <use xlink:href="#ArialMT-38" x="55.615234"/>
     <use xlink:href="#ArialMT-20" x="111.230469"/>
     <use xlink:href="#ArialMT-6d" x="139.013672"/>
     <use xlink:href="#ArialMT-6f" x="222.314453"/>
     <use xlink:href="#ArialMT-73" x="277.929688"/>
    </g>
    <!--    19% -->
    <g style="fill: #778899" transform="translate(169.210417 390.693009) scale(0.16 -0.16)">
     <defs>
      <path id="ArialMT-39" d="M 350 1059 
L 891 1109 
Q 959 728 1153 556 
Q 1347 384 1650 384 
Q 1909 384 2104 503 
Q 2300 622 2425 820 
Q 2550 1019 2634 1356 
Q 2719 1694 2719 2044 
Q 2719 2081 2716 2156 
Q 2547 1888 2255 1720 
Q 1963 1553 1622 1553 
Q 1053 1553 659 1965 
Q 266 2378 266 3053 
Q 266 3750 677 4175 
Q 1088 4600 1706 4600 
Q 2153 4600 2523 4359 
Q 2894 4119 3086 3673 
Q 3278 3228 3278 2384 
Q 3278 1506 3087 986 
Q 2897 466 2520 194 
Q 2144 -78 1638 -78 
Q 1100 -78 759 220 
Q 419 519 350 1059 
z
M 2653 3081 
Q 2653 3566 2395 3850 
Q 2138 4134 1775 4134 
Q 1400 4134 1122 3828 
Q 844 3522 844 3034 
Q 844 2597 1108 2323 
Q 1372 2050 1759 2050 
Q 2150 2050 2401 2323 
Q 2653 2597 2653 3081 
z
" transform="scale(0.015625)"/>
     </defs>
     <use xlink:href="#ArialMT-20"/>
     <use xlink:href="#ArialMT-20" x="27.783203"/>
     <use xlink:href="#ArialMT-20" x="55.566406"/>
     <use xlink:href="#ArialMT-31" x="83.349609"/>
     <use xlink:href="#ArialMT-39" x="138.964844"/>
     <use xlink:href="#ArialMT-25" x="194.580078"/>
    </g>
   </g>
   <g id="text_18">
    <!-- 12 mos -->
    <g style="fill: #2f4f4f" transform="translate(147.014699 139.87564) scale(0.16 -0.16)">
     <use xlink:href="#ArialMT-31"/>
     <use xlink:href="#ArialMT-32" x="55.615234"/>
     <use xlink:href="#ArialMT-20" x="111.230469"/>
     <use xlink:href="#ArialMT-6d" x="139.013672"/>
     <use xlink:href="#ArialMT-6f" x="222.314453"/>
     <use xlink:href="#ArialMT-73" x="277.929688"/>
    </g>
    <!--    50% -->
    <g style="fill: #2f4f4f" transform="translate(147.014699 156.79864) scale(0.16 -0.16)">
     <use xlink:href="#ArialMT-20"/>
     <use xlink:href="#ArialMT-20" x="27.783203"/>
     <use xlink:href="#ArialMT-20" x="55.566406"/>
     <use xlink:href="#ArialMT-35" x="83.349609"/>
     <use xlink:href="#ArialMT-30" x="138.964844"/>
     <use xlink:href="#ArialMT-25" x="194.580078"/>
    </g>
   </g>
   <g id="text_19">
    <!-- 18 mos -->
    <g style="fill: #2f4f4f" transform="translate(58.231831 78.32449) scale(0.16 -0.16)">
     <use xlink:href="#ArialMT-31"/>
     <use xlink:href="#ArialMT-38" x="55.615234"/>
     <use xlink:href="#ArialMT-20" x="111.230469"/>
     <use xlink:href="#ArialMT-6d" x="139.013672"/>
     <use xlink:href="#ArialMT-6f" x="222.314453"/>
     <use xlink:href="#ArialMT-73" x="277.929688"/>
    </g>
    <!--  ~67% -->
    <g style="fill: #2f4f4f" transform="translate(58.231831 95.24749) scale(0.16 -0.16)">
     <defs>
      <path id="ArialMT-7e" d="M 272 1741 
L 272 2381 
Q 603 2756 1141 2756 
Q 1328 2756 1534 2701 
Q 1741 2647 2122 2484 
Q 2338 2394 2445 2366 
Q 2553 2338 2663 2338 
Q 2866 2338 3083 2459 
Q 3300 2581 3469 2766 
L 3469 2103 
Q 3269 1916 3064 1831 
Q 2859 1747 2603 1747 
Q 2416 1747 2245 1790 
Q 2075 1834 1704 2000 
Q 1334 2166 1088 2166 
Q 888 2166 711 2080 
Q 534 1994 272 1741 
z
" transform="scale(0.015625)"/>
     </defs>
     <use xlink:href="#ArialMT-20"/>
     <use xlink:href="#ArialMT-7e" x="27.783203"/>
     <use xlink:href="#ArialMT-36" x="86.181641"/>
     <use xlink:href="#ArialMT-37" x="141.796875"/>
     <use xlink:href="#ArialMT-25" x="197.412109"/>
    </g>
   </g>
   <g id="text_20">
    <!-- Metastatic -->
    <g style="fill: #778899" transform="translate(632.965846 73.51372) scale(0.2 -0.2)">
     <defs>
      <path id="ArialMT-63" d="M 2588 1216 
L 3141 1144 
Q 3050 572 2676 248 
Q 2303 -75 1759 -75 
Q 1078 -75 664 370 
Q 250 816 250 1647 
Q 250 2184 428 2587 
Q 606 2991 970 3192 
Q 1334 3394 1763 3394 
Q 2303 3394 2647 3120 
Q 2991 2847 3088 2344 
L 2541 2259 
Q 2463 2594 2264 2762 
Q 2066 2931 1784 2931 
Q 1359 2931 1093 2626 
Q 828 2322 828 1663 
Q 828 994 1084 691 
Q 1341 388 1753 388 
Q 2084 388 2306 591 
Q 2528 794 2588 1216 
z
" transform="scale(0.015625)"/>
     </defs>
     <use xlink:href="#ArialMT-4d"/>
     <use xlink:href="#ArialMT-65" x="83.300781"/>
     <use xlink:href="#ArialMT-74" x="138.916016"/>
     <use xlink:href="#ArialMT-61" x="166.699219"/>
     <use xlink:href="#ArialMT-73" x="222.314453"/>
     <use xlink:href="#ArialMT-74" x="272.314453"/>
     <use xlink:href="#ArialMT-61" x="300.097656"/>
     <use xlink:href="#ArialMT-74" x="355.712891"/>
     <use xlink:href="#ArialMT-69" x="383.496094"/>
     <use xlink:href="#ArialMT-63" x="405.712891"/>
    </g>
    <!-- (n=47) -->
    <g style="fill: #778899" transform="translate(665.737721 94.95997) scale(0.2 -0.2)">
     <defs>
      <path id="ArialMT-3d" d="M 3381 2694 
L 356 2694 
L 356 3219 
L 3381 3219 
L 3381 2694 
z
M 3381 1303 
L 356 1303 
L 356 1828 
L 3381 1828 
L 3381 1303 
z
" transform="scale(0.015625)"/>
     </defs>
     <use xlink:href="#ArialMT-28"/>
     <use xlink:href="#ArialMT-6e" x="33.300781"/>
     <use xlink:href="#ArialMT-3d" x="88.916016"/>
     <use xlink:href="#ArialMT-34" x="147.314453"/>
     <use xlink:href="#ArialMT-37" x="202.929688"/>
     <use xlink:href="#ArialMT-29" x="258.544922"/>
    </g>
   </g>
   <g id="text_21">
    <!-- Non-Metastatic -->
    <g style="fill: #2f4f4f" transform="translate(589.618971 270.477399) scale(0.2 -0.2)">
     <defs>
      <path id="ArialMT-4e" d="M 488 0 
L 488 4581 
L 1109 4581 
L 3516 984 
L 3516 4581 
L 4097 4581 
L 4097 0 
L 3475 0 
L 1069 3600 
L 1069 0 
L 488 0 
z
" transform="scale(0.015625)"/>
      <path id="ArialMT-2d" d="M 203 1375 
L 203 1941 
L 1931 1941 
L 1931 1375 
L 203 1375 
z
" transform="scale(0.015625)"/>
     </defs>
     <use xlink:href="#ArialMT-4e"/>
     <use xlink:href="#ArialMT-6f" x="72.216797"/>
     <use xlink:href="#ArialMT-6e" x="127.832031"/>
     <use xlink:href="#ArialMT-2d" x="183.447266"/>
     <use xlink:href="#ArialMT-4d" x="216.748047"/>
     <use xlink:href="#ArialMT-65" x="300.048828"/>
     <use xlink:href="#ArialMT-74" x="355.664062"/>
     <use xlink:href="#ArialMT-61" x="383.447266"/>
     <use xlink:href="#ArialMT-73" x="439.0625"/>
     <use xlink:href="#ArialMT-74" x="489.0625"/>
     <use xlink:href="#ArialMT-61" x="516.845703"/>
     <use xlink:href="#ArialMT-74" x="572.460938"/>
     <use xlink:href="#ArialMT-69" x="600.244141"/>
     <use xlink:href="#ArialMT-63" x="622.460938"/>
    </g>
    <!-- (n=37) -->
    <g style="fill: #2f4f4f" transform="translate(665.737721 291.923649) scale(0.2 -0.2)">
     <use xlink:href="#ArialMT-28"/>
     <use xlink:href="#ArialMT-6e" x="33.300781"/>
     <use xlink:href="#ArialMT-3d" x="88.916016"/>
     <use xlink:href="#ArialMT-33" x="147.314453"/>
     <use xlink:href="#ArialMT-37" x="202.929688"/>
     <use xlink:href="#ArialMT-29" x="258.544922"/>
    </g>
   </g>
   <g id="text_22">
    <!-- 91 Days -->
    <g style="fill: #006400" transform="translate(113.721124 459.608727) scale(0.18 -0.18)">
     <defs>
      <path id="ArialMT-44" d="M 494 0 
L 494 4581 
L 2072 4581 
Q 2606 4581 2888 4516 
Q 3281 4425 3559 4188 
Q 3922 3881 4101 3404 
Q 4281 2928 4281 2316 
Q 4281 1794 4159 1391 
Q 4038 988 3847 723 
Q 3656 459 3429 307 
Q 3203 156 2883 78 
Q 2563 0 2147 0 
L 494 0 
z
M 1100 541 
L 2078 541 
Q 2531 541 2789 625 
Q 3047 709 3200 863 
Q 3416 1078 3536 1442 
Q 3656 1806 3656 2325 
Q 3656 3044 3420 3430 
Q 3184 3816 2847 3947 
Q 2603 4041 2063 4041 
L 1100 4041 
L 1100 541 
z
" transform="scale(0.015625)"/>
     </defs>
     <use xlink:href="#ArialMT-39"/>
     <use xlink:href="#ArialMT-31" x="55.615234"/>
     <use xlink:href="#ArialMT-20" x="111.230469"/>
     <use xlink:href="#ArialMT-44" x="139.013672"/>
     <use xlink:href="#ArialMT-61" x="211.230469"/>
     <use xlink:href="#ArialMT-79" x="266.845703"/>
     <use xlink:href="#ArialMT-73" x="316.845703"/>
    </g>
   </g>
   <g id="text_23">
    <!-- Platinum-Treated Tumours -->
    <g transform="translate(280.106875 21.515625) scale(0.2 -0.2)">
     <defs>
      <path id="ArialMT-6c" d="M 409 0 
L 409 4581 
L 972 4581 
L 972 0 
L 409 0 
z
" transform="scale(0.015625)"/>
      <path id="ArialMT-64" d="M 2575 0 
L 2575 419 
Q 2259 -75 1647 -75 
Q 1250 -75 917 144 
Q 584 363 401 755 
Q 219 1147 219 1656 
Q 219 2153 384 2558 
Q 550 2963 881 3178 
Q 1213 3394 1622 3394 
Q 1922 3394 2156 3267 
Q 2391 3141 2538 2938 
L 2538 4581 
L 3097 4581 
L 3097 0 
L 2575 0 
z
M 797 1656 
Q 797 1019 1065 703 
Q 1334 388 1700 388 
Q 2069 388 2326 689 
Q 2584 991 2584 1609 
Q 2584 2291 2321 2609 
Q 2059 2928 1675 2928 
Q 1300 2928 1048 2622 
Q 797 2316 797 1656 
z
" transform="scale(0.015625)"/>
     </defs>
     <use xlink:href="#ArialMT-50"/>
     <use xlink:href="#ArialMT-6c" x="66.699219"/>
     <use xlink:href="#ArialMT-61" x="88.916016"/>
     <use xlink:href="#ArialMT-74" x="144.53125"/>
     <use xlink:href="#ArialMT-69" x="172.314453"/>
     <use xlink:href="#ArialMT-6e" x="194.53125"/>
     <use xlink:href="#ArialMT-75" x="250.146484"/>
     <use xlink:href="#ArialMT-6d" x="305.761719"/>
     <use xlink:href="#ArialMT-2d" x="389.0625"/>
     <use xlink:href="#ArialMT-54" x="422.363281"/>
     <use xlink:href="#ArialMT-72" x="479.697266"/>
     <use xlink:href="#ArialMT-65" x="512.998047"/>
     <use xlink:href="#ArialMT-61" x="568.613281"/>
     <use xlink:href="#ArialMT-74" x="624.228516"/>
     <use xlink:href="#ArialMT-65" x="652.011719"/>
     <use xlink:href="#ArialMT-64" x="707.626953"/>
     <use xlink:href="#ArialMT-20" x="763.242188"/>
     <use xlink:href="#ArialMT-54" x="789.275391"/>
     <use xlink:href="#ArialMT-75" x="846.609375"/>
     <use xlink:href="#ArialMT-6d" x="902.224609"/>
     <use xlink:href="#ArialMT-6f" x="985.525391"/>
     <use xlink:href="#ArialMT-75" x="1041.140625"/>
     <use xlink:href="#ArialMT-72" x="1096.755859"/>
     <use xlink:href="#ArialMT-73" x="1130.056641"/>
    </g>
   </g>
  </g>
 </g>
 <defs>
  <clipPath id="pa8feef3868">
   <rect x="54.76375" y="27.515625" width="686.68" height="489.79"/>
  </clipPath>
 </defs>
</svg>
