<?xml version="1.0" encoding="utf-8" standalone="no"?>
<!DOCTYPE svg PUBLIC "-//W3C//DTD SVG 1.1//EN"
  "http://www.w3.org/Graphics/SVG/1.1/DTD/svg11.dtd">
<svg xmlns:xlink="http://www.w3.org/1999/xlink" width="152.39952pt" height="224.39952pt" viewBox="0 0 152.39952 224.39952" xmlns="http://www.w3.org/2000/svg" version="1.1">
 <metadata>
  <rdf:RDF xmlns:dc="http://purl.org/dc/elements/1.1/" xmlns:cc="http://creativecommons.org/ns#" xmlns:rdf="http://www.w3.org/1999/02/22-rdf-syntax-ns#">
   <cc:Work>
    <dc:type rdf:resource="http://purl.org/dc/dcmitype/StillImage"/>
    <dc:date>2026-05-21T21:08:55.028535</dc:date>
    <dc:format>image/svg+xml</dc:format>
    <dc:creator>
     <cc:Agent>
      <dc:title>Matplotlib v3.7.3, https://matplotlib.org/</dc:title>
     </cc:Agent>
    </dc:creator>
   </cc:Work>
  </rdf:RDF>
 </metadata>
 <defs>
  <style type="text/css">*{stroke-linejoin: round; stroke-linecap: butt}</style>
 </defs>
 <g id="figure_1">
  <g id="patch_1">
   <path d="M 0 224.39952 
L 152.39952 224.39952 
L 152.39952 0 
L 0 0 
L 0 224.39952 
z
" style="fill: none"/>
  </g>
  <g id="axes_1">
   <g id="patch_2">
    <path d="M 72.567188 217.19952 
L 105.883114 217.19952 
L 105.883114 7.2 
L 72.567188 7.2 
L 72.567188 217.19952 
z
" style="fill: none"/>
   </g>
   <g id="QuadMesh_1">
    <path d="M 72.567188 7.2 
L 105.883114 7.2 
L 105.883114 24.69996 
L 72.567188 24.69996 
L 72.567188 7.2 
" clip-path="url(#p7732e5e8d6)" style="fill: #ffffff"/>
    <path d="M 72.567188 24.69996 
L 105.883114 24.69996 
L 105.883114 42.19992 
L 72.567188 42.19992 
L 72.567188 24.69996 
" clip-path="url(#p7732e5e8d6)" style="fill: #eaf1f7"/>
    <path d="M 72.567188 42.19992 
L 105.883114 42.19992 
L 105.883114 59.69988 
L 72.567188 59.69988 
L 72.567188 42.19992 
" clip-path="url(#p7732e5e8d6)" style="fill: #eaf1f7"/>
    <path d="M 72.567188 59.69988 
L 105.883114 59.69988 
L 105.883114 77.19984 
L 72.567188 77.19984 
L 72.567188 59.69988 
" clip-path="url(#p7732e5e8d6)" style="fill: #eaf1f7"/>
    <path d="M 72.567188 77.19984 
L 105.883114 77.19984 
L 105.883114 94.6998 
L 72.567188 94.6998 
L 72.567188 77.19984 
" clip-path="url(#p7732e5e8d6)" style="fill: #ffffff"/>
    <path d="M 72.567188 94.6998 
L 105.883114 94.6998 
L 105.883114 112.19976 
L 72.567188 112.19976 
L 72.567188 94.6998 
" clip-path="url(#p7732e5e8d6)" style="fill: #ffffff"/>
    <path d="M 72.567188 112.19976 
L 105.883114 112.19976 
L 105.883114 129.69972 
L 72.567188 129.69972 
L 72.567188 112.19976 
" clip-path="url(#p7732e5e8d6)" style="fill: #ffffff"/>
    <path d="M 72.567188 129.69972 
L 105.883114 129.69972 
L 105.883114 147.19968 
L 72.567188 147.19968 
L 72.567188 129.69972 
" clip-path="url(#p7732e5e8d6)" style="fill: #ffffff"/>
    <path d="M 72.567188 147.19968 
L 105.883114 147.19968 
L 105.883114 164.69964 
L 72.567188 164.69964 
L 72.567188 147.19968 
" clip-path="url(#p7732e5e8d6)" style="fill: #ffffff"/>
    <path d="M 72.567188 164.69964 
L 105.883114 164.69964 
L 105.883114 182.1996 
L 72.567188 182.1996 
L 72.567188 164.69964 
" clip-path="url(#p7732e5e8d6)" style="fill: #4681b3"/>
    <path d="M 72.567188 182.1996 
L 105.883114 182.1996 
L 105.883114 199.69956 
L 72.567188 199.69956 
L 72.567188 182.1996 
" clip-path="url(#p7732e5e8d6)" style="fill: #ffffff"/>
    <path d="M 72.567188 199.69956 
L 105.883114 199.69956 
L 105.883114 217.19952 
L 72.567188 217.19952 
L 72.567188 199.69956 
" clip-path="url(#p7732e5e8d6)" style="fill: #ffffff"/>
   </g>
   <g id="matplotlib.axis_1"/>
   <g id="matplotlib.axis_2">
    <g id="ytick_1">
     <g id="line2d_1">
      <defs>
       <path id="mbf9773cd42" d="M 0 0 
L -3.5 0 
" style="stroke: #000000; stroke-width: 0.8"/>
      </defs>
      <g>
       <use xlink:href="#mbf9773cd42" x="72.567188" y="15.94998" style="stroke: #000000; stroke-width: 0.8"/>
      </g>
     </g>
     <g id="text_1">
      <!-- DBS1 -->
      <g transform="translate(39.44375 18.535136) scale(0.1 -0.1)">
       <defs>
        <path id="ArialMT-44" d="M 494 0 
L 494 4581 
L 2072 4581 
Q 2606 4581 2888 4516 
Q 3281 4425 3559 4188 
Q 3922 3881 4101 3404 
Q 4281 2928 4281 2316 
Q 4281 1794 4159 1391 
Q 4038 988 3847 723 
Q 3656 459 3429 307 
Q 3203 156 2883 78 
Q 2563 0 2147 0 
L 494 0 
z
M 1100 541 
L 2078 541 
Q 2531 541 2789 625 
Q 3047 709 3200 863 
Q 3416 1078 3536 1442 
Q 3656 1806 3656 2325 
Q 3656 3044 3420 3430 
Q 3184 3816 2847 3947 
Q 2603 4041 2063 4041 
L 1100 4041 
L 1100 541 
z
" transform="scale(0.015625)"/>
        <path id="ArialMT-42" d="M 469 0 
L 469 4581 
L 2188 4581 
Q 2713 4581 3030 4442 
Q 3347 4303 3526 4014 
Q 3706 3725 3706 3409 
Q 3706 3116 3547 2856 
Q 3388 2597 3066 2438 
Q 3481 2316 3704 2022 
Q 3928 1728 3928 1328 
Q 3928 1006 3792 729 
Q 3656 453 3456 303 
Q 3256 153 2954 76 
Q 2653 0 2216 0 
L 469 0 
z
M 1075 2656 
L 2066 2656 
Q 2469 2656 2644 2709 
Q 2875 2778 2992 2937 
Q 3109 3097 3109 3338 
Q 3109 3566 3000 3739 
Q 2891 3913 2687 3977 
Q 2484 4041 1991 4041 
L 1075 4041 
L 1075 2656 
z
M 1075 541 
L 2216 541 
Q 2509 541 2628 563 
Q 2838 600 2978 687 
Q 3119 775 3209 942 
Q 3300 1109 3300 1328 
Q 3300 1584 3169 1773 
Q 3038 1963 2805 2039 
Q 2572 2116 2134 2116 
L 1075 2116 
L 1075 541 
z
" transform="scale(0.015625)"/>
        <path id="ArialMT-53" d="M 288 1472 
L 859 1522 
Q 900 1178 1048 958 
Q 1197 738 1509 602 
Q 1822 466 2213 466 
Q 2559 466 2825 569 
Q 3091 672 3220 851 
Q 3350 1031 3350 1244 
Q 3350 1459 3225 1620 
Q 3100 1781 2813 1891 
Q 2628 1963 1997 2114 
Q 1366 2266 1113 2400 
Q 784 2572 623 2826 
Q 463 3081 463 3397 
Q 463 3744 659 4045 
Q 856 4347 1234 4503 
Q 1613 4659 2075 4659 
Q 2584 4659 2973 4495 
Q 3363 4331 3572 4012 
Q 3781 3694 3797 3291 
L 3216 3247 
Q 3169 3681 2898 3903 
Q 2628 4125 2100 4125 
Q 1550 4125 1298 3923 
Q 1047 3722 1047 3438 
Q 1047 3191 1225 3031 
Q 1400 2872 2139 2705 
Q 2878 2538 3153 2413 
Q 3553 2228 3743 1945 
Q 3934 1663 3934 1294 
Q 3934 928 3725 604 
Q 3516 281 3123 101 
Q 2731 -78 2241 -78 
Q 1619 -78 1198 103 
Q 778 284 539 648 
Q 300 1013 288 1472 
z
" transform="scale(0.015625)"/>
        <path id="ArialMT-31" d="M 2384 0 
L 1822 0 
L 1822 3584 
Q 1619 3391 1289 3197 
Q 959 3003 697 2906 
L 697 3450 
Q 1169 3672 1522 3987 
Q 1875 4303 2022 4600 
L 2384 4600 
L 2384 0 
z
" transform="scale(0.015625)"/>
       </defs>
       <use xlink:href="#ArialMT-44"/>
       <use xlink:href="#ArialMT-42" x="72.216797"/>
       <use xlink:href="#ArialMT-53" x="138.916016"/>
       <use xlink:href="#ArialMT-31" x="205.615234"/>
      </g>
     </g>
    </g>
    <g id="ytick_2">
     <g id="line2d_2">
      <g>
       <use xlink:href="#mbf9773cd42" x="72.567188" y="33.44994" style="stroke: #000000; stroke-width: 0.8"/>
      </g>
     </g>
     <g id="text_2">
      <!-- DBS2 -->
      <g transform="translate(39.44375 36.035096) scale(0.1 -0.1)">
       <defs>
        <path id="ArialMT-32" d="M 3222 541 
L 3222 0 
L 194 0 
Q 188 203 259 391 
Q 375 700 629 1000 
Q 884 1300 1366 1694 
Q 2113 2306 2375 2664 
Q 2638 3022 2638 3341 
Q 2638 3675 2398 3904 
Q 2159 4134 1775 4134 
Q 1369 4134 1125 3890 
Q 881 3647 878 3216 
L 300 3275 
Q 359 3922 746 4261 
Q 1134 4600 1788 4600 
Q 2447 4600 2831 4234 
Q 3216 3869 3216 3328 
Q 3216 3053 3103 2787 
Q 2991 2522 2730 2228 
Q 2469 1934 1863 1422 
Q 1356 997 1212 845 
Q 1069 694 975 541 
L 3222 541 
z
" transform="scale(0.015625)"/>
       </defs>
       <use xlink:href="#ArialMT-44"/>
       <use xlink:href="#ArialMT-42" x="72.216797"/>
       <use xlink:href="#ArialMT-53" x="138.916016"/>
       <use xlink:href="#ArialMT-32" x="205.615234"/>
      </g>
     </g>
    </g>
    <g id="ytick_3">
     <g id="line2d_3">
      <g>
       <use xlink:href="#mbf9773cd42" x="72.567188" y="50.9499" style="stroke: #000000; stroke-width: 0.8"/>
      </g>
     </g>
     <g id="text_3">
      <!-- DBS4 -->
      <g transform="translate(39.44375 53.535056) scale(0.1 -0.1)">
       <defs>
        <path id="ArialMT-34" d="M 2069 0 
L 2069 1097 
L 81 1097 
L 81 1613 
L 2172 4581 
L 2631 4581 
L 2631 1613 
L 3250 1613 
L 3250 1097 
L 2631 1097 
L 2631 0 
L 2069 0 
z
M 2069 1613 
L 2069 3678 
L 634 1613 
L 2069 1613 
z
" transform="scale(0.015625)"/>
       </defs>
       <use xlink:href="#ArialMT-44"/>
       <use xlink:href="#ArialMT-42" x="72.216797"/>
       <use xlink:href="#ArialMT-53" x="138.916016"/>
       <use xlink:href="#ArialMT-34" x="205.615234"/>
      </g>
     </g>
    </g>
    <g id="ytick_4">
     <g id="line2d_4">
      <g>
       <use xlink:href="#mbf9773cd42" x="72.567188" y="68.44986" style="stroke: #000000; stroke-width: 0.8"/>
      </g>
     </g>
     <g id="text_4">
      <!-- DBS5 -->
      <g transform="translate(39.44375 71.035016) scale(0.1 -0.1)">
       <defs>
        <path id="ArialMT-35" d="M 266 1200 
L 856 1250 
Q 922 819 1161 601 
Q 1400 384 1738 384 
Q 2144 384 2425 690 
Q 2706 997 2706 1503 
Q 2706 1984 2436 2262 
Q 2166 2541 1728 2541 
Q 1456 2541 1237 2417 
Q 1019 2294 894 2097 
L 366 2166 
L 809 4519 
L 3088 4519 
L 3088 3981 
L 1259 3981 
L 1013 2750 
Q 1425 3038 1878 3038 
Q 2478 3038 2890 2622 
Q 3303 2206 3303 1553 
Q 3303 931 2941 478 
Q 2500 -78 1738 -78 
Q 1113 -78 717 272 
Q 322 622 266 1200 
z
" transform="scale(0.015625)"/>
       </defs>
       <use xlink:href="#ArialMT-44"/>
       <use xlink:href="#ArialMT-42" x="72.216797"/>
       <use xlink:href="#ArialMT-53" x="138.916016"/>
       <use xlink:href="#ArialMT-35" x="205.615234"/>
      </g>
     </g>
    </g>
    <g id="ytick_5">
     <g id="line2d_5">
      <g>
       <use xlink:href="#mbf9773cd42" x="72.567188" y="85.94982" style="stroke: #000000; stroke-width: 0.8"/>
      </g>
     </g>
     <g id="text_5">
      <!-- DBS6 -->
      <g transform="translate(39.44375 88.534976) scale(0.1 -0.1)">
       <defs>
        <path id="ArialMT-36" d="M 3184 3459 
L 2625 3416 
Q 2550 3747 2413 3897 
Q 2184 4138 1850 4138 
Q 1581 4138 1378 3988 
Q 1113 3794 959 3422 
Q 806 3050 800 2363 
Q 1003 2672 1297 2822 
Q 1591 2972 1913 2972 
Q 2475 2972 2870 2558 
Q 3266 2144 3266 1488 
Q 3266 1056 3080 686 
Q 2894 316 2569 119 
Q 2244 -78 1831 -78 
Q 1128 -78 684 439 
Q 241 956 241 2144 
Q 241 3472 731 4075 
Q 1159 4600 1884 4600 
Q 2425 4600 2770 4297 
Q 3116 3994 3184 3459 
z
M 888 1484 
Q 888 1194 1011 928 
Q 1134 663 1356 523 
Q 1578 384 1822 384 
Q 2178 384 2434 671 
Q 2691 959 2691 1453 
Q 2691 1928 2437 2201 
Q 2184 2475 1800 2475 
Q 1419 2475 1153 2201 
Q 888 1928 888 1484 
z
" transform="scale(0.015625)"/>
       </defs>
       <use xlink:href="#ArialMT-44"/>
       <use xlink:href="#ArialMT-42" x="72.216797"/>
       <use xlink:href="#ArialMT-53" x="138.916016"/>
       <use xlink:href="#ArialMT-36" x="205.615234"/>
      </g>
     </g>
    </g>
    <g id="ytick_6">
     <g id="line2d_6">
      <g>
       <use xlink:href="#mbf9773cd42" x="72.567188" y="103.44978" style="stroke: #000000; stroke-width: 0.8"/>
      </g>
     </g>
     <g id="text_6">
      <!-- DBS7 -->
      <g transform="translate(39.44375 106.034936) scale(0.1 -0.1)">
       <defs>
        <path id="ArialMT-37" d="M 303 3981 
L 303 4522 
L 3269 4522 
L 3269 4084 
Q 2831 3619 2401 2847 
Q 1972 2075 1738 1259 
Q 1569 684 1522 0 
L 944 0 
Q 953 541 1156 1306 
Q 1359 2072 1739 2783 
Q 2119 3494 2547 3981 
L 303 3981 
z
" transform="scale(0.015625)"/>
       </defs>
       <use xlink:href="#ArialMT-44"/>
       <use xlink:href="#ArialMT-42" x="72.216797"/>
       <use xlink:href="#ArialMT-53" x="138.916016"/>
       <use xlink:href="#ArialMT-37" x="205.615234"/>
      </g>
     </g>
    </g>
    <g id="ytick_7">
     <g id="line2d_7">
      <g>
       <use xlink:href="#mbf9773cd42" x="72.567188" y="120.94974" style="stroke: #000000; stroke-width: 0.8"/>
      </g>
     </g>
     <g id="text_7">
      <!-- DBS9 -->
      <g transform="translate(39.44375 123.534896) scale(0.1 -0.1)">
       <defs>
        <path id="ArialMT-39" d="M 350 1059 
L 891 1109 
Q 959 728 1153 556 
Q 1347 384 1650 384 
Q 1909 384 2104 503 
Q 2300 622 2425 820 
Q 2550 1019 2634 1356 
Q 2719 1694 2719 2044 
Q 2719 2081 2716 2156 
Q 2547 1888 2255 1720 
Q 1963 1553 1622 1553 
Q 1053 1553 659 1965 
Q 266 2378 266 3053 
Q 266 3750 677 4175 
Q 1088 4600 1706 4600 
Q 2153 4600 2523 4359 
Q 2894 4119 3086 3673 
Q 3278 3228 3278 2384 
Q 3278 1506 3087 986 
Q 2897 466 2520 194 
Q 2144 -78 1638 -78 
Q 1100 -78 759 220 
Q 419 519 350 1059 
z
M 2653 3081 
Q 2653 3566 2395 3850 
Q 2138 4134 1775 4134 
Q 1400 4134 1122 3828 
Q 844 3522 844 3034 
Q 844 2597 1108 2323 
Q 1372 2050 1759 2050 
Q 2150 2050 2401 2323 
Q 2653 2597 2653 3081 
z
" transform="scale(0.015625)"/>
       </defs>
       <use xlink:href="#ArialMT-44"/>
       <use xlink:href="#ArialMT-42" x="72.216797"/>
       <use xlink:href="#ArialMT-53" x="138.916016"/>
       <use xlink:href="#ArialMT-39" x="205.615234"/>
      </g>
     </g>
    </g>
    <g id="ytick_8">
     <g id="line2d_8">
      <g>
       <use xlink:href="#mbf9773cd42" x="72.567188" y="138.4497" style="stroke: #000000; stroke-width: 0.8"/>
      </g>
     </g>
     <g id="text_8">
      <!-- DBS10 -->
      <g transform="translate(33.882812 141.034856) scale(0.1 -0.1)">
       <defs>
        <path id="ArialMT-30" d="M 266 2259 
Q 266 3072 433 3567 
Q 600 4063 929 4331 
Q 1259 4600 1759 4600 
Q 2128 4600 2406 4451 
Q 2684 4303 2865 4023 
Q 3047 3744 3150 3342 
Q 3253 2941 3253 2259 
Q 3253 1453 3087 958 
Q 2922 463 2592 192 
Q 2263 -78 1759 -78 
Q 1097 -78 719 397 
Q 266 969 266 2259 
z
M 844 2259 
Q 844 1131 1108 757 
Q 1372 384 1759 384 
Q 2147 384 2411 759 
Q 2675 1134 2675 2259 
Q 2675 3391 2411 3762 
Q 2147 4134 1753 4134 
Q 1366 4134 1134 3806 
Q 844 3388 844 2259 
z
" transform="scale(0.015625)"/>
       </defs>
       <use xlink:href="#ArialMT-44"/>
       <use xlink:href="#ArialMT-42" x="72.216797"/>
       <use xlink:href="#ArialMT-53" x="138.916016"/>
       <use xlink:href="#ArialMT-31" x="205.615234"/>
       <use xlink:href="#ArialMT-30" x="261.230469"/>
      </g>
     </g>
    </g>
    <g id="ytick_9">
     <g id="line2d_9">
      <g>
       <use xlink:href="#mbf9773cd42" x="72.567188" y="155.94966" style="stroke: #000000; stroke-width: 0.8"/>
      </g>
     </g>
     <g id="text_9">
      <!-- DBS11 -->
      <g transform="translate(34.620312 158.534816) scale(0.1 -0.1)">
       <use xlink:href="#ArialMT-44"/>
       <use xlink:href="#ArialMT-42" x="72.216797"/>
       <use xlink:href="#ArialMT-53" x="138.916016"/>
       <use xlink:href="#ArialMT-31" x="205.615234"/>
       <use xlink:href="#ArialMT-31" x="253.855469"/>
      </g>
     </g>
    </g>
    <g id="ytick_10">
     <g id="line2d_10">
      <g>
       <use xlink:href="#mbf9773cd42" x="72.567188" y="173.44962" style="stroke: #000000; stroke-width: 0.8"/>
      </g>
     </g>
     <g id="text_10">
      <!-- DBS78L1/H1 -->
      <g transform="translate(7.2 176.034776) scale(0.1 -0.1)">
       <defs>
        <path id="ArialMT-38" d="M 1131 2484 
Q 781 2613 612 2850 
Q 444 3088 444 3419 
Q 444 3919 803 4259 
Q 1163 4600 1759 4600 
Q 2359 4600 2725 4251 
Q 3091 3903 3091 3403 
Q 3091 3084 2923 2848 
Q 2756 2613 2416 2484 
Q 2838 2347 3058 2040 
Q 3278 1734 3278 1309 
Q 3278 722 2862 322 
Q 2447 -78 1769 -78 
Q 1091 -78 675 323 
Q 259 725 259 1325 
Q 259 1772 486 2073 
Q 713 2375 1131 2484 
z
M 1019 3438 
Q 1019 3113 1228 2906 
Q 1438 2700 1772 2700 
Q 2097 2700 2305 2904 
Q 2513 3109 2513 3406 
Q 2513 3716 2298 3927 
Q 2084 4138 1766 4138 
Q 1444 4138 1231 3931 
Q 1019 3725 1019 3438 
z
M 838 1322 
Q 838 1081 952 856 
Q 1066 631 1291 507 
Q 1516 384 1775 384 
Q 2178 384 2440 643 
Q 2703 903 2703 1303 
Q 2703 1709 2433 1975 
Q 2163 2241 1756 2241 
Q 1359 2241 1098 1978 
Q 838 1716 838 1322 
z
" transform="scale(0.015625)"/>
        <path id="ArialMT-4c" d="M 469 0 
L 469 4581 
L 1075 4581 
L 1075 541 
L 3331 541 
L 3331 0 
L 469 0 
z
" transform="scale(0.015625)"/>
        <path id="ArialMT-2f" d="M 0 -78 
L 1328 4659 
L 1778 4659 
L 453 -78 
L 0 -78 
z
" transform="scale(0.015625)"/>
        <path id="ArialMT-48" d="M 513 0 
L 513 4581 
L 1119 4581 
L 1119 2700 
L 3500 2700 
L 3500 4581 
L 4106 4581 
L 4106 0 
L 3500 0 
L 3500 2159 
L 1119 2159 
L 1119 0 
L 513 0 
z
" transform="scale(0.015625)"/>
       </defs>
       <use xlink:href="#ArialMT-44"/>
       <use xlink:href="#ArialMT-42" x="72.216797"/>
       <use xlink:href="#ArialMT-53" x="138.916016"/>
       <use xlink:href="#ArialMT-37" x="205.615234"/>
       <use xlink:href="#ArialMT-38" x="261.230469"/>
       <use xlink:href="#ArialMT-4c" x="316.845703"/>
       <use xlink:href="#ArialMT-31" x="372.460938"/>
       <use xlink:href="#ArialMT-2f" x="428.076172"/>
       <use xlink:href="#ArialMT-48" x="455.859375"/>
       <use xlink:href="#ArialMT-31" x="528.076172"/>
      </g>
     </g>
    </g>
    <g id="ytick_11">
     <g id="line2d_11">
      <g>
       <use xlink:href="#mbf9773cd42" x="72.567188" y="190.94958" style="stroke: #000000; stroke-width: 0.8"/>
      </g>
     </g>
     <g id="text_11">
      <!-- DBS78H2 -->
      <g transform="translate(21.1 193.534736) scale(0.1 -0.1)">
       <use xlink:href="#ArialMT-44"/>
       <use xlink:href="#ArialMT-42" x="72.216797"/>
       <use xlink:href="#ArialMT-53" x="138.916016"/>
       <use xlink:href="#ArialMT-37" x="205.615234"/>
       <use xlink:href="#ArialMT-38" x="261.230469"/>
       <use xlink:href="#ArialMT-48" x="316.845703"/>
       <use xlink:href="#ArialMT-32" x="389.0625"/>
      </g>
     </g>
    </g>
    <g id="ytick_12">
     <g id="line2d_12">
      <g>
       <use xlink:href="#mbf9773cd42" x="72.567188" y="208.44954" style="stroke: #000000; stroke-width: 0.8"/>
      </g>
     </g>
     <g id="text_12">
      <!-- DBS78H3 -->
      <g transform="translate(21.1 211.034696) scale(0.1 -0.1)">
       <defs>
        <path id="ArialMT-33" d="M 269 1209 
L 831 1284 
Q 928 806 1161 595 
Q 1394 384 1728 384 
Q 2125 384 2398 659 
Q 2672 934 2672 1341 
Q 2672 1728 2419 1979 
Q 2166 2231 1775 2231 
Q 1616 2231 1378 2169 
L 1441 2663 
Q 1497 2656 1531 2656 
Q 1891 2656 2178 2843 
Q 2466 3031 2466 3422 
Q 2466 3731 2256 3934 
Q 2047 4138 1716 4138 
Q 1388 4138 1169 3931 
Q 950 3725 888 3313 
L 325 3413 
Q 428 3978 793 4289 
Q 1159 4600 1703 4600 
Q 2078 4600 2393 4439 
Q 2709 4278 2876 4000 
Q 3044 3722 3044 3409 
Q 3044 3113 2884 2869 
Q 2725 2625 2413 2481 
Q 2819 2388 3044 2092 
Q 3269 1797 3269 1353 
Q 3269 753 2831 336 
Q 2394 -81 1725 -81 
Q 1122 -81 723 278 
Q 325 638 269 1209 
z
" transform="scale(0.015625)"/>
       </defs>
       <use xlink:href="#ArialMT-44"/>
       <use xlink:href="#ArialMT-42" x="72.216797"/>
       <use xlink:href="#ArialMT-53" x="138.916016"/>
       <use xlink:href="#ArialMT-37" x="205.615234"/>
       <use xlink:href="#ArialMT-38" x="261.230469"/>
       <use xlink:href="#ArialMT-48" x="316.845703"/>
       <use xlink:href="#ArialMT-33" x="389.0625"/>
      </g>
     </g>
    </g>
   </g>
   <g id="text_13">
    <!-- 1 -->
    <g style="fill: #262626" transform="translate(86.444682 18.535136) scale(0.1 -0.1)">
     <use xlink:href="#ArialMT-31"/>
    </g>
   </g>
   <g id="text_14">
    <!-- 5 -->
    <g style="fill: #262626" transform="translate(86.444682 36.035096) scale(0.1 -0.1)">
     <use xlink:href="#ArialMT-35"/>
    </g>
   </g>
   <g id="text_15">
    <!-- 5 -->
    <g style="fill: #262626" transform="translate(86.444682 53.535056) scale(0.1 -0.1)">
     <use xlink:href="#ArialMT-35"/>
    </g>
   </g>
   <g id="text_16">
    <!-- 5 -->
    <g style="fill: #262626" transform="translate(86.444682 71.035016) scale(0.1 -0.1)">
     <use xlink:href="#ArialMT-35"/>
    </g>
   </g>
   <g id="text_17">
    <!-- 4 -->
    <g style="fill: #262626" transform="translate(86.444682 88.534976) scale(0.1 -0.1)">
     <use xlink:href="#ArialMT-34"/>
    </g>
   </g>
   <g id="text_18">
    <!-- 1 -->
    <g style="fill: #262626" transform="translate(86.444682 106.034936) scale(0.1 -0.1)">
     <use xlink:href="#ArialMT-31"/>
    </g>
   </g>
   <g id="text_19">
    <!-- 1 -->
    <g style="fill: #262626" transform="translate(86.444682 123.534896) scale(0.1 -0.1)">
     <use xlink:href="#ArialMT-31"/>
    </g>
   </g>
   <g id="text_20">
    <!-- 1 -->
    <g style="fill: #262626" transform="translate(86.444682 141.034856) scale(0.1 -0.1)">
     <use xlink:href="#ArialMT-31"/>
    </g>
   </g>
   <g id="text_21">
    <!-- 3 -->
    <g style="fill: #262626" transform="translate(86.444682 158.534816) scale(0.1 -0.1)">
     <use xlink:href="#ArialMT-33"/>
    </g>
   </g>
   <g id="text_22">
    <!-- 32 -->
    <g style="fill: #ffffff" transform="translate(83.664213 176.034776) scale(0.1 -0.1)">
     <use xlink:href="#ArialMT-33"/>
     <use xlink:href="#ArialMT-32" x="55.615234"/>
    </g>
   </g>
   <g id="text_23">
    <!-- 1 -->
    <g style="fill: #262626" transform="translate(86.444682 193.534736) scale(0.1 -0.1)">
     <use xlink:href="#ArialMT-31"/>
    </g>
   </g>
   <g id="text_24">
    <!-- 1 -->
    <g style="fill: #262626" transform="translate(86.444682 211.034696) scale(0.1 -0.1)">
     <use xlink:href="#ArialMT-31"/>
    </g>
   </g>
  </g>
  <g id="axes_2">
   <g id="patch_3">
    <path d="M 111.883594 217.19952 
L 145.19952 217.19952 
L 145.19952 7.2 
L 111.883594 7.2 
L 111.883594 217.19952 
z
" style="fill: none"/>
   </g>
   <g id="QuadMesh_2">
    <path d="M 111.883594 7.2 
L 145.19952 7.2 
L 145.19952 24.69996 
L 111.883594 24.69996 
L 111.883594 7.2 
" clip-path="url(#p0fb6c2fc9c)" style="fill: #ffdae0"/>
    <path d="M 111.883594 24.69996 
L 145.19952 24.69996 
L 145.19952 42.19992 
L 111.883594 42.19992 
L 111.883594 24.69996 
" clip-path="url(#p0fb6c2fc9c)" style="fill: #ffdae0"/>
    <path d="M 111.883594 42.19992 
L 145.19952 42.19992 
L 145.19952 59.69988 
L 111.883594 59.69988 
L 111.883594 42.19992 
" clip-path="url(#p0fb6c2fc9c)" style="fill: #ffced6"/>
    <path d="M 111.883594 59.69988 
L 145.19952 59.69988 
L 145.19952 77.19984 
L 111.883594 77.19984 
L 111.883594 59.69988 
" clip-path="url(#p0fb6c2fc9c)" style="fill: #fff3f5"/>
    <path d="M 111.883594 77.19984 
L 145.19952 77.19984 
L 145.19952 94.6998 
L 111.883594 94.6998 
L 111.883594 77.19984 
" clip-path="url(#p0fb6c2fc9c)" style="fill: #ffffff"/>
    <path d="M 111.883594 94.6998 
L 145.19952 94.6998 
L 145.19952 112.19976 
L 111.883594 112.19976 
L 111.883594 94.6998 
" clip-path="url(#p0fb6c2fc9c)" style="fill: #ffffff"/>
    <path d="M 111.883594 112.19976 
L 145.19952 112.19976 
L 145.19952 129.69972 
L 111.883594 129.69972 
L 111.883594 112.19976 
" clip-path="url(#p0fb6c2fc9c)" style="fill: #ffdae0"/>
    <path d="M 111.883594 129.69972 
L 145.19952 129.69972 
L 145.19952 147.19968 
L 111.883594 147.19968 
L 111.883594 129.69972 
" clip-path="url(#p0fb6c2fc9c)" style="fill: #feb5c2"/>
    <path d="M 111.883594 147.19968 
L 145.19952 147.19968 
L 145.19952 164.69964 
L 111.883594 164.69964 
L 111.883594 147.19968 
" clip-path="url(#p0fb6c2fc9c)" style="fill: #ffffff"/>
    <path d="M 111.883594 164.69964 
L 145.19952 164.69964 
L 145.19952 182.1996 
L 111.883594 182.1996 
L 111.883594 164.69964 
" clip-path="url(#p0fb6c2fc9c)" style="fill: #fe90a3"/>
    <path d="M 111.883594 182.1996 
L 145.19952 182.1996 
L 145.19952 199.69956 
L 111.883594 199.69956 
L 111.883594 182.1996 
" clip-path="url(#p0fb6c2fc9c)" style="fill: #ffced6"/>
    <path d="M 111.883594 199.69956 
L 145.19952 199.69956 
L 145.19952 217.19952 
L 111.883594 217.19952 
L 111.883594 199.69956 
" clip-path="url(#p0fb6c2fc9c)" style="fill: #fe9dae"/>
   </g>
   <g id="matplotlib.axis_3"/>
   <g id="matplotlib.axis_4"/>
   <g id="text_25">
    <!-- 4 -->
    <g style="fill: #262626" transform="translate(125.761088 18.535136) scale(0.1 -0.1)">
     <use xlink:href="#ArialMT-34"/>
    </g>
   </g>
   <g id="text_26">
    <!-- 5 -->
    <g style="fill: #262626" transform="translate(125.761088 36.035096) scale(0.1 -0.1)">
     <use xlink:href="#ArialMT-35"/>
    </g>
   </g>
   <g id="text_27">
    <!-- 6 -->
    <g style="fill: #262626" transform="translate(125.761088 53.535056) scale(0.1 -0.1)">
     <use xlink:href="#ArialMT-36"/>
    </g>
   </g>
   <g id="text_28">
    <!-- 2 -->
    <g style="fill: #262626" transform="translate(125.761088 71.035016) scale(0.1 -0.1)">
     <use xlink:href="#ArialMT-32"/>
    </g>
   </g>
   <g id="text_29">
    <!-- 1 -->
    <g style="fill: #262626" transform="translate(125.761088 88.534976) scale(0.1 -0.1)">
     <use xlink:href="#ArialMT-31"/>
    </g>
   </g>
   <g id="text_30">
    <!-- 1 -->
    <g style="fill: #262626" transform="translate(125.761088 106.034936) scale(0.1 -0.1)">
     <use xlink:href="#ArialMT-31"/>
    </g>
   </g>
   <g id="text_31">
    <!-- 4 -->
    <g style="fill: #262626" transform="translate(125.761088 123.534896) scale(0.1 -0.1)">
     <use xlink:href="#ArialMT-34"/>
    </g>
   </g>
   <g id="text_32">
    <!-- 8 -->
    <g style="fill: #262626" transform="translate(125.761088 141.034856) scale(0.1 -0.1)">
     <use xlink:href="#ArialMT-38"/>
    </g>
   </g>
   <g id="text_33">
    <!-- 0 -->
    <g style="fill: #262626" transform="translate(125.761088 158.534816) scale(0.1 -0.1)">
     <use xlink:href="#ArialMT-30"/>
    </g>
   </g>
   <g id="text_34">
    <!-- 13 -->
    <g style="fill: #262626" transform="translate(122.980619 176.034776) scale(0.1 -0.1)">
     <use xlink:href="#ArialMT-31"/>
     <use xlink:href="#ArialMT-33" x="55.615234"/>
    </g>
   </g>
   <g id="text_35">
    <!-- 6 -->
    <g style="fill: #262626" transform="translate(125.761088 193.534736) scale(0.1 -0.1)">
     <use xlink:href="#ArialMT-36"/>
    </g>
   </g>
   <g id="text_36">
    <!-- 11 -->
    <g style="fill: #262626" transform="translate(123.349369 211.034696) scale(0.1 -0.1)">
     <use xlink:href="#ArialMT-31"/>
     <use xlink:href="#ArialMT-31" x="48.240234"/>
    </g>
   </g>
  </g>
 </g>
 <defs>
  <clipPath id="p7732e5e8d6">
   <rect x="72.567188" y="7.2" width="33.315926" height="209.99952"/>
  </clipPath>
  <clipPath id="p0fb6c2fc9c">
   <rect x="111.883594" y="7.2" width="33.315926" height="209.99952"/>
  </clipPath>
 </defs>
</svg>
