<?xml version="1.0" encoding="utf-8" standalone="no"?>
<!DOCTYPE svg PUBLIC "-//W3C//DTD SVG 1.1//EN"
  "http://www.w3.org/Graphics/SVG/1.1/DTD/svg11.dtd">
<svg xmlns:xlink="http://www.w3.org/1999/xlink" width="152.39952pt" height="728.39952pt" viewBox="0 0 152.39952 728.39952" xmlns="http://www.w3.org/2000/svg" version="1.1">
 <metadata>
  <rdf:RDF xmlns:dc="http://purl.org/dc/elements/1.1/" xmlns:cc="http://creativecommons.org/ns#" xmlns:rdf="http://www.w3.org/1999/02/22-rdf-syntax-ns#">
   <cc:Work>
    <dc:type rdf:resource="http://purl.org/dc/dcmitype/StillImage"/>
    <dc:date>2026-05-25T11:55:48.723029</dc:date>
    <dc:format>image/svg+xml</dc:format>
    <dc:creator>
     <cc:Agent>
      <dc:title>Matplotlib v3.7.3, https://matplotlib.org/</dc:title>
     </cc:Agent>
    </dc:creator>
   </cc:Work>
  </rdf:RDF>
 </metadata>
 <defs>
  <style type="text/css">*{stroke-linejoin: round; stroke-linecap: butt}</style>
 </defs>
 <g id="figure_1">
  <g id="patch_1">
   <path d="M 0 728.39952 
L 152.39952 728.39952 
L 152.39952 0 
L 0 0 
L 0 728.39952 
z
" style="fill: none"/>
  </g>
  <g id="axes_1">
   <g id="patch_2">
    <path d="M 77.576563 721.19952 
L 108.387801 721.19952 
L 108.387801 7.2 
L 77.576563 7.2 
L 77.576563 721.19952 
z
" style="fill: none"/>
   </g>
   <g id="QuadMesh_1">
    <path d="M 77.576563 7.2 
L 108.387801 7.2 
L 108.387801 25.049988 
L 77.576563 25.049988 
L 77.576563 7.2 
" clip-path="url(#p5fe33a446c)" style="fill: #6f9dc4"/>
    <path d="M 77.576563 25.049988 
L 108.387801 25.049988 
L 108.387801 42.899976 
L 77.576563 42.899976 
L 77.576563 25.049988 
" clip-path="url(#p5fe33a446c)" style="fill: #ffffff"/>
    <path d="M 77.576563 42.899976 
L 108.387801 42.899976 
L 108.387801 60.749964 
L 77.576563 60.749964 
L 77.576563 42.899976 
" clip-path="url(#p5fe33a446c)" style="fill: #4681b3"/>
    <path d="M 77.576563 60.749964 
L 108.387801 60.749964 
L 108.387801 78.599952 
L 77.576563 78.599952 
L 77.576563 60.749964 
" clip-path="url(#p5fe33a446c)" style="fill: #ffffff"/>
    <path d="M 77.576563 78.599952 
L 108.387801 78.599952 
L 108.387801 96.44994 
L 77.576563 96.44994 
L 77.576563 78.599952 
" clip-path="url(#p5fe33a446c)" style="fill: #ffffff"/>
    <path d="M 77.576563 96.44994 
L 108.387801 96.44994 
L 108.387801 114.299928 
L 77.576563 114.299928 
L 77.576563 96.44994 
" clip-path="url(#p5fe33a446c)" style="fill: #d6e3ee"/>
    <path d="M 77.576563 114.299928 
L 108.387801 114.299928 
L 108.387801 132.149916 
L 77.576563 132.149916 
L 77.576563 114.299928 
" clip-path="url(#p5fe33a446c)" style="fill: #ffffff"/>
    <path d="M 77.576563 132.149916 
L 108.387801 132.149916 
L 108.387801 149.999904 
L 77.576563 149.999904 
L 77.576563 132.149916 
" clip-path="url(#p5fe33a446c)" style="fill: #ffffff"/>
    <path d="M 77.576563 149.999904 
L 108.387801 149.999904 
L 108.387801 167.849892 
L 77.576563 167.849892 
L 77.576563 149.999904 
" clip-path="url(#p5fe33a446c)" style="fill: #ffffff"/>
    <path d="M 77.576563 167.849892 
L 108.387801 167.849892 
L 108.387801 185.69988 
L 77.576563 185.69988 
L 77.576563 167.849892 
" clip-path="url(#p5fe33a446c)" style="fill: #ffffff"/>
    <path d="M 77.576563 185.69988 
L 108.387801 185.69988 
L 108.387801 203.549868 
L 77.576563 203.549868 
L 77.576563 185.69988 
" clip-path="url(#p5fe33a446c)" style="fill: #ffffff"/>
    <path d="M 77.576563 203.549868 
L 108.387801 203.549868 
L 108.387801 221.399856 
L 77.576563 221.399856 
L 77.576563 203.549868 
" clip-path="url(#p5fe33a446c)" style="fill: #ffffff"/>
    <path d="M 77.576563 221.399856 
L 108.387801 221.399856 
L 108.387801 239.249844 
L 77.576563 239.249844 
L 77.576563 221.399856 
" clip-path="url(#p5fe33a446c)" style="fill: #ffffff"/>
    <path d="M 77.576563 239.249844 
L 108.387801 239.249844 
L 108.387801 257.099832 
L 77.576563 257.099832 
L 77.576563 239.249844 
" clip-path="url(#p5fe33a446c)" style="fill: #ffffff"/>
    <path d="M 77.576563 257.099832 
L 108.387801 257.099832 
L 108.387801 274.94982 
L 77.576563 274.94982 
L 77.576563 257.099832 
" clip-path="url(#p5fe33a446c)" style="fill: #ffffff"/>
    <path d="M 77.576563 274.94982 
L 108.387801 274.94982 
L 108.387801 292.799808 
L 77.576563 292.799808 
L 77.576563 274.94982 
" clip-path="url(#p5fe33a446c)" style="fill: #c1d5e6"/>
    <path d="M 77.576563 292.799808 
L 108.387801 292.799808 
L 108.387801 310.649796 
L 77.576563 310.649796 
L 77.576563 292.799808 
" clip-path="url(#p5fe33a446c)" style="fill: #ffffff"/>
    <path d="M 77.576563 310.649796 
L 108.387801 310.649796 
L 108.387801 328.499784 
L 77.576563 328.499784 
L 77.576563 310.649796 
" clip-path="url(#p5fe33a446c)" style="fill: #ffffff"/>
    <path d="M 77.576563 328.499784 
L 108.387801 328.499784 
L 108.387801 346.349772 
L 77.576563 346.349772 
L 77.576563 328.499784 
" clip-path="url(#p5fe33a446c)" style="fill: #ffffff"/>
    <path d="M 77.576563 346.349772 
L 108.387801 346.349772 
L 108.387801 364.19976 
L 77.576563 364.19976 
L 77.576563 346.349772 
" clip-path="url(#p5fe33a446c)" style="fill: #ffffff"/>
    <path d="M 77.576563 364.19976 
L 108.387801 364.19976 
L 108.387801 382.049748 
L 77.576563 382.049748 
L 77.576563 364.19976 
" clip-path="url(#p5fe33a446c)" style="fill: #ffffff"/>
    <path d="M 77.576563 382.049748 
L 108.387801 382.049748 
L 108.387801 399.899736 
L 77.576563 399.899736 
L 77.576563 382.049748 
" clip-path="url(#p5fe33a446c)" style="fill: #eaf1f7"/>
    <path d="M 77.576563 399.899736 
L 108.387801 399.899736 
L 108.387801 417.749724 
L 77.576563 417.749724 
L 77.576563 399.899736 
" clip-path="url(#p5fe33a446c)" style="fill: #ffffff"/>
    <path d="M 77.576563 417.749724 
L 108.387801 417.749724 
L 108.387801 435.599712 
L 77.576563 435.599712 
L 77.576563 417.749724 
" clip-path="url(#p5fe33a446c)" style="fill: #ffffff"/>
    <path d="M 77.576563 435.599712 
L 108.387801 435.599712 
L 108.387801 453.4497 
L 77.576563 453.4497 
L 77.576563 435.599712 
" clip-path="url(#p5fe33a446c)" style="fill: #ffffff"/>
    <path d="M 77.576563 453.4497 
L 108.387801 453.4497 
L 108.387801 471.299688 
L 77.576563 471.299688 
L 77.576563 453.4497 
" clip-path="url(#p5fe33a446c)" style="fill: #ffffff"/>
    <path d="M 77.576563 471.299688 
L 108.387801 471.299688 
L 108.387801 489.149676 
L 77.576563 489.149676 
L 77.576563 471.299688 
" clip-path="url(#p5fe33a446c)" style="fill: #ffffff"/>
    <path d="M 77.576563 489.149676 
L 108.387801 489.149676 
L 108.387801 506.999664 
L 77.576563 506.999664 
L 77.576563 489.149676 
" clip-path="url(#p5fe33a446c)" style="fill: #ffffff"/>
    <path d="M 77.576563 506.999664 
L 108.387801 506.999664 
L 108.387801 524.849652 
L 77.576563 524.849652 
L 77.576563 506.999664 
" clip-path="url(#p5fe33a446c)" style="fill: #ffffff"/>
    <path d="M 77.576563 524.849652 
L 108.387801 524.849652 
L 108.387801 542.69964 
L 77.576563 542.69964 
L 77.576563 524.849652 
" clip-path="url(#p5fe33a446c)" style="fill: #ffffff"/>
    <path d="M 77.576563 542.69964 
L 108.387801 542.69964 
L 108.387801 560.549628 
L 77.576563 560.549628 
L 77.576563 542.69964 
" clip-path="url(#p5fe33a446c)" style="fill: #ffffff"/>
    <path d="M 77.576563 560.549628 
L 108.387801 560.549628 
L 108.387801 578.399616 
L 77.576563 578.399616 
L 77.576563 560.549628 
" clip-path="url(#p5fe33a446c)" style="fill: #ffffff"/>
    <path d="M 77.576563 578.399616 
L 108.387801 578.399616 
L 108.387801 596.249604 
L 77.576563 596.249604 
L 77.576563 578.399616 
" clip-path="url(#p5fe33a446c)" style="fill: #ffffff"/>
    <path d="M 77.576563 596.249604 
L 108.387801 596.249604 
L 108.387801 614.099592 
L 77.576563 614.099592 
L 77.576563 596.249604 
" clip-path="url(#p5fe33a446c)" style="fill: #ffffff"/>
    <path d="M 77.576563 614.099592 
L 108.387801 614.099592 
L 108.387801 631.94958 
L 77.576563 631.94958 
L 77.576563 614.099592 
" clip-path="url(#p5fe33a446c)" style="fill: #ffffff"/>
    <path d="M 77.576563 631.94958 
L 108.387801 631.94958 
L 108.387801 649.799568 
L 77.576563 649.799568 
L 77.576563 631.94958 
" clip-path="url(#p5fe33a446c)" style="fill: #ffffff"/>
    <path d="M 77.576563 649.799568 
L 108.387801 649.799568 
L 108.387801 667.649556 
L 77.576563 667.649556 
L 77.576563 649.799568 
" clip-path="url(#p5fe33a446c)" style="fill: #ffffff"/>
    <path d="M 77.576563 667.649556 
L 108.387801 667.649556 
L 108.387801 685.499544 
L 77.576563 685.499544 
L 77.576563 667.649556 
" clip-path="url(#p5fe33a446c)" style="fill: #ffffff"/>
    <path d="M 77.576563 685.499544 
L 108.387801 685.499544 
L 108.387801 703.349532 
L 77.576563 703.349532 
L 77.576563 685.499544 
" clip-path="url(#p5fe33a446c)" style="fill: #ffffff"/>
    <path d="M 77.576563 703.349532 
L 108.387801 703.349532 
L 108.387801 721.19952 
L 77.576563 721.19952 
L 77.576563 703.349532 
" clip-path="url(#p5fe33a446c)" style="fill: #ffffff"/>
   </g>
   <g id="matplotlib.axis_1"/>
   <g id="matplotlib.axis_2">
    <g id="ytick_1">
     <g id="line2d_1">
      <defs>
       <path id="m3d96488271" d="M 0 0 
L -3.5 0 
" style="stroke: #000000; stroke-width: 0.8"/>
      </defs>
      <g>
       <use xlink:href="#m3d96488271" x="77.576563" y="16.124994" style="stroke: #000000; stroke-width: 0.8"/>
      </g>
     </g>
     <g id="text_1">
      <text style="font: 10px 'Arial', sans-serif; text-anchor: end" x="70.576563" y="18.71015" transform="rotate(-0 70.576563 18.71015)">SBS1</text>
     </g>
    </g>
    <g id="ytick_2">
     <g id="line2d_2">
      <g>
       <use xlink:href="#m3d96488271" x="77.576563" y="33.974982" style="stroke: #000000; stroke-width: 0.8"/>
      </g>
     </g>
     <g id="text_2">
      <text style="font: 10px 'Arial', sans-serif; text-anchor: end" x="70.576563" y="36.560138" transform="rotate(-0 70.576563 36.560138)">SBS2</text>
     </g>
    </g>
    <g id="ytick_3">
     <g id="line2d_3">
      <g>
       <use xlink:href="#m3d96488271" x="77.576563" y="51.82497" style="stroke: #000000; stroke-width: 0.8"/>
      </g>
     </g>
     <g id="text_3">
      <text style="font: 10px 'Arial', sans-serif; text-anchor: end" x="70.576563" y="54.410126" transform="rotate(-0 70.576563 54.410126)">SBS5</text>
     </g>
    </g>
    <g id="ytick_4">
     <g id="line2d_4">
      <g>
       <use xlink:href="#m3d96488271" x="77.576563" y="69.674958" style="stroke: #000000; stroke-width: 0.8"/>
      </g>
     </g>
     <g id="text_4">
      <text style="font: 10px 'Arial', sans-serif; text-anchor: end" x="70.576563" y="72.260114" transform="rotate(-0 70.576563 72.260114)">SBS7a</text>
     </g>
    </g>
    <g id="ytick_5">
     <g id="line2d_5">
      <g>
       <use xlink:href="#m3d96488271" x="77.576563" y="87.524946" style="stroke: #000000; stroke-width: 0.8"/>
      </g>
     </g>
     <g id="text_5">
      <text style="font: 10px 'Arial', sans-serif; text-anchor: end" x="70.576563" y="90.110102" transform="rotate(-0 70.576563 90.110102)">SBS7b</text>
     </g>
    </g>
    <g id="ytick_6">
     <g id="line2d_6">
      <g>
       <use xlink:href="#m3d96488271" x="77.576563" y="105.374934" style="stroke: #000000; stroke-width: 0.8"/>
      </g>
     </g>
     <g id="text_6">
      <text style="font: 10px 'Arial', sans-serif; text-anchor: end" x="70.576563" y="107.96009" transform="rotate(-0 70.576563 107.96009)">SBS8</text>
     </g>
    </g>
    <g id="ytick_7">
     <g id="line2d_7">
      <g>
       <use xlink:href="#m3d96488271" x="77.576563" y="123.224922" style="stroke: #000000; stroke-width: 0.8"/>
      </g>
     </g>
     <g id="text_7">
      <text style="font: 10px 'Arial', sans-serif; text-anchor: end" x="70.576563" y="125.810078" transform="rotate(-0 70.576563 125.810078)">SBS10a</text>
     </g>
    </g>
    <g id="ytick_8">
     <g id="line2d_8">
      <g>
       <use xlink:href="#m3d96488271" x="77.576563" y="141.07491" style="stroke: #000000; stroke-width: 0.8"/>
      </g>
     </g>
     <g id="text_8">
      <text style="font: 10px 'Arial', sans-serif; text-anchor: end" x="70.576563" y="143.660066" transform="rotate(-0 70.576563 143.660066)">SBS10b</text>
     </g>
    </g>
    <g id="ytick_9">
     <g id="line2d_9">
      <g>
       <use xlink:href="#m3d96488271" x="77.576563" y="158.924898" style="stroke: #000000; stroke-width: 0.8"/>
      </g>
     </g>
     <g id="text_9">
      <text style="font: 10px 'Arial', sans-serif; text-anchor: end" x="70.576563" y="161.510054" transform="rotate(-0 70.576563 161.510054)">SBS11</text>
     </g>
    </g>
    <g id="ytick_10">
     <g id="line2d_10">
      <g>
       <use xlink:href="#m3d96488271" x="77.576563" y="176.774886" style="stroke: #000000; stroke-width: 0.8"/>
      </g>
     </g>
     <g id="text_10">
      <text style="font: 10px 'Arial', sans-serif; text-anchor: end" x="70.576563" y="179.360042" transform="rotate(-0 70.576563 179.360042)">SBS12</text>
     </g>
    </g>
    <g id="ytick_11">
     <g id="line2d_11">
      <g>
       <use xlink:href="#m3d96488271" x="77.576563" y="194.624874" style="stroke: #000000; stroke-width: 0.8"/>
      </g>
     </g>
     <g id="text_11">
      <text style="font: 10px 'Arial', sans-serif; text-anchor: end" x="70.576563" y="197.21003" transform="rotate(-0 70.576563 197.21003)">SBS13</text>
     </g>
    </g>
    <g id="ytick_12">
     <g id="line2d_12">
      <g>
       <use xlink:href="#m3d96488271" x="77.576563" y="212.474862" style="stroke: #000000; stroke-width: 0.8"/>
      </g>
     </g>
     <g id="text_12">
      <text style="font: 10px 'Arial', sans-serif; text-anchor: end" x="70.576563" y="215.060018" transform="rotate(-0 70.576563 215.060018)">SBS14</text>
     </g>
    </g>
    <g id="ytick_13">
     <g id="line2d_13">
      <g>
       <use xlink:href="#m3d96488271" x="77.576563" y="230.32485" style="stroke: #000000; stroke-width: 0.8"/>
      </g>
     </g>
     <g id="text_13">
      <text style="font: 10px 'Arial', sans-serif; text-anchor: end" x="70.576563" y="232.910006" transform="rotate(-0 70.576563 232.910006)">SBS15</text>
     </g>
    </g>
    <g id="ytick_14">
     <g id="line2d_14">
      <g>
       <use xlink:href="#m3d96488271" x="77.576563" y="248.174838" style="stroke: #000000; stroke-width: 0.8"/>
      </g>
     </g>
     <g id="text_14">
      <text style="font: 10px 'Arial', sans-serif; text-anchor: end" x="70.576563" y="250.759994" transform="rotate(-0 70.576563 250.759994)">SBS17a</text>
     </g>
    </g>
    <g id="ytick_15">
     <g id="line2d_15">
      <g>
       <use xlink:href="#m3d96488271" x="77.576563" y="266.024826" style="stroke: #000000; stroke-width: 0.8"/>
      </g>
     </g>
     <g id="text_15">
      <text style="font: 10px 'Arial', sans-serif; text-anchor: end" x="70.576563" y="268.609982" transform="rotate(-0 70.576563 268.609982)">SBS17b</text>
     </g>
    </g>
    <g id="ytick_16">
     <g id="line2d_16">
      <g>
       <use xlink:href="#m3d96488271" x="77.576563" y="283.874814" style="stroke: #000000; stroke-width: 0.8"/>
      </g>
     </g>
     <g id="text_16">
      <text style="font: 10px 'Arial', sans-serif; text-anchor: end" x="70.576563" y="286.45997" transform="rotate(-0 70.576563 286.45997)">SBS18</text>
     </g>
    </g>
    <g id="ytick_17">
     <g id="line2d_17">
      <g>
       <use xlink:href="#m3d96488271" x="77.576563" y="301.724802" style="stroke: #000000; stroke-width: 0.8"/>
      </g>
     </g>
     <g id="text_17">
      <text style="font: 10px 'Arial', sans-serif; text-anchor: end" x="70.576563" y="304.309958" transform="rotate(-0 70.576563 304.309958)">SBS20</text>
     </g>
    </g>
    <g id="ytick_18">
     <g id="line2d_18">
      <g>
       <use xlink:href="#m3d96488271" x="77.576563" y="319.57479" style="stroke: #000000; stroke-width: 0.8"/>
      </g>
     </g>
     <g id="text_18">
      <text style="font: 10px 'Arial', sans-serif; text-anchor: end" x="70.576563" y="322.159946" transform="rotate(-0 70.576563 322.159946)">SBS31</text>
     </g>
    </g>
    <g id="ytick_19">
     <g id="line2d_19">
      <g>
       <use xlink:href="#m3d96488271" x="77.576563" y="337.424778" style="stroke: #000000; stroke-width: 0.8"/>
      </g>
     </g>
     <g id="text_19">
      <text style="font: 10px 'Arial', sans-serif; text-anchor: end" x="70.576563" y="340.009934" transform="rotate(-0 70.576563 340.009934)">SBS33</text>
     </g>
    </g>
    <g id="ytick_20">
     <g id="line2d_20">
      <g>
       <use xlink:href="#m3d96488271" x="77.576563" y="355.274766" style="stroke: #000000; stroke-width: 0.8"/>
      </g>
     </g>
     <g id="text_20">
      <text style="font: 10px 'Arial', sans-serif; text-anchor: end" x="70.576563" y="357.859922" transform="rotate(-0 70.576563 357.859922)">SBS35</text>
     </g>
    </g>
    <g id="ytick_21">
     <g id="line2d_21">
      <g>
       <use xlink:href="#m3d96488271" x="77.576563" y="373.124754" style="stroke: #000000; stroke-width: 0.8"/>
      </g>
     </g>
     <g id="text_21">
      <text style="font: 10px 'Arial', sans-serif; text-anchor: end" x="70.576563" y="375.70991" transform="rotate(-0 70.576563 375.70991)">SBS39</text>
     </g>
    </g>
    <g id="ytick_22">
     <g id="line2d_22">
      <g>
       <use xlink:href="#m3d96488271" x="77.576563" y="390.974742" style="stroke: #000000; stroke-width: 0.8"/>
      </g>
     </g>
     <g id="text_22">
      <text style="font: 10px 'Arial', sans-serif; text-anchor: end" x="70.576563" y="393.559898" transform="rotate(-0 70.576563 393.559898)">SBS43</text>
     </g>
    </g>
    <g id="ytick_23">
     <g id="line2d_23">
      <g>
       <use xlink:href="#m3d96488271" x="77.576563" y="408.82473" style="stroke: #000000; stroke-width: 0.8"/>
      </g>
     </g>
     <g id="text_23">
      <text style="font: 10px 'Arial', sans-serif; text-anchor: end" x="70.576563" y="411.409886" transform="rotate(-0 70.576563 411.409886)">SBS44</text>
     </g>
    </g>
    <g id="ytick_24">
     <g id="line2d_24">
      <g>
       <use xlink:href="#m3d96488271" x="77.576563" y="426.674718" style="stroke: #000000; stroke-width: 0.8"/>
      </g>
     </g>
     <g id="text_24">
      <text style="font: 10px 'Arial', sans-serif; text-anchor: end" x="70.576563" y="429.259874" transform="rotate(-0 70.576563 429.259874)">SBS45</text>
     </g>
    </g>
    <g id="ytick_25">
     <g id="line2d_25">
      <g>
       <use xlink:href="#m3d96488271" x="77.576563" y="444.524706" style="stroke: #000000; stroke-width: 0.8"/>
      </g>
     </g>
     <g id="text_25">
      <text style="font: 10px 'Arial', sans-serif; text-anchor: end" x="70.576563" y="447.109862" transform="rotate(-0 70.576563 447.109862)">SBS46</text>
     </g>
    </g>
    <g id="ytick_26">
     <g id="line2d_26">
      <g>
       <use xlink:href="#m3d96488271" x="77.576563" y="462.374694" style="stroke: #000000; stroke-width: 0.8"/>
      </g>
     </g>
     <g id="text_26">
      <text style="font: 10px 'Arial', sans-serif; text-anchor: end" x="70.576563" y="464.95985" transform="rotate(-0 70.576563 464.95985)">SBS53</text>
     </g>
    </g>
    <g id="ytick_27">
     <g id="line2d_27">
      <g>
       <use xlink:href="#m3d96488271" x="77.576563" y="480.224682" style="stroke: #000000; stroke-width: 0.8"/>
      </g>
     </g>
     <g id="text_27">
      <text style="font: 10px 'Arial', sans-serif; text-anchor: end" x="70.576563" y="482.809838" transform="rotate(-0 70.576563 482.809838)">SBS54</text>
     </g>
    </g>
    <g id="ytick_28">
     <g id="line2d_28">
      <g>
       <use xlink:href="#m3d96488271" x="77.576563" y="498.07467" style="stroke: #000000; stroke-width: 0.8"/>
      </g>
     </g>
     <g id="text_28">
      <text style="font: 10px 'Arial', sans-serif; text-anchor: end" x="70.576563" y="500.659826" transform="rotate(-0 70.576563 500.659826)">SBS57</text>
     </g>
    </g>
    <g id="ytick_29">
     <g id="line2d_29">
      <g>
       <use xlink:href="#m3d96488271" x="77.576563" y="515.924658" style="stroke: #000000; stroke-width: 0.8"/>
      </g>
     </g>
     <g id="text_29">
      <text style="font: 10px 'Arial', sans-serif; text-anchor: end" x="70.576563" y="518.509814" transform="rotate(-0 70.576563 518.509814)">SBS60</text>
     </g>
    </g>
    <g id="ytick_30">
     <g id="line2d_30">
      <g>
       <use xlink:href="#m3d96488271" x="77.576563" y="533.774646" style="stroke: #000000; stroke-width: 0.8"/>
      </g>
     </g>
     <g id="text_30">
      <text style="font: 10px 'Arial', sans-serif; text-anchor: end" x="70.576563" y="536.359802" transform="rotate(-0 70.576563 536.359802)">SBS84</text>
     </g>
    </g>
    <g id="ytick_31">
     <g id="line2d_31">
      <g>
       <use xlink:href="#m3d96488271" x="77.576563" y="551.624634" style="stroke: #000000; stroke-width: 0.8"/>
      </g>
     </g>
     <g id="text_31">
      <text style="font: 10px 'Arial', sans-serif; text-anchor: end" x="70.576563" y="554.20979" transform="rotate(-0 70.576563 554.20979)">SBS87</text>
     </g>
    </g>
    <g id="ytick_32">
     <g id="line2d_32">
      <g>
       <use xlink:href="#m3d96488271" x="77.576563" y="569.474622" style="stroke: #000000; stroke-width: 0.8"/>
      </g>
     </g>
     <g id="text_32">
      <text style="font: 10px 'Arial', sans-serif; text-anchor: end" x="70.576563" y="572.059778" transform="rotate(-0 70.576563 572.059778)">SBS288L1/H3</text>
     </g>
    </g>
    <g id="ytick_33">
     <g id="line2d_33">
      <g>
       <use xlink:href="#m3d96488271" x="77.576563" y="587.32461" style="stroke: #000000; stroke-width: 0.8"/>
      </g>
     </g>
     <g id="text_33">
      <text style="font: 10px 'Arial', sans-serif; text-anchor: end" x="70.576563" y="589.909766" transform="rotate(-0 70.576563 589.909766)">SBS288L2</text>
     </g>
    </g>
    <g id="ytick_34">
     <g id="line2d_34">
      <g>
       <use xlink:href="#m3d96488271" x="77.576563" y="605.174598" style="stroke: #000000; stroke-width: 0.8"/>
      </g>
     </g>
     <g id="text_34">
      <text style="font: 10px 'Arial', sans-serif; text-anchor: end" x="70.576563" y="607.759754" transform="rotate(-0 70.576563 607.759754)">SBS288L3</text>
     </g>
    </g>
    <g id="ytick_35">
     <g id="line2d_35">
      <g>
       <use xlink:href="#m3d96488271" x="77.576563" y="623.024586" style="stroke: #000000; stroke-width: 0.8"/>
      </g>
     </g>
     <g id="text_35">
      <text style="font: 10px 'Arial', sans-serif; text-anchor: end" x="70.576563" y="625.609742" transform="rotate(-0 70.576563 625.609742)">SBS288L4</text>
     </g>
    </g>
    <g id="ytick_36">
     <g id="line2d_36">
      <g>
       <use xlink:href="#m3d96488271" x="77.576563" y="640.874574" style="stroke: #000000; stroke-width: 0.8"/>
      </g>
     </g>
     <g id="text_36">
      <text style="font: 10px 'Arial', sans-serif; text-anchor: end" x="70.576563" y="643.45973" transform="rotate(-0 70.576563 643.45973)">SBS288L5</text>
     </g>
    </g>
    <g id="ytick_37">
     <g id="line2d_37">
      <g>
       <use xlink:href="#m3d96488271" x="77.576563" y="658.724562" style="stroke: #000000; stroke-width: 0.8"/>
      </g>
     </g>
     <g id="text_37">
      <text style="font: 10px 'Arial', sans-serif; text-anchor: end" x="70.576563" y="661.309718" transform="rotate(-0 70.576563 661.309718)">SBS288H1</text>
     </g>
    </g>
    <g id="ytick_38">
     <g id="line2d_38">
      <g>
       <use xlink:href="#m3d96488271" x="77.576563" y="676.57455" style="stroke: #000000; stroke-width: 0.8"/>
      </g>
     </g>
     <g id="text_38">
      <text style="font: 10px 'Arial', sans-serif; text-anchor: end" x="70.576563" y="679.159706" transform="rotate(-0 70.576563 679.159706)">SBS288H2</text>
     </g>
    </g>
    <g id="ytick_39">
     <g id="line2d_39">
      <g>
       <use xlink:href="#m3d96488271" x="77.576563" y="694.424538" style="stroke: #000000; stroke-width: 0.8"/>
      </g>
     </g>
     <g id="text_39">
      <text style="font: 10px 'Arial', sans-serif; text-anchor: end" x="70.576563" y="697.009694" transform="rotate(-0 70.576563 697.009694)">SBS288H4</text>
     </g>
    </g>
    <g id="ytick_40">
     <g id="line2d_40">
      <g>
       <use xlink:href="#m3d96488271" x="77.576563" y="712.274526" style="stroke: #000000; stroke-width: 0.8"/>
      </g>
     </g>
     <g id="text_40">
      <text style="font: 10px 'Arial', sans-serif; text-anchor: end" x="70.576563" y="714.859682" transform="rotate(-0 70.576563 714.859682)">SBS288H5</text>
     </g>
    </g>
   </g>
   <g id="text_41">
    <text style="fill: #ffffff; font: 10px 'Arial', sans-serif; text-anchor: middle" x="92.982182" y="18.71015" transform="rotate(-0 92.982182 18.71015)">406</text>
   </g>
   <g id="text_42">
    <text style="fill: #262626; font: 10px 'Arial', sans-serif; text-anchor: middle" x="92.982182" y="36.560138" transform="rotate(-0 92.982182 36.560138)">28</text>
   </g>
   <g id="text_43">
    <text style="fill: #ffffff; font: 10px 'Arial', sans-serif; text-anchor: middle" x="92.982182" y="54.410126" transform="rotate(-0 92.982182 54.410126)">563</text>
   </g>
   <g id="text_44">
    <text style="fill: #262626; font: 10px 'Arial', sans-serif; text-anchor: middle" x="92.982182" y="72.260114" transform="rotate(-0 92.982182 72.260114)">0</text>
   </g>
   <g id="text_45">
    <text style="fill: #262626; font: 10px 'Arial', sans-serif; text-anchor: middle" x="92.982182" y="90.110102" transform="rotate(-0 92.982182 90.110102)">0</text>
   </g>
   <g id="text_46">
    <text style="fill: #262626; font: 10px 'Arial', sans-serif; text-anchor: middle" x="92.982182" y="107.96009" transform="rotate(-0 92.982182 107.96009)">128</text>
   </g>
   <g id="text_47">
    <text style="fill: #262626; font: 10px 'Arial', sans-serif; text-anchor: middle" x="92.982182" y="125.810078" transform="rotate(-0 92.982182 125.810078)">0</text>
   </g>
   <g id="text_48">
    <text style="fill: #262626; font: 10px 'Arial', sans-serif; text-anchor: middle" x="92.982182" y="143.660066" transform="rotate(-0 92.982182 143.660066)">0</text>
   </g>
   <g id="text_49">
    <text style="fill: #262626; font: 10px 'Arial', sans-serif; text-anchor: middle" x="92.982182" y="161.510054" transform="rotate(-0 92.982182 161.510054)">1</text>
   </g>
   <g id="text_50">
    <text style="fill: #262626; font: 10px 'Arial', sans-serif; text-anchor: middle" x="92.982182" y="179.360042" transform="rotate(-0 92.982182 179.360042)">5</text>
   </g>
   <g id="text_51">
    <text style="fill: #262626; font: 10px 'Arial', sans-serif; text-anchor: middle" x="92.982182" y="197.21003" transform="rotate(-0 92.982182 197.21003)">28</text>
   </g>
   <g id="text_52">
    <text style="fill: #262626; font: 10px 'Arial', sans-serif; text-anchor: middle" x="92.982182" y="215.060018" transform="rotate(-0 92.982182 215.060018)">0</text>
   </g>
   <g id="text_53">
    <text style="fill: #262626; font: 10px 'Arial', sans-serif; text-anchor: middle" x="92.982182" y="232.910006" transform="rotate(-0 92.982182 232.910006)">2</text>
   </g>
   <g id="text_54">
    <text style="fill: #262626; font: 10px 'Arial', sans-serif; text-anchor: middle" x="92.982182" y="250.759994" transform="rotate(-0 92.982182 250.759994)">6</text>
   </g>
   <g id="text_55">
    <text style="fill: #262626; font: 10px 'Arial', sans-serif; text-anchor: middle" x="92.982182" y="268.609982" transform="rotate(-0 92.982182 268.609982)">10</text>
   </g>
   <g id="text_56">
    <text style="fill: #262626; font: 10px 'Arial', sans-serif; text-anchor: middle" x="92.982182" y="286.45997" transform="rotate(-0 92.982182 286.45997)">177</text>
   </g>
   <g id="text_57">
    <text style="fill: #262626; font: 10px 'Arial', sans-serif; text-anchor: middle" x="92.982182" y="304.309958" transform="rotate(-0 92.982182 304.309958)">0</text>
   </g>
   <g id="text_58">
    <text style="fill: #262626; font: 10px 'Arial', sans-serif; text-anchor: middle" x="92.982182" y="322.159946" transform="rotate(-0 92.982182 322.159946)">55</text>
   </g>
   <g id="text_59">
    <text style="fill: #262626; font: 10px 'Arial', sans-serif; text-anchor: middle" x="92.982182" y="340.009934" transform="rotate(-0 92.982182 340.009934)">8</text>
   </g>
   <g id="text_60">
    <text style="fill: #262626; font: 10px 'Arial', sans-serif; text-anchor: middle" x="92.982182" y="357.859922" transform="rotate(-0 92.982182 357.859922)">32</text>
   </g>
   <g id="text_61">
    <text style="fill: #262626; font: 10px 'Arial', sans-serif; text-anchor: middle" x="92.982182" y="375.70991" transform="rotate(-0 92.982182 375.70991)">24</text>
   </g>
   <g id="text_62">
    <text style="fill: #262626; font: 10px 'Arial', sans-serif; text-anchor: middle" x="92.982182" y="393.559898" transform="rotate(-0 92.982182 393.559898)">81</text>
   </g>
   <g id="text_63">
    <text style="fill: #262626; font: 10px 'Arial', sans-serif; text-anchor: middle" x="92.982182" y="411.409886" transform="rotate(-0 92.982182 411.409886)">2</text>
   </g>
   <g id="text_64">
    <text style="fill: #262626; font: 10px 'Arial', sans-serif; text-anchor: middle" x="92.982182" y="429.259874" transform="rotate(-0 92.982182 429.259874)">0</text>
   </g>
   <g id="text_65">
    <text style="fill: #262626; font: 10px 'Arial', sans-serif; text-anchor: middle" x="92.982182" y="447.109862" transform="rotate(-0 92.982182 447.109862)">32</text>
   </g>
   <g id="text_66">
    <text style="fill: #262626; font: 10px 'Arial', sans-serif; text-anchor: middle" x="92.982182" y="464.95985" transform="rotate(-0 92.982182 464.95985)">7</text>
   </g>
   <g id="text_67">
    <text style="fill: #262626; font: 10px 'Arial', sans-serif; text-anchor: middle" x="92.982182" y="482.809838" transform="rotate(-0 92.982182 482.809838)">28</text>
   </g>
   <g id="text_68">
    <text style="fill: #262626; font: 10px 'Arial', sans-serif; text-anchor: middle" x="92.982182" y="500.659826" transform="rotate(-0 92.982182 500.659826)">3</text>
   </g>
   <g id="text_69">
    <text style="fill: #262626; font: 10px 'Arial', sans-serif; text-anchor: middle" x="92.982182" y="518.509814" transform="rotate(-0 92.982182 518.509814)">18</text>
   </g>
   <g id="text_70">
    <text style="fill: #262626; font: 10px 'Arial', sans-serif; text-anchor: middle" x="92.982182" y="536.359802" transform="rotate(-0 92.982182 536.359802)">0</text>
   </g>
   <g id="text_71">
    <text style="fill: #262626; font: 10px 'Arial', sans-serif; text-anchor: middle" x="92.982182" y="554.20979" transform="rotate(-0 92.982182 554.20979)">8</text>
   </g>
   <g id="text_72">
    <text style="fill: #262626; font: 10px 'Arial', sans-serif; text-anchor: middle" x="92.982182" y="572.059778" transform="rotate(-0 92.982182 572.059778)">22</text>
   </g>
   <g id="text_73">
    <text style="fill: #262626; font: 10px 'Arial', sans-serif; text-anchor: middle" x="92.982182" y="589.909766" transform="rotate(-0 92.982182 589.909766)">31</text>
   </g>
   <g id="text_74">
    <text style="fill: #262626; font: 10px 'Arial', sans-serif; text-anchor: middle" x="92.982182" y="607.759754" transform="rotate(-0 92.982182 607.759754)">18</text>
   </g>
   <g id="text_75">
    <text style="fill: #262626; font: 10px 'Arial', sans-serif; text-anchor: middle" x="92.982182" y="625.609742" transform="rotate(-0 92.982182 625.609742)">24</text>
   </g>
   <g id="text_76">
    <text style="fill: #262626; font: 10px 'Arial', sans-serif; text-anchor: middle" x="92.982182" y="643.45973" transform="rotate(-0 92.982182 643.45973)">23</text>
   </g>
   <g id="text_77">
    <text style="fill: #262626; font: 10px 'Arial', sans-serif; text-anchor: middle" x="92.982182" y="661.309718" transform="rotate(-0 92.982182 661.309718)">0</text>
   </g>
   <g id="text_78">
    <text style="fill: #262626; font: 10px 'Arial', sans-serif; text-anchor: middle" x="92.982182" y="679.159706" transform="rotate(-0 92.982182 679.159706)">0</text>
   </g>
   <g id="text_79">
    <text style="fill: #262626; font: 10px 'Arial', sans-serif; text-anchor: middle" x="92.982182" y="697.009694" transform="rotate(-0 92.982182 697.009694)">0</text>
   </g>
   <g id="text_80">
    <text style="fill: #262626; font: 10px 'Arial', sans-serif; text-anchor: middle" x="92.982182" y="714.859682" transform="rotate(-0 92.982182 714.859682)">0</text>
   </g>
  </g>
  <g id="axes_2">
   <g id="patch_3">
    <path d="M 114.388281 721.19952 
L 145.19952 721.19952 
L 145.19952 7.2 
L 114.388281 7.2 
L 114.388281 721.19952 
z
" style="fill: none"/>
   </g>
   <g id="QuadMesh_2">
    <path d="M 114.388281 7.2 
L 145.19952 7.2 
L 145.19952 25.049988 
L 114.388281 25.049988 
L 114.388281 7.2 
" clip-path="url(#p889fd45e63)" style="fill: #fea9b8"/>
    <path d="M 114.388281 25.049988 
L 145.19952 25.049988 
L 145.19952 42.899976 
L 114.388281 42.899976 
L 114.388281 25.049988 
" clip-path="url(#p889fd45e63)" style="fill: #ffffff"/>
    <path d="M 114.388281 42.899976 
L 145.19952 42.899976 
L 145.19952 60.749964 
L 114.388281 60.749964 
L 114.388281 42.899976 
" clip-path="url(#p889fd45e63)" style="fill: #fe90a3"/>
    <path d="M 114.388281 60.749964 
L 145.19952 60.749964 
L 145.19952 78.599952 
L 114.388281 78.599952 
L 114.388281 60.749964 
" clip-path="url(#p889fd45e63)" style="fill: #ffffff"/>
    <path d="M 114.388281 78.599952 
L 145.19952 78.599952 
L 145.19952 96.44994 
L 114.388281 96.44994 
L 114.388281 78.599952 
" clip-path="url(#p889fd45e63)" style="fill: #ffffff"/>
    <path d="M 114.388281 96.44994 
L 145.19952 96.44994 
L 145.19952 114.299928 
L 114.388281 114.299928 
L 114.388281 96.44994 
" clip-path="url(#p889fd45e63)" style="fill: #ffffff"/>
    <path d="M 114.388281 114.299928 
L 145.19952 114.299928 
L 145.19952 132.149916 
L 114.388281 132.149916 
L 114.388281 114.299928 
" clip-path="url(#p889fd45e63)" style="fill: #ffe6eb"/>
    <path d="M 114.388281 132.149916 
L 145.19952 132.149916 
L 145.19952 149.999904 
L 114.388281 149.999904 
L 114.388281 132.149916 
" clip-path="url(#p889fd45e63)" style="fill: #fff3f5"/>
    <path d="M 114.388281 149.999904 
L 145.19952 149.999904 
L 145.19952 167.849892 
L 114.388281 167.849892 
L 114.388281 149.999904 
" clip-path="url(#p889fd45e63)" style="fill: #ffffff"/>
    <path d="M 114.388281 167.849892 
L 145.19952 167.849892 
L 145.19952 185.69988 
L 114.388281 185.69988 
L 114.388281 167.849892 
" clip-path="url(#p889fd45e63)" style="fill: #ffffff"/>
    <path d="M 114.388281 185.69988 
L 145.19952 185.69988 
L 145.19952 203.549868 
L 114.388281 203.549868 
L 114.388281 185.69988 
" clip-path="url(#p889fd45e63)" style="fill: #ffffff"/>
    <path d="M 114.388281 203.549868 
L 145.19952 203.549868 
L 145.19952 221.399856 
L 114.388281 221.399856 
L 114.388281 203.549868 
" clip-path="url(#p889fd45e63)" style="fill: #ffe6eb"/>
    <path d="M 114.388281 221.399856 
L 145.19952 221.399856 
L 145.19952 239.249844 
L 114.388281 239.249844 
L 114.388281 221.399856 
" clip-path="url(#p889fd45e63)" style="fill: #ffffff"/>
    <path d="M 114.388281 239.249844 
L 145.19952 239.249844 
L 145.19952 257.099832 
L 114.388281 257.099832 
L 114.388281 239.249844 
" clip-path="url(#p889fd45e63)" style="fill: #ffffff"/>
    <path d="M 114.388281 257.099832 
L 145.19952 257.099832 
L 145.19952 274.94982 
L 114.388281 274.94982 
L 114.388281 257.099832 
" clip-path="url(#p889fd45e63)" style="fill: #ffffff"/>
    <path d="M 114.388281 274.94982 
L 145.19952 274.94982 
L 145.19952 292.799808 
L 114.388281 292.799808 
L 114.388281 274.94982 
" clip-path="url(#p889fd45e63)" style="fill: #ffffff"/>
    <path d="M 114.388281 292.799808 
L 145.19952 292.799808 
L 145.19952 310.649796 
L 114.388281 310.649796 
L 114.388281 292.799808 
" clip-path="url(#p889fd45e63)" style="fill: #ffffff"/>
    <path d="M 114.388281 310.649796 
L 145.19952 310.649796 
L 145.19952 328.499784 
L 114.388281 328.499784 
L 114.388281 310.649796 
" clip-path="url(#p889fd45e63)" style="fill: #ffffff"/>
    <path d="M 114.388281 328.499784 
L 145.19952 328.499784 
L 145.19952 346.349772 
L 114.388281 346.349772 
L 114.388281 328.499784 
" clip-path="url(#p889fd45e63)" style="fill: #ffffff"/>
    <path d="M 114.388281 346.349772 
L 145.19952 346.349772 
L 145.19952 364.19976 
L 114.388281 364.19976 
L 114.388281 346.349772 
" clip-path="url(#p889fd45e63)" style="fill: #ffffff"/>
    <path d="M 114.388281 364.19976 
L 145.19952 364.19976 
L 145.19952 382.049748 
L 114.388281 382.049748 
L 114.388281 364.19976 
" clip-path="url(#p889fd45e63)" style="fill: #ffffff"/>
    <path d="M 114.388281 382.049748 
L 145.19952 382.049748 
L 145.19952 399.899736 
L 114.388281 399.899736 
L 114.388281 382.049748 
" clip-path="url(#p889fd45e63)" style="fill: #ffffff"/>
    <path d="M 114.388281 399.899736 
L 145.19952 399.899736 
L 145.19952 417.749724 
L 114.388281 417.749724 
L 114.388281 399.899736 
" clip-path="url(#p889fd45e63)" style="fill: #fff3f5"/>
    <path d="M 114.388281 417.749724 
L 145.19952 417.749724 
L 145.19952 435.599712 
L 114.388281 435.599712 
L 114.388281 417.749724 
" clip-path="url(#p889fd45e63)" style="fill: #ffffff"/>
    <path d="M 114.388281 435.599712 
L 145.19952 435.599712 
L 145.19952 453.4497 
L 114.388281 453.4497 
L 114.388281 435.599712 
" clip-path="url(#p889fd45e63)" style="fill: #ffffff"/>
    <path d="M 114.388281 453.4497 
L 145.19952 453.4497 
L 145.19952 471.299688 
L 114.388281 471.299688 
L 114.388281 453.4497 
" clip-path="url(#p889fd45e63)" style="fill: #ffffff"/>
    <path d="M 114.388281 471.299688 
L 145.19952 471.299688 
L 145.19952 489.149676 
L 114.388281 489.149676 
L 114.388281 471.299688 
" clip-path="url(#p889fd45e63)" style="fill: #ffffff"/>
    <path d="M 114.388281 489.149676 
L 145.19952 489.149676 
L 145.19952 506.999664 
L 114.388281 506.999664 
L 114.388281 489.149676 
" clip-path="url(#p889fd45e63)" style="fill: #ffffff"/>
    <path d="M 114.388281 506.999664 
L 145.19952 506.999664 
L 145.19952 524.849652 
L 114.388281 524.849652 
L 114.388281 506.999664 
" clip-path="url(#p889fd45e63)" style="fill: #ffffff"/>
    <path d="M 114.388281 524.849652 
L 145.19952 524.849652 
L 145.19952 542.69964 
L 114.388281 542.69964 
L 114.388281 524.849652 
" clip-path="url(#p889fd45e63)" style="fill: #ffffff"/>
    <path d="M 114.388281 542.69964 
L 145.19952 542.69964 
L 145.19952 560.549628 
L 114.388281 560.549628 
L 114.388281 542.69964 
" clip-path="url(#p889fd45e63)" style="fill: #ffffff"/>
    <path d="M 114.388281 560.549628 
L 145.19952 560.549628 
L 145.19952 578.399616 
L 114.388281 578.399616 
L 114.388281 560.549628 
" clip-path="url(#p889fd45e63)" style="fill: #fff3f5"/>
    <path d="M 114.388281 578.399616 
L 145.19952 578.399616 
L 145.19952 596.249604 
L 114.388281 596.249604 
L 114.388281 578.399616 
" clip-path="url(#p889fd45e63)" style="fill: #ffffff"/>
    <path d="M 114.388281 596.249604 
L 145.19952 596.249604 
L 145.19952 614.099592 
L 114.388281 614.099592 
L 114.388281 596.249604 
" clip-path="url(#p889fd45e63)" style="fill: #ffffff"/>
    <path d="M 114.388281 614.099592 
L 145.19952 614.099592 
L 145.19952 631.94958 
L 114.388281 631.94958 
L 114.388281 614.099592 
" clip-path="url(#p889fd45e63)" style="fill: #ffffff"/>
    <path d="M 114.388281 631.94958 
L 145.19952 631.94958 
L 145.19952 649.799568 
L 114.388281 649.799568 
L 114.388281 631.94958 
" clip-path="url(#p889fd45e63)" style="fill: #ffffff"/>
    <path d="M 114.388281 649.799568 
L 145.19952 649.799568 
L 145.19952 667.649556 
L 114.388281 667.649556 
L 114.388281 649.799568 
" clip-path="url(#p889fd45e63)" style="fill: #fff3f5"/>
    <path d="M 114.388281 667.649556 
L 145.19952 667.649556 
L 145.19952 685.499544 
L 114.388281 685.499544 
L 114.388281 667.649556 
" clip-path="url(#p889fd45e63)" style="fill: #ffe6eb"/>
    <path d="M 114.388281 685.499544 
L 145.19952 685.499544 
L 145.19952 703.349532 
L 114.388281 703.349532 
L 114.388281 685.499544 
" clip-path="url(#p889fd45e63)" style="fill: #fff3f5"/>
    <path d="M 114.388281 703.349532 
L 145.19952 703.349532 
L 145.19952 721.19952 
L 114.388281 721.19952 
L 114.388281 703.349532 
" clip-path="url(#p889fd45e63)" style="fill: #ffffff"/>
   </g>
   <g id="matplotlib.axis_3"/>
   <g id="matplotlib.axis_4"/>
   <g id="text_81">
    <text style="fill: #262626; font: 10px 'Arial', sans-serif; text-anchor: middle" x="129.793901" y="18.71015" transform="rotate(-0 129.793901 18.71015)">27</text>
   </g>
   <g id="text_82">
    <text style="fill: #262626; font: 10px 'Arial', sans-serif; text-anchor: middle" x="129.793901" y="36.560138" transform="rotate(-0 129.793901 36.560138)">0</text>
   </g>
   <g id="text_83">
    <text style="fill: #262626; font: 10px 'Arial', sans-serif; text-anchor: middle" x="129.793901" y="54.410126" transform="rotate(-0 129.793901 54.410126)">34</text>
   </g>
   <g id="text_84">
    <text style="fill: #262626; font: 10px 'Arial', sans-serif; text-anchor: middle" x="129.793901" y="72.260114" transform="rotate(-0 129.793901 72.260114)">1</text>
   </g>
   <g id="text_85">
    <text style="fill: #262626; font: 10px 'Arial', sans-serif; text-anchor: middle" x="129.793901" y="90.110102" transform="rotate(-0 129.793901 90.110102)">1</text>
   </g>
   <g id="text_86">
    <text style="fill: #262626; font: 10px 'Arial', sans-serif; text-anchor: middle" x="129.793901" y="107.96009" transform="rotate(-0 129.793901 107.96009)">0</text>
   </g>
   <g id="text_87">
    <text style="fill: #262626; font: 10px 'Arial', sans-serif; text-anchor: middle" x="129.793901" y="125.810078" transform="rotate(-0 129.793901 125.810078)">7</text>
   </g>
   <g id="text_88">
    <text style="fill: #262626; font: 10px 'Arial', sans-serif; text-anchor: middle" x="129.793901" y="143.660066" transform="rotate(-0 129.793901 143.660066)">5</text>
   </g>
   <g id="text_89">
    <text style="fill: #262626; font: 10px 'Arial', sans-serif; text-anchor: middle" x="129.793901" y="161.510054" transform="rotate(-0 129.793901 161.510054)">1</text>
   </g>
   <g id="text_90">
    <text style="fill: #262626; font: 10px 'Arial', sans-serif; text-anchor: middle" x="129.793901" y="179.360042" transform="rotate(-0 129.793901 179.360042)">0</text>
   </g>
   <g id="text_91">
    <text style="fill: #262626; font: 10px 'Arial', sans-serif; text-anchor: middle" x="129.793901" y="197.21003" transform="rotate(-0 129.793901 197.21003)">0</text>
   </g>
   <g id="text_92">
    <text style="fill: #262626; font: 10px 'Arial', sans-serif; text-anchor: middle" x="129.793901" y="215.060018" transform="rotate(-0 129.793901 215.060018)">8</text>
   </g>
   <g id="text_93">
    <text style="fill: #262626; font: 10px 'Arial', sans-serif; text-anchor: middle" x="129.793901" y="232.910006" transform="rotate(-0 129.793901 232.910006)">3</text>
   </g>
   <g id="text_94">
    <text style="fill: #262626; font: 10px 'Arial', sans-serif; text-anchor: middle" x="129.793901" y="250.759994" transform="rotate(-0 129.793901 250.759994)">0</text>
   </g>
   <g id="text_95">
    <text style="fill: #262626; font: 10px 'Arial', sans-serif; text-anchor: middle" x="129.793901" y="268.609982" transform="rotate(-0 129.793901 268.609982)">0</text>
   </g>
   <g id="text_96">
    <text style="fill: #262626; font: 10px 'Arial', sans-serif; text-anchor: middle" x="129.793901" y="286.45997" transform="rotate(-0 129.793901 286.45997)">0</text>
   </g>
   <g id="text_97">
    <text style="fill: #262626; font: 10px 'Arial', sans-serif; text-anchor: middle" x="129.793901" y="304.309958" transform="rotate(-0 129.793901 304.309958)">3</text>
   </g>
   <g id="text_98">
    <text style="fill: #262626; font: 10px 'Arial', sans-serif; text-anchor: middle" x="129.793901" y="322.159946" transform="rotate(-0 129.793901 322.159946)">3</text>
   </g>
   <g id="text_99">
    <text style="fill: #262626; font: 10px 'Arial', sans-serif; text-anchor: middle" x="129.793901" y="340.009934" transform="rotate(-0 129.793901 340.009934)">0</text>
   </g>
   <g id="text_100">
    <text style="fill: #262626; font: 10px 'Arial', sans-serif; text-anchor: middle" x="129.793901" y="357.859922" transform="rotate(-0 129.793901 357.859922)">3</text>
   </g>
   <g id="text_101">
    <text style="fill: #262626; font: 10px 'Arial', sans-serif; text-anchor: middle" x="129.793901" y="375.70991" transform="rotate(-0 129.793901 375.70991)">0</text>
   </g>
   <g id="text_102">
    <text style="fill: #262626; font: 10px 'Arial', sans-serif; text-anchor: middle" x="129.793901" y="393.559898" transform="rotate(-0 129.793901 393.559898)">0</text>
   </g>
   <g id="text_103">
    <text style="fill: #262626; font: 10px 'Arial', sans-serif; text-anchor: middle" x="129.793901" y="411.409886" transform="rotate(-0 129.793901 411.409886)">4</text>
   </g>
   <g id="text_104">
    <text style="fill: #262626; font: 10px 'Arial', sans-serif; text-anchor: middle" x="129.793901" y="429.259874" transform="rotate(-0 129.793901 429.259874)">1</text>
   </g>
   <g id="text_105">
    <text style="fill: #262626; font: 10px 'Arial', sans-serif; text-anchor: middle" x="129.793901" y="447.109862" transform="rotate(-0 129.793901 447.109862)">1</text>
   </g>
   <g id="text_106">
    <text style="fill: #262626; font: 10px 'Arial', sans-serif; text-anchor: middle" x="129.793901" y="464.95985" transform="rotate(-0 129.793901 464.95985)">0</text>
   </g>
   <g id="text_107">
    <text style="fill: #262626; font: 10px 'Arial', sans-serif; text-anchor: middle" x="129.793901" y="482.809838" transform="rotate(-0 129.793901 482.809838)">1</text>
   </g>
   <g id="text_108">
    <text style="fill: #262626; font: 10px 'Arial', sans-serif; text-anchor: middle" x="129.793901" y="500.659826" transform="rotate(-0 129.793901 500.659826)">1</text>
   </g>
   <g id="text_109">
    <text style="fill: #262626; font: 10px 'Arial', sans-serif; text-anchor: middle" x="129.793901" y="518.509814" transform="rotate(-0 129.793901 518.509814)">0</text>
   </g>
   <g id="text_110">
    <text style="fill: #262626; font: 10px 'Arial', sans-serif; text-anchor: middle" x="129.793901" y="536.359802" transform="rotate(-0 129.793901 536.359802)">1</text>
   </g>
   <g id="text_111">
    <text style="fill: #262626; font: 10px 'Arial', sans-serif; text-anchor: middle" x="129.793901" y="554.20979" transform="rotate(-0 129.793901 554.20979)">0</text>
   </g>
   <g id="text_112">
    <text style="fill: #262626; font: 10px 'Arial', sans-serif; text-anchor: middle" x="129.793901" y="572.059778" transform="rotate(-0 129.793901 572.059778)">6</text>
   </g>
   <g id="text_113">
    <text style="fill: #262626; font: 10px 'Arial', sans-serif; text-anchor: middle" x="129.793901" y="589.909766" transform="rotate(-0 129.793901 589.909766)">0</text>
   </g>
   <g id="text_114">
    <text style="fill: #262626; font: 10px 'Arial', sans-serif; text-anchor: middle" x="129.793901" y="607.759754" transform="rotate(-0 129.793901 607.759754)">0</text>
   </g>
   <g id="text_115">
    <text style="fill: #262626; font: 10px 'Arial', sans-serif; text-anchor: middle" x="129.793901" y="625.609742" transform="rotate(-0 129.793901 625.609742)">0</text>
   </g>
   <g id="text_116">
    <text style="fill: #262626; font: 10px 'Arial', sans-serif; text-anchor: middle" x="129.793901" y="643.45973" transform="rotate(-0 129.793901 643.45973)">0</text>
   </g>
   <g id="text_117">
    <text style="fill: #262626; font: 10px 'Arial', sans-serif; text-anchor: middle" x="129.793901" y="661.309718" transform="rotate(-0 129.793901 661.309718)">4</text>
   </g>
   <g id="text_118">
    <text style="fill: #262626; font: 10px 'Arial', sans-serif; text-anchor: middle" x="129.793901" y="679.159706" transform="rotate(-0 129.793901 679.159706)">8</text>
   </g>
   <g id="text_119">
    <text style="fill: #262626; font: 10px 'Arial', sans-serif; text-anchor: middle" x="129.793901" y="697.009694" transform="rotate(-0 129.793901 697.009694)">4</text>
   </g>
   <g id="text_120">
    <text style="fill: #262626; font: 10px 'Arial', sans-serif; text-anchor: middle" x="129.793901" y="714.859682" transform="rotate(-0 129.793901 714.859682)">1</text>
   </g>
  </g>
 </g>
 <defs>
  <clipPath id="p5fe33a446c">
   <rect x="77.576563" y="7.2" width="30.811239" height="713.99952"/>
  </clipPath>
  <clipPath id="p889fd45e63">
   <rect x="114.388281" y="7.2" width="30.811239" height="713.99952"/>
  </clipPath>
 </defs>
</svg>
