<?xml version="1.0" encoding="utf-8" standalone="no"?>
<!DOCTYPE svg PUBLIC "-//W3C//DTD SVG 1.1//EN"
  "http://www.w3.org/Graphics/SVG/1.1/DTD/svg11.dtd">
<svg xmlns:xlink="http://www.w3.org/1999/xlink" width="640.749062pt" height="424.715625pt" viewBox="0 0 640.749062 424.715625" xmlns="http://www.w3.org/2000/svg" version="1.1">
 <metadata>
  <rdf:RDF xmlns:dc="http://purl.org/dc/elements/1.1/" xmlns:cc="http://creativecommons.org/ns#" xmlns:rdf="http://www.w3.org/1999/02/22-rdf-syntax-ns#">
   <cc:Work>
    <dc:type rdf:resource="http://purl.org/dc/dcmitype/StillImage"/>
    <dc:date>2026-05-21T14:16:16.072253</dc:date>
    <dc:format>image/svg+xml</dc:format>
    <dc:creator>
     <cc:Agent>
      <dc:title>Matplotlib v3.7.3, https://matplotlib.org/</dc:title>
     </cc:Agent>
    </dc:creator>
   </cc:Work>
  </rdf:RDF>
 </metadata>
 <defs>
  <style type="text/css">*{stroke-linejoin: round; stroke-linecap: butt}</style>
 </defs>
 <g id="figure_1">
  <g id="patch_1">
   <path d="M 0 424.715625 
L 640.749062 424.715625 
L 640.749062 0 
L 0 0 
L 0 424.715625 
z
" style="fill: none"/>
  </g>
  <g id="axes_1">
   <g id="patch_2">
    <path d="M 51.149063 417.515625 
L 238.082396 417.515625 
L 238.082396 27.515625 
L 51.149063 27.515625 
L 51.149063 417.515625 
z
" style="fill: none"/>
   </g>
   <g id="patch_3">
    <path d="M 51.149063 411.101151 
L 188.719048 411.101151 
L 188.719048 393.140625 
L 51.149063 393.140625 
z
" clip-path="url(#p5ce91d3966)" style="fill: #dadaeb"/>
   </g>
   <g id="patch_4">
    <path d="M 51.149063 385.443257 
L 113.789862 385.443257 
L 113.789862 367.48273 
L 51.149063 367.48273 
z
" clip-path="url(#p5ce91d3966)" style="fill: #dadaeb"/>
   </g>
   <g id="patch_5">
    <path d="M 51.149063 359.785362 
L 180.626696 359.785362 
L 180.626696 341.824836 
L 51.149063 341.824836 
z
" clip-path="url(#p5ce91d3966)" style="fill: #dadaeb"/>
   </g>
   <g id="patch_6">
    <path d="M 51.149063 334.127467 
L 155.873619 334.127467 
L 155.873619 316.166941 
L 51.149063 316.166941 
z
" clip-path="url(#p5ce91d3966)" style="fill: #dadaeb"/>
   </g>
   <g id="patch_7">
    <path d="M 51.149063 308.469572 
L 169.836893 308.469572 
L 169.836893 290.509046 
L 51.149063 290.509046 
z
" clip-path="url(#p5ce91d3966)" style="fill: #dadaeb"/>
   </g>
   <g id="patch_8">
    <path d="M 51.149063 282.811678 
L 133.317561 282.811678 
L 133.317561 264.851151 
L 51.149063 264.851151 
z
" clip-path="url(#p5ce91d3966)" style="fill: #dadaeb"/>
   </g>
   <g id="patch_9">
    <path d="M 51.149063 257.153783 
L 51.149063 257.153783 
L 51.149063 239.193257 
L 51.149063 239.193257 
z
" clip-path="url(#p5ce91d3966)" style="fill: #dadaeb"/>
   </g>
   <g id="patch_10">
    <path d="M 51.149063 231.495888 
L 220.703106 231.495888 
L 220.703106 213.535362 
L 51.149063 213.535362 
z
" clip-path="url(#p5ce91d3966)" style="fill: #dadaeb"/>
   </g>
   <g id="patch_11">
    <path d="M 51.149063 205.837993 
L 159.946241 205.837993 
L 159.946241 187.877467 
L 51.149063 187.877467 
z
" clip-path="url(#p5ce91d3966)" style="fill: #dadaeb"/>
   </g>
   <g id="patch_12">
    <path d="M 51.149063 180.180099 
L 134.928708 180.180099 
L 134.928708 162.219572 
L 51.149063 162.219572 
z
" clip-path="url(#p5ce91d3966)" style="fill: #dadaeb"/>
   </g>
   <g id="patch_13">
    <path d="M 51.149063 154.522204 
L 208.235897 154.522204 
L 208.235897 136.561678 
L 51.149063 136.561678 
z
" clip-path="url(#p5ce91d3966)" style="fill: #dadaeb"/>
   </g>
   <g id="patch_14">
    <path d="M 51.149063 128.864309 
L 184.672872 128.864309 
L 184.672872 110.903783 
L 51.149063 110.903783 
z
" clip-path="url(#p5ce91d3966)" style="fill: #dadaeb"/>
   </g>
   <g id="patch_15">
    <path d="M 51.149063 103.206414 
L 140.164936 103.206414 
L 140.164936 85.245888 
L 51.149063 85.245888 
z
" clip-path="url(#p5ce91d3966)" style="fill: #dadaeb"/>
   </g>
   <g id="patch_16">
    <path d="M 51.149063 77.54852 
L 215.486059 77.54852 
L 215.486059 59.587993 
L 51.149063 59.587993 
z
" clip-path="url(#p5ce91d3966)" style="fill: #dadaeb"/>
   </g>
   <g id="patch_17">
    <path d="M 51.149063 51.890625 
L 140.164936 51.890625 
L 140.164936 33.930099 
L 51.149063 33.930099 
z
" clip-path="url(#p5ce91d3966)" style="fill: #dadaeb"/>
   </g>
   <g id="patch_18">
    <path d="M 188.719048 411.101151 
L 227.157721 411.101151 
L 227.157721 393.140625 
L 188.719048 393.140625 
z
" clip-path="url(#p5ce91d3966)" style="fill: #bcbddc"/>
   </g>
   <g id="patch_19">
    <path d="M 113.789862 385.443257 
L 159.946241 385.443257 
L 159.946241 367.48273 
L 113.789862 367.48273 
z
" clip-path="url(#p5ce91d3966)" style="fill: #bcbddc"/>
   </g>
   <g id="patch_20">
    <path d="M 180.626696 359.785362 
L 225.134632 359.785362 
L 225.134632 341.824836 
L 180.626696 341.824836 
z
" clip-path="url(#p5ce91d3966)" style="fill: #bcbddc"/>
   </g>
   <g id="patch_21">
    <path d="M 155.873619 334.127467 
L 192.527214 334.127467 
L 192.527214 316.166941 
L 155.873619 316.166941 
z
" clip-path="url(#p5ce91d3966)" style="fill: #bcbddc"/>
   </g>
   <g id="patch_22">
    <path d="M 169.836893 308.469572 
L 217.312025 308.469572 
L 217.312025 290.509046 
L 169.836893 290.509046 
z
" clip-path="url(#p5ce91d3966)" style="fill: #bcbddc"/>
   </g>
   <g id="patch_23">
    <path d="M 133.317561 282.811678 
L 188.096559 282.811678 
L 188.096559 264.851151 
L 133.317561 264.851151 
z
" clip-path="url(#p5ce91d3966)" style="fill: #bcbddc"/>
   </g>
   <g id="patch_24">
    <path d="M 51.149063 257.153783 
L 92.233312 257.153783 
L 92.233312 239.193257 
L 51.149063 239.193257 
z
" clip-path="url(#p5ce91d3966)" style="fill: #bcbddc"/>
   </g>
   <g id="patch_25">
    <path d="M 220.703106 231.495888 
L 229.180809 231.495888 
L 229.180809 213.535362 
L 220.703106 213.535362 
z
" clip-path="url(#p5ce91d3966)" style="fill: #bcbddc"/>
   </g>
   <g id="patch_26">
    <path d="M 159.946241 205.837993 
L 219.290156 205.837993 
L 219.290156 187.877467 
L 159.946241 187.877467 
z
" clip-path="url(#p5ce91d3966)" style="fill: #bcbddc"/>
   </g>
   <g id="patch_27">
    <path d="M 134.928708 180.180099 
L 155.873619 180.180099 
L 155.873619 162.219572 
L 134.928708 162.219572 
z
" clip-path="url(#p5ce91d3966)" style="fill: #bcbddc"/>
   </g>
   <g id="patch_28">
    <path d="M 208.235897 154.522204 
L 229.180809 154.522204 
L 229.180809 136.561678 
L 208.235897 136.561678 
z
" clip-path="url(#p5ce91d3966)" style="fill: #bcbddc"/>
   </g>
   <g id="patch_29">
    <path d="M 184.672872 128.864309 
L 195.799856 128.864309 
L 195.799856 110.903783 
L 184.672872 110.903783 
z
" clip-path="url(#p5ce91d3966)" style="fill: #bcbddc"/>
   </g>
   <g id="patch_30">
    <path d="M 140.164936 103.206414 
L 178.314595 103.206414 
L 178.314595 85.245888 
L 140.164936 85.245888 
z
" clip-path="url(#p5ce91d3966)" style="fill: #bcbddc"/>
   </g>
   <g id="patch_31">
    <path d="M 215.486059 77.54852 
L 229.180809 77.54852 
L 229.180809 59.587993 
L 215.486059 59.587993 
z
" clip-path="url(#p5ce91d3966)" style="fill: #bcbddc"/>
   </g>
   <g id="patch_32">
    <path d="M 140.164936 51.890625 
L 193.574459 51.890625 
L 193.574459 33.930099 
L 140.164936 33.930099 
z
" clip-path="url(#p5ce91d3966)" style="fill: #bcbddc"/>
   </g>
   <g id="patch_33">
    <path d="M 227.157721 411.101151 
L 229.180809 411.101151 
L 229.180809 393.140625 
L 227.157721 393.140625 
z
" clip-path="url(#p5ce91d3966)" style="fill: #9e9ac8"/>
   </g>
   <g id="patch_34">
    <path d="M 159.946241 385.443257 
L 229.180809 385.443257 
L 229.180809 367.48273 
L 159.946241 367.48273 
z
" clip-path="url(#p5ce91d3966)" style="fill: #9e9ac8"/>
   </g>
   <g id="patch_35">
    <path d="M 225.134632 359.785362 
L 229.180809 359.785362 
L 229.180809 341.824836 
L 225.134632 341.824836 
z
" clip-path="url(#p5ce91d3966)" style="fill: #9e9ac8"/>
   </g>
   <g id="patch_36">
    <path d="M 192.527214 334.127467 
L 229.180809 334.127467 
L 229.180809 316.166941 
L 192.527214 316.166941 
z
" clip-path="url(#p5ce91d3966)" style="fill: #9e9ac8"/>
   </g>
   <g id="patch_37">
    <path d="M 217.312025 308.469572 
L 229.180809 308.469572 
L 229.180809 290.509046 
L 217.312025 290.509046 
z
" clip-path="url(#p5ce91d3966)" style="fill: #9e9ac8"/>
   </g>
   <g id="patch_38">
    <path d="M 188.096559 282.811678 
L 229.180809 282.811678 
L 229.180809 264.851151 
L 188.096559 264.851151 
z
" clip-path="url(#p5ce91d3966)" style="fill: #9e9ac8"/>
   </g>
   <g id="patch_39">
    <path d="M 92.233312 257.153783 
L 229.180809 257.153783 
L 229.180809 239.193257 
L 92.233312 239.193257 
z
" clip-path="url(#p5ce91d3966)" style="fill: #9e9ac8"/>
   </g>
   <g id="patch_40">
    <path d="M 51.149063 231.495888 
L 51.149063 231.495888 
L 51.149063 213.535362 
L 51.149063 213.535362 
z
" clip-path="url(#p5ce91d3966)" style="fill: #9e9ac8"/>
   </g>
   <g id="patch_41">
    <path d="M 219.290156 205.837993 
L 229.180809 205.837993 
L 229.180809 187.877467 
L 219.290156 187.877467 
z
" clip-path="url(#p5ce91d3966)" style="fill: #9e9ac8"/>
   </g>
   <g id="patch_42">
    <path d="M 155.873619 180.180099 
L 229.180809 180.180099 
L 229.180809 162.219572 
L 155.873619 162.219572 
z
" clip-path="url(#p5ce91d3966)" style="fill: #9e9ac8"/>
   </g>
   <g id="patch_43">
    <path d="M 51.149063 154.522204 
L 51.149063 154.522204 
L 51.149063 136.561678 
L 51.149063 136.561678 
z
" clip-path="url(#p5ce91d3966)" style="fill: #9e9ac8"/>
   </g>
   <g id="patch_44">
    <path d="M 195.799856 128.864309 
L 229.180809 128.864309 
L 229.180809 110.903783 
L 195.799856 110.903783 
z
" clip-path="url(#p5ce91d3966)" style="fill: #9e9ac8"/>
   </g>
   <g id="patch_45">
    <path d="M 178.314595 103.206414 
L 229.180809 103.206414 
L 229.180809 85.245888 
L 178.314595 85.245888 
z
" clip-path="url(#p5ce91d3966)" style="fill: #9e9ac8"/>
   </g>
   <g id="patch_46">
    <path d="M 51.149063 77.54852 
L 51.149063 77.54852 
L 51.149063 59.587993 
L 51.149063 59.587993 
z
" clip-path="url(#p5ce91d3966)" style="fill: #9e9ac8"/>
   </g>
   <g id="patch_47">
    <path d="M 193.574459 51.890625 
L 229.180809 51.890625 
L 229.180809 33.930099 
L 193.574459 33.930099 
z
" clip-path="url(#p5ce91d3966)" style="fill: #9e9ac8"/>
   </g>
   <g id="matplotlib.axis_1">
    <g id="xtick_1">
     <g id="line2d_1"/>
    </g>
    <g id="xtick_2">
     <g id="line2d_2"/>
    </g>
    <g id="xtick_3">
     <g id="line2d_3"/>
    </g>
   </g>
   <g id="matplotlib.axis_2">
    <g id="ytick_1">
     <g id="line2d_4"/>
     <g id="text_1">
      <!-- NBL -->
      <g transform="translate(20.414688 407.131357) scale(0.14 -0.14)">
       <defs>
        <path id="ArialMT-4e" d="M 488 0 
L 488 4581 
L 1109 4581 
L 3516 984 
L 3516 4581 
L 4097 4581 
L 4097 0 
L 3475 0 
L 1069 3600 
L 1069 0 
L 488 0 
z
" transform="scale(0.015625)"/>
        <path id="ArialMT-42" d="M 469 0 
L 469 4581 
L 2188 4581 
Q 2713 4581 3030 4442 
Q 3347 4303 3526 4014 
Q 3706 3725 3706 3409 
Q 3706 3116 3547 2856 
Q 3388 2597 3066 2438 
Q 3481 2316 3704 2022 
Q 3928 1728 3928 1328 
Q 3928 1006 3792 729 
Q 3656 453 3456 303 
Q 3256 153 2954 76 
Q 2653 0 2216 0 
L 469 0 
z
M 1075 2656 
L 2066 2656 
Q 2469 2656 2644 2709 
Q 2875 2778 2992 2937 
Q 3109 3097 3109 3338 
Q 3109 3566 3000 3739 
Q 2891 3913 2687 3977 
Q 2484 4041 1991 4041 
L 1075 4041 
L 1075 2656 
z
M 1075 541 
L 2216 541 
Q 2509 541 2628 563 
Q 2838 600 2978 687 
Q 3119 775 3209 942 
Q 3300 1109 3300 1328 
Q 3300 1584 3169 1773 
Q 3038 1963 2805 2039 
Q 2572 2116 2134 2116 
L 1075 2116 
L 1075 541 
z
" transform="scale(0.015625)"/>
        <path id="ArialMT-4c" d="M 469 0 
L 469 4581 
L 1075 4581 
L 1075 541 
L 3331 541 
L 3331 0 
L 469 0 
z
" transform="scale(0.015625)"/>
       </defs>
       <use xlink:href="#ArialMT-4e"/>
       <use xlink:href="#ArialMT-42" x="72.216797"/>
       <use xlink:href="#ArialMT-4c" x="138.916016"/>
      </g>
     </g>
    </g>
    <g id="ytick_2">
     <g id="line2d_5"/>
     <g id="text_2">
      <!-- HGG -->
      <g transform="translate(15.759688 381.473462) scale(0.14 -0.14)">
       <defs>
        <path id="ArialMT-48" d="M 513 0 
L 513 4581 
L 1119 4581 
L 1119 2700 
L 3500 2700 
L 3500 4581 
L 4106 4581 
L 4106 0 
L 3500 0 
L 3500 2159 
L 1119 2159 
L 1119 0 
L 513 0 
z
" transform="scale(0.015625)"/>
        <path id="ArialMT-47" d="M 2638 1797 
L 2638 2334 
L 4578 2338 
L 4578 638 
Q 4131 281 3656 101 
Q 3181 -78 2681 -78 
Q 2006 -78 1454 211 
Q 903 500 622 1047 
Q 341 1594 341 2269 
Q 341 2938 620 3517 
Q 900 4097 1425 4378 
Q 1950 4659 2634 4659 
Q 3131 4659 3532 4498 
Q 3934 4338 4162 4050 
Q 4391 3763 4509 3300 
L 3963 3150 
Q 3859 3500 3706 3700 
Q 3553 3900 3268 4020 
Q 2984 4141 2638 4141 
Q 2222 4141 1919 4014 
Q 1616 3888 1430 3681 
Q 1244 3475 1141 3228 
Q 966 2803 966 2306 
Q 966 1694 1177 1281 
Q 1388 869 1791 669 
Q 2194 469 2647 469 
Q 3041 469 3416 620 
Q 3791 772 3984 944 
L 3984 1797 
L 2638 1797 
z
" transform="scale(0.015625)"/>
       </defs>
       <use xlink:href="#ArialMT-48"/>
       <use xlink:href="#ArialMT-47" x="72.216797"/>
       <use xlink:href="#ArialMT-47" x="150"/>
      </g>
     </g>
    </g>
    <g id="ytick_3">
     <g id="line2d_6"/>
     <g id="text_3">
      <!-- OST -->
      <g transform="translate(18.870313 355.815567) scale(0.14 -0.14)">
       <defs>
        <path id="ArialMT-4f" d="M 309 2231 
Q 309 3372 921 4017 
Q 1534 4663 2503 4663 
Q 3138 4663 3647 4359 
Q 4156 4056 4423 3514 
Q 4691 2972 4691 2284 
Q 4691 1588 4409 1038 
Q 4128 488 3612 205 
Q 3097 -78 2500 -78 
Q 1853 -78 1343 234 
Q 834 547 571 1087 
Q 309 1628 309 2231 
z
M 934 2222 
Q 934 1394 1379 917 
Q 1825 441 2497 441 
Q 3181 441 3623 922 
Q 4066 1403 4066 2288 
Q 4066 2847 3877 3264 
Q 3688 3681 3323 3911 
Q 2959 4141 2506 4141 
Q 1863 4141 1398 3698 
Q 934 3256 934 2222 
z
" transform="scale(0.015625)"/>
        <path id="ArialMT-53" d="M 288 1472 
L 859 1522 
Q 900 1178 1048 958 
Q 1197 738 1509 602 
Q 1822 466 2213 466 
Q 2559 466 2825 569 
Q 3091 672 3220 851 
Q 3350 1031 3350 1244 
Q 3350 1459 3225 1620 
Q 3100 1781 2813 1891 
Q 2628 1963 1997 2114 
Q 1366 2266 1113 2400 
Q 784 2572 623 2826 
Q 463 3081 463 3397 
Q 463 3744 659 4045 
Q 856 4347 1234 4503 
Q 1613 4659 2075 4659 
Q 2584 4659 2973 4495 
Q 3363 4331 3572 4012 
Q 3781 3694 3797 3291 
L 3216 3247 
Q 3169 3681 2898 3903 
Q 2628 4125 2100 4125 
Q 1550 4125 1298 3923 
Q 1047 3722 1047 3438 
Q 1047 3191 1225 3031 
Q 1400 2872 2139 2705 
Q 2878 2538 3153 2413 
Q 3553 2228 3743 1945 
Q 3934 1663 3934 1294 
Q 3934 928 3725 604 
Q 3516 281 3123 101 
Q 2731 -78 2241 -78 
Q 1619 -78 1198 103 
Q 778 284 539 648 
Q 300 1013 288 1472 
z
" transform="scale(0.015625)"/>
        <path id="ArialMT-54" d="M 1659 0 
L 1659 4041 
L 150 4041 
L 150 4581 
L 3781 4581 
L 3781 4041 
L 2266 4041 
L 2266 0 
L 1659 0 
z
" transform="scale(0.015625)"/>
       </defs>
       <use xlink:href="#ArialMT-4f"/>
       <use xlink:href="#ArialMT-53" x="77.783203"/>
       <use xlink:href="#ArialMT-54" x="144.482422"/>
      </g>
     </g>
    </g>
    <g id="ytick_4">
     <g id="line2d_7"/>
     <g id="text_4">
      <!-- BALL -->
      <g transform="translate(13.401563 330.157673) scale(0.14 -0.14)">
       <defs>
        <path id="ArialMT-41" d="M -9 0 
L 1750 4581 
L 2403 4581 
L 4278 0 
L 3588 0 
L 3053 1388 
L 1138 1388 
L 634 0 
L -9 0 
z
M 1313 1881 
L 2866 1881 
L 2388 3150 
Q 2169 3728 2063 4100 
Q 1975 3659 1816 3225 
L 1313 1881 
z
" transform="scale(0.015625)"/>
       </defs>
       <use xlink:href="#ArialMT-42"/>
       <use xlink:href="#ArialMT-41" x="66.699219"/>
       <use xlink:href="#ArialMT-4c" x="133.398438"/>
       <use xlink:href="#ArialMT-4c" x="189.013672"/>
      </g>
     </g>
    </g>
    <g id="ytick_5">
     <g id="line2d_8"/>
     <g id="text_5">
      <!-- EWS -->
      <g transform="translate(15.7575 304.499778) scale(0.14 -0.14)">
       <defs>
        <path id="ArialMT-45" d="M 506 0 
L 506 4581 
L 3819 4581 
L 3819 4041 
L 1113 4041 
L 1113 2638 
L 3647 2638 
L 3647 2100 
L 1113 2100 
L 1113 541 
L 3925 541 
L 3925 0 
L 506 0 
z
" transform="scale(0.015625)"/>
        <path id="ArialMT-57" d="M 1294 0 
L 78 4581 
L 700 4581 
L 1397 1578 
Q 1509 1106 1591 641 
Q 1766 1375 1797 1488 
L 2669 4581 
L 3400 4581 
L 4056 2263 
Q 4303 1400 4413 641 
Q 4500 1075 4641 1638 
L 5359 4581 
L 5969 4581 
L 4713 0 
L 4128 0 
L 3163 3491 
Q 3041 3928 3019 4028 
Q 2947 3713 2884 3491 
L 1913 0 
L 1294 0 
z
" transform="scale(0.015625)"/>
       </defs>
       <use xlink:href="#ArialMT-45"/>
       <use xlink:href="#ArialMT-57" x="66.699219"/>
       <use xlink:href="#ArialMT-53" x="161.083984"/>
      </g>
     </g>
    </g>
    <g id="ytick_6">
     <g id="line2d_9"/>
     <g id="text_6">
      <!-- ERMS -->
      <g transform="translate(7.2 278.841883) scale(0.14 -0.14)">
       <defs>
        <path id="ArialMT-52" d="M 503 0 
L 503 4581 
L 2534 4581 
Q 3147 4581 3465 4457 
Q 3784 4334 3975 4021 
Q 4166 3709 4166 3331 
Q 4166 2844 3850 2509 
Q 3534 2175 2875 2084 
Q 3116 1969 3241 1856 
Q 3506 1613 3744 1247 
L 4541 0 
L 3778 0 
L 3172 953 
Q 2906 1366 2734 1584 
Q 2563 1803 2427 1890 
Q 2291 1978 2150 2013 
Q 2047 2034 1813 2034 
L 1109 2034 
L 1109 0 
L 503 0 
z
M 1109 2559 
L 2413 2559 
Q 2828 2559 3062 2645 
Q 3297 2731 3419 2920 
Q 3541 3109 3541 3331 
Q 3541 3656 3305 3865 
Q 3069 4075 2559 4075 
L 1109 4075 
L 1109 2559 
z
" transform="scale(0.015625)"/>
        <path id="ArialMT-4d" d="M 475 0 
L 475 4581 
L 1388 4581 
L 2472 1338 
Q 2622 884 2691 659 
Q 2769 909 2934 1394 
L 4031 4581 
L 4847 4581 
L 4847 0 
L 4263 0 
L 4263 3834 
L 2931 0 
L 2384 0 
L 1059 3900 
L 1059 0 
L 475 0 
z
" transform="scale(0.015625)"/>
       </defs>
       <use xlink:href="#ArialMT-45"/>
       <use xlink:href="#ArialMT-52" x="66.699219"/>
       <use xlink:href="#ArialMT-4d" x="138.916016"/>
       <use xlink:href="#ArialMT-53" x="222.216797"/>
      </g>
     </g>
    </g>
    <g id="ytick_7">
     <g id="line2d_10"/>
     <g id="text_7">
      <!-- DMG -->
      <g transform="translate(14.9875 253.183988) scale(0.14 -0.14)">
       <defs>
        <path id="ArialMT-44" d="M 494 0 
L 494 4581 
L 2072 4581 
Q 2606 4581 2888 4516 
Q 3281 4425 3559 4188 
Q 3922 3881 4101 3404 
Q 4281 2928 4281 2316 
Q 4281 1794 4159 1391 
Q 4038 988 3847 723 
Q 3656 459 3429 307 
Q 3203 156 2883 78 
Q 2563 0 2147 0 
L 494 0 
z
M 1100 541 
L 2078 541 
Q 2531 541 2789 625 
Q 3047 709 3200 863 
Q 3416 1078 3536 1442 
Q 3656 1806 3656 2325 
Q 3656 3044 3420 3430 
Q 3184 3816 2847 3947 
Q 2603 4041 2063 4041 
L 1100 4041 
L 1100 541 
z
" transform="scale(0.015625)"/>
       </defs>
       <use xlink:href="#ArialMT-44"/>
       <use xlink:href="#ArialMT-4d" x="72.216797"/>
       <use xlink:href="#ArialMT-47" x="155.517578"/>
      </g>
     </g>
    </g>
    <g id="ytick_8">
     <g id="line2d_11"/>
     <g id="text_8">
      <!-- ARMS -->
      <g transform="translate(7.2 227.526094) scale(0.14 -0.14)">
       <use xlink:href="#ArialMT-41"/>
       <use xlink:href="#ArialMT-52" x="66.699219"/>
       <use xlink:href="#ArialMT-4d" x="138.916016"/>
       <use xlink:href="#ArialMT-53" x="222.216797"/>
      </g>
     </g>
    </g>
    <g id="ytick_9">
     <g id="line2d_12"/>
     <g id="text_9">
      <!-- WT -->
      <g transform="translate(25.883438 201.868199) scale(0.14 -0.14)">
       <use xlink:href="#ArialMT-57"/>
       <use xlink:href="#ArialMT-54" x="94.384766"/>
      </g>
     </g>
    </g>
    <g id="ytick_10">
     <g id="line2d_13"/>
     <g id="text_10">
      <!-- AML -->
      <g transform="translate(18.86375 176.210304) scale(0.14 -0.14)">
       <use xlink:href="#ArialMT-41"/>
       <use xlink:href="#ArialMT-4d" x="66.699219"/>
       <use xlink:href="#ArialMT-4c" x="150"/>
      </g>
     </g>
    </g>
    <g id="ytick_11">
     <g id="line2d_14"/>
     <g id="text_11">
      <!-- EPD -->
      <g transform="translate(18.861563 150.55241) scale(0.14 -0.14)">
       <defs>
        <path id="ArialMT-50" d="M 494 0 
L 494 4581 
L 2222 4581 
Q 2678 4581 2919 4538 
Q 3256 4481 3484 4323 
Q 3713 4166 3852 3881 
Q 3991 3597 3991 3256 
Q 3991 2672 3619 2267 
Q 3247 1863 2275 1863 
L 1100 1863 
L 1100 0 
L 494 0 
z
M 1100 2403 
L 2284 2403 
Q 2872 2403 3119 2622 
Q 3366 2841 3366 3238 
Q 3366 3525 3220 3729 
Q 3075 3934 2838 4000 
Q 2684 4041 2272 4041 
L 1100 4041 
L 1100 2403 
z
" transform="scale(0.015625)"/>
       </defs>
       <use xlink:href="#ArialMT-45"/>
       <use xlink:href="#ArialMT-50" x="66.699219"/>
       <use xlink:href="#ArialMT-44" x="133.398438"/>
      </g>
     </g>
    </g>
    <g id="ytick_12">
     <g id="line2d_15"/>
     <g id="text_12">
      <!-- US -->
      <g transform="translate(28.2 124.894515) scale(0.14 -0.14)">
       <defs>
        <path id="ArialMT-55" d="M 3500 4581 
L 4106 4581 
L 4106 1934 
Q 4106 1244 3950 837 
Q 3794 431 3386 176 
Q 2978 -78 2316 -78 
Q 1672 -78 1262 144 
Q 853 366 678 786 
Q 503 1206 503 1934 
L 503 4581 
L 1109 4581 
L 1109 1938 
Q 1109 1341 1220 1058 
Q 1331 775 1601 622 
Q 1872 469 2263 469 
Q 2931 469 3215 772 
Q 3500 1075 3500 1938 
L 3500 4581 
z
" transform="scale(0.015625)"/>
       </defs>
       <use xlink:href="#ArialMT-55"/>
       <use xlink:href="#ArialMT-53" x="72.216797"/>
      </g>
     </g>
    </g>
    <g id="ytick_13">
     <g id="line2d_16"/>
     <g id="text_13">
      <!-- MBL -->
      <g transform="translate(18.86375 99.23662) scale(0.14 -0.14)">
       <use xlink:href="#ArialMT-4d"/>
       <use xlink:href="#ArialMT-42" x="83.300781"/>
       <use xlink:href="#ArialMT-4c" x="150"/>
      </g>
     </g>
    </g>
    <g id="ytick_14">
     <g id="line2d_17"/>
     <g id="text_14">
      <!-- MRT -->
      <g transform="translate(17.570938 73.578725) scale(0.14 -0.14)">
       <use xlink:href="#ArialMT-4d"/>
       <use xlink:href="#ArialMT-52" x="83.300781"/>
       <use xlink:href="#ArialMT-54" x="153.767578"/>
      </g>
     </g>
    </g>
    <g id="ytick_15">
     <g id="line2d_18"/>
     <g id="text_15">
      <!-- TALL -->
      <g transform="translate(15.221563 47.920831) scale(0.14 -0.14)">
       <use xlink:href="#ArialMT-54"/>
       <use xlink:href="#ArialMT-41" x="53.708984"/>
       <use xlink:href="#ArialMT-4c" x="120.408203"/>
       <use xlink:href="#ArialMT-4c" x="176.023438"/>
      </g>
     </g>
    </g>
   </g>
   <g id="text_16">
    <!-- 68 -->
    <g transform="translate(112.148743 405.740107) scale(0.14 -0.14)">
     <defs>
      <path id="ArialMT-36" d="M 3184 3459 
L 2625 3416 
Q 2550 3747 2413 3897 
Q 2184 4138 1850 4138 
Q 1581 4138 1378 3988 
Q 1113 3794 959 3422 
Q 806 3050 800 2363 
Q 1003 2672 1297 2822 
Q 1591 2972 1913 2972 
Q 2475 2972 2870 2558 
Q 3266 2144 3266 1488 
Q 3266 1056 3080 686 
Q 2894 316 2569 119 
Q 2244 -78 1831 -78 
Q 1128 -78 684 439 
Q 241 956 241 2144 
Q 241 3472 731 4075 
Q 1159 4600 1884 4600 
Q 2425 4600 2770 4297 
Q 3116 3994 3184 3459 
z
M 888 1484 
Q 888 1194 1011 928 
Q 1134 663 1356 523 
Q 1578 384 1822 384 
Q 2178 384 2434 671 
Q 2691 959 2691 1453 
Q 2691 1928 2437 2201 
Q 2184 2475 1800 2475 
Q 1419 2475 1153 2201 
Q 888 1928 888 1484 
z
" transform="scale(0.015625)"/>
      <path id="ArialMT-38" d="M 1131 2484 
Q 781 2613 612 2850 
Q 444 3088 444 3419 
Q 444 3919 803 4259 
Q 1163 4600 1759 4600 
Q 2359 4600 2725 4251 
Q 3091 3903 3091 3403 
Q 3091 3084 2923 2848 
Q 2756 2613 2416 2484 
Q 2838 2347 3058 2040 
Q 3278 1734 3278 1309 
Q 3278 722 2862 322 
Q 2447 -78 1769 -78 
Q 1091 -78 675 323 
Q 259 725 259 1325 
Q 259 1772 486 2073 
Q 713 2375 1131 2484 
z
M 1019 3438 
Q 1019 3113 1228 2906 
Q 1438 2700 1772 2700 
Q 2097 2700 2305 2904 
Q 2513 3109 2513 3406 
Q 2513 3716 2298 3927 
Q 2084 4138 1766 4138 
Q 1444 4138 1231 3931 
Q 1019 3725 1019 3438 
z
M 838 1322 
Q 838 1081 952 856 
Q 1066 631 1291 507 
Q 1516 384 1775 384 
Q 2178 384 2440 643 
Q 2703 903 2703 1303 
Q 2703 1709 2433 1975 
Q 2163 2241 1756 2241 
Q 1359 2241 1098 1978 
Q 838 1716 838 1322 
z
" transform="scale(0.015625)"/>
     </defs>
     <use xlink:href="#ArialMT-36"/>
     <use xlink:href="#ArialMT-38" x="55.615234"/>
    </g>
   </g>
   <g id="text_17">
    <!-- 19 -->
    <g transform="translate(74.68415 380.082212) scale(0.14 -0.14)">
     <defs>
      <path id="ArialMT-31" d="M 2384 0 
L 1822 0 
L 1822 3584 
Q 1619 3391 1289 3197 
Q 959 3003 697 2906 
L 697 3450 
Q 1169 3672 1522 3987 
Q 1875 4303 2022 4600 
L 2384 4600 
L 2384 0 
z
" transform="scale(0.015625)"/>
      <path id="ArialMT-39" d="M 350 1059 
L 891 1109 
Q 959 728 1153 556 
Q 1347 384 1650 384 
Q 1909 384 2104 503 
Q 2300 622 2425 820 
Q 2550 1019 2634 1356 
Q 2719 1694 2719 2044 
Q 2719 2081 2716 2156 
Q 2547 1888 2255 1720 
Q 1963 1553 1622 1553 
Q 1053 1553 659 1965 
Q 266 2378 266 3053 
Q 266 3750 677 4175 
Q 1088 4600 1706 4600 
Q 2153 4600 2523 4359 
Q 2894 4119 3086 3673 
Q 3278 3228 3278 2384 
Q 3278 1506 3087 986 
Q 2897 466 2520 194 
Q 2144 -78 1638 -78 
Q 1100 -78 759 220 
Q 419 519 350 1059 
z
M 2653 3081 
Q 2653 3566 2395 3850 
Q 2138 4134 1775 4134 
Q 1400 4134 1122 3828 
Q 844 3522 844 3034 
Q 844 2597 1108 2323 
Q 1372 2050 1759 2050 
Q 2150 2050 2401 2323 
Q 2653 2597 2653 3081 
z
" transform="scale(0.015625)"/>
     </defs>
     <use xlink:href="#ArialMT-31"/>
     <use xlink:href="#ArialMT-39" x="55.615234"/>
    </g>
   </g>
   <g id="text_18">
    <!-- 32 -->
    <g transform="translate(108.102567 354.424317) scale(0.14 -0.14)">
     <defs>
      <path id="ArialMT-33" d="M 269 1209 
L 831 1284 
Q 928 806 1161 595 
Q 1394 384 1728 384 
Q 2125 384 2398 659 
Q 2672 934 2672 1341 
Q 2672 1728 2419 1979 
Q 2166 2231 1775 2231 
Q 1616 2231 1378 2169 
L 1441 2663 
Q 1497 2656 1531 2656 
Q 1891 2656 2178 2843 
Q 2466 3031 2466 3422 
Q 2466 3731 2256 3934 
Q 2047 4138 1716 4138 
Q 1388 4138 1169 3931 
Q 950 3725 888 3313 
L 325 3413 
Q 428 3978 793 4289 
Q 1159 4600 1703 4600 
Q 2078 4600 2393 4439 
Q 2709 4278 2876 4000 
Q 3044 3722 3044 3409 
Q 3044 3113 2884 2869 
Q 2725 2625 2413 2481 
Q 2819 2388 3044 2092 
Q 3269 1797 3269 1353 
Q 3269 753 2831 336 
Q 2394 -81 1725 -81 
Q 1122 -81 723 278 
Q 325 638 269 1209 
z
" transform="scale(0.015625)"/>
      <path id="ArialMT-32" d="M 3222 541 
L 3222 0 
L 194 0 
Q 188 203 259 391 
Q 375 700 629 1000 
Q 884 1300 1366 1694 
Q 2113 2306 2375 2664 
Q 2638 3022 2638 3341 
Q 2638 3675 2398 3904 
Q 2159 4134 1775 4134 
Q 1369 4134 1125 3890 
Q 881 3647 878 3216 
L 300 3275 
Q 359 3922 746 4261 
Q 1134 4600 1788 4600 
Q 2447 4600 2831 4234 
Q 3216 3869 3216 3328 
Q 3216 3053 3103 2787 
Q 2991 2522 2730 2228 
Q 2469 1934 1863 1422 
Q 1356 997 1212 845 
Q 1069 694 975 541 
L 3222 541 
z
" transform="scale(0.015625)"/>
     </defs>
     <use xlink:href="#ArialMT-33"/>
     <use xlink:href="#ArialMT-32" x="55.615234"/>
    </g>
   </g>
   <g id="text_19">
    <!-- 20 -->
    <g transform="translate(95.726028 328.766423) scale(0.14 -0.14)">
     <defs>
      <path id="ArialMT-30" d="M 266 2259 
Q 266 3072 433 3567 
Q 600 4063 929 4331 
Q 1259 4600 1759 4600 
Q 2128 4600 2406 4451 
Q 2684 4303 2865 4023 
Q 3047 3744 3150 3342 
Q 3253 2941 3253 2259 
Q 3253 1453 3087 958 
Q 2922 463 2592 192 
Q 2263 -78 1759 -78 
Q 1097 -78 719 397 
Q 266 969 266 2259 
z
M 844 2259 
Q 844 1131 1108 757 
Q 1372 384 1759 384 
Q 2147 384 2411 759 
Q 2675 1134 2675 2259 
Q 2675 3391 2411 3762 
Q 2147 4134 1753 4134 
Q 1366 4134 1134 3806 
Q 844 3388 844 2259 
z
" transform="scale(0.015625)"/>
     </defs>
     <use xlink:href="#ArialMT-32"/>
     <use xlink:href="#ArialMT-30" x="55.615234"/>
    </g>
   </g>
   <g id="text_20">
    <!-- 20 -->
    <g transform="translate(102.707665 303.108528) scale(0.14 -0.14)">
     <use xlink:href="#ArialMT-32"/>
     <use xlink:href="#ArialMT-30" x="55.615234"/>
    </g>
   </g>
   <g id="text_21">
    <!-- 12 -->
    <g transform="translate(84.447999 277.450633) scale(0.14 -0.14)">
     <use xlink:href="#ArialMT-31"/>
     <use xlink:href="#ArialMT-32" x="55.615234"/>
    </g>
   </g>
   <g id="text_22">
    <!-- 20 -->
    <g transform="translate(128.140772 226.134844) scale(0.14 -0.14)">
     <use xlink:href="#ArialMT-32"/>
     <use xlink:href="#ArialMT-30" x="55.615234"/>
    </g>
   </g>
   <g id="text_23">
    <!-- 11 -->
    <g transform="translate(98.278589 200.476949) scale(0.14 -0.14)">
     <use xlink:href="#ArialMT-31"/>
     <use xlink:href="#ArialMT-31" x="48.240234"/>
    </g>
   </g>
   <g id="text_24">
    <!-- 8 -->
    <g transform="translate(89.146229 174.819054) scale(0.14 -0.14)">
     <use xlink:href="#ArialMT-38"/>
    </g>
   </g>
   <g id="text_25">
    <!-- 15 -->
    <g transform="translate(121.907167 149.16116) scale(0.14 -0.14)">
     <defs>
      <path id="ArialMT-35" d="M 266 1200 
L 856 1250 
Q 922 819 1161 601 
Q 1400 384 1738 384 
Q 2144 384 2425 690 
Q 2706 997 2706 1503 
Q 2706 1984 2436 2262 
Q 2166 2541 1728 2541 
Q 1456 2541 1237 2417 
Q 1019 2294 894 2097 
L 366 2166 
L 809 4519 
L 3088 4519 
L 3088 3981 
L 1259 3981 
L 1013 2750 
Q 1425 3038 1878 3038 
Q 2478 3038 2890 2622 
Q 3303 2206 3303 1553 
Q 3303 931 2941 478 
Q 2500 -78 1738 -78 
Q 1113 -78 717 272 
Q 322 622 266 1200 
z
" transform="scale(0.015625)"/>
     </defs>
     <use xlink:href="#ArialMT-31"/>
     <use xlink:href="#ArialMT-35" x="55.615234"/>
    </g>
   </g>
   <g id="text_26">
    <!-- 12 -->
    <g transform="translate(110.125655 123.503265) scale(0.14 -0.14)">
     <use xlink:href="#ArialMT-31"/>
     <use xlink:href="#ArialMT-32" x="55.615234"/>
    </g>
   </g>
   <g id="text_27">
    <!-- 7 -->
    <g transform="translate(91.764343 97.84537) scale(0.14 -0.14)">
     <defs>
      <path id="ArialMT-37" d="M 303 3981 
L 303 4522 
L 3269 4522 
L 3269 4084 
Q 2831 3619 2401 2847 
Q 1972 2075 1738 1259 
Q 1569 684 1522 0 
L 944 0 
Q 953 541 1156 1306 
Q 1359 2072 1739 2783 
Q 2119 3494 2547 3981 
L 303 3981 
z
" transform="scale(0.015625)"/>
     </defs>
     <use xlink:href="#ArialMT-37"/>
    </g>
   </g>
   <g id="text_28">
    <!-- 12 -->
    <g transform="translate(125.532248 72.187475) scale(0.14 -0.14)">
     <use xlink:href="#ArialMT-31"/>
     <use xlink:href="#ArialMT-32" x="55.615234"/>
    </g>
   </g>
   <g id="text_29">
    <!-- 5 -->
    <g transform="translate(91.764343 46.529581) scale(0.14 -0.14)">
     <use xlink:href="#ArialMT-35"/>
    </g>
   </g>
   <g id="text_30">
    <!-- 19 -->
    <g transform="translate(200.153072 405.740107) scale(0.14 -0.14)">
     <use xlink:href="#ArialMT-31"/>
     <use xlink:href="#ArialMT-39" x="55.615234"/>
    </g>
   </g>
   <g id="text_31">
    <!-- 14 -->
    <g transform="translate(129.082739 380.082212) scale(0.14 -0.14)">
     <defs>
      <path id="ArialMT-34" d="M 2069 0 
L 2069 1097 
L 81 1097 
L 81 1613 
L 2172 4581 
L 2631 4581 
L 2631 1613 
L 3250 1613 
L 3250 1097 
L 2631 1097 
L 2631 0 
L 2069 0 
z
M 2069 1613 
L 2069 3678 
L 634 1613 
L 2069 1613 
z
" transform="scale(0.015625)"/>
     </defs>
     <use xlink:href="#ArialMT-31"/>
     <use xlink:href="#ArialMT-34" x="55.615234"/>
    </g>
   </g>
   <g id="text_32">
    <!-- 11 -->
    <g transform="translate(195.611602 354.424317) scale(0.14 -0.14)">
     <use xlink:href="#ArialMT-31"/>
     <use xlink:href="#ArialMT-31" x="48.240234"/>
    </g>
   </g>
   <g id="text_33">
    <!-- 7 -->
    <g transform="translate(170.30776 328.766423) scale(0.14 -0.14)">
     <use xlink:href="#ArialMT-37"/>
    </g>
   </g>
   <g id="text_34">
    <!-- 8 -->
    <g transform="translate(189.681803 303.108528) scale(0.14 -0.14)">
     <use xlink:href="#ArialMT-38"/>
    </g>
   </g>
   <g id="text_35">
    <!-- 8 -->
    <g transform="translate(156.814404 277.450633) scale(0.14 -0.14)">
     <use xlink:href="#ArialMT-38"/>
    </g>
   </g>
   <g id="text_36">
    <!-- 6 -->
    <g transform="translate(67.798531 251.792738) scale(0.14 -0.14)">
     <use xlink:href="#ArialMT-36"/>
    </g>
   </g>
   <g id="text_37">
    <!-- 1 -->
    <g transform="translate(221.049301 226.134844) scale(0.14 -0.14)">
     <use xlink:href="#ArialMT-31"/>
    </g>
   </g>
   <g id="text_38">
    <!-- 6 -->
    <g transform="translate(185.725542 200.476949) scale(0.14 -0.14)">
     <use xlink:href="#ArialMT-36"/>
    </g>
   </g>
   <g id="text_39">
    <!-- 2 -->
    <g transform="translate(141.508507 174.819054) scale(0.14 -0.14)">
     <use xlink:href="#ArialMT-32"/>
    </g>
   </g>
   <g id="text_40">
    <!-- 2 -->
    <g transform="translate(214.815697 149.16116) scale(0.14 -0.14)">
     <use xlink:href="#ArialMT-32"/>
    </g>
   </g>
   <g id="text_41">
    <!-- 1 -->
    <g transform="translate(186.343708 123.503265) scale(0.14 -0.14)">
     <use xlink:href="#ArialMT-31"/>
    </g>
   </g>
   <g id="text_42">
    <!-- 3 -->
    <g transform="translate(155.347109 97.84537) scale(0.14 -0.14)">
     <use xlink:href="#ArialMT-33"/>
    </g>
   </g>
   <g id="text_43">
    <!-- 1 -->
    <g transform="translate(218.440777 72.187475) scale(0.14 -0.14)">
     <use xlink:href="#ArialMT-31"/>
    </g>
   </g>
   <g id="text_44">
    <!-- 3 -->
    <g transform="translate(162.977041 46.529581) scale(0.14 -0.14)">
     <use xlink:href="#ArialMT-33"/>
    </g>
   </g>
   <g id="text_45">
    <!-- 1 -->
    <g transform="translate(224.276608 405.740107) scale(0.14 -0.14)">
     <use xlink:href="#ArialMT-31"/>
    </g>
   </g>
   <g id="text_46">
    <!-- 21 -->
    <g transform="translate(186.778212 380.082212) scale(0.14 -0.14)">
     <use xlink:href="#ArialMT-32"/>
     <use xlink:href="#ArialMT-31" x="55.615234"/>
    </g>
   </g>
   <g id="text_47">
    <!-- 1 -->
    <g transform="translate(223.265064 354.424317) scale(0.14 -0.14)">
     <use xlink:href="#ArialMT-31"/>
    </g>
   </g>
   <g id="text_48">
    <!-- 7 -->
    <g transform="translate(206.961355 328.766423) scale(0.14 -0.14)">
     <use xlink:href="#ArialMT-37"/>
    </g>
   </g>
   <g id="text_49">
    <!-- 2 -->
    <g transform="translate(219.353761 303.108528) scale(0.14 -0.14)">
     <use xlink:href="#ArialMT-32"/>
    </g>
   </g>
   <g id="text_50">
    <!-- 6 -->
    <g transform="translate(204.746028 277.450633) scale(0.14 -0.14)">
     <use xlink:href="#ArialMT-36"/>
    </g>
   </g>
   <g id="text_51">
    <!-- 20 -->
    <g transform="translate(152.921748 251.792738) scale(0.14 -0.14)">
     <use xlink:href="#ArialMT-32"/>
     <use xlink:href="#ArialMT-30" x="55.615234"/>
    </g>
   </g>
   <g id="text_52">
    <!-- 1 -->
    <g transform="translate(220.342826 200.476949) scale(0.14 -0.14)">
     <use xlink:href="#ArialMT-31"/>
    </g>
   </g>
   <g id="text_53">
    <!-- 7 -->
    <g transform="translate(188.634558 174.819054) scale(0.14 -0.14)">
     <use xlink:href="#ArialMT-37"/>
    </g>
   </g>
   <g id="text_54">
    <!-- 3 -->
    <g transform="translate(208.597676 123.503265) scale(0.14 -0.14)">
     <use xlink:href="#ArialMT-33"/>
    </g>
   </g>
   <g id="text_55">
    <!-- 4 -->
    <g transform="translate(199.855046 97.84537) scale(0.14 -0.14)">
     <use xlink:href="#ArialMT-34"/>
    </g>
   </g>
   <g id="text_56">
    <!-- 2 -->
    <g transform="translate(207.484978 46.529581) scale(0.14 -0.14)">
     <use xlink:href="#ArialMT-32"/>
    </g>
   </g>
   <g id="text_57">
    <!-- All -->
    <g transform="translate(133.501667 21.515625) scale(0.2 -0.2)">
     <defs>
      <path id="ArialMT-6c" d="M 409 0 
L 409 4581 
L 972 4581 
L 972 0 
L 409 0 
z
" transform="scale(0.015625)"/>
     </defs>
     <use xlink:href="#ArialMT-41"/>
     <use xlink:href="#ArialMT-6c" x="66.699219"/>
     <use xlink:href="#ArialMT-6c" x="88.916016"/>
    </g>
   </g>
  </g>
  <g id="axes_2">
   <g id="patch_48">
    <path d="M 248.882396 417.515625 
L 435.815729 417.515625 
L 435.815729 27.515625 
L 248.882396 27.515625 
L 248.882396 417.515625 
z
" style="fill: none"/>
   </g>
   <g id="patch_49">
    <path d="M 248.882396 411.101151 
L 360.152237 411.101151 
L 360.152237 393.140625 
L 248.882396 393.140625 
z
" clip-path="url(#p22a23cc38a)" style="fill: #dadaeb"/>
   </g>
   <g id="patch_50">
    <path d="M 248.882396 385.443257 
L 302.83141 385.443257 
L 302.83141 367.48273 
L 248.882396 367.48273 
z
" clip-path="url(#p22a23cc38a)" style="fill: #dadaeb"/>
   </g>
   <g id="patch_51">
    <path d="M 248.882396 359.785362 
L 391.307793 359.785362 
L 391.307793 341.824836 
L 248.882396 341.824836 
z
" clip-path="url(#p22a23cc38a)" style="fill: #dadaeb"/>
   </g>
   <g id="patch_52">
    <path d="M 248.882396 334.127467 
L 344.745644 334.127467 
L 344.745644 316.166941 
L 248.882396 316.166941 
z
" clip-path="url(#p22a23cc38a)" style="fill: #dadaeb"/>
   </g>
   <g id="patch_53">
    <path d="M 248.882396 308.469572 
L 362.175325 308.469572 
L 362.175325 290.509046 
L 248.882396 290.509046 
z
" clip-path="url(#p22a23cc38a)" style="fill: #dadaeb"/>
   </g>
   <g id="patch_54">
    <path d="M 248.882396 282.811678 
L 328.007616 282.811678 
L 328.007616 264.851151 
L 248.882396 264.851151 
z
" clip-path="url(#p22a23cc38a)" style="fill: #dadaeb"/>
   </g>
   <g id="patch_55">
    <path d="M 248.882396 257.153783 
L 248.882396 257.153783 
L 248.882396 239.193257 
L 248.882396 239.193257 
z
" clip-path="url(#p22a23cc38a)" style="fill: #dadaeb"/>
   </g>
   <g id="patch_56">
    <path d="M 248.882396 231.495888 
L 401.481035 231.495888 
L 401.481035 213.535362 
L 248.882396 213.535362 
z
" clip-path="url(#p22a23cc38a)" style="fill: #dadaeb"/>
   </g>
   <g id="patch_57">
    <path d="M 248.882396 205.837993 
L 248.882396 205.837993 
L 248.882396 187.877467 
L 248.882396 187.877467 
z
" clip-path="url(#p22a23cc38a)" style="fill: #dadaeb"/>
   </g>
   <g id="patch_58">
    <path d="M 248.882396 180.180099 
L 325.181716 180.180099 
L 325.181716 162.219572 
L 248.882396 162.219572 
z
" clip-path="url(#p22a23cc38a)" style="fill: #dadaeb"/>
   </g>
   <g id="patch_59">
    <path d="M 248.882396 154.522204 
L 391.307793 154.522204 
L 391.307793 136.561678 
L 248.882396 136.561678 
z
" clip-path="url(#p22a23cc38a)" style="fill: #dadaeb"/>
   </g>
   <g id="patch_60">
    <path d="M 248.882396 128.864309 
L 391.307793 128.864309 
L 391.307793 110.903783 
L 248.882396 110.903783 
z
" clip-path="url(#p22a23cc38a)" style="fill: #dadaeb"/>
   </g>
   <g id="patch_61">
    <path d="M 248.882396 103.206414 
L 382.406205 103.206414 
L 382.406205 85.245888 
L 248.882396 85.245888 
z
" clip-path="url(#p22a23cc38a)" style="fill: #dadaeb"/>
   </g>
   <g id="patch_62">
    <path d="M 248.882396 77.54852 
L 401.481035 77.54852 
L 401.481035 59.587993 
L 248.882396 59.587993 
z
" clip-path="url(#p22a23cc38a)" style="fill: #dadaeb"/>
   </g>
   <g id="patch_63">
    <path d="M 248.882396 51.890625 
L 382.406205 51.890625 
L 382.406205 33.930099 
L 248.882396 33.930099 
z
" clip-path="url(#p22a23cc38a)" style="fill: #dadaeb"/>
   </g>
   <g id="patch_64">
    <path d="M 360.152237 411.101151 
L 426.914142 411.101151 
L 426.914142 393.140625 
L 360.152237 393.140625 
z
" clip-path="url(#p22a23cc38a)" style="fill: #bcbddc"/>
   </g>
   <g id="patch_65">
    <path d="M 302.83141 385.443257 
L 335.200818 385.443257 
L 335.200818 367.48273 
L 302.83141 367.48273 
z
" clip-path="url(#p22a23cc38a)" style="fill: #bcbddc"/>
   </g>
   <g id="patch_66">
    <path d="M 391.307793 359.785362 
L 426.914142 359.785362 
L 426.914142 341.824836 
L 391.307793 341.824836 
z
" clip-path="url(#p22a23cc38a)" style="fill: #bcbddc"/>
   </g>
   <g id="patch_67">
    <path d="M 344.745644 334.127467 
L 385.829893 334.127467 
L 385.829893 316.166941 
L 344.745644 316.166941 
z
" clip-path="url(#p22a23cc38a)" style="fill: #bcbddc"/>
   </g>
   <g id="patch_68">
    <path d="M 362.175325 308.469572 
L 410.729438 308.469572 
L 410.729438 290.509046 
L 362.175325 290.509046 
z
" clip-path="url(#p22a23cc38a)" style="fill: #bcbddc"/>
   </g>
   <g id="patch_69">
    <path d="M 328.007616 282.811678 
L 407.132837 282.811678 
L 407.132837 264.851151 
L 328.007616 264.851151 
z
" clip-path="url(#p22a23cc38a)" style="fill: #bcbddc"/>
   </g>
   <g id="patch_70">
    <path d="M 248.882396 257.153783 
L 293.390332 257.153783 
L 293.390332 239.193257 
L 248.882396 239.193257 
z
" clip-path="url(#p22a23cc38a)" style="fill: #bcbddc"/>
   </g>
   <g id="patch_71">
    <path d="M 401.481035 231.495888 
L 426.914142 231.495888 
L 426.914142 213.535362 
L 401.481035 213.535362 
z
" clip-path="url(#p22a23cc38a)" style="fill: #bcbddc"/>
   </g>
   <g id="patch_72">
    <path d="M 248.882396 205.837993 
L 426.914142 205.837993 
L 426.914142 187.877467 
L 248.882396 187.877467 
z
" clip-path="url(#p22a23cc38a)" style="fill: #bcbddc"/>
   </g>
   <g id="patch_73">
    <path d="M 325.181716 180.180099 
L 350.614822 180.180099 
L 350.614822 162.219572 
L 325.181716 162.219572 
z
" clip-path="url(#p22a23cc38a)" style="fill: #bcbddc"/>
   </g>
   <g id="patch_74">
    <path d="M 391.307793 154.522204 
L 426.914142 154.522204 
L 426.914142 136.561678 
L 391.307793 136.561678 
z
" clip-path="url(#p22a23cc38a)" style="fill: #bcbddc"/>
   </g>
   <g id="patch_75">
    <path d="M 391.307793 128.864309 
L 409.110967 128.864309 
L 409.110967 110.903783 
L 391.307793 110.903783 
z
" clip-path="url(#p22a23cc38a)" style="fill: #bcbddc"/>
   </g>
   <g id="patch_76">
    <path d="M 248.882396 103.206414 
L 248.882396 103.206414 
L 248.882396 85.245888 
L 248.882396 85.245888 
z
" clip-path="url(#p22a23cc38a)" style="fill: #bcbddc"/>
   </g>
   <g id="patch_77">
    <path d="M 401.481035 77.54852 
L 426.914142 77.54852 
L 426.914142 59.587993 
L 401.481035 59.587993 
z
" clip-path="url(#p22a23cc38a)" style="fill: #bcbddc"/>
   </g>
   <g id="patch_78">
    <path d="M 382.406205 51.890625 
L 426.914142 51.890625 
L 426.914142 33.930099 
L 382.406205 33.930099 
z
" clip-path="url(#p22a23cc38a)" style="fill: #bcbddc"/>
   </g>
   <g id="patch_79">
    <path d="M 248.882396 411.101151 
L 248.882396 411.101151 
L 248.882396 393.140625 
L 248.882396 393.140625 
z
" clip-path="url(#p22a23cc38a)" style="fill: #9e9ac8"/>
   </g>
   <g id="patch_80">
    <path d="M 335.200818 385.443257 
L 426.914142 385.443257 
L 426.914142 367.48273 
L 335.200818 367.48273 
z
" clip-path="url(#p22a23cc38a)" style="fill: #9e9ac8"/>
   </g>
   <g id="patch_81">
    <path d="M 248.882396 359.785362 
L 248.882396 359.785362 
L 248.882396 341.824836 
L 248.882396 341.824836 
z
" clip-path="url(#p22a23cc38a)" style="fill: #9e9ac8"/>
   </g>
   <g id="patch_82">
    <path d="M 385.829893 334.127467 
L 426.914142 334.127467 
L 426.914142 316.166941 
L 385.829893 316.166941 
z
" clip-path="url(#p22a23cc38a)" style="fill: #9e9ac8"/>
   </g>
   <g id="patch_83">
    <path d="M 410.729438 308.469572 
L 426.914142 308.469572 
L 426.914142 290.509046 
L 410.729438 290.509046 
z
" clip-path="url(#p22a23cc38a)" style="fill: #9e9ac8"/>
   </g>
   <g id="patch_84">
    <path d="M 407.132837 282.811678 
L 426.914142 282.811678 
L 426.914142 264.851151 
L 407.132837 264.851151 
z
" clip-path="url(#p22a23cc38a)" style="fill: #9e9ac8"/>
   </g>
   <g id="patch_85">
    <path d="M 293.390332 257.153783 
L 426.914142 257.153783 
L 426.914142 239.193257 
L 293.390332 239.193257 
z
" clip-path="url(#p22a23cc38a)" style="fill: #9e9ac8"/>
   </g>
   <g id="patch_86">
    <path d="M 248.882396 231.495888 
L 248.882396 231.495888 
L 248.882396 213.535362 
L 248.882396 213.535362 
z
" clip-path="url(#p22a23cc38a)" style="fill: #9e9ac8"/>
   </g>
   <g id="patch_87">
    <path d="M 248.882396 205.837993 
L 248.882396 205.837993 
L 248.882396 187.877467 
L 248.882396 187.877467 
z
" clip-path="url(#p22a23cc38a)" style="fill: #9e9ac8"/>
   </g>
   <g id="patch_88">
    <path d="M 350.614822 180.180099 
L 426.914142 180.180099 
L 426.914142 162.219572 
L 350.614822 162.219572 
z
" clip-path="url(#p22a23cc38a)" style="fill: #9e9ac8"/>
   </g>
   <g id="patch_89">
    <path d="M 248.882396 154.522204 
L 248.882396 154.522204 
L 248.882396 136.561678 
L 248.882396 136.561678 
z
" clip-path="url(#p22a23cc38a)" style="fill: #9e9ac8"/>
   </g>
   <g id="patch_90">
    <path d="M 409.110967 128.864309 
L 426.914142 128.864309 
L 426.914142 110.903783 
L 409.110967 110.903783 
z
" clip-path="url(#p22a23cc38a)" style="fill: #9e9ac8"/>
   </g>
   <g id="patch_91">
    <path d="M 382.406205 103.206414 
L 426.914142 103.206414 
L 426.914142 85.245888 
L 382.406205 85.245888 
z
" clip-path="url(#p22a23cc38a)" style="fill: #9e9ac8"/>
   </g>
   <g id="patch_92">
    <path d="M 248.882396 77.54852 
L 248.882396 77.54852 
L 248.882396 59.587993 
L 248.882396 59.587993 
z
" clip-path="url(#p22a23cc38a)" style="fill: #9e9ac8"/>
   </g>
   <g id="patch_93">
    <path d="M 248.882396 51.890625 
L 248.882396 51.890625 
L 248.882396 33.930099 
L 248.882396 33.930099 
z
" clip-path="url(#p22a23cc38a)" style="fill: #9e9ac8"/>
   </g>
   <g id="matplotlib.axis_3">
    <g id="xtick_4">
     <g id="line2d_19"/>
    </g>
    <g id="xtick_5">
     <g id="line2d_20"/>
    </g>
    <g id="xtick_6">
     <g id="line2d_21"/>
    </g>
    <g id="xtick_7">
     <g id="line2d_22"/>
    </g>
    <g id="xtick_8">
     <g id="line2d_23"/>
    </g>
    <g id="xtick_9">
     <g id="line2d_24"/>
    </g>
   </g>
   <g id="matplotlib.axis_4">
    <g id="ytick_16">
     <g id="line2d_25"/>
    </g>
    <g id="ytick_17">
     <g id="line2d_26"/>
    </g>
    <g id="ytick_18">
     <g id="line2d_27"/>
    </g>
    <g id="ytick_19">
     <g id="line2d_28"/>
    </g>
    <g id="ytick_20">
     <g id="line2d_29"/>
    </g>
    <g id="ytick_21">
     <g id="line2d_30"/>
    </g>
    <g id="ytick_22">
     <g id="line2d_31"/>
    </g>
    <g id="ytick_23">
     <g id="line2d_32"/>
    </g>
    <g id="ytick_24">
     <g id="line2d_33"/>
    </g>
    <g id="ytick_25">
     <g id="line2d_34"/>
    </g>
    <g id="ytick_26">
     <g id="line2d_35"/>
    </g>
    <g id="ytick_27">
     <g id="line2d_36"/>
    </g>
    <g id="ytick_28">
     <g id="line2d_37"/>
    </g>
    <g id="ytick_29">
     <g id="line2d_38"/>
    </g>
    <g id="ytick_30">
     <g id="line2d_39"/>
    </g>
   </g>
   <g id="text_58">
    <!-- 5 -->
    <g transform="translate(300.62466 405.740107) scale(0.14 -0.14)">
     <use xlink:href="#ArialMT-35"/>
    </g>
   </g>
   <g id="text_59">
    <!-- 10 -->
    <g transform="translate(268.07159 380.082212) scale(0.14 -0.14)">
     <use xlink:href="#ArialMT-31"/>
     <use xlink:href="#ArialMT-30" x="55.615234"/>
    </g>
   </g>
   <g id="text_60">
    <!-- 8 -->
    <g transform="translate(316.202438 354.424317) scale(0.14 -0.14)">
     <use xlink:href="#ArialMT-38"/>
    </g>
   </g>
   <g id="text_61">
    <!-- 7 -->
    <g transform="translate(292.921364 328.766423) scale(0.14 -0.14)">
     <use xlink:href="#ArialMT-37"/>
    </g>
   </g>
   <g id="text_62">
    <!-- 7 -->
    <g transform="translate(301.636204 303.108528) scale(0.14 -0.14)">
     <use xlink:href="#ArialMT-37"/>
    </g>
   </g>
   <g id="text_63">
    <!-- 4 -->
    <g transform="translate(284.55235 277.450633) scale(0.14 -0.14)">
     <use xlink:href="#ArialMT-34"/>
    </g>
   </g>
   <g id="text_64">
    <!-- 6 -->
    <g transform="translate(321.289059 226.134844) scale(0.14 -0.14)">
     <use xlink:href="#ArialMT-36"/>
    </g>
   </g>
   <g id="text_65">
    <!-- 3 -->
    <g transform="translate(283.139399 174.819054) scale(0.14 -0.14)">
     <use xlink:href="#ArialMT-33"/>
    </g>
   </g>
   <g id="text_66">
    <!-- 4 -->
    <g transform="translate(316.202438 149.16116) scale(0.14 -0.14)">
     <use xlink:href="#ArialMT-34"/>
    </g>
   </g>
   <g id="text_67">
    <!-- 8 -->
    <g transform="translate(316.202438 123.503265) scale(0.14 -0.14)">
     <use xlink:href="#ArialMT-38"/>
    </g>
   </g>
   <g id="text_68">
    <!-- 3 -->
    <g transform="translate(311.751644 97.84537) scale(0.14 -0.14)">
     <use xlink:href="#ArialMT-33"/>
    </g>
   </g>
   <g id="text_69">
    <!-- 6 -->
    <g transform="translate(321.289059 72.187475) scale(0.14 -0.14)">
     <use xlink:href="#ArialMT-36"/>
    </g>
   </g>
   <g id="text_70">
    <!-- 3 -->
    <g transform="translate(311.751644 46.529581) scale(0.14 -0.14)">
     <use xlink:href="#ArialMT-33"/>
    </g>
   </g>
   <g id="text_71">
    <!-- 3 -->
    <g transform="translate(389.640533 405.740107) scale(0.14 -0.14)">
     <use xlink:href="#ArialMT-33"/>
    </g>
   </g>
   <g id="text_72">
    <!-- 6 -->
    <g transform="translate(315.123458 380.082212) scale(0.14 -0.14)">
     <use xlink:href="#ArialMT-36"/>
    </g>
   </g>
   <g id="text_73">
    <!-- 2 -->
    <g transform="translate(405.218311 354.424317) scale(0.14 -0.14)">
     <use xlink:href="#ArialMT-32"/>
    </g>
   </g>
   <g id="text_74">
    <!-- 3 -->
    <g transform="translate(361.395112 328.766423) scale(0.14 -0.14)">
     <use xlink:href="#ArialMT-33"/>
    </g>
   </g>
   <g id="text_75">
    <!-- 3 -->
    <g transform="translate(382.559725 303.108528) scale(0.14 -0.14)">
     <use xlink:href="#ArialMT-33"/>
    </g>
   </g>
   <g id="text_76">
    <!-- 4 -->
    <g transform="translate(363.67757 277.450633) scale(0.14 -0.14)">
     <use xlink:href="#ArialMT-34"/>
    </g>
   </g>
   <g id="text_77">
    <!-- 6 -->
    <g transform="translate(267.243708 251.792738) scale(0.14 -0.14)">
     <use xlink:href="#ArialMT-36"/>
    </g>
   </g>
   <g id="text_78">
    <!-- 1 -->
    <g transform="translate(410.304932 226.134844) scale(0.14 -0.14)">
     <use xlink:href="#ArialMT-31"/>
    </g>
   </g>
   <g id="text_79">
    <!-- 1 -->
    <g transform="translate(334.005613 200.476949) scale(0.14 -0.14)">
     <use xlink:href="#ArialMT-31"/>
    </g>
   </g>
   <g id="text_80">
    <!-- 1 -->
    <g transform="translate(334.005613 174.819054) scale(0.14 -0.14)">
     <use xlink:href="#ArialMT-31"/>
    </g>
   </g>
   <g id="text_81">
    <!-- 1 -->
    <g transform="translate(405.218311 149.16116) scale(0.14 -0.14)">
     <use xlink:href="#ArialMT-31"/>
    </g>
   </g>
   <g id="text_82">
    <!-- 1 -->
    <g transform="translate(396.316724 123.503265) scale(0.14 -0.14)">
     <use xlink:href="#ArialMT-31"/>
    </g>
   </g>
   <g id="text_83">
    <!-- 1 -->
    <g transform="translate(410.304932 72.187475) scale(0.14 -0.14)">
     <use xlink:href="#ArialMT-31"/>
    </g>
   </g>
   <g id="text_84">
    <!-- 1 -->
    <g transform="translate(400.767517 46.529581) scale(0.14 -0.14)">
     <use xlink:href="#ArialMT-31"/>
    </g>
   </g>
   <g id="text_85">
    <!-- 17 -->
    <g transform="translate(373.272168 380.082212) scale(0.14 -0.14)">
     <use xlink:href="#ArialMT-31"/>
     <use xlink:href="#ArialMT-37" x="55.615234"/>
    </g>
   </g>
   <g id="text_86">
    <!-- 3 -->
    <g transform="translate(402.479361 328.766423) scale(0.14 -0.14)">
     <use xlink:href="#ArialMT-33"/>
    </g>
   </g>
   <g id="text_87">
    <!-- 1 -->
    <g transform="translate(414.929134 303.108528) scale(0.14 -0.14)">
     <use xlink:href="#ArialMT-31"/>
    </g>
   </g>
   <g id="text_88">
    <!-- 1 -->
    <g transform="translate(413.130833 277.450633) scale(0.14 -0.14)">
     <use xlink:href="#ArialMT-31"/>
    </g>
   </g>
   <g id="text_89">
    <!-- 18 -->
    <g transform="translate(352.366925 251.792738) scale(0.14 -0.14)">
     <use xlink:href="#ArialMT-31"/>
     <use xlink:href="#ArialMT-38" x="55.615234"/>
    </g>
   </g>
   <g id="text_90">
    <!-- 3 -->
    <g transform="translate(384.871826 174.819054) scale(0.14 -0.14)">
     <use xlink:href="#ArialMT-33"/>
    </g>
   </g>
   <g id="text_91">
    <!-- 1 -->
    <g transform="translate(414.119898 123.503265) scale(0.14 -0.14)">
     <use xlink:href="#ArialMT-31"/>
    </g>
   </g>
   <g id="text_92">
    <!-- 1 -->
    <g transform="translate(400.767517 97.84537) scale(0.14 -0.14)">
     <use xlink:href="#ArialMT-31"/>
    </g>
   </g>
   <g id="text_93">
    <!-- Primary-Naive -->
    <g transform="translate(279.011562 21.515625) scale(0.2 -0.2)">
     <defs>
      <path id="ArialMT-72" d="M 416 0 
L 416 3319 
L 922 3319 
L 922 2816 
Q 1116 3169 1280 3281 
Q 1444 3394 1641 3394 
Q 1925 3394 2219 3213 
L 2025 2691 
Q 1819 2813 1613 2813 
Q 1428 2813 1281 2702 
Q 1134 2591 1072 2394 
Q 978 2094 978 1738 
L 978 0 
L 416 0 
z
" transform="scale(0.015625)"/>
      <path id="ArialMT-69" d="M 425 3934 
L 425 4581 
L 988 4581 
L 988 3934 
L 425 3934 
z
M 425 0 
L 425 3319 
L 988 3319 
L 988 0 
L 425 0 
z
" transform="scale(0.015625)"/>
      <path id="ArialMT-6d" d="M 422 0 
L 422 3319 
L 925 3319 
L 925 2853 
Q 1081 3097 1340 3245 
Q 1600 3394 1931 3394 
Q 2300 3394 2536 3241 
Q 2772 3088 2869 2813 
Q 3263 3394 3894 3394 
Q 4388 3394 4653 3120 
Q 4919 2847 4919 2278 
L 4919 0 
L 4359 0 
L 4359 2091 
Q 4359 2428 4304 2576 
Q 4250 2725 4106 2815 
Q 3963 2906 3769 2906 
Q 3419 2906 3187 2673 
Q 2956 2441 2956 1928 
L 2956 0 
L 2394 0 
L 2394 2156 
Q 2394 2531 2256 2718 
Q 2119 2906 1806 2906 
Q 1569 2906 1367 2781 
Q 1166 2656 1075 2415 
Q 984 2175 984 1722 
L 984 0 
L 422 0 
z
" transform="scale(0.015625)"/>
      <path id="ArialMT-61" d="M 2588 409 
Q 2275 144 1986 34 
Q 1697 -75 1366 -75 
Q 819 -75 525 192 
Q 231 459 231 875 
Q 231 1119 342 1320 
Q 453 1522 633 1644 
Q 813 1766 1038 1828 
Q 1203 1872 1538 1913 
Q 2219 1994 2541 2106 
Q 2544 2222 2544 2253 
Q 2544 2597 2384 2738 
Q 2169 2928 1744 2928 
Q 1347 2928 1158 2789 
Q 969 2650 878 2297 
L 328 2372 
Q 403 2725 575 2942 
Q 747 3159 1072 3276 
Q 1397 3394 1825 3394 
Q 2250 3394 2515 3294 
Q 2781 3194 2906 3042 
Q 3031 2891 3081 2659 
Q 3109 2516 3109 2141 
L 3109 1391 
Q 3109 606 3145 398 
Q 3181 191 3288 0 
L 2700 0 
Q 2613 175 2588 409 
z
M 2541 1666 
Q 2234 1541 1622 1453 
Q 1275 1403 1131 1340 
Q 988 1278 909 1158 
Q 831 1038 831 891 
Q 831 666 1001 516 
Q 1172 366 1500 366 
Q 1825 366 2078 508 
Q 2331 650 2450 897 
Q 2541 1088 2541 1459 
L 2541 1666 
z
" transform="scale(0.015625)"/>
      <path id="ArialMT-79" d="M 397 -1278 
L 334 -750 
Q 519 -800 656 -800 
Q 844 -800 956 -737 
Q 1069 -675 1141 -563 
Q 1194 -478 1313 -144 
Q 1328 -97 1363 -6 
L 103 3319 
L 709 3319 
L 1400 1397 
Q 1534 1031 1641 628 
Q 1738 1016 1872 1384 
L 2581 3319 
L 3144 3319 
L 1881 -56 
Q 1678 -603 1566 -809 
Q 1416 -1088 1222 -1217 
Q 1028 -1347 759 -1347 
Q 597 -1347 397 -1278 
z
" transform="scale(0.015625)"/>
      <path id="ArialMT-2d" d="M 203 1375 
L 203 1941 
L 1931 1941 
L 1931 1375 
L 203 1375 
z
" transform="scale(0.015625)"/>
      <path id="ArialMT-76" d="M 1344 0 
L 81 3319 
L 675 3319 
L 1388 1331 
Q 1503 1009 1600 663 
Q 1675 925 1809 1294 
L 2547 3319 
L 3125 3319 
L 1869 0 
L 1344 0 
z
" transform="scale(0.015625)"/>
      <path id="ArialMT-65" d="M 2694 1069 
L 3275 997 
Q 3138 488 2766 206 
Q 2394 -75 1816 -75 
Q 1088 -75 661 373 
Q 234 822 234 1631 
Q 234 2469 665 2931 
Q 1097 3394 1784 3394 
Q 2450 3394 2872 2941 
Q 3294 2488 3294 1666 
Q 3294 1616 3291 1516 
L 816 1516 
Q 847 969 1125 678 
Q 1403 388 1819 388 
Q 2128 388 2347 550 
Q 2566 713 2694 1069 
z
M 847 1978 
L 2700 1978 
Q 2663 2397 2488 2606 
Q 2219 2931 1791 2931 
Q 1403 2931 1139 2672 
Q 875 2413 847 1978 
z
" transform="scale(0.015625)"/>
     </defs>
     <use xlink:href="#ArialMT-50"/>
     <use xlink:href="#ArialMT-72" x="66.699219"/>
     <use xlink:href="#ArialMT-69" x="100"/>
     <use xlink:href="#ArialMT-6d" x="122.216797"/>
     <use xlink:href="#ArialMT-61" x="205.517578"/>
     <use xlink:href="#ArialMT-72" x="261.132812"/>
     <use xlink:href="#ArialMT-79" x="294.433594"/>
     <use xlink:href="#ArialMT-2d" x="344.433594"/>
     <use xlink:href="#ArialMT-4e" x="377.734375"/>
     <use xlink:href="#ArialMT-61" x="449.951172"/>
     <use xlink:href="#ArialMT-69" x="505.566406"/>
     <use xlink:href="#ArialMT-76" x="527.783203"/>
     <use xlink:href="#ArialMT-65" x="577.783203"/>
    </g>
   </g>
  </g>
  <g id="axes_3">
   <g id="patch_94">
    <path d="M 446.615729 417.515625 
L 633.549062 417.515625 
L 633.549062 27.515625 
L 446.615729 27.515625 
L 446.615729 417.515625 
z
" style="fill: none"/>
   </g>
   <g id="patch_95">
    <path d="M 446.615729 411.101151 
L 591.947767 411.101151 
L 591.947767 393.140625 
L 446.615729 393.140625 
z
" clip-path="url(#p25a1d69b10)" style="fill: #dadaeb"/>
   </g>
   <g id="patch_96">
    <path d="M 446.615729 385.443257 
L 529.697211 385.443257 
L 529.697211 367.48273 
L 446.615729 367.48273 
z
" clip-path="url(#p25a1d69b10)" style="fill: #dadaeb"/>
   </g>
   <g id="patch_97">
    <path d="M 446.615729 359.785362 
L 562.72339 359.785362 
L 562.72339 341.824836 
L 446.615729 341.824836 
z
" clip-path="url(#p25a1d69b10)" style="fill: #dadaeb"/>
   </g>
   <g id="patch_98">
    <path d="M 446.615729 334.127467 
L 545.522255 334.127467 
L 545.522255 316.166941 
L 446.615729 316.166941 
z
" clip-path="url(#p25a1d69b10)" style="fill: #dadaeb"/>
   </g>
   <g id="patch_99">
    <path d="M 446.615729 308.469572 
L 565.30356 308.469572 
L 565.30356 290.509046 
L 446.615729 290.509046 
z
" clip-path="url(#p25a1d69b10)" style="fill: #dadaeb"/>
   </g>
   <g id="patch_100">
    <path d="M 446.615729 282.811678 
L 535.631602 282.811678 
L 535.631602 264.851151 
L 446.615729 264.851151 
z
" clip-path="url(#p25a1d69b10)" style="fill: #dadaeb"/>
   </g>
   <g id="patch_101">
    <path d="M 446.615729 257.153783 
L 446.615729 257.153783 
L 446.615729 239.193257 
L 446.615729 239.193257 
z
" clip-path="url(#p25a1d69b10)" style="fill: #dadaeb"/>
   </g>
   <g id="patch_102">
    <path d="M 446.615729 231.495888 
L 624.647475 231.495888 
L 624.647475 213.535362 
L 446.615729 213.535362 
z
" clip-path="url(#p25a1d69b10)" style="fill: #dadaeb"/>
   </g>
   <g id="patch_103">
    <path d="M 446.615729 205.837993 
L 543.723954 205.837993 
L 543.723954 187.877467 
L 446.615729 187.877467 
z
" clip-path="url(#p25a1d69b10)" style="fill: #dadaeb"/>
   </g>
   <g id="patch_104">
    <path d="M 446.615729 180.180099 
L 535.631602 180.180099 
L 535.631602 162.219572 
L 446.615729 162.219572 
z
" clip-path="url(#p25a1d69b10)" style="fill: #dadaeb"/>
   </g>
   <g id="patch_105">
    <path d="M 446.615729 154.522204 
L 606.844301 154.522204 
L 606.844301 136.561678 
L 446.615729 136.561678 
z
" clip-path="url(#p25a1d69b10)" style="fill: #dadaeb"/>
   </g>
   <g id="patch_106">
    <path d="M 446.615729 128.864309 
L 505.959645 128.864309 
L 505.959645 110.903783 
L 446.615729 110.903783 
z
" clip-path="url(#p25a1d69b10)" style="fill: #dadaeb"/>
   </g>
   <g id="patch_107">
    <path d="M 446.615729 103.206414 
L 497.481942 103.206414 
L 497.481942 85.245888 
L 446.615729 85.245888 
z
" clip-path="url(#p25a1d69b10)" style="fill: #dadaeb"/>
   </g>
   <g id="patch_108">
    <path d="M 446.615729 77.54852 
L 624.647475 77.54852 
L 624.647475 59.587993 
L 446.615729 59.587993 
z
" clip-path="url(#p25a1d69b10)" style="fill: #dadaeb"/>
   </g>
   <g id="patch_109">
    <path d="M 446.615729 51.890625 
L 482.222078 51.890625 
L 482.222078 33.930099 
L 446.615729 33.930099 
z
" clip-path="url(#p25a1d69b10)" style="fill: #dadaeb"/>
   </g>
   <g id="patch_110">
    <path d="M 591.947767 411.101151 
L 621.014174 411.101151 
L 621.014174 393.140625 
L 591.947767 393.140625 
z
" clip-path="url(#p25a1d69b10)" style="fill: #bcbddc"/>
   </g>
   <g id="patch_111">
    <path d="M 529.697211 385.443257 
L 589.041126 385.443257 
L 589.041126 367.48273 
L 529.697211 367.48273 
z
" clip-path="url(#p25a1d69b10)" style="fill: #bcbddc"/>
   </g>
   <g id="patch_112">
    <path d="M 562.72339 359.785362 
L 616.906965 359.785362 
L 616.906965 341.824836 
L 562.72339 341.824836 
z
" clip-path="url(#p25a1d69b10)" style="fill: #bcbddc"/>
   </g>
   <g id="patch_113">
    <path d="M 545.522255 334.127467 
L 585.084865 334.127467 
L 585.084865 316.166941 
L 545.522255 316.166941 
z
" clip-path="url(#p25a1d69b10)" style="fill: #bcbddc"/>
   </g>
   <g id="patch_114">
    <path d="M 565.30356 308.469572 
L 614.756823 308.469572 
L 614.756823 290.509046 
L 565.30356 290.509046 
z
" clip-path="url(#p25a1d69b10)" style="fill: #bcbddc"/>
   </g>
   <g id="patch_115">
    <path d="M 535.631602 282.811678 
L 586.497815 282.811678 
L 586.497815 264.851151 
L 535.631602 264.851151 
z
" clip-path="url(#p25a1d69b10)" style="fill: #bcbddc"/>
   </g>
   <g id="patch_116">
    <path d="M 446.615729 257.153783 
L 446.615729 257.153783 
L 446.615729 239.193257 
L 446.615729 239.193257 
z
" clip-path="url(#p25a1d69b10)" style="fill: #bcbddc"/>
   </g>
   <g id="patch_117">
    <path d="M 446.615729 231.495888 
L 446.615729 231.495888 
L 446.615729 213.535362 
L 446.615729 213.535362 
z
" clip-path="url(#p25a1d69b10)" style="fill: #bcbddc"/>
   </g>
   <g id="patch_118">
    <path d="M 543.723954 205.837993 
L 608.462771 205.837993 
L 608.462771 187.877467 
L 543.723954 187.877467 
z
" clip-path="url(#p25a1d69b10)" style="fill: #bcbddc"/>
   </g>
   <g id="patch_119">
    <path d="M 535.631602 180.180099 
L 553.434777 180.180099 
L 553.434777 162.219572 
L 535.631602 162.219572 
z
" clip-path="url(#p25a1d69b10)" style="fill: #bcbddc"/>
   </g>
   <g id="patch_120">
    <path d="M 606.844301 154.522204 
L 624.647475 154.522204 
L 624.647475 136.561678 
L 606.844301 136.561678 
z
" clip-path="url(#p25a1d69b10)" style="fill: #bcbddc"/>
   </g>
   <g id="patch_121">
    <path d="M 446.615729 128.864309 
L 446.615729 128.864309 
L 446.615729 110.903783 
L 446.615729 110.903783 
z
" clip-path="url(#p25a1d69b10)" style="fill: #bcbddc"/>
   </g>
   <g id="patch_122">
    <path d="M 497.481942 103.206414 
L 548.348155 103.206414 
L 548.348155 85.245888 
L 497.481942 85.245888 
z
" clip-path="url(#p25a1d69b10)" style="fill: #bcbddc"/>
   </g>
   <g id="patch_123">
    <path d="M 446.615729 77.54852 
L 446.615729 77.54852 
L 446.615729 59.587993 
L 446.615729 59.587993 
z
" clip-path="url(#p25a1d69b10)" style="fill: #bcbddc"/>
   </g>
   <g id="patch_124">
    <path d="M 482.222078 51.890625 
L 553.434777 51.890625 
L 553.434777 33.930099 
L 482.222078 33.930099 
z
" clip-path="url(#p25a1d69b10)" style="fill: #bcbddc"/>
   </g>
   <g id="patch_125">
    <path d="M 621.014174 411.101151 
L 624.647475 411.101151 
L 624.647475 393.140625 
L 621.014174 393.140625 
z
" clip-path="url(#p25a1d69b10)" style="fill: #9e9ac8"/>
   </g>
   <g id="patch_126">
    <path d="M 589.041126 385.443257 
L 624.647475 385.443257 
L 624.647475 367.48273 
L 589.041126 367.48273 
z
" clip-path="url(#p25a1d69b10)" style="fill: #9e9ac8"/>
   </g>
   <g id="patch_127">
    <path d="M 616.906965 359.785362 
L 624.647475 359.785362 
L 624.647475 341.824836 
L 616.906965 341.824836 
z
" clip-path="url(#p25a1d69b10)" style="fill: #9e9ac8"/>
   </g>
   <g id="patch_128">
    <path d="M 585.084865 334.127467 
L 624.647475 334.127467 
L 624.647475 316.166941 
L 585.084865 316.166941 
z
" clip-path="url(#p25a1d69b10)" style="fill: #9e9ac8"/>
   </g>
   <g id="patch_129">
    <path d="M 614.756823 308.469572 
L 624.647475 308.469572 
L 624.647475 290.509046 
L 614.756823 290.509046 
z
" clip-path="url(#p25a1d69b10)" style="fill: #9e9ac8"/>
   </g>
   <g id="patch_130">
    <path d="M 586.497815 282.811678 
L 624.647475 282.811678 
L 624.647475 264.851151 
L 586.497815 264.851151 
z
" clip-path="url(#p25a1d69b10)" style="fill: #9e9ac8"/>
   </g>
   <g id="patch_131">
    <path d="M 446.615729 257.153783 
L 624.647475 257.153783 
L 624.647475 239.193257 
L 446.615729 239.193257 
z
" clip-path="url(#p25a1d69b10)" style="fill: #9e9ac8"/>
   </g>
   <g id="patch_132">
    <path d="M 446.615729 231.495888 
L 446.615729 231.495888 
L 446.615729 213.535362 
L 446.615729 213.535362 
z
" clip-path="url(#p25a1d69b10)" style="fill: #9e9ac8"/>
   </g>
   <g id="patch_133">
    <path d="M 608.462771 205.837993 
L 624.647475 205.837993 
L 624.647475 187.877467 
L 608.462771 187.877467 
z
" clip-path="url(#p25a1d69b10)" style="fill: #9e9ac8"/>
   </g>
   <g id="patch_134">
    <path d="M 553.434777 180.180099 
L 624.647475 180.180099 
L 624.647475 162.219572 
L 553.434777 162.219572 
z
" clip-path="url(#p25a1d69b10)" style="fill: #9e9ac8"/>
   </g>
   <g id="patch_135">
    <path d="M 446.615729 154.522204 
L 446.615729 154.522204 
L 446.615729 136.561678 
L 446.615729 136.561678 
z
" clip-path="url(#p25a1d69b10)" style="fill: #9e9ac8"/>
   </g>
   <g id="patch_136">
    <path d="M 505.959645 128.864309 
L 624.647475 128.864309 
L 624.647475 110.903783 
L 505.959645 110.903783 
z
" clip-path="url(#p25a1d69b10)" style="fill: #9e9ac8"/>
   </g>
   <g id="patch_137">
    <path d="M 548.348155 103.206414 
L 624.647475 103.206414 
L 624.647475 85.245888 
L 548.348155 85.245888 
z
" clip-path="url(#p25a1d69b10)" style="fill: #9e9ac8"/>
   </g>
   <g id="patch_138">
    <path d="M 446.615729 77.54852 
L 446.615729 77.54852 
L 446.615729 59.587993 
L 446.615729 59.587993 
z
" clip-path="url(#p25a1d69b10)" style="fill: #9e9ac8"/>
   </g>
   <g id="patch_139">
    <path d="M 553.434777 51.890625 
L 624.647475 51.890625 
L 624.647475 33.930099 
L 553.434777 33.930099 
z
" clip-path="url(#p25a1d69b10)" style="fill: #9e9ac8"/>
   </g>
   <g id="matplotlib.axis_5">
    <g id="xtick_10">
     <g id="line2d_40"/>
    </g>
    <g id="xtick_11">
     <g id="line2d_41"/>
    </g>
    <g id="xtick_12">
     <g id="line2d_42"/>
    </g>
    <g id="xtick_13">
     <g id="line2d_43"/>
    </g>
    <g id="xtick_14">
     <g id="line2d_44"/>
    </g>
    <g id="xtick_15">
     <g id="line2d_45"/>
    </g>
   </g>
   <g id="matplotlib.axis_6">
    <g id="ytick_31">
     <g id="line2d_46"/>
    </g>
    <g id="ytick_32">
     <g id="line2d_47"/>
    </g>
    <g id="ytick_33">
     <g id="line2d_48"/>
    </g>
    <g id="ytick_34">
     <g id="line2d_49"/>
    </g>
    <g id="ytick_35">
     <g id="line2d_50"/>
    </g>
    <g id="ytick_36">
     <g id="line2d_51"/>
    </g>
    <g id="ytick_37">
     <g id="line2d_52"/>
    </g>
    <g id="ytick_38">
     <g id="line2d_53"/>
    </g>
    <g id="ytick_39">
     <g id="line2d_54"/>
    </g>
    <g id="ytick_40">
     <g id="line2d_55"/>
    </g>
    <g id="ytick_41">
     <g id="line2d_56"/>
    </g>
    <g id="ytick_42">
     <g id="line2d_57"/>
    </g>
    <g id="ytick_43">
     <g id="line2d_58"/>
    </g>
    <g id="ytick_44">
     <g id="line2d_59"/>
    </g>
    <g id="ytick_45">
     <g id="line2d_60"/>
    </g>
   </g>
   <g id="text_94">
    <!-- 40 -->
    <g transform="translate(511.496435 405.740107) scale(0.14 -0.14)">
     <use xlink:href="#ArialMT-34"/>
     <use xlink:href="#ArialMT-30" x="55.615234"/>
    </g>
   </g>
   <g id="text_95">
    <!-- 7 -->
    <g transform="translate(484.263814 380.082212) scale(0.14 -0.14)">
     <use xlink:href="#ArialMT-37"/>
    </g>
   </g>
   <g id="text_96">
    <!-- 15 -->
    <g transform="translate(496.884247 354.424317) scale(0.14 -0.14)">
     <use xlink:href="#ArialMT-31"/>
     <use xlink:href="#ArialMT-35" x="55.615234"/>
    </g>
   </g>
   <g id="text_97">
    <!-- 10 -->
    <g transform="translate(488.283679 328.766423) scale(0.14 -0.14)">
     <use xlink:href="#ArialMT-31"/>
     <use xlink:href="#ArialMT-30" x="55.615234"/>
    </g>
   </g>
   <g id="text_98">
    <!-- 12 -->
    <g transform="translate(498.174332 303.108528) scale(0.14 -0.14)">
     <use xlink:href="#ArialMT-31"/>
     <use xlink:href="#ArialMT-32" x="55.615234"/>
    </g>
   </g>
   <g id="text_99">
    <!-- 7 -->
    <g transform="translate(487.231009 277.450633) scale(0.14 -0.14)">
     <use xlink:href="#ArialMT-37"/>
    </g>
   </g>
   <g id="text_100">
    <!-- 11 -->
    <g transform="translate(528.36254 226.134844) scale(0.14 -0.14)">
     <use xlink:href="#ArialMT-31"/>
     <use xlink:href="#ArialMT-31" x="48.240234"/>
    </g>
   </g>
   <g id="text_101">
    <!-- 6 -->
    <g transform="translate(491.277185 200.476949) scale(0.14 -0.14)">
     <use xlink:href="#ArialMT-36"/>
    </g>
   </g>
   <g id="text_102">
    <!-- 5 -->
    <g transform="translate(487.231009 174.819054) scale(0.14 -0.14)">
     <use xlink:href="#ArialMT-35"/>
    </g>
   </g>
   <g id="text_103">
    <!-- 9 -->
    <g transform="translate(522.837359 149.16116) scale(0.14 -0.14)">
     <use xlink:href="#ArialMT-39"/>
    </g>
   </g>
   <g id="text_104">
    <!-- 1 -->
    <g transform="translate(472.395031 123.503265) scale(0.14 -0.14)">
     <use xlink:href="#ArialMT-31"/>
    </g>
   </g>
   <g id="text_105">
    <!-- 2 -->
    <g transform="translate(468.156179 97.84537) scale(0.14 -0.14)">
     <use xlink:href="#ArialMT-32"/>
    </g>
   </g>
   <g id="text_106">
    <!-- 3 -->
    <g transform="translate(531.738946 72.187475) scale(0.14 -0.14)">
     <use xlink:href="#ArialMT-33"/>
    </g>
   </g>
   <g id="text_107">
    <!-- 1 -->
    <g transform="translate(460.526248 46.529581) scale(0.14 -0.14)">
     <use xlink:href="#ArialMT-31"/>
    </g>
   </g>
   <g id="text_108">
    <!-- 8 -->
    <g transform="translate(602.588314 405.740107) scale(0.14 -0.14)">
     <use xlink:href="#ArialMT-38"/>
    </g>
   </g>
   <g id="text_109">
    <!-- 5 -->
    <g transform="translate(555.476512 380.082212) scale(0.14 -0.14)">
     <use xlink:href="#ArialMT-35"/>
    </g>
   </g>
   <g id="text_110">
    <!-- 7 -->
    <g transform="translate(585.922521 354.424317) scale(0.14 -0.14)">
     <use xlink:href="#ArialMT-37"/>
    </g>
   </g>
   <g id="text_111">
    <!-- 4 -->
    <g transform="translate(561.410904 328.766423) scale(0.14 -0.14)">
     <use xlink:href="#ArialMT-34"/>
    </g>
   </g>
   <g id="text_112">
    <!-- 5 -->
    <g transform="translate(586.137535 303.108528) scale(0.14 -0.14)">
     <use xlink:href="#ArialMT-35"/>
    </g>
   </g>
   <g id="text_113">
    <!-- 4 -->
    <g transform="translate(557.172053 277.450633) scale(0.14 -0.14)">
     <use xlink:href="#ArialMT-34"/>
    </g>
   </g>
   <g id="text_114">
    <!-- 4 -->
    <g transform="translate(572.200706 200.476949) scale(0.14 -0.14)">
     <use xlink:href="#ArialMT-34"/>
    </g>
   </g>
   <g id="text_115">
    <!-- 1 -->
    <g transform="translate(540.640533 174.819054) scale(0.14 -0.14)">
     <use xlink:href="#ArialMT-31"/>
    </g>
   </g>
   <g id="text_116">
    <!-- 1 -->
    <g transform="translate(611.853232 149.16116) scale(0.14 -0.14)">
     <use xlink:href="#ArialMT-31"/>
    </g>
   </g>
   <g id="text_117">
    <!-- 2 -->
    <g transform="translate(519.022393 97.84537) scale(0.14 -0.14)">
     <use xlink:href="#ArialMT-32"/>
    </g>
   </g>
   <g id="text_118">
    <!-- 2 -->
    <g transform="translate(513.935771 46.529581) scale(0.14 -0.14)">
     <use xlink:href="#ArialMT-32"/>
    </g>
   </g>
   <g id="text_119">
    <!-- 1 -->
    <g transform="translate(618.938168 405.740107) scale(0.14 -0.14)">
     <use xlink:href="#ArialMT-31"/>
    </g>
   </g>
   <g id="text_120">
    <!-- 3 -->
    <g transform="translate(602.951644 380.082212) scale(0.14 -0.14)">
     <use xlink:href="#ArialMT-33"/>
    </g>
   </g>
   <g id="text_121">
    <!-- 1 -->
    <g transform="translate(616.884564 354.424317) scale(0.14 -0.14)">
     <use xlink:href="#ArialMT-31"/>
    </g>
   </g>
   <g id="text_122">
    <!-- 4 -->
    <g transform="translate(600.973514 328.766423) scale(0.14 -0.14)">
     <use xlink:href="#ArialMT-34"/>
    </g>
   </g>
   <g id="text_123">
    <!-- 1 -->
    <g transform="translate(615.809493 303.108528) scale(0.14 -0.14)">
     <use xlink:href="#ArialMT-31"/>
    </g>
   </g>
   <g id="text_124">
    <!-- 3 -->
    <g transform="translate(601.679989 277.450633) scale(0.14 -0.14)">
     <use xlink:href="#ArialMT-33"/>
    </g>
   </g>
   <g id="text_125">
    <!-- 1 -->
    <g transform="translate(531.738946 251.792738) scale(0.14 -0.14)">
     <use xlink:href="#ArialMT-31"/>
    </g>
   </g>
   <g id="text_126">
    <!-- 1 -->
    <g transform="translate(612.662467 200.476949) scale(0.14 -0.14)">
     <use xlink:href="#ArialMT-31"/>
    </g>
   </g>
   <g id="text_127">
    <!-- 4 -->
    <g transform="translate(585.14847 174.819054) scale(0.14 -0.14)">
     <use xlink:href="#ArialMT-34"/>
    </g>
   </g>
   <g id="text_128">
    <!-- 2 -->
    <g transform="translate(561.410904 123.503265) scale(0.14 -0.14)">
     <use xlink:href="#ArialMT-32"/>
    </g>
   </g>
   <g id="text_129">
    <!-- 3 -->
    <g transform="translate(582.605159 97.84537) scale(0.14 -0.14)">
     <use xlink:href="#ArialMT-33"/>
    </g>
   </g>
   <g id="text_130">
    <!-- 2 -->
    <g transform="translate(585.14847 46.529581) scale(0.14 -0.14)">
     <use xlink:href="#ArialMT-32"/>
    </g>
   </g>
   <g id="text_131">
    <!-- Advanced-Treated -->
    <g transform="translate(458.193333 21.515625) scale(0.2 -0.2)">
     <defs>
      <path id="ArialMT-64" d="M 2575 0 
L 2575 419 
Q 2259 -75 1647 -75 
Q 1250 -75 917 144 
Q 584 363 401 755 
Q 219 1147 219 1656 
Q 219 2153 384 2558 
Q 550 2963 881 3178 
Q 1213 3394 1622 3394 
Q 1922 3394 2156 3267 
Q 2391 3141 2538 2938 
L 2538 4581 
L 3097 4581 
L 3097 0 
L 2575 0 
z
M 797 1656 
Q 797 1019 1065 703 
Q 1334 388 1700 388 
Q 2069 388 2326 689 
Q 2584 991 2584 1609 
Q 2584 2291 2321 2609 
Q 2059 2928 1675 2928 
Q 1300 2928 1048 2622 
Q 797 2316 797 1656 
z
" transform="scale(0.015625)"/>
      <path id="ArialMT-6e" d="M 422 0 
L 422 3319 
L 928 3319 
L 928 2847 
Q 1294 3394 1984 3394 
Q 2284 3394 2536 3286 
Q 2788 3178 2913 3003 
Q 3038 2828 3088 2588 
Q 3119 2431 3119 2041 
L 3119 0 
L 2556 0 
L 2556 2019 
Q 2556 2363 2490 2533 
Q 2425 2703 2258 2804 
Q 2091 2906 1866 2906 
Q 1506 2906 1245 2678 
Q 984 2450 984 1813 
L 984 0 
L 422 0 
z
" transform="scale(0.015625)"/>
      <path id="ArialMT-63" d="M 2588 1216 
L 3141 1144 
Q 3050 572 2676 248 
Q 2303 -75 1759 -75 
Q 1078 -75 664 370 
Q 250 816 250 1647 
Q 250 2184 428 2587 
Q 606 2991 970 3192 
Q 1334 3394 1763 3394 
Q 2303 3394 2647 3120 
Q 2991 2847 3088 2344 
L 2541 2259 
Q 2463 2594 2264 2762 
Q 2066 2931 1784 2931 
Q 1359 2931 1093 2626 
Q 828 2322 828 1663 
Q 828 994 1084 691 
Q 1341 388 1753 388 
Q 2084 388 2306 591 
Q 2528 794 2588 1216 
z
" transform="scale(0.015625)"/>
      <path id="ArialMT-74" d="M 1650 503 
L 1731 6 
Q 1494 -44 1306 -44 
Q 1000 -44 831 53 
Q 663 150 594 308 
Q 525 466 525 972 
L 525 2881 
L 113 2881 
L 113 3319 
L 525 3319 
L 525 4141 
L 1084 4478 
L 1084 3319 
L 1650 3319 
L 1650 2881 
L 1084 2881 
L 1084 941 
Q 1084 700 1114 631 
Q 1144 563 1211 522 
Q 1278 481 1403 481 
Q 1497 481 1650 503 
z
" transform="scale(0.015625)"/>
     </defs>
     <use xlink:href="#ArialMT-41"/>
     <use xlink:href="#ArialMT-64" x="66.699219"/>
     <use xlink:href="#ArialMT-76" x="122.314453"/>
     <use xlink:href="#ArialMT-61" x="172.314453"/>
     <use xlink:href="#ArialMT-6e" x="227.929688"/>
     <use xlink:href="#ArialMT-63" x="283.544922"/>
     <use xlink:href="#ArialMT-65" x="333.544922"/>
     <use xlink:href="#ArialMT-64" x="389.160156"/>
     <use xlink:href="#ArialMT-2d" x="444.775391"/>
     <use xlink:href="#ArialMT-54" x="478.076172"/>
     <use xlink:href="#ArialMT-72" x="535.410156"/>
     <use xlink:href="#ArialMT-65" x="568.710938"/>
     <use xlink:href="#ArialMT-61" x="624.326172"/>
     <use xlink:href="#ArialMT-74" x="679.941406"/>
     <use xlink:href="#ArialMT-65" x="707.724609"/>
     <use xlink:href="#ArialMT-64" x="763.339844"/>
    </g>
   </g>
  </g>
 </g>
 <defs>
  <clipPath id="p5ce91d3966">
   <rect x="51.149063" y="27.515625" width="186.933333" height="390"/>
  </clipPath>
  <clipPath id="p22a23cc38a">
   <rect x="248.882396" y="27.515625" width="186.933333" height="390"/>
  </clipPath>
  <clipPath id="p25a1d69b10">
   <rect x="446.615729" y="27.515625" width="186.933333" height="390"/>
  </clipPath>
 </defs>
</svg>
