<?xml version="1.0" encoding="utf-8" standalone="no"?>
<!DOCTYPE svg PUBLIC "-//W3C//DTD SVG 1.1//EN"
  "http://www.w3.org/Graphics/SVG/1.1/DTD/svg11.dtd">
<svg xmlns:xlink="http://www.w3.org/1999/xlink" width="224.39952pt" height="314.39952pt" viewBox="0 0 224.39952 314.39952" xmlns="http://www.w3.org/2000/svg" version="1.1">
 <metadata>
  <rdf:RDF xmlns:dc="http://purl.org/dc/elements/1.1/" xmlns:cc="http://creativecommons.org/ns#" xmlns:rdf="http://www.w3.org/1999/02/22-rdf-syntax-ns#">
   <cc:Work>
    <dc:type rdf:resource="http://purl.org/dc/dcmitype/StillImage"/>
    <dc:date>2026-05-25T11:55:52.589177</dc:date>
    <dc:format>image/svg+xml</dc:format>
    <dc:creator>
     <cc:Agent>
      <dc:title>Matplotlib v3.7.3, https://matplotlib.org/</dc:title>
     </cc:Agent>
    </dc:creator>
   </cc:Work>
  </rdf:RDF>
 </metadata>
 <defs>
  <style type="text/css">*{stroke-linejoin: round; stroke-linecap: butt}</style>
 </defs>
 <g id="figure_1">
  <g id="patch_1">
   <path d="M 0 314.39952 
L 224.39952 314.39952 
L 224.39952 0 
L 0 0 
L 0 314.39952 
z
" style="fill: none"/>
  </g>
  <g id="axes_1">
   <g id="patch_2">
    <path d="M 59.221875 307.19952 
L 107.88077 307.19952 
L 107.88077 7.2 
L 59.221875 7.2 
L 59.221875 307.19952 
z
" style="fill: none"/>
   </g>
   <g id="QuadMesh_1">
    <path d="M 59.221875 7.2 
L 107.88077 7.2 
L 107.88077 24.847031 
L 59.221875 24.847031 
L 59.221875 7.2 
" clip-path="url(#p33b0ec5ab7)" style="fill: #ffffff"/>
    <path d="M 59.221875 24.847031 
L 107.88077 24.847031 
L 107.88077 42.494061 
L 59.221875 42.494061 
L 59.221875 24.847031 
" clip-path="url(#p33b0ec5ab7)" style="fill: #ffffff"/>
    <path d="M 59.221875 42.494061 
L 107.88077 42.494061 
L 107.88077 60.141092 
L 59.221875 60.141092 
L 59.221875 42.494061 
" clip-path="url(#p33b0ec5ab7)" style="fill: #ffffff"/>
    <path d="M 59.221875 60.141092 
L 107.88077 60.141092 
L 107.88077 77.788122 
L 59.221875 77.788122 
L 59.221875 60.141092 
" clip-path="url(#p33b0ec5ab7)" style="fill: #ffffff"/>
    <path d="M 59.221875 77.788122 
L 107.88077 77.788122 
L 107.88077 95.435153 
L 59.221875 95.435153 
L 59.221875 77.788122 
" clip-path="url(#p33b0ec5ab7)" style="fill: #ffffff"/>
    <path d="M 59.221875 95.435153 
L 107.88077 95.435153 
L 107.88077 113.082184 
L 59.221875 113.082184 
L 59.221875 95.435153 
" clip-path="url(#p33b0ec5ab7)" style="fill: #ffffff"/>
    <path d="M 59.221875 113.082184 
L 107.88077 113.082184 
L 107.88077 130.729214 
L 59.221875 130.729214 
L 59.221875 113.082184 
" clip-path="url(#p33b0ec5ab7)" style="fill: #ffffff"/>
    <path d="M 59.221875 130.729214 
L 107.88077 130.729214 
L 107.88077 148.376245 
L 59.221875 148.376245 
L 59.221875 130.729214 
" clip-path="url(#p33b0ec5ab7)" style="fill: #ffffff"/>
    <path d="M 59.221875 148.376245 
L 107.88077 148.376245 
L 107.88077 166.023275 
L 59.221875 166.023275 
L 59.221875 148.376245 
" clip-path="url(#p33b0ec5ab7)" style="fill: #ffffff"/>
    <path d="M 59.221875 166.023275 
L 107.88077 166.023275 
L 107.88077 183.670306 
L 59.221875 183.670306 
L 59.221875 166.023275 
" clip-path="url(#p33b0ec5ab7)" style="fill: #4681b3"/>
    <path d="M 59.221875 183.670306 
L 107.88077 183.670306 
L 107.88077 201.317336 
L 59.221875 201.317336 
L 59.221875 183.670306 
" clip-path="url(#p33b0ec5ab7)" style="fill: #ffffff"/>
    <path d="M 59.221875 201.317336 
L 107.88077 201.317336 
L 107.88077 218.964367 
L 59.221875 218.964367 
L 59.221875 201.317336 
" clip-path="url(#p33b0ec5ab7)" style="fill: #ffffff"/>
    <path d="M 59.221875 218.964367 
L 107.88077 218.964367 
L 107.88077 236.611398 
L 59.221875 236.611398 
L 59.221875 218.964367 
" clip-path="url(#p33b0ec5ab7)" style="fill: #ffffff"/>
    <path d="M 59.221875 236.611398 
L 107.88077 236.611398 
L 107.88077 254.258428 
L 59.221875 254.258428 
L 59.221875 236.611398 
" clip-path="url(#p33b0ec5ab7)" style="fill: #ffffff"/>
    <path d="M 59.221875 254.258428 
L 107.88077 254.258428 
L 107.88077 271.905459 
L 59.221875 271.905459 
L 59.221875 254.258428 
" clip-path="url(#p33b0ec5ab7)" style="fill: #ffffff"/>
    <path d="M 59.221875 271.905459 
L 107.88077 271.905459 
L 107.88077 289.552489 
L 59.221875 289.552489 
L 59.221875 271.905459 
" clip-path="url(#p33b0ec5ab7)" style="fill: #ffffff"/>
    <path d="M 59.221875 289.552489 
L 107.88077 289.552489 
L 107.88077 307.19952 
L 59.221875 307.19952 
L 59.221875 289.552489 
" clip-path="url(#p33b0ec5ab7)" style="fill: #ffffff"/>
   </g>
   <g id="matplotlib.axis_1"/>
   <g id="matplotlib.axis_2">
    <g id="ytick_1">
     <g id="line2d_1">
      <defs>
       <path id="m463e349dad" d="M 0 0 
L -3.5 0 
" style="stroke: #000000; stroke-width: 0.8"/>
      </defs>
      <g>
       <use xlink:href="#m463e349dad" x="59.221875" y="16.023515" style="stroke: #000000; stroke-width: 0.8"/>
      </g>
     </g>
     <g id="text_1">
      <text style="font: 10px 'Arial', sans-serif; text-anchor: end" x="52.221875" y="18.608672" transform="rotate(-0 52.221875 18.608672)">ID1</text>
     </g>
    </g>
    <g id="ytick_2">
     <g id="line2d_2">
      <g>
       <use xlink:href="#m463e349dad" x="59.221875" y="33.670546" style="stroke: #000000; stroke-width: 0.8"/>
      </g>
     </g>
     <g id="text_2">
      <text style="font: 10px 'Arial', sans-serif; text-anchor: end" x="52.221875" y="36.255702" transform="rotate(-0 52.221875 36.255702)">ID2</text>
     </g>
    </g>
    <g id="ytick_3">
     <g id="line2d_3">
      <g>
       <use xlink:href="#m463e349dad" x="59.221875" y="51.317576" style="stroke: #000000; stroke-width: 0.8"/>
      </g>
     </g>
     <g id="text_3">
      <text style="font: 10px 'Arial', sans-serif; text-anchor: end" x="52.221875" y="53.902733" transform="rotate(-0 52.221875 53.902733)">ID3</text>
     </g>
    </g>
    <g id="ytick_4">
     <g id="line2d_4">
      <g>
       <use xlink:href="#m463e349dad" x="59.221875" y="68.964607" style="stroke: #000000; stroke-width: 0.8"/>
      </g>
     </g>
     <g id="text_4">
      <text style="font: 10px 'Arial', sans-serif; text-anchor: end" x="52.221875" y="71.549763" transform="rotate(-0 52.221875 71.549763)">ID4</text>
     </g>
    </g>
    <g id="ytick_5">
     <g id="line2d_5">
      <g>
       <use xlink:href="#m463e349dad" x="59.221875" y="86.611638" style="stroke: #000000; stroke-width: 0.8"/>
      </g>
     </g>
     <g id="text_5">
      <text style="font: 10px 'Arial', sans-serif; text-anchor: end" x="52.221875" y="89.196794" transform="rotate(-0 52.221875 89.196794)">ID5</text>
     </g>
    </g>
    <g id="ytick_6">
     <g id="line2d_6">
      <g>
       <use xlink:href="#m463e349dad" x="59.221875" y="104.258668" style="stroke: #000000; stroke-width: 0.8"/>
      </g>
     </g>
     <g id="text_6">
      <text style="font: 10px 'Arial', sans-serif; text-anchor: end" x="52.221875" y="106.843824" transform="rotate(-0 52.221875 106.843824)">ID8</text>
     </g>
    </g>
    <g id="ytick_7">
     <g id="line2d_7">
      <g>
       <use xlink:href="#m463e349dad" x="59.221875" y="121.905699" style="stroke: #000000; stroke-width: 0.8"/>
      </g>
     </g>
     <g id="text_7">
      <text style="font: 10px 'Arial', sans-serif; text-anchor: end" x="52.221875" y="124.490855" transform="rotate(-0 52.221875 124.490855)">ID9</text>
     </g>
    </g>
    <g id="ytick_8">
     <g id="line2d_8">
      <g>
       <use xlink:href="#m463e349dad" x="59.221875" y="139.552729" style="stroke: #000000; stroke-width: 0.8"/>
      </g>
     </g>
     <g id="text_8">
      <text style="font: 10px 'Arial', sans-serif; text-anchor: end" x="52.221875" y="142.137886" transform="rotate(-0 52.221875 142.137886)">ID12</text>
     </g>
    </g>
    <g id="ytick_9">
     <g id="line2d_9">
      <g>
       <use xlink:href="#m463e349dad" x="59.221875" y="157.19976" style="stroke: #000000; stroke-width: 0.8"/>
      </g>
     </g>
     <g id="text_9">
      <text style="font: 10px 'Arial', sans-serif; text-anchor: end" x="52.221875" y="159.784916" transform="rotate(-0 52.221875 159.784916)">ID17</text>
     </g>
    </g>
    <g id="ytick_10">
     <g id="line2d_10">
      <g>
       <use xlink:href="#m463e349dad" x="59.221875" y="174.846791" style="stroke: #000000; stroke-width: 0.8"/>
      </g>
     </g>
     <g id="text_10">
      <text style="font: 10px 'Arial', sans-serif; text-anchor: end" x="52.221875" y="177.431947" transform="rotate(-0 52.221875 177.431947)">ID83L1</text>
     </g>
    </g>
    <g id="ytick_11">
     <g id="line2d_11">
      <g>
       <use xlink:href="#m463e349dad" x="59.221875" y="192.493821" style="stroke: #000000; stroke-width: 0.8"/>
      </g>
     </g>
     <g id="text_11">
      <text style="font: 10px 'Arial', sans-serif; text-anchor: end" x="52.221875" y="195.078977" transform="rotate(-0 52.221875 195.078977)">ID83I1</text>
     </g>
    </g>
    <g id="ytick_12">
     <g id="line2d_12">
      <g>
       <use xlink:href="#m463e349dad" x="59.221875" y="210.140852" style="stroke: #000000; stroke-width: 0.8"/>
      </g>
     </g>
     <g id="text_12">
      <text style="font: 10px 'Arial', sans-serif; text-anchor: end" x="52.221875" y="212.726008" transform="rotate(-0 52.221875 212.726008)">ID83I2</text>
     </g>
    </g>
    <g id="ytick_13">
     <g id="line2d_13">
      <g>
       <use xlink:href="#m463e349dad" x="59.221875" y="227.787882" style="stroke: #000000; stroke-width: 0.8"/>
      </g>
     </g>
     <g id="text_13">
      <text style="font: 10px 'Arial', sans-serif; text-anchor: end" x="52.221875" y="230.373039" transform="rotate(-0 52.221875 230.373039)">ID83I3/H1</text>
     </g>
    </g>
    <g id="ytick_14">
     <g id="line2d_14">
      <g>
       <use xlink:href="#m463e349dad" x="59.221875" y="245.434913" style="stroke: #000000; stroke-width: 0.8"/>
      </g>
     </g>
     <g id="text_14">
      <text style="font: 10px 'Arial', sans-serif; text-anchor: end" x="52.221875" y="248.020069" transform="rotate(-0 52.221875 248.020069)">ID83H2</text>
     </g>
    </g>
    <g id="ytick_15">
     <g id="line2d_15">
      <g>
       <use xlink:href="#m463e349dad" x="59.221875" y="263.081944" style="stroke: #000000; stroke-width: 0.8"/>
      </g>
     </g>
     <g id="text_15">
      <text style="font: 10px 'Arial', sans-serif; text-anchor: end" x="52.221875" y="265.6671" transform="rotate(-0 52.221875 265.6671)">ID83H3</text>
     </g>
    </g>
    <g id="ytick_16">
     <g id="line2d_16">
      <g>
       <use xlink:href="#m463e349dad" x="59.221875" y="280.728974" style="stroke: #000000; stroke-width: 0.8"/>
      </g>
     </g>
     <g id="text_16">
      <text style="font: 10px 'Arial', sans-serif; text-anchor: end" x="52.221875" y="283.31413" transform="rotate(-0 52.221875 283.31413)">ID83H4</text>
     </g>
    </g>
    <g id="ytick_17">
     <g id="line2d_17">
      <g>
       <use xlink:href="#m463e349dad" x="59.221875" y="298.376005" style="stroke: #000000; stroke-width: 0.8"/>
      </g>
     </g>
     <g id="text_17">
      <text style="font: 10px 'Arial', sans-serif; text-anchor: end" x="52.221875" y="300.961161" transform="rotate(-0 52.221875 300.961161)">ID83I4/H5</text>
     </g>
    </g>
   </g>
   <g id="text_18">
    <text style="fill: #262626; font: 10px 'Arial', sans-serif; text-anchor: middle" x="83.551323" y="18.608672" transform="rotate(-0 83.551323 18.608672)">3</text>
   </g>
   <g id="text_19">
    <text style="fill: #262626; font: 10px 'Arial', sans-serif; text-anchor: middle" x="83.551323" y="36.255702" transform="rotate(-0 83.551323 36.255702)">3</text>
   </g>
   <g id="text_20">
    <text style="fill: #262626; font: 10px 'Arial', sans-serif; text-anchor: middle" x="83.551323" y="53.902733" transform="rotate(-0 83.551323 53.902733)">0</text>
   </g>
   <g id="text_21">
    <text style="fill: #262626; font: 10px 'Arial', sans-serif; text-anchor: middle" x="83.551323" y="71.549763" transform="rotate(-0 83.551323 71.549763)">0</text>
   </g>
   <g id="text_22">
    <text style="fill: #262626; font: 10px 'Arial', sans-serif; text-anchor: middle" x="83.551323" y="89.196794" transform="rotate(-0 83.551323 89.196794)">0</text>
   </g>
   <g id="text_23">
    <text style="fill: #262626; font: 10px 'Arial', sans-serif; text-anchor: middle" x="83.551323" y="106.843824" transform="rotate(-0 83.551323 106.843824)">0</text>
   </g>
   <g id="text_24">
    <text style="fill: #262626; font: 10px 'Arial', sans-serif; text-anchor: middle" x="83.551323" y="124.490855" transform="rotate(-0 83.551323 124.490855)">0</text>
   </g>
   <g id="text_25">
    <text style="fill: #262626; font: 10px 'Arial', sans-serif; text-anchor: middle" x="83.551323" y="142.137886" transform="rotate(-0 83.551323 142.137886)">0</text>
   </g>
   <g id="text_26">
    <text style="fill: #262626; font: 10px 'Arial', sans-serif; text-anchor: middle" x="83.551323" y="159.784916" transform="rotate(-0 83.551323 159.784916)">0</text>
   </g>
   <g id="text_27">
    <text style="fill: #ffffff; font: 10px 'Arial', sans-serif; text-anchor: middle" x="83.551323" y="177.431947" transform="rotate(-0 83.551323 177.431947)">74</text>
   </g>
   <g id="text_28">
    <text style="fill: #262626; font: 10px 'Arial', sans-serif; text-anchor: middle" x="83.551323" y="195.078977" transform="rotate(-0 83.551323 195.078977)">0</text>
   </g>
   <g id="text_29">
    <text style="fill: #262626; font: 10px 'Arial', sans-serif; text-anchor: middle" x="83.551323" y="212.726008" transform="rotate(-0 83.551323 212.726008)">0</text>
   </g>
   <g id="text_30">
    <text style="fill: #262626; font: 10px 'Arial', sans-serif; text-anchor: middle" x="83.551323" y="230.373039" transform="rotate(-0 83.551323 230.373039)">0</text>
   </g>
   <g id="text_31">
    <text style="fill: #262626; font: 10px 'Arial', sans-serif; text-anchor: middle" x="83.551323" y="248.020069" transform="rotate(-0 83.551323 248.020069)">0</text>
   </g>
   <g id="text_32">
    <text style="fill: #262626; font: 10px 'Arial', sans-serif; text-anchor: middle" x="83.551323" y="265.6671" transform="rotate(-0 83.551323 265.6671)">0</text>
   </g>
   <g id="text_33">
    <text style="fill: #262626; font: 10px 'Arial', sans-serif; text-anchor: middle" x="83.551323" y="283.31413" transform="rotate(-0 83.551323 283.31413)">0</text>
   </g>
   <g id="text_34">
    <text style="fill: #262626; font: 10px 'Arial', sans-serif; text-anchor: middle" x="83.551323" y="300.961161" transform="rotate(-0 83.551323 300.961161)">0</text>
   </g>
  </g>
  <g id="axes_2">
   <g id="patch_3">
    <path d="M 113.88125 307.19952 
L 162.540145 307.19952 
L 162.540145 7.2 
L 113.88125 7.2 
L 113.88125 307.19952 
z
" style="fill: none"/>
   </g>
   <g id="QuadMesh_2">
    <path d="M 113.88125 7.2 
L 162.540145 7.2 
L 162.540145 24.847031 
L 113.88125 24.847031 
L 113.88125 7.2 
" clip-path="url(#p5d431fb2b2)" style="fill: #a7caa7"/>
    <path d="M 113.88125 24.847031 
L 162.540145 24.847031 
L 162.540145 42.494061 
L 113.88125 42.494061 
L 113.88125 24.847031 
" clip-path="url(#p5d431fb2b2)" style="fill: #b4d2b4"/>
    <path d="M 113.88125 42.494061 
L 162.540145 42.494061 
L 162.540145 60.141092 
L 113.88125 60.141092 
L 113.88125 42.494061 
" clip-path="url(#p5d431fb2b2)" style="fill: #ffffff"/>
    <path d="M 113.88125 60.141092 
L 162.540145 60.141092 
L 162.540145 77.788122 
L 113.88125 77.788122 
L 113.88125 60.141092 
" clip-path="url(#p5d431fb2b2)" style="fill: #ffffff"/>
    <path d="M 113.88125 77.788122 
L 162.540145 77.788122 
L 162.540145 95.435153 
L 113.88125 95.435153 
L 113.88125 77.788122 
" clip-path="url(#p5d431fb2b2)" style="fill: #f2f7f2"/>
    <path d="M 113.88125 95.435153 
L 162.540145 95.435153 
L 162.540145 113.082184 
L 113.88125 113.082184 
L 113.88125 95.435153 
" clip-path="url(#p5d431fb2b2)" style="fill: #d9e8d9"/>
    <path d="M 113.88125 113.082184 
L 162.540145 113.082184 
L 162.540145 130.729214 
L 113.88125 130.729214 
L 113.88125 113.082184 
" clip-path="url(#p5d431fb2b2)" style="fill: #e6f0e6"/>
    <path d="M 113.88125 130.729214 
L 162.540145 130.729214 
L 162.540145 148.376245 
L 113.88125 148.376245 
L 113.88125 130.729214 
" clip-path="url(#p5d431fb2b2)" style="fill: #f2f7f2"/>
    <path d="M 113.88125 148.376245 
L 162.540145 148.376245 
L 162.540145 166.023275 
L 113.88125 166.023275 
L 113.88125 148.376245 
" clip-path="url(#p5d431fb2b2)" style="fill: #ffffff"/>
    <path d="M 113.88125 166.023275 
L 162.540145 166.023275 
L 162.540145 183.670306 
L 113.88125 183.670306 
L 113.88125 166.023275 
" clip-path="url(#p5d431fb2b2)" style="fill: #ffffff"/>
    <path d="M 113.88125 183.670306 
L 162.540145 183.670306 
L 162.540145 201.317336 
L 113.88125 201.317336 
L 113.88125 183.670306 
" clip-path="url(#p5d431fb2b2)" style="fill: #9bc39b"/>
    <path d="M 113.88125 201.317336 
L 162.540145 201.317336 
L 162.540145 218.964367 
L 113.88125 218.964367 
L 113.88125 201.317336 
" clip-path="url(#p5d431fb2b2)" style="fill: #8ebb8e"/>
    <path d="M 113.88125 218.964367 
L 162.540145 218.964367 
L 162.540145 236.611398 
L 113.88125 236.611398 
L 113.88125 218.964367 
" clip-path="url(#p5d431fb2b2)" style="fill: #e6f0e6"/>
    <path d="M 113.88125 236.611398 
L 162.540145 236.611398 
L 162.540145 254.258428 
L 113.88125 254.258428 
L 113.88125 236.611398 
" clip-path="url(#p5d431fb2b2)" style="fill: #ffffff"/>
    <path d="M 113.88125 254.258428 
L 162.540145 254.258428 
L 162.540145 271.905459 
L 113.88125 271.905459 
L 113.88125 254.258428 
" clip-path="url(#p5d431fb2b2)" style="fill: #ffffff"/>
    <path d="M 113.88125 271.905459 
L 162.540145 271.905459 
L 162.540145 289.552489 
L 113.88125 289.552489 
L 113.88125 271.905459 
" clip-path="url(#p5d431fb2b2)" style="fill: #ffffff"/>
    <path d="M 113.88125 289.552489 
L 162.540145 289.552489 
L 162.540145 307.19952 
L 113.88125 307.19952 
L 113.88125 289.552489 
" clip-path="url(#p5d431fb2b2)" style="fill: #d9e8d9"/>
   </g>
   <g id="matplotlib.axis_3"/>
   <g id="matplotlib.axis_4"/>
   <g id="text_35">
    <text style="fill: #262626; font: 10px 'Arial', sans-serif; text-anchor: middle" x="138.210698" y="18.608672" transform="rotate(-0 138.210698 18.608672)">228</text>
   </g>
   <g id="text_36">
    <text style="fill: #262626; font: 10px 'Arial', sans-serif; text-anchor: middle" x="138.210698" y="36.255702" transform="rotate(-0 138.210698 36.255702)">212</text>
   </g>
   <g id="text_37">
    <text style="fill: #262626; font: 10px 'Arial', sans-serif; text-anchor: middle" x="138.210698" y="53.902733" transform="rotate(-0 138.210698 53.902733)">30</text>
   </g>
   <g id="text_38">
    <text style="fill: #262626; font: 10px 'Arial', sans-serif; text-anchor: middle" x="138.210698" y="71.549763" transform="rotate(-0 138.210698 71.549763)">11</text>
   </g>
   <g id="text_39">
    <text style="fill: #262626; font: 10px 'Arial', sans-serif; text-anchor: middle" x="138.210698" y="89.196794" transform="rotate(-0 138.210698 89.196794)">61</text>
   </g>
   <g id="text_40">
    <text style="fill: #262626; font: 10px 'Arial', sans-serif; text-anchor: middle" x="138.210698" y="106.843824" transform="rotate(-0 138.210698 106.843824)">122</text>
   </g>
   <g id="text_41">
    <text style="fill: #262626; font: 10px 'Arial', sans-serif; text-anchor: middle" x="138.210698" y="124.490855" transform="rotate(-0 138.210698 124.490855)">71</text>
   </g>
   <g id="text_42">
    <text style="fill: #262626; font: 10px 'Arial', sans-serif; text-anchor: middle" x="138.210698" y="142.137886" transform="rotate(-0 138.210698 142.137886)">33</text>
   </g>
   <g id="text_43">
    <text style="fill: #262626; font: 10px 'Arial', sans-serif; text-anchor: middle" x="138.210698" y="159.784916" transform="rotate(-0 138.210698 159.784916)">5</text>
   </g>
   <g id="text_44">
    <text style="fill: #262626; font: 10px 'Arial', sans-serif; text-anchor: middle" x="138.210698" y="177.431947" transform="rotate(-0 138.210698 177.431947)">0</text>
   </g>
   <g id="text_45">
    <text style="fill: #262626; font: 10px 'Arial', sans-serif; text-anchor: middle" x="138.210698" y="195.078977" transform="rotate(-0 138.210698 195.078977)">277</text>
   </g>
   <g id="text_46">
    <text style="fill: #262626; font: 10px 'Arial', sans-serif; text-anchor: middle" x="138.210698" y="212.726008" transform="rotate(-0 138.210698 212.726008)">313</text>
   </g>
   <g id="text_47">
    <text style="fill: #262626; font: 10px 'Arial', sans-serif; text-anchor: middle" x="138.210698" y="230.373039" transform="rotate(-0 138.210698 230.373039)">72</text>
   </g>
   <g id="text_48">
    <text style="fill: #262626; font: 10px 'Arial', sans-serif; text-anchor: middle" x="138.210698" y="248.020069" transform="rotate(-0 138.210698 248.020069)">0</text>
   </g>
   <g id="text_49">
    <text style="fill: #262626; font: 10px 'Arial', sans-serif; text-anchor: middle" x="138.210698" y="265.6671" transform="rotate(-0 138.210698 265.6671)">0</text>
   </g>
   <g id="text_50">
    <text style="fill: #262626; font: 10px 'Arial', sans-serif; text-anchor: middle" x="138.210698" y="283.31413" transform="rotate(-0 138.210698 283.31413)">0</text>
   </g>
   <g id="text_51">
    <text style="fill: #262626; font: 10px 'Arial', sans-serif; text-anchor: middle" x="138.210698" y="300.961161" transform="rotate(-0 138.210698 300.961161)">104</text>
   </g>
  </g>
  <g id="axes_3">
   <g id="patch_4">
    <path d="M 168.540625 307.19952 
L 217.19952 307.19952 
L 217.19952 7.2 
L 168.540625 7.2 
L 168.540625 307.19952 
z
" style="fill: none"/>
   </g>
   <g id="QuadMesh_3">
    <path d="M 168.540625 7.2 
L 217.19952 7.2 
L 217.19952 24.847031 
L 168.540625 24.847031 
L 168.540625 7.2 
" clip-path="url(#pe8b86e0e51)" style="fill: #fe90a3"/>
    <path d="M 168.540625 24.847031 
L 217.19952 24.847031 
L 217.19952 42.494061 
L 168.540625 42.494061 
L 168.540625 24.847031 
" clip-path="url(#pe8b86e0e51)" style="fill: #fe90a3"/>
    <path d="M 168.540625 42.494061 
L 217.19952 42.494061 
L 217.19952 60.141092 
L 168.540625 60.141092 
L 168.540625 42.494061 
" clip-path="url(#pe8b86e0e51)" style="fill: #ffffff"/>
    <path d="M 168.540625 60.141092 
L 217.19952 60.141092 
L 217.19952 77.788122 
L 168.540625 77.788122 
L 168.540625 60.141092 
" clip-path="url(#pe8b86e0e51)" style="fill: #ffffff"/>
    <path d="M 168.540625 77.788122 
L 217.19952 77.788122 
L 217.19952 95.435153 
L 168.540625 95.435153 
L 168.540625 77.788122 
" clip-path="url(#pe8b86e0e51)" style="fill: #ffffff"/>
    <path d="M 168.540625 95.435153 
L 217.19952 95.435153 
L 217.19952 113.082184 
L 168.540625 113.082184 
L 168.540625 95.435153 
" clip-path="url(#pe8b86e0e51)" style="fill: #ffffff"/>
    <path d="M 168.540625 113.082184 
L 217.19952 113.082184 
L 217.19952 130.729214 
L 168.540625 130.729214 
L 168.540625 113.082184 
" clip-path="url(#pe8b86e0e51)" style="fill: #ffffff"/>
    <path d="M 168.540625 130.729214 
L 217.19952 130.729214 
L 217.19952 148.376245 
L 168.540625 148.376245 
L 168.540625 130.729214 
" clip-path="url(#pe8b86e0e51)" style="fill: #ffe6eb"/>
    <path d="M 168.540625 148.376245 
L 217.19952 148.376245 
L 217.19952 166.023275 
L 168.540625 166.023275 
L 168.540625 148.376245 
" clip-path="url(#pe8b86e0e51)" style="fill: #ffffff"/>
    <path d="M 168.540625 166.023275 
L 217.19952 166.023275 
L 217.19952 183.670306 
L 168.540625 183.670306 
L 168.540625 166.023275 
" clip-path="url(#pe8b86e0e51)" style="fill: #ffffff"/>
    <path d="M 168.540625 183.670306 
L 217.19952 183.670306 
L 217.19952 201.317336 
L 168.540625 201.317336 
L 168.540625 183.670306 
" clip-path="url(#pe8b86e0e51)" style="fill: #ffffff"/>
    <path d="M 168.540625 201.317336 
L 217.19952 201.317336 
L 217.19952 218.964367 
L 168.540625 218.964367 
L 168.540625 201.317336 
" clip-path="url(#pe8b86e0e51)" style="fill: #ffffff"/>
    <path d="M 168.540625 218.964367 
L 217.19952 218.964367 
L 217.19952 236.611398 
L 168.540625 236.611398 
L 168.540625 218.964367 
" clip-path="url(#pe8b86e0e51)" style="fill: #ffe6eb"/>
    <path d="M 168.540625 236.611398 
L 217.19952 236.611398 
L 217.19952 254.258428 
L 168.540625 254.258428 
L 168.540625 236.611398 
" clip-path="url(#pe8b86e0e51)" style="fill: #ffe6eb"/>
    <path d="M 168.540625 254.258428 
L 217.19952 254.258428 
L 217.19952 271.905459 
L 168.540625 271.905459 
L 168.540625 254.258428 
" clip-path="url(#pe8b86e0e51)" style="fill: #ffffff"/>
    <path d="M 168.540625 271.905459 
L 217.19952 271.905459 
L 217.19952 289.552489 
L 168.540625 289.552489 
L 168.540625 271.905459 
" clip-path="url(#pe8b86e0e51)" style="fill: #fff3f5"/>
    <path d="M 168.540625 289.552489 
L 217.19952 289.552489 
L 217.19952 307.19952 
L 168.540625 307.19952 
L 168.540625 289.552489 
" clip-path="url(#pe8b86e0e51)" style="fill: #fff3f5"/>
   </g>
   <g id="matplotlib.axis_5"/>
   <g id="matplotlib.axis_6"/>
   <g id="text_52">
    <text style="fill: #262626; font: 10px 'Arial', sans-serif; text-anchor: middle" x="192.870072" y="18.608672" transform="rotate(-0 192.870072 18.608672)">24</text>
   </g>
   <g id="text_53">
    <text style="fill: #262626; font: 10px 'Arial', sans-serif; text-anchor: middle" x="192.870072" y="36.255702" transform="rotate(-0 192.870072 36.255702)">24</text>
   </g>
   <g id="text_54">
    <text style="fill: #262626; font: 10px 'Arial', sans-serif; text-anchor: middle" x="192.870072" y="53.902733" transform="rotate(-0 192.870072 53.902733)">0</text>
   </g>
   <g id="text_55">
    <text style="fill: #262626; font: 10px 'Arial', sans-serif; text-anchor: middle" x="192.870072" y="71.549763" transform="rotate(-0 192.870072 71.549763)">0</text>
   </g>
   <g id="text_56">
    <text style="fill: #262626; font: 10px 'Arial', sans-serif; text-anchor: middle" x="192.870072" y="89.196794" transform="rotate(-0 192.870072 89.196794)">0</text>
   </g>
   <g id="text_57">
    <text style="fill: #262626; font: 10px 'Arial', sans-serif; text-anchor: middle" x="192.870072" y="106.843824" transform="rotate(-0 192.870072 106.843824)">0</text>
   </g>
   <g id="text_58">
    <text style="fill: #262626; font: 10px 'Arial', sans-serif; text-anchor: middle" x="192.870072" y="124.490855" transform="rotate(-0 192.870072 124.490855)">1</text>
   </g>
   <g id="text_59">
    <text style="fill: #262626; font: 10px 'Arial', sans-serif; text-anchor: middle" x="192.870072" y="142.137886" transform="rotate(-0 192.870072 142.137886)">5</text>
   </g>
   <g id="text_60">
    <text style="fill: #262626; font: 10px 'Arial', sans-serif; text-anchor: middle" x="192.870072" y="159.784916" transform="rotate(-0 192.870072 159.784916)">0</text>
   </g>
   <g id="text_61">
    <text style="fill: #262626; font: 10px 'Arial', sans-serif; text-anchor: middle" x="192.870072" y="177.431947" transform="rotate(-0 192.870072 177.431947)">0</text>
   </g>
   <g id="text_62">
    <text style="fill: #262626; font: 10px 'Arial', sans-serif; text-anchor: middle" x="192.870072" y="195.078977" transform="rotate(-0 192.870072 195.078977)">0</text>
   </g>
   <g id="text_63">
    <text style="fill: #262626; font: 10px 'Arial', sans-serif; text-anchor: middle" x="192.870072" y="212.726008" transform="rotate(-0 192.870072 212.726008)">0</text>
   </g>
   <g id="text_64">
    <text style="fill: #262626; font: 10px 'Arial', sans-serif; text-anchor: middle" x="192.870072" y="230.373039" transform="rotate(-0 192.870072 230.373039)">6</text>
   </g>
   <g id="text_65">
    <text style="fill: #262626; font: 10px 'Arial', sans-serif; text-anchor: middle" x="192.870072" y="248.020069" transform="rotate(-0 192.870072 248.020069)">5</text>
   </g>
   <g id="text_66">
    <text style="fill: #262626; font: 10px 'Arial', sans-serif; text-anchor: middle" x="192.870072" y="265.6671" transform="rotate(-0 192.870072 265.6671)">2</text>
   </g>
   <g id="text_67">
    <text style="fill: #262626; font: 10px 'Arial', sans-serif; text-anchor: middle" x="192.870072" y="283.31413" transform="rotate(-0 192.870072 283.31413)">4</text>
   </g>
   <g id="text_68">
    <text style="fill: #262626; font: 10px 'Arial', sans-serif; text-anchor: middle" x="192.870072" y="300.961161" transform="rotate(-0 192.870072 300.961161)">4</text>
   </g>
  </g>
 </g>
 <defs>
  <clipPath id="p33b0ec5ab7">
   <rect x="59.221875" y="7.2" width="48.658895" height="299.99952"/>
  </clipPath>
  <clipPath id="p5d431fb2b2">
   <rect x="113.88125" y="7.2" width="48.658895" height="299.99952"/>
  </clipPath>
  <clipPath id="pe8b86e0e51">
   <rect x="168.540625" y="7.2" width="48.658895" height="299.99952"/>
  </clipPath>
 </defs>
</svg>
