<?xml version="1.0" encoding="utf-8" standalone="no"?>
<!DOCTYPE svg PUBLIC "-//W3C//DTD SVG 1.1//EN"
  "http://www.w3.org/Graphics/SVG/1.1/DTD/svg11.dtd">
<svg xmlns:xlink="http://www.w3.org/1999/xlink" width="224.39952pt" height="314.39952pt" viewBox="0 0 224.39952 314.39952" xmlns="http://www.w3.org/2000/svg" version="1.1">
 <metadata>
  <rdf:RDF xmlns:dc="http://purl.org/dc/elements/1.1/" xmlns:cc="http://creativecommons.org/ns#" xmlns:rdf="http://www.w3.org/1999/02/22-rdf-syntax-ns#">
   <cc:Work>
    <dc:type rdf:resource="http://purl.org/dc/dcmitype/StillImage"/>
    <dc:date>2026-05-21T21:13:14.396396</dc:date>
    <dc:format>image/svg+xml</dc:format>
    <dc:creator>
     <cc:Agent>
      <dc:title>Matplotlib v3.7.3, https://matplotlib.org/</dc:title>
     </cc:Agent>
    </dc:creator>
   </cc:Work>
  </rdf:RDF>
 </metadata>
 <defs>
  <style type="text/css">*{stroke-linejoin: round; stroke-linecap: butt}</style>
 </defs>
 <g id="figure_1">
  <g id="patch_1">
   <path d="M 0 314.39952 
L 224.39952 314.39952 
L 224.39952 0 
L 0 0 
L 0 314.39952 
z
" style="fill: none"/>
  </g>
  <g id="axes_1">
   <g id="patch_2">
    <path d="M 59.221875 307.19952 
L 107.88077 307.19952 
L 107.88077 7.2 
L 59.221875 7.2 
L 59.221875 307.19952 
z
" style="fill: none"/>
   </g>
   <g id="QuadMesh_1">
    <path d="M 59.221875 7.2 
L 107.88077 7.2 
L 107.88077 24.847031 
L 59.221875 24.847031 
L 59.221875 7.2 
" clip-path="url(#p2f8e2e528d)" style="fill: #ffffff"/>
    <path d="M 59.221875 24.847031 
L 107.88077 24.847031 
L 107.88077 42.494061 
L 59.221875 42.494061 
L 59.221875 24.847031 
" clip-path="url(#p2f8e2e528d)" style="fill: #ffffff"/>
    <path d="M 59.221875 42.494061 
L 107.88077 42.494061 
L 107.88077 60.141092 
L 59.221875 60.141092 
L 59.221875 42.494061 
" clip-path="url(#p2f8e2e528d)" style="fill: #ffffff"/>
    <path d="M 59.221875 60.141092 
L 107.88077 60.141092 
L 107.88077 77.788122 
L 59.221875 77.788122 
L 59.221875 60.141092 
" clip-path="url(#p2f8e2e528d)" style="fill: #ffffff"/>
    <path d="M 59.221875 77.788122 
L 107.88077 77.788122 
L 107.88077 95.435153 
L 59.221875 95.435153 
L 59.221875 77.788122 
" clip-path="url(#p2f8e2e528d)" style="fill: #ffffff"/>
    <path d="M 59.221875 95.435153 
L 107.88077 95.435153 
L 107.88077 113.082184 
L 59.221875 113.082184 
L 59.221875 95.435153 
" clip-path="url(#p2f8e2e528d)" style="fill: #ffffff"/>
    <path d="M 59.221875 113.082184 
L 107.88077 113.082184 
L 107.88077 130.729214 
L 59.221875 130.729214 
L 59.221875 113.082184 
" clip-path="url(#p2f8e2e528d)" style="fill: #ffffff"/>
    <path d="M 59.221875 130.729214 
L 107.88077 130.729214 
L 107.88077 148.376245 
L 59.221875 148.376245 
L 59.221875 130.729214 
" clip-path="url(#p2f8e2e528d)" style="fill: #ffffff"/>
    <path d="M 59.221875 148.376245 
L 107.88077 148.376245 
L 107.88077 166.023275 
L 59.221875 166.023275 
L 59.221875 148.376245 
" clip-path="url(#p2f8e2e528d)" style="fill: #ffffff"/>
    <path d="M 59.221875 166.023275 
L 107.88077 166.023275 
L 107.88077 183.670306 
L 59.221875 183.670306 
L 59.221875 166.023275 
" clip-path="url(#p2f8e2e528d)" style="fill: #4681b3"/>
    <path d="M 59.221875 183.670306 
L 107.88077 183.670306 
L 107.88077 201.317336 
L 59.221875 201.317336 
L 59.221875 183.670306 
" clip-path="url(#p2f8e2e528d)" style="fill: #ffffff"/>
    <path d="M 59.221875 201.317336 
L 107.88077 201.317336 
L 107.88077 218.964367 
L 59.221875 218.964367 
L 59.221875 201.317336 
" clip-path="url(#p2f8e2e528d)" style="fill: #ffffff"/>
    <path d="M 59.221875 218.964367 
L 107.88077 218.964367 
L 107.88077 236.611398 
L 59.221875 236.611398 
L 59.221875 218.964367 
" clip-path="url(#p2f8e2e528d)" style="fill: #ffffff"/>
    <path d="M 59.221875 236.611398 
L 107.88077 236.611398 
L 107.88077 254.258428 
L 59.221875 254.258428 
L 59.221875 236.611398 
" clip-path="url(#p2f8e2e528d)" style="fill: #ffffff"/>
    <path d="M 59.221875 254.258428 
L 107.88077 254.258428 
L 107.88077 271.905459 
L 59.221875 271.905459 
L 59.221875 254.258428 
" clip-path="url(#p2f8e2e528d)" style="fill: #ffffff"/>
    <path d="M 59.221875 271.905459 
L 107.88077 271.905459 
L 107.88077 289.552489 
L 59.221875 289.552489 
L 59.221875 271.905459 
" clip-path="url(#p2f8e2e528d)" style="fill: #ffffff"/>
    <path d="M 59.221875 289.552489 
L 107.88077 289.552489 
L 107.88077 307.19952 
L 59.221875 307.19952 
L 59.221875 289.552489 
" clip-path="url(#p2f8e2e528d)" style="fill: #ffffff"/>
   </g>
   <g id="matplotlib.axis_1"/>
   <g id="matplotlib.axis_2">
    <g id="ytick_1">
     <g id="line2d_1">
      <defs>
       <path id="mf15454e682" d="M 0 0 
L -3.5 0 
" style="stroke: #000000; stroke-width: 0.8"/>
      </defs>
      <g>
       <use xlink:href="#mf15454e682" x="59.221875" y="16.023515" style="stroke: #000000; stroke-width: 0.8"/>
      </g>
     </g>
     <g id="text_1">
      <!-- ID1 -->
      <g transform="translate(36.660938 18.608672) scale(0.1 -0.1)">
       <defs>
        <path id="ArialMT-49" d="M 597 0 
L 597 4581 
L 1203 4581 
L 1203 0 
L 597 0 
z
" transform="scale(0.015625)"/>
        <path id="ArialMT-44" d="M 494 0 
L 494 4581 
L 2072 4581 
Q 2606 4581 2888 4516 
Q 3281 4425 3559 4188 
Q 3922 3881 4101 3404 
Q 4281 2928 4281 2316 
Q 4281 1794 4159 1391 
Q 4038 988 3847 723 
Q 3656 459 3429 307 
Q 3203 156 2883 78 
Q 2563 0 2147 0 
L 494 0 
z
M 1100 541 
L 2078 541 
Q 2531 541 2789 625 
Q 3047 709 3200 863 
Q 3416 1078 3536 1442 
Q 3656 1806 3656 2325 
Q 3656 3044 3420 3430 
Q 3184 3816 2847 3947 
Q 2603 4041 2063 4041 
L 1100 4041 
L 1100 541 
z
" transform="scale(0.015625)"/>
        <path id="ArialMT-31" d="M 2384 0 
L 1822 0 
L 1822 3584 
Q 1619 3391 1289 3197 
Q 959 3003 697 2906 
L 697 3450 
Q 1169 3672 1522 3987 
Q 1875 4303 2022 4600 
L 2384 4600 
L 2384 0 
z
" transform="scale(0.015625)"/>
       </defs>
       <use xlink:href="#ArialMT-49"/>
       <use xlink:href="#ArialMT-44" x="27.783203"/>
       <use xlink:href="#ArialMT-31" x="100"/>
      </g>
     </g>
    </g>
    <g id="ytick_2">
     <g id="line2d_2">
      <g>
       <use xlink:href="#mf15454e682" x="59.221875" y="33.670546" style="stroke: #000000; stroke-width: 0.8"/>
      </g>
     </g>
     <g id="text_2">
      <!-- ID2 -->
      <g transform="translate(36.660938 36.255702) scale(0.1 -0.1)">
       <defs>
        <path id="ArialMT-32" d="M 3222 541 
L 3222 0 
L 194 0 
Q 188 203 259 391 
Q 375 700 629 1000 
Q 884 1300 1366 1694 
Q 2113 2306 2375 2664 
Q 2638 3022 2638 3341 
Q 2638 3675 2398 3904 
Q 2159 4134 1775 4134 
Q 1369 4134 1125 3890 
Q 881 3647 878 3216 
L 300 3275 
Q 359 3922 746 4261 
Q 1134 4600 1788 4600 
Q 2447 4600 2831 4234 
Q 3216 3869 3216 3328 
Q 3216 3053 3103 2787 
Q 2991 2522 2730 2228 
Q 2469 1934 1863 1422 
Q 1356 997 1212 845 
Q 1069 694 975 541 
L 3222 541 
z
" transform="scale(0.015625)"/>
       </defs>
       <use xlink:href="#ArialMT-49"/>
       <use xlink:href="#ArialMT-44" x="27.783203"/>
       <use xlink:href="#ArialMT-32" x="100"/>
      </g>
     </g>
    </g>
    <g id="ytick_3">
     <g id="line2d_3">
      <g>
       <use xlink:href="#mf15454e682" x="59.221875" y="51.317576" style="stroke: #000000; stroke-width: 0.8"/>
      </g>
     </g>
     <g id="text_3">
      <!-- ID3 -->
      <g transform="translate(36.660938 53.902733) scale(0.1 -0.1)">
       <defs>
        <path id="ArialMT-33" d="M 269 1209 
L 831 1284 
Q 928 806 1161 595 
Q 1394 384 1728 384 
Q 2125 384 2398 659 
Q 2672 934 2672 1341 
Q 2672 1728 2419 1979 
Q 2166 2231 1775 2231 
Q 1616 2231 1378 2169 
L 1441 2663 
Q 1497 2656 1531 2656 
Q 1891 2656 2178 2843 
Q 2466 3031 2466 3422 
Q 2466 3731 2256 3934 
Q 2047 4138 1716 4138 
Q 1388 4138 1169 3931 
Q 950 3725 888 3313 
L 325 3413 
Q 428 3978 793 4289 
Q 1159 4600 1703 4600 
Q 2078 4600 2393 4439 
Q 2709 4278 2876 4000 
Q 3044 3722 3044 3409 
Q 3044 3113 2884 2869 
Q 2725 2625 2413 2481 
Q 2819 2388 3044 2092 
Q 3269 1797 3269 1353 
Q 3269 753 2831 336 
Q 2394 -81 1725 -81 
Q 1122 -81 723 278 
Q 325 638 269 1209 
z
" transform="scale(0.015625)"/>
       </defs>
       <use xlink:href="#ArialMT-49"/>
       <use xlink:href="#ArialMT-44" x="27.783203"/>
       <use xlink:href="#ArialMT-33" x="100"/>
      </g>
     </g>
    </g>
    <g id="ytick_4">
     <g id="line2d_4">
      <g>
       <use xlink:href="#mf15454e682" x="59.221875" y="68.964607" style="stroke: #000000; stroke-width: 0.8"/>
      </g>
     </g>
     <g id="text_4">
      <!-- ID4 -->
      <g transform="translate(36.660938 71.549763) scale(0.1 -0.1)">
       <defs>
        <path id="ArialMT-34" d="M 2069 0 
L 2069 1097 
L 81 1097 
L 81 1613 
L 2172 4581 
L 2631 4581 
L 2631 1613 
L 3250 1613 
L 3250 1097 
L 2631 1097 
L 2631 0 
L 2069 0 
z
M 2069 1613 
L 2069 3678 
L 634 1613 
L 2069 1613 
z
" transform="scale(0.015625)"/>
       </defs>
       <use xlink:href="#ArialMT-49"/>
       <use xlink:href="#ArialMT-44" x="27.783203"/>
       <use xlink:href="#ArialMT-34" x="100"/>
      </g>
     </g>
    </g>
    <g id="ytick_5">
     <g id="line2d_5">
      <g>
       <use xlink:href="#mf15454e682" x="59.221875" y="86.611638" style="stroke: #000000; stroke-width: 0.8"/>
      </g>
     </g>
     <g id="text_5">
      <!-- ID5 -->
      <g transform="translate(36.660938 89.196794) scale(0.1 -0.1)">
       <defs>
        <path id="ArialMT-35" d="M 266 1200 
L 856 1250 
Q 922 819 1161 601 
Q 1400 384 1738 384 
Q 2144 384 2425 690 
Q 2706 997 2706 1503 
Q 2706 1984 2436 2262 
Q 2166 2541 1728 2541 
Q 1456 2541 1237 2417 
Q 1019 2294 894 2097 
L 366 2166 
L 809 4519 
L 3088 4519 
L 3088 3981 
L 1259 3981 
L 1013 2750 
Q 1425 3038 1878 3038 
Q 2478 3038 2890 2622 
Q 3303 2206 3303 1553 
Q 3303 931 2941 478 
Q 2500 -78 1738 -78 
Q 1113 -78 717 272 
Q 322 622 266 1200 
z
" transform="scale(0.015625)"/>
       </defs>
       <use xlink:href="#ArialMT-49"/>
       <use xlink:href="#ArialMT-44" x="27.783203"/>
       <use xlink:href="#ArialMT-35" x="100"/>
      </g>
     </g>
    </g>
    <g id="ytick_6">
     <g id="line2d_6">
      <g>
       <use xlink:href="#mf15454e682" x="59.221875" y="104.258668" style="stroke: #000000; stroke-width: 0.8"/>
      </g>
     </g>
     <g id="text_6">
      <!-- ID8 -->
      <g transform="translate(36.660938 106.843824) scale(0.1 -0.1)">
       <defs>
        <path id="ArialMT-38" d="M 1131 2484 
Q 781 2613 612 2850 
Q 444 3088 444 3419 
Q 444 3919 803 4259 
Q 1163 4600 1759 4600 
Q 2359 4600 2725 4251 
Q 3091 3903 3091 3403 
Q 3091 3084 2923 2848 
Q 2756 2613 2416 2484 
Q 2838 2347 3058 2040 
Q 3278 1734 3278 1309 
Q 3278 722 2862 322 
Q 2447 -78 1769 -78 
Q 1091 -78 675 323 
Q 259 725 259 1325 
Q 259 1772 486 2073 
Q 713 2375 1131 2484 
z
M 1019 3438 
Q 1019 3113 1228 2906 
Q 1438 2700 1772 2700 
Q 2097 2700 2305 2904 
Q 2513 3109 2513 3406 
Q 2513 3716 2298 3927 
Q 2084 4138 1766 4138 
Q 1444 4138 1231 3931 
Q 1019 3725 1019 3438 
z
M 838 1322 
Q 838 1081 952 856 
Q 1066 631 1291 507 
Q 1516 384 1775 384 
Q 2178 384 2440 643 
Q 2703 903 2703 1303 
Q 2703 1709 2433 1975 
Q 2163 2241 1756 2241 
Q 1359 2241 1098 1978 
Q 838 1716 838 1322 
z
" transform="scale(0.015625)"/>
       </defs>
       <use xlink:href="#ArialMT-49"/>
       <use xlink:href="#ArialMT-44" x="27.783203"/>
       <use xlink:href="#ArialMT-38" x="100"/>
      </g>
     </g>
    </g>
    <g id="ytick_7">
     <g id="line2d_7">
      <g>
       <use xlink:href="#mf15454e682" x="59.221875" y="121.905699" style="stroke: #000000; stroke-width: 0.8"/>
      </g>
     </g>
     <g id="text_7">
      <!-- ID9 -->
      <g transform="translate(36.660938 124.490855) scale(0.1 -0.1)">
       <defs>
        <path id="ArialMT-39" d="M 350 1059 
L 891 1109 
Q 959 728 1153 556 
Q 1347 384 1650 384 
Q 1909 384 2104 503 
Q 2300 622 2425 820 
Q 2550 1019 2634 1356 
Q 2719 1694 2719 2044 
Q 2719 2081 2716 2156 
Q 2547 1888 2255 1720 
Q 1963 1553 1622 1553 
Q 1053 1553 659 1965 
Q 266 2378 266 3053 
Q 266 3750 677 4175 
Q 1088 4600 1706 4600 
Q 2153 4600 2523 4359 
Q 2894 4119 3086 3673 
Q 3278 3228 3278 2384 
Q 3278 1506 3087 986 
Q 2897 466 2520 194 
Q 2144 -78 1638 -78 
Q 1100 -78 759 220 
Q 419 519 350 1059 
z
M 2653 3081 
Q 2653 3566 2395 3850 
Q 2138 4134 1775 4134 
Q 1400 4134 1122 3828 
Q 844 3522 844 3034 
Q 844 2597 1108 2323 
Q 1372 2050 1759 2050 
Q 2150 2050 2401 2323 
Q 2653 2597 2653 3081 
z
" transform="scale(0.015625)"/>
       </defs>
       <use xlink:href="#ArialMT-49"/>
       <use xlink:href="#ArialMT-44" x="27.783203"/>
       <use xlink:href="#ArialMT-39" x="100"/>
      </g>
     </g>
    </g>
    <g id="ytick_8">
     <g id="line2d_8">
      <g>
       <use xlink:href="#mf15454e682" x="59.221875" y="139.552729" style="stroke: #000000; stroke-width: 0.8"/>
      </g>
     </g>
     <g id="text_8">
      <!-- ID12 -->
      <g transform="translate(31.1 142.137886) scale(0.1 -0.1)">
       <use xlink:href="#ArialMT-49"/>
       <use xlink:href="#ArialMT-44" x="27.783203"/>
       <use xlink:href="#ArialMT-31" x="100"/>
       <use xlink:href="#ArialMT-32" x="155.615234"/>
      </g>
     </g>
    </g>
    <g id="ytick_9">
     <g id="line2d_9">
      <g>
       <use xlink:href="#mf15454e682" x="59.221875" y="157.19976" style="stroke: #000000; stroke-width: 0.8"/>
      </g>
     </g>
     <g id="text_9">
      <!-- ID17 -->
      <g transform="translate(31.1 159.784916) scale(0.1 -0.1)">
       <defs>
        <path id="ArialMT-37" d="M 303 3981 
L 303 4522 
L 3269 4522 
L 3269 4084 
Q 2831 3619 2401 2847 
Q 1972 2075 1738 1259 
Q 1569 684 1522 0 
L 944 0 
Q 953 541 1156 1306 
Q 1359 2072 1739 2783 
Q 2119 3494 2547 3981 
L 303 3981 
z
" transform="scale(0.015625)"/>
       </defs>
       <use xlink:href="#ArialMT-49"/>
       <use xlink:href="#ArialMT-44" x="27.783203"/>
       <use xlink:href="#ArialMT-31" x="100"/>
       <use xlink:href="#ArialMT-37" x="155.615234"/>
      </g>
     </g>
    </g>
    <g id="ytick_10">
     <g id="line2d_10">
      <g>
       <use xlink:href="#mf15454e682" x="59.221875" y="174.846791" style="stroke: #000000; stroke-width: 0.8"/>
      </g>
     </g>
     <g id="text_10">
      <!-- ID83L1 -->
      <g transform="translate(19.978125 177.431947) scale(0.1 -0.1)">
       <defs>
        <path id="ArialMT-4c" d="M 469 0 
L 469 4581 
L 1075 4581 
L 1075 541 
L 3331 541 
L 3331 0 
L 469 0 
z
" transform="scale(0.015625)"/>
       </defs>
       <use xlink:href="#ArialMT-49"/>
       <use xlink:href="#ArialMT-44" x="27.783203"/>
       <use xlink:href="#ArialMT-38" x="100"/>
       <use xlink:href="#ArialMT-33" x="155.615234"/>
       <use xlink:href="#ArialMT-4c" x="211.230469"/>
       <use xlink:href="#ArialMT-31" x="266.845703"/>
      </g>
     </g>
    </g>
    <g id="ytick_11">
     <g id="line2d_11">
      <g>
       <use xlink:href="#mf15454e682" x="59.221875" y="192.493821" style="stroke: #000000; stroke-width: 0.8"/>
      </g>
     </g>
     <g id="text_11">
      <!-- ID83I1 -->
      <g transform="translate(22.760938 195.078977) scale(0.1 -0.1)">
       <use xlink:href="#ArialMT-49"/>
       <use xlink:href="#ArialMT-44" x="27.783203"/>
       <use xlink:href="#ArialMT-38" x="100"/>
       <use xlink:href="#ArialMT-33" x="155.615234"/>
       <use xlink:href="#ArialMT-49" x="211.230469"/>
       <use xlink:href="#ArialMT-31" x="239.013672"/>
      </g>
     </g>
    </g>
    <g id="ytick_12">
     <g id="line2d_12">
      <g>
       <use xlink:href="#mf15454e682" x="59.221875" y="210.140852" style="stroke: #000000; stroke-width: 0.8"/>
      </g>
     </g>
     <g id="text_12">
      <!-- ID83I2 -->
      <g transform="translate(22.760938 212.726008) scale(0.1 -0.1)">
       <use xlink:href="#ArialMT-49"/>
       <use xlink:href="#ArialMT-44" x="27.783203"/>
       <use xlink:href="#ArialMT-38" x="100"/>
       <use xlink:href="#ArialMT-33" x="155.615234"/>
       <use xlink:href="#ArialMT-49" x="211.230469"/>
       <use xlink:href="#ArialMT-32" x="239.013672"/>
      </g>
     </g>
    </g>
    <g id="ytick_13">
     <g id="line2d_13">
      <g>
       <use xlink:href="#mf15454e682" x="59.221875" y="227.787882" style="stroke: #000000; stroke-width: 0.8"/>
      </g>
     </g>
     <g id="text_13">
      <!-- ID83I3/H1 -->
      <g transform="translate(7.2 230.373039) scale(0.1 -0.1)">
       <defs>
        <path id="ArialMT-2f" d="M 0 -78 
L 1328 4659 
L 1778 4659 
L 453 -78 
L 0 -78 
z
" transform="scale(0.015625)"/>
        <path id="ArialMT-48" d="M 513 0 
L 513 4581 
L 1119 4581 
L 1119 2700 
L 3500 2700 
L 3500 4581 
L 4106 4581 
L 4106 0 
L 3500 0 
L 3500 2159 
L 1119 2159 
L 1119 0 
L 513 0 
z
" transform="scale(0.015625)"/>
       </defs>
       <use xlink:href="#ArialMT-49"/>
       <use xlink:href="#ArialMT-44" x="27.783203"/>
       <use xlink:href="#ArialMT-38" x="100"/>
       <use xlink:href="#ArialMT-33" x="155.615234"/>
       <use xlink:href="#ArialMT-49" x="211.230469"/>
       <use xlink:href="#ArialMT-33" x="239.013672"/>
       <use xlink:href="#ArialMT-2f" x="294.628906"/>
       <use xlink:href="#ArialMT-48" x="322.412109"/>
       <use xlink:href="#ArialMT-31" x="394.628906"/>
      </g>
     </g>
    </g>
    <g id="ytick_14">
     <g id="line2d_14">
      <g>
       <use xlink:href="#mf15454e682" x="59.221875" y="245.434913" style="stroke: #000000; stroke-width: 0.8"/>
      </g>
     </g>
     <g id="text_14">
      <!-- ID83H2 -->
      <g transform="translate(18.317188 248.020069) scale(0.1 -0.1)">
       <use xlink:href="#ArialMT-49"/>
       <use xlink:href="#ArialMT-44" x="27.783203"/>
       <use xlink:href="#ArialMT-38" x="100"/>
       <use xlink:href="#ArialMT-33" x="155.615234"/>
       <use xlink:href="#ArialMT-48" x="211.230469"/>
       <use xlink:href="#ArialMT-32" x="283.447266"/>
      </g>
     </g>
    </g>
    <g id="ytick_15">
     <g id="line2d_15">
      <g>
       <use xlink:href="#mf15454e682" x="59.221875" y="263.081944" style="stroke: #000000; stroke-width: 0.8"/>
      </g>
     </g>
     <g id="text_15">
      <!-- ID83H3 -->
      <g transform="translate(18.317188 265.6671) scale(0.1 -0.1)">
       <use xlink:href="#ArialMT-49"/>
       <use xlink:href="#ArialMT-44" x="27.783203"/>
       <use xlink:href="#ArialMT-38" x="100"/>
       <use xlink:href="#ArialMT-33" x="155.615234"/>
       <use xlink:href="#ArialMT-48" x="211.230469"/>
       <use xlink:href="#ArialMT-33" x="283.447266"/>
      </g>
     </g>
    </g>
    <g id="ytick_16">
     <g id="line2d_16">
      <g>
       <use xlink:href="#mf15454e682" x="59.221875" y="280.728974" style="stroke: #000000; stroke-width: 0.8"/>
      </g>
     </g>
     <g id="text_16">
      <!-- ID83H4 -->
      <g transform="translate(18.317188 283.31413) scale(0.1 -0.1)">
       <use xlink:href="#ArialMT-49"/>
       <use xlink:href="#ArialMT-44" x="27.783203"/>
       <use xlink:href="#ArialMT-38" x="100"/>
       <use xlink:href="#ArialMT-33" x="155.615234"/>
       <use xlink:href="#ArialMT-48" x="211.230469"/>
       <use xlink:href="#ArialMT-34" x="283.447266"/>
      </g>
     </g>
    </g>
    <g id="ytick_17">
     <g id="line2d_17">
      <g>
       <use xlink:href="#mf15454e682" x="59.221875" y="298.376005" style="stroke: #000000; stroke-width: 0.8"/>
      </g>
     </g>
     <g id="text_17">
      <!-- ID83I4/H5 -->
      <g transform="translate(7.2 300.961161) scale(0.1 -0.1)">
       <use xlink:href="#ArialMT-49"/>
       <use xlink:href="#ArialMT-44" x="27.783203"/>
       <use xlink:href="#ArialMT-38" x="100"/>
       <use xlink:href="#ArialMT-33" x="155.615234"/>
       <use xlink:href="#ArialMT-49" x="211.230469"/>
       <use xlink:href="#ArialMT-34" x="239.013672"/>
       <use xlink:href="#ArialMT-2f" x="294.628906"/>
       <use xlink:href="#ArialMT-48" x="322.412109"/>
       <use xlink:href="#ArialMT-35" x="394.628906"/>
      </g>
     </g>
    </g>
   </g>
   <g id="text_18">
    <!-- 3 -->
    <g style="fill: #262626" transform="translate(80.770854 18.608672) scale(0.1 -0.1)">
     <use xlink:href="#ArialMT-33"/>
    </g>
   </g>
   <g id="text_19">
    <!-- 3 -->
    <g style="fill: #262626" transform="translate(80.770854 36.255702) scale(0.1 -0.1)">
     <use xlink:href="#ArialMT-33"/>
    </g>
   </g>
   <g id="text_20">
    <!-- 0 -->
    <g style="fill: #262626" transform="translate(80.770854 53.902733) scale(0.1 -0.1)">
     <defs>
      <path id="ArialMT-30" d="M 266 2259 
Q 266 3072 433 3567 
Q 600 4063 929 4331 
Q 1259 4600 1759 4600 
Q 2128 4600 2406 4451 
Q 2684 4303 2865 4023 
Q 3047 3744 3150 3342 
Q 3253 2941 3253 2259 
Q 3253 1453 3087 958 
Q 2922 463 2592 192 
Q 2263 -78 1759 -78 
Q 1097 -78 719 397 
Q 266 969 266 2259 
z
M 844 2259 
Q 844 1131 1108 757 
Q 1372 384 1759 384 
Q 2147 384 2411 759 
Q 2675 1134 2675 2259 
Q 2675 3391 2411 3762 
Q 2147 4134 1753 4134 
Q 1366 4134 1134 3806 
Q 844 3388 844 2259 
z
" transform="scale(0.015625)"/>
     </defs>
     <use xlink:href="#ArialMT-30"/>
    </g>
   </g>
   <g id="text_21">
    <!-- 0 -->
    <g style="fill: #262626" transform="translate(80.770854 71.549763) scale(0.1 -0.1)">
     <use xlink:href="#ArialMT-30"/>
    </g>
   </g>
   <g id="text_22">
    <!-- 0 -->
    <g style="fill: #262626" transform="translate(80.770854 89.196794) scale(0.1 -0.1)">
     <use xlink:href="#ArialMT-30"/>
    </g>
   </g>
   <g id="text_23">
    <!-- 0 -->
    <g style="fill: #262626" transform="translate(80.770854 106.843824) scale(0.1 -0.1)">
     <use xlink:href="#ArialMT-30"/>
    </g>
   </g>
   <g id="text_24">
    <!-- 0 -->
    <g style="fill: #262626" transform="translate(80.770854 124.490855) scale(0.1 -0.1)">
     <use xlink:href="#ArialMT-30"/>
    </g>
   </g>
   <g id="text_25">
    <!-- 0 -->
    <g style="fill: #262626" transform="translate(80.770854 142.137886) scale(0.1 -0.1)">
     <use xlink:href="#ArialMT-30"/>
    </g>
   </g>
   <g id="text_26">
    <!-- 0 -->
    <g style="fill: #262626" transform="translate(80.770854 159.784916) scale(0.1 -0.1)">
     <use xlink:href="#ArialMT-30"/>
    </g>
   </g>
   <g id="text_27">
    <!-- 74 -->
    <g style="fill: #ffffff" transform="translate(77.990385 177.431947) scale(0.1 -0.1)">
     <use xlink:href="#ArialMT-37"/>
     <use xlink:href="#ArialMT-34" x="55.615234"/>
    </g>
   </g>
   <g id="text_28">
    <!-- 0 -->
    <g style="fill: #262626" transform="translate(80.770854 195.078977) scale(0.1 -0.1)">
     <use xlink:href="#ArialMT-30"/>
    </g>
   </g>
   <g id="text_29">
    <!-- 0 -->
    <g style="fill: #262626" transform="translate(80.770854 212.726008) scale(0.1 -0.1)">
     <use xlink:href="#ArialMT-30"/>
    </g>
   </g>
   <g id="text_30">
    <!-- 0 -->
    <g style="fill: #262626" transform="translate(80.770854 230.373039) scale(0.1 -0.1)">
     <use xlink:href="#ArialMT-30"/>
    </g>
   </g>
   <g id="text_31">
    <!-- 0 -->
    <g style="fill: #262626" transform="translate(80.770854 248.020069) scale(0.1 -0.1)">
     <use xlink:href="#ArialMT-30"/>
    </g>
   </g>
   <g id="text_32">
    <!-- 0 -->
    <g style="fill: #262626" transform="translate(80.770854 265.6671) scale(0.1 -0.1)">
     <use xlink:href="#ArialMT-30"/>
    </g>
   </g>
   <g id="text_33">
    <!-- 0 -->
    <g style="fill: #262626" transform="translate(80.770854 283.31413) scale(0.1 -0.1)">
     <use xlink:href="#ArialMT-30"/>
    </g>
   </g>
   <g id="text_34">
    <!-- 0 -->
    <g style="fill: #262626" transform="translate(80.770854 300.961161) scale(0.1 -0.1)">
     <use xlink:href="#ArialMT-30"/>
    </g>
   </g>
  </g>
  <g id="axes_2">
   <g id="patch_3">
    <path d="M 113.88125 307.19952 
L 162.540145 307.19952 
L 162.540145 7.2 
L 113.88125 7.2 
L 113.88125 307.19952 
z
" style="fill: none"/>
   </g>
   <g id="QuadMesh_2">
    <path d="M 113.88125 7.2 
L 162.540145 7.2 
L 162.540145 24.847031 
L 113.88125 24.847031 
L 113.88125 7.2 
" clip-path="url(#pfe44cb2a2e)" style="fill: #a7caa7"/>
    <path d="M 113.88125 24.847031 
L 162.540145 24.847031 
L 162.540145 42.494061 
L 113.88125 42.494061 
L 113.88125 24.847031 
" clip-path="url(#pfe44cb2a2e)" style="fill: #b4d2b4"/>
    <path d="M 113.88125 42.494061 
L 162.540145 42.494061 
L 162.540145 60.141092 
L 113.88125 60.141092 
L 113.88125 42.494061 
" clip-path="url(#pfe44cb2a2e)" style="fill: #ffffff"/>
    <path d="M 113.88125 60.141092 
L 162.540145 60.141092 
L 162.540145 77.788122 
L 113.88125 77.788122 
L 113.88125 60.141092 
" clip-path="url(#pfe44cb2a2e)" style="fill: #ffffff"/>
    <path d="M 113.88125 77.788122 
L 162.540145 77.788122 
L 162.540145 95.435153 
L 113.88125 95.435153 
L 113.88125 77.788122 
" clip-path="url(#pfe44cb2a2e)" style="fill: #f2f7f2"/>
    <path d="M 113.88125 95.435153 
L 162.540145 95.435153 
L 162.540145 113.082184 
L 113.88125 113.082184 
L 113.88125 95.435153 
" clip-path="url(#pfe44cb2a2e)" style="fill: #d9e8d9"/>
    <path d="M 113.88125 113.082184 
L 162.540145 113.082184 
L 162.540145 130.729214 
L 113.88125 130.729214 
L 113.88125 113.082184 
" clip-path="url(#pfe44cb2a2e)" style="fill: #e6f0e6"/>
    <path d="M 113.88125 130.729214 
L 162.540145 130.729214 
L 162.540145 148.376245 
L 113.88125 148.376245 
L 113.88125 130.729214 
" clip-path="url(#pfe44cb2a2e)" style="fill: #f2f7f2"/>
    <path d="M 113.88125 148.376245 
L 162.540145 148.376245 
L 162.540145 166.023275 
L 113.88125 166.023275 
L 113.88125 148.376245 
" clip-path="url(#pfe44cb2a2e)" style="fill: #ffffff"/>
    <path d="M 113.88125 166.023275 
L 162.540145 166.023275 
L 162.540145 183.670306 
L 113.88125 183.670306 
L 113.88125 166.023275 
" clip-path="url(#pfe44cb2a2e)" style="fill: #ffffff"/>
    <path d="M 113.88125 183.670306 
L 162.540145 183.670306 
L 162.540145 201.317336 
L 113.88125 201.317336 
L 113.88125 183.670306 
" clip-path="url(#pfe44cb2a2e)" style="fill: #9bc39b"/>
    <path d="M 113.88125 201.317336 
L 162.540145 201.317336 
L 162.540145 218.964367 
L 113.88125 218.964367 
L 113.88125 201.317336 
" clip-path="url(#pfe44cb2a2e)" style="fill: #8ebb8e"/>
    <path d="M 113.88125 218.964367 
L 162.540145 218.964367 
L 162.540145 236.611398 
L 113.88125 236.611398 
L 113.88125 218.964367 
" clip-path="url(#pfe44cb2a2e)" style="fill: #e6f0e6"/>
    <path d="M 113.88125 236.611398 
L 162.540145 236.611398 
L 162.540145 254.258428 
L 113.88125 254.258428 
L 113.88125 236.611398 
" clip-path="url(#pfe44cb2a2e)" style="fill: #ffffff"/>
    <path d="M 113.88125 254.258428 
L 162.540145 254.258428 
L 162.540145 271.905459 
L 113.88125 271.905459 
L 113.88125 254.258428 
" clip-path="url(#pfe44cb2a2e)" style="fill: #ffffff"/>
    <path d="M 113.88125 271.905459 
L 162.540145 271.905459 
L 162.540145 289.552489 
L 113.88125 289.552489 
L 113.88125 271.905459 
" clip-path="url(#pfe44cb2a2e)" style="fill: #ffffff"/>
    <path d="M 113.88125 289.552489 
L 162.540145 289.552489 
L 162.540145 307.19952 
L 113.88125 307.19952 
L 113.88125 289.552489 
" clip-path="url(#pfe44cb2a2e)" style="fill: #d9e8d9"/>
   </g>
   <g id="matplotlib.axis_3"/>
   <g id="matplotlib.axis_4"/>
   <g id="text_35">
    <!-- 228 -->
    <g style="fill: #262626" transform="translate(129.869291 18.608672) scale(0.1 -0.1)">
     <use xlink:href="#ArialMT-32"/>
     <use xlink:href="#ArialMT-32" x="55.615234"/>
     <use xlink:href="#ArialMT-38" x="111.230469"/>
    </g>
   </g>
   <g id="text_36">
    <!-- 212 -->
    <g style="fill: #262626" transform="translate(129.869291 36.255702) scale(0.1 -0.1)">
     <use xlink:href="#ArialMT-32"/>
     <use xlink:href="#ArialMT-31" x="55.615234"/>
     <use xlink:href="#ArialMT-32" x="111.230469"/>
    </g>
   </g>
   <g id="text_37">
    <!-- 30 -->
    <g style="fill: #262626" transform="translate(132.64976 53.902733) scale(0.1 -0.1)">
     <use xlink:href="#ArialMT-33"/>
     <use xlink:href="#ArialMT-30" x="55.615234"/>
    </g>
   </g>
   <g id="text_38">
    <!-- 11 -->
    <g style="fill: #262626" transform="translate(133.01851 71.549763) scale(0.1 -0.1)">
     <use xlink:href="#ArialMT-31"/>
     <use xlink:href="#ArialMT-31" x="48.240234"/>
    </g>
   </g>
   <g id="text_39">
    <!-- 61 -->
    <g style="fill: #262626" transform="translate(132.64976 89.196794) scale(0.1 -0.1)">
     <defs>
      <path id="ArialMT-36" d="M 3184 3459 
L 2625 3416 
Q 2550 3747 2413 3897 
Q 2184 4138 1850 4138 
Q 1581 4138 1378 3988 
Q 1113 3794 959 3422 
Q 806 3050 800 2363 
Q 1003 2672 1297 2822 
Q 1591 2972 1913 2972 
Q 2475 2972 2870 2558 
Q 3266 2144 3266 1488 
Q 3266 1056 3080 686 
Q 2894 316 2569 119 
Q 2244 -78 1831 -78 
Q 1128 -78 684 439 
Q 241 956 241 2144 
Q 241 3472 731 4075 
Q 1159 4600 1884 4600 
Q 2425 4600 2770 4297 
Q 3116 3994 3184 3459 
z
M 888 1484 
Q 888 1194 1011 928 
Q 1134 663 1356 523 
Q 1578 384 1822 384 
Q 2178 384 2434 671 
Q 2691 959 2691 1453 
Q 2691 1928 2437 2201 
Q 2184 2475 1800 2475 
Q 1419 2475 1153 2201 
Q 888 1928 888 1484 
z
" transform="scale(0.015625)"/>
     </defs>
     <use xlink:href="#ArialMT-36"/>
     <use xlink:href="#ArialMT-31" x="55.615234"/>
    </g>
   </g>
   <g id="text_40">
    <!-- 122 -->
    <g style="fill: #262626" transform="translate(129.869291 106.843824) scale(0.1 -0.1)">
     <use xlink:href="#ArialMT-31"/>
     <use xlink:href="#ArialMT-32" x="55.615234"/>
     <use xlink:href="#ArialMT-32" x="111.230469"/>
    </g>
   </g>
   <g id="text_41">
    <!-- 71 -->
    <g style="fill: #262626" transform="translate(132.64976 124.490855) scale(0.1 -0.1)">
     <use xlink:href="#ArialMT-37"/>
     <use xlink:href="#ArialMT-31" x="55.615234"/>
    </g>
   </g>
   <g id="text_42">
    <!-- 33 -->
    <g style="fill: #262626" transform="translate(132.64976 142.137886) scale(0.1 -0.1)">
     <use xlink:href="#ArialMT-33"/>
     <use xlink:href="#ArialMT-33" x="55.615234"/>
    </g>
   </g>
   <g id="text_43">
    <!-- 5 -->
    <g style="fill: #262626" transform="translate(135.430229 159.784916) scale(0.1 -0.1)">
     <use xlink:href="#ArialMT-35"/>
    </g>
   </g>
   <g id="text_44">
    <!-- 0 -->
    <g style="fill: #262626" transform="translate(135.430229 177.431947) scale(0.1 -0.1)">
     <use xlink:href="#ArialMT-30"/>
    </g>
   </g>
   <g id="text_45">
    <!-- 277 -->
    <g style="fill: #262626" transform="translate(129.869291 195.078977) scale(0.1 -0.1)">
     <use xlink:href="#ArialMT-32"/>
     <use xlink:href="#ArialMT-37" x="55.615234"/>
     <use xlink:href="#ArialMT-37" x="111.230469"/>
    </g>
   </g>
   <g id="text_46">
    <!-- 313 -->
    <g style="fill: #262626" transform="translate(129.869291 212.726008) scale(0.1 -0.1)">
     <use xlink:href="#ArialMT-33"/>
     <use xlink:href="#ArialMT-31" x="55.615234"/>
     <use xlink:href="#ArialMT-33" x="111.230469"/>
    </g>
   </g>
   <g id="text_47">
    <!-- 72 -->
    <g style="fill: #262626" transform="translate(132.64976 230.373039) scale(0.1 -0.1)">
     <use xlink:href="#ArialMT-37"/>
     <use xlink:href="#ArialMT-32" x="55.615234"/>
    </g>
   </g>
   <g id="text_48">
    <!-- 0 -->
    <g style="fill: #262626" transform="translate(135.430229 248.020069) scale(0.1 -0.1)">
     <use xlink:href="#ArialMT-30"/>
    </g>
   </g>
   <g id="text_49">
    <!-- 0 -->
    <g style="fill: #262626" transform="translate(135.430229 265.6671) scale(0.1 -0.1)">
     <use xlink:href="#ArialMT-30"/>
    </g>
   </g>
   <g id="text_50">
    <!-- 0 -->
    <g style="fill: #262626" transform="translate(135.430229 283.31413) scale(0.1 -0.1)">
     <use xlink:href="#ArialMT-30"/>
    </g>
   </g>
   <g id="text_51">
    <!-- 104 -->
    <g style="fill: #262626" transform="translate(129.869291 300.961161) scale(0.1 -0.1)">
     <use xlink:href="#ArialMT-31"/>
     <use xlink:href="#ArialMT-30" x="55.615234"/>
     <use xlink:href="#ArialMT-34" x="111.230469"/>
    </g>
   </g>
  </g>
  <g id="axes_3">
   <g id="patch_4">
    <path d="M 168.540625 307.19952 
L 217.19952 307.19952 
L 217.19952 7.2 
L 168.540625 7.2 
L 168.540625 307.19952 
z
" style="fill: none"/>
   </g>
   <g id="QuadMesh_3">
    <path d="M 168.540625 7.2 
L 217.19952 7.2 
L 217.19952 24.847031 
L 168.540625 24.847031 
L 168.540625 7.2 
" clip-path="url(#pbbf240bad6)" style="fill: #fe90a3"/>
    <path d="M 168.540625 24.847031 
L 217.19952 24.847031 
L 217.19952 42.494061 
L 168.540625 42.494061 
L 168.540625 24.847031 
" clip-path="url(#pbbf240bad6)" style="fill: #fe90a3"/>
    <path d="M 168.540625 42.494061 
L 217.19952 42.494061 
L 217.19952 60.141092 
L 168.540625 60.141092 
L 168.540625 42.494061 
" clip-path="url(#pbbf240bad6)" style="fill: #ffffff"/>
    <path d="M 168.540625 60.141092 
L 217.19952 60.141092 
L 217.19952 77.788122 
L 168.540625 77.788122 
L 168.540625 60.141092 
" clip-path="url(#pbbf240bad6)" style="fill: #ffffff"/>
    <path d="M 168.540625 77.788122 
L 217.19952 77.788122 
L 217.19952 95.435153 
L 168.540625 95.435153 
L 168.540625 77.788122 
" clip-path="url(#pbbf240bad6)" style="fill: #ffffff"/>
    <path d="M 168.540625 95.435153 
L 217.19952 95.435153 
L 217.19952 113.082184 
L 168.540625 113.082184 
L 168.540625 95.435153 
" clip-path="url(#pbbf240bad6)" style="fill: #ffffff"/>
    <path d="M 168.540625 113.082184 
L 217.19952 113.082184 
L 217.19952 130.729214 
L 168.540625 130.729214 
L 168.540625 113.082184 
" clip-path="url(#pbbf240bad6)" style="fill: #ffffff"/>
    <path d="M 168.540625 130.729214 
L 217.19952 130.729214 
L 217.19952 148.376245 
L 168.540625 148.376245 
L 168.540625 130.729214 
" clip-path="url(#pbbf240bad6)" style="fill: #ffe6eb"/>
    <path d="M 168.540625 148.376245 
L 217.19952 148.376245 
L 217.19952 166.023275 
L 168.540625 166.023275 
L 168.540625 148.376245 
" clip-path="url(#pbbf240bad6)" style="fill: #ffffff"/>
    <path d="M 168.540625 166.023275 
L 217.19952 166.023275 
L 217.19952 183.670306 
L 168.540625 183.670306 
L 168.540625 166.023275 
" clip-path="url(#pbbf240bad6)" style="fill: #ffffff"/>
    <path d="M 168.540625 183.670306 
L 217.19952 183.670306 
L 217.19952 201.317336 
L 168.540625 201.317336 
L 168.540625 183.670306 
" clip-path="url(#pbbf240bad6)" style="fill: #ffffff"/>
    <path d="M 168.540625 201.317336 
L 217.19952 201.317336 
L 217.19952 218.964367 
L 168.540625 218.964367 
L 168.540625 201.317336 
" clip-path="url(#pbbf240bad6)" style="fill: #ffffff"/>
    <path d="M 168.540625 218.964367 
L 217.19952 218.964367 
L 217.19952 236.611398 
L 168.540625 236.611398 
L 168.540625 218.964367 
" clip-path="url(#pbbf240bad6)" style="fill: #ffe6eb"/>
    <path d="M 168.540625 236.611398 
L 217.19952 236.611398 
L 217.19952 254.258428 
L 168.540625 254.258428 
L 168.540625 236.611398 
" clip-path="url(#pbbf240bad6)" style="fill: #ffe6eb"/>
    <path d="M 168.540625 254.258428 
L 217.19952 254.258428 
L 217.19952 271.905459 
L 168.540625 271.905459 
L 168.540625 254.258428 
" clip-path="url(#pbbf240bad6)" style="fill: #ffffff"/>
    <path d="M 168.540625 271.905459 
L 217.19952 271.905459 
L 217.19952 289.552489 
L 168.540625 289.552489 
L 168.540625 271.905459 
" clip-path="url(#pbbf240bad6)" style="fill: #fff3f5"/>
    <path d="M 168.540625 289.552489 
L 217.19952 289.552489 
L 217.19952 307.19952 
L 168.540625 307.19952 
L 168.540625 289.552489 
" clip-path="url(#pbbf240bad6)" style="fill: #fff3f5"/>
   </g>
   <g id="matplotlib.axis_5"/>
   <g id="matplotlib.axis_6"/>
   <g id="text_52">
    <!-- 24 -->
    <g style="fill: #262626" transform="translate(187.309135 18.608672) scale(0.1 -0.1)">
     <use xlink:href="#ArialMT-32"/>
     <use xlink:href="#ArialMT-34" x="55.615234"/>
    </g>
   </g>
   <g id="text_53">
    <!-- 24 -->
    <g style="fill: #262626" transform="translate(187.309135 36.255702) scale(0.1 -0.1)">
     <use xlink:href="#ArialMT-32"/>
     <use xlink:href="#ArialMT-34" x="55.615234"/>
    </g>
   </g>
   <g id="text_54">
    <!-- 0 -->
    <g style="fill: #262626" transform="translate(190.089604 53.902733) scale(0.1 -0.1)">
     <use xlink:href="#ArialMT-30"/>
    </g>
   </g>
   <g id="text_55">
    <!-- 0 -->
    <g style="fill: #262626" transform="translate(190.089604 71.549763) scale(0.1 -0.1)">
     <use xlink:href="#ArialMT-30"/>
    </g>
   </g>
   <g id="text_56">
    <!-- 0 -->
    <g style="fill: #262626" transform="translate(190.089604 89.196794) scale(0.1 -0.1)">
     <use xlink:href="#ArialMT-30"/>
    </g>
   </g>
   <g id="text_57">
    <!-- 0 -->
    <g style="fill: #262626" transform="translate(190.089604 106.843824) scale(0.1 -0.1)">
     <use xlink:href="#ArialMT-30"/>
    </g>
   </g>
   <g id="text_58">
    <!-- 1 -->
    <g style="fill: #262626" transform="translate(190.089604 124.490855) scale(0.1 -0.1)">
     <use xlink:href="#ArialMT-31"/>
    </g>
   </g>
   <g id="text_59">
    <!-- 5 -->
    <g style="fill: #262626" transform="translate(190.089604 142.137886) scale(0.1 -0.1)">
     <use xlink:href="#ArialMT-35"/>
    </g>
   </g>
   <g id="text_60">
    <!-- 0 -->
    <g style="fill: #262626" transform="translate(190.089604 159.784916) scale(0.1 -0.1)">
     <use xlink:href="#ArialMT-30"/>
    </g>
   </g>
   <g id="text_61">
    <!-- 0 -->
    <g style="fill: #262626" transform="translate(190.089604 177.431947) scale(0.1 -0.1)">
     <use xlink:href="#ArialMT-30"/>
    </g>
   </g>
   <g id="text_62">
    <!-- 0 -->
    <g style="fill: #262626" transform="translate(190.089604 195.078977) scale(0.1 -0.1)">
     <use xlink:href="#ArialMT-30"/>
    </g>
   </g>
   <g id="text_63">
    <!-- 0 -->
    <g style="fill: #262626" transform="translate(190.089604 212.726008) scale(0.1 -0.1)">
     <use xlink:href="#ArialMT-30"/>
    </g>
   </g>
   <g id="text_64">
    <!-- 6 -->
    <g style="fill: #262626" transform="translate(190.089604 230.373039) scale(0.1 -0.1)">
     <use xlink:href="#ArialMT-36"/>
    </g>
   </g>
   <g id="text_65">
    <!-- 5 -->
    <g style="fill: #262626" transform="translate(190.089604 248.020069) scale(0.1 -0.1)">
     <use xlink:href="#ArialMT-35"/>
    </g>
   </g>
   <g id="text_66">
    <!-- 2 -->
    <g style="fill: #262626" transform="translate(190.089604 265.6671) scale(0.1 -0.1)">
     <use xlink:href="#ArialMT-32"/>
    </g>
   </g>
   <g id="text_67">
    <!-- 4 -->
    <g style="fill: #262626" transform="translate(190.089604 283.31413) scale(0.1 -0.1)">
     <use xlink:href="#ArialMT-34"/>
    </g>
   </g>
   <g id="text_68">
    <!-- 4 -->
    <g style="fill: #262626" transform="translate(190.089604 300.961161) scale(0.1 -0.1)">
     <use xlink:href="#ArialMT-34"/>
    </g>
   </g>
  </g>
 </g>
 <defs>
  <clipPath id="p2f8e2e528d">
   <rect x="59.221875" y="7.2" width="48.658895" height="299.99952"/>
  </clipPath>
  <clipPath id="pfe44cb2a2e">
   <rect x="113.88125" y="7.2" width="48.658895" height="299.99952"/>
  </clipPath>
  <clipPath id="pbbf240bad6">
   <rect x="168.540625" y="7.2" width="48.658895" height="299.99952"/>
  </clipPath>
 </defs>
</svg>
