<?xml version="1.0" encoding="utf-8" standalone="no"?>
<!DOCTYPE svg PUBLIC "-//W3C//DTD SVG 1.1//EN"
  "http://www.w3.org/Graphics/SVG/1.1/DTD/svg11.dtd">
<svg xmlns:xlink="http://www.w3.org/1999/xlink" width="574.29pt" height="530.255625pt" viewBox="0 0 574.29 530.255625" xmlns="http://www.w3.org/2000/svg" version="1.1">
 <metadata>
  <rdf:RDF xmlns:dc="http://purl.org/dc/elements/1.1/" xmlns:cc="http://creativecommons.org/ns#" xmlns:rdf="http://www.w3.org/1999/02/22-rdf-syntax-ns#">
   <cc:Work>
    <dc:type rdf:resource="http://purl.org/dc/dcmitype/StillImage"/>
    <dc:date>2026-05-21T21:55:58.679178</dc:date>
    <dc:format>image/svg+xml</dc:format>
    <dc:creator>
     <cc:Agent>
      <dc:title>Matplotlib v3.7.3, https://matplotlib.org/</dc:title>
     </cc:Agent>
    </dc:creator>
   </cc:Work>
  </rdf:RDF>
 </metadata>
 <defs>
  <style type="text/css">*{stroke-linejoin: round; stroke-linecap: butt}</style>
 </defs>
 <g id="figure_1">
  <g id="patch_1">
   <path d="M 0 530.255625 
L 574.29 530.255625 
L 574.29 0 
L 0 0 
L 0 530.255625 
z
" style="fill: none"/>
  </g>
  <g id="axes_1">
   <g id="patch_2">
    <path d="M 54.52 478.654375 
L 499.0739 478.654375 
L 499.0739 27.515625 
L 54.52 27.515625 
L 54.52 478.654375 
z
" style="fill: none"/>
   </g>
   <g id="patch_3">
    <path d="M 74.726995 478.654375 
L 85.362256 478.654375 
L 85.362256 478.654375 
L 74.726995 478.654375 
z
" clip-path="url(#p411f8b46cc)" style="fill: #fa8072; fill-opacity: 0.5; stroke: #fcfcfc; stroke-linejoin: miter"/>
   </g>
   <g id="patch_4">
    <path d="M 85.362256 478.654375 
L 95.997517 478.654375 
L 95.997517 478.654375 
L 85.362256 478.654375 
z
" clip-path="url(#p411f8b46cc)" style="fill: #fa8072; fill-opacity: 0.5; stroke: #fcfcfc; stroke-linejoin: miter"/>
   </g>
   <g id="patch_5">
    <path d="M 95.997517 478.654375 
L 106.632778 478.654375 
L 106.632778 478.654375 
L 95.997517 478.654375 
z
" clip-path="url(#p411f8b46cc)" style="fill: #fa8072; fill-opacity: 0.5; stroke: #fcfcfc; stroke-linejoin: miter"/>
   </g>
   <g id="patch_6">
    <path d="M 106.632778 478.654375 
L 117.268039 478.654375 
L 117.268039 478.654375 
L 106.632778 478.654375 
z
" clip-path="url(#p411f8b46cc)" style="fill: #fa8072; fill-opacity: 0.5; stroke: #fcfcfc; stroke-linejoin: miter"/>
   </g>
   <g id="patch_7">
    <path d="M 117.268039 478.654375 
L 127.903299 478.654375 
L 127.903299 478.654375 
L 117.268039 478.654375 
z
" clip-path="url(#p411f8b46cc)" style="fill: #fa8072; fill-opacity: 0.5; stroke: #fcfcfc; stroke-linejoin: miter"/>
   </g>
   <g id="patch_8">
    <path d="M 127.903299 478.654375 
L 138.53856 478.654375 
L 138.53856 478.654375 
L 127.903299 478.654375 
z
" clip-path="url(#p411f8b46cc)" style="fill: #fa8072; fill-opacity: 0.5; stroke: #fcfcfc; stroke-linejoin: miter"/>
   </g>
   <g id="patch_9">
    <path d="M 138.53856 478.654375 
L 149.173821 478.654375 
L 149.173821 478.654375 
L 138.53856 478.654375 
z
" clip-path="url(#p411f8b46cc)" style="fill: #fa8072; fill-opacity: 0.5; stroke: #fcfcfc; stroke-linejoin: miter"/>
   </g>
   <g id="patch_10">
    <path d="M 149.173821 478.654375 
L 159.809082 478.654375 
L 159.809082 478.654375 
L 149.173821 478.654375 
z
" clip-path="url(#p411f8b46cc)" style="fill: #fa8072; fill-opacity: 0.5; stroke: #fcfcfc; stroke-linejoin: miter"/>
   </g>
   <g id="patch_11">
    <path d="M 159.809082 478.654375 
L 170.444342 478.654375 
L 170.444342 478.654375 
L 159.809082 478.654375 
z
" clip-path="url(#p411f8b46cc)" style="fill: #fa8072; fill-opacity: 0.5; stroke: #fcfcfc; stroke-linejoin: miter"/>
   </g>
   <g id="patch_12">
    <path d="M 170.444342 478.654375 
L 181.079603 478.654375 
L 181.079603 478.654375 
L 170.444342 478.654375 
z
" clip-path="url(#p411f8b46cc)" style="fill: #fa8072; fill-opacity: 0.5; stroke: #fcfcfc; stroke-linejoin: miter"/>
   </g>
   <g id="patch_13">
    <path d="M 181.079603 478.654375 
L 191.714864 478.654375 
L 191.714864 478.654375 
L 181.079603 478.654375 
z
" clip-path="url(#p411f8b46cc)" style="fill: #fa8072; fill-opacity: 0.5; stroke: #fcfcfc; stroke-linejoin: miter"/>
   </g>
   <g id="patch_14">
    <path d="M 191.714864 478.654375 
L 202.350125 478.654375 
L 202.350125 478.654375 
L 191.714864 478.654375 
z
" clip-path="url(#p411f8b46cc)" style="fill: #fa8072; fill-opacity: 0.5; stroke: #fcfcfc; stroke-linejoin: miter"/>
   </g>
   <g id="patch_15">
    <path d="M 202.350125 478.654375 
L 212.985385 478.654375 
L 212.985385 478.654375 
L 202.350125 478.654375 
z
" clip-path="url(#p411f8b46cc)" style="fill: #fa8072; fill-opacity: 0.5; stroke: #fcfcfc; stroke-linejoin: miter"/>
   </g>
   <g id="patch_16">
    <path d="M 212.985385 478.654375 
L 223.620646 478.654375 
L 223.620646 478.654375 
L 212.985385 478.654375 
z
" clip-path="url(#p411f8b46cc)" style="fill: #fa8072; fill-opacity: 0.5; stroke: #fcfcfc; stroke-linejoin: miter"/>
   </g>
   <g id="patch_17">
    <path d="M 223.620646 478.654375 
L 234.255907 478.654375 
L 234.255907 478.654375 
L 223.620646 478.654375 
z
" clip-path="url(#p411f8b46cc)" style="fill: #fa8072; fill-opacity: 0.5; stroke: #fcfcfc; stroke-linejoin: miter"/>
   </g>
   <g id="patch_18">
    <path d="M 234.255907 478.654375 
L 244.891168 478.654375 
L 244.891168 478.654375 
L 234.255907 478.654375 
z
" clip-path="url(#p411f8b46cc)" style="fill: #fa8072; fill-opacity: 0.5; stroke: #fcfcfc; stroke-linejoin: miter"/>
   </g>
   <g id="patch_19">
    <path d="M 244.891168 478.654375 
L 255.526428 478.654375 
L 255.526428 478.654375 
L 244.891168 478.654375 
z
" clip-path="url(#p411f8b46cc)" style="fill: #fa8072; fill-opacity: 0.5; stroke: #fcfcfc; stroke-linejoin: miter"/>
   </g>
   <g id="patch_20">
    <path d="M 255.526428 478.654375 
L 266.161689 478.654375 
L 266.161689 478.654375 
L 255.526428 478.654375 
z
" clip-path="url(#p411f8b46cc)" style="fill: #fa8072; fill-opacity: 0.5; stroke: #fcfcfc; stroke-linejoin: miter"/>
   </g>
   <g id="patch_21">
    <path d="M 266.161689 478.654375 
L 276.79695 478.654375 
L 276.79695 478.654375 
L 266.161689 478.654375 
z
" clip-path="url(#p411f8b46cc)" style="fill: #fa8072; fill-opacity: 0.5; stroke: #fcfcfc; stroke-linejoin: miter"/>
   </g>
   <g id="patch_22">
    <path d="M 276.79695 478.654375 
L 287.432211 478.654375 
L 287.432211 468.999185 
L 276.79695 468.999185 
z
" clip-path="url(#p411f8b46cc)" style="fill: #fa8072; fill-opacity: 0.5; stroke: #fcfcfc; stroke-linejoin: miter"/>
   </g>
   <g id="patch_23">
    <path d="M 287.432211 478.654375 
L 298.067472 478.654375 
L 298.067472 449.688805 
L 287.432211 449.688805 
z
" clip-path="url(#p411f8b46cc)" style="fill: #fa8072; fill-opacity: 0.5; stroke: #fcfcfc; stroke-linejoin: miter"/>
   </g>
   <g id="patch_24">
    <path d="M 298.067472 478.654375 
L 308.702732 478.654375 
L 308.702732 468.999185 
L 298.067472 468.999185 
z
" clip-path="url(#p411f8b46cc)" style="fill: #fa8072; fill-opacity: 0.5; stroke: #fcfcfc; stroke-linejoin: miter"/>
   </g>
   <g id="patch_25">
    <path d="M 308.702732 478.654375 
L 319.337993 478.654375 
L 319.337993 468.999185 
L 308.702732 468.999185 
z
" clip-path="url(#p411f8b46cc)" style="fill: #fa8072; fill-opacity: 0.5; stroke: #fcfcfc; stroke-linejoin: miter"/>
   </g>
   <g id="patch_26">
    <path d="M 319.337993 478.654375 
L 329.973254 478.654375 
L 329.973254 478.654375 
L 319.337993 478.654375 
z
" clip-path="url(#p411f8b46cc)" style="fill: #fa8072; fill-opacity: 0.5; stroke: #fcfcfc; stroke-linejoin: miter"/>
   </g>
   <g id="patch_27">
    <path d="M 329.973254 478.654375 
L 340.608515 478.654375 
L 340.608515 464.17159 
L 329.973254 464.17159 
z
" clip-path="url(#p411f8b46cc)" style="fill: #fa8072; fill-opacity: 0.5; stroke: #fcfcfc; stroke-linejoin: miter"/>
   </g>
   <g id="patch_28">
    <path d="M 340.608515 478.654375 
L 351.243775 478.654375 
L 351.243775 473.82678 
L 340.608515 473.82678 
z
" clip-path="url(#p411f8b46cc)" style="fill: #fa8072; fill-opacity: 0.5; stroke: #fcfcfc; stroke-linejoin: miter"/>
   </g>
   <g id="patch_29">
    <path d="M 351.243775 478.654375 
L 361.879036 478.654375 
L 361.879036 468.999185 
L 351.243775 468.999185 
z
" clip-path="url(#p411f8b46cc)" style="fill: #fa8072; fill-opacity: 0.5; stroke: #fcfcfc; stroke-linejoin: miter"/>
   </g>
   <g id="patch_30">
    <path d="M 361.879036 478.654375 
L 372.514297 478.654375 
L 372.514297 464.17159 
L 361.879036 464.17159 
z
" clip-path="url(#p411f8b46cc)" style="fill: #fa8072; fill-opacity: 0.5; stroke: #fcfcfc; stroke-linejoin: miter"/>
   </g>
   <g id="patch_31">
    <path d="M 372.514297 478.654375 
L 383.149558 478.654375 
L 383.149558 459.343995 
L 372.514297 459.343995 
z
" clip-path="url(#p411f8b46cc)" style="fill: #fa8072; fill-opacity: 0.5; stroke: #fcfcfc; stroke-linejoin: miter"/>
   </g>
   <g id="patch_32">
    <path d="M 383.149558 478.654375 
L 393.784818 478.654375 
L 393.784818 478.654375 
L 383.149558 478.654375 
z
" clip-path="url(#p411f8b46cc)" style="fill: #fa8072; fill-opacity: 0.5; stroke: #fcfcfc; stroke-linejoin: miter"/>
   </g>
   <g id="patch_33">
    <path d="M 393.784818 478.654375 
L 404.420079 478.654375 
L 404.420079 468.999185 
L 393.784818 468.999185 
z
" clip-path="url(#p411f8b46cc)" style="fill: #fa8072; fill-opacity: 0.5; stroke: #fcfcfc; stroke-linejoin: miter"/>
   </g>
   <g id="patch_34">
    <path d="M 404.420079 478.654375 
L 415.05534 478.654375 
L 415.05534 468.999185 
L 404.420079 468.999185 
z
" clip-path="url(#p411f8b46cc)" style="fill: #fa8072; fill-opacity: 0.5; stroke: #fcfcfc; stroke-linejoin: miter"/>
   </g>
   <g id="patch_35">
    <path d="M 415.05534 478.654375 
L 425.690601 478.654375 
L 425.690601 478.654375 
L 415.05534 478.654375 
z
" clip-path="url(#p411f8b46cc)" style="fill: #fa8072; fill-opacity: 0.5; stroke: #fcfcfc; stroke-linejoin: miter"/>
   </g>
   <g id="patch_36">
    <path d="M 425.690601 478.654375 
L 436.325861 478.654375 
L 436.325861 478.654375 
L 425.690601 478.654375 
z
" clip-path="url(#p411f8b46cc)" style="fill: #fa8072; fill-opacity: 0.5; stroke: #fcfcfc; stroke-linejoin: miter"/>
   </g>
   <g id="patch_37">
    <path d="M 436.325861 478.654375 
L 446.961122 478.654375 
L 446.961122 454.5164 
L 436.325861 454.5164 
z
" clip-path="url(#p411f8b46cc)" style="fill: #fa8072; fill-opacity: 0.5; stroke: #fcfcfc; stroke-linejoin: miter"/>
   </g>
   <g id="patch_38">
    <path d="M 446.961122 478.654375 
L 457.596383 478.654375 
L 457.596383 478.654375 
L 446.961122 478.654375 
z
" clip-path="url(#p411f8b46cc)" style="fill: #fa8072; fill-opacity: 0.5; stroke: #fcfcfc; stroke-linejoin: miter"/>
   </g>
   <g id="patch_39">
    <path d="M 457.596383 478.654375 
L 468.231644 478.654375 
L 468.231644 478.654375 
L 457.596383 478.654375 
z
" clip-path="url(#p411f8b46cc)" style="fill: #fa8072; fill-opacity: 0.5; stroke: #fcfcfc; stroke-linejoin: miter"/>
   </g>
   <g id="patch_40">
    <path d="M 468.231644 478.654375 
L 478.866905 478.654375 
L 478.866905 473.82678 
L 468.231644 473.82678 
z
" clip-path="url(#p411f8b46cc)" style="fill: #fa8072; fill-opacity: 0.5; stroke: #fcfcfc; stroke-linejoin: miter"/>
   </g>
   <g id="patch_41">
    <path d="M 74.726995 478.654375 
L 85.362256 478.654375 
L 85.362256 478.654375 
L 74.726995 478.654375 
z
" clip-path="url(#p411f8b46cc)" style="fill: #8fbc8f; fill-opacity: 0.5; stroke: #fcfcfc; stroke-linejoin: miter"/>
   </g>
   <g id="patch_42">
    <path d="M 85.362256 478.654375 
L 95.997517 478.654375 
L 95.997517 478.654375 
L 85.362256 478.654375 
z
" clip-path="url(#p411f8b46cc)" style="fill: #8fbc8f; fill-opacity: 0.5; stroke: #fcfcfc; stroke-linejoin: miter"/>
   </g>
   <g id="patch_43">
    <path d="M 95.997517 478.654375 
L 106.632778 478.654375 
L 106.632778 478.654375 
L 95.997517 478.654375 
z
" clip-path="url(#p411f8b46cc)" style="fill: #8fbc8f; fill-opacity: 0.5; stroke: #fcfcfc; stroke-linejoin: miter"/>
   </g>
   <g id="patch_44">
    <path d="M 106.632778 478.654375 
L 117.268039 478.654375 
L 117.268039 478.654375 
L 106.632778 478.654375 
z
" clip-path="url(#p411f8b46cc)" style="fill: #8fbc8f; fill-opacity: 0.5; stroke: #fcfcfc; stroke-linejoin: miter"/>
   </g>
   <g id="patch_45">
    <path d="M 117.268039 478.654375 
L 127.903299 478.654375 
L 127.903299 478.654375 
L 117.268039 478.654375 
z
" clip-path="url(#p411f8b46cc)" style="fill: #8fbc8f; fill-opacity: 0.5; stroke: #fcfcfc; stroke-linejoin: miter"/>
   </g>
   <g id="patch_46">
    <path d="M 127.903299 478.654375 
L 138.53856 478.654375 
L 138.53856 478.654375 
L 127.903299 478.654375 
z
" clip-path="url(#p411f8b46cc)" style="fill: #8fbc8f; fill-opacity: 0.5; stroke: #fcfcfc; stroke-linejoin: miter"/>
   </g>
   <g id="patch_47">
    <path d="M 138.53856 478.654375 
L 149.173821 478.654375 
L 149.173821 478.654375 
L 138.53856 478.654375 
z
" clip-path="url(#p411f8b46cc)" style="fill: #8fbc8f; fill-opacity: 0.5; stroke: #fcfcfc; stroke-linejoin: miter"/>
   </g>
   <g id="patch_48">
    <path d="M 149.173821 478.654375 
L 159.809082 478.654375 
L 159.809082 478.654375 
L 149.173821 478.654375 
z
" clip-path="url(#p411f8b46cc)" style="fill: #8fbc8f; fill-opacity: 0.5; stroke: #fcfcfc; stroke-linejoin: miter"/>
   </g>
   <g id="patch_49">
    <path d="M 159.809082 478.654375 
L 170.444342 478.654375 
L 170.444342 343.481716 
L 159.809082 343.481716 
z
" clip-path="url(#p411f8b46cc)" style="fill: #8fbc8f; fill-opacity: 0.5; stroke: #fcfcfc; stroke-linejoin: miter"/>
   </g>
   <g id="patch_50">
    <path d="M 170.444342 478.654375 
L 181.079603 478.654375 
L 181.079603 237.274626 
L 170.444342 237.274626 
z
" clip-path="url(#p411f8b46cc)" style="fill: #8fbc8f; fill-opacity: 0.5; stroke: #fcfcfc; stroke-linejoin: miter"/>
   </g>
   <g id="patch_51">
    <path d="M 181.079603 478.654375 
L 191.714864 478.654375 
L 191.714864 174.515892 
L 181.079603 174.515892 
z
" clip-path="url(#p411f8b46cc)" style="fill: #8fbc8f; fill-opacity: 0.5; stroke: #fcfcfc; stroke-linejoin: miter"/>
   </g>
   <g id="patch_52">
    <path d="M 191.714864 478.654375 
L 202.350125 478.654375 
L 202.350125 92.446777 
L 191.714864 92.446777 
z
" clip-path="url(#p411f8b46cc)" style="fill: #8fbc8f; fill-opacity: 0.5; stroke: #fcfcfc; stroke-linejoin: miter"/>
   </g>
   <g id="patch_53">
    <path d="M 202.350125 478.654375 
L 212.985385 478.654375 
L 212.985385 48.998423 
L 202.350125 48.998423 
z
" clip-path="url(#p411f8b46cc)" style="fill: #8fbc8f; fill-opacity: 0.5; stroke: #fcfcfc; stroke-linejoin: miter"/>
   </g>
   <g id="patch_54">
    <path d="M 212.985385 478.654375 
L 223.620646 478.654375 
L 223.620646 184.171082 
L 212.985385 184.171082 
z
" clip-path="url(#p411f8b46cc)" style="fill: #8fbc8f; fill-opacity: 0.5; stroke: #fcfcfc; stroke-linejoin: miter"/>
   </g>
   <g id="patch_55">
    <path d="M 223.620646 478.654375 
L 234.255907 478.654375 
L 234.255907 266.240196 
L 223.620646 266.240196 
z
" clip-path="url(#p411f8b46cc)" style="fill: #8fbc8f; fill-opacity: 0.5; stroke: #fcfcfc; stroke-linejoin: miter"/>
   </g>
   <g id="patch_56">
    <path d="M 234.255907 478.654375 
L 244.891168 478.654375 
L 244.891168 285.550576 
L 234.255907 285.550576 
z
" clip-path="url(#p411f8b46cc)" style="fill: #8fbc8f; fill-opacity: 0.5; stroke: #fcfcfc; stroke-linejoin: miter"/>
   </g>
   <g id="patch_57">
    <path d="M 244.891168 478.654375 
L 255.526428 478.654375 
L 255.526428 396.585261 
L 244.891168 396.585261 
z
" clip-path="url(#p411f8b46cc)" style="fill: #8fbc8f; fill-opacity: 0.5; stroke: #fcfcfc; stroke-linejoin: miter"/>
   </g>
   <g id="patch_58">
    <path d="M 255.526428 478.654375 
L 266.161689 478.654375 
L 266.161689 454.5164 
L 255.526428 454.5164 
z
" clip-path="url(#p411f8b46cc)" style="fill: #8fbc8f; fill-opacity: 0.5; stroke: #fcfcfc; stroke-linejoin: miter"/>
   </g>
   <g id="patch_59">
    <path d="M 266.161689 478.654375 
L 276.79695 478.654375 
L 276.79695 430.378425 
L 266.161689 430.378425 
z
" clip-path="url(#p411f8b46cc)" style="fill: #8fbc8f; fill-opacity: 0.5; stroke: #fcfcfc; stroke-linejoin: miter"/>
   </g>
   <g id="patch_60">
    <path d="M 276.79695 478.654375 
L 287.432211 478.654375 
L 287.432211 478.654375 
L 276.79695 478.654375 
z
" clip-path="url(#p411f8b46cc)" style="fill: #8fbc8f; fill-opacity: 0.5; stroke: #fcfcfc; stroke-linejoin: miter"/>
   </g>
   <g id="patch_61">
    <path d="M 287.432211 478.654375 
L 298.067472 478.654375 
L 298.067472 478.654375 
L 287.432211 478.654375 
z
" clip-path="url(#p411f8b46cc)" style="fill: #8fbc8f; fill-opacity: 0.5; stroke: #fcfcfc; stroke-linejoin: miter"/>
   </g>
   <g id="patch_62">
    <path d="M 298.067472 478.654375 
L 308.702732 478.654375 
L 308.702732 478.654375 
L 298.067472 478.654375 
z
" clip-path="url(#p411f8b46cc)" style="fill: #8fbc8f; fill-opacity: 0.5; stroke: #fcfcfc; stroke-linejoin: miter"/>
   </g>
   <g id="patch_63">
    <path d="M 308.702732 478.654375 
L 319.337993 478.654375 
L 319.337993 478.654375 
L 308.702732 478.654375 
z
" clip-path="url(#p411f8b46cc)" style="fill: #8fbc8f; fill-opacity: 0.5; stroke: #fcfcfc; stroke-linejoin: miter"/>
   </g>
   <g id="patch_64">
    <path d="M 319.337993 478.654375 
L 329.973254 478.654375 
L 329.973254 478.654375 
L 319.337993 478.654375 
z
" clip-path="url(#p411f8b46cc)" style="fill: #8fbc8f; fill-opacity: 0.5; stroke: #fcfcfc; stroke-linejoin: miter"/>
   </g>
   <g id="patch_65">
    <path d="M 329.973254 478.654375 
L 340.608515 478.654375 
L 340.608515 478.654375 
L 329.973254 478.654375 
z
" clip-path="url(#p411f8b46cc)" style="fill: #8fbc8f; fill-opacity: 0.5; stroke: #fcfcfc; stroke-linejoin: miter"/>
   </g>
   <g id="patch_66">
    <path d="M 340.608515 478.654375 
L 351.243775 478.654375 
L 351.243775 478.654375 
L 340.608515 478.654375 
z
" clip-path="url(#p411f8b46cc)" style="fill: #8fbc8f; fill-opacity: 0.5; stroke: #fcfcfc; stroke-linejoin: miter"/>
   </g>
   <g id="patch_67">
    <path d="M 351.243775 478.654375 
L 361.879036 478.654375 
L 361.879036 478.654375 
L 351.243775 478.654375 
z
" clip-path="url(#p411f8b46cc)" style="fill: #8fbc8f; fill-opacity: 0.5; stroke: #fcfcfc; stroke-linejoin: miter"/>
   </g>
   <g id="patch_68">
    <path d="M 361.879036 478.654375 
L 372.514297 478.654375 
L 372.514297 478.654375 
L 361.879036 478.654375 
z
" clip-path="url(#p411f8b46cc)" style="fill: #8fbc8f; fill-opacity: 0.5; stroke: #fcfcfc; stroke-linejoin: miter"/>
   </g>
   <g id="patch_69">
    <path d="M 372.514297 478.654375 
L 383.149558 478.654375 
L 383.149558 478.654375 
L 372.514297 478.654375 
z
" clip-path="url(#p411f8b46cc)" style="fill: #8fbc8f; fill-opacity: 0.5; stroke: #fcfcfc; stroke-linejoin: miter"/>
   </g>
   <g id="patch_70">
    <path d="M 383.149558 478.654375 
L 393.784818 478.654375 
L 393.784818 478.654375 
L 383.149558 478.654375 
z
" clip-path="url(#p411f8b46cc)" style="fill: #8fbc8f; fill-opacity: 0.5; stroke: #fcfcfc; stroke-linejoin: miter"/>
   </g>
   <g id="patch_71">
    <path d="M 393.784818 478.654375 
L 404.420079 478.654375 
L 404.420079 478.654375 
L 393.784818 478.654375 
z
" clip-path="url(#p411f8b46cc)" style="fill: #8fbc8f; fill-opacity: 0.5; stroke: #fcfcfc; stroke-linejoin: miter"/>
   </g>
   <g id="patch_72">
    <path d="M 404.420079 478.654375 
L 415.05534 478.654375 
L 415.05534 478.654375 
L 404.420079 478.654375 
z
" clip-path="url(#p411f8b46cc)" style="fill: #8fbc8f; fill-opacity: 0.5; stroke: #fcfcfc; stroke-linejoin: miter"/>
   </g>
   <g id="patch_73">
    <path d="M 415.05534 478.654375 
L 425.690601 478.654375 
L 425.690601 478.654375 
L 415.05534 478.654375 
z
" clip-path="url(#p411f8b46cc)" style="fill: #8fbc8f; fill-opacity: 0.5; stroke: #fcfcfc; stroke-linejoin: miter"/>
   </g>
   <g id="patch_74">
    <path d="M 425.690601 478.654375 
L 436.325861 478.654375 
L 436.325861 478.654375 
L 425.690601 478.654375 
z
" clip-path="url(#p411f8b46cc)" style="fill: #8fbc8f; fill-opacity: 0.5; stroke: #fcfcfc; stroke-linejoin: miter"/>
   </g>
   <g id="patch_75">
    <path d="M 436.325861 478.654375 
L 446.961122 478.654375 
L 446.961122 478.654375 
L 436.325861 478.654375 
z
" clip-path="url(#p411f8b46cc)" style="fill: #8fbc8f; fill-opacity: 0.5; stroke: #fcfcfc; stroke-linejoin: miter"/>
   </g>
   <g id="patch_76">
    <path d="M 446.961122 478.654375 
L 457.596383 478.654375 
L 457.596383 478.654375 
L 446.961122 478.654375 
z
" clip-path="url(#p411f8b46cc)" style="fill: #8fbc8f; fill-opacity: 0.5; stroke: #fcfcfc; stroke-linejoin: miter"/>
   </g>
   <g id="patch_77">
    <path d="M 457.596383 478.654375 
L 468.231644 478.654375 
L 468.231644 478.654375 
L 457.596383 478.654375 
z
" clip-path="url(#p411f8b46cc)" style="fill: #8fbc8f; fill-opacity: 0.5; stroke: #fcfcfc; stroke-linejoin: miter"/>
   </g>
   <g id="patch_78">
    <path d="M 468.231644 478.654375 
L 478.866905 478.654375 
L 478.866905 478.654375 
L 468.231644 478.654375 
z
" clip-path="url(#p411f8b46cc)" style="fill: #8fbc8f; fill-opacity: 0.5; stroke: #fcfcfc; stroke-linejoin: miter"/>
   </g>
   <g id="patch_79">
    <path d="M 74.726995 478.654375 
L 85.362256 478.654375 
L 85.362256 473.82678 
L 74.726995 473.82678 
z
" clip-path="url(#p411f8b46cc)" style="fill: #4682b4; fill-opacity: 0.5; stroke: #fcfcfc; stroke-linejoin: miter"/>
   </g>
   <g id="patch_80">
    <path d="M 85.362256 478.654375 
L 95.997517 478.654375 
L 95.997517 473.82678 
L 85.362256 473.82678 
z
" clip-path="url(#p411f8b46cc)" style="fill: #4682b4; fill-opacity: 0.5; stroke: #fcfcfc; stroke-linejoin: miter"/>
   </g>
   <g id="patch_81">
    <path d="M 95.997517 478.654375 
L 106.632778 478.654375 
L 106.632778 464.17159 
L 95.997517 464.17159 
z
" clip-path="url(#p411f8b46cc)" style="fill: #4682b4; fill-opacity: 0.5; stroke: #fcfcfc; stroke-linejoin: miter"/>
   </g>
   <g id="patch_82">
    <path d="M 106.632778 478.654375 
L 117.268039 478.654375 
L 117.268039 435.20602 
L 106.632778 435.20602 
z
" clip-path="url(#p411f8b46cc)" style="fill: #4682b4; fill-opacity: 0.5; stroke: #fcfcfc; stroke-linejoin: miter"/>
   </g>
   <g id="patch_83">
    <path d="M 117.268039 478.654375 
L 127.903299 478.654375 
L 127.903299 382.102476 
L 117.268039 382.102476 
z
" clip-path="url(#p411f8b46cc)" style="fill: #4682b4; fill-opacity: 0.5; stroke: #fcfcfc; stroke-linejoin: miter"/>
   </g>
   <g id="patch_84">
    <path d="M 127.903299 478.654375 
L 138.53856 478.654375 
L 138.53856 406.24045 
L 127.903299 406.24045 
z
" clip-path="url(#p411f8b46cc)" style="fill: #4682b4; fill-opacity: 0.5; stroke: #fcfcfc; stroke-linejoin: miter"/>
   </g>
   <g id="patch_85">
    <path d="M 138.53856 478.654375 
L 149.173821 478.654375 
L 149.173821 377.274881 
L 138.53856 377.274881 
z
" clip-path="url(#p411f8b46cc)" style="fill: #4682b4; fill-opacity: 0.5; stroke: #fcfcfc; stroke-linejoin: miter"/>
   </g>
   <g id="patch_86">
    <path d="M 149.173821 478.654375 
L 159.809082 478.654375 
L 159.809082 391.757666 
L 149.173821 391.757666 
z
" clip-path="url(#p411f8b46cc)" style="fill: #4682b4; fill-opacity: 0.5; stroke: #fcfcfc; stroke-linejoin: miter"/>
   </g>
   <g id="patch_87">
    <path d="M 159.809082 478.654375 
L 170.444342 478.654375 
L 170.444342 473.82678 
L 159.809082 473.82678 
z
" clip-path="url(#p411f8b46cc)" style="fill: #4682b4; fill-opacity: 0.5; stroke: #fcfcfc; stroke-linejoin: miter"/>
   </g>
   <g id="patch_88">
    <path d="M 170.444342 478.654375 
L 181.079603 478.654375 
L 181.079603 478.654375 
L 170.444342 478.654375 
z
" clip-path="url(#p411f8b46cc)" style="fill: #4682b4; fill-opacity: 0.5; stroke: #fcfcfc; stroke-linejoin: miter"/>
   </g>
   <g id="patch_89">
    <path d="M 181.079603 478.654375 
L 191.714864 478.654375 
L 191.714864 478.654375 
L 181.079603 478.654375 
z
" clip-path="url(#p411f8b46cc)" style="fill: #4682b4; fill-opacity: 0.5; stroke: #fcfcfc; stroke-linejoin: miter"/>
   </g>
   <g id="patch_90">
    <path d="M 191.714864 478.654375 
L 202.350125 478.654375 
L 202.350125 478.654375 
L 191.714864 478.654375 
z
" clip-path="url(#p411f8b46cc)" style="fill: #4682b4; fill-opacity: 0.5; stroke: #fcfcfc; stroke-linejoin: miter"/>
   </g>
   <g id="patch_91">
    <path d="M 202.350125 478.654375 
L 212.985385 478.654375 
L 212.985385 478.654375 
L 202.350125 478.654375 
z
" clip-path="url(#p411f8b46cc)" style="fill: #4682b4; fill-opacity: 0.5; stroke: #fcfcfc; stroke-linejoin: miter"/>
   </g>
   <g id="patch_92">
    <path d="M 212.985385 478.654375 
L 223.620646 478.654375 
L 223.620646 478.654375 
L 212.985385 478.654375 
z
" clip-path="url(#p411f8b46cc)" style="fill: #4682b4; fill-opacity: 0.5; stroke: #fcfcfc; stroke-linejoin: miter"/>
   </g>
   <g id="patch_93">
    <path d="M 223.620646 478.654375 
L 234.255907 478.654375 
L 234.255907 478.654375 
L 223.620646 478.654375 
z
" clip-path="url(#p411f8b46cc)" style="fill: #4682b4; fill-opacity: 0.5; stroke: #fcfcfc; stroke-linejoin: miter"/>
   </g>
   <g id="patch_94">
    <path d="M 234.255907 478.654375 
L 244.891168 478.654375 
L 244.891168 478.654375 
L 234.255907 478.654375 
z
" clip-path="url(#p411f8b46cc)" style="fill: #4682b4; fill-opacity: 0.5; stroke: #fcfcfc; stroke-linejoin: miter"/>
   </g>
   <g id="patch_95">
    <path d="M 244.891168 478.654375 
L 255.526428 478.654375 
L 255.526428 478.654375 
L 244.891168 478.654375 
z
" clip-path="url(#p411f8b46cc)" style="fill: #4682b4; fill-opacity: 0.5; stroke: #fcfcfc; stroke-linejoin: miter"/>
   </g>
   <g id="patch_96">
    <path d="M 255.526428 478.654375 
L 266.161689 478.654375 
L 266.161689 478.654375 
L 255.526428 478.654375 
z
" clip-path="url(#p411f8b46cc)" style="fill: #4682b4; fill-opacity: 0.5; stroke: #fcfcfc; stroke-linejoin: miter"/>
   </g>
   <g id="patch_97">
    <path d="M 266.161689 478.654375 
L 276.79695 478.654375 
L 276.79695 478.654375 
L 266.161689 478.654375 
z
" clip-path="url(#p411f8b46cc)" style="fill: #4682b4; fill-opacity: 0.5; stroke: #fcfcfc; stroke-linejoin: miter"/>
   </g>
   <g id="patch_98">
    <path d="M 276.79695 478.654375 
L 287.432211 478.654375 
L 287.432211 478.654375 
L 276.79695 478.654375 
z
" clip-path="url(#p411f8b46cc)" style="fill: #4682b4; fill-opacity: 0.5; stroke: #fcfcfc; stroke-linejoin: miter"/>
   </g>
   <g id="patch_99">
    <path d="M 287.432211 478.654375 
L 298.067472 478.654375 
L 298.067472 478.654375 
L 287.432211 478.654375 
z
" clip-path="url(#p411f8b46cc)" style="fill: #4682b4; fill-opacity: 0.5; stroke: #fcfcfc; stroke-linejoin: miter"/>
   </g>
   <g id="patch_100">
    <path d="M 298.067472 478.654375 
L 308.702732 478.654375 
L 308.702732 478.654375 
L 298.067472 478.654375 
z
" clip-path="url(#p411f8b46cc)" style="fill: #4682b4; fill-opacity: 0.5; stroke: #fcfcfc; stroke-linejoin: miter"/>
   </g>
   <g id="patch_101">
    <path d="M 308.702732 478.654375 
L 319.337993 478.654375 
L 319.337993 478.654375 
L 308.702732 478.654375 
z
" clip-path="url(#p411f8b46cc)" style="fill: #4682b4; fill-opacity: 0.5; stroke: #fcfcfc; stroke-linejoin: miter"/>
   </g>
   <g id="patch_102">
    <path d="M 319.337993 478.654375 
L 329.973254 478.654375 
L 329.973254 478.654375 
L 319.337993 478.654375 
z
" clip-path="url(#p411f8b46cc)" style="fill: #4682b4; fill-opacity: 0.5; stroke: #fcfcfc; stroke-linejoin: miter"/>
   </g>
   <g id="patch_103">
    <path d="M 329.973254 478.654375 
L 340.608515 478.654375 
L 340.608515 478.654375 
L 329.973254 478.654375 
z
" clip-path="url(#p411f8b46cc)" style="fill: #4682b4; fill-opacity: 0.5; stroke: #fcfcfc; stroke-linejoin: miter"/>
   </g>
   <g id="patch_104">
    <path d="M 340.608515 478.654375 
L 351.243775 478.654375 
L 351.243775 478.654375 
L 340.608515 478.654375 
z
" clip-path="url(#p411f8b46cc)" style="fill: #4682b4; fill-opacity: 0.5; stroke: #fcfcfc; stroke-linejoin: miter"/>
   </g>
   <g id="patch_105">
    <path d="M 351.243775 478.654375 
L 361.879036 478.654375 
L 361.879036 478.654375 
L 351.243775 478.654375 
z
" clip-path="url(#p411f8b46cc)" style="fill: #4682b4; fill-opacity: 0.5; stroke: #fcfcfc; stroke-linejoin: miter"/>
   </g>
   <g id="patch_106">
    <path d="M 361.879036 478.654375 
L 372.514297 478.654375 
L 372.514297 478.654375 
L 361.879036 478.654375 
z
" clip-path="url(#p411f8b46cc)" style="fill: #4682b4; fill-opacity: 0.5; stroke: #fcfcfc; stroke-linejoin: miter"/>
   </g>
   <g id="patch_107">
    <path d="M 372.514297 478.654375 
L 383.149558 478.654375 
L 383.149558 478.654375 
L 372.514297 478.654375 
z
" clip-path="url(#p411f8b46cc)" style="fill: #4682b4; fill-opacity: 0.5; stroke: #fcfcfc; stroke-linejoin: miter"/>
   </g>
   <g id="patch_108">
    <path d="M 383.149558 478.654375 
L 393.784818 478.654375 
L 393.784818 478.654375 
L 383.149558 478.654375 
z
" clip-path="url(#p411f8b46cc)" style="fill: #4682b4; fill-opacity: 0.5; stroke: #fcfcfc; stroke-linejoin: miter"/>
   </g>
   <g id="patch_109">
    <path d="M 393.784818 478.654375 
L 404.420079 478.654375 
L 404.420079 478.654375 
L 393.784818 478.654375 
z
" clip-path="url(#p411f8b46cc)" style="fill: #4682b4; fill-opacity: 0.5; stroke: #fcfcfc; stroke-linejoin: miter"/>
   </g>
   <g id="patch_110">
    <path d="M 404.420079 478.654375 
L 415.05534 478.654375 
L 415.05534 478.654375 
L 404.420079 478.654375 
z
" clip-path="url(#p411f8b46cc)" style="fill: #4682b4; fill-opacity: 0.5; stroke: #fcfcfc; stroke-linejoin: miter"/>
   </g>
   <g id="patch_111">
    <path d="M 415.05534 478.654375 
L 425.690601 478.654375 
L 425.690601 478.654375 
L 415.05534 478.654375 
z
" clip-path="url(#p411f8b46cc)" style="fill: #4682b4; fill-opacity: 0.5; stroke: #fcfcfc; stroke-linejoin: miter"/>
   </g>
   <g id="patch_112">
    <path d="M 425.690601 478.654375 
L 436.325861 478.654375 
L 436.325861 478.654375 
L 425.690601 478.654375 
z
" clip-path="url(#p411f8b46cc)" style="fill: #4682b4; fill-opacity: 0.5; stroke: #fcfcfc; stroke-linejoin: miter"/>
   </g>
   <g id="patch_113">
    <path d="M 436.325861 478.654375 
L 446.961122 478.654375 
L 446.961122 478.654375 
L 436.325861 478.654375 
z
" clip-path="url(#p411f8b46cc)" style="fill: #4682b4; fill-opacity: 0.5; stroke: #fcfcfc; stroke-linejoin: miter"/>
   </g>
   <g id="patch_114">
    <path d="M 446.961122 478.654375 
L 457.596383 478.654375 
L 457.596383 478.654375 
L 446.961122 478.654375 
z
" clip-path="url(#p411f8b46cc)" style="fill: #4682b4; fill-opacity: 0.5; stroke: #fcfcfc; stroke-linejoin: miter"/>
   </g>
   <g id="patch_115">
    <path d="M 457.596383 478.654375 
L 468.231644 478.654375 
L 468.231644 478.654375 
L 457.596383 478.654375 
z
" clip-path="url(#p411f8b46cc)" style="fill: #4682b4; fill-opacity: 0.5; stroke: #fcfcfc; stroke-linejoin: miter"/>
   </g>
   <g id="patch_116">
    <path d="M 468.231644 478.654375 
L 478.866905 478.654375 
L 478.866905 478.654375 
L 468.231644 478.654375 
z
" clip-path="url(#p411f8b46cc)" style="fill: #4682b4; fill-opacity: 0.5; stroke: #fcfcfc; stroke-linejoin: miter"/>
   </g>
   <g id="matplotlib.axis_1">
    <g id="xtick_1">
     <g id="line2d_1">
      <defs>
       <path id="m5fc7c7a81c" d="M 0 0 
L 0 3.5 
" style="stroke: #000000; stroke-width: 0.8"/>
      </defs>
      <g>
       <use xlink:href="#m5fc7c7a81c" x="137.22833" y="478.654375" style="stroke: #000000; stroke-width: 0.8"/>
      </g>
     </g>
     <g id="text_1">
      <!-- 2 -->
      <g transform="translate(132.77958 497.106875) scale(0.16 -0.16)">
       <defs>
        <path id="ArialMT-32" d="M 3222 541 
L 3222 0 
L 194 0 
Q 188 203 259 391 
Q 375 700 629 1000 
Q 884 1300 1366 1694 
Q 2113 2306 2375 2664 
Q 2638 3022 2638 3341 
Q 2638 3675 2398 3904 
Q 2159 4134 1775 4134 
Q 1369 4134 1125 3890 
Q 881 3647 878 3216 
L 300 3275 
Q 359 3922 746 4261 
Q 1134 4600 1788 4600 
Q 2447 4600 2831 4234 
Q 3216 3869 3216 3328 
Q 3216 3053 3103 2787 
Q 2991 2522 2730 2228 
Q 2469 1934 1863 1422 
Q 1356 997 1212 845 
Q 1069 694 975 541 
L 3222 541 
z
" transform="scale(0.015625)"/>
       </defs>
       <use xlink:href="#ArialMT-32"/>
      </g>
     </g>
    </g>
    <g id="xtick_2">
     <g id="line2d_2">
      <g>
       <use xlink:href="#m5fc7c7a81c" x="232.276216" y="478.654375" style="stroke: #000000; stroke-width: 0.8"/>
      </g>
     </g>
     <g id="text_2">
      <!-- 3 -->
      <g transform="translate(227.827466 497.106875) scale(0.16 -0.16)">
       <defs>
        <path id="ArialMT-33" d="M 269 1209 
L 831 1284 
Q 928 806 1161 595 
Q 1394 384 1728 384 
Q 2125 384 2398 659 
Q 2672 934 2672 1341 
Q 2672 1728 2419 1979 
Q 2166 2231 1775 2231 
Q 1616 2231 1378 2169 
L 1441 2663 
Q 1497 2656 1531 2656 
Q 1891 2656 2178 2843 
Q 2466 3031 2466 3422 
Q 2466 3731 2256 3934 
Q 2047 4138 1716 4138 
Q 1388 4138 1169 3931 
Q 950 3725 888 3313 
L 325 3413 
Q 428 3978 793 4289 
Q 1159 4600 1703 4600 
Q 2078 4600 2393 4439 
Q 2709 4278 2876 4000 
Q 3044 3722 3044 3409 
Q 3044 3113 2884 2869 
Q 2725 2625 2413 2481 
Q 2819 2388 3044 2092 
Q 3269 1797 3269 1353 
Q 3269 753 2831 336 
Q 2394 -81 1725 -81 
Q 1122 -81 723 278 
Q 325 638 269 1209 
z
" transform="scale(0.015625)"/>
       </defs>
       <use xlink:href="#ArialMT-33"/>
      </g>
     </g>
    </g>
    <g id="xtick_3">
     <g id="line2d_3">
      <g>
       <use xlink:href="#m5fc7c7a81c" x="327.324103" y="478.654375" style="stroke: #000000; stroke-width: 0.8"/>
      </g>
     </g>
     <g id="text_3">
      <!-- 4 -->
      <g transform="translate(322.875353 497.106875) scale(0.16 -0.16)">
       <defs>
        <path id="ArialMT-34" d="M 2069 0 
L 2069 1097 
L 81 1097 
L 81 1613 
L 2172 4581 
L 2631 4581 
L 2631 1613 
L 3250 1613 
L 3250 1097 
L 2631 1097 
L 2631 0 
L 2069 0 
z
M 2069 1613 
L 2069 3678 
L 634 1613 
L 2069 1613 
z
" transform="scale(0.015625)"/>
       </defs>
       <use xlink:href="#ArialMT-34"/>
      </g>
     </g>
    </g>
    <g id="xtick_4">
     <g id="line2d_4">
      <g>
       <use xlink:href="#m5fc7c7a81c" x="422.371989" y="478.654375" style="stroke: #000000; stroke-width: 0.8"/>
      </g>
     </g>
     <g id="text_4">
      <!-- 5 -->
      <g transform="translate(417.923239 497.106875) scale(0.16 -0.16)">
       <defs>
        <path id="ArialMT-35" d="M 266 1200 
L 856 1250 
Q 922 819 1161 601 
Q 1400 384 1738 384 
Q 2144 384 2425 690 
Q 2706 997 2706 1503 
Q 2706 1984 2436 2262 
Q 2166 2541 1728 2541 
Q 1456 2541 1237 2417 
Q 1019 2294 894 2097 
L 366 2166 
L 809 4519 
L 3088 4519 
L 3088 3981 
L 1259 3981 
L 1013 2750 
Q 1425 3038 1878 3038 
Q 2478 3038 2890 2622 
Q 3303 2206 3303 1553 
Q 3303 931 2941 478 
Q 2500 -78 1738 -78 
Q 1113 -78 717 272 
Q 322 622 266 1200 
z
" transform="scale(0.015625)"/>
       </defs>
       <use xlink:href="#ArialMT-35"/>
      </g>
     </g>
    </g>
    <g id="text_5">
     <!-- Burden (log10) -->
     <g transform="translate(210.650075 518.84625) scale(0.2 -0.2)">
      <defs>
       <path id="ArialMT-42" d="M 469 0 
L 469 4581 
L 2188 4581 
Q 2713 4581 3030 4442 
Q 3347 4303 3526 4014 
Q 3706 3725 3706 3409 
Q 3706 3116 3547 2856 
Q 3388 2597 3066 2438 
Q 3481 2316 3704 2022 
Q 3928 1728 3928 1328 
Q 3928 1006 3792 729 
Q 3656 453 3456 303 
Q 3256 153 2954 76 
Q 2653 0 2216 0 
L 469 0 
z
M 1075 2656 
L 2066 2656 
Q 2469 2656 2644 2709 
Q 2875 2778 2992 2937 
Q 3109 3097 3109 3338 
Q 3109 3566 3000 3739 
Q 2891 3913 2687 3977 
Q 2484 4041 1991 4041 
L 1075 4041 
L 1075 2656 
z
M 1075 541 
L 2216 541 
Q 2509 541 2628 563 
Q 2838 600 2978 687 
Q 3119 775 3209 942 
Q 3300 1109 3300 1328 
Q 3300 1584 3169 1773 
Q 3038 1963 2805 2039 
Q 2572 2116 2134 2116 
L 1075 2116 
L 1075 541 
z
" transform="scale(0.015625)"/>
       <path id="ArialMT-75" d="M 2597 0 
L 2597 488 
Q 2209 -75 1544 -75 
Q 1250 -75 995 37 
Q 741 150 617 320 
Q 494 491 444 738 
Q 409 903 409 1263 
L 409 3319 
L 972 3319 
L 972 1478 
Q 972 1038 1006 884 
Q 1059 663 1231 536 
Q 1403 409 1656 409 
Q 1909 409 2131 539 
Q 2353 669 2445 892 
Q 2538 1116 2538 1541 
L 2538 3319 
L 3100 3319 
L 3100 0 
L 2597 0 
z
" transform="scale(0.015625)"/>
       <path id="ArialMT-72" d="M 416 0 
L 416 3319 
L 922 3319 
L 922 2816 
Q 1116 3169 1280 3281 
Q 1444 3394 1641 3394 
Q 1925 3394 2219 3213 
L 2025 2691 
Q 1819 2813 1613 2813 
Q 1428 2813 1281 2702 
Q 1134 2591 1072 2394 
Q 978 2094 978 1738 
L 978 0 
L 416 0 
z
" transform="scale(0.015625)"/>
       <path id="ArialMT-64" d="M 2575 0 
L 2575 419 
Q 2259 -75 1647 -75 
Q 1250 -75 917 144 
Q 584 363 401 755 
Q 219 1147 219 1656 
Q 219 2153 384 2558 
Q 550 2963 881 3178 
Q 1213 3394 1622 3394 
Q 1922 3394 2156 3267 
Q 2391 3141 2538 2938 
L 2538 4581 
L 3097 4581 
L 3097 0 
L 2575 0 
z
M 797 1656 
Q 797 1019 1065 703 
Q 1334 388 1700 388 
Q 2069 388 2326 689 
Q 2584 991 2584 1609 
Q 2584 2291 2321 2609 
Q 2059 2928 1675 2928 
Q 1300 2928 1048 2622 
Q 797 2316 797 1656 
z
" transform="scale(0.015625)"/>
       <path id="ArialMT-65" d="M 2694 1069 
L 3275 997 
Q 3138 488 2766 206 
Q 2394 -75 1816 -75 
Q 1088 -75 661 373 
Q 234 822 234 1631 
Q 234 2469 665 2931 
Q 1097 3394 1784 3394 
Q 2450 3394 2872 2941 
Q 3294 2488 3294 1666 
Q 3294 1616 3291 1516 
L 816 1516 
Q 847 969 1125 678 
Q 1403 388 1819 388 
Q 2128 388 2347 550 
Q 2566 713 2694 1069 
z
M 847 1978 
L 2700 1978 
Q 2663 2397 2488 2606 
Q 2219 2931 1791 2931 
Q 1403 2931 1139 2672 
Q 875 2413 847 1978 
z
" transform="scale(0.015625)"/>
       <path id="ArialMT-6e" d="M 422 0 
L 422 3319 
L 928 3319 
L 928 2847 
Q 1294 3394 1984 3394 
Q 2284 3394 2536 3286 
Q 2788 3178 2913 3003 
Q 3038 2828 3088 2588 
Q 3119 2431 3119 2041 
L 3119 0 
L 2556 0 
L 2556 2019 
Q 2556 2363 2490 2533 
Q 2425 2703 2258 2804 
Q 2091 2906 1866 2906 
Q 1506 2906 1245 2678 
Q 984 2450 984 1813 
L 984 0 
L 422 0 
z
" transform="scale(0.015625)"/>
       <path id="ArialMT-20" transform="scale(0.015625)"/>
       <path id="ArialMT-28" d="M 1497 -1347 
Q 1031 -759 709 28 
Q 388 816 388 1659 
Q 388 2403 628 3084 
Q 909 3875 1497 4659 
L 1900 4659 
Q 1522 4009 1400 3731 
Q 1209 3300 1100 2831 
Q 966 2247 966 1656 
Q 966 153 1900 -1347 
L 1497 -1347 
z
" transform="scale(0.015625)"/>
       <path id="ArialMT-6c" d="M 409 0 
L 409 4581 
L 972 4581 
L 972 0 
L 409 0 
z
" transform="scale(0.015625)"/>
       <path id="ArialMT-6f" d="M 213 1659 
Q 213 2581 725 3025 
Q 1153 3394 1769 3394 
Q 2453 3394 2887 2945 
Q 3322 2497 3322 1706 
Q 3322 1066 3130 698 
Q 2938 331 2570 128 
Q 2203 -75 1769 -75 
Q 1072 -75 642 372 
Q 213 819 213 1659 
z
M 791 1659 
Q 791 1022 1069 705 
Q 1347 388 1769 388 
Q 2188 388 2466 706 
Q 2744 1025 2744 1678 
Q 2744 2294 2464 2611 
Q 2184 2928 1769 2928 
Q 1347 2928 1069 2612 
Q 791 2297 791 1659 
z
" transform="scale(0.015625)"/>
       <path id="ArialMT-67" d="M 319 -275 
L 866 -356 
Q 900 -609 1056 -725 
Q 1266 -881 1628 -881 
Q 2019 -881 2231 -725 
Q 2444 -569 2519 -288 
Q 2563 -116 2559 434 
Q 2191 0 1641 0 
Q 956 0 581 494 
Q 206 988 206 1678 
Q 206 2153 378 2554 
Q 550 2956 876 3175 
Q 1203 3394 1644 3394 
Q 2231 3394 2613 2919 
L 2613 3319 
L 3131 3319 
L 3131 450 
Q 3131 -325 2973 -648 
Q 2816 -972 2473 -1159 
Q 2131 -1347 1631 -1347 
Q 1038 -1347 672 -1080 
Q 306 -813 319 -275 
z
M 784 1719 
Q 784 1066 1043 766 
Q 1303 466 1694 466 
Q 2081 466 2343 764 
Q 2606 1063 2606 1700 
Q 2606 2309 2336 2618 
Q 2066 2928 1684 2928 
Q 1309 2928 1046 2623 
Q 784 2319 784 1719 
z
" transform="scale(0.015625)"/>
       <path id="ArialMT-31" d="M 2384 0 
L 1822 0 
L 1822 3584 
Q 1619 3391 1289 3197 
Q 959 3003 697 2906 
L 697 3450 
Q 1169 3672 1522 3987 
Q 1875 4303 2022 4600 
L 2384 4600 
L 2384 0 
z
" transform="scale(0.015625)"/>
       <path id="ArialMT-30" d="M 266 2259 
Q 266 3072 433 3567 
Q 600 4063 929 4331 
Q 1259 4600 1759 4600 
Q 2128 4600 2406 4451 
Q 2684 4303 2865 4023 
Q 3047 3744 3150 3342 
Q 3253 2941 3253 2259 
Q 3253 1453 3087 958 
Q 2922 463 2592 192 
Q 2263 -78 1759 -78 
Q 1097 -78 719 397 
Q 266 969 266 2259 
z
M 844 2259 
Q 844 1131 1108 757 
Q 1372 384 1759 384 
Q 2147 384 2411 759 
Q 2675 1134 2675 2259 
Q 2675 3391 2411 3762 
Q 2147 4134 1753 4134 
Q 1366 4134 1134 3806 
Q 844 3388 844 2259 
z
" transform="scale(0.015625)"/>
       <path id="ArialMT-29" d="M 791 -1347 
L 388 -1347 
Q 1322 153 1322 1656 
Q 1322 2244 1188 2822 
Q 1081 3291 891 3722 
Q 769 4003 388 4659 
L 791 4659 
Q 1378 3875 1659 3084 
Q 1900 2403 1900 1659 
Q 1900 816 1576 28 
Q 1253 -759 791 -1347 
z
" transform="scale(0.015625)"/>
      </defs>
      <use xlink:href="#ArialMT-42"/>
      <use xlink:href="#ArialMT-75" x="66.699219"/>
      <use xlink:href="#ArialMT-72" x="122.314453"/>
      <use xlink:href="#ArialMT-64" x="155.615234"/>
      <use xlink:href="#ArialMT-65" x="211.230469"/>
      <use xlink:href="#ArialMT-6e" x="266.845703"/>
      <use xlink:href="#ArialMT-20" x="322.460938"/>
      <use xlink:href="#ArialMT-28" x="350.244141"/>
      <use xlink:href="#ArialMT-6c" x="383.544922"/>
      <use xlink:href="#ArialMT-6f" x="405.761719"/>
      <use xlink:href="#ArialMT-67" x="461.376953"/>
      <use xlink:href="#ArialMT-31" x="516.992188"/>
      <use xlink:href="#ArialMT-30" x="572.607422"/>
      <use xlink:href="#ArialMT-29" x="628.222656"/>
     </g>
    </g>
   </g>
   <g id="matplotlib.axis_2">
    <g id="ytick_1">
     <g id="line2d_5">
      <defs>
       <path id="m401f9c9939" d="M 0 0 
L -3.5 0 
" style="stroke: #000000; stroke-width: 0.8"/>
      </defs>
      <g>
       <use xlink:href="#m401f9c9939" x="54.52" y="478.654375" style="stroke: #000000; stroke-width: 0.8"/>
      </g>
     </g>
     <g id="text_6">
      <!-- 0 -->
      <g transform="translate(38.6225 484.380625) scale(0.16 -0.16)">
       <use xlink:href="#ArialMT-30"/>
      </g>
     </g>
    </g>
    <g id="ytick_2">
     <g id="line2d_6">
      <g>
       <use xlink:href="#m401f9c9939" x="54.52" y="382.102476" style="stroke: #000000; stroke-width: 0.8"/>
      </g>
     </g>
     <g id="text_7">
      <!-- 20 -->
      <g transform="translate(29.725 387.828726) scale(0.16 -0.16)">
       <use xlink:href="#ArialMT-32"/>
       <use xlink:href="#ArialMT-30" x="55.615234"/>
      </g>
     </g>
    </g>
    <g id="ytick_3">
     <g id="line2d_7">
      <g>
       <use xlink:href="#m401f9c9939" x="54.52" y="285.550576" style="stroke: #000000; stroke-width: 0.8"/>
      </g>
     </g>
     <g id="text_8">
      <!-- 40 -->
      <g transform="translate(29.725 291.276826) scale(0.16 -0.16)">
       <use xlink:href="#ArialMT-34"/>
       <use xlink:href="#ArialMT-30" x="55.615234"/>
      </g>
     </g>
    </g>
    <g id="ytick_4">
     <g id="line2d_8">
      <g>
       <use xlink:href="#m401f9c9939" x="54.52" y="188.998677" style="stroke: #000000; stroke-width: 0.8"/>
      </g>
     </g>
     <g id="text_9">
      <!-- 60 -->
      <g transform="translate(29.725 194.724927) scale(0.16 -0.16)">
       <defs>
        <path id="ArialMT-36" d="M 3184 3459 
L 2625 3416 
Q 2550 3747 2413 3897 
Q 2184 4138 1850 4138 
Q 1581 4138 1378 3988 
Q 1113 3794 959 3422 
Q 806 3050 800 2363 
Q 1003 2672 1297 2822 
Q 1591 2972 1913 2972 
Q 2475 2972 2870 2558 
Q 3266 2144 3266 1488 
Q 3266 1056 3080 686 
Q 2894 316 2569 119 
Q 2244 -78 1831 -78 
Q 1128 -78 684 439 
Q 241 956 241 2144 
Q 241 3472 731 4075 
Q 1159 4600 1884 4600 
Q 2425 4600 2770 4297 
Q 3116 3994 3184 3459 
z
M 888 1484 
Q 888 1194 1011 928 
Q 1134 663 1356 523 
Q 1578 384 1822 384 
Q 2178 384 2434 671 
Q 2691 959 2691 1453 
Q 2691 1928 2437 2201 
Q 2184 2475 1800 2475 
Q 1419 2475 1153 2201 
Q 888 1928 888 1484 
z
" transform="scale(0.015625)"/>
       </defs>
       <use xlink:href="#ArialMT-36"/>
       <use xlink:href="#ArialMT-30" x="55.615234"/>
      </g>
     </g>
    </g>
    <g id="ytick_5">
     <g id="line2d_9">
      <g>
       <use xlink:href="#m401f9c9939" x="54.52" y="92.446777" style="stroke: #000000; stroke-width: 0.8"/>
      </g>
     </g>
     <g id="text_10">
      <!-- 80 -->
      <g transform="translate(29.725 98.173027) scale(0.16 -0.16)">
       <defs>
        <path id="ArialMT-38" d="M 1131 2484 
Q 781 2613 612 2850 
Q 444 3088 444 3419 
Q 444 3919 803 4259 
Q 1163 4600 1759 4600 
Q 2359 4600 2725 4251 
Q 3091 3903 3091 3403 
Q 3091 3084 2923 2848 
Q 2756 2613 2416 2484 
Q 2838 2347 3058 2040 
Q 3278 1734 3278 1309 
Q 3278 722 2862 322 
Q 2447 -78 1769 -78 
Q 1091 -78 675 323 
Q 259 725 259 1325 
Q 259 1772 486 2073 
Q 713 2375 1131 2484 
z
M 1019 3438 
Q 1019 3113 1228 2906 
Q 1438 2700 1772 2700 
Q 2097 2700 2305 2904 
Q 2513 3109 2513 3406 
Q 2513 3716 2298 3927 
Q 2084 4138 1766 4138 
Q 1444 4138 1231 3931 
Q 1019 3725 1019 3438 
z
M 838 1322 
Q 838 1081 952 856 
Q 1066 631 1291 507 
Q 1516 384 1775 384 
Q 2178 384 2440 643 
Q 2703 903 2703 1303 
Q 2703 1709 2433 1975 
Q 2163 2241 1756 2241 
Q 1359 2241 1098 1978 
Q 838 1716 838 1322 
z
" transform="scale(0.015625)"/>
       </defs>
       <use xlink:href="#ArialMT-38"/>
       <use xlink:href="#ArialMT-30" x="55.615234"/>
      </g>
     </g>
    </g>
    <g id="text_11">
     <!-- Density -->
     <g transform="translate(21.515625 286.42875) rotate(-90) scale(0.2 -0.2)">
      <defs>
       <path id="ArialMT-44" d="M 494 0 
L 494 4581 
L 2072 4581 
Q 2606 4581 2888 4516 
Q 3281 4425 3559 4188 
Q 3922 3881 4101 3404 
Q 4281 2928 4281 2316 
Q 4281 1794 4159 1391 
Q 4038 988 3847 723 
Q 3656 459 3429 307 
Q 3203 156 2883 78 
Q 2563 0 2147 0 
L 494 0 
z
M 1100 541 
L 2078 541 
Q 2531 541 2789 625 
Q 3047 709 3200 863 
Q 3416 1078 3536 1442 
Q 3656 1806 3656 2325 
Q 3656 3044 3420 3430 
Q 3184 3816 2847 3947 
Q 2603 4041 2063 4041 
L 1100 4041 
L 1100 541 
z
" transform="scale(0.015625)"/>
       <path id="ArialMT-73" d="M 197 991 
L 753 1078 
Q 800 744 1014 566 
Q 1228 388 1613 388 
Q 2000 388 2187 545 
Q 2375 703 2375 916 
Q 2375 1106 2209 1216 
Q 2094 1291 1634 1406 
Q 1016 1563 777 1677 
Q 538 1791 414 1992 
Q 291 2194 291 2438 
Q 291 2659 392 2848 
Q 494 3038 669 3163 
Q 800 3259 1026 3326 
Q 1253 3394 1513 3394 
Q 1903 3394 2198 3281 
Q 2494 3169 2634 2976 
Q 2775 2784 2828 2463 
L 2278 2388 
Q 2241 2644 2061 2787 
Q 1881 2931 1553 2931 
Q 1166 2931 1000 2803 
Q 834 2675 834 2503 
Q 834 2394 903 2306 
Q 972 2216 1119 2156 
Q 1203 2125 1616 2013 
Q 2213 1853 2448 1751 
Q 2684 1650 2818 1456 
Q 2953 1263 2953 975 
Q 2953 694 2789 445 
Q 2625 197 2315 61 
Q 2006 -75 1616 -75 
Q 969 -75 630 194 
Q 291 463 197 991 
z
" transform="scale(0.015625)"/>
       <path id="ArialMT-69" d="M 425 3934 
L 425 4581 
L 988 4581 
L 988 3934 
L 425 3934 
z
M 425 0 
L 425 3319 
L 988 3319 
L 988 0 
L 425 0 
z
" transform="scale(0.015625)"/>
       <path id="ArialMT-74" d="M 1650 503 
L 1731 6 
Q 1494 -44 1306 -44 
Q 1000 -44 831 53 
Q 663 150 594 308 
Q 525 466 525 972 
L 525 2881 
L 113 2881 
L 113 3319 
L 525 3319 
L 525 4141 
L 1084 4478 
L 1084 3319 
L 1650 3319 
L 1650 2881 
L 1084 2881 
L 1084 941 
Q 1084 700 1114 631 
Q 1144 563 1211 522 
Q 1278 481 1403 481 
Q 1497 481 1650 503 
z
" transform="scale(0.015625)"/>
       <path id="ArialMT-79" d="M 397 -1278 
L 334 -750 
Q 519 -800 656 -800 
Q 844 -800 956 -737 
Q 1069 -675 1141 -563 
Q 1194 -478 1313 -144 
Q 1328 -97 1363 -6 
L 103 3319 
L 709 3319 
L 1400 1397 
Q 1534 1031 1641 628 
Q 1738 1016 1872 1384 
L 2581 3319 
L 3144 3319 
L 1881 -56 
Q 1678 -603 1566 -809 
Q 1416 -1088 1222 -1217 
Q 1028 -1347 759 -1347 
Q 597 -1347 397 -1278 
z
" transform="scale(0.015625)"/>
      </defs>
      <use xlink:href="#ArialMT-44"/>
      <use xlink:href="#ArialMT-65" x="72.216797"/>
      <use xlink:href="#ArialMT-6e" x="127.832031"/>
      <use xlink:href="#ArialMT-73" x="183.447266"/>
      <use xlink:href="#ArialMT-69" x="233.447266"/>
      <use xlink:href="#ArialMT-74" x="255.664062"/>
      <use xlink:href="#ArialMT-79" x="283.447266"/>
     </g>
    </g>
   </g>
   <g id="line2d_10">
    <path d="M 74.726995 478.654375 
L 210.794201 478.545987 
L 222.979324 478.311313 
L 231.102739 477.984548 
L 239.226154 477.445209 
L 247.34957 476.634506 
L 255.472985 475.528421 
L 263.5964 474.165249 
L 285.935792 470.209047 
L 292.028354 469.424856 
L 298.120915 468.866892 
L 304.213476 468.537847 
L 310.306038 468.406919 
L 320.460307 468.473509 
L 340.768845 468.729117 
L 367.169945 468.878717 
L 377.324214 469.284155 
L 387.478483 469.930547 
L 413.879582 471.776984 
L 432.157267 472.680263 
L 446.373244 473.489085 
L 458.558366 474.431239 
L 478.866905 476.22212 
L 478.866905 476.22212 
" clip-path="url(#p411f8b46cc)" style="fill: none; stroke: #fa8072; stroke-width: 1.5; stroke-linecap: square"/>
   </g>
   <g id="line2d_11">
    <path d="M 74.726995 478.654375 
L 135.65261 478.611919 
L 139.714318 478.355622 
L 141.745171 477.947468 
L 143.776025 477.102289 
L 145.806879 475.48792 
L 147.837733 472.641226 
L 149.868587 468.001256 
L 151.89944 460.996832 
L 153.930294 451.175403 
L 155.961148 438.329905 
L 157.992002 422.566357 
L 160.022856 404.274386 
L 162.053709 384.011279 
L 166.115417 339.822588 
L 172.207979 271.12784 
L 174.238832 249.519567 
L 176.269686 229.676435 
L 178.30054 212.32245 
L 180.331394 197.944297 
L 182.362248 186.5334 
L 184.393101 177.428672 
L 188.454809 160.987768 
L 190.485663 151.064009 
L 192.516517 139.2342 
L 198.609078 100.250105 
L 200.639932 90.473465 
L 202.670786 84.197333 
L 204.70164 82.130914 
L 206.732493 84.751433 
L 208.763347 92.276216 
L 210.794201 104.526214 
L 212.825055 120.784823 
L 214.855909 139.793389 
L 218.917616 179.675255 
L 220.94847 197.739701 
L 222.979324 213.507146 
L 225.010178 226.936154 
L 227.041032 238.44271 
L 231.102739 258.48101 
L 233.133593 268.509389 
L 235.164447 279.403861 
L 237.195301 291.590341 
L 239.226154 305.24198 
L 241.257008 320.246633 
L 249.380424 384.058893 
L 251.411277 398.04219 
L 253.442131 410.401007 
L 255.472985 420.979483 
L 257.503839 429.722762 
L 259.534693 436.630101 
L 261.565546 441.741981 
L 263.5964 445.171393 
L 265.627254 447.160295 
L 267.658108 448.120609 
L 269.688962 448.617961 
L 271.719815 449.279522 
L 273.750669 450.646024 
L 275.781523 453.023186 
L 277.812377 456.398253 
L 283.904938 468.719686 
L 285.935792 472.059405 
L 287.966646 474.590002 
L 289.9975 476.332278 
L 292.028354 477.425776 
L 294.059207 478.052885 
L 296.090061 478.382068 
L 300.151769 478.610326 
L 310.306038 478.65426 
L 478.866905 478.654375 
L 478.866905 478.654375 
" clip-path="url(#p411f8b46cc)" style="fill: none; stroke: #8fbc8f; stroke-width: 1.5; stroke-linecap: square"/>
   </g>
   <g id="line2d_12">
    <path d="M 74.726995 475.570742 
L 78.788703 475.579486 
L 80.819557 475.635322 
L 82.850411 475.577851 
L 84.881265 475.31769 
L 86.912118 474.803205 
L 88.942972 474.009276 
L 90.973826 472.909967 
L 93.00468 471.45394 
L 95.035534 469.558883 
L 97.066387 467.12823 
L 99.097241 464.07935 
L 101.128095 460.366756 
L 103.158949 455.98972 
L 105.189803 450.985007 
L 107.220656 445.413479 
L 109.25151 439.349546 
L 113.313218 426.100735 
L 119.405779 405.636912 
L 121.436633 399.771248 
L 123.467487 395.112922 
L 125.498341 392.09374 
L 127.529195 390.93136 
L 129.560048 391.47882 
L 131.590902 393.183461 
L 133.621756 395.208348 
L 135.65261 396.688446 
L 137.683464 397.018792 
L 139.714318 396.051286 
L 141.745171 394.123655 
L 143.776025 391.927725 
L 145.806879 390.293857 
L 147.837733 389.987337 
L 149.868587 391.578394 
L 151.89944 395.389807 
L 153.930294 401.485537 
L 155.961148 409.664462 
L 157.992002 419.457057 
L 162.053709 440.909777 
L 164.084563 450.881347 
L 166.115417 459.413959 
L 168.146271 466.149824 
L 170.177125 471.05326 
L 172.207979 474.343528 
L 174.238832 476.378029 
L 176.269686 477.537051 
L 178.30054 478.14529 
L 180.331394 478.439304 
L 184.393101 478.623885 
L 196.578224 478.654362 
L 478.866905 478.654375 
L 478.866905 478.654375 
" clip-path="url(#p411f8b46cc)" style="fill: none; stroke: #4682b4; stroke-width: 1.5; stroke-linecap: square"/>
   </g>
   <g id="patch_117">
    <path d="M 54.52 478.654375 
L 54.52 27.515625 
" style="fill: none; stroke: #000000; stroke-width: 0.8; stroke-linejoin: miter; stroke-linecap: square"/>
   </g>
   <g id="patch_118">
    <path d="M 54.52 478.654375 
L 499.0739 478.654375 
" style="fill: none; stroke: #000000; stroke-width: 0.8; stroke-linejoin: miter; stroke-linecap: square"/>
   </g>
   <g id="text_12">
    <!-- INDELs -->
    <g transform="translate(242.343825 21.515625) scale(0.2 -0.2)">
     <defs>
      <path id="ArialMT-49" d="M 597 0 
L 597 4581 
L 1203 4581 
L 1203 0 
L 597 0 
z
" transform="scale(0.015625)"/>
      <path id="ArialMT-4e" d="M 488 0 
L 488 4581 
L 1109 4581 
L 3516 984 
L 3516 4581 
L 4097 4581 
L 4097 0 
L 3475 0 
L 1069 3600 
L 1069 0 
L 488 0 
z
" transform="scale(0.015625)"/>
      <path id="ArialMT-45" d="M 506 0 
L 506 4581 
L 3819 4581 
L 3819 4041 
L 1113 4041 
L 1113 2638 
L 3647 2638 
L 3647 2100 
L 1113 2100 
L 1113 541 
L 3925 541 
L 3925 0 
L 506 0 
z
" transform="scale(0.015625)"/>
      <path id="ArialMT-4c" d="M 469 0 
L 469 4581 
L 1075 4581 
L 1075 541 
L 3331 541 
L 3331 0 
L 469 0 
z
" transform="scale(0.015625)"/>
     </defs>
     <use xlink:href="#ArialMT-49"/>
     <use xlink:href="#ArialMT-4e" x="27.783203"/>
     <use xlink:href="#ArialMT-44" x="100"/>
     <use xlink:href="#ArialMT-45" x="172.216797"/>
     <use xlink:href="#ArialMT-4c" x="238.916016"/>
     <use xlink:href="#ArialMT-73" x="294.53125"/>
    </g>
   </g>
  </g>
  <g id="legend_1">
   <g id="text_13">
    <!-- Burden -->
    <g transform="translate(493.199687 233.006719) scale(0.22 -0.22)">
     <use xlink:href="#ArialMT-42"/>
     <use xlink:href="#ArialMT-75" x="66.699219"/>
     <use xlink:href="#ArialMT-72" x="122.314453"/>
     <use xlink:href="#ArialMT-64" x="155.615234"/>
     <use xlink:href="#ArialMT-65" x="211.230469"/>
     <use xlink:href="#ArialMT-6e" x="266.845703"/>
    </g>
   </g>
   <g id="patch_119">
    <path d="M 492.045625 258.126406 
L 512.045625 258.126406 
L 512.045625 251.126406 
L 492.045625 251.126406 
z
" style="fill: #4682b4; fill-opacity: 0.5; stroke: #fcfcfc; stroke-linejoin: miter"/>
   </g>
   <g id="text_14">
    <!-- Low -->
    <g transform="translate(520.045625 258.126406) scale(0.22 -0.22)">
     <defs>
      <path id="ArialMT-77" d="M 1034 0 
L 19 3319 
L 600 3319 
L 1128 1403 
L 1325 691 
Q 1338 744 1497 1375 
L 2025 3319 
L 2603 3319 
L 3100 1394 
L 3266 759 
L 3456 1400 
L 4025 3319 
L 4572 3319 
L 3534 0 
L 2950 0 
L 2422 1988 
L 2294 2553 
L 1622 0 
L 1034 0 
z
" transform="scale(0.015625)"/>
     </defs>
     <use xlink:href="#ArialMT-4c"/>
     <use xlink:href="#ArialMT-6f" x="55.615234"/>
     <use xlink:href="#ArialMT-77" x="111.230469"/>
    </g>
   </g>
   <g id="patch_120">
    <path d="M 492.045625 283.246094 
L 512.045625 283.246094 
L 512.045625 276.246094 
L 492.045625 276.246094 
z
" style="fill: #8fbc8f; fill-opacity: 0.5; stroke: #fcfcfc; stroke-linejoin: miter"/>
   </g>
   <g id="text_15">
    <!-- Mid -->
    <g transform="translate(520.045625 283.246094) scale(0.22 -0.22)">
     <defs>
      <path id="ArialMT-4d" d="M 475 0 
L 475 4581 
L 1388 4581 
L 2472 1338 
Q 2622 884 2691 659 
Q 2769 909 2934 1394 
L 4031 4581 
L 4847 4581 
L 4847 0 
L 4263 0 
L 4263 3834 
L 2931 0 
L 2384 0 
L 1059 3900 
L 1059 0 
L 475 0 
z
" transform="scale(0.015625)"/>
     </defs>
     <use xlink:href="#ArialMT-4d"/>
     <use xlink:href="#ArialMT-69" x="83.300781"/>
     <use xlink:href="#ArialMT-64" x="105.517578"/>
    </g>
   </g>
   <g id="patch_121">
    <path d="M 492.045625 308.365781 
L 512.045625 308.365781 
L 512.045625 301.365781 
L 492.045625 301.365781 
z
" style="fill: #fa8072; fill-opacity: 0.5; stroke: #fcfcfc; stroke-linejoin: miter"/>
   </g>
   <g id="text_16">
    <!-- High -->
    <g transform="translate(520.045625 308.365781) scale(0.22 -0.22)">
     <defs>
      <path id="ArialMT-48" d="M 513 0 
L 513 4581 
L 1119 4581 
L 1119 2700 
L 3500 2700 
L 3500 4581 
L 4106 4581 
L 4106 0 
L 3500 0 
L 3500 2159 
L 1119 2159 
L 1119 0 
L 513 0 
z
" transform="scale(0.015625)"/>
      <path id="ArialMT-68" d="M 422 0 
L 422 4581 
L 984 4581 
L 984 2938 
Q 1378 3394 1978 3394 
Q 2347 3394 2619 3248 
Q 2891 3103 3008 2847 
Q 3125 2591 3125 2103 
L 3125 0 
L 2563 0 
L 2563 2103 
Q 2563 2525 2380 2717 
Q 2197 2909 1863 2909 
Q 1613 2909 1392 2779 
Q 1172 2650 1078 2428 
Q 984 2206 984 1816 
L 984 0 
L 422 0 
z
" transform="scale(0.015625)"/>
     </defs>
     <use xlink:href="#ArialMT-48"/>
     <use xlink:href="#ArialMT-69" x="72.216797"/>
     <use xlink:href="#ArialMT-67" x="94.433594"/>
     <use xlink:href="#ArialMT-68" x="150.048828"/>
    </g>
   </g>
  </g>
 </g>
 <defs>
  <clipPath id="p411f8b46cc">
   <rect x="54.52" y="27.515625" width="444.5539" height="451.13875"/>
  </clipPath>
 </defs>
</svg>
