<?xml version="1.0" encoding="utf-8" standalone="no"?>
<!DOCTYPE svg PUBLIC "-//W3C//DTD SVG 1.1//EN"
  "http://www.w3.org/Graphics/SVG/1.1/DTD/svg11.dtd">
<svg xmlns:xlink="http://www.w3.org/1999/xlink" width="368.98625pt" height="273.855pt" viewBox="0 0 368.98625 273.855" xmlns="http://www.w3.org/2000/svg" version="1.1">
 <metadata>
  <rdf:RDF xmlns:dc="http://purl.org/dc/elements/1.1/" xmlns:cc="http://creativecommons.org/ns#" xmlns:rdf="http://www.w3.org/1999/02/22-rdf-syntax-ns#">
   <cc:Work>
    <dc:type rdf:resource="http://purl.org/dc/dcmitype/StillImage"/>
    <dc:date>2026-05-25T16:27:42.875089</dc:date>
    <dc:format>image/svg+xml</dc:format>
    <dc:creator>
     <cc:Agent>
      <dc:title>Matplotlib v3.7.3, https://matplotlib.org/</dc:title>
     </cc:Agent>
    </dc:creator>
   </cc:Work>
  </rdf:RDF>
 </metadata>
 <defs>
  <style type="text/css">*{stroke-linejoin: round; stroke-linecap: butt}</style>
 </defs>
 <g id="figure_1">
  <g id="patch_1">
   <path d="M 0 273.855 
L 368.98625 273.855 
L 368.98625 0 
L 0 0 
L 0 273.855 
z
" style="fill: none"/>
  </g>
  <g id="axes_1">
   <g id="patch_2">
    <path d="M 49.10625 243.432812 
L 221.90625 243.432812 
L 221.90625 41.832812 
L 49.10625 41.832812 
L 49.10625 243.432812 
z
" style="fill: none"/>
   </g>
   <g id="patch_3">
    <path d="M 77.90625 243.432812 
L 106.70625 243.432812 
L 106.70625 41.832812 
L 77.90625 41.832812 
z
" clip-path="url(#p72be55d862)" style="fill: #e6e6fa; stroke: #e6e6fa; stroke-linejoin: miter"/>
   </g>
   <g id="patch_4">
    <path d="M 106.70625 243.432812 
L 135.50625 243.432812 
L 135.50625 41.832812 
L 106.70625 41.832812 
z
" clip-path="url(#p72be55d862)" style="fill: #b0c4de; stroke: #b0c4de; stroke-linejoin: miter"/>
   </g>
   <g id="patch_5">
    <path d="M 135.50625 243.432812 
L 164.30625 243.432812 
L 164.30625 41.832812 
L 135.50625 41.832812 
z
" clip-path="url(#p72be55d862)" style="fill: #b0c4de; stroke: #b0c4de; stroke-linejoin: miter"/>
   </g>
   <g id="patch_6">
    <path d="M 193.10625 243.432812 
L 221.90625 243.432812 
L 221.90625 41.832812 
L 193.10625 41.832812 
z
" clip-path="url(#p72be55d862)" style="fill: #e6e6fa; stroke: #e6e6fa; stroke-linejoin: miter"/>
   </g>
   <g id="LineCollection_1">
    <path d="M 49.10625 243.432812 
L 221.90625 243.432812 
" clip-path="url(#p72be55d862)" style="fill: none; stroke-dasharray: 1.85,0.8; stroke-dashoffset: 0; stroke: #000000; stroke-width: 0.5"/>
    <path d="M 49.10625 193.032812 
L 221.90625 193.032812 
" clip-path="url(#p72be55d862)" style="fill: none; stroke-dasharray: 1.85,0.8; stroke-dashoffset: 0; stroke: #000000; stroke-width: 0.5"/>
    <path d="M 49.10625 142.632812 
L 221.90625 142.632812 
" clip-path="url(#p72be55d862)" style="fill: none; stroke-dasharray: 1.85,0.8; stroke-dashoffset: 0; stroke: #000000; stroke-width: 0.5"/>
    <path d="M 49.10625 92.232812 
L 221.90625 92.232812 
" clip-path="url(#p72be55d862)" style="fill: none; stroke-dasharray: 1.85,0.8; stroke-dashoffset: 0; stroke: #000000; stroke-width: 0.5"/>
    <path d="M 49.10625 41.832812 
L 221.90625 41.832812 
" clip-path="url(#p72be55d862)" style="fill: none; stroke-dasharray: 1.85,0.8; stroke-dashoffset: 0; stroke: #000000; stroke-width: 0.5"/>
   </g>
   <g id="PathCollection_1">
    <defs>
     <path id="m66ec77a9b4" d="M 0 0.612372 
C 0.162403 0.612372 0.318176 0.547849 0.433013 0.433013 
C 0.547849 0.318176 0.612372 0.162403 0.612372 0 
C 0.612372 -0.162403 0.547849 -0.318176 0.433013 -0.433013 
C 0.318176 -0.547849 0.162403 -0.612372 0 -0.612372 
C -0.162403 -0.612372 -0.318176 -0.547849 -0.433013 -0.433013 
C -0.547849 -0.318176 -0.612372 -0.162403 -0.612372 0 
C -0.612372 0.162403 -0.547849 0.318176 -0.433013 0.433013 
C -0.318176 0.547849 -0.162403 0.612372 0 0.612372 
z
" style="stroke: #000000"/>
    </defs>
    <g clip-path="url(#p72be55d862)">
     <use xlink:href="#m66ec77a9b4" x="51.98625" y="203.451628" style="stroke: #000000"/>
     <use xlink:href="#m66ec77a9b4" x="53.26625" y="202.268181" style="stroke: #000000"/>
     <use xlink:href="#m66ec77a9b4" x="54.54625" y="202.268181" style="stroke: #000000"/>
     <use xlink:href="#m66ec77a9b4" x="55.82625" y="197.154716" style="stroke: #000000"/>
     <use xlink:href="#m66ec77a9b4" x="57.10625" y="196.261186" style="stroke: #000000"/>
     <use xlink:href="#m66ec77a9b4" x="58.38625" y="195.402706" style="stroke: #000000"/>
     <use xlink:href="#m66ec77a9b4" x="59.66625" y="191.552733" style="stroke: #000000"/>
     <use xlink:href="#m66ec77a9b4" x="60.94625" y="191.552733" style="stroke: #000000"/>
     <use xlink:href="#m66ec77a9b4" x="62.22625" y="191.552733" style="stroke: #000000"/>
     <use xlink:href="#m66ec77a9b4" x="63.50625" y="190.857803" style="stroke: #000000"/>
     <use xlink:href="#m66ec77a9b4" x="64.78625" y="185.973539" style="stroke: #000000"/>
     <use xlink:href="#m66ec77a9b4" x="66.06625" y="183.395452" style="stroke: #000000"/>
     <use xlink:href="#m66ec77a9b4" x="67.34625" y="181.982804" style="stroke: #000000"/>
     <use xlink:href="#m66ec77a9b4" x="68.62625" y="178.608686" style="stroke: #000000"/>
     <use xlink:href="#m66ec77a9b4" x="69.90625" y="178.22127" style="stroke: #000000"/>
     <use xlink:href="#m66ec77a9b4" x="71.18625" y="175.685892" style="stroke: #000000"/>
     <use xlink:href="#m66ec77a9b4" x="72.46625" y="175.012348" style="stroke: #000000"/>
     <use xlink:href="#m66ec77a9b4" x="73.74625" y="173.724421" style="stroke: #000000"/>
     <use xlink:href="#m66ec77a9b4" x="75.02625" y="158.088426" style="stroke: #000000"/>
    </g>
   </g>
   <g id="PathCollection_2">
    <g clip-path="url(#p72be55d862)">
     <use xlink:href="#m66ec77a9b4" x="80.78625" y="207.442363" style="stroke: #000000"/>
     <use xlink:href="#m66ec77a9b4" x="80.90145" y="207.442363" style="stroke: #000000"/>
     <use xlink:href="#m66ec77a9b4" x="81.01665" y="207.442363" style="stroke: #000000"/>
     <use xlink:href="#m66ec77a9b4" x="81.13185" y="207.442363" style="stroke: #000000"/>
     <use xlink:href="#m66ec77a9b4" x="81.24705" y="207.442363" style="stroke: #000000"/>
     <use xlink:href="#m66ec77a9b4" x="81.36225" y="207.442363" style="stroke: #000000"/>
     <use xlink:href="#m66ec77a9b4" x="81.47745" y="206.029715" style="stroke: #000000"/>
     <use xlink:href="#m66ec77a9b4" x="81.59265" y="206.029715" style="stroke: #000000"/>
     <use xlink:href="#m66ec77a9b4" x="81.70785" y="206.029715" style="stroke: #000000"/>
     <use xlink:href="#m66ec77a9b4" x="81.82305" y="206.029715" style="stroke: #000000"/>
     <use xlink:href="#m66ec77a9b4" x="81.93825" y="206.029715" style="stroke: #000000"/>
     <use xlink:href="#m66ec77a9b4" x="82.05345" y="206.029715" style="stroke: #000000"/>
     <use xlink:href="#m66ec77a9b4" x="82.16865" y="206.029715" style="stroke: #000000"/>
     <use xlink:href="#m66ec77a9b4" x="82.28385" y="204.702737" style="stroke: #000000"/>
     <use xlink:href="#m66ec77a9b4" x="82.39905" y="204.702737" style="stroke: #000000"/>
     <use xlink:href="#m66ec77a9b4" x="82.51425" y="204.702737" style="stroke: #000000"/>
     <use xlink:href="#m66ec77a9b4" x="82.62945" y="204.702737" style="stroke: #000000"/>
     <use xlink:href="#m66ec77a9b4" x="82.74465" y="204.702737" style="stroke: #000000"/>
     <use xlink:href="#m66ec77a9b4" x="82.85985" y="204.702737" style="stroke: #000000"/>
     <use xlink:href="#m66ec77a9b4" x="82.97505" y="204.702737" style="stroke: #000000"/>
     <use xlink:href="#m66ec77a9b4" x="83.09025" y="203.451628" style="stroke: #000000"/>
     <use xlink:href="#m66ec77a9b4" x="83.20545" y="203.451628" style="stroke: #000000"/>
     <use xlink:href="#m66ec77a9b4" x="83.32065" y="203.451628" style="stroke: #000000"/>
     <use xlink:href="#m66ec77a9b4" x="83.43585" y="203.451628" style="stroke: #000000"/>
     <use xlink:href="#m66ec77a9b4" x="83.55105" y="203.451628" style="stroke: #000000"/>
     <use xlink:href="#m66ec77a9b4" x="83.66625" y="202.268181" style="stroke: #000000"/>
     <use xlink:href="#m66ec77a9b4" x="83.78145" y="202.268181" style="stroke: #000000"/>
     <use xlink:href="#m66ec77a9b4" x="83.89665" y="202.268181" style="stroke: #000000"/>
     <use xlink:href="#m66ec77a9b4" x="84.01185" y="202.268181" style="stroke: #000000"/>
     <use xlink:href="#m66ec77a9b4" x="84.12705" y="202.268181" style="stroke: #000000"/>
     <use xlink:href="#m66ec77a9b4" x="84.24225" y="201.14545" style="stroke: #000000"/>
     <use xlink:href="#m66ec77a9b4" x="84.35745" y="201.14545" style="stroke: #000000"/>
     <use xlink:href="#m66ec77a9b4" x="84.47265" y="201.14545" style="stroke: #000000"/>
     <use xlink:href="#m66ec77a9b4" x="84.58785" y="201.14545" style="stroke: #000000"/>
     <use xlink:href="#m66ec77a9b4" x="84.70305" y="201.14545" style="stroke: #000000"/>
     <use xlink:href="#m66ec77a9b4" x="84.81825" y="201.14545" style="stroke: #000000"/>
     <use xlink:href="#m66ec77a9b4" x="84.93345" y="201.14545" style="stroke: #000000"/>
     <use xlink:href="#m66ec77a9b4" x="85.04865" y="201.14545" style="stroke: #000000"/>
     <use xlink:href="#m66ec77a9b4" x="85.16385" y="200.07751" style="stroke: #000000"/>
     <use xlink:href="#m66ec77a9b4" x="85.27905" y="200.07751" style="stroke: #000000"/>
     <use xlink:href="#m66ec77a9b4" x="85.39425" y="200.07751" style="stroke: #000000"/>
     <use xlink:href="#m66ec77a9b4" x="85.50945" y="200.07751" style="stroke: #000000"/>
     <use xlink:href="#m66ec77a9b4" x="85.62465" y="199.059259" style="stroke: #000000"/>
     <use xlink:href="#m66ec77a9b4" x="85.73985" y="199.059259" style="stroke: #000000"/>
     <use xlink:href="#m66ec77a9b4" x="85.85505" y="199.059259" style="stroke: #000000"/>
     <use xlink:href="#m66ec77a9b4" x="85.97025" y="199.059259" style="stroke: #000000"/>
     <use xlink:href="#m66ec77a9b4" x="86.08545" y="199.059259" style="stroke: #000000"/>
     <use xlink:href="#m66ec77a9b4" x="86.20065" y="199.059259" style="stroke: #000000"/>
     <use xlink:href="#m66ec77a9b4" x="86.31585" y="199.059259" style="stroke: #000000"/>
     <use xlink:href="#m66ec77a9b4" x="86.43105" y="199.059259" style="stroke: #000000"/>
     <use xlink:href="#m66ec77a9b4" x="86.54625" y="199.059259" style="stroke: #000000"/>
     <use xlink:href="#m66ec77a9b4" x="86.66145" y="199.059259" style="stroke: #000000"/>
     <use xlink:href="#m66ec77a9b4" x="86.77665" y="199.059259" style="stroke: #000000"/>
     <use xlink:href="#m66ec77a9b4" x="86.89185" y="199.059259" style="stroke: #000000"/>
     <use xlink:href="#m66ec77a9b4" x="87.00705" y="198.086279" style="stroke: #000000"/>
     <use xlink:href="#m66ec77a9b4" x="87.12225" y="198.086279" style="stroke: #000000"/>
     <use xlink:href="#m66ec77a9b4" x="87.23745" y="198.086279" style="stroke: #000000"/>
     <use xlink:href="#m66ec77a9b4" x="87.35265" y="198.086279" style="stroke: #000000"/>
     <use xlink:href="#m66ec77a9b4" x="87.46785" y="198.086279" style="stroke: #000000"/>
     <use xlink:href="#m66ec77a9b4" x="87.58305" y="198.086279" style="stroke: #000000"/>
     <use xlink:href="#m66ec77a9b4" x="87.69825" y="197.154716" style="stroke: #000000"/>
     <use xlink:href="#m66ec77a9b4" x="87.81345" y="197.154716" style="stroke: #000000"/>
     <use xlink:href="#m66ec77a9b4" x="87.92865" y="197.154716" style="stroke: #000000"/>
     <use xlink:href="#m66ec77a9b4" x="88.04385" y="197.154716" style="stroke: #000000"/>
     <use xlink:href="#m66ec77a9b4" x="88.15905" y="197.154716" style="stroke: #000000"/>
     <use xlink:href="#m66ec77a9b4" x="88.27425" y="196.261186" style="stroke: #000000"/>
     <use xlink:href="#m66ec77a9b4" x="88.38945" y="196.261186" style="stroke: #000000"/>
     <use xlink:href="#m66ec77a9b4" x="88.50465" y="196.261186" style="stroke: #000000"/>
     <use xlink:href="#m66ec77a9b4" x="88.61985" y="196.261186" style="stroke: #000000"/>
     <use xlink:href="#m66ec77a9b4" x="88.73505" y="196.261186" style="stroke: #000000"/>
     <use xlink:href="#m66ec77a9b4" x="88.85025" y="195.402706" style="stroke: #000000"/>
     <use xlink:href="#m66ec77a9b4" x="88.96545" y="195.402706" style="stroke: #000000"/>
     <use xlink:href="#m66ec77a9b4" x="89.08065" y="195.402706" style="stroke: #000000"/>
     <use xlink:href="#m66ec77a9b4" x="89.19585" y="195.402706" style="stroke: #000000"/>
     <use xlink:href="#m66ec77a9b4" x="89.31105" y="195.402706" style="stroke: #000000"/>
     <use xlink:href="#m66ec77a9b4" x="89.42625" y="194.576629" style="stroke: #000000"/>
     <use xlink:href="#m66ec77a9b4" x="89.54145" y="194.576629" style="stroke: #000000"/>
     <use xlink:href="#m66ec77a9b4" x="89.65665" y="194.576629" style="stroke: #000000"/>
     <use xlink:href="#m66ec77a9b4" x="89.77185" y="193.780597" style="stroke: #000000"/>
     <use xlink:href="#m66ec77a9b4" x="89.88705" y="193.780597" style="stroke: #000000"/>
     <use xlink:href="#m66ec77a9b4" x="90.00225" y="193.780597" style="stroke: #000000"/>
     <use xlink:href="#m66ec77a9b4" x="90.11745" y="193.012503" style="stroke: #000000"/>
     <use xlink:href="#m66ec77a9b4" x="90.23265" y="193.012503" style="stroke: #000000"/>
     <use xlink:href="#m66ec77a9b4" x="90.34785" y="192.270451" style="stroke: #000000"/>
     <use xlink:href="#m66ec77a9b4" x="90.46305" y="192.270451" style="stroke: #000000"/>
     <use xlink:href="#m66ec77a9b4" x="90.57825" y="192.270451" style="stroke: #000000"/>
     <use xlink:href="#m66ec77a9b4" x="90.69345" y="192.270451" style="stroke: #000000"/>
     <use xlink:href="#m66ec77a9b4" x="90.80865" y="192.270451" style="stroke: #000000"/>
     <use xlink:href="#m66ec77a9b4" x="90.92385" y="192.270451" style="stroke: #000000"/>
     <use xlink:href="#m66ec77a9b4" x="91.03905" y="192.270451" style="stroke: #000000"/>
     <use xlink:href="#m66ec77a9b4" x="91.15425" y="192.270451" style="stroke: #000000"/>
     <use xlink:href="#m66ec77a9b4" x="91.26945" y="192.270451" style="stroke: #000000"/>
     <use xlink:href="#m66ec77a9b4" x="91.38465" y="191.552733" style="stroke: #000000"/>
     <use xlink:href="#m66ec77a9b4" x="91.49985" y="191.552733" style="stroke: #000000"/>
     <use xlink:href="#m66ec77a9b4" x="91.61505" y="190.857803" style="stroke: #000000"/>
     <use xlink:href="#m66ec77a9b4" x="91.73025" y="190.18426" style="stroke: #000000"/>
     <use xlink:href="#m66ec77a9b4" x="91.84545" y="190.18426" style="stroke: #000000"/>
     <use xlink:href="#m66ec77a9b4" x="91.96065" y="190.18426" style="stroke: #000000"/>
     <use xlink:href="#m66ec77a9b4" x="92.07585" y="189.530825" style="stroke: #000000"/>
     <use xlink:href="#m66ec77a9b4" x="92.19105" y="189.530825" style="stroke: #000000"/>
     <use xlink:href="#m66ec77a9b4" x="92.30625" y="189.530825" style="stroke: #000000"/>
     <use xlink:href="#m66ec77a9b4" x="92.42145" y="189.530825" style="stroke: #000000"/>
     <use xlink:href="#m66ec77a9b4" x="92.53665" y="188.896333" style="stroke: #000000"/>
     <use xlink:href="#m66ec77a9b4" x="92.65185" y="188.896333" style="stroke: #000000"/>
     <use xlink:href="#m66ec77a9b4" x="92.76705" y="188.896333" style="stroke: #000000"/>
     <use xlink:href="#m66ec77a9b4" x="92.88225" y="188.896333" style="stroke: #000000"/>
     <use xlink:href="#m66ec77a9b4" x="92.99745" y="188.896333" style="stroke: #000000"/>
     <use xlink:href="#m66ec77a9b4" x="93.11265" y="188.279716" style="stroke: #000000"/>
     <use xlink:href="#m66ec77a9b4" x="93.22785" y="188.279716" style="stroke: #000000"/>
     <use xlink:href="#m66ec77a9b4" x="93.34305" y="188.279716" style="stroke: #000000"/>
     <use xlink:href="#m66ec77a9b4" x="93.45825" y="188.279716" style="stroke: #000000"/>
     <use xlink:href="#m66ec77a9b4" x="93.57345" y="187.096269" style="stroke: #000000"/>
     <use xlink:href="#m66ec77a9b4" x="93.68865" y="186.527706" style="stroke: #000000"/>
     <use xlink:href="#m66ec77a9b4" x="93.80385" y="186.527706" style="stroke: #000000"/>
     <use xlink:href="#m66ec77a9b4" x="93.91905" y="186.527706" style="stroke: #000000"/>
     <use xlink:href="#m66ec77a9b4" x="94.03425" y="185.973539" style="stroke: #000000"/>
     <use xlink:href="#m66ec77a9b4" x="94.14945" y="185.973539" style="stroke: #000000"/>
     <use xlink:href="#m66ec77a9b4" x="94.26465" y="185.973539" style="stroke: #000000"/>
     <use xlink:href="#m66ec77a9b4" x="94.37985" y="185.973539" style="stroke: #000000"/>
     <use xlink:href="#m66ec77a9b4" x="94.49505" y="185.433056" style="stroke: #000000"/>
     <use xlink:href="#m66ec77a9b4" x="94.61025" y="184.905598" style="stroke: #000000"/>
     <use xlink:href="#m66ec77a9b4" x="94.72545" y="184.905598" style="stroke: #000000"/>
     <use xlink:href="#m66ec77a9b4" x="94.84065" y="184.905598" style="stroke: #000000"/>
     <use xlink:href="#m66ec77a9b4" x="94.95585" y="184.905598" style="stroke: #000000"/>
     <use xlink:href="#m66ec77a9b4" x="95.07105" y="184.905598" style="stroke: #000000"/>
     <use xlink:href="#m66ec77a9b4" x="95.18625" y="184.390552" style="stroke: #000000"/>
     <use xlink:href="#m66ec77a9b4" x="95.30145" y="183.395452" style="stroke: #000000"/>
     <use xlink:href="#m66ec77a9b4" x="95.41665" y="183.395452" style="stroke: #000000"/>
     <use xlink:href="#m66ec77a9b4" x="95.53185" y="183.395452" style="stroke: #000000"/>
     <use xlink:href="#m66ec77a9b4" x="95.64705" y="182.914368" style="stroke: #000000"/>
     <use xlink:href="#m66ec77a9b4" x="95.76225" y="182.914368" style="stroke: #000000"/>
     <use xlink:href="#m66ec77a9b4" x="95.87745" y="181.982804" style="stroke: #000000"/>
     <use xlink:href="#m66ec77a9b4" x="95.99265" y="181.982804" style="stroke: #000000"/>
     <use xlink:href="#m66ec77a9b4" x="96.10785" y="181.089274" style="stroke: #000000"/>
     <use xlink:href="#m66ec77a9b4" x="96.22305" y="181.089274" style="stroke: #000000"/>
     <use xlink:href="#m66ec77a9b4" x="96.33825" y="181.089274" style="stroke: #000000"/>
     <use xlink:href="#m66ec77a9b4" x="96.45345" y="181.089274" style="stroke: #000000"/>
     <use xlink:href="#m66ec77a9b4" x="96.56865" y="181.089274" style="stroke: #000000"/>
     <use xlink:href="#m66ec77a9b4" x="96.68385" y="180.655825" style="stroke: #000000"/>
     <use xlink:href="#m66ec77a9b4" x="96.79905" y="180.655825" style="stroke: #000000"/>
     <use xlink:href="#m66ec77a9b4" x="96.91425" y="180.655825" style="stroke: #000000"/>
     <use xlink:href="#m66ec77a9b4" x="97.02945" y="180.655825" style="stroke: #000000"/>
     <use xlink:href="#m66ec77a9b4" x="97.14465" y="180.230794" style="stroke: #000000"/>
     <use xlink:href="#m66ec77a9b4" x="97.25985" y="179.404717" style="stroke: #000000"/>
     <use xlink:href="#m66ec77a9b4" x="97.37505" y="179.003083" style="stroke: #000000"/>
     <use xlink:href="#m66ec77a9b4" x="97.49025" y="178.608686" style="stroke: #000000"/>
     <use xlink:href="#m66ec77a9b4" x="97.60545" y="178.22127" style="stroke: #000000"/>
     <use xlink:href="#m66ec77a9b4" x="97.72065" y="177.840591" style="stroke: #000000"/>
     <use xlink:href="#m66ec77a9b4" x="97.83585" y="177.466421" style="stroke: #000000"/>
     <use xlink:href="#m66ec77a9b4" x="97.95105" y="177.466421" style="stroke: #000000"/>
     <use xlink:href="#m66ec77a9b4" x="98.06625" y="177.466421" style="stroke: #000000"/>
     <use xlink:href="#m66ec77a9b4" x="98.18145" y="177.098539" style="stroke: #000000"/>
     <use xlink:href="#m66ec77a9b4" x="98.29665" y="176.736739" style="stroke: #000000"/>
     <use xlink:href="#m66ec77a9b4" x="98.41185" y="176.736739" style="stroke: #000000"/>
     <use xlink:href="#m66ec77a9b4" x="98.52705" y="175.685892" style="stroke: #000000"/>
     <use xlink:href="#m66ec77a9b4" x="98.64225" y="175.685892" style="stroke: #000000"/>
     <use xlink:href="#m66ec77a9b4" x="98.75745" y="175.685892" style="stroke: #000000"/>
     <use xlink:href="#m66ec77a9b4" x="98.87265" y="175.346529" style="stroke: #000000"/>
     <use xlink:href="#m66ec77a9b4" x="98.98785" y="175.012348" style="stroke: #000000"/>
     <use xlink:href="#m66ec77a9b4" x="99.10305" y="175.012348" style="stroke: #000000"/>
     <use xlink:href="#m66ec77a9b4" x="99.21825" y="174.683192" style="stroke: #000000"/>
     <use xlink:href="#m66ec77a9b4" x="99.33345" y="174.358913" style="stroke: #000000"/>
     <use xlink:href="#m66ec77a9b4" x="99.44865" y="174.358913" style="stroke: #000000"/>
     <use xlink:href="#m66ec77a9b4" x="99.56385" y="174.039368" style="stroke: #000000"/>
     <use xlink:href="#m66ec77a9b4" x="99.67905" y="173.413941" style="stroke: #000000"/>
     <use xlink:href="#m66ec77a9b4" x="99.79425" y="173.107804" style="stroke: #000000"/>
     <use xlink:href="#m66ec77a9b4" x="99.90945" y="172.214275" style="stroke: #000000"/>
     <use xlink:href="#m66ec77a9b4" x="100.02465" y="171.63823" style="stroke: #000000"/>
     <use xlink:href="#m66ec77a9b4" x="100.13985" y="171.355794" style="stroke: #000000"/>
     <use xlink:href="#m66ec77a9b4" x="100.25505" y="169.21864" style="stroke: #000000"/>
     <use xlink:href="#m66ec77a9b4" x="100.37025" y="168.715436" style="stroke: #000000"/>
     <use xlink:href="#m66ec77a9b4" x="100.48545" y="168.715436" style="stroke: #000000"/>
     <use xlink:href="#m66ec77a9b4" x="100.60065" y="168.715436" style="stroke: #000000"/>
     <use xlink:href="#m66ec77a9b4" x="100.71585" y="167.742456" style="stroke: #000000"/>
     <use xlink:href="#m66ec77a9b4" x="100.83105" y="166.137348" style="stroke: #000000"/>
     <use xlink:href="#m66ec77a9b4" x="100.94625" y="165.917362" style="stroke: #000000"/>
     <use xlink:href="#m66ec77a9b4" x="101.06145" y="165.483914" style="stroke: #000000"/>
     <use xlink:href="#m66ec77a9b4" x="101.17665" y="165.270366" style="stroke: #000000"/>
     <use xlink:href="#m66ec77a9b4" x="101.29185" y="165.058882" style="stroke: #000000"/>
     <use xlink:href="#m66ec77a9b4" x="101.40705" y="164.43642" style="stroke: #000000"/>
     <use xlink:href="#m66ec77a9b4" x="101.52225" y="164.031067" style="stroke: #000000"/>
     <use xlink:href="#m66ec77a9b4" x="101.63745" y="163.436774" style="stroke: #000000"/>
     <use xlink:href="#m66ec77a9b4" x="101.75265" y="161.926627" style="stroke: #000000"/>
     <use xlink:href="#m66ec77a9b4" x="101.86785" y="161.033098" style="stroke: #000000"/>
     <use xlink:href="#m66ec77a9b4" x="101.98305" y="158.396719" style="stroke: #000000"/>
     <use xlink:href="#m66ec77a9b4" x="102.09825" y="158.088426" style="stroke: #000000"/>
     <use xlink:href="#m66ec77a9b4" x="102.21345" y="157.784415" style="stroke: #000000"/>
     <use xlink:href="#m66ec77a9b4" x="102.32865" y="156.04402" style="stroke: #000000"/>
     <use xlink:href="#m66ec77a9b4" x="102.44385" y="155.766947" style="stroke: #000000"/>
     <use xlink:href="#m66ec77a9b4" x="102.55905" y="155.357806" style="stroke: #000000"/>
     <use xlink:href="#m66ec77a9b4" x="102.67425" y="154.823915" style="stroke: #000000"/>
     <use xlink:href="#m66ec77a9b4" x="102.78945" y="149.992457" style="stroke: #000000"/>
     <use xlink:href="#m66ec77a9b4" x="102.90465" y="148.461172" style="stroke: #000000"/>
     <use xlink:href="#m66ec77a9b4" x="103.01985" y="141.365588" style="stroke: #000000"/>
     <use xlink:href="#m66ec77a9b4" x="103.13505" y="138.371612" style="stroke: #000000"/>
     <use xlink:href="#m66ec77a9b4" x="103.25025" y="133.78788" style="stroke: #000000"/>
     <use xlink:href="#m66ec77a9b4" x="103.36545" y="124.088049" style="stroke: #000000"/>
     <use xlink:href="#m66ec77a9b4" x="103.48065" y="119.622214" style="stroke: #000000"/>
     <use xlink:href="#m66ec77a9b4" x="103.59585" y="112.477233" style="stroke: #000000"/>
     <use xlink:href="#m66ec77a9b4" x="103.71105" y="91.230993" style="stroke: #000000"/>
     <use xlink:href="#m66ec77a9b4" x="103.82625" y="69.916973" style="stroke: #000000"/>
    </g>
   </g>
   <g id="PathCollection_3">
    <g clip-path="url(#p72be55d862)">
     <use xlink:href="#m66ec77a9b4" x="109.58625" y="207.442363" style="stroke: #000000"/>
     <use xlink:href="#m66ec77a9b4" x="110.012917" y="207.442363" style="stroke: #000000"/>
     <use xlink:href="#m66ec77a9b4" x="110.439583" y="206.029715" style="stroke: #000000"/>
     <use xlink:href="#m66ec77a9b4" x="110.86625" y="206.029715" style="stroke: #000000"/>
     <use xlink:href="#m66ec77a9b4" x="111.292917" y="204.702737" style="stroke: #000000"/>
     <use xlink:href="#m66ec77a9b4" x="111.719583" y="204.702737" style="stroke: #000000"/>
     <use xlink:href="#m66ec77a9b4" x="112.14625" y="204.702737" style="stroke: #000000"/>
     <use xlink:href="#m66ec77a9b4" x="112.572917" y="204.702737" style="stroke: #000000"/>
     <use xlink:href="#m66ec77a9b4" x="112.999583" y="204.702737" style="stroke: #000000"/>
     <use xlink:href="#m66ec77a9b4" x="113.42625" y="203.451628" style="stroke: #000000"/>
     <use xlink:href="#m66ec77a9b4" x="113.852917" y="203.451628" style="stroke: #000000"/>
     <use xlink:href="#m66ec77a9b4" x="114.279583" y="200.07751" style="stroke: #000000"/>
     <use xlink:href="#m66ec77a9b4" x="114.70625" y="200.07751" style="stroke: #000000"/>
     <use xlink:href="#m66ec77a9b4" x="115.132917" y="199.059259" style="stroke: #000000"/>
     <use xlink:href="#m66ec77a9b4" x="115.559583" y="198.086279" style="stroke: #000000"/>
     <use xlink:href="#m66ec77a9b4" x="115.98625" y="198.086279" style="stroke: #000000"/>
     <use xlink:href="#m66ec77a9b4" x="116.412917" y="197.154716" style="stroke: #000000"/>
     <use xlink:href="#m66ec77a9b4" x="116.839583" y="197.154716" style="stroke: #000000"/>
     <use xlink:href="#m66ec77a9b4" x="117.26625" y="197.154716" style="stroke: #000000"/>
     <use xlink:href="#m66ec77a9b4" x="117.692917" y="195.402706" style="stroke: #000000"/>
     <use xlink:href="#m66ec77a9b4" x="118.119583" y="195.402706" style="stroke: #000000"/>
     <use xlink:href="#m66ec77a9b4" x="118.54625" y="193.780597" style="stroke: #000000"/>
     <use xlink:href="#m66ec77a9b4" x="118.972917" y="193.780597" style="stroke: #000000"/>
     <use xlink:href="#m66ec77a9b4" x="119.399583" y="193.780597" style="stroke: #000000"/>
     <use xlink:href="#m66ec77a9b4" x="119.82625" y="191.552733" style="stroke: #000000"/>
     <use xlink:href="#m66ec77a9b4" x="120.252917" y="190.857803" style="stroke: #000000"/>
     <use xlink:href="#m66ec77a9b4" x="120.679583" y="190.18426" style="stroke: #000000"/>
     <use xlink:href="#m66ec77a9b4" x="121.10625" y="188.279716" style="stroke: #000000"/>
     <use xlink:href="#m66ec77a9b4" x="121.532917" y="187.096269" style="stroke: #000000"/>
     <use xlink:href="#m66ec77a9b4" x="121.959583" y="181.53148" style="stroke: #000000"/>
     <use xlink:href="#m66ec77a9b4" x="122.38625" y="181.53148" style="stroke: #000000"/>
     <use xlink:href="#m66ec77a9b4" x="122.812917" y="180.230794" style="stroke: #000000"/>
     <use xlink:href="#m66ec77a9b4" x="123.239583" y="180.230794" style="stroke: #000000"/>
     <use xlink:href="#m66ec77a9b4" x="123.66625" y="179.813858" style="stroke: #000000"/>
     <use xlink:href="#m66ec77a9b4" x="124.092917" y="179.404717" style="stroke: #000000"/>
     <use xlink:href="#m66ec77a9b4" x="124.519583" y="178.608686" style="stroke: #000000"/>
     <use xlink:href="#m66ec77a9b4" x="124.94625" y="177.840591" style="stroke: #000000"/>
     <use xlink:href="#m66ec77a9b4" x="125.372917" y="177.466421" style="stroke: #000000"/>
     <use xlink:href="#m66ec77a9b4" x="125.799583" y="176.030599" style="stroke: #000000"/>
     <use xlink:href="#m66ec77a9b4" x="126.22625" y="176.030599" style="stroke: #000000"/>
     <use xlink:href="#m66ec77a9b4" x="126.652917" y="174.358913" style="stroke: #000000"/>
     <use xlink:href="#m66ec77a9b4" x="127.079583" y="173.724421" style="stroke: #000000"/>
     <use xlink:href="#m66ec77a9b4" x="127.50625" y="173.413941" style="stroke: #000000"/>
     <use xlink:href="#m66ec77a9b4" x="127.932917" y="173.107804" style="stroke: #000000"/>
     <use xlink:href="#m66ec77a9b4" x="128.359583" y="173.107804" style="stroke: #000000"/>
     <use xlink:href="#m66ec77a9b4" x="128.78625" y="170.529717" style="stroke: #000000"/>
     <use xlink:href="#m66ec77a9b4" x="129.212917" y="167.981676" style="stroke: #000000"/>
     <use xlink:href="#m66ec77a9b4" x="129.639583" y="167.505822" style="stroke: #000000"/>
     <use xlink:href="#m66ec77a9b4" x="130.06625" y="166.359568" style="stroke: #000000"/>
     <use xlink:href="#m66ec77a9b4" x="130.492917" y="163.633084" style="stroke: #000000"/>
     <use xlink:href="#m66ec77a9b4" x="130.919583" y="159.51128" style="stroke: #000000"/>
     <use xlink:href="#m66ec77a9b4" x="131.34625" y="159.026646" style="stroke: #000000"/>
     <use xlink:href="#m66ec77a9b4" x="131.772917" y="158.24203" style="stroke: #000000"/>
     <use xlink:href="#m66ec77a9b4" x="132.199583" y="155.089232" style="stroke: #000000"/>
     <use xlink:href="#m66ec77a9b4" x="132.62625" y="140.253555" style="stroke: #000000"/>
    </g>
   </g>
   <g id="PathCollection_4">
    <g clip-path="url(#p72be55d862)">
     <use xlink:href="#m66ec77a9b4" x="138.38625" y="207.442363" style="stroke: #000000"/>
     <use xlink:href="#m66ec77a9b4" x="138.876463" y="207.442363" style="stroke: #000000"/>
     <use xlink:href="#m66ec77a9b4" x="139.366676" y="206.029715" style="stroke: #000000"/>
     <use xlink:href="#m66ec77a9b4" x="139.856888" y="206.029715" style="stroke: #000000"/>
     <use xlink:href="#m66ec77a9b4" x="140.347101" y="206.029715" style="stroke: #000000"/>
     <use xlink:href="#m66ec77a9b4" x="140.837314" y="204.702737" style="stroke: #000000"/>
     <use xlink:href="#m66ec77a9b4" x="141.327527" y="204.702737" style="stroke: #000000"/>
     <use xlink:href="#m66ec77a9b4" x="141.817739" y="203.451628" style="stroke: #000000"/>
     <use xlink:href="#m66ec77a9b4" x="142.307952" y="202.268181" style="stroke: #000000"/>
     <use xlink:href="#m66ec77a9b4" x="142.798165" y="202.268181" style="stroke: #000000"/>
     <use xlink:href="#m66ec77a9b4" x="143.288378" y="200.07751" style="stroke: #000000"/>
     <use xlink:href="#m66ec77a9b4" x="143.77859" y="199.059259" style="stroke: #000000"/>
     <use xlink:href="#m66ec77a9b4" x="144.268803" y="198.086279" style="stroke: #000000"/>
     <use xlink:href="#m66ec77a9b4" x="144.759016" y="196.261186" style="stroke: #000000"/>
     <use xlink:href="#m66ec77a9b4" x="145.249229" y="195.402706" style="stroke: #000000"/>
     <use xlink:href="#m66ec77a9b4" x="145.739441" y="195.402706" style="stroke: #000000"/>
     <use xlink:href="#m66ec77a9b4" x="146.229654" y="193.780597" style="stroke: #000000"/>
     <use xlink:href="#m66ec77a9b4" x="146.719867" y="192.270451" style="stroke: #000000"/>
     <use xlink:href="#m66ec77a9b4" x="147.21008" y="191.552733" style="stroke: #000000"/>
     <use xlink:href="#m66ec77a9b4" x="147.700293" y="189.530825" style="stroke: #000000"/>
     <use xlink:href="#m66ec77a9b4" x="148.190505" y="187.096269" style="stroke: #000000"/>
     <use xlink:href="#m66ec77a9b4" x="148.680718" y="187.096269" style="stroke: #000000"/>
     <use xlink:href="#m66ec77a9b4" x="149.170931" y="186.527706" style="stroke: #000000"/>
     <use xlink:href="#m66ec77a9b4" x="149.661144" y="184.390552" style="stroke: #000000"/>
     <use xlink:href="#m66ec77a9b4" x="150.151356" y="183.395452" style="stroke: #000000"/>
     <use xlink:href="#m66ec77a9b4" x="150.641569" y="183.395452" style="stroke: #000000"/>
     <use xlink:href="#m66ec77a9b4" x="151.131782" y="182.44363" style="stroke: #000000"/>
     <use xlink:href="#m66ec77a9b4" x="151.621995" y="181.089274" style="stroke: #000000"/>
     <use xlink:href="#m66ec77a9b4" x="152.112207" y="180.655825" style="stroke: #000000"/>
     <use xlink:href="#m66ec77a9b4" x="152.60242" y="179.813858" style="stroke: #000000"/>
     <use xlink:href="#m66ec77a9b4" x="153.092633" y="179.813858" style="stroke: #000000"/>
     <use xlink:href="#m66ec77a9b4" x="153.582846" y="179.404717" style="stroke: #000000"/>
     <use xlink:href="#m66ec77a9b4" x="154.073059" y="176.030599" style="stroke: #000000"/>
     <use xlink:href="#m66ec77a9b4" x="154.563271" y="173.413941" style="stroke: #000000"/>
     <use xlink:href="#m66ec77a9b4" x="155.053484" y="171.076957" style="stroke: #000000"/>
     <use xlink:href="#m66ec77a9b4" x="155.543697" y="169.21864" style="stroke: #000000"/>
     <use xlink:href="#m66ec77a9b4" x="156.03391" y="167.981676" style="stroke: #000000"/>
     <use xlink:href="#m66ec77a9b4" x="156.524122" y="167.742456" style="stroke: #000000"/>
     <use xlink:href="#m66ec77a9b4" x="157.014335" y="167.505822" style="stroke: #000000"/>
     <use xlink:href="#m66ec77a9b4" x="157.504548" y="165.699565" style="stroke: #000000"/>
     <use xlink:href="#m66ec77a9b4" x="157.994761" y="164.43642" style="stroke: #000000"/>
     <use xlink:href="#m66ec77a9b4" x="158.484973" y="163.633084" style="stroke: #000000"/>
     <use xlink:href="#m66ec77a9b4" x="158.975186" y="162.858191" style="stroke: #000000"/>
     <use xlink:href="#m66ec77a9b4" x="159.465399" y="159.840436" style="stroke: #000000"/>
     <use xlink:href="#m66ec77a9b4" x="159.955612" y="158.552509" style="stroke: #000000"/>
     <use xlink:href="#m66ec77a9b4" x="160.445824" y="156.324645" style="stroke: #000000"/>
     <use xlink:href="#m66ec77a9b4" x="160.936037" y="151.868181" style="stroke: #000000"/>
     <use xlink:href="#m66ec77a9b4" x="161.42625" y="141.365588" style="stroke: #000000"/>
    </g>
   </g>
   <g id="PathCollection_5">
    <g clip-path="url(#p72be55d862)">
     <use xlink:href="#m66ec77a9b4" x="167.18625" y="203.451628" style="stroke: #000000"/>
     <use xlink:href="#m66ec77a9b4" x="178.70625" y="179.813858" style="stroke: #000000"/>
     <use xlink:href="#m66ec77a9b4" x="190.22625" y="116.686222" style="stroke: #000000"/>
    </g>
   </g>
   <g id="PathCollection_6">
    <g clip-path="url(#p72be55d862)">
     <use xlink:href="#m66ec77a9b4" x="195.98625" y="189.530825" style="stroke: #000000"/>
     <use xlink:href="#m66ec77a9b4" x="207.50625" y="147.591318" style="stroke: #000000"/>
     <use xlink:href="#m66ec77a9b4" x="219.02625" y="116.251868" style="stroke: #000000"/>
    </g>
   </g>
   <g id="matplotlib.axis_1">
    <g id="xtick_1">
     <g id="line2d_1"/>
     <g id="text_1">
      <text style="font: 10px 'Arial', sans-serif" transform="translate(57.945313 254.090625)">19</text>
      <text style="font: 10px 'Arial', sans-serif" transform="translate(55.164844 264.6675)">448</text>
     </g>
    </g>
    <g id="xtick_2">
     <g id="line2d_2"/>
     <g id="text_2">
      <text style="font: 10px 'Arial', sans-serif" transform="translate(83.964844 254.090625)">201</text>
      <text style="font: 10px 'Arial', sans-serif" transform="translate(83.964844 264.6675)">448</text>
     </g>
    </g>
    <g id="xtick_3">
     <g id="line2d_3"/>
     <g id="text_3">
      <text style="font: 10px 'Arial', sans-serif" transform="translate(115.545313 254.090625)">55</text>
      <text style="font: 10px 'Arial', sans-serif" transform="translate(112.764844 264.6675)">448</text>
     </g>
    </g>
    <g id="xtick_4">
     <g id="line2d_4"/>
     <g id="text_4">
      <text style="font: 10px 'Arial', sans-serif" transform="translate(144.345313 254.090625)">48</text>
      <text style="font: 10px 'Arial', sans-serif" transform="translate(141.564844 264.6675)">448</text>
     </g>
    </g>
    <g id="xtick_5">
     <g id="line2d_5"/>
     <g id="text_5">
      <text style="font: 10px 'Arial', sans-serif" transform="translate(175.925781 254.090625)">3</text>
      <text style="font: 10px 'Arial', sans-serif" transform="translate(170.364844 264.6675)">448</text>
     </g>
    </g>
    <g id="xtick_6">
     <g id="line2d_6"/>
     <g id="text_6">
      <text style="font: 10px 'Arial', sans-serif" transform="translate(204.725781 254.090625)">3</text>
      <text style="font: 10px 'Arial', sans-serif" transform="translate(199.164844 264.6675)">448</text>
     </g>
    </g>
   </g>
   <g id="matplotlib.axis_2">
    <g id="ytick_1">
     <g id="line2d_7"/>
     <g id="text_7">
      <text style="font: 10px 'Arial', sans-serif; text-anchor: end" x="45.60625" y="247.011719" transform="rotate(-0 45.60625 247.011719)">0.001</text>
     </g>
    </g>
    <g id="ytick_2">
     <g id="line2d_8"/>
     <g id="text_8">
      <text style="font: 10px 'Arial', sans-serif; text-anchor: end" x="45.60625" y="196.611719" transform="rotate(-0 45.60625 196.611719)">0.01</text>
     </g>
    </g>
    <g id="ytick_3">
     <g id="line2d_9"/>
     <g id="text_9">
      <text style="font: 10px 'Arial', sans-serif; text-anchor: end" x="45.60625" y="146.211719" transform="rotate(-0 45.60625 146.211719)">0.1</text>
     </g>
    </g>
    <g id="ytick_4">
     <g id="line2d_10"/>
     <g id="text_10">
      <text style="font: 10px 'Arial', sans-serif; text-anchor: end" x="45.60625" y="95.811719" transform="rotate(-0 45.60625 95.811719)">1</text>
     </g>
    </g>
    <g id="ytick_5">
     <g id="line2d_11"/>
     <g id="text_11">
      <text style="font: 10px 'Arial', sans-serif; text-anchor: end" x="45.60625" y="45.411719" transform="rotate(-0 45.60625 45.411719)">10</text>
     </g>
    </g>
    <g id="text_12">
     <text style="font: 10px 'Arial', sans-serif; text-anchor: middle" x="14.479688" y="142.632812" transform="rotate(-90 14.479688 142.632812)">Somatic Mutations per Megabase</text>
    </g>
   </g>
   <g id="LineCollection_2">
    <path d="M 51.98625 190.857803 
L 75.02625 190.857803 
" clip-path="url(#p72be55d862)" style="fill: none; stroke: #ff0000; stroke-width: 1.5"/>
   </g>
   <g id="LineCollection_3">
    <path d="M 80.78625 189.530825 
L 103.82625 189.530825 
" clip-path="url(#p72be55d862)" style="fill: none; stroke: #ff0000; stroke-width: 1.5"/>
   </g>
   <g id="LineCollection_4">
    <path d="M 109.58625 188.279716 
L 132.62625 188.279716 
" clip-path="url(#p72be55d862)" style="fill: none; stroke: #ff0000; stroke-width: 1.5"/>
   </g>
   <g id="LineCollection_5">
    <path d="M 138.38625 183.893002 
L 161.42625 183.893002 
" clip-path="url(#p72be55d862)" style="fill: none; stroke: #ff0000; stroke-width: 1.5"/>
   </g>
   <g id="LineCollection_6">
    <path d="M 167.18625 179.813858 
L 190.22625 179.813858 
" clip-path="url(#p72be55d862)" style="fill: none; stroke: #ff0000; stroke-width: 1.5"/>
   </g>
   <g id="LineCollection_7">
    <path d="M 195.98625 147.591318 
L 219.02625 147.591318 
" clip-path="url(#p72be55d862)" style="fill: none; stroke: #ff0000; stroke-width: 1.5"/>
   </g>
   <g id="patch_7">
    <path d="M 49.10625 243.432812 
L 49.10625 41.832812 
" style="fill: none; stroke: #000000; stroke-width: 0.8; stroke-linejoin: miter; stroke-linecap: square"/>
   </g>
   <g id="patch_8">
    <path d="M 221.90625 243.432812 
L 221.90625 41.832812 
" style="fill: none; stroke: #000000; stroke-width: 0.8; stroke-linejoin: miter; stroke-linecap: square"/>
   </g>
   <g id="patch_9">
    <path d="M 49.10625 243.432812 
L 221.90625 243.432812 
" style="fill: none; stroke: #000000; stroke-width: 0.8; stroke-linejoin: miter; stroke-linecap: square"/>
   </g>
   <g id="patch_10">
    <path d="M 49.10625 41.832812 
L 221.90625 41.832812 
" style="fill: none; stroke: #000000; stroke-width: 0.8; stroke-linejoin: miter; stroke-linecap: square"/>
   </g>
   <g id="text_13">
    <text style="font: 10px 'Arial', sans-serif; text-anchor: middle" x="63.50625" y="254.232812" transform="rotate(-0 63.50625 254.232812)">___</text>
   </g>
   <g id="text_14">
    <text style="font: 10px 'Arial', sans-serif; text-anchor: middle" x="92.30625" y="254.232812" transform="rotate(-0 92.30625 254.232812)">___</text>
   </g>
   <g id="text_15">
    <text style="font: 10px 'Arial', sans-serif; text-anchor: middle" x="121.10625" y="254.232812" transform="rotate(-0 121.10625 254.232812)">___</text>
   </g>
   <g id="text_16">
    <text style="font: 10px 'Arial', sans-serif; text-anchor: middle" x="149.90625" y="254.232812" transform="rotate(-0 149.90625 254.232812)">___</text>
   </g>
   <g id="text_17">
    <text style="font: 10px 'Arial', sans-serif; text-anchor: middle" x="178.70625" y="254.232812" transform="rotate(-0 178.70625 254.232812)">___</text>
   </g>
   <g id="text_18">
    <text style="font: 10px 'Arial', sans-serif; text-anchor: middle" x="207.50625" y="254.232812" transform="rotate(-0 207.50625 254.232812)">___</text>
   </g>
  </g>
  <g id="axes_2">
   <g id="matplotlib.axis_3">
    <g id="xtick_7">
     <g id="line2d_12"/>
     <g id="text_19">
      <text style="font: 10px 'Arial', sans-serif" transform="translate(57.657528 7.2) rotate(-270)">SBS7b</text>
     </g>
    </g>
    <g id="xtick_8">
     <g id="line2d_13"/>
     <g id="text_20">
      <text style="font: 10px 'Arial', sans-serif" transform="translate(89.07571 12.760937) rotate(-270)">SBS5</text>
     </g>
    </g>
    <g id="xtick_9">
     <g id="line2d_14"/>
     <g id="text_21">
      <text style="font: 10px 'Arial', sans-serif" transform="translate(120.493892 7.2) rotate(-270)">SBS13</text>
     </g>
    </g>
    <g id="xtick_10">
     <g id="line2d_15"/>
     <g id="text_22">
      <text style="font: 10px 'Arial', sans-serif" transform="translate(151.912074 12.760937) rotate(-270)">SBS2</text>
     </g>
    </g>
    <g id="xtick_11">
     <g id="line2d_16"/>
     <g id="text_23">
      <text style="font: 10px 'Arial', sans-serif" transform="translate(183.330256 7.2) rotate(-270)">SBS46</text>
     </g>
    </g>
    <g id="xtick_12">
     <g id="line2d_17"/>
     <g id="text_24">
      <text style="font: 10px 'Arial', sans-serif" transform="translate(214.748438 12.760937) rotate(-270)">SBS1</text>
     </g>
    </g>
   </g>
   <g id="patch_11">
    <path d="M 49.10625 243.432812 
L 49.10625 41.832812 
" style="fill: none; stroke: #000000; stroke-width: 0.8; stroke-linejoin: miter; stroke-linecap: square"/>
   </g>
   <g id="patch_12">
    <path d="M 221.90625 243.432812 
L 221.90625 41.832812 
" style="fill: none; stroke: #000000; stroke-width: 0.8; stroke-linejoin: miter; stroke-linecap: square"/>
   </g>
   <g id="patch_13">
    <path d="M 49.10625 243.432812 
L 221.90625 243.432812 
" style="fill: none; stroke: #000000; stroke-width: 0.8; stroke-linejoin: miter; stroke-linecap: square"/>
   </g>
   <g id="patch_14">
    <path d="M 49.10625 41.832812 
L 221.90625 41.832812 
" style="fill: none; stroke: #000000; stroke-width: 0.8; stroke-linejoin: miter; stroke-linecap: square"/>
   </g>
   <g id="legend_1">
    <g id="patch_15">
     <path d="M 253.511563 124.182562 
L 358.98625 124.182562 
Q 361.78625 124.182562 361.78625 121.382562 
L 361.78625 43.568812 
Q 361.78625 40.768812 358.98625 40.768812 
L 253.511563 40.768812 
Q 250.711563 40.768812 250.711563 43.568812 
L 250.711563 121.382562 
Q 250.711563 124.182562 253.511563 124.182562 
z
" style="fill: #ffffff; opacity: 0.8; stroke: #cccccc; stroke-linejoin: miter"/>
    </g>
    <g id="line2d_18">
     <path d="M 256.311563 51.48975 
L 270.311563 51.48975 
L 284.311563 51.48975 
" style="fill: none; stroke: #ffffff; stroke-width: 1.5; stroke-linecap: square"/>
     <defs>
      <path id="m02b3584141" d="M 0 10 
C 2.652031 10 5.195799 8.946337 7.071068 7.071068 
C 8.946337 5.195799 10 2.652031 10 0 
C 10 -2.652031 8.946337 -5.195799 7.071068 -7.071068 
C 5.195799 -8.946337 2.652031 -10 0 -10 
C -2.652031 -10 -5.195799 -8.946337 -7.071068 -7.071068 
C -8.946337 -5.195799 -10 -2.652031 -10 0 
C -10 2.652031 -8.946337 5.195799 -7.071068 7.071068 
C -5.195799 8.946337 -2.652031 10 0 10 
z
" style="stroke: #ffffff"/>
     </defs>
     <g>
      <use xlink:href="#m02b3584141" x="270.311563" y="51.48975" style="fill: #e6e6fa; stroke: #ffffff"/>
     </g>
    </g>
    <g id="text_25">
     <text style="font: 14px 'Arial', sans-serif; text-anchor: start" x="295.511563" y="56.38975" transform="rotate(-0 295.511563 56.38975)">Clock-like</text>
    </g>
    <g id="line2d_19">
     <path d="M 256.311563 71.293187 
L 270.311563 71.293187 
L 284.311563 71.293187 
" style="fill: none; stroke: #ffffff; stroke-width: 1.5; stroke-linecap: square"/>
     <defs>
      <path id="md7cf98f07b" d="M 0 10 
C 2.652031 10 5.195799 8.946337 7.071068 7.071068 
C 8.946337 5.195799 10 2.652031 10 0 
C 10 -2.652031 8.946337 -5.195799 7.071068 -7.071068 
C 5.195799 -8.946337 2.652031 -10 0 -10 
C -2.652031 -10 -5.195799 -8.946337 -7.071068 -7.071068 
C -8.946337 -5.195799 -10 -2.652031 -10 0 
C -10 2.652031 -8.946337 5.195799 -7.071068 7.071068 
C -5.195799 8.946337 -2.652031 10 0 10 
z
" style="stroke: #ffffff"/>
     </defs>
     <g>
      <use xlink:href="#md7cf98f07b" x="270.311563" y="71.293187" style="fill: #b0c4de; stroke: #ffffff"/>
     </g>
    </g>
    <g id="text_26">
     <text style="font: 14px 'Arial', sans-serif; text-anchor: start" x="295.511563" y="76.193187" transform="rotate(-0 295.511563 76.193187)">APOBEC</text>
    </g>
    <g id="line2d_20">
     <path d="M 256.311563 91.096625 
L 270.311563 91.096625 
L 284.311563 91.096625 
" style="fill: none; stroke: #ffffff; stroke-width: 1.5; stroke-linecap: square"/>
     <defs>
      <path id="m4565ab6ec3" d="M 0 10 
C 2.652031 10 5.195799 8.946337 7.071068 7.071068 
C 8.946337 5.195799 10 2.652031 10 0 
C 10 -2.652031 8.946337 -5.195799 7.071068 -7.071068 
C 5.195799 -8.946337 2.652031 -10 0 -10 
C -2.652031 -10 -5.195799 -8.946337 -7.071068 -7.071068 
C -8.946337 -5.195799 -10 -2.652031 -10 0 
C -10 2.652031 -8.946337 5.195799 -7.071068 7.071068 
C -5.195799 8.946337 -2.652031 10 0 10 
z
" style="stroke: #ffffff"/>
     </defs>
     <g>
      <use xlink:href="#m4565ab6ec3" x="270.311563" y="91.096625" style="fill: #ffe4e1; stroke: #ffffff"/>
     </g>
    </g>
    <g id="text_27">
     <text style="font: 14px 'Arial', sans-serif; text-anchor: start" x="295.511563" y="95.996625" transform="rotate(-0 295.511563 95.996625)">Platinum</text>
    </g>
    <g id="line2d_21">
     <path d="M 256.311563 110.900062 
L 270.311563 110.900062 
L 284.311563 110.900062 
" style="fill: none; stroke: #ffffff; stroke-width: 1.5; stroke-linecap: square"/>
     <defs>
      <path id="m92740b7d4f" d="M 0 10 
C 2.652031 10 5.195799 8.946337 7.071068 7.071068 
C 8.946337 5.195799 10 2.652031 10 0 
C 10 -2.652031 8.946337 -5.195799 7.071068 -7.071068 
C 5.195799 -8.946337 2.652031 -10 0 -10 
C -2.652031 -10 -5.195799 -8.946337 -7.071068 -7.071068 
C -8.946337 -5.195799 -10 -2.652031 -10 0 
C -10 2.652031 -8.946337 5.195799 -7.071068 7.071068 
C -5.195799 8.946337 -2.652031 10 0 10 
z
" style="stroke: #ffffff"/>
     </defs>
     <g>
      <use xlink:href="#m92740b7d4f" x="270.311563" y="110.900062" style="fill: #ffffff; stroke: #ffffff"/>
     </g>
    </g>
    <g id="text_28">
     <text style="font: 14px 'Arial', sans-serif; text-anchor: start" x="295.511563" y="115.800062" transform="rotate(-0 295.511563 115.800062)">Others</text>
    </g>
   </g>
  </g>
 </g>
 <defs>
  <clipPath id="p72be55d862">
   <rect x="49.10625" y="41.832812" width="172.8" height="201.6"/>
  </clipPath>
 </defs>
</svg>
