<?xml version="1.0" encoding="utf-8" standalone="no"?>
<!DOCTYPE svg PUBLIC "-//W3C//DTD SVG 1.1//EN"
  "http://www.w3.org/Graphics/SVG/1.1/DTD/svg11.dtd">
<svg xmlns:xlink="http://www.w3.org/1999/xlink" width="1682.273973pt" height="674.843036pt" viewBox="0 0 1682.273973 674.843036" xmlns="http://www.w3.org/2000/svg" version="1.1">
 <metadata>
  <rdf:RDF xmlns:dc="http://purl.org/dc/elements/1.1/" xmlns:cc="http://creativecommons.org/ns#" xmlns:rdf="http://www.w3.org/1999/02/22-rdf-syntax-ns#">
   <cc:Work>
    <dc:type rdf:resource="http://purl.org/dc/dcmitype/StillImage"/>
    <dc:date>2026-05-25T13:11:54.241354</dc:date>
    <dc:format>image/svg+xml</dc:format>
    <dc:creator>
     <cc:Agent>
      <dc:title>Matplotlib v3.7.3, https://matplotlib.org/</dc:title>
     </cc:Agent>
    </dc:creator>
   </cc:Work>
  </rdf:RDF>
 </metadata>
 <defs>
  <style type="text/css">*{stroke-linejoin: round; stroke-linecap: butt}</style>
 </defs>
 <g id="figure_1">
  <g id="patch_1">
   <path d="M 0 674.843036 
L 1682.273973 674.843036 
L 1682.273973 0 
L 0 0 
L 0 674.843036 
z
" style="fill: none"/>
  </g>
  <g id="axes_1">
   <g id="patch_2">
    <path d="M 222.48 421.714286 
L 1673.28 421.714286 
L 1673.28 7.2 
L 222.48 7.2 
L 222.48 421.714286 
z
" style="fill: none"/>
   </g>
   <g id="QuadMesh_1">
    <path d="M 222.48 7.2 
L 263.931429 7.2 
L 263.931429 48.651429 
L 222.48 48.651429 
L 222.48 7.2 
" clip-path="url(#pb12d033da2)" style="fill: #db2946"/>
    <path d="M 263.931429 7.2 
L 305.382857 7.2 
L 305.382857 48.651429 
L 263.931429 48.651429 
L 263.931429 7.2 
" clip-path="url(#pb12d033da2)" style="fill: #e23442"/>
    <path d="M 305.382857 7.2 
L 346.834286 7.2 
L 346.834286 48.651429 
L 305.382857 48.651429 
L 305.382857 7.2 
" clip-path="url(#pb12d033da2)" style="fill: #e23442"/>
    <path d="M 346.834286 7.2 
L 388.285714 7.2 
L 388.285714 48.651429 
L 346.834286 48.651429 
L 346.834286 7.2 
" clip-path="url(#pb12d033da2)" style="fill: #4b1d4a"/>
    <path d="M 388.285714 7.2 
L 429.737143 7.2 
L 429.737143 48.651429 
L 388.285714 48.651429 
L 388.285714 7.2 
" clip-path="url(#pb12d033da2)" style="fill: #f26747"/>
    <path d="M 429.737143 7.2 
L 471.188571 7.2 
L 471.188571 48.651429 
L 429.737143 48.651429 
L 429.737143 7.2 
" clip-path="url(#pb12d033da2)" style="fill: #ea443e"/>
    <path d="M 471.188571 7.2 
L 512.64 7.2 
L 512.64 48.651429 
L 471.188571 48.651429 
L 471.188571 7.2 
" clip-path="url(#pb12d033da2)" style="fill: #501d4c"/>
    <path d="M 512.64 7.2 
L 554.091429 7.2 
L 554.091429 48.651429 
L 512.64 48.651429 
L 512.64 7.2 
" clip-path="url(#pb12d033da2)" style="fill: #5b1e51"/>
    <path d="M 554.091429 7.2 
L 595.542857 7.2 
L 595.542857 48.651429 
L 554.091429 48.651429 
L 554.091429 7.2 
" clip-path="url(#pb12d033da2)" style="fill: #421b45"/>
    <path d="M 595.542857 7.2 
L 636.994286 7.2 
L 636.994286 48.651429 
L 595.542857 48.651429 
L 595.542857 7.2 
" clip-path="url(#pb12d033da2)" style="fill: #ef5840"/>
    <path d="M 636.994286 7.2 
L 678.445714 7.2 
L 678.445714 48.651429 
L 636.994286 48.651429 
L 636.994286 7.2 
" clip-path="url(#pb12d033da2)" style="fill: #f26948"/>
    <path d="M 678.445714 7.2 
L 719.897143 7.2 
L 719.897143 48.651429 
L 678.445714 48.651429 
L 678.445714 7.2 
" clip-path="url(#pb12d033da2)" style="fill: #431c46"/>
    <path d="M 719.897143 7.2 
L 761.348571 7.2 
L 761.348571 48.651429 
L 719.897143 48.651429 
L 719.897143 7.2 
" clip-path="url(#pb12d033da2)" style="fill: #ce1d4e"/>
    <path d="M 761.348571 7.2 
L 802.8 7.2 
L 802.8 48.651429 
L 761.348571 48.651429 
L 761.348571 7.2 
" clip-path="url(#pb12d033da2)" style="fill: #821e5a"/>
    <path d="M 802.8 7.2 
L 844.251429 7.2 
L 844.251429 48.651429 
L 802.8 48.651429 
L 802.8 7.2 
" clip-path="url(#pb12d033da2)" style="fill: #ee543f"/>
    <path d="M 844.251429 7.2 
L 885.702857 7.2 
L 885.702857 48.651429 
L 844.251429 48.651429 
L 844.251429 7.2 
" clip-path="url(#pb12d033da2)" style="fill: #f05c42"/>
    <path d="M 885.702857 7.2 
L 927.154286 7.2 
L 927.154286 48.651429 
L 885.702857 48.651429 
L 885.702857 7.2 
" clip-path="url(#pb12d033da2)" style="fill: #c21753"/>
    <path d="M 927.154286 7.2 
L 968.605714 7.2 
L 968.605714 48.651429 
L 927.154286 48.651429 
L 927.154286 7.2 
" clip-path="url(#pb12d033da2)" style="fill: #6e1f57"/>
    <path d="M 968.605714 7.2 
L 1010.057143 7.2 
L 1010.057143 48.651429 
L 968.605714 48.651429 
L 968.605714 7.2 
" clip-path="url(#pb12d033da2)" style="fill: #f4835b"/>
    <path d="M 1010.057143 7.2 
L 1051.508571 7.2 
L 1051.508571 48.651429 
L 1010.057143 48.651429 
L 1010.057143 7.2 
" clip-path="url(#pb12d033da2)" style="fill: #f06043"/>
    <path d="M 1051.508571 7.2 
L 1092.96 7.2 
L 1092.96 48.651429 
L 1051.508571 48.651429 
L 1051.508571 7.2 
" clip-path="url(#pb12d033da2)" style="fill: #c11754"/>
    <path d="M 1092.96 7.2 
L 1134.411429 7.2 
L 1134.411429 48.651429 
L 1092.96 48.651429 
L 1092.96 7.2 
" clip-path="url(#pb12d033da2)" style="fill: #ed4e3e"/>
    <path d="M 1134.411429 7.2 
L 1175.862857 7.2 
L 1175.862857 48.651429 
L 1134.411429 48.651429 
L 1134.411429 7.2 
" clip-path="url(#pb12d033da2)" style="fill: #581e4f"/>
    <path d="M 1175.862857 7.2 
L 1217.314286 7.2 
L 1217.314286 48.651429 
L 1175.862857 48.651429 
L 1175.862857 7.2 
" clip-path="url(#pb12d033da2)" style="fill: #bc1656"/>
    <path d="M 1217.314286 7.2 
L 1258.765714 7.2 
L 1258.765714 48.651429 
L 1217.314286 48.651429 
L 1217.314286 7.2 
" clip-path="url(#pb12d033da2)" style="fill: #e9423e"/>
    <path d="M 1258.765714 7.2 
L 1300.217143 7.2 
L 1300.217143 48.651429 
L 1258.765714 48.651429 
L 1258.765714 7.2 
" clip-path="url(#pb12d033da2)" style="fill: #7f1e5a"/>
    <path d="M 1300.217143 7.2 
L 1341.668571 7.2 
L 1341.668571 48.651429 
L 1300.217143 48.651429 
L 1300.217143 7.2 
" clip-path="url(#pb12d033da2)" style="fill: #f26d4b"/>
    <path d="M 1341.668571 7.2 
L 1383.12 7.2 
L 1383.12 48.651429 
L 1341.668571 48.651429 
L 1341.668571 7.2 
" clip-path="url(#pb12d033da2)" style="fill: #d92847"/>
    <path d="M 1383.12 7.2 
L 1424.571429 7.2 
L 1424.571429 48.651429 
L 1383.12 48.651429 
L 1383.12 7.2 
" clip-path="url(#pb12d033da2)" style="fill: #ef5640"/>
    <path d="M 1424.571429 7.2 
L 1466.022857 7.2 
L 1466.022857 48.651429 
L 1424.571429 48.651429 
L 1424.571429 7.2 
" clip-path="url(#pb12d033da2)" style="fill: #9c1b5b"/>
    <path d="M 1466.022857 7.2 
L 1507.474286 7.2 
L 1507.474286 48.651429 
L 1466.022857 48.651429 
L 1466.022857 7.2 
" clip-path="url(#pb12d033da2)" style="fill: #e73d3f"/>
    <path d="M 1507.474286 7.2 
L 1548.925714 7.2 
L 1548.925714 48.651429 
L 1507.474286 48.651429 
L 1507.474286 7.2 
" clip-path="url(#pb12d033da2)" style="fill: #5e1f52"/>
    <path d="M 1548.925714 7.2 
L 1590.377143 7.2 
L 1590.377143 48.651429 
L 1548.925714 48.651429 
L 1548.925714 7.2 
" clip-path="url(#pb12d033da2)" style="fill: #f37450"/>
    <path d="M 1590.377143 7.2 
L 1631.828571 7.2 
L 1631.828571 48.651429 
L 1590.377143 48.651429 
L 1590.377143 7.2 
" clip-path="url(#pb12d033da2)" style="fill: #861e5b"/>
    <path d="M 1631.828571 7.2 
L 1673.28 7.2 
L 1673.28 48.651429 
L 1631.828571 48.651429 
L 1631.828571 7.2 
" clip-path="url(#pb12d033da2)" style="fill: #f05c42"/>
    <path d="M 222.48 48.651429 
L 263.931429 48.651429 
L 263.931429 90.102857 
L 222.48 90.102857 
L 222.48 48.651429 
" clip-path="url(#pb12d033da2)" style="fill: #e33641"/>
    <path d="M 263.931429 48.651429 
L 305.382857 48.651429 
L 305.382857 90.102857 
L 263.931429 90.102857 
L 263.931429 48.651429 
" clip-path="url(#pb12d033da2)" style="fill: #631f53"/>
    <path d="M 305.382857 48.651429 
L 346.834286 48.651429 
L 346.834286 90.102857 
L 305.382857 90.102857 
L 305.382857 48.651429 
" clip-path="url(#pb12d033da2)" style="fill: #f6c19f"/>
    <path d="M 346.834286 48.651429 
L 388.285714 48.651429 
L 388.285714 90.102857 
L 346.834286 90.102857 
L 346.834286 48.651429 
" clip-path="url(#pb12d033da2)" style="fill: #1a102a"/>
    <path d="M 388.285714 48.651429 
L 429.737143 48.651429 
L 429.737143 90.102857 
L 388.285714 90.102857 
L 388.285714 48.651429 
" clip-path="url(#pb12d033da2)" style="fill: #c71951"/>
    <path d="M 429.737143 48.651429 
L 471.188571 48.651429 
L 471.188571 90.102857 
L 429.737143 90.102857 
L 429.737143 48.651429 
" clip-path="url(#pb12d033da2)" style="fill: #e8403e"/>
    <path d="M 471.188571 48.651429 
L 512.64 48.651429 
L 512.64 90.102857 
L 471.188571 90.102857 
L 471.188571 48.651429 
" clip-path="url(#pb12d033da2)" style="fill: #5e1f52"/>
    <path d="M 512.64 48.651429 
L 554.091429 48.651429 
L 554.091429 90.102857 
L 512.64 90.102857 
L 512.64 48.651429 
" clip-path="url(#pb12d033da2)" style="fill: #31183b"/>
    <path d="M 554.091429 48.651429 
L 595.542857 48.651429 
L 595.542857 90.102857 
L 554.091429 90.102857 
L 554.091429 48.651429 
" clip-path="url(#pb12d033da2)" style="fill: #5e1f52"/>
    <path d="M 595.542857 48.651429 
L 636.994286 48.651429 
L 636.994286 90.102857 
L 595.542857 90.102857 
L 595.542857 48.651429 
" clip-path="url(#pb12d033da2)" style="fill: #c21753"/>
    <path d="M 636.994286 48.651429 
L 678.445714 48.651429 
L 678.445714 90.102857 
L 636.994286 90.102857 
L 636.994286 48.651429 
" clip-path="url(#pb12d033da2)" style="fill: #f16445"/>
    <path d="M 678.445714 48.651429 
L 719.897143 48.651429 
L 719.897143 90.102857 
L 678.445714 90.102857 
L 678.445714 48.651429 
" clip-path="url(#pb12d033da2)" style="fill: #601f52"/>
    <path d="M 719.897143 48.651429 
L 761.348571 48.651429 
L 761.348571 90.102857 
L 719.897143 90.102857 
L 719.897143 48.651429 
" clip-path="url(#pb12d033da2)" style="fill: #561e4f"/>
    <path d="M 761.348571 48.651429 
L 802.8 48.651429 
L 802.8 90.102857 
L 761.348571 90.102857 
L 761.348571 48.651429 
" clip-path="url(#pb12d033da2)" style="fill: #591e50"/>
    <path d="M 802.8 48.651429 
L 844.251429 48.651429 
L 844.251429 90.102857 
L 802.8 90.102857 
L 802.8 48.651429 
" clip-path="url(#pb12d033da2)" style="fill: #b21758"/>
    <path d="M 844.251429 48.651429 
L 885.702857 48.651429 
L 885.702857 90.102857 
L 844.251429 90.102857 
L 844.251429 48.651429 
" clip-path="url(#pb12d033da2)" style="fill: #b51657"/>
    <path d="M 885.702857 48.651429 
L 927.154286 48.651429 
L 927.154286 90.102857 
L 885.702857 90.102857 
L 885.702857 48.651429 
" clip-path="url(#pb12d033da2)" style="fill: #b71657"/>
    <path d="M 927.154286 48.651429 
L 968.605714 48.651429 
L 968.605714 90.102857 
L 927.154286 90.102857 
L 927.154286 48.651429 
" clip-path="url(#pb12d033da2)" style="fill: #e03143"/>
    <path d="M 968.605714 48.651429 
L 1010.057143 48.651429 
L 1010.057143 90.102857 
L 968.605714 90.102857 
L 968.605714 48.651429 
" clip-path="url(#pb12d033da2)" style="fill: #9e1a5b"/>
    <path d="M 1010.057143 48.651429 
L 1051.508571 48.651429 
L 1051.508571 90.102857 
L 1010.057143 90.102857 
L 1010.057143 48.651429 
" clip-path="url(#pb12d033da2)" style="fill: #9a1b5b"/>
    <path d="M 1051.508571 48.651429 
L 1092.96 48.651429 
L 1092.96 90.102857 
L 1051.508571 90.102857 
L 1051.508571 48.651429 
" clip-path="url(#pb12d033da2)" style="fill: #701f57"/>
    <path d="M 1092.96 48.651429 
L 1134.411429 48.651429 
L 1134.411429 90.102857 
L 1092.96 90.102857 
L 1092.96 48.651429 
" clip-path="url(#pb12d033da2)" style="fill: #f58f66"/>
    <path d="M 1134.411429 48.651429 
L 1175.862857 48.651429 
L 1175.862857 90.102857 
L 1134.411429 90.102857 
L 1134.411429 48.651429 
" clip-path="url(#pb12d033da2)" style="fill: #ce1d4e"/>
    <path d="M 1175.862857 48.651429 
L 1217.314286 48.651429 
L 1217.314286 90.102857 
L 1175.862857 90.102857 
L 1175.862857 48.651429 
" clip-path="url(#pb12d033da2)" style="fill: #30173a"/>
    <path d="M 1217.314286 48.651429 
L 1258.765714 48.651429 
L 1258.765714 90.102857 
L 1217.314286 90.102857 
L 1217.314286 48.651429 
" clip-path="url(#pb12d033da2)" style="fill: #ef5840"/>
    <path d="M 1258.765714 48.651429 
L 1300.217143 48.651429 
L 1300.217143 90.102857 
L 1258.765714 90.102857 
L 1258.765714 48.651429 
" clip-path="url(#pb12d033da2)" style="fill: #e43841"/>
    <path d="M 1300.217143 48.651429 
L 1341.668571 48.651429 
L 1341.668571 90.102857 
L 1300.217143 90.102857 
L 1300.217143 48.651429 
" clip-path="url(#pb12d033da2)" style="fill: #821e5a"/>
    <path d="M 1341.668571 48.651429 
L 1383.12 48.651429 
L 1383.12 90.102857 
L 1341.668571 90.102857 
L 1341.668571 48.651429 
" clip-path="url(#pb12d033da2)" style="fill: #5e1f52"/>
    <path d="M 1383.12 48.651429 
L 1424.571429 48.651429 
L 1424.571429 90.102857 
L 1383.12 90.102857 
L 1383.12 48.651429 
" clip-path="url(#pb12d033da2)" style="fill: #f16646"/>
    <path d="M 1424.571429 48.651429 
L 1466.022857 48.651429 
L 1466.022857 90.102857 
L 1424.571429 90.102857 
L 1424.571429 48.651429 
" clip-path="url(#pb12d033da2)" style="fill: #d92847"/>
    <path d="M 1466.022857 48.651429 
L 1507.474286 48.651429 
L 1507.474286 90.102857 
L 1466.022857 90.102857 
L 1466.022857 48.651429 
" clip-path="url(#pb12d033da2)" style="fill: #ee523f"/>
    <path d="M 1507.474286 48.651429 
L 1548.925714 48.651429 
L 1548.925714 90.102857 
L 1507.474286 90.102857 
L 1507.474286 48.651429 
" clip-path="url(#pb12d033da2)" style="fill: #7f1e5a"/>
    <path d="M 1548.925714 48.651429 
L 1590.377143 48.651429 
L 1590.377143 90.102857 
L 1548.925714 90.102857 
L 1548.925714 48.651429 
" clip-path="url(#pb12d033da2)" style="fill: #ea443e"/>
    <path d="M 1590.377143 48.651429 
L 1631.828571 48.651429 
L 1631.828571 90.102857 
L 1590.377143 90.102857 
L 1590.377143 48.651429 
" clip-path="url(#pb12d033da2)" style="fill: #681f55"/>
    <path d="M 1631.828571 48.651429 
L 1673.28 48.651429 
L 1673.28 90.102857 
L 1631.828571 90.102857 
L 1631.828571 48.651429 
" clip-path="url(#pb12d033da2)" style="fill: #f6b089"/>
    <path d="M 222.48 90.102857 
L 263.931429 90.102857 
L 263.931429 131.554286 
L 222.48 131.554286 
L 222.48 90.102857 
" clip-path="url(#pb12d033da2)" style="fill: #221331"/>
    <path d="M 263.931429 90.102857 
L 305.382857 90.102857 
L 305.382857 131.554286 
L 263.931429 131.554286 
L 263.931429 90.102857 
" clip-path="url(#pb12d033da2)" style="fill: #f8d1b8"/>
    <path d="M 305.382857 90.102857 
L 346.834286 90.102857 
L 346.834286 131.554286 
L 305.382857 131.554286 
L 305.382857 90.102857 
" clip-path="url(#pb12d033da2)" style="fill: #5c1e51"/>
    <path d="M 346.834286 90.102857 
L 388.285714 90.102857 
L 388.285714 131.554286 
L 346.834286 131.554286 
L 346.834286 90.102857 
" clip-path="url(#pb12d033da2)" style="fill: #20122e"/>
    <path d="M 388.285714 90.102857 
L 429.737143 90.102857 
L 429.737143 131.554286 
L 388.285714 131.554286 
L 388.285714 90.102857 
" clip-path="url(#pb12d033da2)" style="fill: #a4195b"/>
    <path d="M 429.737143 90.102857 
L 471.188571 90.102857 
L 471.188571 131.554286 
L 429.737143 131.554286 
L 429.737143 90.102857 
" clip-path="url(#pb12d033da2)" style="fill: #8c1d5b"/>
    <path d="M 471.188571 90.102857 
L 512.64 90.102857 
L 512.64 131.554286 
L 471.188571 131.554286 
L 471.188571 90.102857 
" clip-path="url(#pb12d033da2)" style="fill: #2d1738"/>
    <path d="M 512.64 90.102857 
L 554.091429 90.102857 
L 554.091429 131.554286 
L 512.64 131.554286 
L 512.64 90.102857 
" clip-path="url(#pb12d033da2)" style="fill: #0b0920"/>
    <path d="M 554.091429 90.102857 
L 595.542857 90.102857 
L 595.542857 131.554286 
L 554.091429 131.554286 
L 554.091429 90.102857 
" clip-path="url(#pb12d033da2)" style="fill: #06071c"/>
    <path d="M 595.542857 90.102857 
L 636.994286 90.102857 
L 636.994286 131.554286 
L 595.542857 131.554286 
L 595.542857 90.102857 
" clip-path="url(#pb12d033da2)" style="fill: #9e1a5b"/>
    <path d="M 636.994286 90.102857 
L 678.445714 90.102857 
L 678.445714 131.554286 
L 636.994286 131.554286 
L 636.994286 90.102857 
" clip-path="url(#pb12d033da2)" style="fill: #691f55"/>
    <path d="M 678.445714 90.102857 
L 719.897143 90.102857 
L 719.897143 131.554286 
L 678.445714 131.554286 
L 678.445714 90.102857 
" clip-path="url(#pb12d033da2)" style="fill: #6e1f57"/>
    <path d="M 719.897143 90.102857 
L 761.348571 90.102857 
L 761.348571 131.554286 
L 719.897143 131.554286 
L 719.897143 90.102857 
" clip-path="url(#pb12d033da2)" style="fill: #821e5a"/>
    <path d="M 761.348571 90.102857 
L 802.8 90.102857 
L 802.8 131.554286 
L 761.348571 131.554286 
L 761.348571 90.102857 
" clip-path="url(#pb12d033da2)" style="fill: #251433"/>
    <path d="M 802.8 90.102857 
L 844.251429 90.102857 
L 844.251429 131.554286 
L 802.8 131.554286 
L 802.8 90.102857 
" clip-path="url(#pb12d033da2)" style="fill: #661f54"/>
    <path d="M 844.251429 90.102857 
L 885.702857 90.102857 
L 885.702857 131.554286 
L 844.251429 131.554286 
L 844.251429 90.102857 
" clip-path="url(#pb12d033da2)" style="fill: #a4195b"/>
    <path d="M 885.702857 90.102857 
L 927.154286 90.102857 
L 927.154286 131.554286 
L 885.702857 131.554286 
L 885.702857 90.102857 
" clip-path="url(#pb12d033da2)" style="fill: #a6195a"/>
    <path d="M 927.154286 90.102857 
L 968.605714 90.102857 
L 968.605714 131.554286 
L 927.154286 131.554286 
L 927.154286 90.102857 
" clip-path="url(#pb12d033da2)" style="fill: #180f29"/>
    <path d="M 968.605714 90.102857 
L 1010.057143 90.102857 
L 1010.057143 131.554286 
L 968.605714 131.554286 
L 968.605714 90.102857 
" clip-path="url(#pb12d033da2)" style="fill: #f59269"/>
    <path d="M 1010.057143 90.102857 
L 1051.508571 90.102857 
L 1051.508571 131.554286 
L 1010.057143 131.554286 
L 1010.057143 90.102857 
" clip-path="url(#pb12d033da2)" style="fill: #951c5b"/>
    <path d="M 1051.508571 90.102857 
L 1092.96 90.102857 
L 1092.96 131.554286 
L 1051.508571 131.554286 
L 1051.508571 90.102857 
" clip-path="url(#pb12d033da2)" style="fill: #f6b691"/>
    <path d="M 1092.96 90.102857 
L 1134.411429 90.102857 
L 1134.411429 131.554286 
L 1092.96 131.554286 
L 1092.96 90.102857 
" clip-path="url(#pb12d033da2)" style="fill: #461c48"/>
    <path d="M 1134.411429 90.102857 
L 1175.862857 90.102857 
L 1175.862857 131.554286 
L 1134.411429 131.554286 
L 1134.411429 90.102857 
" clip-path="url(#pb12d033da2)" style="fill: #2e1739"/>
    <path d="M 1175.862857 90.102857 
L 1217.314286 90.102857 
L 1217.314286 131.554286 
L 1175.862857 131.554286 
L 1175.862857 90.102857 
" clip-path="url(#pb12d033da2)" style="fill: #cb1b4f"/>
    <path d="M 1217.314286 90.102857 
L 1258.765714 90.102857 
L 1258.765714 131.554286 
L 1217.314286 131.554286 
L 1217.314286 90.102857 
" clip-path="url(#pb12d033da2)" style="fill: #20122e"/>
    <path d="M 1258.765714 90.102857 
L 1300.217143 90.102857 
L 1300.217143 131.554286 
L 1258.765714 131.554286 
L 1258.765714 90.102857 
" clip-path="url(#pb12d033da2)" style="fill: #0e0b22"/>
    <path d="M 1300.217143 90.102857 
L 1341.668571 90.102857 
L 1341.668571 131.554286 
L 1300.217143 131.554286 
L 1300.217143 90.102857 
" clip-path="url(#pb12d033da2)" style="fill: #f4815a"/>
    <path d="M 1341.668571 90.102857 
L 1383.12 90.102857 
L 1383.12 131.554286 
L 1341.668571 131.554286 
L 1341.668571 90.102857 
" clip-path="url(#pb12d033da2)" style="fill: #f59067"/>
    <path d="M 1383.12 90.102857 
L 1424.571429 90.102857 
L 1424.571429 131.554286 
L 1383.12 131.554286 
L 1383.12 90.102857 
" clip-path="url(#pb12d033da2)" style="fill: #8c1d5b"/>
    <path d="M 1424.571429 90.102857 
L 1466.022857 90.102857 
L 1466.022857 131.554286 
L 1424.571429 131.554286 
L 1424.571429 90.102857 
" clip-path="url(#pb12d033da2)" style="fill: #561e4f"/>
    <path d="M 1466.022857 90.102857 
L 1507.474286 90.102857 
L 1507.474286 131.554286 
L 1466.022857 131.554286 
L 1466.022857 90.102857 
" clip-path="url(#pb12d033da2)" style="fill: #7a1f59"/>
    <path d="M 1507.474286 90.102857 
L 1548.925714 90.102857 
L 1548.925714 131.554286 
L 1507.474286 131.554286 
L 1507.474286 90.102857 
" clip-path="url(#pb12d033da2)" style="fill: #100b23"/>
    <path d="M 1548.925714 90.102857 
L 1590.377143 90.102857 
L 1590.377143 131.554286 
L 1548.925714 131.554286 
L 1548.925714 90.102857 
" clip-path="url(#pb12d033da2)" style="fill: #c51852"/>
    <path d="M 1590.377143 90.102857 
L 1631.828571 90.102857 
L 1631.828571 131.554286 
L 1590.377143 131.554286 
L 1590.377143 90.102857 
" clip-path="url(#pb12d033da2)" style="fill: #e03143"/>
    <path d="M 1631.828571 90.102857 
L 1673.28 90.102857 
L 1673.28 131.554286 
L 1631.828571 131.554286 
L 1631.828571 90.102857 
" clip-path="url(#pb12d033da2)" style="fill: #3f1b43"/>
    <path d="M 222.48 131.554286 
L 263.931429 131.554286 
L 263.931429 173.005714 
L 222.48 173.005714 
L 222.48 131.554286 
" clip-path="url(#pb12d033da2)" style="fill: #2a1636"/>
    <path d="M 263.931429 131.554286 
L 305.382857 131.554286 
L 305.382857 173.005714 
L 263.931429 173.005714 
L 263.931429 131.554286 
" clip-path="url(#pb12d033da2)" style="fill: #aa185a"/>
    <path d="M 305.382857 131.554286 
L 346.834286 131.554286 
L 346.834286 173.005714 
L 305.382857 173.005714 
L 305.382857 131.554286 
" clip-path="url(#pb12d033da2)" style="fill: #5c1e51"/>
    <path d="M 346.834286 131.554286 
L 388.285714 131.554286 
L 388.285714 173.005714 
L 346.834286 173.005714 
L 346.834286 131.554286 
" clip-path="url(#pb12d033da2)" style="fill: #f6a077"/>
    <path d="M 388.285714 131.554286 
L 429.737143 131.554286 
L 429.737143 173.005714 
L 388.285714 173.005714 
L 388.285714 131.554286 
" clip-path="url(#pb12d033da2)" style="fill: #c51852"/>
    <path d="M 429.737143 131.554286 
L 471.188571 131.554286 
L 471.188571 173.005714 
L 429.737143 173.005714 
L 429.737143 131.554286 
" clip-path="url(#pb12d033da2)" style="fill: #ad1759"/>
    <path d="M 471.188571 131.554286 
L 512.64 131.554286 
L 512.64 173.005714 
L 471.188571 173.005714 
L 471.188571 131.554286 
" clip-path="url(#pb12d033da2)" style="fill: #6d1f56"/>
    <path d="M 512.64 131.554286 
L 554.091429 131.554286 
L 554.091429 173.005714 
L 512.64 173.005714 
L 512.64 131.554286 
" clip-path="url(#pb12d033da2)" style="fill: #05061b"/>
    <path d="M 554.091429 131.554286 
L 595.542857 131.554286 
L 595.542857 173.005714 
L 554.091429 173.005714 
L 554.091429 131.554286 
" clip-path="url(#pb12d033da2)" style="fill: #180f29"/>
    <path d="M 595.542857 131.554286 
L 636.994286 131.554286 
L 636.994286 173.005714 
L 595.542857 173.005714 
L 595.542857 131.554286 
" clip-path="url(#pb12d033da2)" style="fill: #c51852"/>
    <path d="M 636.994286 131.554286 
L 678.445714 131.554286 
L 678.445714 173.005714 
L 636.994286 173.005714 
L 636.994286 131.554286 
" clip-path="url(#pb12d033da2)" style="fill: #bd1655"/>
    <path d="M 678.445714 131.554286 
L 719.897143 131.554286 
L 719.897143 173.005714 
L 678.445714 173.005714 
L 678.445714 131.554286 
" clip-path="url(#pb12d033da2)" style="fill: #160e27"/>
    <path d="M 719.897143 131.554286 
L 761.348571 131.554286 
L 761.348571 173.005714 
L 719.897143 173.005714 
L 719.897143 131.554286 
" clip-path="url(#pb12d033da2)" style="fill: #f05e42"/>
    <path d="M 761.348571 131.554286 
L 802.8 131.554286 
L 802.8 173.005714 
L 761.348571 173.005714 
L 761.348571 131.554286 
" clip-path="url(#pb12d033da2)" style="fill: #a6195a"/>
    <path d="M 802.8 131.554286 
L 844.251429 131.554286 
L 844.251429 173.005714 
L 802.8 173.005714 
L 802.8 131.554286 
" clip-path="url(#pb12d033da2)" style="fill: #bd1655"/>
    <path d="M 844.251429 131.554286 
L 885.702857 131.554286 
L 885.702857 173.005714 
L 844.251429 173.005714 
L 844.251429 131.554286 
" clip-path="url(#pb12d033da2)" style="fill: #b71657"/>
    <path d="M 885.702857 131.554286 
L 927.154286 131.554286 
L 927.154286 173.005714 
L 885.702857 173.005714 
L 885.702857 131.554286 
" clip-path="url(#pb12d033da2)" style="fill: #c21753"/>
    <path d="M 927.154286 131.554286 
L 968.605714 131.554286 
L 968.605714 173.005714 
L 927.154286 173.005714 
L 927.154286 131.554286 
" clip-path="url(#pb12d033da2)" style="fill: #6b1f56"/>
    <path d="M 968.605714 131.554286 
L 1010.057143 131.554286 
L 1010.057143 173.005714 
L 968.605714 173.005714 
L 968.605714 131.554286 
" clip-path="url(#pb12d033da2)" style="fill: #dd2c45"/>
    <path d="M 1010.057143 131.554286 
L 1051.508571 131.554286 
L 1051.508571 173.005714 
L 1010.057143 173.005714 
L 1010.057143 131.554286 
" clip-path="url(#pb12d033da2)" style="fill: #841e5a"/>
    <path d="M 1051.508571 131.554286 
L 1092.96 131.554286 
L 1092.96 173.005714 
L 1051.508571 173.005714 
L 1051.508571 131.554286 
" clip-path="url(#pb12d033da2)" style="fill: #b51657"/>
    <path d="M 1092.96 131.554286 
L 1134.411429 131.554286 
L 1134.411429 173.005714 
L 1092.96 173.005714 
L 1092.96 131.554286 
" clip-path="url(#pb12d033da2)" style="fill: #511e4d"/>
    <path d="M 1134.411429 131.554286 
L 1175.862857 131.554286 
L 1175.862857 173.005714 
L 1134.411429 173.005714 
L 1134.411429 131.554286 
" clip-path="url(#pb12d033da2)" style="fill: #2b1637"/>
    <path d="M 1175.862857 131.554286 
L 1217.314286 131.554286 
L 1217.314286 173.005714 
L 1175.862857 173.005714 
L 1175.862857 131.554286 
" clip-path="url(#pb12d033da2)" style="fill: #f16445"/>
    <path d="M 1217.314286 131.554286 
L 1258.765714 131.554286 
L 1258.765714 173.005714 
L 1217.314286 173.005714 
L 1217.314286 131.554286 
" clip-path="url(#pb12d033da2)" style="fill: #281535"/>
    <path d="M 1258.765714 131.554286 
L 1300.217143 131.554286 
L 1300.217143 173.005714 
L 1258.765714 173.005714 
L 1258.765714 131.554286 
" clip-path="url(#pb12d033da2)" style="fill: #1e122d"/>
    <path d="M 1300.217143 131.554286 
L 1341.668571 131.554286 
L 1341.668571 173.005714 
L 1300.217143 173.005714 
L 1300.217143 131.554286 
" clip-path="url(#pb12d033da2)" style="fill: #e13342"/>
    <path d="M 1341.668571 131.554286 
L 1383.12 131.554286 
L 1383.12 173.005714 
L 1341.668571 173.005714 
L 1341.668571 131.554286 
" clip-path="url(#pb12d033da2)" style="fill: #901d5b"/>
    <path d="M 1383.12 131.554286 
L 1424.571429 131.554286 
L 1424.571429 173.005714 
L 1383.12 173.005714 
L 1383.12 131.554286 
" clip-path="url(#pb12d033da2)" style="fill: #601f52"/>
    <path d="M 1424.571429 131.554286 
L 1466.022857 131.554286 
L 1466.022857 173.005714 
L 1424.571429 173.005714 
L 1424.571429 131.554286 
" clip-path="url(#pb12d033da2)" style="fill: #431c46"/>
    <path d="M 1466.022857 131.554286 
L 1507.474286 131.554286 
L 1507.474286 173.005714 
L 1466.022857 173.005714 
L 1466.022857 131.554286 
" clip-path="url(#pb12d033da2)" style="fill: #661f54"/>
    <path d="M 1507.474286 131.554286 
L 1548.925714 131.554286 
L 1548.925714 173.005714 
L 1507.474286 173.005714 
L 1507.474286 131.554286 
" clip-path="url(#pb12d033da2)" style="fill: #221331"/>
    <path d="M 1548.925714 131.554286 
L 1590.377143 131.554286 
L 1590.377143 173.005714 
L 1548.925714 173.005714 
L 1548.925714 131.554286 
" clip-path="url(#pb12d033da2)" style="fill: #a6195a"/>
    <path d="M 1590.377143 131.554286 
L 1631.828571 131.554286 
L 1631.828571 173.005714 
L 1590.377143 173.005714 
L 1590.377143 131.554286 
" clip-path="url(#pb12d033da2)" style="fill: #4c1d4b"/>
    <path d="M 1631.828571 131.554286 
L 1673.28 131.554286 
L 1673.28 173.005714 
L 1631.828571 173.005714 
L 1631.828571 131.554286 
" clip-path="url(#pb12d033da2)" style="fill: #4b1d4a"/>
    <path d="M 222.48 173.005714 
L 263.931429 173.005714 
L 263.931429 214.457143 
L 222.48 214.457143 
L 222.48 173.005714 
" clip-path="url(#pb12d033da2)" style="fill: #3a1a41"/>
    <path d="M 263.931429 173.005714 
L 305.382857 173.005714 
L 305.382857 214.457143 
L 263.931429 214.457143 
L 263.931429 173.005714 
" clip-path="url(#pb12d033da2)" style="fill: #4c1d4b"/>
    <path d="M 305.382857 173.005714 
L 346.834286 173.005714 
L 346.834286 214.457143 
L 305.382857 214.457143 
L 305.382857 173.005714 
" clip-path="url(#pb12d033da2)" style="fill: #601f52"/>
    <path d="M 346.834286 173.005714 
L 388.285714 173.005714 
L 388.285714 214.457143 
L 346.834286 214.457143 
L 346.834286 173.005714 
" clip-path="url(#pb12d033da2)" style="fill: #661f54"/>
    <path d="M 388.285714 173.005714 
L 429.737143 173.005714 
L 429.737143 214.457143 
L 388.285714 214.457143 
L 388.285714 173.005714 
" clip-path="url(#pb12d033da2)" style="fill: #871e5b"/>
    <path d="M 429.737143 173.005714 
L 471.188571 173.005714 
L 471.188571 214.457143 
L 429.737143 214.457143 
L 429.737143 173.005714 
" clip-path="url(#pb12d033da2)" style="fill: #ce1d4e"/>
    <path d="M 471.188571 173.005714 
L 512.64 173.005714 
L 512.64 214.457143 
L 471.188571 214.457143 
L 471.188571 173.005714 
" clip-path="url(#pb12d033da2)" style="fill: #f7d0b5"/>
    <path d="M 512.64 173.005714 
L 554.091429 173.005714 
L 554.091429 214.457143 
L 512.64 214.457143 
L 512.64 173.005714 
" clip-path="url(#pb12d033da2)" style="fill: #08081e"/>
    <path d="M 554.091429 173.005714 
L 595.542857 173.005714 
L 595.542857 214.457143 
L 554.091429 214.457143 
L 554.091429 173.005714 
" clip-path="url(#pb12d033da2)" style="fill: #431c46"/>
    <path d="M 595.542857 173.005714 
L 636.994286 173.005714 
L 636.994286 214.457143 
L 595.542857 214.457143 
L 595.542857 173.005714 
" clip-path="url(#pb12d033da2)" style="fill: #a11a5b"/>
    <path d="M 636.994286 173.005714 
L 678.445714 173.005714 
L 678.445714 214.457143 
L 636.994286 214.457143 
L 636.994286 173.005714 
" clip-path="url(#pb12d033da2)" style="fill: #ec4a3e"/>
    <path d="M 678.445714 173.005714 
L 719.897143 173.005714 
L 719.897143 214.457143 
L 678.445714 214.457143 
L 678.445714 173.005714 
" clip-path="url(#pb12d033da2)" style="fill: #31183b"/>
    <path d="M 719.897143 173.005714 
L 761.348571 173.005714 
L 761.348571 214.457143 
L 719.897143 214.457143 
L 719.897143 173.005714 
" clip-path="url(#pb12d033da2)" style="fill: #6e1f57"/>
    <path d="M 761.348571 173.005714 
L 802.8 173.005714 
L 802.8 214.457143 
L 761.348571 214.457143 
L 761.348571 173.005714 
" clip-path="url(#pb12d033da2)" style="fill: #f26d4b"/>
    <path d="M 802.8 173.005714 
L 844.251429 173.005714 
L 844.251429 214.457143 
L 802.8 214.457143 
L 802.8 173.005714 
" clip-path="url(#pb12d033da2)" style="fill: #711f57"/>
    <path d="M 844.251429 173.005714 
L 885.702857 173.005714 
L 885.702857 214.457143 
L 844.251429 214.457143 
L 844.251429 173.005714 
" clip-path="url(#pb12d033da2)" style="fill: #891e5b"/>
    <path d="M 885.702857 173.005714 
L 927.154286 173.005714 
L 927.154286 214.457143 
L 885.702857 214.457143 
L 885.702857 173.005714 
" clip-path="url(#pb12d033da2)" style="fill: #581e4f"/>
    <path d="M 927.154286 173.005714 
L 968.605714 173.005714 
L 968.605714 214.457143 
L 927.154286 214.457143 
L 927.154286 173.005714 
" clip-path="url(#pb12d033da2)" style="fill: #f3714d"/>
    <path d="M 968.605714 173.005714 
L 1010.057143 173.005714 
L 1010.057143 214.457143 
L 968.605714 214.457143 
L 968.605714 173.005714 
" clip-path="url(#pb12d033da2)" style="fill: #431c46"/>
    <path d="M 1010.057143 173.005714 
L 1051.508571 173.005714 
L 1051.508571 214.457143 
L 1010.057143 214.457143 
L 1010.057143 173.005714 
" clip-path="url(#pb12d033da2)" style="fill: #6d1f56"/>
    <path d="M 1051.508571 173.005714 
L 1092.96 173.005714 
L 1092.96 214.457143 
L 1051.508571 214.457143 
L 1051.508571 173.005714 
" clip-path="url(#pb12d033da2)" style="fill: #30173a"/>
    <path d="M 1092.96 173.005714 
L 1134.411429 173.005714 
L 1134.411429 214.457143 
L 1092.96 214.457143 
L 1092.96 173.005714 
" clip-path="url(#pb12d033da2)" style="fill: #871e5b"/>
    <path d="M 1134.411429 173.005714 
L 1175.862857 173.005714 
L 1175.862857 214.457143 
L 1134.411429 214.457143 
L 1134.411429 173.005714 
" clip-path="url(#pb12d033da2)" style="fill: #381a40"/>
    <path d="M 1175.862857 173.005714 
L 1217.314286 173.005714 
L 1217.314286 214.457143 
L 1175.862857 214.457143 
L 1175.862857 173.005714 
" clip-path="url(#pb12d033da2)" style="fill: #2a1636"/>
    <path d="M 1217.314286 173.005714 
L 1258.765714 173.005714 
L 1258.765714 214.457143 
L 1217.314286 214.457143 
L 1217.314286 173.005714 
" clip-path="url(#pb12d033da2)" style="fill: #3a1a41"/>
    <path d="M 1258.765714 173.005714 
L 1300.217143 173.005714 
L 1300.217143 214.457143 
L 1258.765714 214.457143 
L 1258.765714 173.005714 
" clip-path="url(#pb12d033da2)" style="fill: #2d1738"/>
    <path d="M 1300.217143 173.005714 
L 1341.668571 173.005714 
L 1341.668571 214.457143 
L 1300.217143 214.457143 
L 1300.217143 173.005714 
" clip-path="url(#pb12d033da2)" style="fill: #821e5a"/>
    <path d="M 1341.668571 173.005714 
L 1383.12 173.005714 
L 1383.12 214.457143 
L 1341.668571 214.457143 
L 1341.668571 173.005714 
" clip-path="url(#pb12d033da2)" style="fill: #4e1d4b"/>
    <path d="M 1383.12 173.005714 
L 1424.571429 173.005714 
L 1424.571429 214.457143 
L 1383.12 214.457143 
L 1383.12 173.005714 
" clip-path="url(#pb12d033da2)" style="fill: #891e5b"/>
    <path d="M 1424.571429 173.005714 
L 1466.022857 173.005714 
L 1466.022857 214.457143 
L 1424.571429 214.457143 
L 1424.571429 173.005714 
" clip-path="url(#pb12d033da2)" style="fill: #751f58"/>
    <path d="M 1466.022857 173.005714 
L 1507.474286 173.005714 
L 1507.474286 214.457143 
L 1466.022857 214.457143 
L 1466.022857 173.005714 
" clip-path="url(#pb12d033da2)" style="fill: #981b5b"/>
    <path d="M 1507.474286 173.005714 
L 1548.925714 173.005714 
L 1548.925714 214.457143 
L 1507.474286 214.457143 
L 1507.474286 173.005714 
" clip-path="url(#pb12d033da2)" style="fill: #2d1738"/>
    <path d="M 1548.925714 173.005714 
L 1590.377143 173.005714 
L 1590.377143 214.457143 
L 1548.925714 214.457143 
L 1548.925714 173.005714 
" clip-path="url(#pb12d033da2)" style="fill: #981b5b"/>
    <path d="M 1590.377143 173.005714 
L 1631.828571 173.005714 
L 1631.828571 214.457143 
L 1590.377143 214.457143 
L 1590.377143 173.005714 
" clip-path="url(#pb12d033da2)" style="fill: #491d49"/>
    <path d="M 1631.828571 173.005714 
L 1673.28 173.005714 
L 1673.28 214.457143 
L 1631.828571 214.457143 
L 1631.828571 173.005714 
" clip-path="url(#pb12d033da2)" style="fill: #a4195b"/>
    <path d="M 222.48 214.457143 
L 263.931429 214.457143 
L 263.931429 255.908571 
L 222.48 255.908571 
L 222.48 214.457143 
" clip-path="url(#pb12d033da2)" style="fill: #541e4e"/>
    <path d="M 263.931429 214.457143 
L 305.382857 214.457143 
L 305.382857 255.908571 
L 263.931429 255.908571 
L 263.931429 214.457143 
" clip-path="url(#pb12d033da2)" style="fill: #9e1a5b"/>
    <path d="M 305.382857 214.457143 
L 346.834286 214.457143 
L 346.834286 255.908571 
L 305.382857 255.908571 
L 305.382857 214.457143 
" clip-path="url(#pb12d033da2)" style="fill: #e43841"/>
    <path d="M 346.834286 214.457143 
L 388.285714 214.457143 
L 388.285714 255.908571 
L 346.834286 255.908571 
L 346.834286 214.457143 
" clip-path="url(#pb12d033da2)" style="fill: #0e0b22"/>
    <path d="M 388.285714 214.457143 
L 429.737143 214.457143 
L 429.737143 255.908571 
L 388.285714 255.908571 
L 388.285714 214.457143 
" clip-path="url(#pb12d033da2)" style="fill: #861e5b"/>
    <path d="M 429.737143 214.457143 
L 471.188571 214.457143 
L 471.188571 255.908571 
L 429.737143 255.908571 
L 429.737143 214.457143 
" clip-path="url(#pb12d033da2)" style="fill: #841e5a"/>
    <path d="M 471.188571 214.457143 
L 512.64 214.457143 
L 512.64 255.908571 
L 471.188571 255.908571 
L 471.188571 214.457143 
" clip-path="url(#pb12d033da2)" style="fill: #3a1a41"/>
    <path d="M 512.64 214.457143 
L 554.091429 214.457143 
L 554.091429 255.908571 
L 512.64 255.908571 
L 512.64 214.457143 
" clip-path="url(#pb12d033da2)" style="fill: #a6195a"/>
    <path d="M 554.091429 214.457143 
L 595.542857 214.457143 
L 595.542857 255.908571 
L 554.091429 255.908571 
L 554.091429 214.457143 
" clip-path="url(#pb12d033da2)" style="fill: #1a102a"/>
    <path d="M 595.542857 214.457143 
L 636.994286 214.457143 
L 636.994286 255.908571 
L 595.542857 255.908571 
L 595.542857 214.457143 
" clip-path="url(#pb12d033da2)" style="fill: #611f53"/>
    <path d="M 636.994286 214.457143 
L 678.445714 214.457143 
L 678.445714 255.908571 
L 636.994286 255.908571 
L 636.994286 214.457143 
" clip-path="url(#pb12d033da2)" style="fill: #7b1f59"/>
    <path d="M 678.445714 214.457143 
L 719.897143 214.457143 
L 719.897143 255.908571 
L 678.445714 255.908571 
L 678.445714 214.457143 
" clip-path="url(#pb12d033da2)" style="fill: #f6a077"/>
    <path d="M 719.897143 214.457143 
L 761.348571 214.457143 
L 761.348571 255.908571 
L 719.897143 255.908571 
L 719.897143 214.457143 
" clip-path="url(#pb12d033da2)" style="fill: #481c48"/>
    <path d="M 761.348571 214.457143 
L 802.8 214.457143 
L 802.8 255.908571 
L 761.348571 255.908571 
L 761.348571 214.457143 
" clip-path="url(#pb12d033da2)" style="fill: #140e26"/>
    <path d="M 802.8 214.457143 
L 844.251429 214.457143 
L 844.251429 255.908571 
L 802.8 255.908571 
L 802.8 214.457143 
" clip-path="url(#pb12d033da2)" style="fill: #641f54"/>
    <path d="M 844.251429 214.457143 
L 885.702857 214.457143 
L 885.702857 255.908571 
L 844.251429 255.908571 
L 844.251429 214.457143 
" clip-path="url(#pb12d033da2)" style="fill: #841e5a"/>
    <path d="M 885.702857 214.457143 
L 927.154286 214.457143 
L 927.154286 255.908571 
L 885.702857 255.908571 
L 885.702857 214.457143 
" clip-path="url(#pb12d033da2)" style="fill: #f05e42"/>
    <path d="M 927.154286 214.457143 
L 968.605714 214.457143 
L 968.605714 255.908571 
L 927.154286 255.908571 
L 927.154286 214.457143 
" clip-path="url(#pb12d033da2)" style="fill: #751f58"/>
    <path d="M 968.605714 214.457143 
L 1010.057143 214.457143 
L 1010.057143 255.908571 
L 968.605714 255.908571 
L 968.605714 214.457143 
" clip-path="url(#pb12d033da2)" style="fill: #6e1f57"/>
    <path d="M 1010.057143 214.457143 
L 1051.508571 214.457143 
L 1051.508571 255.908571 
L 1010.057143 255.908571 
L 1010.057143 214.457143 
" clip-path="url(#pb12d033da2)" style="fill: #751f58"/>
    <path d="M 1051.508571 214.457143 
L 1092.96 214.457143 
L 1092.96 255.908571 
L 1051.508571 255.908571 
L 1051.508571 214.457143 
" clip-path="url(#pb12d033da2)" style="fill: #9f1a5b"/>
    <path d="M 1092.96 214.457143 
L 1134.411429 214.457143 
L 1134.411429 255.908571 
L 1092.96 255.908571 
L 1092.96 214.457143 
" clip-path="url(#pb12d033da2)" style="fill: #ad1759"/>
    <path d="M 1134.411429 214.457143 
L 1175.862857 214.457143 
L 1175.862857 255.908571 
L 1134.411429 255.908571 
L 1134.411429 214.457143 
" clip-path="url(#pb12d033da2)" style="fill: #f6a880"/>
    <path d="M 1175.862857 214.457143 
L 1217.314286 214.457143 
L 1217.314286 255.908571 
L 1175.862857 255.908571 
L 1175.862857 214.457143 
" clip-path="url(#pb12d033da2)" style="fill: #2a1636"/>
    <path d="M 1217.314286 214.457143 
L 1258.765714 214.457143 
L 1258.765714 255.908571 
L 1217.314286 255.908571 
L 1217.314286 214.457143 
" clip-path="url(#pb12d033da2)" style="fill: #681f55"/>
    <path d="M 1258.765714 214.457143 
L 1300.217143 214.457143 
L 1300.217143 255.908571 
L 1258.765714 255.908571 
L 1258.765714 214.457143 
" clip-path="url(#pb12d033da2)" style="fill: #971c5b"/>
    <path d="M 1300.217143 214.457143 
L 1341.668571 214.457143 
L 1341.668571 255.908571 
L 1300.217143 255.908571 
L 1300.217143 214.457143 
" clip-path="url(#pb12d033da2)" style="fill: #8b1d5b"/>
    <path d="M 1341.668571 214.457143 
L 1383.12 214.457143 
L 1383.12 255.908571 
L 1341.668571 255.908571 
L 1341.668571 214.457143 
" clip-path="url(#pb12d033da2)" style="fill: #761f58"/>
    <path d="M 1383.12 214.457143 
L 1424.571429 214.457143 
L 1424.571429 255.908571 
L 1383.12 255.908571 
L 1383.12 214.457143 
" clip-path="url(#pb12d033da2)" style="fill: #f37852"/>
    <path d="M 1424.571429 214.457143 
L 1466.022857 214.457143 
L 1466.022857 255.908571 
L 1424.571429 255.908571 
L 1424.571429 214.457143 
" clip-path="url(#pb12d033da2)" style="fill: #f59970"/>
    <path d="M 1466.022857 214.457143 
L 1507.474286 214.457143 
L 1507.474286 255.908571 
L 1466.022857 255.908571 
L 1466.022857 214.457143 
" clip-path="url(#pb12d033da2)" style="fill: #f26747"/>
    <path d="M 1507.474286 214.457143 
L 1548.925714 214.457143 
L 1548.925714 255.908571 
L 1507.474286 255.908571 
L 1507.474286 214.457143 
" clip-path="url(#pb12d033da2)" style="fill: #37193f"/>
    <path d="M 1548.925714 214.457143 
L 1590.377143 214.457143 
L 1590.377143 255.908571 
L 1548.925714 255.908571 
L 1548.925714 214.457143 
" clip-path="url(#pb12d033da2)" style="fill: #f26948"/>
    <path d="M 1590.377143 214.457143 
L 1631.828571 214.457143 
L 1631.828571 255.908571 
L 1590.377143 255.908571 
L 1590.377143 214.457143 
" clip-path="url(#pb12d033da2)" style="fill: #f58f66"/>
    <path d="M 1631.828571 214.457143 
L 1673.28 214.457143 
L 1673.28 255.908571 
L 1631.828571 255.908571 
L 1631.828571 214.457143 
" clip-path="url(#pb12d033da2)" style="fill: #b41658"/>
    <path d="M 222.48 255.908571 
L 263.931429 255.908571 
L 263.931429 297.36 
L 222.48 297.36 
L 222.48 255.908571 
" clip-path="url(#pb12d033da2)" style="fill: #1b112b"/>
    <path d="M 263.931429 255.908571 
L 305.382857 255.908571 
L 305.382857 297.36 
L 263.931429 297.36 
L 263.931429 255.908571 
" clip-path="url(#pb12d033da2)" style="fill: #271534"/>
    <path d="M 305.382857 255.908571 
L 346.834286 255.908571 
L 346.834286 297.36 
L 305.382857 297.36 
L 305.382857 255.908571 
" clip-path="url(#pb12d033da2)" style="fill: #34193d"/>
    <path d="M 346.834286 255.908571 
L 388.285714 255.908571 
L 388.285714 297.36 
L 346.834286 297.36 
L 346.834286 255.908571 
" clip-path="url(#pb12d033da2)" style="fill: #03051a"/>
    <path d="M 388.285714 255.908571 
L 429.737143 255.908571 
L 429.737143 297.36 
L 388.285714 297.36 
L 388.285714 255.908571 
" clip-path="url(#pb12d033da2)" style="fill: #3a1a41"/>
    <path d="M 429.737143 255.908571 
L 471.188571 255.908571 
L 471.188571 297.36 
L 429.737143 297.36 
L 429.737143 255.908571 
" clip-path="url(#pb12d033da2)" style="fill: #1b112b"/>
    <path d="M 471.188571 255.908571 
L 512.64 255.908571 
L 512.64 297.36 
L 471.188571 297.36 
L 471.188571 255.908571 
" clip-path="url(#pb12d033da2)" style="fill: #06071c"/>
    <path d="M 512.64 255.908571 
L 554.091429 255.908571 
L 554.091429 297.36 
L 512.64 297.36 
L 512.64 255.908571 
" clip-path="url(#pb12d033da2)" style="fill: #f9ddc9"/>
    <path d="M 554.091429 255.908571 
L 595.542857 255.908571 
L 595.542857 297.36 
L 554.091429 297.36 
L 554.091429 255.908571 
" clip-path="url(#pb12d033da2)" style="fill: #05061b"/>
    <path d="M 595.542857 255.908571 
L 636.994286 255.908571 
L 636.994286 297.36 
L 595.542857 297.36 
L 595.542857 255.908571 
" clip-path="url(#pb12d033da2)" style="fill: #2b1637"/>
    <path d="M 636.994286 255.908571 
L 678.445714 255.908571 
L 678.445714 297.36 
L 636.994286 297.36 
L 636.994286 255.908571 
" clip-path="url(#pb12d033da2)" style="fill: #281535"/>
    <path d="M 678.445714 255.908571 
L 719.897143 255.908571 
L 719.897143 297.36 
L 678.445714 297.36 
L 678.445714 255.908571 
" clip-path="url(#pb12d033da2)" style="fill: #ba1656"/>
    <path d="M 719.897143 255.908571 
L 761.348571 255.908571 
L 761.348571 297.36 
L 719.897143 297.36 
L 719.897143 255.908571 
" clip-path="url(#pb12d033da2)" style="fill: #1b112b"/>
    <path d="M 761.348571 255.908571 
L 802.8 255.908571 
L 802.8 297.36 
L 761.348571 297.36 
L 761.348571 255.908571 
" clip-path="url(#pb12d033da2)" style="fill: #0a091f"/>
    <path d="M 802.8 255.908571 
L 844.251429 255.908571 
L 844.251429 297.36 
L 802.8 297.36 
L 802.8 255.908571 
" clip-path="url(#pb12d033da2)" style="fill: #381a40"/>
    <path d="M 844.251429 255.908571 
L 885.702857 255.908571 
L 885.702857 297.36 
L 844.251429 297.36 
L 844.251429 255.908571 
" clip-path="url(#pb12d033da2)" style="fill: #691f55"/>
    <path d="M 885.702857 255.908571 
L 927.154286 255.908571 
L 927.154286 297.36 
L 885.702857 297.36 
L 885.702857 255.908571 
" clip-path="url(#pb12d033da2)" style="fill: #c41753"/>
    <path d="M 927.154286 255.908571 
L 968.605714 255.908571 
L 968.605714 297.36 
L 927.154286 297.36 
L 927.154286 255.908571 
" clip-path="url(#pb12d033da2)" style="fill: #0d0a21"/>
    <path d="M 968.605714 255.908571 
L 1010.057143 255.908571 
L 1010.057143 297.36 
L 968.605714 297.36 
L 968.605714 255.908571 
" clip-path="url(#pb12d033da2)" style="fill: #241432"/>
    <path d="M 1010.057143 255.908571 
L 1051.508571 255.908571 
L 1051.508571 297.36 
L 1010.057143 297.36 
L 1010.057143 255.908571 
" clip-path="url(#pb12d033da2)" style="fill: #6b1f56"/>
    <path d="M 1051.508571 255.908571 
L 1092.96 255.908571 
L 1092.96 297.36 
L 1051.508571 297.36 
L 1051.508571 255.908571 
" clip-path="url(#pb12d033da2)" style="fill: #271534"/>
    <path d="M 1092.96 255.908571 
L 1134.411429 255.908571 
L 1134.411429 297.36 
L 1092.96 297.36 
L 1092.96 255.908571 
" clip-path="url(#pb12d033da2)" style="fill: #701f57"/>
    <path d="M 1134.411429 255.908571 
L 1175.862857 255.908571 
L 1175.862857 297.36 
L 1134.411429 297.36 
L 1134.411429 255.908571 
" clip-path="url(#pb12d033da2)" style="fill: #db2946"/>
    <path d="M 1175.862857 255.908571 
L 1217.314286 255.908571 
L 1217.314286 297.36 
L 1175.862857 297.36 
L 1175.862857 255.908571 
" clip-path="url(#pb12d033da2)" style="fill: #0b0920"/>
    <path d="M 1217.314286 255.908571 
L 1258.765714 255.908571 
L 1258.765714 297.36 
L 1217.314286 297.36 
L 1217.314286 255.908571 
" clip-path="url(#pb12d033da2)" style="fill: #1b112b"/>
    <path d="M 1258.765714 255.908571 
L 1300.217143 255.908571 
L 1300.217143 297.36 
L 1258.765714 297.36 
L 1258.765714 255.908571 
" clip-path="url(#pb12d033da2)" style="fill: #08081e"/>
    <path d="M 1300.217143 255.908571 
L 1341.668571 255.908571 
L 1341.668571 297.36 
L 1300.217143 297.36 
L 1300.217143 255.908571 
" clip-path="url(#pb12d033da2)" style="fill: #33183c"/>
    <path d="M 1341.668571 255.908571 
L 1383.12 255.908571 
L 1383.12 297.36 
L 1341.668571 297.36 
L 1341.668571 255.908571 
" clip-path="url(#pb12d033da2)" style="fill: #2d1738"/>
    <path d="M 1383.12 255.908571 
L 1424.571429 255.908571 
L 1424.571429 297.36 
L 1383.12 297.36 
L 1383.12 255.908571 
" clip-path="url(#pb12d033da2)" style="fill: #de2e44"/>
    <path d="M 1424.571429 255.908571 
L 1466.022857 255.908571 
L 1466.022857 297.36 
L 1424.571429 297.36 
L 1424.571429 255.908571 
" clip-path="url(#pb12d033da2)" style="fill: #f16646"/>
    <path d="M 1466.022857 255.908571 
L 1507.474286 255.908571 
L 1507.474286 297.36 
L 1466.022857 297.36 
L 1466.022857 255.908571 
" clip-path="url(#pb12d033da2)" style="fill: #e8403e"/>
    <path d="M 1507.474286 255.908571 
L 1548.925714 255.908571 
L 1548.925714 297.36 
L 1507.474286 297.36 
L 1507.474286 255.908571 
" clip-path="url(#pb12d033da2)" style="fill: #110c24"/>
    <path d="M 1548.925714 255.908571 
L 1590.377143 255.908571 
L 1590.377143 297.36 
L 1548.925714 297.36 
L 1548.925714 255.908571 
" clip-path="url(#pb12d033da2)" style="fill: #c11754"/>
    <path d="M 1590.377143 255.908571 
L 1631.828571 255.908571 
L 1631.828571 297.36 
L 1590.377143 297.36 
L 1590.377143 255.908571 
" clip-path="url(#pb12d033da2)" style="fill: #661f54"/>
    <path d="M 1631.828571 255.908571 
L 1673.28 255.908571 
L 1673.28 297.36 
L 1631.828571 297.36 
L 1631.828571 255.908571 
" clip-path="url(#pb12d033da2)" style="fill: #2d1738"/>
    <path d="M 222.48 297.36 
L 263.931429 297.36 
L 263.931429 338.811429 
L 222.48 338.811429 
L 222.48 297.36 
" clip-path="url(#pb12d033da2)" style="fill: #ce1d4e"/>
    <path d="M 263.931429 297.36 
L 305.382857 297.36 
L 305.382857 338.811429 
L 263.931429 338.811429 
L 263.931429 297.36 
" clip-path="url(#pb12d033da2)" style="fill: #eb483e"/>
    <path d="M 305.382857 297.36 
L 346.834286 297.36 
L 346.834286 338.811429 
L 305.382857 338.811429 
L 305.382857 297.36 
" clip-path="url(#pb12d033da2)" style="fill: #c51852"/>
    <path d="M 346.834286 297.36 
L 388.285714 297.36 
L 388.285714 338.811429 
L 346.834286 338.811429 
L 346.834286 297.36 
" clip-path="url(#pb12d033da2)" style="fill: #611f53"/>
    <path d="M 388.285714 297.36 
L 429.737143 297.36 
L 429.737143 338.811429 
L 388.285714 338.811429 
L 388.285714 297.36 
" clip-path="url(#pb12d033da2)" style="fill: #f26f4c"/>
    <path d="M 429.737143 297.36 
L 471.188571 297.36 
L 471.188571 338.811429 
L 429.737143 338.811429 
L 429.737143 297.36 
" clip-path="url(#pb12d033da2)" style="fill: #ec4c3e"/>
    <path d="M 471.188571 297.36 
L 512.64 297.36 
L 512.64 338.811429 
L 471.188571 338.811429 
L 471.188571 297.36 
" clip-path="url(#pb12d033da2)" style="fill: #711f57"/>
    <path d="M 512.64 297.36 
L 554.091429 297.36 
L 554.091429 338.811429 
L 512.64 338.811429 
L 512.64 297.36 
" clip-path="url(#pb12d033da2)" style="fill: #501d4c"/>
    <path d="M 554.091429 297.36 
L 595.542857 297.36 
L 595.542857 338.811429 
L 554.091429 338.811429 
L 554.091429 297.36 
" clip-path="url(#pb12d033da2)" style="fill: #3c1a42"/>
    <path d="M 595.542857 297.36 
L 636.994286 297.36 
L 636.994286 338.811429 
L 595.542857 338.811429 
L 595.542857 297.36 
" clip-path="url(#pb12d033da2)" style="fill: #f26747"/>
    <path d="M 636.994286 297.36 
L 678.445714 297.36 
L 678.445714 338.811429 
L 636.994286 338.811429 
L 636.994286 297.36 
" clip-path="url(#pb12d033da2)" style="fill: #f37450"/>
    <path d="M 678.445714 297.36 
L 719.897143 297.36 
L 719.897143 338.811429 
L 678.445714 338.811429 
L 678.445714 297.36 
" clip-path="url(#pb12d033da2)" style="fill: #501d4c"/>
    <path d="M 719.897143 297.36 
L 761.348571 297.36 
L 761.348571 338.811429 
L 719.897143 338.811429 
L 719.897143 297.36 
" clip-path="url(#pb12d033da2)" style="fill: #d82748"/>
    <path d="M 761.348571 297.36 
L 802.8 297.36 
L 802.8 338.811429 
L 761.348571 338.811429 
L 761.348571 297.36 
" clip-path="url(#pb12d033da2)" style="fill: #901d5b"/>
    <path d="M 802.8 297.36 
L 844.251429 297.36 
L 844.251429 338.811429 
L 802.8 338.811429 
L 802.8 297.36 
" clip-path="url(#pb12d033da2)" style="fill: #ef5840"/>
    <path d="M 844.251429 297.36 
L 885.702857 297.36 
L 885.702857 338.811429 
L 844.251429 338.811429 
L 844.251429 297.36 
" clip-path="url(#pb12d033da2)" style="fill: #f06043"/>
    <path d="M 885.702857 297.36 
L 927.154286 297.36 
L 927.154286 338.811429 
L 885.702857 338.811429 
L 885.702857 297.36 
" clip-path="url(#pb12d033da2)" style="fill: #c71951"/>
    <path d="M 927.154286 297.36 
L 968.605714 297.36 
L 968.605714 338.811429 
L 927.154286 338.811429 
L 927.154286 297.36 
" clip-path="url(#pb12d033da2)" style="fill: #841e5a"/>
    <path d="M 968.605714 297.36 
L 1010.057143 297.36 
L 1010.057143 338.811429 
L 968.605714 338.811429 
L 968.605714 297.36 
" clip-path="url(#pb12d033da2)" style="fill: #f37450"/>
    <path d="M 1010.057143 297.36 
L 1051.508571 297.36 
L 1051.508571 338.811429 
L 1010.057143 338.811429 
L 1010.057143 297.36 
" clip-path="url(#pb12d033da2)" style="fill: #eb463e"/>
    <path d="M 1051.508571 297.36 
L 1092.96 297.36 
L 1092.96 338.811429 
L 1051.508571 338.811429 
L 1051.508571 297.36 
" clip-path="url(#pb12d033da2)" style="fill: #bd1655"/>
    <path d="M 1092.96 297.36 
L 1134.411429 297.36 
L 1134.411429 338.811429 
L 1092.96 338.811429 
L 1092.96 297.36 
" clip-path="url(#pb12d033da2)" style="fill: #d5224a"/>
    <path d="M 1134.411429 297.36 
L 1175.862857 297.36 
L 1175.862857 338.811429 
L 1134.411429 338.811429 
L 1134.411429 297.36 
" clip-path="url(#pb12d033da2)" style="fill: #501d4c"/>
    <path d="M 1175.862857 297.36 
L 1217.314286 297.36 
L 1217.314286 338.811429 
L 1175.862857 338.811429 
L 1175.862857 297.36 
" clip-path="url(#pb12d033da2)" style="fill: #c21753"/>
    <path d="M 1217.314286 297.36 
L 1258.765714 297.36 
L 1258.765714 338.811429 
L 1217.314286 338.811429 
L 1217.314286 297.36 
" clip-path="url(#pb12d033da2)" style="fill: #d5224a"/>
    <path d="M 1258.765714 297.36 
L 1300.217143 297.36 
L 1300.217143 338.811429 
L 1258.765714 338.811429 
L 1258.765714 297.36 
" clip-path="url(#pb12d033da2)" style="fill: #7a1f59"/>
    <path d="M 1300.217143 297.36 
L 1341.668571 297.36 
L 1341.668571 338.811429 
L 1300.217143 338.811429 
L 1300.217143 297.36 
" clip-path="url(#pb12d033da2)" style="fill: #f47c55"/>
    <path d="M 1341.668571 297.36 
L 1383.12 297.36 
L 1383.12 338.811429 
L 1341.668571 338.811429 
L 1341.668571 297.36 
" clip-path="url(#pb12d033da2)" style="fill: #dc2b46"/>
    <path d="M 1383.12 297.36 
L 1424.571429 297.36 
L 1424.571429 338.811429 
L 1383.12 338.811429 
L 1383.12 297.36 
" clip-path="url(#pb12d033da2)" style="fill: #dd2c45"/>
    <path d="M 1424.571429 297.36 
L 1466.022857 297.36 
L 1466.022857 338.811429 
L 1424.571429 338.811429 
L 1424.571429 297.36 
" clip-path="url(#pb12d033da2)" style="fill: #971c5b"/>
    <path d="M 1466.022857 297.36 
L 1507.474286 297.36 
L 1507.474286 338.811429 
L 1466.022857 338.811429 
L 1466.022857 297.36 
" clip-path="url(#pb12d033da2)" style="fill: #cf1e4d"/>
    <path d="M 1507.474286 297.36 
L 1548.925714 297.36 
L 1548.925714 338.811429 
L 1507.474286 338.811429 
L 1507.474286 297.36 
" clip-path="url(#pb12d033da2)" style="fill: #661f54"/>
    <path d="M 1548.925714 297.36 
L 1590.377143 297.36 
L 1590.377143 338.811429 
L 1548.925714 338.811429 
L 1548.925714 297.36 
" clip-path="url(#pb12d033da2)" style="fill: #ee543f"/>
    <path d="M 1590.377143 297.36 
L 1631.828571 297.36 
L 1631.828571 338.811429 
L 1590.377143 338.811429 
L 1590.377143 297.36 
" clip-path="url(#pb12d033da2)" style="fill: #9f1a5b"/>
    <path d="M 1631.828571 297.36 
L 1673.28 297.36 
L 1673.28 338.811429 
L 1631.828571 338.811429 
L 1631.828571 297.36 
" clip-path="url(#pb12d033da2)" style="fill: #dc2b46"/>
    <path d="M 222.48 338.811429 
L 263.931429 338.811429 
L 263.931429 380.262857 
L 222.48 380.262857 
L 222.48 338.811429 
" clip-path="url(#pb12d033da2)" style="fill: #281535"/>
    <path d="M 263.931429 338.811429 
L 305.382857 338.811429 
L 305.382857 380.262857 
L 263.931429 380.262857 
L 263.931429 338.811429 
" clip-path="url(#pb12d033da2)" style="fill: #f7cfb3"/>
    <path d="M 305.382857 338.811429 
L 346.834286 338.811429 
L 346.834286 380.262857 
L 305.382857 380.262857 
L 305.382857 338.811429 
" clip-path="url(#pb12d033da2)" style="fill: #971c5b"/>
    <path d="M 346.834286 338.811429 
L 388.285714 338.811429 
L 388.285714 380.262857 
L 346.834286 380.262857 
L 346.834286 338.811429 
" clip-path="url(#pb12d033da2)" style="fill: #421b45"/>
    <path d="M 388.285714 338.811429 
L 429.737143 338.811429 
L 429.737143 380.262857 
L 388.285714 380.262857 
L 388.285714 338.811429 
" clip-path="url(#pb12d033da2)" style="fill: #9a1b5b"/>
    <path d="M 429.737143 338.811429 
L 471.188571 338.811429 
L 471.188571 380.262857 
L 429.737143 380.262857 
L 429.737143 338.811429 
" clip-path="url(#pb12d033da2)" style="fill: #8c1d5b"/>
    <path d="M 471.188571 338.811429 
L 512.64 338.811429 
L 512.64 380.262857 
L 471.188571 380.262857 
L 471.188571 338.811429 
" clip-path="url(#pb12d033da2)" style="fill: #241432"/>
    <path d="M 512.64 338.811429 
L 554.091429 338.811429 
L 554.091429 380.262857 
L 512.64 380.262857 
L 512.64 338.811429 
" clip-path="url(#pb12d033da2)" style="fill: #160e27"/>
    <path d="M 554.091429 338.811429 
L 595.542857 338.811429 
L 595.542857 380.262857 
L 554.091429 380.262857 
L 554.091429 338.811429 
" clip-path="url(#pb12d033da2)" style="fill: #06071c"/>
    <path d="M 595.542857 338.811429 
L 636.994286 338.811429 
L 636.994286 380.262857 
L 595.542857 380.262857 
L 595.542857 338.811429 
" clip-path="url(#pb12d033da2)" style="fill: #891e5b"/>
    <path d="M 636.994286 338.811429 
L 678.445714 338.811429 
L 678.445714 380.262857 
L 636.994286 380.262857 
L 636.994286 338.811429 
" clip-path="url(#pb12d033da2)" style="fill: #6b1f56"/>
    <path d="M 678.445714 338.811429 
L 719.897143 338.811429 
L 719.897143 380.262857 
L 678.445714 380.262857 
L 678.445714 338.811429 
" clip-path="url(#pb12d033da2)" style="fill: #6d1f56"/>
    <path d="M 719.897143 338.811429 
L 761.348571 338.811429 
L 761.348571 380.262857 
L 719.897143 380.262857 
L 719.897143 338.811429 
" clip-path="url(#pb12d033da2)" style="fill: #b21758"/>
    <path d="M 761.348571 338.811429 
L 802.8 338.811429 
L 802.8 380.262857 
L 761.348571 380.262857 
L 761.348571 338.811429 
" clip-path="url(#pb12d033da2)" style="fill: #421b45"/>
    <path d="M 802.8 338.811429 
L 844.251429 338.811429 
L 844.251429 380.262857 
L 802.8 380.262857 
L 802.8 338.811429 
" clip-path="url(#pb12d033da2)" style="fill: #641f54"/>
    <path d="M 844.251429 338.811429 
L 885.702857 338.811429 
L 885.702857 380.262857 
L 844.251429 380.262857 
L 844.251429 338.811429 
" clip-path="url(#pb12d033da2)" style="fill: #ab185a"/>
    <path d="M 885.702857 338.811429 
L 927.154286 338.811429 
L 927.154286 380.262857 
L 885.702857 380.262857 
L 885.702857 338.811429 
" clip-path="url(#pb12d033da2)" style="fill: #eb463e"/>
    <path d="M 927.154286 338.811429 
L 968.605714 338.811429 
L 968.605714 380.262857 
L 927.154286 380.262857 
L 927.154286 338.811429 
" clip-path="url(#pb12d033da2)" style="fill: #33183c"/>
    <path d="M 968.605714 338.811429 
L 1010.057143 338.811429 
L 1010.057143 380.262857 
L 968.605714 380.262857 
L 968.605714 338.811429 
" clip-path="url(#pb12d033da2)" style="fill: #f16646"/>
    <path d="M 1010.057143 338.811429 
L 1051.508571 338.811429 
L 1051.508571 380.262857 
L 1010.057143 380.262857 
L 1010.057143 338.811429 
" clip-path="url(#pb12d033da2)" style="fill: #8c1d5b"/>
    <path d="M 1051.508571 338.811429 
L 1092.96 338.811429 
L 1092.96 380.262857 
L 1051.508571 380.262857 
L 1051.508571 338.811429 
" clip-path="url(#pb12d033da2)" style="fill: #faebdd"/>
    <path d="M 1092.96 338.811429 
L 1134.411429 338.811429 
L 1134.411429 380.262857 
L 1092.96 380.262857 
L 1092.96 338.811429 
" clip-path="url(#pb12d033da2)" style="fill: #661f54"/>
    <path d="M 1134.411429 338.811429 
L 1175.862857 338.811429 
L 1175.862857 380.262857 
L 1134.411429 380.262857 
L 1134.411429 338.811429 
" clip-path="url(#pb12d033da2)" style="fill: #641f54"/>
    <path d="M 1175.862857 338.811429 
L 1217.314286 338.811429 
L 1217.314286 380.262857 
L 1175.862857 380.262857 
L 1175.862857 338.811429 
" clip-path="url(#pb12d033da2)" style="fill: #db2946"/>
    <path d="M 1217.314286 338.811429 
L 1258.765714 338.811429 
L 1258.765714 380.262857 
L 1217.314286 380.262857 
L 1217.314286 338.811429 
" clip-path="url(#pb12d033da2)" style="fill: #271534"/>
    <path d="M 1258.765714 338.811429 
L 1300.217143 338.811429 
L 1300.217143 380.262857 
L 1258.765714 380.262857 
L 1258.765714 338.811429 
" clip-path="url(#pb12d033da2)" style="fill: #2a1636"/>
    <path d="M 1300.217143 338.811429 
L 1341.668571 338.811429 
L 1341.668571 380.262857 
L 1300.217143 380.262857 
L 1300.217143 338.811429 
" clip-path="url(#pb12d033da2)" style="fill: #f69e75"/>
    <path d="M 1341.668571 338.811429 
L 1383.12 338.811429 
L 1383.12 380.262857 
L 1341.668571 380.262857 
L 1341.668571 338.811429 
" clip-path="url(#pb12d033da2)" style="fill: #f16445"/>
    <path d="M 1383.12 338.811429 
L 1424.571429 338.811429 
L 1424.571429 380.262857 
L 1383.12 380.262857 
L 1383.12 338.811429 
" clip-path="url(#pb12d033da2)" style="fill: #b21758"/>
    <path d="M 1424.571429 338.811429 
L 1466.022857 338.811429 
L 1466.022857 380.262857 
L 1424.571429 380.262857 
L 1424.571429 338.811429 
" clip-path="url(#pb12d033da2)" style="fill: #731f58"/>
    <path d="M 1466.022857 338.811429 
L 1507.474286 338.811429 
L 1507.474286 380.262857 
L 1466.022857 380.262857 
L 1466.022857 338.811429 
" clip-path="url(#pb12d033da2)" style="fill: #a3195b"/>
    <path d="M 1507.474286 338.811429 
L 1548.925714 338.811429 
L 1548.925714 380.262857 
L 1507.474286 380.262857 
L 1507.474286 338.811429 
" clip-path="url(#pb12d033da2)" style="fill: #20122e"/>
    <path d="M 1548.925714 338.811429 
L 1590.377143 338.811429 
L 1590.377143 380.262857 
L 1548.925714 380.262857 
L 1548.925714 338.811429 
" clip-path="url(#pb12d033da2)" style="fill: #d92847"/>
    <path d="M 1590.377143 338.811429 
L 1631.828571 338.811429 
L 1631.828571 380.262857 
L 1590.377143 380.262857 
L 1590.377143 338.811429 
" clip-path="url(#pb12d033da2)" style="fill: #d2204c"/>
    <path d="M 1631.828571 338.811429 
L 1673.28 338.811429 
L 1673.28 380.262857 
L 1631.828571 380.262857 
L 1631.828571 338.811429 
" clip-path="url(#pb12d033da2)" style="fill: #561e4f"/>
    <path d="M 222.48 380.262857 
L 263.931429 380.262857 
L 263.931429 421.714286 
L 222.48 421.714286 
L 222.48 380.262857 
" clip-path="url(#pb12d033da2)" style="fill: #f58860"/>
    <path d="M 263.931429 380.262857 
L 305.382857 380.262857 
L 305.382857 421.714286 
L 263.931429 421.714286 
L 263.931429 380.262857 
" clip-path="url(#pb12d033da2)" style="fill: #401b44"/>
    <path d="M 305.382857 380.262857 
L 346.834286 380.262857 
L 346.834286 421.714286 
L 305.382857 421.714286 
L 305.382857 380.262857 
" clip-path="url(#pb12d033da2)" style="fill: #841e5a"/>
    <path d="M 346.834286 380.262857 
L 388.285714 380.262857 
L 388.285714 421.714286 
L 346.834286 421.714286 
L 346.834286 380.262857 
" clip-path="url(#pb12d033da2)" style="fill: #05061b"/>
    <path d="M 388.285714 380.262857 
L 429.737143 380.262857 
L 429.737143 421.714286 
L 388.285714 421.714286 
L 388.285714 380.262857 
" clip-path="url(#pb12d033da2)" style="fill: #5e1f52"/>
    <path d="M 429.737143 380.262857 
L 471.188571 380.262857 
L 471.188571 421.714286 
L 429.737143 421.714286 
L 429.737143 380.262857 
" clip-path="url(#pb12d033da2)" style="fill: #931c5b"/>
    <path d="M 471.188571 380.262857 
L 512.64 380.262857 
L 512.64 421.714286 
L 471.188571 421.714286 
L 471.188571 380.262857 
" clip-path="url(#pb12d033da2)" style="fill: #20122e"/>
    <path d="M 512.64 380.262857 
L 554.091429 380.262857 
L 554.091429 421.714286 
L 512.64 421.714286 
L 512.64 380.262857 
" clip-path="url(#pb12d033da2)" style="fill: #170f28"/>
    <path d="M 554.091429 380.262857 
L 595.542857 380.262857 
L 595.542857 421.714286 
L 554.091429 421.714286 
L 554.091429 380.262857 
" clip-path="url(#pb12d033da2)" style="fill: #f8d7c0"/>
    <path d="M 595.542857 380.262857 
L 636.994286 380.262857 
L 636.994286 421.714286 
L 595.542857 421.714286 
L 595.542857 380.262857 
" clip-path="url(#pb12d033da2)" style="fill: #451c47"/>
    <path d="M 636.994286 380.262857 
L 678.445714 380.262857 
L 678.445714 421.714286 
L 636.994286 421.714286 
L 636.994286 380.262857 
" clip-path="url(#pb12d033da2)" style="fill: #891e5b"/>
    <path d="M 678.445714 380.262857 
L 719.897143 380.262857 
L 719.897143 421.714286 
L 678.445714 421.714286 
L 678.445714 380.262857 
" clip-path="url(#pb12d033da2)" style="fill: #130d25"/>
    <path d="M 719.897143 380.262857 
L 761.348571 380.262857 
L 761.348571 421.714286 
L 719.897143 421.714286 
L 719.897143 380.262857 
" clip-path="url(#pb12d033da2)" style="fill: #1d112c"/>
    <path d="M 761.348571 380.262857 
L 802.8 380.262857 
L 802.8 421.714286 
L 761.348571 421.714286 
L 761.348571 380.262857 
" clip-path="url(#pb12d033da2)" style="fill: #130d25"/>
    <path d="M 802.8 380.262857 
L 844.251429 380.262857 
L 844.251429 421.714286 
L 802.8 421.714286 
L 802.8 380.262857 
" clip-path="url(#pb12d033da2)" style="fill: #591e50"/>
    <path d="M 844.251429 380.262857 
L 885.702857 380.262857 
L 885.702857 421.714286 
L 844.251429 421.714286 
L 844.251429 380.262857 
" clip-path="url(#pb12d033da2)" style="fill: #6e1f57"/>
    <path d="M 885.702857 380.262857 
L 927.154286 380.262857 
L 927.154286 421.714286 
L 885.702857 421.714286 
L 885.702857 380.262857 
" clip-path="url(#pb12d033da2)" style="fill: #531e4d"/>
    <path d="M 927.154286 380.262857 
L 968.605714 380.262857 
L 968.605714 421.714286 
L 927.154286 421.714286 
L 927.154286 380.262857 
" clip-path="url(#pb12d033da2)" style="fill: #381a40"/>
    <path d="M 968.605714 380.262857 
L 1010.057143 380.262857 
L 1010.057143 421.714286 
L 968.605714 421.714286 
L 968.605714 380.262857 
" clip-path="url(#pb12d033da2)" style="fill: #821e5a"/>
    <path d="M 1010.057143 380.262857 
L 1051.508571 380.262857 
L 1051.508571 421.714286 
L 1010.057143 421.714286 
L 1010.057143 380.262857 
" clip-path="url(#pb12d033da2)" style="fill: #2b1637"/>
    <path d="M 1051.508571 380.262857 
L 1092.96 380.262857 
L 1092.96 421.714286 
L 1051.508571 421.714286 
L 1051.508571 380.262857 
" clip-path="url(#pb12d033da2)" style="fill: #31183b"/>
    <path d="M 1092.96 380.262857 
L 1134.411429 380.262857 
L 1134.411429 421.714286 
L 1092.96 421.714286 
L 1092.96 380.262857 
" clip-path="url(#pb12d033da2)" style="fill: #531e4d"/>
    <path d="M 1134.411429 380.262857 
L 1175.862857 380.262857 
L 1175.862857 421.714286 
L 1134.411429 421.714286 
L 1134.411429 380.262857 
" clip-path="url(#pb12d033da2)" style="fill: #221331"/>
    <path d="M 1175.862857 380.262857 
L 1217.314286 380.262857 
L 1217.314286 421.714286 
L 1175.862857 421.714286 
L 1175.862857 380.262857 
" clip-path="url(#pb12d033da2)" style="fill: #1e122d"/>
    <path d="M 1217.314286 380.262857 
L 1258.765714 380.262857 
L 1258.765714 421.714286 
L 1217.314286 421.714286 
L 1217.314286 380.262857 
" clip-path="url(#pb12d033da2)" style="fill: #8c1d5b"/>
    <path d="M 1258.765714 380.262857 
L 1300.217143 380.262857 
L 1300.217143 421.714286 
L 1258.765714 421.714286 
L 1258.765714 380.262857 
" clip-path="url(#pb12d033da2)" style="fill: #f26747"/>
    <path d="M 1300.217143 380.262857 
L 1341.668571 380.262857 
L 1341.668571 421.714286 
L 1300.217143 421.714286 
L 1300.217143 380.262857 
" clip-path="url(#pb12d033da2)" style="fill: #511e4d"/>
    <path d="M 1341.668571 380.262857 
L 1383.12 380.262857 
L 1383.12 421.714286 
L 1341.668571 421.714286 
L 1341.668571 380.262857 
" clip-path="url(#pb12d033da2)" style="fill: #33183c"/>
    <path d="M 1383.12 380.262857 
L 1424.571429 380.262857 
L 1424.571429 421.714286 
L 1383.12 421.714286 
L 1383.12 380.262857 
" clip-path="url(#pb12d033da2)" style="fill: #591e50"/>
    <path d="M 1424.571429 380.262857 
L 1466.022857 380.262857 
L 1466.022857 421.714286 
L 1424.571429 421.714286 
L 1424.571429 380.262857 
" clip-path="url(#pb12d033da2)" style="fill: #601f52"/>
    <path d="M 1466.022857 380.262857 
L 1507.474286 380.262857 
L 1507.474286 421.714286 
L 1466.022857 421.714286 
L 1466.022857 380.262857 
" clip-path="url(#pb12d033da2)" style="fill: #4b1d4a"/>
    <path d="M 1507.474286 380.262857 
L 1548.925714 380.262857 
L 1548.925714 421.714286 
L 1507.474286 421.714286 
L 1507.474286 380.262857 
" clip-path="url(#pb12d033da2)" style="fill: #f6c19f"/>
    <path d="M 1548.925714 380.262857 
L 1590.377143 380.262857 
L 1590.377143 421.714286 
L 1548.925714 421.714286 
L 1548.925714 380.262857 
" clip-path="url(#pb12d033da2)" style="fill: #4b1d4a"/>
    <path d="M 1590.377143 380.262857 
L 1631.828571 380.262857 
L 1631.828571 421.714286 
L 1590.377143 421.714286 
L 1590.377143 380.262857 
" clip-path="url(#pb12d033da2)" style="fill: #251433"/>
    <path d="M 1631.828571 380.262857 
L 1673.28 380.262857 
L 1673.28 421.714286 
L 1631.828571 421.714286 
L 1631.828571 380.262857 
" clip-path="url(#pb12d033da2)" style="fill: #861e5b"/>
   </g>
   <g id="matplotlib.axis_1">
    <g id="xtick_1">
     <g id="line2d_1">
      <defs>
       <path id="m565c3fb050" d="M 0 0 
L 0 3.5 
" style="stroke: #000000; stroke-width: 0.8"/>
      </defs>
      <g>
       <use xlink:href="#m565c3fb050" x="243.205714" y="421.714286" style="stroke: #000000; stroke-width: 0.8"/>
      </g>
     </g>
     <g id="text_1">
      <text style="font: 20px 'Arial', sans-serif" transform="translate(248.405714 462.079911) rotate(-90)">1_1</text>
     </g>
    </g>
    <g id="xtick_2">
     <g id="line2d_2">
      <g>
       <use xlink:href="#m565c3fb050" x="284.657143" y="421.714286" style="stroke: #000000; stroke-width: 0.8"/>
      </g>
     </g>
     <g id="text_2">
      <text style="font: 20px 'Arial', sans-serif" transform="translate(289.94933 629.998661) rotate(-90)">3_SBS12_0.915572_1</text>
     </g>
    </g>
    <g id="xtick_3">
     <g id="line2d_3">
      <g>
       <use xlink:href="#m565c3fb050" x="326.108571" y="421.714286" style="stroke: #000000; stroke-width: 0.8"/>
      </g>
     </g>
     <g id="text_3">
      <text style="font: 20px 'Arial', sans-serif" transform="translate(331.308571 462.079911) rotate(-90)">5_1</text>
     </g>
    </g>
    <g id="xtick_4">
     <g id="line2d_4">
      <g>
       <use xlink:href="#m565c3fb050" x="367.56" y="421.714286" style="stroke: #000000; stroke-width: 0.8"/>
      </g>
     </g>
     <g id="text_4">
      <text style="font: 20px 'Arial', sans-serif" transform="translate(372.76 462.079911) rotate(-90)">7_1</text>
     </g>
    </g>
    <g id="xtick_5">
     <g id="line2d_5">
      <g>
       <use xlink:href="#m565c3fb050" x="409.011429" y="421.714286" style="stroke: #000000; stroke-width: 0.8"/>
      </g>
     </g>
     <g id="text_5">
      <text style="font: 20px 'Arial', sans-serif" transform="translate(414.211429 473.201786) rotate(-90)">10_1</text>
     </g>
    </g>
    <g id="xtick_6">
     <g id="line2d_6">
      <g>
       <use xlink:href="#m565c3fb050" x="450.462857" y="421.714286" style="stroke: #000000; stroke-width: 0.8"/>
      </g>
     </g>
     <g id="text_6">
      <text style="font: 20px 'Arial', sans-serif" transform="translate(455.755045 629.998661) rotate(-90)">13_SBS3_0.870929_1</text>
     </g>
    </g>
    <g id="xtick_7">
     <g id="line2d_7">
      <g>
       <use xlink:href="#m565c3fb050" x="491.914286" y="421.714286" style="stroke: #000000; stroke-width: 0.8"/>
      </g>
     </g>
     <g id="text_7">
      <text style="font: 20px 'Arial', sans-serif" transform="translate(497.114286 473.201786) rotate(-90)">14_1</text>
     </g>
    </g>
    <g id="xtick_8">
     <g id="line2d_8">
      <g>
       <use xlink:href="#m565c3fb050" x="533.365714" y="421.714286" style="stroke: #000000; stroke-width: 0.8"/>
      </g>
     </g>
     <g id="text_8">
      <text style="font: 20px 'Arial', sans-serif" transform="translate(538.657902 629.998661) rotate(-90)">17_SBS1_0.995019_1</text>
     </g>
    </g>
    <g id="xtick_9">
     <g id="line2d_9">
      <g>
       <use xlink:href="#m565c3fb050" x="574.817143" y="421.714286" style="stroke: #000000; stroke-width: 0.8"/>
      </g>
     </g>
     <g id="text_9">
      <text style="font: 20px 'Arial', sans-serif" transform="translate(580.10933 641.120536) rotate(-90)">21_SBS31_0.953955_1</text>
     </g>
    </g>
    <g id="xtick_10">
     <g id="line2d_10">
      <g>
       <use xlink:href="#m565c3fb050" x="616.268571" y="421.714286" style="stroke: #000000; stroke-width: 0.8"/>
      </g>
     </g>
     <g id="text_10">
      <text style="font: 20px 'Arial', sans-serif" transform="translate(621.560759 641.120536) rotate(-90)">23_SBS39_0.884544_1</text>
     </g>
    </g>
    <g id="xtick_11">
     <g id="line2d_11">
      <g>
       <use xlink:href="#m565c3fb050" x="657.72" y="421.714286" style="stroke: #000000; stroke-width: 0.8"/>
      </g>
     </g>
     <g id="text_11">
      <text style="font: 20px 'Arial', sans-serif" transform="translate(662.92 473.201786) rotate(-90)">24_1</text>
     </g>
    </g>
    <g id="xtick_12">
     <g id="line2d_12">
      <g>
       <use xlink:href="#m565c3fb050" x="699.171429" y="421.714286" style="stroke: #000000; stroke-width: 0.8"/>
      </g>
     </g>
     <g id="text_12">
      <text style="font: 20px 'Arial', sans-serif" transform="translate(704.371429 473.201786) rotate(-90)">27_1</text>
     </g>
    </g>
    <g id="xtick_13">
     <g id="line2d_13">
      <g>
       <use xlink:href="#m565c3fb050" x="740.622857" y="421.714286" style="stroke: #000000; stroke-width: 0.8"/>
      </g>
     </g>
     <g id="text_13">
      <text style="font: 20px 'Arial', sans-serif" transform="translate(745.822857 473.201786) rotate(-90)">28_1</text>
     </g>
    </g>
    <g id="xtick_14">
     <g id="line2d_14">
      <g>
       <use xlink:href="#m565c3fb050" x="782.074286" y="421.714286" style="stroke: #000000; stroke-width: 0.8"/>
      </g>
     </g>
     <g id="text_14">
      <text style="font: 20px 'Arial', sans-serif" transform="translate(787.366473 641.120536) rotate(-90)">29_SBS22_0.893766_1</text>
     </g>
    </g>
    <g id="xtick_15">
     <g id="line2d_15">
      <g>
       <use xlink:href="#m565c3fb050" x="823.525714" y="421.714286" style="stroke: #000000; stroke-width: 0.8"/>
      </g>
     </g>
     <g id="text_15">
      <text style="font: 20px 'Arial', sans-serif" transform="translate(828.725714 473.201786) rotate(-90)">32_1</text>
     </g>
    </g>
    <g id="xtick_16">
     <g id="line2d_16">
      <g>
       <use xlink:href="#m565c3fb050" x="864.977143" y="421.714286" style="stroke: #000000; stroke-width: 0.8"/>
      </g>
     </g>
     <g id="text_16">
      <text style="font: 20px 'Arial', sans-serif" transform="translate(870.177143 473.201786) rotate(-90)">35_1</text>
     </g>
    </g>
    <g id="xtick_17">
     <g id="line2d_17">
      <g>
       <use xlink:href="#m565c3fb050" x="906.428571" y="421.714286" style="stroke: #000000; stroke-width: 0.8"/>
      </g>
     </g>
     <g id="text_17">
      <text style="font: 20px 'Arial', sans-serif" transform="translate(911.628571 473.201786) rotate(-90)">36_1</text>
     </g>
    </g>
    <g id="xtick_18">
     <g id="line2d_18">
      <g>
       <use xlink:href="#m565c3fb050" x="947.88" y="421.714286" style="stroke: #000000; stroke-width: 0.8"/>
      </g>
     </g>
     <g id="text_18">
      <text style="font: 20px 'Arial', sans-serif" transform="translate(953.08 473.201786) rotate(-90)">37_1</text>
     </g>
    </g>
    <g id="xtick_19">
     <g id="line2d_19">
      <g>
       <use xlink:href="#m565c3fb050" x="989.331429" y="421.714286" style="stroke: #000000; stroke-width: 0.8"/>
      </g>
     </g>
     <g id="text_19">
      <text style="font: 20px 'Arial', sans-serif" transform="translate(994.623616 641.120536) rotate(-90)">41_SBS16_0.856273_1</text>
     </g>
    </g>
    <g id="xtick_20">
     <g id="line2d_20">
      <g>
       <use xlink:href="#m565c3fb050" x="1030.782857" y="421.714286" style="stroke: #000000; stroke-width: 0.8"/>
      </g>
     </g>
     <g id="text_20">
      <text style="font: 20px 'Arial', sans-serif" transform="translate(1035.982857 473.201786) rotate(-90)">42_1</text>
     </g>
    </g>
    <g id="xtick_21">
     <g id="line2d_21">
      <g>
       <use xlink:href="#m565c3fb050" x="1072.234286" y="421.714286" style="stroke: #000000; stroke-width: 0.8"/>
      </g>
     </g>
     <g id="text_21">
      <text style="font: 20px 'Arial', sans-serif" transform="translate(1077.526473 641.120536) rotate(-90)">47_SBS21_0.950463_1</text>
     </g>
    </g>
    <g id="xtick_22">
     <g id="line2d_22">
      <g>
       <use xlink:href="#m565c3fb050" x="1113.685714" y="421.714286" style="stroke: #000000; stroke-width: 0.8"/>
      </g>
     </g>
     <g id="text_22">
      <text style="font: 20px 'Arial', sans-serif" transform="translate(1118.977902 641.120536) rotate(-90)">48_SBS44_0.864247_1</text>
     </g>
    </g>
    <g id="xtick_23">
     <g id="line2d_23">
      <g>
       <use xlink:href="#m565c3fb050" x="1155.137143" y="421.714286" style="stroke: #000000; stroke-width: 0.8"/>
      </g>
     </g>
     <g id="text_23">
      <text style="font: 20px 'Arial', sans-serif" transform="translate(1160.42933 629.998661) rotate(-90)">50_SBS15_0.93882_1</text>
     </g>
    </g>
    <g id="xtick_24">
     <g id="line2d_24">
      <g>
       <use xlink:href="#m565c3fb050" x="1196.588571" y="421.714286" style="stroke: #000000; stroke-width: 0.8"/>
      </g>
     </g>
     <g id="text_24">
      <text style="font: 20px 'Arial', sans-serif" transform="translate(1201.788571 473.201786) rotate(-90)">51_1</text>
     </g>
    </g>
    <g id="xtick_25">
     <g id="line2d_25">
      <g>
       <use xlink:href="#m565c3fb050" x="1238.04" y="421.714286" style="stroke: #000000; stroke-width: 0.8"/>
      </g>
     </g>
     <g id="text_25">
      <text style="font: 20px 'Arial', sans-serif" transform="translate(1243.332187 641.120536) rotate(-90)">52_SBS32_0.939281_1</text>
     </g>
    </g>
    <g id="xtick_26">
     <g id="line2d_26">
      <g>
       <use xlink:href="#m565c3fb050" x="1279.491429" y="421.714286" style="stroke: #000000; stroke-width: 0.8"/>
      </g>
     </g>
     <g id="text_26">
      <text style="font: 20px 'Arial', sans-serif" transform="translate(1284.783616 639.645536) rotate(-90)">53_SBS11_0.988806_1</text>
     </g>
    </g>
    <g id="xtick_27">
     <g id="line2d_27">
      <g>
       <use xlink:href="#m565c3fb050" x="1320.942857" y="421.714286" style="stroke: #000000; stroke-width: 0.8"/>
      </g>
     </g>
     <g id="text_27">
      <text style="font: 20px 'Arial', sans-serif" transform="translate(1326.235045 641.120536) rotate(-90)">54_SBS12_0.859843_1</text>
     </g>
    </g>
    <g id="xtick_28">
     <g id="line2d_28">
      <g>
       <use xlink:href="#m565c3fb050" x="1362.394286" y="421.714286" style="stroke: #000000; stroke-width: 0.8"/>
      </g>
     </g>
     <g id="text_28">
      <text style="font: 20px 'Arial', sans-serif" transform="translate(1367.686473 641.120536) rotate(-90)">55_SBS26_0.943655_1</text>
     </g>
    </g>
    <g id="xtick_29">
     <g id="line2d_29">
      <g>
       <use xlink:href="#m565c3fb050" x="1403.845714" y="421.714286" style="stroke: #000000; stroke-width: 0.8"/>
      </g>
     </g>
     <g id="text_29">
      <text style="font: 20px 'Arial', sans-serif" transform="translate(1409.137902 641.120536) rotate(-90)">58_SBS44_0.899453_1</text>
     </g>
    </g>
    <g id="xtick_30">
     <g id="line2d_30">
      <g>
       <use xlink:href="#m565c3fb050" x="1445.297143" y="421.714286" style="stroke: #000000; stroke-width: 0.8"/>
      </g>
     </g>
     <g id="text_30">
      <text style="font: 20px 'Arial', sans-serif" transform="translate(1450.497143 473.201786) rotate(-90)">59_1</text>
     </g>
    </g>
    <g id="xtick_31">
     <g id="line2d_31">
      <g>
       <use xlink:href="#m565c3fb050" x="1486.748571" y="421.714286" style="stroke: #000000; stroke-width: 0.8"/>
      </g>
     </g>
     <g id="text_31">
      <text style="font: 20px 'Arial', sans-serif" transform="translate(1492.040759 641.120536) rotate(-90)">65_SBS44_0.903138_1</text>
     </g>
    </g>
    <g id="xtick_32">
     <g id="line2d_32">
      <g>
       <use xlink:href="#m565c3fb050" x="1528.2" y="421.714286" style="stroke: #000000; stroke-width: 0.8"/>
      </g>
     </g>
     <g id="text_32">
      <text style="font: 20px 'Arial', sans-serif" transform="translate(1533.492188 641.120536) rotate(-90)">66_SBS7b_0.984914_1</text>
     </g>
    </g>
    <g id="xtick_33">
     <g id="line2d_33">
      <g>
       <use xlink:href="#m565c3fb050" x="1569.651429" y="421.714286" style="stroke: #000000; stroke-width: 0.8"/>
      </g>
     </g>
     <g id="text_33">
      <text style="font: 20px 'Arial', sans-serif" transform="translate(1574.851429 473.201786) rotate(-90)">67_1</text>
     </g>
    </g>
    <g id="xtick_34">
     <g id="line2d_34">
      <g>
       <use xlink:href="#m565c3fb050" x="1611.102857" y="421.714286" style="stroke: #000000; stroke-width: 0.8"/>
      </g>
     </g>
     <g id="text_34">
      <text style="font: 20px 'Arial', sans-serif" transform="translate(1616.302857 473.201786) rotate(-90)">68_1</text>
     </g>
    </g>
    <g id="xtick_35">
     <g id="line2d_35">
      <g>
       <use xlink:href="#m565c3fb050" x="1652.554286" y="421.714286" style="stroke: #000000; stroke-width: 0.8"/>
      </g>
     </g>
     <g id="text_35">
      <text style="font: 20px 'Arial', sans-serif" transform="translate(1657.846473 641.120536) rotate(-90)">71_SBS44_0.865933_1</text>
     </g>
    </g>
    <g id="text_36">
     <text style="font: 24px 'Arial', sans-serif; text-anchor: middle" x="947.88" y="662.591786" transform="rotate(-0 947.88 662.591786)">Pich et al. SigAnalyzer Signatures</text>
    </g>
   </g>
   <g id="matplotlib.axis_2">
    <g id="ytick_1">
     <g id="line2d_36">
      <defs>
       <path id="mb042122f1e" d="M 0 0 
L -3.5 0 
" style="stroke: #000000; stroke-width: 0.8"/>
      </defs>
      <g>
       <use xlink:href="#mb042122f1e" x="222.48" y="27.925714" style="stroke: #000000; stroke-width: 0.8"/>
      </g>
     </g>
     <g id="text_37">
      <text style="font: 20px 'Arial', sans-serif; text-anchor: end" x="215.48" y="33.096027" transform="rotate(-0 215.48 33.096027)">SBS288L1</text>
     </g>
    </g>
    <g id="ytick_2">
     <g id="line2d_37">
      <g>
       <use xlink:href="#mb042122f1e" x="222.48" y="69.377143" style="stroke: #000000; stroke-width: 0.8"/>
      </g>
     </g>
     <g id="text_38">
      <text style="font: 20px 'Arial', sans-serif; text-anchor: end" x="215.48" y="74.547455" transform="rotate(-0 215.48 74.547455)">SBS288L2</text>
     </g>
    </g>
    <g id="ytick_3">
     <g id="line2d_38">
      <g>
       <use xlink:href="#mb042122f1e" x="222.48" y="110.828571" style="stroke: #000000; stroke-width: 0.8"/>
      </g>
     </g>
     <g id="text_39">
      <text style="font: 20px 'Arial', sans-serif; text-anchor: end" x="215.48" y="115.998884" transform="rotate(-0 215.48 115.998884)">SBS288L3</text>
     </g>
    </g>
    <g id="ytick_4">
     <g id="line2d_39">
      <g>
       <use xlink:href="#mb042122f1e" x="222.48" y="152.28" style="stroke: #000000; stroke-width: 0.8"/>
      </g>
     </g>
     <g id="text_40">
      <text style="font: 20px 'Arial', sans-serif; text-anchor: end" x="215.48" y="157.450312" transform="rotate(-0 215.48 157.450312)">SBS288L4</text>
     </g>
    </g>
    <g id="ytick_5">
     <g id="line2d_40">
      <g>
       <use xlink:href="#mb042122f1e" x="222.48" y="193.731429" style="stroke: #000000; stroke-width: 0.8"/>
      </g>
     </g>
     <g id="text_41">
      <text style="font: 20px 'Arial', sans-serif; text-anchor: end" x="215.48" y="198.901741" transform="rotate(-0 215.48 198.901741)">SBS288L5</text>
     </g>
    </g>
    <g id="ytick_6">
     <g id="line2d_41">
      <g>
       <use xlink:href="#mb042122f1e" x="222.48" y="235.182857" style="stroke: #000000; stroke-width: 0.8"/>
      </g>
     </g>
     <g id="text_42">
      <text style="font: 20px 'Arial', sans-serif; text-anchor: end" x="215.48" y="240.35317" transform="rotate(-0 215.48 240.35317)">SBS288H1</text>
     </g>
    </g>
    <g id="ytick_7">
     <g id="line2d_42">
      <g>
       <use xlink:href="#mb042122f1e" x="222.48" y="276.634286" style="stroke: #000000; stroke-width: 0.8"/>
      </g>
     </g>
     <g id="text_43">
      <text style="font: 20px 'Arial', sans-serif; text-anchor: end" x="215.48" y="281.804598" transform="rotate(-0 215.48 281.804598)">SBS288H2</text>
     </g>
    </g>
    <g id="ytick_8">
     <g id="line2d_43">
      <g>
       <use xlink:href="#mb042122f1e" x="222.48" y="318.085714" style="stroke: #000000; stroke-width: 0.8"/>
      </g>
     </g>
     <g id="text_44">
      <text style="font: 20px 'Arial', sans-serif; text-anchor: end" x="215.48" y="323.256027" transform="rotate(-0 215.48 323.256027)">SBS288H3</text>
     </g>
    </g>
    <g id="ytick_9">
     <g id="line2d_44">
      <g>
       <use xlink:href="#mb042122f1e" x="222.48" y="359.537143" style="stroke: #000000; stroke-width: 0.8"/>
      </g>
     </g>
     <g id="text_45">
      <text style="font: 20px 'Arial', sans-serif; text-anchor: end" x="215.48" y="364.707455" transform="rotate(-0 215.48 364.707455)">SBS288H4</text>
     </g>
    </g>
    <g id="ytick_10">
     <g id="line2d_45">
      <g>
       <use xlink:href="#mb042122f1e" x="222.48" y="400.988571" style="stroke: #000000; stroke-width: 0.8"/>
      </g>
     </g>
     <g id="text_46">
      <text style="font: 20px 'Arial', sans-serif; text-anchor: end" x="215.48" y="406.158884" transform="rotate(-0 215.48 406.158884)">SBS288H5</text>
     </g>
    </g>
   </g>
   <g id="LineCollection_1">
    <path d="M 222.48 214.457143 
L 1673.28 214.457143 
" clip-path="url(#pb12d033da2)" style="fill: none; stroke: #ffffff; stroke-width: 4"/>
   </g>
   <g id="text_47">
    <text style="fill: #262626; font: 18px 'Arial', sans-serif; text-anchor: middle" x="326.108571" y="74.030424" transform="rotate(-0 326.108571 74.030424)">0.86</text>
   </g>
   <g id="text_48">
    <text style="fill: #262626; font: 18px 'Arial', sans-serif; text-anchor: middle" x="1652.554286" y="74.030424" transform="rotate(-0 1652.554286 74.030424)">0.819</text>
   </g>
   <g id="text_49">
    <text style="fill: #262626; font: 18px 'Arial', sans-serif; text-anchor: middle" x="284.657143" y="115.481853" transform="rotate(-0 284.657143 115.481853)">0.9</text>
   </g>
   <g id="text_50">
    <text style="fill: #262626; font: 18px 'Arial', sans-serif; text-anchor: middle" x="989.331429" y="115.481853" transform="rotate(-0 989.331429 115.481853)">0.752</text>
   </g>
   <g id="text_51">
    <text style="fill: #262626; font: 18px 'Arial', sans-serif; text-anchor: middle" x="1072.234286" y="115.481853" transform="rotate(-0 1072.234286 115.481853)">0.835</text>
   </g>
   <g id="text_52">
    <text style="fill: #ffffff; font: 18px 'Arial', sans-serif; text-anchor: middle" x="1362.394286" y="115.481853" transform="rotate(-0 1362.394286 115.481853)">0.75</text>
   </g>
   <g id="text_53">
    <text style="fill: #262626; font: 18px 'Arial', sans-serif; text-anchor: middle" x="367.56" y="156.933281" transform="rotate(-0 367.56 156.933281)">0.783</text>
   </g>
   <g id="text_54">
    <text style="fill: #262626; font: 18px 'Arial', sans-serif; text-anchor: middle" x="491.914286" y="198.38471" transform="rotate(-0 491.914286 198.38471)">0.897</text>
   </g>
   <g id="text_55">
    <text style="fill: #262626; font: 18px 'Arial', sans-serif; text-anchor: middle" x="699.171429" y="239.836138" transform="rotate(-0 699.171429 239.836138)">0.784</text>
   </g>
   <g id="text_56">
    <text style="fill: #262626; font: 18px 'Arial', sans-serif; text-anchor: middle" x="1155.137143" y="239.836138" transform="rotate(-0 1155.137143 239.836138)">0.799</text>
   </g>
   <g id="text_57">
    <text style="fill: #262626; font: 18px 'Arial', sans-serif; text-anchor: middle" x="1445.297143" y="239.836138" transform="rotate(-0 1445.297143 239.836138)">0.768</text>
   </g>
   <g id="text_58">
    <text style="fill: #262626; font: 18px 'Arial', sans-serif; text-anchor: middle" x="533.365714" y="281.287567" transform="rotate(-0 533.365714 281.287567)">0.929</text>
   </g>
   <g id="text_59">
    <text style="fill: #262626; font: 18px 'Arial', sans-serif; text-anchor: middle" x="284.657143" y="364.190424" transform="rotate(-0 284.657143 364.190424)">0.893</text>
   </g>
   <g id="text_60">
    <text style="fill: #262626; font: 18px 'Arial', sans-serif; text-anchor: middle" x="1072.234286" y="364.190424" transform="rotate(-0 1072.234286 364.190424)">0.964</text>
   </g>
   <g id="text_61">
    <text style="fill: #262626; font: 18px 'Arial', sans-serif; text-anchor: middle" x="1320.942857" y="364.190424" transform="rotate(-0 1320.942857 364.190424)">0.777</text>
   </g>
   <g id="text_62">
    <text style="fill: #262626; font: 18px 'Arial', sans-serif; text-anchor: middle" x="574.817143" y="405.641853" transform="rotate(-0 574.817143 405.641853)">0.915</text>
   </g>
   <g id="text_63">
    <text style="fill: #262626; font: 18px 'Arial', sans-serif; text-anchor: middle" x="1528.2" y="405.641853" transform="rotate(-0 1528.2 405.641853)">0.858</text>
   </g>
  </g>
  <g id="text_64">
   <text style="font: 24px 'Arial', sans-serif" transform="translate(80.53875 183.587143) rotate(-90)">Low Burden</text>
  </g>
  <g id="text_65">
   <text style="font: 24px 'Arial', sans-serif" transform="translate(80.53875 394.468393) rotate(-90)">High Burden</text>
  </g>
  <g id="text_66">
   <text style="font: 24px 'Arial', sans-serif" transform="translate(24.67125 345.868393) rotate(-90)">Novel SBS Signatures</text>
  </g>
 </g>
 <defs>
  <clipPath id="pb12d033da2">
   <rect x="222.48" y="7.2" width="1450.8" height="414.514286"/>
  </clipPath>
 </defs>
</svg>
