<?xml version="1.0" encoding="utf-8" standalone="no"?>
<!DOCTYPE svg PUBLIC "-//W3C//DTD SVG 1.1//EN"
  "http://www.w3.org/Graphics/SVG/1.1/DTD/svg11.dtd">
<svg xmlns:xlink="http://www.w3.org/1999/xlink" width="368.98625pt" height="273.855pt" viewBox="0 0 368.98625 273.855" xmlns="http://www.w3.org/2000/svg" version="1.1">
 <metadata>
  <rdf:RDF xmlns:dc="http://purl.org/dc/elements/1.1/" xmlns:cc="http://creativecommons.org/ns#" xmlns:rdf="http://www.w3.org/1999/02/22-rdf-syntax-ns#">
   <cc:Work>
    <dc:type rdf:resource="http://purl.org/dc/dcmitype/StillImage"/>
    <dc:date>2026-05-21T15:43:59.816773</dc:date>
    <dc:format>image/svg+xml</dc:format>
    <dc:creator>
     <cc:Agent>
      <dc:title>Matplotlib v3.7.3, https://matplotlib.org/</dc:title>
     </cc:Agent>
    </dc:creator>
   </cc:Work>
  </rdf:RDF>
 </metadata>
 <defs>
  <style type="text/css">*{stroke-linejoin: round; stroke-linecap: butt}</style>
 </defs>
 <g id="figure_1">
  <g id="patch_1">
   <path d="M 0 273.855 
L 368.98625 273.855 
L 368.98625 0 
L 0 0 
L 0 273.855 
z
" style="fill: none"/>
  </g>
  <g id="axes_1">
   <g id="patch_2">
    <path d="M 49.10625 243.432812 
L 221.90625 243.432812 
L 221.90625 41.832812 
L 49.10625 41.832812 
L 49.10625 243.432812 
z
" style="fill: none"/>
   </g>
   <g id="patch_3">
    <path d="M 77.90625 243.432812 
L 106.70625 243.432812 
L 106.70625 41.832812 
L 77.90625 41.832812 
z
" clip-path="url(#p1d6b2c6921)" style="fill: #e6e6fa; stroke: #e6e6fa; stroke-linejoin: miter"/>
   </g>
   <g id="patch_4">
    <path d="M 106.70625 243.432812 
L 135.50625 243.432812 
L 135.50625 41.832812 
L 106.70625 41.832812 
z
" clip-path="url(#p1d6b2c6921)" style="fill: #b0c4de; stroke: #b0c4de; stroke-linejoin: miter"/>
   </g>
   <g id="patch_5">
    <path d="M 135.50625 243.432812 
L 164.30625 243.432812 
L 164.30625 41.832812 
L 135.50625 41.832812 
z
" clip-path="url(#p1d6b2c6921)" style="fill: #b0c4de; stroke: #b0c4de; stroke-linejoin: miter"/>
   </g>
   <g id="patch_6">
    <path d="M 193.10625 243.432812 
L 221.90625 243.432812 
L 221.90625 41.832812 
L 193.10625 41.832812 
z
" clip-path="url(#p1d6b2c6921)" style="fill: #e6e6fa; stroke: #e6e6fa; stroke-linejoin: miter"/>
   </g>
   <g id="LineCollection_1">
    <path d="M 49.10625 243.432812 
L 221.90625 243.432812 
" clip-path="url(#p1d6b2c6921)" style="fill: none; stroke-dasharray: 1.85,0.8; stroke-dashoffset: 0; stroke: #000000; stroke-width: 0.5"/>
    <path d="M 49.10625 193.032812 
L 221.90625 193.032812 
" clip-path="url(#p1d6b2c6921)" style="fill: none; stroke-dasharray: 1.85,0.8; stroke-dashoffset: 0; stroke: #000000; stroke-width: 0.5"/>
    <path d="M 49.10625 142.632812 
L 221.90625 142.632812 
" clip-path="url(#p1d6b2c6921)" style="fill: none; stroke-dasharray: 1.85,0.8; stroke-dashoffset: 0; stroke: #000000; stroke-width: 0.5"/>
    <path d="M 49.10625 92.232812 
L 221.90625 92.232812 
" clip-path="url(#p1d6b2c6921)" style="fill: none; stroke-dasharray: 1.85,0.8; stroke-dashoffset: 0; stroke: #000000; stroke-width: 0.5"/>
    <path d="M 49.10625 41.832812 
L 221.90625 41.832812 
" clip-path="url(#p1d6b2c6921)" style="fill: none; stroke-dasharray: 1.85,0.8; stroke-dashoffset: 0; stroke: #000000; stroke-width: 0.5"/>
   </g>
   <g id="PathCollection_1">
    <defs>
     <path id="m1d183c299d" d="M 0 0.612372 
C 0.162403 0.612372 0.318176 0.547849 0.433013 0.433013 
C 0.547849 0.318176 0.612372 0.162403 0.612372 0 
C 0.612372 -0.162403 0.547849 -0.318176 0.433013 -0.433013 
C 0.318176 -0.547849 0.162403 -0.612372 0 -0.612372 
C -0.162403 -0.612372 -0.318176 -0.547849 -0.433013 -0.433013 
C -0.547849 -0.318176 -0.612372 -0.162403 -0.612372 0 
C -0.612372 0.162403 -0.547849 0.318176 -0.433013 0.433013 
C -0.318176 0.547849 -0.162403 0.612372 0 0.612372 
z
" style="stroke: #000000"/>
    </defs>
    <g clip-path="url(#p1d6b2c6921)">
     <use xlink:href="#m1d183c299d" x="51.98625" y="203.451628" style="stroke: #000000"/>
     <use xlink:href="#m1d183c299d" x="53.26625" y="202.268181" style="stroke: #000000"/>
     <use xlink:href="#m1d183c299d" x="54.54625" y="202.268181" style="stroke: #000000"/>
     <use xlink:href="#m1d183c299d" x="55.82625" y="197.154716" style="stroke: #000000"/>
     <use xlink:href="#m1d183c299d" x="57.10625" y="196.261186" style="stroke: #000000"/>
     <use xlink:href="#m1d183c299d" x="58.38625" y="195.402706" style="stroke: #000000"/>
     <use xlink:href="#m1d183c299d" x="59.66625" y="191.552733" style="stroke: #000000"/>
     <use xlink:href="#m1d183c299d" x="60.94625" y="191.552733" style="stroke: #000000"/>
     <use xlink:href="#m1d183c299d" x="62.22625" y="191.552733" style="stroke: #000000"/>
     <use xlink:href="#m1d183c299d" x="63.50625" y="190.857803" style="stroke: #000000"/>
     <use xlink:href="#m1d183c299d" x="64.78625" y="185.973539" style="stroke: #000000"/>
     <use xlink:href="#m1d183c299d" x="66.06625" y="183.395452" style="stroke: #000000"/>
     <use xlink:href="#m1d183c299d" x="67.34625" y="181.982804" style="stroke: #000000"/>
     <use xlink:href="#m1d183c299d" x="68.62625" y="178.608686" style="stroke: #000000"/>
     <use xlink:href="#m1d183c299d" x="69.90625" y="178.22127" style="stroke: #000000"/>
     <use xlink:href="#m1d183c299d" x="71.18625" y="175.685892" style="stroke: #000000"/>
     <use xlink:href="#m1d183c299d" x="72.46625" y="175.012348" style="stroke: #000000"/>
     <use xlink:href="#m1d183c299d" x="73.74625" y="173.724421" style="stroke: #000000"/>
     <use xlink:href="#m1d183c299d" x="75.02625" y="158.088426" style="stroke: #000000"/>
    </g>
   </g>
   <g id="PathCollection_2">
    <g clip-path="url(#p1d6b2c6921)">
     <use xlink:href="#m1d183c299d" x="80.78625" y="207.442363" style="stroke: #000000"/>
     <use xlink:href="#m1d183c299d" x="80.90145" y="207.442363" style="stroke: #000000"/>
     <use xlink:href="#m1d183c299d" x="81.01665" y="207.442363" style="stroke: #000000"/>
     <use xlink:href="#m1d183c299d" x="81.13185" y="207.442363" style="stroke: #000000"/>
     <use xlink:href="#m1d183c299d" x="81.24705" y="207.442363" style="stroke: #000000"/>
     <use xlink:href="#m1d183c299d" x="81.36225" y="207.442363" style="stroke: #000000"/>
     <use xlink:href="#m1d183c299d" x="81.47745" y="206.029715" style="stroke: #000000"/>
     <use xlink:href="#m1d183c299d" x="81.59265" y="206.029715" style="stroke: #000000"/>
     <use xlink:href="#m1d183c299d" x="81.70785" y="206.029715" style="stroke: #000000"/>
     <use xlink:href="#m1d183c299d" x="81.82305" y="206.029715" style="stroke: #000000"/>
     <use xlink:href="#m1d183c299d" x="81.93825" y="206.029715" style="stroke: #000000"/>
     <use xlink:href="#m1d183c299d" x="82.05345" y="206.029715" style="stroke: #000000"/>
     <use xlink:href="#m1d183c299d" x="82.16865" y="206.029715" style="stroke: #000000"/>
     <use xlink:href="#m1d183c299d" x="82.28385" y="204.702737" style="stroke: #000000"/>
     <use xlink:href="#m1d183c299d" x="82.39905" y="204.702737" style="stroke: #000000"/>
     <use xlink:href="#m1d183c299d" x="82.51425" y="204.702737" style="stroke: #000000"/>
     <use xlink:href="#m1d183c299d" x="82.62945" y="204.702737" style="stroke: #000000"/>
     <use xlink:href="#m1d183c299d" x="82.74465" y="204.702737" style="stroke: #000000"/>
     <use xlink:href="#m1d183c299d" x="82.85985" y="204.702737" style="stroke: #000000"/>
     <use xlink:href="#m1d183c299d" x="82.97505" y="204.702737" style="stroke: #000000"/>
     <use xlink:href="#m1d183c299d" x="83.09025" y="203.451628" style="stroke: #000000"/>
     <use xlink:href="#m1d183c299d" x="83.20545" y="203.451628" style="stroke: #000000"/>
     <use xlink:href="#m1d183c299d" x="83.32065" y="203.451628" style="stroke: #000000"/>
     <use xlink:href="#m1d183c299d" x="83.43585" y="203.451628" style="stroke: #000000"/>
     <use xlink:href="#m1d183c299d" x="83.55105" y="203.451628" style="stroke: #000000"/>
     <use xlink:href="#m1d183c299d" x="83.66625" y="202.268181" style="stroke: #000000"/>
     <use xlink:href="#m1d183c299d" x="83.78145" y="202.268181" style="stroke: #000000"/>
     <use xlink:href="#m1d183c299d" x="83.89665" y="202.268181" style="stroke: #000000"/>
     <use xlink:href="#m1d183c299d" x="84.01185" y="202.268181" style="stroke: #000000"/>
     <use xlink:href="#m1d183c299d" x="84.12705" y="202.268181" style="stroke: #000000"/>
     <use xlink:href="#m1d183c299d" x="84.24225" y="201.14545" style="stroke: #000000"/>
     <use xlink:href="#m1d183c299d" x="84.35745" y="201.14545" style="stroke: #000000"/>
     <use xlink:href="#m1d183c299d" x="84.47265" y="201.14545" style="stroke: #000000"/>
     <use xlink:href="#m1d183c299d" x="84.58785" y="201.14545" style="stroke: #000000"/>
     <use xlink:href="#m1d183c299d" x="84.70305" y="201.14545" style="stroke: #000000"/>
     <use xlink:href="#m1d183c299d" x="84.81825" y="201.14545" style="stroke: #000000"/>
     <use xlink:href="#m1d183c299d" x="84.93345" y="201.14545" style="stroke: #000000"/>
     <use xlink:href="#m1d183c299d" x="85.04865" y="201.14545" style="stroke: #000000"/>
     <use xlink:href="#m1d183c299d" x="85.16385" y="200.07751" style="stroke: #000000"/>
     <use xlink:href="#m1d183c299d" x="85.27905" y="200.07751" style="stroke: #000000"/>
     <use xlink:href="#m1d183c299d" x="85.39425" y="200.07751" style="stroke: #000000"/>
     <use xlink:href="#m1d183c299d" x="85.50945" y="200.07751" style="stroke: #000000"/>
     <use xlink:href="#m1d183c299d" x="85.62465" y="199.059259" style="stroke: #000000"/>
     <use xlink:href="#m1d183c299d" x="85.73985" y="199.059259" style="stroke: #000000"/>
     <use xlink:href="#m1d183c299d" x="85.85505" y="199.059259" style="stroke: #000000"/>
     <use xlink:href="#m1d183c299d" x="85.97025" y="199.059259" style="stroke: #000000"/>
     <use xlink:href="#m1d183c299d" x="86.08545" y="199.059259" style="stroke: #000000"/>
     <use xlink:href="#m1d183c299d" x="86.20065" y="199.059259" style="stroke: #000000"/>
     <use xlink:href="#m1d183c299d" x="86.31585" y="199.059259" style="stroke: #000000"/>
     <use xlink:href="#m1d183c299d" x="86.43105" y="199.059259" style="stroke: #000000"/>
     <use xlink:href="#m1d183c299d" x="86.54625" y="199.059259" style="stroke: #000000"/>
     <use xlink:href="#m1d183c299d" x="86.66145" y="199.059259" style="stroke: #000000"/>
     <use xlink:href="#m1d183c299d" x="86.77665" y="199.059259" style="stroke: #000000"/>
     <use xlink:href="#m1d183c299d" x="86.89185" y="199.059259" style="stroke: #000000"/>
     <use xlink:href="#m1d183c299d" x="87.00705" y="198.086279" style="stroke: #000000"/>
     <use xlink:href="#m1d183c299d" x="87.12225" y="198.086279" style="stroke: #000000"/>
     <use xlink:href="#m1d183c299d" x="87.23745" y="198.086279" style="stroke: #000000"/>
     <use xlink:href="#m1d183c299d" x="87.35265" y="198.086279" style="stroke: #000000"/>
     <use xlink:href="#m1d183c299d" x="87.46785" y="198.086279" style="stroke: #000000"/>
     <use xlink:href="#m1d183c299d" x="87.58305" y="198.086279" style="stroke: #000000"/>
     <use xlink:href="#m1d183c299d" x="87.69825" y="197.154716" style="stroke: #000000"/>
     <use xlink:href="#m1d183c299d" x="87.81345" y="197.154716" style="stroke: #000000"/>
     <use xlink:href="#m1d183c299d" x="87.92865" y="197.154716" style="stroke: #000000"/>
     <use xlink:href="#m1d183c299d" x="88.04385" y="197.154716" style="stroke: #000000"/>
     <use xlink:href="#m1d183c299d" x="88.15905" y="197.154716" style="stroke: #000000"/>
     <use xlink:href="#m1d183c299d" x="88.27425" y="196.261186" style="stroke: #000000"/>
     <use xlink:href="#m1d183c299d" x="88.38945" y="196.261186" style="stroke: #000000"/>
     <use xlink:href="#m1d183c299d" x="88.50465" y="196.261186" style="stroke: #000000"/>
     <use xlink:href="#m1d183c299d" x="88.61985" y="196.261186" style="stroke: #000000"/>
     <use xlink:href="#m1d183c299d" x="88.73505" y="196.261186" style="stroke: #000000"/>
     <use xlink:href="#m1d183c299d" x="88.85025" y="195.402706" style="stroke: #000000"/>
     <use xlink:href="#m1d183c299d" x="88.96545" y="195.402706" style="stroke: #000000"/>
     <use xlink:href="#m1d183c299d" x="89.08065" y="195.402706" style="stroke: #000000"/>
     <use xlink:href="#m1d183c299d" x="89.19585" y="195.402706" style="stroke: #000000"/>
     <use xlink:href="#m1d183c299d" x="89.31105" y="195.402706" style="stroke: #000000"/>
     <use xlink:href="#m1d183c299d" x="89.42625" y="194.576629" style="stroke: #000000"/>
     <use xlink:href="#m1d183c299d" x="89.54145" y="194.576629" style="stroke: #000000"/>
     <use xlink:href="#m1d183c299d" x="89.65665" y="194.576629" style="stroke: #000000"/>
     <use xlink:href="#m1d183c299d" x="89.77185" y="193.780597" style="stroke: #000000"/>
     <use xlink:href="#m1d183c299d" x="89.88705" y="193.780597" style="stroke: #000000"/>
     <use xlink:href="#m1d183c299d" x="90.00225" y="193.780597" style="stroke: #000000"/>
     <use xlink:href="#m1d183c299d" x="90.11745" y="193.012503" style="stroke: #000000"/>
     <use xlink:href="#m1d183c299d" x="90.23265" y="193.012503" style="stroke: #000000"/>
     <use xlink:href="#m1d183c299d" x="90.34785" y="192.270451" style="stroke: #000000"/>
     <use xlink:href="#m1d183c299d" x="90.46305" y="192.270451" style="stroke: #000000"/>
     <use xlink:href="#m1d183c299d" x="90.57825" y="192.270451" style="stroke: #000000"/>
     <use xlink:href="#m1d183c299d" x="90.69345" y="192.270451" style="stroke: #000000"/>
     <use xlink:href="#m1d183c299d" x="90.80865" y="192.270451" style="stroke: #000000"/>
     <use xlink:href="#m1d183c299d" x="90.92385" y="192.270451" style="stroke: #000000"/>
     <use xlink:href="#m1d183c299d" x="91.03905" y="192.270451" style="stroke: #000000"/>
     <use xlink:href="#m1d183c299d" x="91.15425" y="192.270451" style="stroke: #000000"/>
     <use xlink:href="#m1d183c299d" x="91.26945" y="192.270451" style="stroke: #000000"/>
     <use xlink:href="#m1d183c299d" x="91.38465" y="191.552733" style="stroke: #000000"/>
     <use xlink:href="#m1d183c299d" x="91.49985" y="191.552733" style="stroke: #000000"/>
     <use xlink:href="#m1d183c299d" x="91.61505" y="190.857803" style="stroke: #000000"/>
     <use xlink:href="#m1d183c299d" x="91.73025" y="190.18426" style="stroke: #000000"/>
     <use xlink:href="#m1d183c299d" x="91.84545" y="190.18426" style="stroke: #000000"/>
     <use xlink:href="#m1d183c299d" x="91.96065" y="190.18426" style="stroke: #000000"/>
     <use xlink:href="#m1d183c299d" x="92.07585" y="189.530825" style="stroke: #000000"/>
     <use xlink:href="#m1d183c299d" x="92.19105" y="189.530825" style="stroke: #000000"/>
     <use xlink:href="#m1d183c299d" x="92.30625" y="189.530825" style="stroke: #000000"/>
     <use xlink:href="#m1d183c299d" x="92.42145" y="189.530825" style="stroke: #000000"/>
     <use xlink:href="#m1d183c299d" x="92.53665" y="188.896333" style="stroke: #000000"/>
     <use xlink:href="#m1d183c299d" x="92.65185" y="188.896333" style="stroke: #000000"/>
     <use xlink:href="#m1d183c299d" x="92.76705" y="188.896333" style="stroke: #000000"/>
     <use xlink:href="#m1d183c299d" x="92.88225" y="188.896333" style="stroke: #000000"/>
     <use xlink:href="#m1d183c299d" x="92.99745" y="188.896333" style="stroke: #000000"/>
     <use xlink:href="#m1d183c299d" x="93.11265" y="188.279716" style="stroke: #000000"/>
     <use xlink:href="#m1d183c299d" x="93.22785" y="188.279716" style="stroke: #000000"/>
     <use xlink:href="#m1d183c299d" x="93.34305" y="188.279716" style="stroke: #000000"/>
     <use xlink:href="#m1d183c299d" x="93.45825" y="188.279716" style="stroke: #000000"/>
     <use xlink:href="#m1d183c299d" x="93.57345" y="187.096269" style="stroke: #000000"/>
     <use xlink:href="#m1d183c299d" x="93.68865" y="186.527706" style="stroke: #000000"/>
     <use xlink:href="#m1d183c299d" x="93.80385" y="186.527706" style="stroke: #000000"/>
     <use xlink:href="#m1d183c299d" x="93.91905" y="186.527706" style="stroke: #000000"/>
     <use xlink:href="#m1d183c299d" x="94.03425" y="185.973539" style="stroke: #000000"/>
     <use xlink:href="#m1d183c299d" x="94.14945" y="185.973539" style="stroke: #000000"/>
     <use xlink:href="#m1d183c299d" x="94.26465" y="185.973539" style="stroke: #000000"/>
     <use xlink:href="#m1d183c299d" x="94.37985" y="185.973539" style="stroke: #000000"/>
     <use xlink:href="#m1d183c299d" x="94.49505" y="185.433056" style="stroke: #000000"/>
     <use xlink:href="#m1d183c299d" x="94.61025" y="184.905598" style="stroke: #000000"/>
     <use xlink:href="#m1d183c299d" x="94.72545" y="184.905598" style="stroke: #000000"/>
     <use xlink:href="#m1d183c299d" x="94.84065" y="184.905598" style="stroke: #000000"/>
     <use xlink:href="#m1d183c299d" x="94.95585" y="184.905598" style="stroke: #000000"/>
     <use xlink:href="#m1d183c299d" x="95.07105" y="184.905598" style="stroke: #000000"/>
     <use xlink:href="#m1d183c299d" x="95.18625" y="184.390552" style="stroke: #000000"/>
     <use xlink:href="#m1d183c299d" x="95.30145" y="183.395452" style="stroke: #000000"/>
     <use xlink:href="#m1d183c299d" x="95.41665" y="183.395452" style="stroke: #000000"/>
     <use xlink:href="#m1d183c299d" x="95.53185" y="183.395452" style="stroke: #000000"/>
     <use xlink:href="#m1d183c299d" x="95.64705" y="182.914368" style="stroke: #000000"/>
     <use xlink:href="#m1d183c299d" x="95.76225" y="182.914368" style="stroke: #000000"/>
     <use xlink:href="#m1d183c299d" x="95.87745" y="181.982804" style="stroke: #000000"/>
     <use xlink:href="#m1d183c299d" x="95.99265" y="181.982804" style="stroke: #000000"/>
     <use xlink:href="#m1d183c299d" x="96.10785" y="181.089274" style="stroke: #000000"/>
     <use xlink:href="#m1d183c299d" x="96.22305" y="181.089274" style="stroke: #000000"/>
     <use xlink:href="#m1d183c299d" x="96.33825" y="181.089274" style="stroke: #000000"/>
     <use xlink:href="#m1d183c299d" x="96.45345" y="181.089274" style="stroke: #000000"/>
     <use xlink:href="#m1d183c299d" x="96.56865" y="181.089274" style="stroke: #000000"/>
     <use xlink:href="#m1d183c299d" x="96.68385" y="180.655825" style="stroke: #000000"/>
     <use xlink:href="#m1d183c299d" x="96.79905" y="180.655825" style="stroke: #000000"/>
     <use xlink:href="#m1d183c299d" x="96.91425" y="180.655825" style="stroke: #000000"/>
     <use xlink:href="#m1d183c299d" x="97.02945" y="180.655825" style="stroke: #000000"/>
     <use xlink:href="#m1d183c299d" x="97.14465" y="180.230794" style="stroke: #000000"/>
     <use xlink:href="#m1d183c299d" x="97.25985" y="179.404717" style="stroke: #000000"/>
     <use xlink:href="#m1d183c299d" x="97.37505" y="179.003083" style="stroke: #000000"/>
     <use xlink:href="#m1d183c299d" x="97.49025" y="178.608686" style="stroke: #000000"/>
     <use xlink:href="#m1d183c299d" x="97.60545" y="178.22127" style="stroke: #000000"/>
     <use xlink:href="#m1d183c299d" x="97.72065" y="177.840591" style="stroke: #000000"/>
     <use xlink:href="#m1d183c299d" x="97.83585" y="177.466421" style="stroke: #000000"/>
     <use xlink:href="#m1d183c299d" x="97.95105" y="177.466421" style="stroke: #000000"/>
     <use xlink:href="#m1d183c299d" x="98.06625" y="177.466421" style="stroke: #000000"/>
     <use xlink:href="#m1d183c299d" x="98.18145" y="177.098539" style="stroke: #000000"/>
     <use xlink:href="#m1d183c299d" x="98.29665" y="176.736739" style="stroke: #000000"/>
     <use xlink:href="#m1d183c299d" x="98.41185" y="176.736739" style="stroke: #000000"/>
     <use xlink:href="#m1d183c299d" x="98.52705" y="175.685892" style="stroke: #000000"/>
     <use xlink:href="#m1d183c299d" x="98.64225" y="175.685892" style="stroke: #000000"/>
     <use xlink:href="#m1d183c299d" x="98.75745" y="175.685892" style="stroke: #000000"/>
     <use xlink:href="#m1d183c299d" x="98.87265" y="175.346529" style="stroke: #000000"/>
     <use xlink:href="#m1d183c299d" x="98.98785" y="175.012348" style="stroke: #000000"/>
     <use xlink:href="#m1d183c299d" x="99.10305" y="175.012348" style="stroke: #000000"/>
     <use xlink:href="#m1d183c299d" x="99.21825" y="174.683192" style="stroke: #000000"/>
     <use xlink:href="#m1d183c299d" x="99.33345" y="174.358913" style="stroke: #000000"/>
     <use xlink:href="#m1d183c299d" x="99.44865" y="174.358913" style="stroke: #000000"/>
     <use xlink:href="#m1d183c299d" x="99.56385" y="174.039368" style="stroke: #000000"/>
     <use xlink:href="#m1d183c299d" x="99.67905" y="173.413941" style="stroke: #000000"/>
     <use xlink:href="#m1d183c299d" x="99.79425" y="173.107804" style="stroke: #000000"/>
     <use xlink:href="#m1d183c299d" x="99.90945" y="172.214275" style="stroke: #000000"/>
     <use xlink:href="#m1d183c299d" x="100.02465" y="171.63823" style="stroke: #000000"/>
     <use xlink:href="#m1d183c299d" x="100.13985" y="171.355794" style="stroke: #000000"/>
     <use xlink:href="#m1d183c299d" x="100.25505" y="169.21864" style="stroke: #000000"/>
     <use xlink:href="#m1d183c299d" x="100.37025" y="168.715436" style="stroke: #000000"/>
     <use xlink:href="#m1d183c299d" x="100.48545" y="168.715436" style="stroke: #000000"/>
     <use xlink:href="#m1d183c299d" x="100.60065" y="168.715436" style="stroke: #000000"/>
     <use xlink:href="#m1d183c299d" x="100.71585" y="167.742456" style="stroke: #000000"/>
     <use xlink:href="#m1d183c299d" x="100.83105" y="166.137348" style="stroke: #000000"/>
     <use xlink:href="#m1d183c299d" x="100.94625" y="165.917362" style="stroke: #000000"/>
     <use xlink:href="#m1d183c299d" x="101.06145" y="165.483914" style="stroke: #000000"/>
     <use xlink:href="#m1d183c299d" x="101.17665" y="165.270366" style="stroke: #000000"/>
     <use xlink:href="#m1d183c299d" x="101.29185" y="165.058882" style="stroke: #000000"/>
     <use xlink:href="#m1d183c299d" x="101.40705" y="164.43642" style="stroke: #000000"/>
     <use xlink:href="#m1d183c299d" x="101.52225" y="164.031067" style="stroke: #000000"/>
     <use xlink:href="#m1d183c299d" x="101.63745" y="163.436774" style="stroke: #000000"/>
     <use xlink:href="#m1d183c299d" x="101.75265" y="161.926627" style="stroke: #000000"/>
     <use xlink:href="#m1d183c299d" x="101.86785" y="161.033098" style="stroke: #000000"/>
     <use xlink:href="#m1d183c299d" x="101.98305" y="158.396719" style="stroke: #000000"/>
     <use xlink:href="#m1d183c299d" x="102.09825" y="158.088426" style="stroke: #000000"/>
     <use xlink:href="#m1d183c299d" x="102.21345" y="157.784415" style="stroke: #000000"/>
     <use xlink:href="#m1d183c299d" x="102.32865" y="156.04402" style="stroke: #000000"/>
     <use xlink:href="#m1d183c299d" x="102.44385" y="155.766947" style="stroke: #000000"/>
     <use xlink:href="#m1d183c299d" x="102.55905" y="155.357806" style="stroke: #000000"/>
     <use xlink:href="#m1d183c299d" x="102.67425" y="154.823915" style="stroke: #000000"/>
     <use xlink:href="#m1d183c299d" x="102.78945" y="149.992457" style="stroke: #000000"/>
     <use xlink:href="#m1d183c299d" x="102.90465" y="148.461172" style="stroke: #000000"/>
     <use xlink:href="#m1d183c299d" x="103.01985" y="141.365588" style="stroke: #000000"/>
     <use xlink:href="#m1d183c299d" x="103.13505" y="138.371612" style="stroke: #000000"/>
     <use xlink:href="#m1d183c299d" x="103.25025" y="133.78788" style="stroke: #000000"/>
     <use xlink:href="#m1d183c299d" x="103.36545" y="124.088049" style="stroke: #000000"/>
     <use xlink:href="#m1d183c299d" x="103.48065" y="119.622214" style="stroke: #000000"/>
     <use xlink:href="#m1d183c299d" x="103.59585" y="112.477233" style="stroke: #000000"/>
     <use xlink:href="#m1d183c299d" x="103.71105" y="91.230993" style="stroke: #000000"/>
     <use xlink:href="#m1d183c299d" x="103.82625" y="69.916973" style="stroke: #000000"/>
    </g>
   </g>
   <g id="PathCollection_3">
    <g clip-path="url(#p1d6b2c6921)">
     <use xlink:href="#m1d183c299d" x="109.58625" y="207.442363" style="stroke: #000000"/>
     <use xlink:href="#m1d183c299d" x="110.012917" y="207.442363" style="stroke: #000000"/>
     <use xlink:href="#m1d183c299d" x="110.439583" y="206.029715" style="stroke: #000000"/>
     <use xlink:href="#m1d183c299d" x="110.86625" y="206.029715" style="stroke: #000000"/>
     <use xlink:href="#m1d183c299d" x="111.292917" y="204.702737" style="stroke: #000000"/>
     <use xlink:href="#m1d183c299d" x="111.719583" y="204.702737" style="stroke: #000000"/>
     <use xlink:href="#m1d183c299d" x="112.14625" y="204.702737" style="stroke: #000000"/>
     <use xlink:href="#m1d183c299d" x="112.572917" y="204.702737" style="stroke: #000000"/>
     <use xlink:href="#m1d183c299d" x="112.999583" y="204.702737" style="stroke: #000000"/>
     <use xlink:href="#m1d183c299d" x="113.42625" y="203.451628" style="stroke: #000000"/>
     <use xlink:href="#m1d183c299d" x="113.852917" y="203.451628" style="stroke: #000000"/>
     <use xlink:href="#m1d183c299d" x="114.279583" y="200.07751" style="stroke: #000000"/>
     <use xlink:href="#m1d183c299d" x="114.70625" y="200.07751" style="stroke: #000000"/>
     <use xlink:href="#m1d183c299d" x="115.132917" y="199.059259" style="stroke: #000000"/>
     <use xlink:href="#m1d183c299d" x="115.559583" y="198.086279" style="stroke: #000000"/>
     <use xlink:href="#m1d183c299d" x="115.98625" y="198.086279" style="stroke: #000000"/>
     <use xlink:href="#m1d183c299d" x="116.412917" y="197.154716" style="stroke: #000000"/>
     <use xlink:href="#m1d183c299d" x="116.839583" y="197.154716" style="stroke: #000000"/>
     <use xlink:href="#m1d183c299d" x="117.26625" y="197.154716" style="stroke: #000000"/>
     <use xlink:href="#m1d183c299d" x="117.692917" y="195.402706" style="stroke: #000000"/>
     <use xlink:href="#m1d183c299d" x="118.119583" y="195.402706" style="stroke: #000000"/>
     <use xlink:href="#m1d183c299d" x="118.54625" y="193.780597" style="stroke: #000000"/>
     <use xlink:href="#m1d183c299d" x="118.972917" y="193.780597" style="stroke: #000000"/>
     <use xlink:href="#m1d183c299d" x="119.399583" y="193.780597" style="stroke: #000000"/>
     <use xlink:href="#m1d183c299d" x="119.82625" y="191.552733" style="stroke: #000000"/>
     <use xlink:href="#m1d183c299d" x="120.252917" y="190.857803" style="stroke: #000000"/>
     <use xlink:href="#m1d183c299d" x="120.679583" y="190.18426" style="stroke: #000000"/>
     <use xlink:href="#m1d183c299d" x="121.10625" y="188.279716" style="stroke: #000000"/>
     <use xlink:href="#m1d183c299d" x="121.532917" y="187.096269" style="stroke: #000000"/>
     <use xlink:href="#m1d183c299d" x="121.959583" y="181.53148" style="stroke: #000000"/>
     <use xlink:href="#m1d183c299d" x="122.38625" y="181.53148" style="stroke: #000000"/>
     <use xlink:href="#m1d183c299d" x="122.812917" y="180.230794" style="stroke: #000000"/>
     <use xlink:href="#m1d183c299d" x="123.239583" y="180.230794" style="stroke: #000000"/>
     <use xlink:href="#m1d183c299d" x="123.66625" y="179.813858" style="stroke: #000000"/>
     <use xlink:href="#m1d183c299d" x="124.092917" y="179.404717" style="stroke: #000000"/>
     <use xlink:href="#m1d183c299d" x="124.519583" y="178.608686" style="stroke: #000000"/>
     <use xlink:href="#m1d183c299d" x="124.94625" y="177.840591" style="stroke: #000000"/>
     <use xlink:href="#m1d183c299d" x="125.372917" y="177.466421" style="stroke: #000000"/>
     <use xlink:href="#m1d183c299d" x="125.799583" y="176.030599" style="stroke: #000000"/>
     <use xlink:href="#m1d183c299d" x="126.22625" y="176.030599" style="stroke: #000000"/>
     <use xlink:href="#m1d183c299d" x="126.652917" y="174.358913" style="stroke: #000000"/>
     <use xlink:href="#m1d183c299d" x="127.079583" y="173.724421" style="stroke: #000000"/>
     <use xlink:href="#m1d183c299d" x="127.50625" y="173.413941" style="stroke: #000000"/>
     <use xlink:href="#m1d183c299d" x="127.932917" y="173.107804" style="stroke: #000000"/>
     <use xlink:href="#m1d183c299d" x="128.359583" y="173.107804" style="stroke: #000000"/>
     <use xlink:href="#m1d183c299d" x="128.78625" y="170.529717" style="stroke: #000000"/>
     <use xlink:href="#m1d183c299d" x="129.212917" y="167.981676" style="stroke: #000000"/>
     <use xlink:href="#m1d183c299d" x="129.639583" y="167.505822" style="stroke: #000000"/>
     <use xlink:href="#m1d183c299d" x="130.06625" y="166.359568" style="stroke: #000000"/>
     <use xlink:href="#m1d183c299d" x="130.492917" y="163.633084" style="stroke: #000000"/>
     <use xlink:href="#m1d183c299d" x="130.919583" y="159.51128" style="stroke: #000000"/>
     <use xlink:href="#m1d183c299d" x="131.34625" y="159.026646" style="stroke: #000000"/>
     <use xlink:href="#m1d183c299d" x="131.772917" y="158.24203" style="stroke: #000000"/>
     <use xlink:href="#m1d183c299d" x="132.199583" y="155.089232" style="stroke: #000000"/>
     <use xlink:href="#m1d183c299d" x="132.62625" y="140.253555" style="stroke: #000000"/>
    </g>
   </g>
   <g id="PathCollection_4">
    <g clip-path="url(#p1d6b2c6921)">
     <use xlink:href="#m1d183c299d" x="138.38625" y="207.442363" style="stroke: #000000"/>
     <use xlink:href="#m1d183c299d" x="138.876463" y="207.442363" style="stroke: #000000"/>
     <use xlink:href="#m1d183c299d" x="139.366676" y="206.029715" style="stroke: #000000"/>
     <use xlink:href="#m1d183c299d" x="139.856888" y="206.029715" style="stroke: #000000"/>
     <use xlink:href="#m1d183c299d" x="140.347101" y="206.029715" style="stroke: #000000"/>
     <use xlink:href="#m1d183c299d" x="140.837314" y="204.702737" style="stroke: #000000"/>
     <use xlink:href="#m1d183c299d" x="141.327527" y="204.702737" style="stroke: #000000"/>
     <use xlink:href="#m1d183c299d" x="141.817739" y="203.451628" style="stroke: #000000"/>
     <use xlink:href="#m1d183c299d" x="142.307952" y="202.268181" style="stroke: #000000"/>
     <use xlink:href="#m1d183c299d" x="142.798165" y="202.268181" style="stroke: #000000"/>
     <use xlink:href="#m1d183c299d" x="143.288378" y="200.07751" style="stroke: #000000"/>
     <use xlink:href="#m1d183c299d" x="143.77859" y="199.059259" style="stroke: #000000"/>
     <use xlink:href="#m1d183c299d" x="144.268803" y="198.086279" style="stroke: #000000"/>
     <use xlink:href="#m1d183c299d" x="144.759016" y="196.261186" style="stroke: #000000"/>
     <use xlink:href="#m1d183c299d" x="145.249229" y="195.402706" style="stroke: #000000"/>
     <use xlink:href="#m1d183c299d" x="145.739441" y="195.402706" style="stroke: #000000"/>
     <use xlink:href="#m1d183c299d" x="146.229654" y="193.780597" style="stroke: #000000"/>
     <use xlink:href="#m1d183c299d" x="146.719867" y="192.270451" style="stroke: #000000"/>
     <use xlink:href="#m1d183c299d" x="147.21008" y="191.552733" style="stroke: #000000"/>
     <use xlink:href="#m1d183c299d" x="147.700293" y="189.530825" style="stroke: #000000"/>
     <use xlink:href="#m1d183c299d" x="148.190505" y="187.096269" style="stroke: #000000"/>
     <use xlink:href="#m1d183c299d" x="148.680718" y="187.096269" style="stroke: #000000"/>
     <use xlink:href="#m1d183c299d" x="149.170931" y="186.527706" style="stroke: #000000"/>
     <use xlink:href="#m1d183c299d" x="149.661144" y="184.390552" style="stroke: #000000"/>
     <use xlink:href="#m1d183c299d" x="150.151356" y="183.395452" style="stroke: #000000"/>
     <use xlink:href="#m1d183c299d" x="150.641569" y="183.395452" style="stroke: #000000"/>
     <use xlink:href="#m1d183c299d" x="151.131782" y="182.44363" style="stroke: #000000"/>
     <use xlink:href="#m1d183c299d" x="151.621995" y="181.089274" style="stroke: #000000"/>
     <use xlink:href="#m1d183c299d" x="152.112207" y="180.655825" style="stroke: #000000"/>
     <use xlink:href="#m1d183c299d" x="152.60242" y="179.813858" style="stroke: #000000"/>
     <use xlink:href="#m1d183c299d" x="153.092633" y="179.813858" style="stroke: #000000"/>
     <use xlink:href="#m1d183c299d" x="153.582846" y="179.404717" style="stroke: #000000"/>
     <use xlink:href="#m1d183c299d" x="154.073059" y="176.030599" style="stroke: #000000"/>
     <use xlink:href="#m1d183c299d" x="154.563271" y="173.413941" style="stroke: #000000"/>
     <use xlink:href="#m1d183c299d" x="155.053484" y="171.076957" style="stroke: #000000"/>
     <use xlink:href="#m1d183c299d" x="155.543697" y="169.21864" style="stroke: #000000"/>
     <use xlink:href="#m1d183c299d" x="156.03391" y="167.981676" style="stroke: #000000"/>
     <use xlink:href="#m1d183c299d" x="156.524122" y="167.742456" style="stroke: #000000"/>
     <use xlink:href="#m1d183c299d" x="157.014335" y="167.505822" style="stroke: #000000"/>
     <use xlink:href="#m1d183c299d" x="157.504548" y="165.699565" style="stroke: #000000"/>
     <use xlink:href="#m1d183c299d" x="157.994761" y="164.43642" style="stroke: #000000"/>
     <use xlink:href="#m1d183c299d" x="158.484973" y="163.633084" style="stroke: #000000"/>
     <use xlink:href="#m1d183c299d" x="158.975186" y="162.858191" style="stroke: #000000"/>
     <use xlink:href="#m1d183c299d" x="159.465399" y="159.840436" style="stroke: #000000"/>
     <use xlink:href="#m1d183c299d" x="159.955612" y="158.552509" style="stroke: #000000"/>
     <use xlink:href="#m1d183c299d" x="160.445824" y="156.324645" style="stroke: #000000"/>
     <use xlink:href="#m1d183c299d" x="160.936037" y="151.868181" style="stroke: #000000"/>
     <use xlink:href="#m1d183c299d" x="161.42625" y="141.365588" style="stroke: #000000"/>
    </g>
   </g>
   <g id="PathCollection_5">
    <g clip-path="url(#p1d6b2c6921)">
     <use xlink:href="#m1d183c299d" x="167.18625" y="203.451628" style="stroke: #000000"/>
     <use xlink:href="#m1d183c299d" x="178.70625" y="179.813858" style="stroke: #000000"/>
     <use xlink:href="#m1d183c299d" x="190.22625" y="116.686222" style="stroke: #000000"/>
    </g>
   </g>
   <g id="PathCollection_6">
    <g clip-path="url(#p1d6b2c6921)">
     <use xlink:href="#m1d183c299d" x="195.98625" y="189.530825" style="stroke: #000000"/>
     <use xlink:href="#m1d183c299d" x="207.50625" y="147.591318" style="stroke: #000000"/>
     <use xlink:href="#m1d183c299d" x="219.02625" y="116.251868" style="stroke: #000000"/>
    </g>
   </g>
   <g id="matplotlib.axis_1">
    <g id="xtick_1">
     <g id="line2d_1"/>
     <g id="text_1">
      <!-- 19 -->
      <g transform="translate(57.945313 254.090625) scale(0.1 -0.1)">
       <defs>
        <path id="ArialMT-31" d="M 2384 0 
L 1822 0 
L 1822 3584 
Q 1619 3391 1289 3197 
Q 959 3003 697 2906 
L 697 3450 
Q 1169 3672 1522 3987 
Q 1875 4303 2022 4600 
L 2384 4600 
L 2384 0 
z
" transform="scale(0.015625)"/>
        <path id="ArialMT-39" d="M 350 1059 
L 891 1109 
Q 959 728 1153 556 
Q 1347 384 1650 384 
Q 1909 384 2104 503 
Q 2300 622 2425 820 
Q 2550 1019 2634 1356 
Q 2719 1694 2719 2044 
Q 2719 2081 2716 2156 
Q 2547 1888 2255 1720 
Q 1963 1553 1622 1553 
Q 1053 1553 659 1965 
Q 266 2378 266 3053 
Q 266 3750 677 4175 
Q 1088 4600 1706 4600 
Q 2153 4600 2523 4359 
Q 2894 4119 3086 3673 
Q 3278 3228 3278 2384 
Q 3278 1506 3087 986 
Q 2897 466 2520 194 
Q 2144 -78 1638 -78 
Q 1100 -78 759 220 
Q 419 519 350 1059 
z
M 2653 3081 
Q 2653 3566 2395 3850 
Q 2138 4134 1775 4134 
Q 1400 4134 1122 3828 
Q 844 3522 844 3034 
Q 844 2597 1108 2323 
Q 1372 2050 1759 2050 
Q 2150 2050 2401 2323 
Q 2653 2597 2653 3081 
z
" transform="scale(0.015625)"/>
       </defs>
       <use xlink:href="#ArialMT-31"/>
       <use xlink:href="#ArialMT-39" x="55.615234"/>
      </g>
      <!-- 448 -->
      <g transform="translate(55.164844 264.6675) scale(0.1 -0.1)">
       <defs>
        <path id="ArialMT-34" d="M 2069 0 
L 2069 1097 
L 81 1097 
L 81 1613 
L 2172 4581 
L 2631 4581 
L 2631 1613 
L 3250 1613 
L 3250 1097 
L 2631 1097 
L 2631 0 
L 2069 0 
z
M 2069 1613 
L 2069 3678 
L 634 1613 
L 2069 1613 
z
" transform="scale(0.015625)"/>
        <path id="ArialMT-38" d="M 1131 2484 
Q 781 2613 612 2850 
Q 444 3088 444 3419 
Q 444 3919 803 4259 
Q 1163 4600 1759 4600 
Q 2359 4600 2725 4251 
Q 3091 3903 3091 3403 
Q 3091 3084 2923 2848 
Q 2756 2613 2416 2484 
Q 2838 2347 3058 2040 
Q 3278 1734 3278 1309 
Q 3278 722 2862 322 
Q 2447 -78 1769 -78 
Q 1091 -78 675 323 
Q 259 725 259 1325 
Q 259 1772 486 2073 
Q 713 2375 1131 2484 
z
M 1019 3438 
Q 1019 3113 1228 2906 
Q 1438 2700 1772 2700 
Q 2097 2700 2305 2904 
Q 2513 3109 2513 3406 
Q 2513 3716 2298 3927 
Q 2084 4138 1766 4138 
Q 1444 4138 1231 3931 
Q 1019 3725 1019 3438 
z
M 838 1322 
Q 838 1081 952 856 
Q 1066 631 1291 507 
Q 1516 384 1775 384 
Q 2178 384 2440 643 
Q 2703 903 2703 1303 
Q 2703 1709 2433 1975 
Q 2163 2241 1756 2241 
Q 1359 2241 1098 1978 
Q 838 1716 838 1322 
z
" transform="scale(0.015625)"/>
       </defs>
       <use xlink:href="#ArialMT-34"/>
       <use xlink:href="#ArialMT-34" x="55.615234"/>
       <use xlink:href="#ArialMT-38" x="111.230469"/>
      </g>
     </g>
    </g>
    <g id="xtick_2">
     <g id="line2d_2"/>
     <g id="text_2">
      <!-- 201 -->
      <g transform="translate(83.964844 254.090625) scale(0.1 -0.1)">
       <defs>
        <path id="ArialMT-32" d="M 3222 541 
L 3222 0 
L 194 0 
Q 188 203 259 391 
Q 375 700 629 1000 
Q 884 1300 1366 1694 
Q 2113 2306 2375 2664 
Q 2638 3022 2638 3341 
Q 2638 3675 2398 3904 
Q 2159 4134 1775 4134 
Q 1369 4134 1125 3890 
Q 881 3647 878 3216 
L 300 3275 
Q 359 3922 746 4261 
Q 1134 4600 1788 4600 
Q 2447 4600 2831 4234 
Q 3216 3869 3216 3328 
Q 3216 3053 3103 2787 
Q 2991 2522 2730 2228 
Q 2469 1934 1863 1422 
Q 1356 997 1212 845 
Q 1069 694 975 541 
L 3222 541 
z
" transform="scale(0.015625)"/>
        <path id="ArialMT-30" d="M 266 2259 
Q 266 3072 433 3567 
Q 600 4063 929 4331 
Q 1259 4600 1759 4600 
Q 2128 4600 2406 4451 
Q 2684 4303 2865 4023 
Q 3047 3744 3150 3342 
Q 3253 2941 3253 2259 
Q 3253 1453 3087 958 
Q 2922 463 2592 192 
Q 2263 -78 1759 -78 
Q 1097 -78 719 397 
Q 266 969 266 2259 
z
M 844 2259 
Q 844 1131 1108 757 
Q 1372 384 1759 384 
Q 2147 384 2411 759 
Q 2675 1134 2675 2259 
Q 2675 3391 2411 3762 
Q 2147 4134 1753 4134 
Q 1366 4134 1134 3806 
Q 844 3388 844 2259 
z
" transform="scale(0.015625)"/>
       </defs>
       <use xlink:href="#ArialMT-32"/>
       <use xlink:href="#ArialMT-30" x="55.615234"/>
       <use xlink:href="#ArialMT-31" x="111.230469"/>
      </g>
      <!-- 448 -->
      <g transform="translate(83.964844 264.6675) scale(0.1 -0.1)">
       <use xlink:href="#ArialMT-34"/>
       <use xlink:href="#ArialMT-34" x="55.615234"/>
       <use xlink:href="#ArialMT-38" x="111.230469"/>
      </g>
     </g>
    </g>
    <g id="xtick_3">
     <g id="line2d_3"/>
     <g id="text_3">
      <!-- 55 -->
      <g transform="translate(115.545313 254.090625) scale(0.1 -0.1)">
       <defs>
        <path id="ArialMT-35" d="M 266 1200 
L 856 1250 
Q 922 819 1161 601 
Q 1400 384 1738 384 
Q 2144 384 2425 690 
Q 2706 997 2706 1503 
Q 2706 1984 2436 2262 
Q 2166 2541 1728 2541 
Q 1456 2541 1237 2417 
Q 1019 2294 894 2097 
L 366 2166 
L 809 4519 
L 3088 4519 
L 3088 3981 
L 1259 3981 
L 1013 2750 
Q 1425 3038 1878 3038 
Q 2478 3038 2890 2622 
Q 3303 2206 3303 1553 
Q 3303 931 2941 478 
Q 2500 -78 1738 -78 
Q 1113 -78 717 272 
Q 322 622 266 1200 
z
" transform="scale(0.015625)"/>
       </defs>
       <use xlink:href="#ArialMT-35"/>
       <use xlink:href="#ArialMT-35" x="55.615234"/>
      </g>
      <!-- 448 -->
      <g transform="translate(112.764844 264.6675) scale(0.1 -0.1)">
       <use xlink:href="#ArialMT-34"/>
       <use xlink:href="#ArialMT-34" x="55.615234"/>
       <use xlink:href="#ArialMT-38" x="111.230469"/>
      </g>
     </g>
    </g>
    <g id="xtick_4">
     <g id="line2d_4"/>
     <g id="text_4">
      <!-- 48 -->
      <g transform="translate(144.345313 254.090625) scale(0.1 -0.1)">
       <use xlink:href="#ArialMT-34"/>
       <use xlink:href="#ArialMT-38" x="55.615234"/>
      </g>
      <!-- 448 -->
      <g transform="translate(141.564844 264.6675) scale(0.1 -0.1)">
       <use xlink:href="#ArialMT-34"/>
       <use xlink:href="#ArialMT-34" x="55.615234"/>
       <use xlink:href="#ArialMT-38" x="111.230469"/>
      </g>
     </g>
    </g>
    <g id="xtick_5">
     <g id="line2d_5"/>
     <g id="text_5">
      <!-- 3 -->
      <g transform="translate(175.925781 254.090625) scale(0.1 -0.1)">
       <defs>
        <path id="ArialMT-33" d="M 269 1209 
L 831 1284 
Q 928 806 1161 595 
Q 1394 384 1728 384 
Q 2125 384 2398 659 
Q 2672 934 2672 1341 
Q 2672 1728 2419 1979 
Q 2166 2231 1775 2231 
Q 1616 2231 1378 2169 
L 1441 2663 
Q 1497 2656 1531 2656 
Q 1891 2656 2178 2843 
Q 2466 3031 2466 3422 
Q 2466 3731 2256 3934 
Q 2047 4138 1716 4138 
Q 1388 4138 1169 3931 
Q 950 3725 888 3313 
L 325 3413 
Q 428 3978 793 4289 
Q 1159 4600 1703 4600 
Q 2078 4600 2393 4439 
Q 2709 4278 2876 4000 
Q 3044 3722 3044 3409 
Q 3044 3113 2884 2869 
Q 2725 2625 2413 2481 
Q 2819 2388 3044 2092 
Q 3269 1797 3269 1353 
Q 3269 753 2831 336 
Q 2394 -81 1725 -81 
Q 1122 -81 723 278 
Q 325 638 269 1209 
z
" transform="scale(0.015625)"/>
       </defs>
       <use xlink:href="#ArialMT-33"/>
      </g>
      <!-- 448 -->
      <g transform="translate(170.364844 264.6675) scale(0.1 -0.1)">
       <use xlink:href="#ArialMT-34"/>
       <use xlink:href="#ArialMT-34" x="55.615234"/>
       <use xlink:href="#ArialMT-38" x="111.230469"/>
      </g>
     </g>
    </g>
    <g id="xtick_6">
     <g id="line2d_6"/>
     <g id="text_6">
      <!-- 3 -->
      <g transform="translate(204.725781 254.090625) scale(0.1 -0.1)">
       <use xlink:href="#ArialMT-33"/>
      </g>
      <!-- 448 -->
      <g transform="translate(199.164844 264.6675) scale(0.1 -0.1)">
       <use xlink:href="#ArialMT-34"/>
       <use xlink:href="#ArialMT-34" x="55.615234"/>
       <use xlink:href="#ArialMT-38" x="111.230469"/>
      </g>
     </g>
    </g>
   </g>
   <g id="matplotlib.axis_2">
    <g id="ytick_1">
     <g id="line2d_7"/>
     <g id="text_7">
      <!-- 0.001 -->
      <g transform="translate(20.584375 247.011719) scale(0.1 -0.1)">
       <defs>
        <path id="ArialMT-2e" d="M 581 0 
L 581 641 
L 1222 641 
L 1222 0 
L 581 0 
z
" transform="scale(0.015625)"/>
       </defs>
       <use xlink:href="#ArialMT-30"/>
       <use xlink:href="#ArialMT-2e" x="55.615234"/>
       <use xlink:href="#ArialMT-30" x="83.398438"/>
       <use xlink:href="#ArialMT-30" x="139.013672"/>
       <use xlink:href="#ArialMT-31" x="194.628906"/>
      </g>
     </g>
    </g>
    <g id="ytick_2">
     <g id="line2d_8"/>
     <g id="text_8">
      <!-- 0.01 -->
      <g transform="translate(26.145313 196.611719) scale(0.1 -0.1)">
       <use xlink:href="#ArialMT-30"/>
       <use xlink:href="#ArialMT-2e" x="55.615234"/>
       <use xlink:href="#ArialMT-30" x="83.398438"/>
       <use xlink:href="#ArialMT-31" x="139.013672"/>
      </g>
     </g>
    </g>
    <g id="ytick_3">
     <g id="line2d_9"/>
     <g id="text_9">
      <!-- 0.1 -->
      <g transform="translate(31.70625 146.211719) scale(0.1 -0.1)">
       <use xlink:href="#ArialMT-30"/>
       <use xlink:href="#ArialMT-2e" x="55.615234"/>
       <use xlink:href="#ArialMT-31" x="83.398438"/>
      </g>
     </g>
    </g>
    <g id="ytick_4">
     <g id="line2d_10"/>
     <g id="text_10">
      <!-- 1 -->
      <g transform="translate(40.045313 95.811719) scale(0.1 -0.1)">
       <use xlink:href="#ArialMT-31"/>
      </g>
     </g>
    </g>
    <g id="ytick_5">
     <g id="line2d_11"/>
     <g id="text_11">
      <!-- 10 -->
      <g transform="translate(34.484375 45.411719) scale(0.1 -0.1)">
       <use xlink:href="#ArialMT-31"/>
       <use xlink:href="#ArialMT-30" x="55.615234"/>
      </g>
     </g>
    </g>
    <g id="text_12">
     <!-- Somatic Mutations per Megabase -->
     <g transform="translate(14.479687 217.110156) rotate(-90) scale(0.1 -0.1)">
      <defs>
       <path id="ArialMT-53" d="M 288 1472 
L 859 1522 
Q 900 1178 1048 958 
Q 1197 738 1509 602 
Q 1822 466 2213 466 
Q 2559 466 2825 569 
Q 3091 672 3220 851 
Q 3350 1031 3350 1244 
Q 3350 1459 3225 1620 
Q 3100 1781 2813 1891 
Q 2628 1963 1997 2114 
Q 1366 2266 1113 2400 
Q 784 2572 623 2826 
Q 463 3081 463 3397 
Q 463 3744 659 4045 
Q 856 4347 1234 4503 
Q 1613 4659 2075 4659 
Q 2584 4659 2973 4495 
Q 3363 4331 3572 4012 
Q 3781 3694 3797 3291 
L 3216 3247 
Q 3169 3681 2898 3903 
Q 2628 4125 2100 4125 
Q 1550 4125 1298 3923 
Q 1047 3722 1047 3438 
Q 1047 3191 1225 3031 
Q 1400 2872 2139 2705 
Q 2878 2538 3153 2413 
Q 3553 2228 3743 1945 
Q 3934 1663 3934 1294 
Q 3934 928 3725 604 
Q 3516 281 3123 101 
Q 2731 -78 2241 -78 
Q 1619 -78 1198 103 
Q 778 284 539 648 
Q 300 1013 288 1472 
z
" transform="scale(0.015625)"/>
       <path id="ArialMT-6f" d="M 213 1659 
Q 213 2581 725 3025 
Q 1153 3394 1769 3394 
Q 2453 3394 2887 2945 
Q 3322 2497 3322 1706 
Q 3322 1066 3130 698 
Q 2938 331 2570 128 
Q 2203 -75 1769 -75 
Q 1072 -75 642 372 
Q 213 819 213 1659 
z
M 791 1659 
Q 791 1022 1069 705 
Q 1347 388 1769 388 
Q 2188 388 2466 706 
Q 2744 1025 2744 1678 
Q 2744 2294 2464 2611 
Q 2184 2928 1769 2928 
Q 1347 2928 1069 2612 
Q 791 2297 791 1659 
z
" transform="scale(0.015625)"/>
       <path id="ArialMT-6d" d="M 422 0 
L 422 3319 
L 925 3319 
L 925 2853 
Q 1081 3097 1340 3245 
Q 1600 3394 1931 3394 
Q 2300 3394 2536 3241 
Q 2772 3088 2869 2813 
Q 3263 3394 3894 3394 
Q 4388 3394 4653 3120 
Q 4919 2847 4919 2278 
L 4919 0 
L 4359 0 
L 4359 2091 
Q 4359 2428 4304 2576 
Q 4250 2725 4106 2815 
Q 3963 2906 3769 2906 
Q 3419 2906 3187 2673 
Q 2956 2441 2956 1928 
L 2956 0 
L 2394 0 
L 2394 2156 
Q 2394 2531 2256 2718 
Q 2119 2906 1806 2906 
Q 1569 2906 1367 2781 
Q 1166 2656 1075 2415 
Q 984 2175 984 1722 
L 984 0 
L 422 0 
z
" transform="scale(0.015625)"/>
       <path id="ArialMT-61" d="M 2588 409 
Q 2275 144 1986 34 
Q 1697 -75 1366 -75 
Q 819 -75 525 192 
Q 231 459 231 875 
Q 231 1119 342 1320 
Q 453 1522 633 1644 
Q 813 1766 1038 1828 
Q 1203 1872 1538 1913 
Q 2219 1994 2541 2106 
Q 2544 2222 2544 2253 
Q 2544 2597 2384 2738 
Q 2169 2928 1744 2928 
Q 1347 2928 1158 2789 
Q 969 2650 878 2297 
L 328 2372 
Q 403 2725 575 2942 
Q 747 3159 1072 3276 
Q 1397 3394 1825 3394 
Q 2250 3394 2515 3294 
Q 2781 3194 2906 3042 
Q 3031 2891 3081 2659 
Q 3109 2516 3109 2141 
L 3109 1391 
Q 3109 606 3145 398 
Q 3181 191 3288 0 
L 2700 0 
Q 2613 175 2588 409 
z
M 2541 1666 
Q 2234 1541 1622 1453 
Q 1275 1403 1131 1340 
Q 988 1278 909 1158 
Q 831 1038 831 891 
Q 831 666 1001 516 
Q 1172 366 1500 366 
Q 1825 366 2078 508 
Q 2331 650 2450 897 
Q 2541 1088 2541 1459 
L 2541 1666 
z
" transform="scale(0.015625)"/>
       <path id="ArialMT-74" d="M 1650 503 
L 1731 6 
Q 1494 -44 1306 -44 
Q 1000 -44 831 53 
Q 663 150 594 308 
Q 525 466 525 972 
L 525 2881 
L 113 2881 
L 113 3319 
L 525 3319 
L 525 4141 
L 1084 4478 
L 1084 3319 
L 1650 3319 
L 1650 2881 
L 1084 2881 
L 1084 941 
Q 1084 700 1114 631 
Q 1144 563 1211 522 
Q 1278 481 1403 481 
Q 1497 481 1650 503 
z
" transform="scale(0.015625)"/>
       <path id="ArialMT-69" d="M 425 3934 
L 425 4581 
L 988 4581 
L 988 3934 
L 425 3934 
z
M 425 0 
L 425 3319 
L 988 3319 
L 988 0 
L 425 0 
z
" transform="scale(0.015625)"/>
       <path id="ArialMT-63" d="M 2588 1216 
L 3141 1144 
Q 3050 572 2676 248 
Q 2303 -75 1759 -75 
Q 1078 -75 664 370 
Q 250 816 250 1647 
Q 250 2184 428 2587 
Q 606 2991 970 3192 
Q 1334 3394 1763 3394 
Q 2303 3394 2647 3120 
Q 2991 2847 3088 2344 
L 2541 2259 
Q 2463 2594 2264 2762 
Q 2066 2931 1784 2931 
Q 1359 2931 1093 2626 
Q 828 2322 828 1663 
Q 828 994 1084 691 
Q 1341 388 1753 388 
Q 2084 388 2306 591 
Q 2528 794 2588 1216 
z
" transform="scale(0.015625)"/>
       <path id="ArialMT-20" transform="scale(0.015625)"/>
       <path id="ArialMT-4d" d="M 475 0 
L 475 4581 
L 1388 4581 
L 2472 1338 
Q 2622 884 2691 659 
Q 2769 909 2934 1394 
L 4031 4581 
L 4847 4581 
L 4847 0 
L 4263 0 
L 4263 3834 
L 2931 0 
L 2384 0 
L 1059 3900 
L 1059 0 
L 475 0 
z
" transform="scale(0.015625)"/>
       <path id="ArialMT-75" d="M 2597 0 
L 2597 488 
Q 2209 -75 1544 -75 
Q 1250 -75 995 37 
Q 741 150 617 320 
Q 494 491 444 738 
Q 409 903 409 1263 
L 409 3319 
L 972 3319 
L 972 1478 
Q 972 1038 1006 884 
Q 1059 663 1231 536 
Q 1403 409 1656 409 
Q 1909 409 2131 539 
Q 2353 669 2445 892 
Q 2538 1116 2538 1541 
L 2538 3319 
L 3100 3319 
L 3100 0 
L 2597 0 
z
" transform="scale(0.015625)"/>
       <path id="ArialMT-6e" d="M 422 0 
L 422 3319 
L 928 3319 
L 928 2847 
Q 1294 3394 1984 3394 
Q 2284 3394 2536 3286 
Q 2788 3178 2913 3003 
Q 3038 2828 3088 2588 
Q 3119 2431 3119 2041 
L 3119 0 
L 2556 0 
L 2556 2019 
Q 2556 2363 2490 2533 
Q 2425 2703 2258 2804 
Q 2091 2906 1866 2906 
Q 1506 2906 1245 2678 
Q 984 2450 984 1813 
L 984 0 
L 422 0 
z
" transform="scale(0.015625)"/>
       <path id="ArialMT-73" d="M 197 991 
L 753 1078 
Q 800 744 1014 566 
Q 1228 388 1613 388 
Q 2000 388 2187 545 
Q 2375 703 2375 916 
Q 2375 1106 2209 1216 
Q 2094 1291 1634 1406 
Q 1016 1563 777 1677 
Q 538 1791 414 1992 
Q 291 2194 291 2438 
Q 291 2659 392 2848 
Q 494 3038 669 3163 
Q 800 3259 1026 3326 
Q 1253 3394 1513 3394 
Q 1903 3394 2198 3281 
Q 2494 3169 2634 2976 
Q 2775 2784 2828 2463 
L 2278 2388 
Q 2241 2644 2061 2787 
Q 1881 2931 1553 2931 
Q 1166 2931 1000 2803 
Q 834 2675 834 2503 
Q 834 2394 903 2306 
Q 972 2216 1119 2156 
Q 1203 2125 1616 2013 
Q 2213 1853 2448 1751 
Q 2684 1650 2818 1456 
Q 2953 1263 2953 975 
Q 2953 694 2789 445 
Q 2625 197 2315 61 
Q 2006 -75 1616 -75 
Q 969 -75 630 194 
Q 291 463 197 991 
z
" transform="scale(0.015625)"/>
       <path id="ArialMT-70" d="M 422 -1272 
L 422 3319 
L 934 3319 
L 934 2888 
Q 1116 3141 1344 3267 
Q 1572 3394 1897 3394 
Q 2322 3394 2647 3175 
Q 2972 2956 3137 2557 
Q 3303 2159 3303 1684 
Q 3303 1175 3120 767 
Q 2938 359 2589 142 
Q 2241 -75 1856 -75 
Q 1575 -75 1351 44 
Q 1128 163 984 344 
L 984 -1272 
L 422 -1272 
z
M 931 1641 
Q 931 1000 1190 694 
Q 1450 388 1819 388 
Q 2194 388 2461 705 
Q 2728 1022 2728 1688 
Q 2728 2322 2467 2637 
Q 2206 2953 1844 2953 
Q 1484 2953 1207 2617 
Q 931 2281 931 1641 
z
" transform="scale(0.015625)"/>
       <path id="ArialMT-65" d="M 2694 1069 
L 3275 997 
Q 3138 488 2766 206 
Q 2394 -75 1816 -75 
Q 1088 -75 661 373 
Q 234 822 234 1631 
Q 234 2469 665 2931 
Q 1097 3394 1784 3394 
Q 2450 3394 2872 2941 
Q 3294 2488 3294 1666 
Q 3294 1616 3291 1516 
L 816 1516 
Q 847 969 1125 678 
Q 1403 388 1819 388 
Q 2128 388 2347 550 
Q 2566 713 2694 1069 
z
M 847 1978 
L 2700 1978 
Q 2663 2397 2488 2606 
Q 2219 2931 1791 2931 
Q 1403 2931 1139 2672 
Q 875 2413 847 1978 
z
" transform="scale(0.015625)"/>
       <path id="ArialMT-72" d="M 416 0 
L 416 3319 
L 922 3319 
L 922 2816 
Q 1116 3169 1280 3281 
Q 1444 3394 1641 3394 
Q 1925 3394 2219 3213 
L 2025 2691 
Q 1819 2813 1613 2813 
Q 1428 2813 1281 2702 
Q 1134 2591 1072 2394 
Q 978 2094 978 1738 
L 978 0 
L 416 0 
z
" transform="scale(0.015625)"/>
       <path id="ArialMT-67" d="M 319 -275 
L 866 -356 
Q 900 -609 1056 -725 
Q 1266 -881 1628 -881 
Q 2019 -881 2231 -725 
Q 2444 -569 2519 -288 
Q 2563 -116 2559 434 
Q 2191 0 1641 0 
Q 956 0 581 494 
Q 206 988 206 1678 
Q 206 2153 378 2554 
Q 550 2956 876 3175 
Q 1203 3394 1644 3394 
Q 2231 3394 2613 2919 
L 2613 3319 
L 3131 3319 
L 3131 450 
Q 3131 -325 2973 -648 
Q 2816 -972 2473 -1159 
Q 2131 -1347 1631 -1347 
Q 1038 -1347 672 -1080 
Q 306 -813 319 -275 
z
M 784 1719 
Q 784 1066 1043 766 
Q 1303 466 1694 466 
Q 2081 466 2343 764 
Q 2606 1063 2606 1700 
Q 2606 2309 2336 2618 
Q 2066 2928 1684 2928 
Q 1309 2928 1046 2623 
Q 784 2319 784 1719 
z
" transform="scale(0.015625)"/>
       <path id="ArialMT-62" d="M 941 0 
L 419 0 
L 419 4581 
L 981 4581 
L 981 2947 
Q 1338 3394 1891 3394 
Q 2197 3394 2470 3270 
Q 2744 3147 2920 2923 
Q 3097 2700 3197 2384 
Q 3297 2069 3297 1709 
Q 3297 856 2875 390 
Q 2453 -75 1863 -75 
Q 1275 -75 941 416 
L 941 0 
z
M 934 1684 
Q 934 1088 1097 822 
Q 1363 388 1816 388 
Q 2184 388 2453 708 
Q 2722 1028 2722 1663 
Q 2722 2313 2464 2622 
Q 2206 2931 1841 2931 
Q 1472 2931 1203 2611 
Q 934 2291 934 1684 
z
" transform="scale(0.015625)"/>
      </defs>
      <use xlink:href="#ArialMT-53"/>
      <use xlink:href="#ArialMT-6f" x="66.699219"/>
      <use xlink:href="#ArialMT-6d" x="122.314453"/>
      <use xlink:href="#ArialMT-61" x="205.615234"/>
      <use xlink:href="#ArialMT-74" x="261.230469"/>
      <use xlink:href="#ArialMT-69" x="289.013672"/>
      <use xlink:href="#ArialMT-63" x="311.230469"/>
      <use xlink:href="#ArialMT-20" x="361.230469"/>
      <use xlink:href="#ArialMT-4d" x="389.013672"/>
      <use xlink:href="#ArialMT-75" x="472.314453"/>
      <use xlink:href="#ArialMT-74" x="527.929688"/>
      <use xlink:href="#ArialMT-61" x="555.712891"/>
      <use xlink:href="#ArialMT-74" x="611.328125"/>
      <use xlink:href="#ArialMT-69" x="639.111328"/>
      <use xlink:href="#ArialMT-6f" x="661.328125"/>
      <use xlink:href="#ArialMT-6e" x="716.943359"/>
      <use xlink:href="#ArialMT-73" x="772.558594"/>
      <use xlink:href="#ArialMT-20" x="822.558594"/>
      <use xlink:href="#ArialMT-70" x="850.341797"/>
      <use xlink:href="#ArialMT-65" x="905.957031"/>
      <use xlink:href="#ArialMT-72" x="961.572266"/>
      <use xlink:href="#ArialMT-20" x="994.873047"/>
      <use xlink:href="#ArialMT-4d" x="1022.65625"/>
      <use xlink:href="#ArialMT-65" x="1105.957031"/>
      <use xlink:href="#ArialMT-67" x="1161.572266"/>
      <use xlink:href="#ArialMT-61" x="1217.1875"/>
      <use xlink:href="#ArialMT-62" x="1272.802734"/>
      <use xlink:href="#ArialMT-61" x="1328.417969"/>
      <use xlink:href="#ArialMT-73" x="1384.033203"/>
      <use xlink:href="#ArialMT-65" x="1434.033203"/>
     </g>
    </g>
   </g>
   <g id="LineCollection_2">
    <path d="M 51.98625 190.857803 
L 75.02625 190.857803 
" clip-path="url(#p1d6b2c6921)" style="fill: none; stroke: #ff0000; stroke-width: 1.5"/>
   </g>
   <g id="LineCollection_3">
    <path d="M 80.78625 189.530825 
L 103.82625 189.530825 
" clip-path="url(#p1d6b2c6921)" style="fill: none; stroke: #ff0000; stroke-width: 1.5"/>
   </g>
   <g id="LineCollection_4">
    <path d="M 109.58625 188.279716 
L 132.62625 188.279716 
" clip-path="url(#p1d6b2c6921)" style="fill: none; stroke: #ff0000; stroke-width: 1.5"/>
   </g>
   <g id="LineCollection_5">
    <path d="M 138.38625 183.893002 
L 161.42625 183.893002 
" clip-path="url(#p1d6b2c6921)" style="fill: none; stroke: #ff0000; stroke-width: 1.5"/>
   </g>
   <g id="LineCollection_6">
    <path d="M 167.18625 179.813858 
L 190.22625 179.813858 
" clip-path="url(#p1d6b2c6921)" style="fill: none; stroke: #ff0000; stroke-width: 1.5"/>
   </g>
   <g id="LineCollection_7">
    <path d="M 195.98625 147.591318 
L 219.02625 147.591318 
" clip-path="url(#p1d6b2c6921)" style="fill: none; stroke: #ff0000; stroke-width: 1.5"/>
   </g>
   <g id="patch_7">
    <path d="M 49.10625 243.432812 
L 49.10625 41.832812 
" style="fill: none; stroke: #000000; stroke-width: 0.8; stroke-linejoin: miter; stroke-linecap: square"/>
   </g>
   <g id="patch_8">
    <path d="M 221.90625 243.432812 
L 221.90625 41.832812 
" style="fill: none; stroke: #000000; stroke-width: 0.8; stroke-linejoin: miter; stroke-linecap: square"/>
   </g>
   <g id="patch_9">
    <path d="M 49.10625 243.432812 
L 221.90625 243.432812 
" style="fill: none; stroke: #000000; stroke-width: 0.8; stroke-linejoin: miter; stroke-linecap: square"/>
   </g>
   <g id="patch_10">
    <path d="M 49.10625 41.832812 
L 221.90625 41.832812 
" style="fill: none; stroke: #000000; stroke-width: 0.8; stroke-linejoin: miter; stroke-linecap: square"/>
   </g>
   <g id="text_13">
    <!-- ___ -->
    <g transform="translate(55.164844 254.232812) scale(0.1 -0.1)">
     <defs>
      <path id="ArialMT-5f" d="M -97 -1272 
L -97 -866 
L 3631 -866 
L 3631 -1272 
L -97 -1272 
z
" transform="scale(0.015625)"/>
     </defs>
     <use xlink:href="#ArialMT-5f"/>
     <use xlink:href="#ArialMT-5f" x="55.615234"/>
     <use xlink:href="#ArialMT-5f" x="111.230469"/>
    </g>
   </g>
   <g id="text_14">
    <!-- ___ -->
    <g transform="translate(83.964844 254.232812) scale(0.1 -0.1)">
     <use xlink:href="#ArialMT-5f"/>
     <use xlink:href="#ArialMT-5f" x="55.615234"/>
     <use xlink:href="#ArialMT-5f" x="111.230469"/>
    </g>
   </g>
   <g id="text_15">
    <!-- ___ -->
    <g transform="translate(112.764844 254.232812) scale(0.1 -0.1)">
     <use xlink:href="#ArialMT-5f"/>
     <use xlink:href="#ArialMT-5f" x="55.615234"/>
     <use xlink:href="#ArialMT-5f" x="111.230469"/>
    </g>
   </g>
   <g id="text_16">
    <!-- ___ -->
    <g transform="translate(141.564844 254.232812) scale(0.1 -0.1)">
     <use xlink:href="#ArialMT-5f"/>
     <use xlink:href="#ArialMT-5f" x="55.615234"/>
     <use xlink:href="#ArialMT-5f" x="111.230469"/>
    </g>
   </g>
   <g id="text_17">
    <!-- ___ -->
    <g transform="translate(170.364844 254.232812) scale(0.1 -0.1)">
     <use xlink:href="#ArialMT-5f"/>
     <use xlink:href="#ArialMT-5f" x="55.615234"/>
     <use xlink:href="#ArialMT-5f" x="111.230469"/>
    </g>
   </g>
   <g id="text_18">
    <!-- ___ -->
    <g transform="translate(199.164844 254.232812) scale(0.1 -0.1)">
     <use xlink:href="#ArialMT-5f"/>
     <use xlink:href="#ArialMT-5f" x="55.615234"/>
     <use xlink:href="#ArialMT-5f" x="111.230469"/>
    </g>
   </g>
  </g>
  <g id="axes_2">
   <g id="matplotlib.axis_3">
    <g id="xtick_7">
     <g id="line2d_12"/>
     <g id="text_19">
      <!-- SBS7b -->
      <g transform="translate(57.657528 7.2) rotate(-270) scale(0.1 -0.1)">
       <defs>
        <path id="ArialMT-42" d="M 469 0 
L 469 4581 
L 2188 4581 
Q 2713 4581 3030 4442 
Q 3347 4303 3526 4014 
Q 3706 3725 3706 3409 
Q 3706 3116 3547 2856 
Q 3388 2597 3066 2438 
Q 3481 2316 3704 2022 
Q 3928 1728 3928 1328 
Q 3928 1006 3792 729 
Q 3656 453 3456 303 
Q 3256 153 2954 76 
Q 2653 0 2216 0 
L 469 0 
z
M 1075 2656 
L 2066 2656 
Q 2469 2656 2644 2709 
Q 2875 2778 2992 2937 
Q 3109 3097 3109 3338 
Q 3109 3566 3000 3739 
Q 2891 3913 2687 3977 
Q 2484 4041 1991 4041 
L 1075 4041 
L 1075 2656 
z
M 1075 541 
L 2216 541 
Q 2509 541 2628 563 
Q 2838 600 2978 687 
Q 3119 775 3209 942 
Q 3300 1109 3300 1328 
Q 3300 1584 3169 1773 
Q 3038 1963 2805 2039 
Q 2572 2116 2134 2116 
L 1075 2116 
L 1075 541 
z
" transform="scale(0.015625)"/>
        <path id="ArialMT-37" d="M 303 3981 
L 303 4522 
L 3269 4522 
L 3269 4084 
Q 2831 3619 2401 2847 
Q 1972 2075 1738 1259 
Q 1569 684 1522 0 
L 944 0 
Q 953 541 1156 1306 
Q 1359 2072 1739 2783 
Q 2119 3494 2547 3981 
L 303 3981 
z
" transform="scale(0.015625)"/>
       </defs>
       <use xlink:href="#ArialMT-53"/>
       <use xlink:href="#ArialMT-42" x="66.699219"/>
       <use xlink:href="#ArialMT-53" x="133.398438"/>
       <use xlink:href="#ArialMT-37" x="200.097656"/>
       <use xlink:href="#ArialMT-62" x="255.712891"/>
      </g>
     </g>
    </g>
    <g id="xtick_8">
     <g id="line2d_13"/>
     <g id="text_20">
      <!-- SBS5 -->
      <g transform="translate(89.07571 12.760937) rotate(-270) scale(0.1 -0.1)">
       <use xlink:href="#ArialMT-53"/>
       <use xlink:href="#ArialMT-42" x="66.699219"/>
       <use xlink:href="#ArialMT-53" x="133.398438"/>
       <use xlink:href="#ArialMT-35" x="200.097656"/>
      </g>
     </g>
    </g>
    <g id="xtick_9">
     <g id="line2d_14"/>
     <g id="text_21">
      <!-- SBS13 -->
      <g transform="translate(120.493892 7.2) rotate(-270) scale(0.1 -0.1)">
       <use xlink:href="#ArialMT-53"/>
       <use xlink:href="#ArialMT-42" x="66.699219"/>
       <use xlink:href="#ArialMT-53" x="133.398438"/>
       <use xlink:href="#ArialMT-31" x="200.097656"/>
       <use xlink:href="#ArialMT-33" x="255.712891"/>
      </g>
     </g>
    </g>
    <g id="xtick_10">
     <g id="line2d_15"/>
     <g id="text_22">
      <!-- SBS2 -->
      <g transform="translate(151.912074 12.760937) rotate(-270) scale(0.1 -0.1)">
       <use xlink:href="#ArialMT-53"/>
       <use xlink:href="#ArialMT-42" x="66.699219"/>
       <use xlink:href="#ArialMT-53" x="133.398438"/>
       <use xlink:href="#ArialMT-32" x="200.097656"/>
      </g>
     </g>
    </g>
    <g id="xtick_11">
     <g id="line2d_16"/>
     <g id="text_23">
      <!-- SBS46 -->
      <g transform="translate(183.330256 7.2) rotate(-270) scale(0.1 -0.1)">
       <defs>
        <path id="ArialMT-36" d="M 3184 3459 
L 2625 3416 
Q 2550 3747 2413 3897 
Q 2184 4138 1850 4138 
Q 1581 4138 1378 3988 
Q 1113 3794 959 3422 
Q 806 3050 800 2363 
Q 1003 2672 1297 2822 
Q 1591 2972 1913 2972 
Q 2475 2972 2870 2558 
Q 3266 2144 3266 1488 
Q 3266 1056 3080 686 
Q 2894 316 2569 119 
Q 2244 -78 1831 -78 
Q 1128 -78 684 439 
Q 241 956 241 2144 
Q 241 3472 731 4075 
Q 1159 4600 1884 4600 
Q 2425 4600 2770 4297 
Q 3116 3994 3184 3459 
z
M 888 1484 
Q 888 1194 1011 928 
Q 1134 663 1356 523 
Q 1578 384 1822 384 
Q 2178 384 2434 671 
Q 2691 959 2691 1453 
Q 2691 1928 2437 2201 
Q 2184 2475 1800 2475 
Q 1419 2475 1153 2201 
Q 888 1928 888 1484 
z
" transform="scale(0.015625)"/>
       </defs>
       <use xlink:href="#ArialMT-53"/>
       <use xlink:href="#ArialMT-42" x="66.699219"/>
       <use xlink:href="#ArialMT-53" x="133.398438"/>
       <use xlink:href="#ArialMT-34" x="200.097656"/>
       <use xlink:href="#ArialMT-36" x="255.712891"/>
      </g>
     </g>
    </g>
    <g id="xtick_12">
     <g id="line2d_17"/>
     <g id="text_24">
      <!-- SBS1 -->
      <g transform="translate(214.748438 12.760937) rotate(-270) scale(0.1 -0.1)">
       <use xlink:href="#ArialMT-53"/>
       <use xlink:href="#ArialMT-42" x="66.699219"/>
       <use xlink:href="#ArialMT-53" x="133.398438"/>
       <use xlink:href="#ArialMT-31" x="200.097656"/>
      </g>
     </g>
    </g>
   </g>
   <g id="patch_11">
    <path d="M 49.10625 243.432812 
L 49.10625 41.832812 
" style="fill: none; stroke: #000000; stroke-width: 0.8; stroke-linejoin: miter; stroke-linecap: square"/>
   </g>
   <g id="patch_12">
    <path d="M 221.90625 243.432812 
L 221.90625 41.832812 
" style="fill: none; stroke: #000000; stroke-width: 0.8; stroke-linejoin: miter; stroke-linecap: square"/>
   </g>
   <g id="patch_13">
    <path d="M 49.10625 243.432812 
L 221.90625 243.432812 
" style="fill: none; stroke: #000000; stroke-width: 0.8; stroke-linejoin: miter; stroke-linecap: square"/>
   </g>
   <g id="patch_14">
    <path d="M 49.10625 41.832812 
L 221.90625 41.832812 
" style="fill: none; stroke: #000000; stroke-width: 0.8; stroke-linejoin: miter; stroke-linecap: square"/>
   </g>
   <g id="legend_1">
    <g id="patch_15">
     <path d="M 253.511563 124.182562 
L 358.98625 124.182562 
Q 361.78625 124.182562 361.78625 121.382562 
L 361.78625 43.568812 
Q 361.78625 40.768812 358.98625 40.768812 
L 253.511563 40.768812 
Q 250.711563 40.768812 250.711563 43.568812 
L 250.711563 121.382562 
Q 250.711563 124.182562 253.511563 124.182562 
z
" style="fill: #ffffff; opacity: 0.8; stroke: #cccccc; stroke-linejoin: miter"/>
    </g>
    <g id="line2d_18">
     <path d="M 256.311563 51.48975 
L 270.311563 51.48975 
L 284.311563 51.48975 
" style="fill: none; stroke: #ffffff; stroke-width: 1.5; stroke-linecap: square"/>
     <defs>
      <path id="m2be07853b9" d="M 0 10 
C 2.652031 10 5.195799 8.946337 7.071068 7.071068 
C 8.946337 5.195799 10 2.652031 10 0 
C 10 -2.652031 8.946337 -5.195799 7.071068 -7.071068 
C 5.195799 -8.946337 2.652031 -10 0 -10 
C -2.652031 -10 -5.195799 -8.946337 -7.071068 -7.071068 
C -8.946337 -5.195799 -10 -2.652031 -10 0 
C -10 2.652031 -8.946337 5.195799 -7.071068 7.071068 
C -5.195799 8.946337 -2.652031 10 0 10 
z
" style="stroke: #ffffff"/>
     </defs>
     <g>
      <use xlink:href="#m2be07853b9" x="270.311563" y="51.48975" style="fill: #e6e6fa; stroke: #ffffff"/>
     </g>
    </g>
    <g id="text_25">
     <!-- Clock-like -->
     <g transform="translate(295.511563 56.38975) scale(0.14 -0.14)">
      <defs>
       <path id="ArialMT-43" d="M 3763 1606 
L 4369 1453 
Q 4178 706 3683 314 
Q 3188 -78 2472 -78 
Q 1731 -78 1267 223 
Q 803 525 561 1097 
Q 319 1669 319 2325 
Q 319 3041 592 3573 
Q 866 4106 1370 4382 
Q 1875 4659 2481 4659 
Q 3169 4659 3637 4309 
Q 4106 3959 4291 3325 
L 3694 3184 
Q 3534 3684 3231 3912 
Q 2928 4141 2469 4141 
Q 1941 4141 1586 3887 
Q 1231 3634 1087 3207 
Q 944 2781 944 2328 
Q 944 1744 1114 1308 
Q 1284 872 1643 656 
Q 2003 441 2422 441 
Q 2931 441 3284 734 
Q 3638 1028 3763 1606 
z
" transform="scale(0.015625)"/>
       <path id="ArialMT-6c" d="M 409 0 
L 409 4581 
L 972 4581 
L 972 0 
L 409 0 
z
" transform="scale(0.015625)"/>
       <path id="ArialMT-6b" d="M 425 0 
L 425 4581 
L 988 4581 
L 988 1969 
L 2319 3319 
L 3047 3319 
L 1778 2088 
L 3175 0 
L 2481 0 
L 1384 1697 
L 988 1316 
L 988 0 
L 425 0 
z
" transform="scale(0.015625)"/>
       <path id="ArialMT-2d" d="M 203 1375 
L 203 1941 
L 1931 1941 
L 1931 1375 
L 203 1375 
z
" transform="scale(0.015625)"/>
      </defs>
      <use xlink:href="#ArialMT-43"/>
      <use xlink:href="#ArialMT-6c" x="72.216797"/>
      <use xlink:href="#ArialMT-6f" x="94.433594"/>
      <use xlink:href="#ArialMT-63" x="150.048828"/>
      <use xlink:href="#ArialMT-6b" x="200.048828"/>
      <use xlink:href="#ArialMT-2d" x="250.048828"/>
      <use xlink:href="#ArialMT-6c" x="283.349609"/>
      <use xlink:href="#ArialMT-69" x="305.566406"/>
      <use xlink:href="#ArialMT-6b" x="327.783203"/>
      <use xlink:href="#ArialMT-65" x="377.783203"/>
     </g>
    </g>
    <g id="line2d_19">
     <path d="M 256.311563 71.293187 
L 270.311563 71.293187 
L 284.311563 71.293187 
" style="fill: none; stroke: #ffffff; stroke-width: 1.5; stroke-linecap: square"/>
     <defs>
      <path id="m94ac9bc0ba" d="M 0 10 
C 2.652031 10 5.195799 8.946337 7.071068 7.071068 
C 8.946337 5.195799 10 2.652031 10 0 
C 10 -2.652031 8.946337 -5.195799 7.071068 -7.071068 
C 5.195799 -8.946337 2.652031 -10 0 -10 
C -2.652031 -10 -5.195799 -8.946337 -7.071068 -7.071068 
C -8.946337 -5.195799 -10 -2.652031 -10 0 
C -10 2.652031 -8.946337 5.195799 -7.071068 7.071068 
C -5.195799 8.946337 -2.652031 10 0 10 
z
" style="stroke: #ffffff"/>
     </defs>
     <g>
      <use xlink:href="#m94ac9bc0ba" x="270.311563" y="71.293187" style="fill: #b0c4de; stroke: #ffffff"/>
     </g>
    </g>
    <g id="text_26">
     <!-- APOBEC -->
     <g transform="translate(295.511563 76.193187) scale(0.14 -0.14)">
      <defs>
       <path id="ArialMT-41" d="M -9 0 
L 1750 4581 
L 2403 4581 
L 4278 0 
L 3588 0 
L 3053 1388 
L 1138 1388 
L 634 0 
L -9 0 
z
M 1313 1881 
L 2866 1881 
L 2388 3150 
Q 2169 3728 2063 4100 
Q 1975 3659 1816 3225 
L 1313 1881 
z
" transform="scale(0.015625)"/>
       <path id="ArialMT-50" d="M 494 0 
L 494 4581 
L 2222 4581 
Q 2678 4581 2919 4538 
Q 3256 4481 3484 4323 
Q 3713 4166 3852 3881 
Q 3991 3597 3991 3256 
Q 3991 2672 3619 2267 
Q 3247 1863 2275 1863 
L 1100 1863 
L 1100 0 
L 494 0 
z
M 1100 2403 
L 2284 2403 
Q 2872 2403 3119 2622 
Q 3366 2841 3366 3238 
Q 3366 3525 3220 3729 
Q 3075 3934 2838 4000 
Q 2684 4041 2272 4041 
L 1100 4041 
L 1100 2403 
z
" transform="scale(0.015625)"/>
       <path id="ArialMT-4f" d="M 309 2231 
Q 309 3372 921 4017 
Q 1534 4663 2503 4663 
Q 3138 4663 3647 4359 
Q 4156 4056 4423 3514 
Q 4691 2972 4691 2284 
Q 4691 1588 4409 1038 
Q 4128 488 3612 205 
Q 3097 -78 2500 -78 
Q 1853 -78 1343 234 
Q 834 547 571 1087 
Q 309 1628 309 2231 
z
M 934 2222 
Q 934 1394 1379 917 
Q 1825 441 2497 441 
Q 3181 441 3623 922 
Q 4066 1403 4066 2288 
Q 4066 2847 3877 3264 
Q 3688 3681 3323 3911 
Q 2959 4141 2506 4141 
Q 1863 4141 1398 3698 
Q 934 3256 934 2222 
z
" transform="scale(0.015625)"/>
       <path id="ArialMT-45" d="M 506 0 
L 506 4581 
L 3819 4581 
L 3819 4041 
L 1113 4041 
L 1113 2638 
L 3647 2638 
L 3647 2100 
L 1113 2100 
L 1113 541 
L 3925 541 
L 3925 0 
L 506 0 
z
" transform="scale(0.015625)"/>
      </defs>
      <use xlink:href="#ArialMT-41"/>
      <use xlink:href="#ArialMT-50" x="66.699219"/>
      <use xlink:href="#ArialMT-4f" x="133.398438"/>
      <use xlink:href="#ArialMT-42" x="211.181641"/>
      <use xlink:href="#ArialMT-45" x="277.880859"/>
      <use xlink:href="#ArialMT-43" x="344.580078"/>
     </g>
    </g>
    <g id="line2d_20">
     <path d="M 256.311563 91.096625 
L 270.311563 91.096625 
L 284.311563 91.096625 
" style="fill: none; stroke: #ffffff; stroke-width: 1.5; stroke-linecap: square"/>
     <defs>
      <path id="m2108714255" d="M 0 10 
C 2.652031 10 5.195799 8.946337 7.071068 7.071068 
C 8.946337 5.195799 10 2.652031 10 0 
C 10 -2.652031 8.946337 -5.195799 7.071068 -7.071068 
C 5.195799 -8.946337 2.652031 -10 0 -10 
C -2.652031 -10 -5.195799 -8.946337 -7.071068 -7.071068 
C -8.946337 -5.195799 -10 -2.652031 -10 0 
C -10 2.652031 -8.946337 5.195799 -7.071068 7.071068 
C -5.195799 8.946337 -2.652031 10 0 10 
z
" style="stroke: #ffffff"/>
     </defs>
     <g>
      <use xlink:href="#m2108714255" x="270.311563" y="91.096625" style="fill: #ffe4e1; stroke: #ffffff"/>
     </g>
    </g>
    <g id="text_27">
     <!-- Platinum -->
     <g transform="translate(295.511563 95.996625) scale(0.14 -0.14)">
      <use xlink:href="#ArialMT-50"/>
      <use xlink:href="#ArialMT-6c" x="66.699219"/>
      <use xlink:href="#ArialMT-61" x="88.916016"/>
      <use xlink:href="#ArialMT-74" x="144.53125"/>
      <use xlink:href="#ArialMT-69" x="172.314453"/>
      <use xlink:href="#ArialMT-6e" x="194.53125"/>
      <use xlink:href="#ArialMT-75" x="250.146484"/>
      <use xlink:href="#ArialMT-6d" x="305.761719"/>
     </g>
    </g>
    <g id="line2d_21">
     <path d="M 256.311563 110.900062 
L 270.311563 110.900062 
L 284.311563 110.900062 
" style="fill: none; stroke: #ffffff; stroke-width: 1.5; stroke-linecap: square"/>
     <defs>
      <path id="m716e781fd1" d="M 0 10 
C 2.652031 10 5.195799 8.946337 7.071068 7.071068 
C 8.946337 5.195799 10 2.652031 10 0 
C 10 -2.652031 8.946337 -5.195799 7.071068 -7.071068 
C 5.195799 -8.946337 2.652031 -10 0 -10 
C -2.652031 -10 -5.195799 -8.946337 -7.071068 -7.071068 
C -8.946337 -5.195799 -10 -2.652031 -10 0 
C -10 2.652031 -8.946337 5.195799 -7.071068 7.071068 
C -5.195799 8.946337 -2.652031 10 0 10 
z
" style="stroke: #ffffff"/>
     </defs>
     <g>
      <use xlink:href="#m716e781fd1" x="270.311563" y="110.900062" style="fill: #ffffff; stroke: #ffffff"/>
     </g>
    </g>
    <g id="text_28">
     <!-- Others -->
     <g transform="translate(295.511563 115.800062) scale(0.14 -0.14)">
      <defs>
       <path id="ArialMT-68" d="M 422 0 
L 422 4581 
L 984 4581 
L 984 2938 
Q 1378 3394 1978 3394 
Q 2347 3394 2619 3248 
Q 2891 3103 3008 2847 
Q 3125 2591 3125 2103 
L 3125 0 
L 2563 0 
L 2563 2103 
Q 2563 2525 2380 2717 
Q 2197 2909 1863 2909 
Q 1613 2909 1392 2779 
Q 1172 2650 1078 2428 
Q 984 2206 984 1816 
L 984 0 
L 422 0 
z
" transform="scale(0.015625)"/>
      </defs>
      <use xlink:href="#ArialMT-4f"/>
      <use xlink:href="#ArialMT-74" x="77.783203"/>
      <use xlink:href="#ArialMT-68" x="105.566406"/>
      <use xlink:href="#ArialMT-65" x="161.181641"/>
      <use xlink:href="#ArialMT-72" x="216.796875"/>
      <use xlink:href="#ArialMT-73" x="250.097656"/>
     </g>
    </g>
   </g>
  </g>
 </g>
 <defs>
  <clipPath id="p1d6b2c6921">
   <rect x="49.10625" y="41.832812" width="172.8" height="201.6"/>
  </clipPath>
 </defs>
</svg>
