<?xml version="1.0" encoding="utf-8" standalone="no"?>
<!DOCTYPE svg PUBLIC "-//W3C//DTD SVG 1.1//EN"
  "http://www.w3.org/Graphics/SVG/1.1/DTD/svg11.dtd">
<svg xmlns:xlink="http://www.w3.org/1999/xlink" width="748.64375pt" height="568.906875pt" viewBox="0 0 748.64375 568.906875" xmlns="http://www.w3.org/2000/svg" version="1.1">
 <metadata>
  <rdf:RDF xmlns:dc="http://purl.org/dc/elements/1.1/" xmlns:cc="http://creativecommons.org/ns#" xmlns:rdf="http://www.w3.org/1999/02/22-rdf-syntax-ns#">
   <cc:Work>
    <dc:type rdf:resource="http://purl.org/dc/dcmitype/StillImage"/>
    <dc:date>2026-05-25T13:20:10.718930</dc:date>
    <dc:format>image/svg+xml</dc:format>
    <dc:creator>
     <cc:Agent>
      <dc:title>Matplotlib v3.7.3, https://matplotlib.org/</dc:title>
     </cc:Agent>
    </dc:creator>
   </cc:Work>
  </rdf:RDF>
 </metadata>
 <defs>
  <style type="text/css">*{stroke-linejoin: round; stroke-linecap: butt}</style>
 </defs>
 <g id="figure_1">
  <g id="patch_1">
   <path d="M -0 568.906875 
L 748.64375 568.906875 
L 748.64375 0 
L -0 0 
L -0 568.906875 
z
" style="fill: none"/>
  </g>
  <g id="axes_1">
   <g id="patch_2">
    <path d="M 54.76375 517.305625 
L 741.44375 517.305625 
L 741.44375 27.515625 
L 54.76375 27.515625 
L 54.76375 517.305625 
z
" style="fill: none"/>
   </g>
   <g id="PolyCollection_1"/>
   <g id="PathCollection_1">
    <defs>
     <path id="mf10c2f8954" d="M 0 4.330127 
C 1.148363 4.330127 2.249847 3.873878 3.061862 3.061862 
C 3.873878 2.249847 4.330127 1.148363 4.330127 0 
C 4.330127 -1.148363 3.873878 -2.249847 3.061862 -3.061862 
C 2.249847 -3.873878 1.148363 -4.330127 0 -4.330127 
C -1.148363 -4.330127 -2.249847 -3.873878 -3.061862 -3.061862 
C -3.873878 -2.249847 -4.330127 -1.148363 -4.330127 0 
C -4.330127 1.148363 -3.873878 2.249847 -3.061862 3.061862 
C -2.249847 3.873878 -1.148363 4.330127 0 4.330127 
z
" style="stroke: #ffffff; stroke-width: 0.69282"/>
    </defs>
    <g clip-path="url(#p14f4486419)">
     <use xlink:href="#mf10c2f8954" x="166.435952" y="70.551755" style="fill: #778899; stroke: #ffffff; stroke-width: 0.69282"/>
     <use xlink:href="#mf10c2f8954" x="194.180598" y="67.603903" style="fill: #778899; stroke: #ffffff; stroke-width: 0.69282"/>
     <use xlink:href="#mf10c2f8954" x="144.240235" y="75.375513" style="fill: #778899; stroke: #ffffff; stroke-width: 0.69282"/>
     <use xlink:href="#mf10c2f8954" x="88.750942" y="495.042443" style="fill: #778899; stroke: #ffffff; stroke-width: 0.69282"/>
     <use xlink:href="#mf10c2f8954" x="113.721124" y="210.960214" style="fill: #778899; stroke: #ffffff; stroke-width: 0.69282"/>
     <use xlink:href="#mf10c2f8954" x="97.074336" y="392.457194" style="fill: #778899; stroke: #ffffff; stroke-width: 0.69282"/>
     <use xlink:href="#mf10c2f8954" x="133.142376" y="84.701445" style="fill: #778899; stroke: #ffffff; stroke-width: 0.69282"/>
     <use xlink:href="#mf10c2f8954" x="152.563629" y="101.115085" style="fill: #778899; stroke: #ffffff; stroke-width: 0.69282"/>
     <use xlink:href="#mf10c2f8954" x="418.912235" y="49.778807" style="fill: #778899; stroke: #ffffff; stroke-width: 0.69282"/>
     <use xlink:href="#mf10c2f8954" x="352.325083" y="57.345378" style="fill: #778899; stroke: #ffffff; stroke-width: 0.69282"/>
     <use xlink:href="#mf10c2f8954" x="263.542215" y="59.680652" style="fill: #778899; stroke: #ffffff; stroke-width: 0.69282"/>
     <use xlink:href="#mf10c2f8954" x="321.805972" y="61.386616" style="fill: #778899; stroke: #ffffff; stroke-width: 0.69282"/>
     <use xlink:href="#mf10c2f8954" x="110.946659" y="271.220081" style="fill: #778899; stroke: #ffffff; stroke-width: 0.69282"/>
     <use xlink:href="#mf10c2f8954" x="366.197407" y="53.479847" style="fill: #778899; stroke: #ffffff; stroke-width: 0.69282"/>
     <use xlink:href="#mf10c2f8954" x="180.308275" y="71.878289" style="fill: #778899; stroke: #ffffff; stroke-width: 0.69282"/>
     <use xlink:href="#mf10c2f8954" x="108.172194" y="310.388994" style="fill: #778899; stroke: #ffffff; stroke-width: 0.69282"/>
     <use xlink:href="#mf10c2f8954" x="119.270053" y="187.286695" style="fill: #778899; stroke: #ffffff; stroke-width: 0.69282"/>
     <use xlink:href="#mf10c2f8954" x="147.014699" y="110.347757" style="fill: #778899; stroke: #ffffff; stroke-width: 0.69282"/>
     <use xlink:href="#mf10c2f8954" x="191.406134" y="55.391374" style="fill: #778899; stroke: #ffffff; stroke-width: 0.69282"/>
     <use xlink:href="#mf10c2f8954" x="213.601851" y="79.156296" style="fill: #778899; stroke: #ffffff; stroke-width: 0.69282"/>
     <use xlink:href="#mf10c2f8954" x="163.661487" y="84.701445" style="fill: #778899; stroke: #ffffff; stroke-width: 0.69282"/>
     <use xlink:href="#mf10c2f8954" x="102.623265" y="341.164569" style="fill: #778899; stroke: #ffffff; stroke-width: 0.69282"/>
     <use xlink:href="#mf10c2f8954" x="282.963467" y="51.301596" style="fill: #778899; stroke: #ffffff; stroke-width: 0.69282"/>
     <use xlink:href="#mf10c2f8954" x="185.857205" y="60.563739" style="fill: #778899; stroke: #ffffff; stroke-width: 0.69282"/>
     <use xlink:href="#mf10c2f8954" x="94.299871" y="495.042443" style="fill: #778899; stroke: #ffffff; stroke-width: 0.69282"/>
     <use xlink:href="#mf10c2f8954" x="127.593447" y="132.976857" style="fill: #778899; stroke: #ffffff; stroke-width: 0.69282"/>
     <use xlink:href="#mf10c2f8954" x="130.367912" y="106.29834" style="fill: #778899; stroke: #ffffff; stroke-width: 0.69282"/>
     <use xlink:href="#mf10c2f8954" x="174.759346" y="58.227832" style="fill: #778899; stroke: #ffffff; stroke-width: 0.69282"/>
     <use xlink:href="#mf10c2f8954" x="183.08274" y="66.049581" style="fill: #778899; stroke: #ffffff; stroke-width: 0.69282"/>
     <use xlink:href="#mf10c2f8954" x="124.818982" y="148.817226" style="fill: #778899; stroke: #ffffff; stroke-width: 0.69282"/>
     <use xlink:href="#mf10c2f8954" x="271.865609" y="55.391374" style="fill: #778899; stroke: #ffffff; stroke-width: 0.69282"/>
     <use xlink:href="#mf10c2f8954" x="235.797568" y="73.902998" style="fill: #778899; stroke: #ffffff; stroke-width: 0.69282"/>
     <use xlink:href="#mf10c2f8954" x="169.210417" y="64.184395" style="fill: #778899; stroke: #ffffff; stroke-width: 0.69282"/>
     <use xlink:href="#mf10c2f8954" x="257.993285" y="68.919099" style="fill: #778899; stroke: #ffffff; stroke-width: 0.69282"/>
    </g>
   </g>
   <g id="PolyCollection_2"/>
   <g id="PathCollection_2">
    <defs>
     <path id="m1982a704f0" d="M 0 4.330127 
C 1.148363 4.330127 2.249847 3.873878 3.061862 3.061862 
C 3.873878 2.249847 4.330127 1.148363 4.330127 0 
C 4.330127 -1.148363 3.873878 -2.249847 3.061862 -3.061862 
C 2.249847 -3.873878 1.148363 -4.330127 0 -4.330127 
C -1.148363 -4.330127 -2.249847 -3.873878 -3.061862 -3.061862 
C -3.873878 -2.249847 -4.330127 -1.148363 -4.330127 0 
C -4.330127 1.148363 -3.873878 2.249847 -3.061862 3.061862 
C -2.249847 3.873878 -1.148363 4.330127 0 4.330127 
z
" style="stroke: #ffffff; stroke-width: 0.69282"/>
    </defs>
    <g clip-path="url(#p14f4486419)">
     <use xlink:href="#m1982a704f0" x="94.299871" y="495.042443" style="fill: #2f4f4f; stroke: #ffffff; stroke-width: 0.69282"/>
     <use xlink:href="#m1982a704f0" x="113.721124" y="418.103506" style="fill: #2f4f4f; stroke: #ffffff; stroke-width: 0.69282"/>
     <use xlink:href="#m1982a704f0" x="410.588841" y="319.182015" style="fill: #2f4f4f; stroke: #ffffff; stroke-width: 0.69282"/>
     <use xlink:href="#m1982a704f0" x="97.074336" y="460.84736" style="fill: #2f4f4f; stroke: #ffffff; stroke-width: 0.69282"/>
     <use xlink:href="#m1982a704f0" x="99.848801" y="465.732372" style="fill: #2f4f4f; stroke: #ffffff; stroke-width: 0.69282"/>
     <use xlink:href="#m1982a704f0" x="269.091144" y="345.827535" style="fill: #2f4f4f; stroke: #ffffff; stroke-width: 0.69282"/>
     <use xlink:href="#m1982a704f0" x="158.112558" y="346.470702" style="fill: #2f4f4f; stroke: #ffffff; stroke-width: 0.69282"/>
     <use xlink:href="#m1982a704f0" x="91.525407" y="495.042443" style="fill: #2f4f4f; stroke: #ffffff; stroke-width: 0.69282"/>
     <use xlink:href="#m1982a704f0" x="105.39773" y="441.519704" style="fill: #2f4f4f; stroke: #ffffff; stroke-width: 0.69282"/>
     <use xlink:href="#m1982a704f0" x="288.512396" y="332.112929" style="fill: #2f4f4f; stroke: #ffffff; stroke-width: 0.69282"/>
     <use xlink:href="#m1982a704f0" x="147.014699" y="341.164569" style="fill: #2f4f4f; stroke: #ffffff; stroke-width: 0.69282"/>
     <use xlink:href="#m1982a704f0" x="135.916841" y="376.674848" style="fill: #2f4f4f; stroke: #ffffff; stroke-width: 0.69282"/>
     <use xlink:href="#m1982a704f0" x="191.406134" y="356.055976" style="fill: #2f4f4f; stroke: #ffffff; stroke-width: 0.69282"/>
     <use xlink:href="#m1982a704f0" x="130.367912" y="396.560604" style="fill: #2f4f4f; stroke: #ffffff; stroke-width: 0.69282"/>
     <use xlink:href="#m1982a704f0" x="449.431346" y="306.969486" style="fill: #2f4f4f; stroke: #ffffff; stroke-width: 0.69282"/>
     <use xlink:href="#m1982a704f0" x="710.231023" y="312.052539" style="fill: #2f4f4f; stroke: #ffffff; stroke-width: 0.69282"/>
     <use xlink:href="#m1982a704f0" x="88.750942" y="495.042443" style="fill: #2f4f4f; stroke: #ffffff; stroke-width: 0.69282"/>
     <use xlink:href="#m1982a704f0" x="185.857205" y="351.423094" style="fill: #2f4f4f; stroke: #ffffff; stroke-width: 0.69282"/>
     <use xlink:href="#m1982a704f0" x="216.376316" y="341.164569" style="fill: #2f4f4f; stroke: #ffffff; stroke-width: 0.69282"/>
    </g>
   </g>
   <g id="matplotlib.axis_1">
    <g id="xtick_1">
     <g id="line2d_1">
      <defs>
       <path id="maebd28e95a" d="M 0 0 
L 0 3.5 
" style="stroke: #000000; stroke-width: 0.8"/>
      </defs>
      <g>
       <use xlink:href="#maebd28e95a" x="85.976477" y="517.305625" style="stroke: #000000; stroke-width: 0.8"/>
      </g>
     </g>
     <g id="text_1">
      <text style="font: 16px 'Arial', sans-serif; text-anchor: middle" x="85.976477" y="535.758125" transform="rotate(-0 85.976477 535.758125)">0</text>
     </g>
    </g>
    <g id="xtick_2">
     <g id="line2d_2">
      <g>
       <use xlink:href="#maebd28e95a" x="224.69971" y="517.305625" style="stroke: #000000; stroke-width: 0.8"/>
      </g>
     </g>
     <g id="text_2">
      <text style="font: 16px 'Arial', sans-serif; text-anchor: middle" x="224.69971" y="535.758125" transform="rotate(-0 224.69971 535.758125)">50</text>
     </g>
    </g>
    <g id="xtick_3">
     <g id="line2d_3">
      <g>
       <use xlink:href="#maebd28e95a" x="363.422942" y="517.305625" style="stroke: #000000; stroke-width: 0.8"/>
      </g>
     </g>
     <g id="text_3">
      <text style="font: 16px 'Arial', sans-serif; text-anchor: middle" x="363.422942" y="535.758125" transform="rotate(-0 363.422942 535.758125)">100</text>
     </g>
    </g>
    <g id="xtick_4">
     <g id="line2d_4">
      <g>
       <use xlink:href="#maebd28e95a" x="502.146174" y="517.305625" style="stroke: #000000; stroke-width: 0.8"/>
      </g>
     </g>
     <g id="text_4">
      <text style="font: 16px 'Arial', sans-serif; text-anchor: middle" x="502.146174" y="535.758125" transform="rotate(-0 502.146174 535.758125)">150</text>
     </g>
    </g>
    <g id="xtick_5">
     <g id="line2d_5">
      <g>
       <use xlink:href="#maebd28e95a" x="640.869407" y="517.305625" style="stroke: #000000; stroke-width: 0.8"/>
      </g>
     </g>
     <g id="text_5">
      <text style="font: 16px 'Arial', sans-serif; text-anchor: middle" x="640.869407" y="535.758125" transform="rotate(-0 640.869407 535.758125)">200</text>
     </g>
    </g>
    <g id="text_6">
     <text style="font: 20px 'Arial', sans-serif; text-anchor: middle" x="398.10375" y="557.4975" transform="rotate(-0 398.10375 557.4975)">Months from Start of Therapy</text>
    </g>
   </g>
   <g id="matplotlib.axis_2">
    <g id="ytick_1">
     <g id="line2d_6">
      <defs>
       <path id="mc5227a80e7" d="M 0 0 
L -3.5 0 
" style="stroke: #000000; stroke-width: 0.8"/>
      </defs>
      <g>
       <use xlink:href="#mc5227a80e7" x="54.76375" y="495.042443" style="stroke: #000000; stroke-width: 0.8"/>
      </g>
     </g>
     <g id="text_7">
      <text style="font: 16px 'Arial', sans-serif; text-anchor: end" x="47.76375" y="500.768693" transform="rotate(-0 47.76375 500.768693)">0</text>
     </g>
    </g>
    <g id="ytick_2">
     <g id="line2d_7">
      <g>
       <use xlink:href="#mc5227a80e7" x="54.76375" y="433.491293" style="stroke: #000000; stroke-width: 0.8"/>
      </g>
     </g>
     <g id="text_8">
      <text style="font: 16px 'Arial', sans-serif; text-anchor: end" x="47.76375" y="439.217543" transform="rotate(-0 47.76375 439.217543)">10</text>
     </g>
    </g>
    <g id="ytick_3">
     <g id="line2d_8">
      <g>
       <use xlink:href="#mc5227a80e7" x="54.76375" y="371.940144" style="stroke: #000000; stroke-width: 0.8"/>
      </g>
     </g>
     <g id="text_9">
      <text style="font: 16px 'Arial', sans-serif; text-anchor: end" x="47.76375" y="377.666394" transform="rotate(-0 47.76375 377.666394)">20</text>
     </g>
    </g>
    <g id="ytick_4">
     <g id="line2d_9">
      <g>
       <use xlink:href="#mc5227a80e7" x="54.76375" y="310.388994" style="stroke: #000000; stroke-width: 0.8"/>
      </g>
     </g>
     <g id="text_10">
      <text style="font: 16px 'Arial', sans-serif; text-anchor: end" x="47.76375" y="316.115244" transform="rotate(-0 47.76375 316.115244)">30</text>
     </g>
    </g>
    <g id="ytick_5">
     <g id="line2d_10">
      <g>
       <use xlink:href="#mc5227a80e7" x="54.76375" y="248.837844" style="stroke: #000000; stroke-width: 0.8"/>
      </g>
     </g>
     <g id="text_11">
      <text style="font: 16px 'Arial', sans-serif; text-anchor: end" x="47.76375" y="254.564094" transform="rotate(-0 47.76375 254.564094)">40</text>
     </g>
    </g>
    <g id="ytick_6">
     <g id="line2d_11">
      <g>
       <use xlink:href="#mc5227a80e7" x="54.76375" y="187.286695" style="stroke: #000000; stroke-width: 0.8"/>
      </g>
     </g>
     <g id="text_12">
      <text style="font: 16px 'Arial', sans-serif; text-anchor: end" x="47.76375" y="193.012945" transform="rotate(-0 47.76375 193.012945)">50</text>
     </g>
    </g>
    <g id="ytick_7">
     <g id="line2d_12">
      <g>
       <use xlink:href="#mc5227a80e7" x="54.76375" y="125.735545" style="stroke: #000000; stroke-width: 0.8"/>
      </g>
     </g>
     <g id="text_13">
      <text style="font: 16px 'Arial', sans-serif; text-anchor: end" x="47.76375" y="131.461795" transform="rotate(-0 47.76375 131.461795)">60</text>
     </g>
    </g>
    <g id="ytick_8">
     <g id="line2d_13">
      <g>
       <use xlink:href="#mc5227a80e7" x="54.76375" y="64.184395" style="stroke: #000000; stroke-width: 0.8"/>
      </g>
     </g>
     <g id="text_14">
      <text style="font: 16px 'Arial', sans-serif; text-anchor: end" x="47.76375" y="69.910645" transform="rotate(-0 47.76375 69.910645)">70</text>
     </g>
    </g>
    <g id="text_15">
     <text style="font: 20px 'Arial', sans-serif; text-anchor: middle" x="21.759375" y="272.410625" transform="rotate(-90 21.759375 272.410625)">Patients with Therapy Signatures (%)</text>
    </g>
   </g>
   <g id="line2d_14">
    <path d="M 88.750942 495.042443 
L 94.299871 495.042443 
L 97.074336 392.457194 
L 102.623265 341.164569 
L 108.172194 310.388994 
L 110.946659 271.220081 
L 113.721124 210.960214 
L 119.270053 187.286695 
L 124.818982 148.817226 
L 127.593447 132.976857 
L 130.367912 106.29834 
L 133.142376 84.701445 
L 144.240235 75.375513 
L 147.014699 110.347757 
L 152.563629 101.115085 
L 163.661487 84.701445 
L 166.435952 70.551755 
L 169.210417 64.184395 
L 174.759346 58.227832 
L 180.308275 71.878289 
L 183.08274 66.049581 
L 185.857205 60.563739 
L 191.406134 55.391374 
L 194.180598 67.603903 
L 213.601851 79.156296 
L 235.797568 73.902998 
L 257.993285 68.919099 
L 263.542215 59.680652 
L 271.865609 55.391374 
L 282.963467 51.301596 
L 321.805972 61.386616 
L 352.325083 57.345378 
L 366.197407 53.479847 
L 418.912235 49.778807 
" clip-path="url(#p14f4486419)" style="fill: none; stroke: #778899; stroke-width: 2.5; stroke-linecap: square"/>
   </g>
   <g id="line2d_15">
    <path d="M 88.750942 495.042443 
L 91.525407 495.042443 
L 94.299871 495.042443 
L 97.074336 460.84736 
L 99.848801 465.732372 
L 105.39773 441.519704 
L 113.721124 418.103506 
L 130.367912 396.560604 
L 135.916841 376.674848 
L 147.014699 341.164569 
L 158.112558 346.470702 
L 185.857205 351.423094 
L 191.406134 356.055976 
L 216.376316 341.164569 
L 269.091144 345.827535 
L 288.512396 332.112929 
L 410.588841 319.182015 
L 449.431346 306.969486 
L 710.231023 312.052539 
" clip-path="url(#p14f4486419)" style="fill: none; stroke: #2f4f4f; stroke-width: 2.5; stroke-linecap: square"/>
   </g>
   <g id="LineCollection_1">
    <path d="M 105.39773 411.948391 
L 133.142376 411.948391 
" clip-path="url(#p14f4486419)" style="fill: none; stroke: #8b0000; stroke-width: 1.5"/>
   </g>
   <g id="LineCollection_2">
    <path d="M 122.044518 378.095259 
L 149.789164 378.095259 
" clip-path="url(#p14f4486419)" style="fill: none; stroke: #8b0000; stroke-width: 1.5"/>
   </g>
   <g id="LineCollection_3">
    <path d="M 110.946659 139.939704 
L 138.691306 139.939704 
" clip-path="url(#p14f4486419)" style="fill: none; stroke: #8b0000; stroke-width: 1.5"/>
   </g>
   <g id="LineCollection_4">
    <path d="M 116.495588 94.95997 
L 144.240235 94.95997 
" clip-path="url(#p14f4486419)" style="fill: none; stroke: #8b0000; stroke-width: 1.5"/>
   </g>
   <g id="LineCollection_5">
    <path d="M 85.976477 455.034196 
L 110.946659 455.034196 
" clip-path="url(#p14f4486419)" style="fill: none; stroke: #006400; stroke-width: 1.5"/>
   </g>
   <g id="patch_3">
    <path d="M 54.76375 517.305625 
L 54.76375 27.515625 
" style="fill: none; stroke: #000000; stroke-width: 0.8; stroke-linejoin: miter; stroke-linecap: square"/>
   </g>
   <g id="patch_4">
    <path d="M 54.76375 517.305625 
L 741.44375 517.305625 
" style="fill: none; stroke: #000000; stroke-width: 0.8; stroke-linejoin: miter; stroke-linecap: square"/>
   </g>
   <g id="text_16">
    <text style="fill: #778899; font: 16px 'Arial', sans-serif" transform="translate(147.014699 407.623141)">12 mos</text>
    <text style="fill: #778899; font: 16px 'Arial', sans-serif" transform="translate(147.014699 424.546141)">   13.5%</text>
   </g>
   <g id="text_17">
    <text style="fill: #778899; font: 16px 'Arial', sans-serif" transform="translate(169.210417 373.770009)">18 mos</text>
    <text style="fill: #778899; font: 16px 'Arial', sans-serif" transform="translate(169.210417 390.693009)">   19%</text>
   </g>
   <g id="text_18">
    <text style="fill: #2f4f4f; font: 16px 'Arial', sans-serif" transform="translate(147.014699 139.87564)">12 mos</text>
    <text style="fill: #2f4f4f; font: 16px 'Arial', sans-serif" transform="translate(147.014699 156.79864)">   50%</text>
   </g>
   <g id="text_19">
    <text style="fill: #2f4f4f; font: 16px 'Arial', sans-serif" transform="translate(58.231831 78.32449)">18 mos</text>
    <text style="fill: #2f4f4f; font: 16px 'Arial', sans-serif" transform="translate(58.231831 95.24749)"> ~67%</text>
   </g>
   <g id="text_20">
    <text style="fill: #778899; font: 20px 'Arial', sans-serif" transform="translate(632.965846 73.51372)">Metastatic</text>
    <text style="fill: #778899; font: 20px 'Arial', sans-serif" transform="translate(665.737721 94.95997)">(n=47)</text>
   </g>
   <g id="text_21">
    <text style="fill: #2f4f4f; font: 20px 'Arial', sans-serif" transform="translate(589.618971 270.477399)">Non-Metastatic</text>
    <text style="fill: #2f4f4f; font: 20px 'Arial', sans-serif" transform="translate(665.737721 291.923649)">(n=37)</text>
   </g>
   <g id="text_22">
    <text style="fill: #006400; font: 18px 'Arial', sans-serif; text-anchor: start" x="113.721124" y="459.608727" transform="rotate(-0 113.721124 459.608727)">91 Days</text>
   </g>
   <g id="text_23">
    <text style="font: 20px 'Arial', sans-serif; text-anchor: middle" x="398.10375" y="21.515625" transform="rotate(-0 398.10375 21.515625)">Platinum-Treated Tumours</text>
   </g>
  </g>
 </g>
 <defs>
  <clipPath id="p14f4486419">
   <rect x="54.76375" y="27.515625" width="686.68" height="489.79"/>
  </clipPath>
 </defs>
</svg>
