<?xml version="1.0" encoding="utf-8" standalone="no"?>
<!DOCTYPE svg PUBLIC "-//W3C//DTD SVG 1.1//EN"
  "http://www.w3.org/Graphics/SVG/1.1/DTD/svg11.dtd">
<svg xmlns:xlink="http://www.w3.org/1999/xlink" width="640.631562pt" height="567.327pt" viewBox="0 0 640.631562 567.327" xmlns="http://www.w3.org/2000/svg" version="1.1">
 <metadata>
  <rdf:RDF xmlns:dc="http://purl.org/dc/elements/1.1/" xmlns:cc="http://creativecommons.org/ns#" xmlns:rdf="http://www.w3.org/1999/02/22-rdf-syntax-ns#">
   <cc:Work>
    <dc:type rdf:resource="http://purl.org/dc/dcmitype/StillImage"/>
    <dc:date>2026-05-21T14:14:37.889706</dc:date>
    <dc:format>image/svg+xml</dc:format>
    <dc:creator>
     <cc:Agent>
      <dc:title>Matplotlib v3.7.3, https://matplotlib.org/</dc:title>
     </cc:Agent>
    </dc:creator>
   </cc:Work>
  </rdf:RDF>
 </metadata>
 <defs>
  <style type="text/css">*{stroke-linejoin: round; stroke-linecap: butt}</style>
 </defs>
 <g id="figure_1">
  <g id="patch_1">
   <path d="M -0 567.327 
L 640.631562 567.327 
L 640.631562 0 
L -0 0 
L -0 567.327 
z
" style="fill: none"/>
  </g>
  <g id="axes_1">
   <g id="patch_2">
    <path d="M 54.121563 244.218 
L 192.09388 244.218 
L 192.09388 45.588 
L 54.121563 45.588 
L 54.121563 244.218 
z
" style="fill: none"/>
   </g>
   <g id="patch_3">
    <path d="M 60.393031 244.218 
L 116.139422 244.218 
L 116.139422 125.04 
L 60.393031 125.04 
z
" clip-path="url(#p1f4fa2fdbf)" style="fill: #3288bd"/>
   </g>
   <g id="patch_4">
    <path d="M 130.07602 244.218 
L 185.822411 244.218 
L 185.822411 154.8345 
L 130.07602 154.8345 
z
" clip-path="url(#p1f4fa2fdbf)" style="fill: #d53e4f"/>
   </g>
   <g id="matplotlib.axis_1">
    <g id="xtick_1">
     <g id="line2d_1">
      <defs>
       <path id="m8b85b4c859" d="M 0 0 
L 0 3.5 
" style="stroke: #000000; stroke-width: 0.8"/>
      </defs>
      <g>
       <use xlink:href="#m8b85b4c859" x="88.266227" y="244.218" style="stroke: #000000; stroke-width: 0.8"/>
      </g>
     </g>
    </g>
    <g id="xtick_2">
     <g id="line2d_2">
      <g>
       <use xlink:href="#m8b85b4c859" x="157.949215" y="244.218" style="stroke: #000000; stroke-width: 0.8"/>
      </g>
     </g>
    </g>
   </g>
   <g id="matplotlib.axis_2">
    <g id="ytick_1">
     <g id="line2d_3">
      <defs>
       <path id="md2e7c17d44" d="M 0 0 
L -3.5 0 
" style="stroke: #000000; stroke-width: 0.8"/>
      </defs>
      <g>
       <use xlink:href="#md2e7c17d44" x="54.121563" y="244.218" style="stroke: #000000; stroke-width: 0.8"/>
      </g>
     </g>
     <g id="text_1">
      <!-- 0.0 -->
      <g transform="translate(27.661563 249.228469) scale(0.14 -0.14)">
       <defs>
        <path id="ArialMT-30" d="M 266 2259 
Q 266 3072 433 3567 
Q 600 4063 929 4331 
Q 1259 4600 1759 4600 
Q 2128 4600 2406 4451 
Q 2684 4303 2865 4023 
Q 3047 3744 3150 3342 
Q 3253 2941 3253 2259 
Q 3253 1453 3087 958 
Q 2922 463 2592 192 
Q 2263 -78 1759 -78 
Q 1097 -78 719 397 
Q 266 969 266 2259 
z
M 844 2259 
Q 844 1131 1108 757 
Q 1372 384 1759 384 
Q 2147 384 2411 759 
Q 2675 1134 2675 2259 
Q 2675 3391 2411 3762 
Q 2147 4134 1753 4134 
Q 1366 4134 1134 3806 
Q 844 3388 844 2259 
z
" transform="scale(0.015625)"/>
        <path id="ArialMT-2e" d="M 581 0 
L 581 641 
L 1222 641 
L 1222 0 
L 581 0 
z
" transform="scale(0.015625)"/>
       </defs>
       <use xlink:href="#ArialMT-30"/>
       <use xlink:href="#ArialMT-2e" x="55.615234"/>
       <use xlink:href="#ArialMT-30" x="83.398438"/>
      </g>
     </g>
    </g>
    <g id="ytick_2">
     <g id="line2d_4">
      <g>
       <use xlink:href="#md2e7c17d44" x="54.121563" y="204.492" style="stroke: #000000; stroke-width: 0.8"/>
      </g>
     </g>
     <g id="text_2">
      <!-- 0.2 -->
      <g transform="translate(27.661563 209.502469) scale(0.14 -0.14)">
       <defs>
        <path id="ArialMT-32" d="M 3222 541 
L 3222 0 
L 194 0 
Q 188 203 259 391 
Q 375 700 629 1000 
Q 884 1300 1366 1694 
Q 2113 2306 2375 2664 
Q 2638 3022 2638 3341 
Q 2638 3675 2398 3904 
Q 2159 4134 1775 4134 
Q 1369 4134 1125 3890 
Q 881 3647 878 3216 
L 300 3275 
Q 359 3922 746 4261 
Q 1134 4600 1788 4600 
Q 2447 4600 2831 4234 
Q 3216 3869 3216 3328 
Q 3216 3053 3103 2787 
Q 2991 2522 2730 2228 
Q 2469 1934 1863 1422 
Q 1356 997 1212 845 
Q 1069 694 975 541 
L 3222 541 
z
" transform="scale(0.015625)"/>
       </defs>
       <use xlink:href="#ArialMT-30"/>
       <use xlink:href="#ArialMT-2e" x="55.615234"/>
       <use xlink:href="#ArialMT-32" x="83.398438"/>
      </g>
     </g>
    </g>
    <g id="ytick_3">
     <g id="line2d_5">
      <g>
       <use xlink:href="#md2e7c17d44" x="54.121563" y="164.766" style="stroke: #000000; stroke-width: 0.8"/>
      </g>
     </g>
     <g id="text_3">
      <!-- 0.4 -->
      <g transform="translate(27.661563 169.776469) scale(0.14 -0.14)">
       <defs>
        <path id="ArialMT-34" d="M 2069 0 
L 2069 1097 
L 81 1097 
L 81 1613 
L 2172 4581 
L 2631 4581 
L 2631 1613 
L 3250 1613 
L 3250 1097 
L 2631 1097 
L 2631 0 
L 2069 0 
z
M 2069 1613 
L 2069 3678 
L 634 1613 
L 2069 1613 
z
" transform="scale(0.015625)"/>
       </defs>
       <use xlink:href="#ArialMT-30"/>
       <use xlink:href="#ArialMT-2e" x="55.615234"/>
       <use xlink:href="#ArialMT-34" x="83.398438"/>
      </g>
     </g>
    </g>
    <g id="ytick_4">
     <g id="line2d_6">
      <g>
       <use xlink:href="#md2e7c17d44" x="54.121563" y="125.04" style="stroke: #000000; stroke-width: 0.8"/>
      </g>
     </g>
     <g id="text_4">
      <!-- 0.6 -->
      <g transform="translate(27.661563 130.050469) scale(0.14 -0.14)">
       <defs>
        <path id="ArialMT-36" d="M 3184 3459 
L 2625 3416 
Q 2550 3747 2413 3897 
Q 2184 4138 1850 4138 
Q 1581 4138 1378 3988 
Q 1113 3794 959 3422 
Q 806 3050 800 2363 
Q 1003 2672 1297 2822 
Q 1591 2972 1913 2972 
Q 2475 2972 2870 2558 
Q 3266 2144 3266 1488 
Q 3266 1056 3080 686 
Q 2894 316 2569 119 
Q 2244 -78 1831 -78 
Q 1128 -78 684 439 
Q 241 956 241 2144 
Q 241 3472 731 4075 
Q 1159 4600 1884 4600 
Q 2425 4600 2770 4297 
Q 3116 3994 3184 3459 
z
M 888 1484 
Q 888 1194 1011 928 
Q 1134 663 1356 523 
Q 1578 384 1822 384 
Q 2178 384 2434 671 
Q 2691 959 2691 1453 
Q 2691 1928 2437 2201 
Q 2184 2475 1800 2475 
Q 1419 2475 1153 2201 
Q 888 1928 888 1484 
z
" transform="scale(0.015625)"/>
       </defs>
       <use xlink:href="#ArialMT-30"/>
       <use xlink:href="#ArialMT-2e" x="55.615234"/>
       <use xlink:href="#ArialMT-36" x="83.398438"/>
      </g>
     </g>
    </g>
    <g id="ytick_5">
     <g id="line2d_7">
      <g>
       <use xlink:href="#md2e7c17d44" x="54.121563" y="85.314" style="stroke: #000000; stroke-width: 0.8"/>
      </g>
     </g>
     <g id="text_5">
      <!-- 0.8 -->
      <g transform="translate(27.661563 90.324469) scale(0.14 -0.14)">
       <defs>
        <path id="ArialMT-38" d="M 1131 2484 
Q 781 2613 612 2850 
Q 444 3088 444 3419 
Q 444 3919 803 4259 
Q 1163 4600 1759 4600 
Q 2359 4600 2725 4251 
Q 3091 3903 3091 3403 
Q 3091 3084 2923 2848 
Q 2756 2613 2416 2484 
Q 2838 2347 3058 2040 
Q 3278 1734 3278 1309 
Q 3278 722 2862 322 
Q 2447 -78 1769 -78 
Q 1091 -78 675 323 
Q 259 725 259 1325 
Q 259 1772 486 2073 
Q 713 2375 1131 2484 
z
M 1019 3438 
Q 1019 3113 1228 2906 
Q 1438 2700 1772 2700 
Q 2097 2700 2305 2904 
Q 2513 3109 2513 3406 
Q 2513 3716 2298 3927 
Q 2084 4138 1766 4138 
Q 1444 4138 1231 3931 
Q 1019 3725 1019 3438 
z
M 838 1322 
Q 838 1081 952 856 
Q 1066 631 1291 507 
Q 1516 384 1775 384 
Q 2178 384 2440 643 
Q 2703 903 2703 1303 
Q 2703 1709 2433 1975 
Q 2163 2241 1756 2241 
Q 1359 2241 1098 1978 
Q 838 1716 838 1322 
z
" transform="scale(0.015625)"/>
       </defs>
       <use xlink:href="#ArialMT-30"/>
       <use xlink:href="#ArialMT-2e" x="55.615234"/>
       <use xlink:href="#ArialMT-38" x="83.398438"/>
      </g>
     </g>
    </g>
    <g id="ytick_6">
     <g id="line2d_8">
      <g>
       <use xlink:href="#md2e7c17d44" x="54.121563" y="45.588" style="stroke: #000000; stroke-width: 0.8"/>
      </g>
     </g>
     <g id="text_6">
      <!-- 1.0 -->
      <g transform="translate(27.661563 50.598469) scale(0.14 -0.14)">
       <defs>
        <path id="ArialMT-31" d="M 2384 0 
L 1822 0 
L 1822 3584 
Q 1619 3391 1289 3197 
Q 959 3003 697 2906 
L 697 3450 
Q 1169 3672 1522 3987 
Q 1875 4303 2022 4600 
L 2384 4600 
L 2384 0 
z
" transform="scale(0.015625)"/>
       </defs>
       <use xlink:href="#ArialMT-31"/>
       <use xlink:href="#ArialMT-2e" x="55.615234"/>
       <use xlink:href="#ArialMT-30" x="83.398438"/>
      </g>
     </g>
    </g>
    <g id="text_7">
     <!-- Driver Events / Tumour -->
     <g transform="translate(20.084063 236.925187) rotate(-90) scale(0.18 -0.18)">
      <defs>
       <path id="ArialMT-44" d="M 494 0 
L 494 4581 
L 2072 4581 
Q 2606 4581 2888 4516 
Q 3281 4425 3559 4188 
Q 3922 3881 4101 3404 
Q 4281 2928 4281 2316 
Q 4281 1794 4159 1391 
Q 4038 988 3847 723 
Q 3656 459 3429 307 
Q 3203 156 2883 78 
Q 2563 0 2147 0 
L 494 0 
z
M 1100 541 
L 2078 541 
Q 2531 541 2789 625 
Q 3047 709 3200 863 
Q 3416 1078 3536 1442 
Q 3656 1806 3656 2325 
Q 3656 3044 3420 3430 
Q 3184 3816 2847 3947 
Q 2603 4041 2063 4041 
L 1100 4041 
L 1100 541 
z
" transform="scale(0.015625)"/>
       <path id="ArialMT-72" d="M 416 0 
L 416 3319 
L 922 3319 
L 922 2816 
Q 1116 3169 1280 3281 
Q 1444 3394 1641 3394 
Q 1925 3394 2219 3213 
L 2025 2691 
Q 1819 2813 1613 2813 
Q 1428 2813 1281 2702 
Q 1134 2591 1072 2394 
Q 978 2094 978 1738 
L 978 0 
L 416 0 
z
" transform="scale(0.015625)"/>
       <path id="ArialMT-69" d="M 425 3934 
L 425 4581 
L 988 4581 
L 988 3934 
L 425 3934 
z
M 425 0 
L 425 3319 
L 988 3319 
L 988 0 
L 425 0 
z
" transform="scale(0.015625)"/>
       <path id="ArialMT-76" d="M 1344 0 
L 81 3319 
L 675 3319 
L 1388 1331 
Q 1503 1009 1600 663 
Q 1675 925 1809 1294 
L 2547 3319 
L 3125 3319 
L 1869 0 
L 1344 0 
z
" transform="scale(0.015625)"/>
       <path id="ArialMT-65" d="M 2694 1069 
L 3275 997 
Q 3138 488 2766 206 
Q 2394 -75 1816 -75 
Q 1088 -75 661 373 
Q 234 822 234 1631 
Q 234 2469 665 2931 
Q 1097 3394 1784 3394 
Q 2450 3394 2872 2941 
Q 3294 2488 3294 1666 
Q 3294 1616 3291 1516 
L 816 1516 
Q 847 969 1125 678 
Q 1403 388 1819 388 
Q 2128 388 2347 550 
Q 2566 713 2694 1069 
z
M 847 1978 
L 2700 1978 
Q 2663 2397 2488 2606 
Q 2219 2931 1791 2931 
Q 1403 2931 1139 2672 
Q 875 2413 847 1978 
z
" transform="scale(0.015625)"/>
       <path id="ArialMT-20" transform="scale(0.015625)"/>
       <path id="ArialMT-45" d="M 506 0 
L 506 4581 
L 3819 4581 
L 3819 4041 
L 1113 4041 
L 1113 2638 
L 3647 2638 
L 3647 2100 
L 1113 2100 
L 1113 541 
L 3925 541 
L 3925 0 
L 506 0 
z
" transform="scale(0.015625)"/>
       <path id="ArialMT-6e" d="M 422 0 
L 422 3319 
L 928 3319 
L 928 2847 
Q 1294 3394 1984 3394 
Q 2284 3394 2536 3286 
Q 2788 3178 2913 3003 
Q 3038 2828 3088 2588 
Q 3119 2431 3119 2041 
L 3119 0 
L 2556 0 
L 2556 2019 
Q 2556 2363 2490 2533 
Q 2425 2703 2258 2804 
Q 2091 2906 1866 2906 
Q 1506 2906 1245 2678 
Q 984 2450 984 1813 
L 984 0 
L 422 0 
z
" transform="scale(0.015625)"/>
       <path id="ArialMT-74" d="M 1650 503 
L 1731 6 
Q 1494 -44 1306 -44 
Q 1000 -44 831 53 
Q 663 150 594 308 
Q 525 466 525 972 
L 525 2881 
L 113 2881 
L 113 3319 
L 525 3319 
L 525 4141 
L 1084 4478 
L 1084 3319 
L 1650 3319 
L 1650 2881 
L 1084 2881 
L 1084 941 
Q 1084 700 1114 631 
Q 1144 563 1211 522 
Q 1278 481 1403 481 
Q 1497 481 1650 503 
z
" transform="scale(0.015625)"/>
       <path id="ArialMT-73" d="M 197 991 
L 753 1078 
Q 800 744 1014 566 
Q 1228 388 1613 388 
Q 2000 388 2187 545 
Q 2375 703 2375 916 
Q 2375 1106 2209 1216 
Q 2094 1291 1634 1406 
Q 1016 1563 777 1677 
Q 538 1791 414 1992 
Q 291 2194 291 2438 
Q 291 2659 392 2848 
Q 494 3038 669 3163 
Q 800 3259 1026 3326 
Q 1253 3394 1513 3394 
Q 1903 3394 2198 3281 
Q 2494 3169 2634 2976 
Q 2775 2784 2828 2463 
L 2278 2388 
Q 2241 2644 2061 2787 
Q 1881 2931 1553 2931 
Q 1166 2931 1000 2803 
Q 834 2675 834 2503 
Q 834 2394 903 2306 
Q 972 2216 1119 2156 
Q 1203 2125 1616 2013 
Q 2213 1853 2448 1751 
Q 2684 1650 2818 1456 
Q 2953 1263 2953 975 
Q 2953 694 2789 445 
Q 2625 197 2315 61 
Q 2006 -75 1616 -75 
Q 969 -75 630 194 
Q 291 463 197 991 
z
" transform="scale(0.015625)"/>
       <path id="ArialMT-2f" d="M 0 -78 
L 1328 4659 
L 1778 4659 
L 453 -78 
L 0 -78 
z
" transform="scale(0.015625)"/>
       <path id="ArialMT-54" d="M 1659 0 
L 1659 4041 
L 150 4041 
L 150 4581 
L 3781 4581 
L 3781 4041 
L 2266 4041 
L 2266 0 
L 1659 0 
z
" transform="scale(0.015625)"/>
       <path id="ArialMT-75" d="M 2597 0 
L 2597 488 
Q 2209 -75 1544 -75 
Q 1250 -75 995 37 
Q 741 150 617 320 
Q 494 491 444 738 
Q 409 903 409 1263 
L 409 3319 
L 972 3319 
L 972 1478 
Q 972 1038 1006 884 
Q 1059 663 1231 536 
Q 1403 409 1656 409 
Q 1909 409 2131 539 
Q 2353 669 2445 892 
Q 2538 1116 2538 1541 
L 2538 3319 
L 3100 3319 
L 3100 0 
L 2597 0 
z
" transform="scale(0.015625)"/>
       <path id="ArialMT-6d" d="M 422 0 
L 422 3319 
L 925 3319 
L 925 2853 
Q 1081 3097 1340 3245 
Q 1600 3394 1931 3394 
Q 2300 3394 2536 3241 
Q 2772 3088 2869 2813 
Q 3263 3394 3894 3394 
Q 4388 3394 4653 3120 
Q 4919 2847 4919 2278 
L 4919 0 
L 4359 0 
L 4359 2091 
Q 4359 2428 4304 2576 
Q 4250 2725 4106 2815 
Q 3963 2906 3769 2906 
Q 3419 2906 3187 2673 
Q 2956 2441 2956 1928 
L 2956 0 
L 2394 0 
L 2394 2156 
Q 2394 2531 2256 2718 
Q 2119 2906 1806 2906 
Q 1569 2906 1367 2781 
Q 1166 2656 1075 2415 
Q 984 2175 984 1722 
L 984 0 
L 422 0 
z
" transform="scale(0.015625)"/>
       <path id="ArialMT-6f" d="M 213 1659 
Q 213 2581 725 3025 
Q 1153 3394 1769 3394 
Q 2453 3394 2887 2945 
Q 3322 2497 3322 1706 
Q 3322 1066 3130 698 
Q 2938 331 2570 128 
Q 2203 -75 1769 -75 
Q 1072 -75 642 372 
Q 213 819 213 1659 
z
M 791 1659 
Q 791 1022 1069 705 
Q 1347 388 1769 388 
Q 2188 388 2466 706 
Q 2744 1025 2744 1678 
Q 2744 2294 2464 2611 
Q 2184 2928 1769 2928 
Q 1347 2928 1069 2612 
Q 791 2297 791 1659 
z
" transform="scale(0.015625)"/>
      </defs>
      <use xlink:href="#ArialMT-44"/>
      <use xlink:href="#ArialMT-72" x="72.216797"/>
      <use xlink:href="#ArialMT-69" x="105.517578"/>
      <use xlink:href="#ArialMT-76" x="127.734375"/>
      <use xlink:href="#ArialMT-65" x="177.734375"/>
      <use xlink:href="#ArialMT-72" x="233.349609"/>
      <use xlink:href="#ArialMT-20" x="266.650391"/>
      <use xlink:href="#ArialMT-45" x="294.433594"/>
      <use xlink:href="#ArialMT-76" x="361.132812"/>
      <use xlink:href="#ArialMT-65" x="411.132812"/>
      <use xlink:href="#ArialMT-6e" x="466.748047"/>
      <use xlink:href="#ArialMT-74" x="522.363281"/>
      <use xlink:href="#ArialMT-73" x="550.146484"/>
      <use xlink:href="#ArialMT-20" x="600.146484"/>
      <use xlink:href="#ArialMT-2f" x="627.929688"/>
      <use xlink:href="#ArialMT-20" x="655.712891"/>
      <use xlink:href="#ArialMT-54" x="681.746094"/>
      <use xlink:href="#ArialMT-75" x="739.080078"/>
      <use xlink:href="#ArialMT-6d" x="794.695312"/>
      <use xlink:href="#ArialMT-6f" x="877.996094"/>
      <use xlink:href="#ArialMT-75" x="933.611328"/>
      <use xlink:href="#ArialMT-72" x="989.226562"/>
     </g>
    </g>
   </g>
   <g id="patch_5">
    <path d="M 54.121563 244.218 
L 54.121563 45.588 
" style="fill: none; stroke: #000000; stroke-width: 0.8; stroke-linejoin: miter; stroke-linecap: square"/>
   </g>
   <g id="patch_6">
    <path d="M 54.121563 244.218 
L 192.09388 244.218 
" style="fill: none; stroke: #000000; stroke-width: 0.8; stroke-linejoin: miter; stroke-linecap: square"/>
   </g>
   <g id="text_8">
    <!-- (6/10) -->
    <g style="fill: #ffffff" transform="translate(71.288024 162.029906) scale(0.13 -0.13)">
     <defs>
      <path id="Arial-BoldMT-28" d="M 1916 -1347 
L 1313 -1347 
Q 834 -625 584 153 
Q 334 931 334 1659 
Q 334 2563 644 3369 
Q 913 4069 1325 4659 
L 1925 4659 
Q 1497 3713 1336 3048 
Q 1175 2384 1175 1641 
Q 1175 1128 1270 590 
Q 1366 53 1531 -431 
Q 1641 -750 1916 -1347 
z
" transform="scale(0.015625)"/>
      <path id="Arial-BoldMT-36" d="M 3247 3459 
L 2397 3366 
Q 2366 3628 2234 3753 
Q 2103 3878 1894 3878 
Q 1616 3878 1423 3628 
Q 1231 3378 1181 2588 
Q 1509 2975 1997 2975 
Q 2547 2975 2939 2556 
Q 3331 2138 3331 1475 
Q 3331 772 2918 347 
Q 2506 -78 1859 -78 
Q 1166 -78 719 461 
Q 272 1000 272 2228 
Q 272 3488 737 4044 
Q 1203 4600 1947 4600 
Q 2469 4600 2811 4308 
Q 3153 4016 3247 3459 
z
M 1256 1544 
Q 1256 1116 1453 883 
Q 1650 650 1903 650 
Q 2147 650 2309 840 
Q 2472 1031 2472 1466 
Q 2472 1913 2297 2120 
Q 2122 2328 1859 2328 
Q 1606 2328 1431 2129 
Q 1256 1931 1256 1544 
z
" transform="scale(0.015625)"/>
      <path id="Arial-BoldMT-2f" d="M -9 -78 
L 1125 4659 
L 1784 4659 
L 638 -78 
L -9 -78 
z
" transform="scale(0.015625)"/>
      <path id="Arial-BoldMT-31" d="M 2519 0 
L 1641 0 
L 1641 3309 
Q 1159 2859 506 2644 
L 506 3441 
Q 850 3553 1253 3867 
Q 1656 4181 1806 4600 
L 2519 4600 
L 2519 0 
z
" transform="scale(0.015625)"/>
      <path id="Arial-BoldMT-30" d="M 1756 4600 
Q 2422 4600 2797 4125 
Q 3244 3563 3244 2259 
Q 3244 959 2794 391 
Q 2422 -78 1756 -78 
Q 1088 -78 678 436 
Q 269 950 269 2269 
Q 269 3563 719 4131 
Q 1091 4600 1756 4600 
z
M 1756 3872 
Q 1597 3872 1472 3770 
Q 1347 3669 1278 3406 
Q 1188 3066 1188 2259 
Q 1188 1453 1269 1151 
Q 1350 850 1473 750 
Q 1597 650 1756 650 
Q 1916 650 2041 751 
Q 2166 853 2234 1116 
Q 2325 1453 2325 2259 
Q 2325 3066 2244 3367 
Q 2163 3669 2039 3770 
Q 1916 3872 1756 3872 
z
" transform="scale(0.015625)"/>
      <path id="Arial-BoldMT-29" d="M 216 -1347 
Q 475 -791 581 -494 
Q 688 -197 778 190 
Q 869 578 912 926 
Q 956 1275 956 1641 
Q 956 2384 797 3048 
Q 638 3713 209 4659 
L 806 4659 
Q 1278 3988 1539 3234 
Q 1800 2481 1800 1706 
Q 1800 1053 1594 306 
Q 1359 -531 822 -1347 
L 216 -1347 
z
" transform="scale(0.015625)"/>
     </defs>
     <use xlink:href="#Arial-BoldMT-28"/>
     <use xlink:href="#Arial-BoldMT-36" x="33.300781"/>
     <use xlink:href="#Arial-BoldMT-2f" x="88.916016"/>
     <use xlink:href="#Arial-BoldMT-31" x="116.699219"/>
     <use xlink:href="#Arial-BoldMT-30" x="172.314453"/>
     <use xlink:href="#Arial-BoldMT-29" x="227.929688"/>
    </g>
   </g>
   <g id="text_9">
    <!-- 0.6 -->
    <g style="fill: #ffffff" transform="translate(78.536227 142.140188) scale(0.14 -0.14)">
     <defs>
      <path id="Arial-BoldMT-2e" d="M 459 0 
L 459 878 
L 1338 878 
L 1338 0 
L 459 0 
z
" transform="scale(0.015625)"/>
     </defs>
     <use xlink:href="#Arial-BoldMT-30"/>
     <use xlink:href="#Arial-BoldMT-2e" x="55.615234"/>
     <use xlink:href="#Arial-BoldMT-36" x="83.398438"/>
    </g>
   </g>
   <g id="text_10">
    <!-- (5/11) -->
    <g style="fill: #ffffff" transform="translate(141.328512 191.824406) scale(0.13 -0.13)">
     <defs>
      <path id="Arial-BoldMT-35" d="M 284 1178 
L 1159 1269 
Q 1197 972 1381 798 
Q 1566 625 1806 625 
Q 2081 625 2272 848 
Q 2463 1072 2463 1522 
Q 2463 1944 2273 2155 
Q 2084 2366 1781 2366 
Q 1403 2366 1103 2031 
L 391 2134 
L 841 4519 
L 3163 4519 
L 3163 3697 
L 1506 3697 
L 1369 2919 
Q 1663 3066 1969 3066 
Q 2553 3066 2959 2641 
Q 3366 2216 3366 1538 
Q 3366 972 3038 528 
Q 2591 -78 1797 -78 
Q 1163 -78 763 262 
Q 363 603 284 1178 
z
" transform="scale(0.015625)"/>
     </defs>
     <use xlink:href="#Arial-BoldMT-28"/>
     <use xlink:href="#Arial-BoldMT-35" x="33.300781"/>
     <use xlink:href="#Arial-BoldMT-2f" x="88.916016"/>
     <use xlink:href="#Arial-BoldMT-31" x="116.699219"/>
     <use xlink:href="#Arial-BoldMT-31" x="166.814453"/>
     <use xlink:href="#Arial-BoldMT-29" x="222.429688"/>
    </g>
   </g>
   <g id="text_11">
    <!-- 0.45 -->
    <g style="fill: #ffffff" transform="translate(144.326559 171.934687) scale(0.14 -0.14)">
     <defs>
      <path id="Arial-BoldMT-34" d="M 1994 0 
L 1994 922 
L 119 922 
L 119 1691 
L 2106 4600 
L 2844 4600 
L 2844 1694 
L 3413 1694 
L 3413 922 
L 2844 922 
L 2844 0 
L 1994 0 
z
M 1994 1694 
L 1994 3259 
L 941 1694 
L 1994 1694 
z
" transform="scale(0.015625)"/>
     </defs>
     <use xlink:href="#Arial-BoldMT-30"/>
     <use xlink:href="#Arial-BoldMT-2e" x="55.615234"/>
     <use xlink:href="#Arial-BoldMT-34" x="83.398438"/>
     <use xlink:href="#Arial-BoldMT-35" x="139.013672"/>
    </g>
   </g>
  </g>
  <g id="axes_2">
   <g id="patch_7">
    <path d="M 274.790404 244.218 
L 412.762721 244.218 
L 412.762721 45.588 
L 274.790404 45.588 
L 274.790404 244.218 
z
" style="fill: none"/>
   </g>
   <g id="patch_8">
    <path d="M 281.061873 244.218 
L 336.808264 244.218 
L 336.808264 154.8345 
L 281.061873 154.8345 
z
" clip-path="url(#p9f86425753)" style="fill: #3288bd"/>
   </g>
   <g id="patch_9">
    <path d="M 350.744861 244.218 
L 406.491252 244.218 
L 406.491252 95.2455 
L 350.744861 95.2455 
z
" clip-path="url(#p9f86425753)" style="fill: #d53e4f"/>
   </g>
   <g id="matplotlib.axis_3">
    <g id="xtick_3">
     <g id="line2d_9">
      <g>
       <use xlink:href="#m8b85b4c859" x="308.935068" y="244.218" style="stroke: #000000; stroke-width: 0.8"/>
      </g>
     </g>
    </g>
    <g id="xtick_4">
     <g id="line2d_10">
      <g>
       <use xlink:href="#m8b85b4c859" x="378.618057" y="244.218" style="stroke: #000000; stroke-width: 0.8"/>
      </g>
     </g>
    </g>
   </g>
   <g id="matplotlib.axis_4">
    <g id="ytick_7">
     <g id="line2d_11">
      <g>
       <use xlink:href="#md2e7c17d44" x="274.790404" y="244.218" style="stroke: #000000; stroke-width: 0.8"/>
      </g>
     </g>
     <g id="text_12">
      <!-- 0.0 -->
      <g transform="translate(248.330404 249.228469) scale(0.14 -0.14)">
       <use xlink:href="#ArialMT-30"/>
       <use xlink:href="#ArialMT-2e" x="55.615234"/>
       <use xlink:href="#ArialMT-30" x="83.398438"/>
      </g>
     </g>
    </g>
    <g id="ytick_8">
     <g id="line2d_12">
      <g>
       <use xlink:href="#md2e7c17d44" x="274.790404" y="204.492" style="stroke: #000000; stroke-width: 0.8"/>
      </g>
     </g>
     <g id="text_13">
      <!-- 0.2 -->
      <g transform="translate(248.330404 209.502469) scale(0.14 -0.14)">
       <use xlink:href="#ArialMT-30"/>
       <use xlink:href="#ArialMT-2e" x="55.615234"/>
       <use xlink:href="#ArialMT-32" x="83.398438"/>
      </g>
     </g>
    </g>
    <g id="ytick_9">
     <g id="line2d_13">
      <g>
       <use xlink:href="#md2e7c17d44" x="274.790404" y="164.766" style="stroke: #000000; stroke-width: 0.8"/>
      </g>
     </g>
     <g id="text_14">
      <!-- 0.4 -->
      <g transform="translate(248.330404 169.776469) scale(0.14 -0.14)">
       <use xlink:href="#ArialMT-30"/>
       <use xlink:href="#ArialMT-2e" x="55.615234"/>
       <use xlink:href="#ArialMT-34" x="83.398438"/>
      </g>
     </g>
    </g>
    <g id="ytick_10">
     <g id="line2d_14">
      <g>
       <use xlink:href="#md2e7c17d44" x="274.790404" y="125.04" style="stroke: #000000; stroke-width: 0.8"/>
      </g>
     </g>
     <g id="text_15">
      <!-- 0.6 -->
      <g transform="translate(248.330404 130.050469) scale(0.14 -0.14)">
       <use xlink:href="#ArialMT-30"/>
       <use xlink:href="#ArialMT-2e" x="55.615234"/>
       <use xlink:href="#ArialMT-36" x="83.398438"/>
      </g>
     </g>
    </g>
    <g id="ytick_11">
     <g id="line2d_15">
      <g>
       <use xlink:href="#md2e7c17d44" x="274.790404" y="85.314" style="stroke: #000000; stroke-width: 0.8"/>
      </g>
     </g>
     <g id="text_16">
      <!-- 0.8 -->
      <g transform="translate(248.330404 90.324469) scale(0.14 -0.14)">
       <use xlink:href="#ArialMT-30"/>
       <use xlink:href="#ArialMT-2e" x="55.615234"/>
       <use xlink:href="#ArialMT-38" x="83.398438"/>
      </g>
     </g>
    </g>
    <g id="ytick_12">
     <g id="line2d_16">
      <g>
       <use xlink:href="#md2e7c17d44" x="274.790404" y="45.588" style="stroke: #000000; stroke-width: 0.8"/>
      </g>
     </g>
     <g id="text_17">
      <!-- 1.0 -->
      <g transform="translate(248.330404 50.598469) scale(0.14 -0.14)">
       <use xlink:href="#ArialMT-31"/>
       <use xlink:href="#ArialMT-2e" x="55.615234"/>
       <use xlink:href="#ArialMT-30" x="83.398438"/>
      </g>
     </g>
    </g>
   </g>
   <g id="patch_10">
    <path d="M 274.790404 244.218 
L 274.790404 45.588 
" style="fill: none; stroke: #000000; stroke-width: 0.8; stroke-linejoin: miter; stroke-linecap: square"/>
   </g>
   <g id="patch_11">
    <path d="M 274.790404 244.218 
L 412.762721 244.218 
" style="fill: none; stroke: #000000; stroke-width: 0.8; stroke-linejoin: miter; stroke-linecap: square"/>
   </g>
   <g id="text_18">
    <!-- (14/31) -->
    <g style="fill: #ffffff" transform="translate(288.342256 191.824406) scale(0.13 -0.13)">
     <defs>
      <path id="Arial-BoldMT-33" d="M 241 1216 
L 1091 1319 
Q 1131 994 1309 822 
Q 1488 650 1741 650 
Q 2013 650 2198 856 
Q 2384 1063 2384 1413 
Q 2384 1744 2206 1937 
Q 2028 2131 1772 2131 
Q 1603 2131 1369 2066 
L 1466 2781 
Q 1822 2772 2009 2936 
Q 2197 3100 2197 3372 
Q 2197 3603 2059 3740 
Q 1922 3878 1694 3878 
Q 1469 3878 1309 3722 
Q 1150 3566 1116 3266 
L 306 3403 
Q 391 3819 561 4067 
Q 731 4316 1036 4458 
Q 1341 4600 1719 4600 
Q 2366 4600 2756 4188 
Q 3078 3850 3078 3425 
Q 3078 2822 2419 2463 
Q 2813 2378 3048 2084 
Q 3284 1791 3284 1375 
Q 3284 772 2843 347 
Q 2403 -78 1747 -78 
Q 1125 -78 715 280 
Q 306 638 241 1216 
z
" transform="scale(0.015625)"/>
     </defs>
     <use xlink:href="#Arial-BoldMT-28"/>
     <use xlink:href="#Arial-BoldMT-31" x="33.300781"/>
     <use xlink:href="#Arial-BoldMT-34" x="88.916016"/>
     <use xlink:href="#Arial-BoldMT-2f" x="144.53125"/>
     <use xlink:href="#Arial-BoldMT-33" x="172.314453"/>
     <use xlink:href="#Arial-BoldMT-31" x="227.929688"/>
     <use xlink:href="#Arial-BoldMT-29" x="283.544922"/>
    </g>
   </g>
   <g id="text_19">
    <!-- 0.45 -->
    <g style="fill: #ffffff" transform="translate(295.312412 171.934687) scale(0.14 -0.14)">
     <use xlink:href="#Arial-BoldMT-30"/>
     <use xlink:href="#Arial-BoldMT-2e" x="55.615234"/>
     <use xlink:href="#Arial-BoldMT-34" x="83.398438"/>
     <use xlink:href="#Arial-BoldMT-35" x="139.013672"/>
    </g>
   </g>
   <g id="text_20">
    <!-- (44/59) -->
    <g style="fill: #ffffff" transform="translate(358.025244 132.235406) scale(0.13 -0.13)">
     <defs>
      <path id="Arial-BoldMT-39" d="M 291 1059 
L 1141 1153 
Q 1172 894 1303 769 
Q 1434 644 1650 644 
Q 1922 644 2112 894 
Q 2303 1144 2356 1931 
Q 2025 1547 1528 1547 
Q 988 1547 595 1964 
Q 203 2381 203 3050 
Q 203 3747 617 4173 
Q 1031 4600 1672 4600 
Q 2369 4600 2816 4061 
Q 3263 3522 3263 2288 
Q 3263 1031 2797 475 
Q 2331 -81 1584 -81 
Q 1047 -81 715 205 
Q 384 491 291 1059 
z
M 2278 2978 
Q 2278 3403 2083 3637 
Q 1888 3872 1631 3872 
Q 1388 3872 1227 3680 
Q 1066 3488 1066 3050 
Q 1066 2606 1241 2398 
Q 1416 2191 1678 2191 
Q 1931 2191 2104 2391 
Q 2278 2591 2278 2978 
z
" transform="scale(0.015625)"/>
     </defs>
     <use xlink:href="#Arial-BoldMT-28"/>
     <use xlink:href="#Arial-BoldMT-34" x="33.300781"/>
     <use xlink:href="#Arial-BoldMT-34" x="88.916016"/>
     <use xlink:href="#Arial-BoldMT-2f" x="144.53125"/>
     <use xlink:href="#Arial-BoldMT-35" x="172.314453"/>
     <use xlink:href="#Arial-BoldMT-39" x="227.929688"/>
     <use xlink:href="#Arial-BoldMT-29" x="283.544922"/>
    </g>
   </g>
   <g id="text_21">
    <!-- 0.75 -->
    <g style="fill: #ffffff" transform="translate(364.995401 112.345687) scale(0.14 -0.14)">
     <defs>
      <path id="Arial-BoldMT-37" d="M 272 3703 
L 272 4519 
L 3275 4519 
L 3275 3881 
Q 2903 3516 2518 2831 
Q 2134 2147 1932 1376 
Q 1731 606 1734 0 
L 888 0 
Q 909 950 1279 1937 
Q 1650 2925 2269 3703 
L 272 3703 
z
" transform="scale(0.015625)"/>
     </defs>
     <use xlink:href="#Arial-BoldMT-30"/>
     <use xlink:href="#Arial-BoldMT-2e" x="55.615234"/>
     <use xlink:href="#Arial-BoldMT-37" x="83.398438"/>
     <use xlink:href="#Arial-BoldMT-35" x="139.013672"/>
    </g>
   </g>
   <g id="text_22">
    <!-- Including Hypermutants -->
    <g transform="translate(203.888193 21.515625) scale(0.2 -0.2)">
     <defs>
      <path id="ArialMT-49" d="M 597 0 
L 597 4581 
L 1203 4581 
L 1203 0 
L 597 0 
z
" transform="scale(0.015625)"/>
      <path id="ArialMT-63" d="M 2588 1216 
L 3141 1144 
Q 3050 572 2676 248 
Q 2303 -75 1759 -75 
Q 1078 -75 664 370 
Q 250 816 250 1647 
Q 250 2184 428 2587 
Q 606 2991 970 3192 
Q 1334 3394 1763 3394 
Q 2303 3394 2647 3120 
Q 2991 2847 3088 2344 
L 2541 2259 
Q 2463 2594 2264 2762 
Q 2066 2931 1784 2931 
Q 1359 2931 1093 2626 
Q 828 2322 828 1663 
Q 828 994 1084 691 
Q 1341 388 1753 388 
Q 2084 388 2306 591 
Q 2528 794 2588 1216 
z
" transform="scale(0.015625)"/>
      <path id="ArialMT-6c" d="M 409 0 
L 409 4581 
L 972 4581 
L 972 0 
L 409 0 
z
" transform="scale(0.015625)"/>
      <path id="ArialMT-64" d="M 2575 0 
L 2575 419 
Q 2259 -75 1647 -75 
Q 1250 -75 917 144 
Q 584 363 401 755 
Q 219 1147 219 1656 
Q 219 2153 384 2558 
Q 550 2963 881 3178 
Q 1213 3394 1622 3394 
Q 1922 3394 2156 3267 
Q 2391 3141 2538 2938 
L 2538 4581 
L 3097 4581 
L 3097 0 
L 2575 0 
z
M 797 1656 
Q 797 1019 1065 703 
Q 1334 388 1700 388 
Q 2069 388 2326 689 
Q 2584 991 2584 1609 
Q 2584 2291 2321 2609 
Q 2059 2928 1675 2928 
Q 1300 2928 1048 2622 
Q 797 2316 797 1656 
z
" transform="scale(0.015625)"/>
      <path id="ArialMT-67" d="M 319 -275 
L 866 -356 
Q 900 -609 1056 -725 
Q 1266 -881 1628 -881 
Q 2019 -881 2231 -725 
Q 2444 -569 2519 -288 
Q 2563 -116 2559 434 
Q 2191 0 1641 0 
Q 956 0 581 494 
Q 206 988 206 1678 
Q 206 2153 378 2554 
Q 550 2956 876 3175 
Q 1203 3394 1644 3394 
Q 2231 3394 2613 2919 
L 2613 3319 
L 3131 3319 
L 3131 450 
Q 3131 -325 2973 -648 
Q 2816 -972 2473 -1159 
Q 2131 -1347 1631 -1347 
Q 1038 -1347 672 -1080 
Q 306 -813 319 -275 
z
M 784 1719 
Q 784 1066 1043 766 
Q 1303 466 1694 466 
Q 2081 466 2343 764 
Q 2606 1063 2606 1700 
Q 2606 2309 2336 2618 
Q 2066 2928 1684 2928 
Q 1309 2928 1046 2623 
Q 784 2319 784 1719 
z
" transform="scale(0.015625)"/>
      <path id="ArialMT-48" d="M 513 0 
L 513 4581 
L 1119 4581 
L 1119 2700 
L 3500 2700 
L 3500 4581 
L 4106 4581 
L 4106 0 
L 3500 0 
L 3500 2159 
L 1119 2159 
L 1119 0 
L 513 0 
z
" transform="scale(0.015625)"/>
      <path id="ArialMT-79" d="M 397 -1278 
L 334 -750 
Q 519 -800 656 -800 
Q 844 -800 956 -737 
Q 1069 -675 1141 -563 
Q 1194 -478 1313 -144 
Q 1328 -97 1363 -6 
L 103 3319 
L 709 3319 
L 1400 1397 
Q 1534 1031 1641 628 
Q 1738 1016 1872 1384 
L 2581 3319 
L 3144 3319 
L 1881 -56 
Q 1678 -603 1566 -809 
Q 1416 -1088 1222 -1217 
Q 1028 -1347 759 -1347 
Q 597 -1347 397 -1278 
z
" transform="scale(0.015625)"/>
      <path id="ArialMT-70" d="M 422 -1272 
L 422 3319 
L 934 3319 
L 934 2888 
Q 1116 3141 1344 3267 
Q 1572 3394 1897 3394 
Q 2322 3394 2647 3175 
Q 2972 2956 3137 2557 
Q 3303 2159 3303 1684 
Q 3303 1175 3120 767 
Q 2938 359 2589 142 
Q 2241 -75 1856 -75 
Q 1575 -75 1351 44 
Q 1128 163 984 344 
L 984 -1272 
L 422 -1272 
z
M 931 1641 
Q 931 1000 1190 694 
Q 1450 388 1819 388 
Q 2194 388 2461 705 
Q 2728 1022 2728 1688 
Q 2728 2322 2467 2637 
Q 2206 2953 1844 2953 
Q 1484 2953 1207 2617 
Q 931 2281 931 1641 
z
" transform="scale(0.015625)"/>
      <path id="ArialMT-61" d="M 2588 409 
Q 2275 144 1986 34 
Q 1697 -75 1366 -75 
Q 819 -75 525 192 
Q 231 459 231 875 
Q 231 1119 342 1320 
Q 453 1522 633 1644 
Q 813 1766 1038 1828 
Q 1203 1872 1538 1913 
Q 2219 1994 2541 2106 
Q 2544 2222 2544 2253 
Q 2544 2597 2384 2738 
Q 2169 2928 1744 2928 
Q 1347 2928 1158 2789 
Q 969 2650 878 2297 
L 328 2372 
Q 403 2725 575 2942 
Q 747 3159 1072 3276 
Q 1397 3394 1825 3394 
Q 2250 3394 2515 3294 
Q 2781 3194 2906 3042 
Q 3031 2891 3081 2659 
Q 3109 2516 3109 2141 
L 3109 1391 
Q 3109 606 3145 398 
Q 3181 191 3288 0 
L 2700 0 
Q 2613 175 2588 409 
z
M 2541 1666 
Q 2234 1541 1622 1453 
Q 1275 1403 1131 1340 
Q 988 1278 909 1158 
Q 831 1038 831 891 
Q 831 666 1001 516 
Q 1172 366 1500 366 
Q 1825 366 2078 508 
Q 2331 650 2450 897 
Q 2541 1088 2541 1459 
L 2541 1666 
z
" transform="scale(0.015625)"/>
     </defs>
     <use xlink:href="#ArialMT-49"/>
     <use xlink:href="#ArialMT-6e" x="27.783203"/>
     <use xlink:href="#ArialMT-63" x="83.398438"/>
     <use xlink:href="#ArialMT-6c" x="133.398438"/>
     <use xlink:href="#ArialMT-75" x="155.615234"/>
     <use xlink:href="#ArialMT-64" x="211.230469"/>
     <use xlink:href="#ArialMT-69" x="266.845703"/>
     <use xlink:href="#ArialMT-6e" x="289.0625"/>
     <use xlink:href="#ArialMT-67" x="344.677734"/>
     <use xlink:href="#ArialMT-20" x="400.292969"/>
     <use xlink:href="#ArialMT-48" x="428.076172"/>
     <use xlink:href="#ArialMT-79" x="500.292969"/>
     <use xlink:href="#ArialMT-70" x="550.292969"/>
     <use xlink:href="#ArialMT-65" x="605.908203"/>
     <use xlink:href="#ArialMT-72" x="661.523438"/>
     <use xlink:href="#ArialMT-6d" x="694.824219"/>
     <use xlink:href="#ArialMT-75" x="778.125"/>
     <use xlink:href="#ArialMT-74" x="833.740234"/>
     <use xlink:href="#ArialMT-61" x="861.523438"/>
     <use xlink:href="#ArialMT-6e" x="917.138672"/>
     <use xlink:href="#ArialMT-74" x="972.753906"/>
     <use xlink:href="#ArialMT-73" x="1000.537109"/>
    </g>
   </g>
  </g>
  <g id="axes_3">
   <g id="patch_12">
    <path d="M 495.459245 244.218 
L 633.431562 244.218 
L 633.431562 45.588 
L 495.459245 45.588 
L 495.459245 244.218 
z
" style="fill: none"/>
   </g>
   <g id="patch_13">
    <path d="M 501.730714 244.218 
L 557.477105 244.218 
L 557.477105 146.8893 
L 501.730714 146.8893 
z
" clip-path="url(#p90c6d04162)" style="fill: #3288bd"/>
   </g>
   <g id="patch_14">
    <path d="M 571.413703 244.218 
L 627.160094 244.218 
L 627.160094 105.177 
L 571.413703 105.177 
z
" clip-path="url(#p90c6d04162)" style="fill: #d53e4f"/>
   </g>
   <g id="matplotlib.axis_5">
    <g id="xtick_5">
     <g id="line2d_17">
      <g>
       <use xlink:href="#m8b85b4c859" x="529.60391" y="244.218" style="stroke: #000000; stroke-width: 0.8"/>
      </g>
     </g>
    </g>
    <g id="xtick_6">
     <g id="line2d_18">
      <g>
       <use xlink:href="#m8b85b4c859" x="599.286898" y="244.218" style="stroke: #000000; stroke-width: 0.8"/>
      </g>
     </g>
    </g>
   </g>
   <g id="matplotlib.axis_6">
    <g id="ytick_13">
     <g id="line2d_19">
      <g>
       <use xlink:href="#md2e7c17d44" x="495.459245" y="244.218" style="stroke: #000000; stroke-width: 0.8"/>
      </g>
     </g>
     <g id="text_23">
      <!-- 0.0 -->
      <g transform="translate(468.999245 249.228469) scale(0.14 -0.14)">
       <use xlink:href="#ArialMT-30"/>
       <use xlink:href="#ArialMT-2e" x="55.615234"/>
       <use xlink:href="#ArialMT-30" x="83.398438"/>
      </g>
     </g>
    </g>
    <g id="ytick_14">
     <g id="line2d_20">
      <g>
       <use xlink:href="#md2e7c17d44" x="495.459245" y="204.492" style="stroke: #000000; stroke-width: 0.8"/>
      </g>
     </g>
     <g id="text_24">
      <!-- 0.2 -->
      <g transform="translate(468.999245 209.502469) scale(0.14 -0.14)">
       <use xlink:href="#ArialMT-30"/>
       <use xlink:href="#ArialMT-2e" x="55.615234"/>
       <use xlink:href="#ArialMT-32" x="83.398438"/>
      </g>
     </g>
    </g>
    <g id="ytick_15">
     <g id="line2d_21">
      <g>
       <use xlink:href="#md2e7c17d44" x="495.459245" y="164.766" style="stroke: #000000; stroke-width: 0.8"/>
      </g>
     </g>
     <g id="text_25">
      <!-- 0.4 -->
      <g transform="translate(468.999245 169.776469) scale(0.14 -0.14)">
       <use xlink:href="#ArialMT-30"/>
       <use xlink:href="#ArialMT-2e" x="55.615234"/>
       <use xlink:href="#ArialMT-34" x="83.398438"/>
      </g>
     </g>
    </g>
    <g id="ytick_16">
     <g id="line2d_22">
      <g>
       <use xlink:href="#md2e7c17d44" x="495.459245" y="125.04" style="stroke: #000000; stroke-width: 0.8"/>
      </g>
     </g>
     <g id="text_26">
      <!-- 0.6 -->
      <g transform="translate(468.999245 130.050469) scale(0.14 -0.14)">
       <use xlink:href="#ArialMT-30"/>
       <use xlink:href="#ArialMT-2e" x="55.615234"/>
       <use xlink:href="#ArialMT-36" x="83.398438"/>
      </g>
     </g>
    </g>
    <g id="ytick_17">
     <g id="line2d_23">
      <g>
       <use xlink:href="#md2e7c17d44" x="495.459245" y="85.314" style="stroke: #000000; stroke-width: 0.8"/>
      </g>
     </g>
     <g id="text_27">
      <!-- 0.8 -->
      <g transform="translate(468.999245 90.324469) scale(0.14 -0.14)">
       <use xlink:href="#ArialMT-30"/>
       <use xlink:href="#ArialMT-2e" x="55.615234"/>
       <use xlink:href="#ArialMT-38" x="83.398438"/>
      </g>
     </g>
    </g>
    <g id="ytick_18">
     <g id="line2d_24">
      <g>
       <use xlink:href="#md2e7c17d44" x="495.459245" y="45.588" style="stroke: #000000; stroke-width: 0.8"/>
      </g>
     </g>
     <g id="text_28">
      <!-- 1.0 -->
      <g transform="translate(468.999245 50.598469) scale(0.14 -0.14)">
       <use xlink:href="#ArialMT-31"/>
       <use xlink:href="#ArialMT-2e" x="55.615234"/>
       <use xlink:href="#ArialMT-30" x="83.398438"/>
      </g>
     </g>
    </g>
   </g>
   <g id="patch_15">
    <path d="M 495.459245 244.218 
L 495.459245 45.588 
" style="fill: none; stroke: #000000; stroke-width: 0.8; stroke-linejoin: miter; stroke-linecap: square"/>
   </g>
   <g id="patch_16">
    <path d="M 495.459245 244.218 
L 633.431562 244.218 
" style="fill: none; stroke: #000000; stroke-width: 0.8; stroke-linejoin: miter; stroke-linecap: square"/>
   </g>
   <g id="text_29">
    <!-- (20/41) -->
    <g style="fill: #ffffff" transform="translate(509.011097 183.879206) scale(0.13 -0.13)">
     <defs>
      <path id="Arial-BoldMT-32" d="M 3238 816 
L 3238 0 
L 159 0 
Q 209 463 459 877 
Q 709 1291 1447 1975 
Q 2041 2528 2175 2725 
Q 2356 2997 2356 3263 
Q 2356 3556 2198 3714 
Q 2041 3872 1763 3872 
Q 1488 3872 1325 3706 
Q 1163 3541 1138 3156 
L 263 3244 
Q 341 3969 753 4284 
Q 1166 4600 1784 4600 
Q 2463 4600 2850 4234 
Q 3238 3869 3238 3325 
Q 3238 3016 3127 2736 
Q 3016 2456 2775 2150 
Q 2616 1947 2200 1565 
Q 1784 1184 1673 1059 
Q 1563 934 1494 816 
L 3238 816 
z
" transform="scale(0.015625)"/>
     </defs>
     <use xlink:href="#Arial-BoldMT-28"/>
     <use xlink:href="#Arial-BoldMT-32" x="33.300781"/>
     <use xlink:href="#Arial-BoldMT-30" x="88.916016"/>
     <use xlink:href="#Arial-BoldMT-2f" x="144.53125"/>
     <use xlink:href="#Arial-BoldMT-34" x="172.314453"/>
     <use xlink:href="#Arial-BoldMT-31" x="227.929688"/>
     <use xlink:href="#Arial-BoldMT-29" x="283.544922"/>
    </g>
   </g>
   <g id="text_30">
    <!-- 0.49 -->
    <g style="fill: #ffffff" transform="translate(515.981253 163.989487) scale(0.14 -0.14)">
     <use xlink:href="#Arial-BoldMT-30"/>
     <use xlink:href="#Arial-BoldMT-2e" x="55.615234"/>
     <use xlink:href="#Arial-BoldMT-34" x="83.398438"/>
     <use xlink:href="#Arial-BoldMT-39" x="139.013672"/>
    </g>
   </g>
   <g id="text_31">
    <!-- (49/70) -->
    <g style="fill: #ffffff" transform="translate(578.694086 142.166906) scale(0.13 -0.13)">
     <use xlink:href="#Arial-BoldMT-28"/>
     <use xlink:href="#Arial-BoldMT-34" x="33.300781"/>
     <use xlink:href="#Arial-BoldMT-39" x="88.916016"/>
     <use xlink:href="#Arial-BoldMT-2f" x="144.53125"/>
     <use xlink:href="#Arial-BoldMT-37" x="172.314453"/>
     <use xlink:href="#Arial-BoldMT-30" x="227.929688"/>
     <use xlink:href="#Arial-BoldMT-29" x="283.544922"/>
    </g>
   </g>
   <g id="text_32">
    <!-- 0.7 -->
    <g style="fill: #ffffff" transform="translate(589.556898 122.277187) scale(0.14 -0.14)">
     <use xlink:href="#Arial-BoldMT-30"/>
     <use xlink:href="#Arial-BoldMT-2e" x="55.615234"/>
     <use xlink:href="#Arial-BoldMT-37" x="83.398438"/>
    </g>
   </g>
  </g>
  <g id="axes_4">
   <g id="patch_17">
    <path d="M 54.121563 500.538 
L 192.09388 500.538 
L 192.09388 301.908 
L 54.121563 301.908 
L 54.121563 500.538 
z
" style="fill: none"/>
   </g>
   <g id="patch_18">
    <path d="M 60.393031 500.538 
L 116.139422 500.538 
L 116.139422 367.4559 
L 60.393031 367.4559 
z
" clip-path="url(#p10acd09786)" style="fill: #3288bd"/>
   </g>
   <g id="patch_19">
    <path d="M 130.07602 500.538 
L 185.822411 500.538 
L 185.822411 401.223 
L 130.07602 401.223 
z
" clip-path="url(#p10acd09786)" style="fill: #d53e4f"/>
   </g>
   <g id="matplotlib.axis_7">
    <g id="xtick_7">
     <g id="line2d_25">
      <g>
       <use xlink:href="#m8b85b4c859" x="88.266227" y="500.538" style="stroke: #000000; stroke-width: 0.8"/>
      </g>
     </g>
     <g id="text_33">
      <!-- Signature -->
      <g transform="translate(62.583414 516.273625) scale(0.12 -0.12)">
       <defs>
        <path id="ArialMT-53" d="M 288 1472 
L 859 1522 
Q 900 1178 1048 958 
Q 1197 738 1509 602 
Q 1822 466 2213 466 
Q 2559 466 2825 569 
Q 3091 672 3220 851 
Q 3350 1031 3350 1244 
Q 3350 1459 3225 1620 
Q 3100 1781 2813 1891 
Q 2628 1963 1997 2114 
Q 1366 2266 1113 2400 
Q 784 2572 623 2826 
Q 463 3081 463 3397 
Q 463 3744 659 4045 
Q 856 4347 1234 4503 
Q 1613 4659 2075 4659 
Q 2584 4659 2973 4495 
Q 3363 4331 3572 4012 
Q 3781 3694 3797 3291 
L 3216 3247 
Q 3169 3681 2898 3903 
Q 2628 4125 2100 4125 
Q 1550 4125 1298 3923 
Q 1047 3722 1047 3438 
Q 1047 3191 1225 3031 
Q 1400 2872 2139 2705 
Q 2878 2538 3153 2413 
Q 3553 2228 3743 1945 
Q 3934 1663 3934 1294 
Q 3934 928 3725 604 
Q 3516 281 3123 101 
Q 2731 -78 2241 -78 
Q 1619 -78 1198 103 
Q 778 284 539 648 
Q 300 1013 288 1472 
z
" transform="scale(0.015625)"/>
       </defs>
       <use xlink:href="#ArialMT-53"/>
       <use xlink:href="#ArialMT-69" x="66.699219"/>
       <use xlink:href="#ArialMT-67" x="88.916016"/>
       <use xlink:href="#ArialMT-6e" x="144.53125"/>
       <use xlink:href="#ArialMT-61" x="200.146484"/>
       <use xlink:href="#ArialMT-74" x="255.761719"/>
       <use xlink:href="#ArialMT-75" x="283.544922"/>
       <use xlink:href="#ArialMT-72" x="339.160156"/>
       <use xlink:href="#ArialMT-65" x="372.460938"/>
      </g>
      <!-- Negative -->
      <g transform="translate(64.586852 529.1065) scale(0.12 -0.12)">
       <defs>
        <path id="ArialMT-4e" d="M 488 0 
L 488 4581 
L 1109 4581 
L 3516 984 
L 3516 4581 
L 4097 4581 
L 4097 0 
L 3475 0 
L 1069 3600 
L 1069 0 
L 488 0 
z
" transform="scale(0.015625)"/>
       </defs>
       <use xlink:href="#ArialMT-4e"/>
       <use xlink:href="#ArialMT-65" x="72.216797"/>
       <use xlink:href="#ArialMT-67" x="127.832031"/>
       <use xlink:href="#ArialMT-61" x="183.447266"/>
       <use xlink:href="#ArialMT-74" x="239.0625"/>
       <use xlink:href="#ArialMT-69" x="266.845703"/>
       <use xlink:href="#ArialMT-76" x="289.0625"/>
       <use xlink:href="#ArialMT-65" x="339.0625"/>
      </g>
     </g>
    </g>
    <g id="xtick_8">
     <g id="line2d_26">
      <g>
       <use xlink:href="#m8b85b4c859" x="157.949215" y="500.538" style="stroke: #000000; stroke-width: 0.8"/>
      </g>
     </g>
     <g id="text_34">
      <!-- Signature -->
      <g transform="translate(132.266403 516.273625) scale(0.12 -0.12)">
       <use xlink:href="#ArialMT-53"/>
       <use xlink:href="#ArialMT-69" x="66.699219"/>
       <use xlink:href="#ArialMT-67" x="88.916016"/>
       <use xlink:href="#ArialMT-6e" x="144.53125"/>
       <use xlink:href="#ArialMT-61" x="200.146484"/>
       <use xlink:href="#ArialMT-74" x="255.761719"/>
       <use xlink:href="#ArialMT-75" x="283.544922"/>
       <use xlink:href="#ArialMT-72" x="339.160156"/>
       <use xlink:href="#ArialMT-65" x="372.460938"/>
      </g>
      <!-- Positive -->
      <g transform="translate(136.940778 529.1065) scale(0.12 -0.12)">
       <defs>
        <path id="ArialMT-50" d="M 494 0 
L 494 4581 
L 2222 4581 
Q 2678 4581 2919 4538 
Q 3256 4481 3484 4323 
Q 3713 4166 3852 3881 
Q 3991 3597 3991 3256 
Q 3991 2672 3619 2267 
Q 3247 1863 2275 1863 
L 1100 1863 
L 1100 0 
L 494 0 
z
M 1100 2403 
L 2284 2403 
Q 2872 2403 3119 2622 
Q 3366 2841 3366 3238 
Q 3366 3525 3220 3729 
Q 3075 3934 2838 4000 
Q 2684 4041 2272 4041 
L 1100 4041 
L 1100 2403 
z
" transform="scale(0.015625)"/>
       </defs>
       <use xlink:href="#ArialMT-50"/>
       <use xlink:href="#ArialMT-6f" x="66.699219"/>
       <use xlink:href="#ArialMT-73" x="122.314453"/>
       <use xlink:href="#ArialMT-69" x="172.314453"/>
       <use xlink:href="#ArialMT-74" x="194.53125"/>
       <use xlink:href="#ArialMT-69" x="222.314453"/>
       <use xlink:href="#ArialMT-76" x="244.53125"/>
       <use xlink:href="#ArialMT-65" x="294.53125"/>
      </g>
     </g>
    </g>
   </g>
   <g id="matplotlib.axis_8">
    <g id="ytick_19">
     <g id="line2d_27">
      <g>
       <use xlink:href="#md2e7c17d44" x="54.121563" y="500.538" style="stroke: #000000; stroke-width: 0.8"/>
      </g>
     </g>
     <g id="text_35">
      <!-- 0.0 -->
      <g transform="translate(27.661563 505.548469) scale(0.14 -0.14)">
       <use xlink:href="#ArialMT-30"/>
       <use xlink:href="#ArialMT-2e" x="55.615234"/>
       <use xlink:href="#ArialMT-30" x="83.398438"/>
      </g>
     </g>
    </g>
    <g id="ytick_20">
     <g id="line2d_28">
      <g>
       <use xlink:href="#md2e7c17d44" x="54.121563" y="460.812" style="stroke: #000000; stroke-width: 0.8"/>
      </g>
     </g>
     <g id="text_36">
      <!-- 0.2 -->
      <g transform="translate(27.661563 465.822469) scale(0.14 -0.14)">
       <use xlink:href="#ArialMT-30"/>
       <use xlink:href="#ArialMT-2e" x="55.615234"/>
       <use xlink:href="#ArialMT-32" x="83.398438"/>
      </g>
     </g>
    </g>
    <g id="ytick_21">
     <g id="line2d_29">
      <g>
       <use xlink:href="#md2e7c17d44" x="54.121563" y="421.086" style="stroke: #000000; stroke-width: 0.8"/>
      </g>
     </g>
     <g id="text_37">
      <!-- 0.4 -->
      <g transform="translate(27.661563 426.096469) scale(0.14 -0.14)">
       <use xlink:href="#ArialMT-30"/>
       <use xlink:href="#ArialMT-2e" x="55.615234"/>
       <use xlink:href="#ArialMT-34" x="83.398438"/>
      </g>
     </g>
    </g>
    <g id="ytick_22">
     <g id="line2d_30">
      <g>
       <use xlink:href="#md2e7c17d44" x="54.121563" y="381.36" style="stroke: #000000; stroke-width: 0.8"/>
      </g>
     </g>
     <g id="text_38">
      <!-- 0.6 -->
      <g transform="translate(27.661563 386.370469) scale(0.14 -0.14)">
       <use xlink:href="#ArialMT-30"/>
       <use xlink:href="#ArialMT-2e" x="55.615234"/>
       <use xlink:href="#ArialMT-36" x="83.398438"/>
      </g>
     </g>
    </g>
    <g id="ytick_23">
     <g id="line2d_31">
      <g>
       <use xlink:href="#md2e7c17d44" x="54.121563" y="341.634" style="stroke: #000000; stroke-width: 0.8"/>
      </g>
     </g>
     <g id="text_39">
      <!-- 0.8 -->
      <g transform="translate(27.661563 346.644469) scale(0.14 -0.14)">
       <use xlink:href="#ArialMT-30"/>
       <use xlink:href="#ArialMT-2e" x="55.615234"/>
       <use xlink:href="#ArialMT-38" x="83.398438"/>
      </g>
     </g>
    </g>
    <g id="ytick_24">
     <g id="line2d_32">
      <g>
       <use xlink:href="#md2e7c17d44" x="54.121563" y="301.908" style="stroke: #000000; stroke-width: 0.8"/>
      </g>
     </g>
     <g id="text_40">
      <!-- 1.0 -->
      <g transform="translate(27.661563 306.918469) scale(0.14 -0.14)">
       <use xlink:href="#ArialMT-31"/>
       <use xlink:href="#ArialMT-2e" x="55.615234"/>
       <use xlink:href="#ArialMT-30" x="83.398438"/>
      </g>
     </g>
    </g>
    <g id="text_41">
     <!-- Driver Events / Tumour -->
     <g transform="translate(20.084063 493.245188) rotate(-90) scale(0.18 -0.18)">
      <use xlink:href="#ArialMT-44"/>
      <use xlink:href="#ArialMT-72" x="72.216797"/>
      <use xlink:href="#ArialMT-69" x="105.517578"/>
      <use xlink:href="#ArialMT-76" x="127.734375"/>
      <use xlink:href="#ArialMT-65" x="177.734375"/>
      <use xlink:href="#ArialMT-72" x="233.349609"/>
      <use xlink:href="#ArialMT-20" x="266.650391"/>
      <use xlink:href="#ArialMT-45" x="294.433594"/>
      <use xlink:href="#ArialMT-76" x="361.132812"/>
      <use xlink:href="#ArialMT-65" x="411.132812"/>
      <use xlink:href="#ArialMT-6e" x="466.748047"/>
      <use xlink:href="#ArialMT-74" x="522.363281"/>
      <use xlink:href="#ArialMT-73" x="550.146484"/>
      <use xlink:href="#ArialMT-20" x="600.146484"/>
      <use xlink:href="#ArialMT-2f" x="627.929688"/>
      <use xlink:href="#ArialMT-20" x="655.712891"/>
      <use xlink:href="#ArialMT-54" x="681.746094"/>
      <use xlink:href="#ArialMT-75" x="739.080078"/>
      <use xlink:href="#ArialMT-6d" x="794.695312"/>
      <use xlink:href="#ArialMT-6f" x="877.996094"/>
      <use xlink:href="#ArialMT-75" x="933.611328"/>
      <use xlink:href="#ArialMT-72" x="989.226562"/>
     </g>
    </g>
   </g>
   <g id="patch_20">
    <path d="M 54.121563 500.538 
L 54.121563 301.908 
" style="fill: none; stroke: #000000; stroke-width: 0.8; stroke-linejoin: miter; stroke-linecap: square"/>
   </g>
   <g id="patch_21">
    <path d="M 54.121563 500.538 
L 192.09388 500.538 
" style="fill: none; stroke: #000000; stroke-width: 0.8; stroke-linejoin: miter; stroke-linecap: square"/>
   </g>
   <g id="text_42">
    <!-- (6/9) -->
    <g style="fill: #ffffff" transform="translate(74.902633 404.445806) scale(0.13 -0.13)">
     <use xlink:href="#Arial-BoldMT-28"/>
     <use xlink:href="#Arial-BoldMT-36" x="33.300781"/>
     <use xlink:href="#Arial-BoldMT-2f" x="88.916016"/>
     <use xlink:href="#Arial-BoldMT-39" x="116.699219"/>
     <use xlink:href="#Arial-BoldMT-29" x="172.314453"/>
    </g>
   </g>
   <g id="text_43">
    <!-- 0.67 -->
    <g style="fill: #ffffff" transform="translate(74.643571 384.556088) scale(0.14 -0.14)">
     <use xlink:href="#Arial-BoldMT-30"/>
     <use xlink:href="#Arial-BoldMT-2e" x="55.615234"/>
     <use xlink:href="#Arial-BoldMT-36" x="83.398438"/>
     <use xlink:href="#Arial-BoldMT-37" x="139.013672"/>
    </g>
   </g>
   <g id="text_44">
    <!-- (5/10) -->
    <g style="fill: #ffffff" transform="translate(140.971012 438.212906) scale(0.13 -0.13)">
     <use xlink:href="#Arial-BoldMT-28"/>
     <use xlink:href="#Arial-BoldMT-35" x="33.300781"/>
     <use xlink:href="#Arial-BoldMT-2f" x="88.916016"/>
     <use xlink:href="#Arial-BoldMT-31" x="116.699219"/>
     <use xlink:href="#Arial-BoldMT-30" x="172.314453"/>
     <use xlink:href="#Arial-BoldMT-29" x="227.929688"/>
    </g>
   </g>
   <g id="text_45">
    <!-- 0.5 -->
    <g style="fill: #ffffff" transform="translate(148.219215 418.323188) scale(0.14 -0.14)">
     <use xlink:href="#Arial-BoldMT-30"/>
     <use xlink:href="#Arial-BoldMT-2e" x="55.615234"/>
     <use xlink:href="#Arial-BoldMT-35" x="83.398438"/>
    </g>
   </g>
   <g id="text_46">
    <!-- Primary-Treated -->
    <g transform="translate(58.437096 556.338562) scale(0.18 -0.18)">
     <defs>
      <path id="ArialMT-2d" d="M 203 1375 
L 203 1941 
L 1931 1941 
L 1931 1375 
L 203 1375 
z
" transform="scale(0.015625)"/>
     </defs>
     <use xlink:href="#ArialMT-50"/>
     <use xlink:href="#ArialMT-72" x="66.699219"/>
     <use xlink:href="#ArialMT-69" x="100"/>
     <use xlink:href="#ArialMT-6d" x="122.216797"/>
     <use xlink:href="#ArialMT-61" x="205.517578"/>
     <use xlink:href="#ArialMT-72" x="261.132812"/>
     <use xlink:href="#ArialMT-79" x="294.433594"/>
     <use xlink:href="#ArialMT-2d" x="344.433594"/>
     <use xlink:href="#ArialMT-54" x="377.734375"/>
     <use xlink:href="#ArialMT-72" x="435.068359"/>
     <use xlink:href="#ArialMT-65" x="468.369141"/>
     <use xlink:href="#ArialMT-61" x="523.984375"/>
     <use xlink:href="#ArialMT-74" x="579.599609"/>
     <use xlink:href="#ArialMT-65" x="607.382812"/>
     <use xlink:href="#ArialMT-64" x="662.998047"/>
    </g>
   </g>
  </g>
  <g id="axes_5">
   <g id="patch_22">
    <path d="M 274.790404 500.538 
L 412.762721 500.538 
L 412.762721 301.908 
L 274.790404 301.908 
L 274.790404 500.538 
z
" style="fill: none"/>
   </g>
   <g id="patch_23">
    <path d="M 281.061873 500.538 
L 336.808264 500.538 
L 336.808264 458.8257 
L 281.061873 458.8257 
z
" clip-path="url(#p899fb3e3d7)" style="fill: #3288bd"/>
   </g>
   <g id="patch_24">
    <path d="M 350.744861 500.538 
L 406.491252 500.538 
L 406.491252 409.1682 
L 350.744861 409.1682 
z
" clip-path="url(#p899fb3e3d7)" style="fill: #d53e4f"/>
   </g>
   <g id="matplotlib.axis_9">
    <g id="xtick_9">
     <g id="line2d_33">
      <g>
       <use xlink:href="#m8b85b4c859" x="308.935068" y="500.538" style="stroke: #000000; stroke-width: 0.8"/>
      </g>
     </g>
     <g id="text_47">
      <!-- Signature -->
      <g transform="translate(283.252256 516.273625) scale(0.12 -0.12)">
       <use xlink:href="#ArialMT-53"/>
       <use xlink:href="#ArialMT-69" x="66.699219"/>
       <use xlink:href="#ArialMT-67" x="88.916016"/>
       <use xlink:href="#ArialMT-6e" x="144.53125"/>
       <use xlink:href="#ArialMT-61" x="200.146484"/>
       <use xlink:href="#ArialMT-74" x="255.761719"/>
       <use xlink:href="#ArialMT-75" x="283.544922"/>
       <use xlink:href="#ArialMT-72" x="339.160156"/>
       <use xlink:href="#ArialMT-65" x="372.460938"/>
      </g>
      <!-- Negative -->
      <g transform="translate(285.255693 529.1065) scale(0.12 -0.12)">
       <use xlink:href="#ArialMT-4e"/>
       <use xlink:href="#ArialMT-65" x="72.216797"/>
       <use xlink:href="#ArialMT-67" x="127.832031"/>
       <use xlink:href="#ArialMT-61" x="183.447266"/>
       <use xlink:href="#ArialMT-74" x="239.0625"/>
       <use xlink:href="#ArialMT-69" x="266.845703"/>
       <use xlink:href="#ArialMT-76" x="289.0625"/>
       <use xlink:href="#ArialMT-65" x="339.0625"/>
      </g>
     </g>
    </g>
    <g id="xtick_10">
     <g id="line2d_34">
      <g>
       <use xlink:href="#m8b85b4c859" x="378.618057" y="500.538" style="stroke: #000000; stroke-width: 0.8"/>
      </g>
     </g>
     <g id="text_48">
      <!-- Signature -->
      <g transform="translate(352.935244 516.273625) scale(0.12 -0.12)">
       <use xlink:href="#ArialMT-53"/>
       <use xlink:href="#ArialMT-69" x="66.699219"/>
       <use xlink:href="#ArialMT-67" x="88.916016"/>
       <use xlink:href="#ArialMT-6e" x="144.53125"/>
       <use xlink:href="#ArialMT-61" x="200.146484"/>
       <use xlink:href="#ArialMT-74" x="255.761719"/>
       <use xlink:href="#ArialMT-75" x="283.544922"/>
       <use xlink:href="#ArialMT-72" x="339.160156"/>
       <use xlink:href="#ArialMT-65" x="372.460938"/>
      </g>
      <!-- Positive -->
      <g transform="translate(357.609619 529.1065) scale(0.12 -0.12)">
       <use xlink:href="#ArialMT-50"/>
       <use xlink:href="#ArialMT-6f" x="66.699219"/>
       <use xlink:href="#ArialMT-73" x="122.314453"/>
       <use xlink:href="#ArialMT-69" x="172.314453"/>
       <use xlink:href="#ArialMT-74" x="194.53125"/>
       <use xlink:href="#ArialMT-69" x="222.314453"/>
       <use xlink:href="#ArialMT-76" x="244.53125"/>
       <use xlink:href="#ArialMT-65" x="294.53125"/>
      </g>
     </g>
    </g>
   </g>
   <g id="matplotlib.axis_10">
    <g id="ytick_25">
     <g id="line2d_35">
      <g>
       <use xlink:href="#md2e7c17d44" x="274.790404" y="500.538" style="stroke: #000000; stroke-width: 0.8"/>
      </g>
     </g>
     <g id="text_49">
      <!-- 0.0 -->
      <g transform="translate(248.330404 505.548469) scale(0.14 -0.14)">
       <use xlink:href="#ArialMT-30"/>
       <use xlink:href="#ArialMT-2e" x="55.615234"/>
       <use xlink:href="#ArialMT-30" x="83.398438"/>
      </g>
     </g>
    </g>
    <g id="ytick_26">
     <g id="line2d_36">
      <g>
       <use xlink:href="#md2e7c17d44" x="274.790404" y="460.812" style="stroke: #000000; stroke-width: 0.8"/>
      </g>
     </g>
     <g id="text_50">
      <!-- 0.2 -->
      <g transform="translate(248.330404 465.822469) scale(0.14 -0.14)">
       <use xlink:href="#ArialMT-30"/>
       <use xlink:href="#ArialMT-2e" x="55.615234"/>
       <use xlink:href="#ArialMT-32" x="83.398438"/>
      </g>
     </g>
    </g>
    <g id="ytick_27">
     <g id="line2d_37">
      <g>
       <use xlink:href="#md2e7c17d44" x="274.790404" y="421.086" style="stroke: #000000; stroke-width: 0.8"/>
      </g>
     </g>
     <g id="text_51">
      <!-- 0.4 -->
      <g transform="translate(248.330404 426.096469) scale(0.14 -0.14)">
       <use xlink:href="#ArialMT-30"/>
       <use xlink:href="#ArialMT-2e" x="55.615234"/>
       <use xlink:href="#ArialMT-34" x="83.398438"/>
      </g>
     </g>
    </g>
    <g id="ytick_28">
     <g id="line2d_38">
      <g>
       <use xlink:href="#md2e7c17d44" x="274.790404" y="381.36" style="stroke: #000000; stroke-width: 0.8"/>
      </g>
     </g>
     <g id="text_52">
      <!-- 0.6 -->
      <g transform="translate(248.330404 386.370469) scale(0.14 -0.14)">
       <use xlink:href="#ArialMT-30"/>
       <use xlink:href="#ArialMT-2e" x="55.615234"/>
       <use xlink:href="#ArialMT-36" x="83.398438"/>
      </g>
     </g>
    </g>
    <g id="ytick_29">
     <g id="line2d_39">
      <g>
       <use xlink:href="#md2e7c17d44" x="274.790404" y="341.634" style="stroke: #000000; stroke-width: 0.8"/>
      </g>
     </g>
     <g id="text_53">
      <!-- 0.8 -->
      <g transform="translate(248.330404 346.644469) scale(0.14 -0.14)">
       <use xlink:href="#ArialMT-30"/>
       <use xlink:href="#ArialMT-2e" x="55.615234"/>
       <use xlink:href="#ArialMT-38" x="83.398438"/>
      </g>
     </g>
    </g>
    <g id="ytick_30">
     <g id="line2d_40">
      <g>
       <use xlink:href="#md2e7c17d44" x="274.790404" y="301.908" style="stroke: #000000; stroke-width: 0.8"/>
      </g>
     </g>
     <g id="text_54">
      <!-- 1.0 -->
      <g transform="translate(248.330404 306.918469) scale(0.14 -0.14)">
       <use xlink:href="#ArialMT-31"/>
       <use xlink:href="#ArialMT-2e" x="55.615234"/>
       <use xlink:href="#ArialMT-30" x="83.398438"/>
      </g>
     </g>
    </g>
   </g>
   <g id="patch_25">
    <path d="M 274.790404 500.538 
L 274.790404 301.908 
" style="fill: none; stroke: #000000; stroke-width: 0.8; stroke-linejoin: miter; stroke-linecap: square"/>
   </g>
   <g id="patch_26">
    <path d="M 274.790404 500.538 
L 412.762721 500.538 
" style="fill: none; stroke: #000000; stroke-width: 0.8; stroke-linejoin: miter; stroke-linecap: square"/>
   </g>
   <g id="text_55">
    <!-- (6/28) -->
    <g style="fill: #ffffff" transform="translate(291.956865 495.815606) scale(0.13 -0.13)">
     <defs>
      <path id="Arial-BoldMT-38" d="M 1025 2472 
Q 684 2616 529 2867 
Q 375 3119 375 3419 
Q 375 3931 733 4265 
Q 1091 4600 1750 4600 
Q 2403 4600 2764 4265 
Q 3125 3931 3125 3419 
Q 3125 3100 2959 2851 
Q 2794 2603 2494 2472 
Q 2875 2319 3073 2025 
Q 3272 1731 3272 1347 
Q 3272 713 2867 316 
Q 2463 -81 1791 -81 
Q 1166 -81 750 247 
Q 259 634 259 1309 
Q 259 1681 443 1992 
Q 628 2303 1025 2472 
z
M 1206 3356 
Q 1206 3094 1354 2947 
Q 1503 2800 1750 2800 
Q 2000 2800 2150 2948 
Q 2300 3097 2300 3359 
Q 2300 3606 2151 3754 
Q 2003 3903 1759 3903 
Q 1506 3903 1356 3753 
Q 1206 3603 1206 3356 
z
M 1125 1394 
Q 1125 1031 1311 828 
Q 1497 625 1775 625 
Q 2047 625 2225 820 
Q 2403 1016 2403 1384 
Q 2403 1706 2222 1901 
Q 2041 2097 1763 2097 
Q 1441 2097 1283 1875 
Q 1125 1653 1125 1394 
z
" transform="scale(0.015625)"/>
     </defs>
     <use xlink:href="#Arial-BoldMT-28"/>
     <use xlink:href="#Arial-BoldMT-36" x="33.300781"/>
     <use xlink:href="#Arial-BoldMT-2f" x="88.916016"/>
     <use xlink:href="#Arial-BoldMT-32" x="116.699219"/>
     <use xlink:href="#Arial-BoldMT-38" x="172.314453"/>
     <use xlink:href="#Arial-BoldMT-29" x="227.929688"/>
    </g>
   </g>
   <g id="text_56">
    <!-- 0.21 -->
    <g style="fill: #ffffff" transform="translate(295.312412 475.925888) scale(0.14 -0.14)">
     <use xlink:href="#Arial-BoldMT-30"/>
     <use xlink:href="#Arial-BoldMT-2e" x="55.615234"/>
     <use xlink:href="#Arial-BoldMT-32" x="83.398438"/>
     <use xlink:href="#Arial-BoldMT-31" x="139.013672"/>
    </g>
   </g>
   <g id="text_57">
    <!-- (26/56) -->
    <g style="fill: #ffffff" transform="translate(358.025244 446.158106) scale(0.13 -0.13)">
     <use xlink:href="#Arial-BoldMT-28"/>
     <use xlink:href="#Arial-BoldMT-32" x="33.300781"/>
     <use xlink:href="#Arial-BoldMT-36" x="88.916016"/>
     <use xlink:href="#Arial-BoldMT-2f" x="144.53125"/>
     <use xlink:href="#Arial-BoldMT-35" x="172.314453"/>
     <use xlink:href="#Arial-BoldMT-36" x="227.929688"/>
     <use xlink:href="#Arial-BoldMT-29" x="283.544922"/>
    </g>
   </g>
   <g id="text_58">
    <!-- 0.46 -->
    <g style="fill: #ffffff" transform="translate(364.995401 426.268388) scale(0.14 -0.14)">
     <use xlink:href="#Arial-BoldMT-30"/>
     <use xlink:href="#Arial-BoldMT-2e" x="55.615234"/>
     <use xlink:href="#Arial-BoldMT-34" x="83.398438"/>
     <use xlink:href="#Arial-BoldMT-36" x="139.013672"/>
    </g>
   </g>
   <g id="text_59">
    <!-- Excluding Hypermutants -->
    <g transform="translate(200.556943 277.835625) scale(0.2 -0.2)">
     <defs>
      <path id="ArialMT-78" d="M 47 0 
L 1259 1725 
L 138 3319 
L 841 3319 
L 1350 2541 
Q 1494 2319 1581 2169 
Q 1719 2375 1834 2534 
L 2394 3319 
L 3066 3319 
L 1919 1756 
L 3153 0 
L 2463 0 
L 1781 1031 
L 1600 1309 
L 728 0 
L 47 0 
z
" transform="scale(0.015625)"/>
     </defs>
     <use xlink:href="#ArialMT-45"/>
     <use xlink:href="#ArialMT-78" x="66.699219"/>
     <use xlink:href="#ArialMT-63" x="116.699219"/>
     <use xlink:href="#ArialMT-6c" x="166.699219"/>
     <use xlink:href="#ArialMT-75" x="188.916016"/>
     <use xlink:href="#ArialMT-64" x="244.53125"/>
     <use xlink:href="#ArialMT-69" x="300.146484"/>
     <use xlink:href="#ArialMT-6e" x="322.363281"/>
     <use xlink:href="#ArialMT-67" x="377.978516"/>
     <use xlink:href="#ArialMT-20" x="433.59375"/>
     <use xlink:href="#ArialMT-48" x="461.376953"/>
     <use xlink:href="#ArialMT-79" x="533.59375"/>
     <use xlink:href="#ArialMT-70" x="583.59375"/>
     <use xlink:href="#ArialMT-65" x="639.208984"/>
     <use xlink:href="#ArialMT-72" x="694.824219"/>
     <use xlink:href="#ArialMT-6d" x="728.125"/>
     <use xlink:href="#ArialMT-75" x="811.425781"/>
     <use xlink:href="#ArialMT-74" x="867.041016"/>
     <use xlink:href="#ArialMT-61" x="894.824219"/>
     <use xlink:href="#ArialMT-6e" x="950.439453"/>
     <use xlink:href="#ArialMT-74" x="1006.054688"/>
     <use xlink:href="#ArialMT-73" x="1033.837891"/>
    </g>
   </g>
   <g id="text_60">
    <!-- Advanced-Treated -->
    <g transform="translate(270.076406 556.5495) scale(0.18 -0.18)">
     <defs>
      <path id="ArialMT-41" d="M -9 0 
L 1750 4581 
L 2403 4581 
L 4278 0 
L 3588 0 
L 3053 1388 
L 1138 1388 
L 634 0 
L -9 0 
z
M 1313 1881 
L 2866 1881 
L 2388 3150 
Q 2169 3728 2063 4100 
Q 1975 3659 1816 3225 
L 1313 1881 
z
" transform="scale(0.015625)"/>
     </defs>
     <use xlink:href="#ArialMT-41"/>
     <use xlink:href="#ArialMT-64" x="66.699219"/>
     <use xlink:href="#ArialMT-76" x="122.314453"/>
     <use xlink:href="#ArialMT-61" x="172.314453"/>
     <use xlink:href="#ArialMT-6e" x="227.929688"/>
     <use xlink:href="#ArialMT-63" x="283.544922"/>
     <use xlink:href="#ArialMT-65" x="333.544922"/>
     <use xlink:href="#ArialMT-64" x="389.160156"/>
     <use xlink:href="#ArialMT-2d" x="444.775391"/>
     <use xlink:href="#ArialMT-54" x="478.076172"/>
     <use xlink:href="#ArialMT-72" x="535.410156"/>
     <use xlink:href="#ArialMT-65" x="568.710938"/>
     <use xlink:href="#ArialMT-61" x="624.326172"/>
     <use xlink:href="#ArialMT-74" x="679.941406"/>
     <use xlink:href="#ArialMT-65" x="707.724609"/>
     <use xlink:href="#ArialMT-64" x="763.339844"/>
    </g>
   </g>
  </g>
  <g id="axes_6">
   <g id="patch_27">
    <path d="M 495.459245 500.538 
L 633.431562 500.538 
L 633.431562 301.908 
L 495.459245 301.908 
L 495.459245 500.538 
z
" style="fill: none"/>
   </g>
   <g id="patch_28">
    <path d="M 501.730714 500.538 
L 557.477105 500.538 
L 557.477105 436.9764 
L 501.730714 436.9764 
z
" clip-path="url(#p13828a5dd2)" style="fill: #3288bd"/>
   </g>
   <g id="patch_29">
    <path d="M 571.413703 500.538 
L 627.160094 500.538 
L 627.160094 407.1819 
L 571.413703 407.1819 
z
" clip-path="url(#p13828a5dd2)" style="fill: #d53e4f"/>
   </g>
   <g id="matplotlib.axis_11">
    <g id="xtick_11">
     <g id="line2d_41">
      <g>
       <use xlink:href="#m8b85b4c859" x="529.60391" y="500.538" style="stroke: #000000; stroke-width: 0.8"/>
      </g>
     </g>
     <g id="text_61">
      <!-- Signature -->
      <g transform="translate(503.921097 516.273625) scale(0.12 -0.12)">
       <use xlink:href="#ArialMT-53"/>
       <use xlink:href="#ArialMT-69" x="66.699219"/>
       <use xlink:href="#ArialMT-67" x="88.916016"/>
       <use xlink:href="#ArialMT-6e" x="144.53125"/>
       <use xlink:href="#ArialMT-61" x="200.146484"/>
       <use xlink:href="#ArialMT-74" x="255.761719"/>
       <use xlink:href="#ArialMT-75" x="283.544922"/>
       <use xlink:href="#ArialMT-72" x="339.160156"/>
       <use xlink:href="#ArialMT-65" x="372.460938"/>
      </g>
      <!-- Negative -->
      <g transform="translate(505.924535 529.1065) scale(0.12 -0.12)">
       <use xlink:href="#ArialMT-4e"/>
       <use xlink:href="#ArialMT-65" x="72.216797"/>
       <use xlink:href="#ArialMT-67" x="127.832031"/>
       <use xlink:href="#ArialMT-61" x="183.447266"/>
       <use xlink:href="#ArialMT-74" x="239.0625"/>
       <use xlink:href="#ArialMT-69" x="266.845703"/>
       <use xlink:href="#ArialMT-76" x="289.0625"/>
       <use xlink:href="#ArialMT-65" x="339.0625"/>
      </g>
     </g>
    </g>
    <g id="xtick_12">
     <g id="line2d_42">
      <g>
       <use xlink:href="#m8b85b4c859" x="599.286898" y="500.538" style="stroke: #000000; stroke-width: 0.8"/>
      </g>
     </g>
     <g id="text_62">
      <!-- Signature -->
      <g transform="translate(573.604086 516.273625) scale(0.12 -0.12)">
       <use xlink:href="#ArialMT-53"/>
       <use xlink:href="#ArialMT-69" x="66.699219"/>
       <use xlink:href="#ArialMT-67" x="88.916016"/>
       <use xlink:href="#ArialMT-6e" x="144.53125"/>
       <use xlink:href="#ArialMT-61" x="200.146484"/>
       <use xlink:href="#ArialMT-74" x="255.761719"/>
       <use xlink:href="#ArialMT-75" x="283.544922"/>
       <use xlink:href="#ArialMT-72" x="339.160156"/>
       <use xlink:href="#ArialMT-65" x="372.460938"/>
      </g>
      <!-- Positive -->
      <g transform="translate(578.278461 529.1065) scale(0.12 -0.12)">
       <use xlink:href="#ArialMT-50"/>
       <use xlink:href="#ArialMT-6f" x="66.699219"/>
       <use xlink:href="#ArialMT-73" x="122.314453"/>
       <use xlink:href="#ArialMT-69" x="172.314453"/>
       <use xlink:href="#ArialMT-74" x="194.53125"/>
       <use xlink:href="#ArialMT-69" x="222.314453"/>
       <use xlink:href="#ArialMT-76" x="244.53125"/>
       <use xlink:href="#ArialMT-65" x="294.53125"/>
      </g>
     </g>
    </g>
   </g>
   <g id="matplotlib.axis_12">
    <g id="ytick_31">
     <g id="line2d_43">
      <g>
       <use xlink:href="#md2e7c17d44" x="495.459245" y="500.538" style="stroke: #000000; stroke-width: 0.8"/>
      </g>
     </g>
     <g id="text_63">
      <!-- 0.0 -->
      <g transform="translate(468.999245 505.548469) scale(0.14 -0.14)">
       <use xlink:href="#ArialMT-30"/>
       <use xlink:href="#ArialMT-2e" x="55.615234"/>
       <use xlink:href="#ArialMT-30" x="83.398438"/>
      </g>
     </g>
    </g>
    <g id="ytick_32">
     <g id="line2d_44">
      <g>
       <use xlink:href="#md2e7c17d44" x="495.459245" y="460.812" style="stroke: #000000; stroke-width: 0.8"/>
      </g>
     </g>
     <g id="text_64">
      <!-- 0.2 -->
      <g transform="translate(468.999245 465.822469) scale(0.14 -0.14)">
       <use xlink:href="#ArialMT-30"/>
       <use xlink:href="#ArialMT-2e" x="55.615234"/>
       <use xlink:href="#ArialMT-32" x="83.398438"/>
      </g>
     </g>
    </g>
    <g id="ytick_33">
     <g id="line2d_45">
      <g>
       <use xlink:href="#md2e7c17d44" x="495.459245" y="421.086" style="stroke: #000000; stroke-width: 0.8"/>
      </g>
     </g>
     <g id="text_65">
      <!-- 0.4 -->
      <g transform="translate(468.999245 426.096469) scale(0.14 -0.14)">
       <use xlink:href="#ArialMT-30"/>
       <use xlink:href="#ArialMT-2e" x="55.615234"/>
       <use xlink:href="#ArialMT-34" x="83.398438"/>
      </g>
     </g>
    </g>
    <g id="ytick_34">
     <g id="line2d_46">
      <g>
       <use xlink:href="#md2e7c17d44" x="495.459245" y="381.36" style="stroke: #000000; stroke-width: 0.8"/>
      </g>
     </g>
     <g id="text_66">
      <!-- 0.6 -->
      <g transform="translate(468.999245 386.370469) scale(0.14 -0.14)">
       <use xlink:href="#ArialMT-30"/>
       <use xlink:href="#ArialMT-2e" x="55.615234"/>
       <use xlink:href="#ArialMT-36" x="83.398438"/>
      </g>
     </g>
    </g>
    <g id="ytick_35">
     <g id="line2d_47">
      <g>
       <use xlink:href="#md2e7c17d44" x="495.459245" y="341.634" style="stroke: #000000; stroke-width: 0.8"/>
      </g>
     </g>
     <g id="text_67">
      <!-- 0.8 -->
      <g transform="translate(468.999245 346.644469) scale(0.14 -0.14)">
       <use xlink:href="#ArialMT-30"/>
       <use xlink:href="#ArialMT-2e" x="55.615234"/>
       <use xlink:href="#ArialMT-38" x="83.398438"/>
      </g>
     </g>
    </g>
    <g id="ytick_36">
     <g id="line2d_48">
      <g>
       <use xlink:href="#md2e7c17d44" x="495.459245" y="301.908" style="stroke: #000000; stroke-width: 0.8"/>
      </g>
     </g>
     <g id="text_68">
      <!-- 1.0 -->
      <g transform="translate(468.999245 306.918469) scale(0.14 -0.14)">
       <use xlink:href="#ArialMT-31"/>
       <use xlink:href="#ArialMT-2e" x="55.615234"/>
       <use xlink:href="#ArialMT-30" x="83.398438"/>
      </g>
     </g>
    </g>
   </g>
   <g id="patch_30">
    <path d="M 495.459245 500.538 
L 495.459245 301.908 
" style="fill: none; stroke: #000000; stroke-width: 0.8; stroke-linejoin: miter; stroke-linecap: square"/>
   </g>
   <g id="patch_31">
    <path d="M 495.459245 500.538 
L 633.431562 500.538 
" style="fill: none; stroke: #000000; stroke-width: 0.8; stroke-linejoin: miter; stroke-linecap: square"/>
   </g>
   <g id="text_69">
    <!-- (12/37) -->
    <g style="fill: #ffffff" transform="translate(509.011097 473.966306) scale(0.13 -0.13)">
     <use xlink:href="#Arial-BoldMT-28"/>
     <use xlink:href="#Arial-BoldMT-31" x="33.300781"/>
     <use xlink:href="#Arial-BoldMT-32" x="88.916016"/>
     <use xlink:href="#Arial-BoldMT-2f" x="144.53125"/>
     <use xlink:href="#Arial-BoldMT-33" x="172.314453"/>
     <use xlink:href="#Arial-BoldMT-37" x="227.929688"/>
     <use xlink:href="#Arial-BoldMT-29" x="283.544922"/>
    </g>
   </g>
   <g id="text_70">
    <!-- 0.32 -->
    <g style="fill: #ffffff" transform="translate(515.981253 454.076588) scale(0.14 -0.14)">
     <use xlink:href="#Arial-BoldMT-30"/>
     <use xlink:href="#Arial-BoldMT-2e" x="55.615234"/>
     <use xlink:href="#Arial-BoldMT-33" x="83.398438"/>
     <use xlink:href="#Arial-BoldMT-32" x="139.013672"/>
    </g>
   </g>
   <g id="text_71">
    <!-- (31/66) -->
    <g style="fill: #ffffff" transform="translate(578.694086 444.171806) scale(0.13 -0.13)">
     <use xlink:href="#Arial-BoldMT-28"/>
     <use xlink:href="#Arial-BoldMT-33" x="33.300781"/>
     <use xlink:href="#Arial-BoldMT-31" x="88.916016"/>
     <use xlink:href="#Arial-BoldMT-2f" x="144.53125"/>
     <use xlink:href="#Arial-BoldMT-36" x="172.314453"/>
     <use xlink:href="#Arial-BoldMT-36" x="227.929688"/>
     <use xlink:href="#Arial-BoldMT-29" x="283.544922"/>
    </g>
   </g>
   <g id="text_72">
    <!-- 0.47 -->
    <g style="fill: #ffffff" transform="translate(585.664242 424.282088) scale(0.14 -0.14)">
     <use xlink:href="#Arial-BoldMT-30"/>
     <use xlink:href="#Arial-BoldMT-2e" x="55.615234"/>
     <use xlink:href="#Arial-BoldMT-34" x="83.398438"/>
     <use xlink:href="#Arial-BoldMT-37" x="139.013672"/>
    </g>
   </g>
   <g id="text_73">
    <!-- Combined -->
    <g transform="translate(523.425091 556.5495) scale(0.18 -0.18)">
     <defs>
      <path id="ArialMT-43" d="M 3763 1606 
L 4369 1453 
Q 4178 706 3683 314 
Q 3188 -78 2472 -78 
Q 1731 -78 1267 223 
Q 803 525 561 1097 
Q 319 1669 319 2325 
Q 319 3041 592 3573 
Q 866 4106 1370 4382 
Q 1875 4659 2481 4659 
Q 3169 4659 3637 4309 
Q 4106 3959 4291 3325 
L 3694 3184 
Q 3534 3684 3231 3912 
Q 2928 4141 2469 4141 
Q 1941 4141 1586 3887 
Q 1231 3634 1087 3207 
Q 944 2781 944 2328 
Q 944 1744 1114 1308 
Q 1284 872 1643 656 
Q 2003 441 2422 441 
Q 2931 441 3284 734 
Q 3638 1028 3763 1606 
z
" transform="scale(0.015625)"/>
      <path id="ArialMT-62" d="M 941 0 
L 419 0 
L 419 4581 
L 981 4581 
L 981 2947 
Q 1338 3394 1891 3394 
Q 2197 3394 2470 3270 
Q 2744 3147 2920 2923 
Q 3097 2700 3197 2384 
Q 3297 2069 3297 1709 
Q 3297 856 2875 390 
Q 2453 -75 1863 -75 
Q 1275 -75 941 416 
L 941 0 
z
M 934 1684 
Q 934 1088 1097 822 
Q 1363 388 1816 388 
Q 2184 388 2453 708 
Q 2722 1028 2722 1663 
Q 2722 2313 2464 2622 
Q 2206 2931 1841 2931 
Q 1472 2931 1203 2611 
Q 934 2291 934 1684 
z
" transform="scale(0.015625)"/>
     </defs>
     <use xlink:href="#ArialMT-43"/>
     <use xlink:href="#ArialMT-6f" x="72.216797"/>
     <use xlink:href="#ArialMT-6d" x="127.832031"/>
     <use xlink:href="#ArialMT-62" x="211.132812"/>
     <use xlink:href="#ArialMT-69" x="266.748047"/>
     <use xlink:href="#ArialMT-6e" x="288.964844"/>
     <use xlink:href="#ArialMT-65" x="344.580078"/>
     <use xlink:href="#ArialMT-64" x="400.195312"/>
    </g>
   </g>
  </g>
 </g>
 <defs>
  <clipPath id="p1f4fa2fdbf">
   <rect x="54.121563" y="45.588" width="137.972317" height="198.63"/>
  </clipPath>
  <clipPath id="p9f86425753">
   <rect x="274.790404" y="45.588" width="137.972317" height="198.63"/>
  </clipPath>
  <clipPath id="p90c6d04162">
   <rect x="495.459245" y="45.588" width="137.972317" height="198.63"/>
  </clipPath>
  <clipPath id="p10acd09786">
   <rect x="54.121563" y="301.908" width="137.972317" height="198.63"/>
  </clipPath>
  <clipPath id="p899fb3e3d7">
   <rect x="274.790404" y="301.908" width="137.972317" height="198.63"/>
  </clipPath>
  <clipPath id="p13828a5dd2">
   <rect x="495.459245" y="301.908" width="137.972317" height="198.63"/>
  </clipPath>
 </defs>
</svg>
