<?xml version="1.0" encoding="utf-8" standalone="no"?>
<!DOCTYPE svg PUBLIC "-//W3C//DTD SVG 1.1//EN"
  "http://www.w3.org/Graphics/SVG/1.1/DTD/svg11.dtd">
<svg xmlns:xlink="http://www.w3.org/1999/xlink" width="574.29pt" height="530.255625pt" viewBox="0 0 574.29 530.255625" xmlns="http://www.w3.org/2000/svg" version="1.1">
 <metadata>
  <rdf:RDF xmlns:dc="http://purl.org/dc/elements/1.1/" xmlns:cc="http://creativecommons.org/ns#" xmlns:rdf="http://www.w3.org/1999/02/22-rdf-syntax-ns#">
   <cc:Work>
    <dc:type rdf:resource="http://purl.org/dc/dcmitype/StillImage"/>
    <dc:date>2026-05-25T11:52:19.592932</dc:date>
    <dc:format>image/svg+xml</dc:format>
    <dc:creator>
     <cc:Agent>
      <dc:title>Matplotlib v3.7.3, https://matplotlib.org/</dc:title>
     </cc:Agent>
    </dc:creator>
   </cc:Work>
  </rdf:RDF>
 </metadata>
 <defs>
  <style type="text/css">*{stroke-linejoin: round; stroke-linecap: butt}</style>
 </defs>
 <g id="figure_1">
  <g id="patch_1">
   <path d="M 0 530.255625 
L 574.29 530.255625 
L 574.29 0 
L 0 0 
L 0 530.255625 
z
" style="fill: none"/>
  </g>
  <g id="axes_1">
   <g id="patch_2">
    <path d="M 54.52 478.654375 
L 499.0739 478.654375 
L 499.0739 27.515625 
L 54.52 27.515625 
L 54.52 478.654375 
z
" style="fill: none"/>
   </g>
   <g id="patch_3">
    <path d="M 74.726995 478.654375 
L 85.362256 478.654375 
L 85.362256 478.654375 
L 74.726995 478.654375 
z
" clip-path="url(#p19289f2eb7)" style="fill: #fa8072; fill-opacity: 0.5; stroke: #fcfcfc; stroke-linejoin: miter"/>
   </g>
   <g id="patch_4">
    <path d="M 85.362256 478.654375 
L 95.997517 478.654375 
L 95.997517 478.654375 
L 85.362256 478.654375 
z
" clip-path="url(#p19289f2eb7)" style="fill: #fa8072; fill-opacity: 0.5; stroke: #fcfcfc; stroke-linejoin: miter"/>
   </g>
   <g id="patch_5">
    <path d="M 95.997517 478.654375 
L 106.632778 478.654375 
L 106.632778 478.654375 
L 95.997517 478.654375 
z
" clip-path="url(#p19289f2eb7)" style="fill: #fa8072; fill-opacity: 0.5; stroke: #fcfcfc; stroke-linejoin: miter"/>
   </g>
   <g id="patch_6">
    <path d="M 106.632778 478.654375 
L 117.268039 478.654375 
L 117.268039 478.654375 
L 106.632778 478.654375 
z
" clip-path="url(#p19289f2eb7)" style="fill: #fa8072; fill-opacity: 0.5; stroke: #fcfcfc; stroke-linejoin: miter"/>
   </g>
   <g id="patch_7">
    <path d="M 117.268039 478.654375 
L 127.903299 478.654375 
L 127.903299 478.654375 
L 117.268039 478.654375 
z
" clip-path="url(#p19289f2eb7)" style="fill: #fa8072; fill-opacity: 0.5; stroke: #fcfcfc; stroke-linejoin: miter"/>
   </g>
   <g id="patch_8">
    <path d="M 127.903299 478.654375 
L 138.53856 478.654375 
L 138.53856 478.654375 
L 127.903299 478.654375 
z
" clip-path="url(#p19289f2eb7)" style="fill: #fa8072; fill-opacity: 0.5; stroke: #fcfcfc; stroke-linejoin: miter"/>
   </g>
   <g id="patch_9">
    <path d="M 138.53856 478.654375 
L 149.173821 478.654375 
L 149.173821 478.654375 
L 138.53856 478.654375 
z
" clip-path="url(#p19289f2eb7)" style="fill: #fa8072; fill-opacity: 0.5; stroke: #fcfcfc; stroke-linejoin: miter"/>
   </g>
   <g id="patch_10">
    <path d="M 149.173821 478.654375 
L 159.809082 478.654375 
L 159.809082 478.654375 
L 149.173821 478.654375 
z
" clip-path="url(#p19289f2eb7)" style="fill: #fa8072; fill-opacity: 0.5; stroke: #fcfcfc; stroke-linejoin: miter"/>
   </g>
   <g id="patch_11">
    <path d="M 159.809082 478.654375 
L 170.444342 478.654375 
L 170.444342 478.654375 
L 159.809082 478.654375 
z
" clip-path="url(#p19289f2eb7)" style="fill: #fa8072; fill-opacity: 0.5; stroke: #fcfcfc; stroke-linejoin: miter"/>
   </g>
   <g id="patch_12">
    <path d="M 170.444342 478.654375 
L 181.079603 478.654375 
L 181.079603 478.654375 
L 170.444342 478.654375 
z
" clip-path="url(#p19289f2eb7)" style="fill: #fa8072; fill-opacity: 0.5; stroke: #fcfcfc; stroke-linejoin: miter"/>
   </g>
   <g id="patch_13">
    <path d="M 181.079603 478.654375 
L 191.714864 478.654375 
L 191.714864 478.654375 
L 181.079603 478.654375 
z
" clip-path="url(#p19289f2eb7)" style="fill: #fa8072; fill-opacity: 0.5; stroke: #fcfcfc; stroke-linejoin: miter"/>
   </g>
   <g id="patch_14">
    <path d="M 191.714864 478.654375 
L 202.350125 478.654375 
L 202.350125 478.654375 
L 191.714864 478.654375 
z
" clip-path="url(#p19289f2eb7)" style="fill: #fa8072; fill-opacity: 0.5; stroke: #fcfcfc; stroke-linejoin: miter"/>
   </g>
   <g id="patch_15">
    <path d="M 202.350125 478.654375 
L 212.985385 478.654375 
L 212.985385 478.654375 
L 202.350125 478.654375 
z
" clip-path="url(#p19289f2eb7)" style="fill: #fa8072; fill-opacity: 0.5; stroke: #fcfcfc; stroke-linejoin: miter"/>
   </g>
   <g id="patch_16">
    <path d="M 212.985385 478.654375 
L 223.620646 478.654375 
L 223.620646 478.654375 
L 212.985385 478.654375 
z
" clip-path="url(#p19289f2eb7)" style="fill: #fa8072; fill-opacity: 0.5; stroke: #fcfcfc; stroke-linejoin: miter"/>
   </g>
   <g id="patch_17">
    <path d="M 223.620646 478.654375 
L 234.255907 478.654375 
L 234.255907 478.654375 
L 223.620646 478.654375 
z
" clip-path="url(#p19289f2eb7)" style="fill: #fa8072; fill-opacity: 0.5; stroke: #fcfcfc; stroke-linejoin: miter"/>
   </g>
   <g id="patch_18">
    <path d="M 234.255907 478.654375 
L 244.891168 478.654375 
L 244.891168 478.654375 
L 234.255907 478.654375 
z
" clip-path="url(#p19289f2eb7)" style="fill: #fa8072; fill-opacity: 0.5; stroke: #fcfcfc; stroke-linejoin: miter"/>
   </g>
   <g id="patch_19">
    <path d="M 244.891168 478.654375 
L 255.526428 478.654375 
L 255.526428 478.654375 
L 244.891168 478.654375 
z
" clip-path="url(#p19289f2eb7)" style="fill: #fa8072; fill-opacity: 0.5; stroke: #fcfcfc; stroke-linejoin: miter"/>
   </g>
   <g id="patch_20">
    <path d="M 255.526428 478.654375 
L 266.161689 478.654375 
L 266.161689 478.654375 
L 255.526428 478.654375 
z
" clip-path="url(#p19289f2eb7)" style="fill: #fa8072; fill-opacity: 0.5; stroke: #fcfcfc; stroke-linejoin: miter"/>
   </g>
   <g id="patch_21">
    <path d="M 266.161689 478.654375 
L 276.79695 478.654375 
L 276.79695 478.654375 
L 266.161689 478.654375 
z
" clip-path="url(#p19289f2eb7)" style="fill: #fa8072; fill-opacity: 0.5; stroke: #fcfcfc; stroke-linejoin: miter"/>
   </g>
   <g id="patch_22">
    <path d="M 276.79695 478.654375 
L 287.432211 478.654375 
L 287.432211 468.999185 
L 276.79695 468.999185 
z
" clip-path="url(#p19289f2eb7)" style="fill: #fa8072; fill-opacity: 0.5; stroke: #fcfcfc; stroke-linejoin: miter"/>
   </g>
   <g id="patch_23">
    <path d="M 287.432211 478.654375 
L 298.067472 478.654375 
L 298.067472 449.688805 
L 287.432211 449.688805 
z
" clip-path="url(#p19289f2eb7)" style="fill: #fa8072; fill-opacity: 0.5; stroke: #fcfcfc; stroke-linejoin: miter"/>
   </g>
   <g id="patch_24">
    <path d="M 298.067472 478.654375 
L 308.702732 478.654375 
L 308.702732 468.999185 
L 298.067472 468.999185 
z
" clip-path="url(#p19289f2eb7)" style="fill: #fa8072; fill-opacity: 0.5; stroke: #fcfcfc; stroke-linejoin: miter"/>
   </g>
   <g id="patch_25">
    <path d="M 308.702732 478.654375 
L 319.337993 478.654375 
L 319.337993 468.999185 
L 308.702732 468.999185 
z
" clip-path="url(#p19289f2eb7)" style="fill: #fa8072; fill-opacity: 0.5; stroke: #fcfcfc; stroke-linejoin: miter"/>
   </g>
   <g id="patch_26">
    <path d="M 319.337993 478.654375 
L 329.973254 478.654375 
L 329.973254 478.654375 
L 319.337993 478.654375 
z
" clip-path="url(#p19289f2eb7)" style="fill: #fa8072; fill-opacity: 0.5; stroke: #fcfcfc; stroke-linejoin: miter"/>
   </g>
   <g id="patch_27">
    <path d="M 329.973254 478.654375 
L 340.608515 478.654375 
L 340.608515 464.17159 
L 329.973254 464.17159 
z
" clip-path="url(#p19289f2eb7)" style="fill: #fa8072; fill-opacity: 0.5; stroke: #fcfcfc; stroke-linejoin: miter"/>
   </g>
   <g id="patch_28">
    <path d="M 340.608515 478.654375 
L 351.243775 478.654375 
L 351.243775 473.82678 
L 340.608515 473.82678 
z
" clip-path="url(#p19289f2eb7)" style="fill: #fa8072; fill-opacity: 0.5; stroke: #fcfcfc; stroke-linejoin: miter"/>
   </g>
   <g id="patch_29">
    <path d="M 351.243775 478.654375 
L 361.879036 478.654375 
L 361.879036 468.999185 
L 351.243775 468.999185 
z
" clip-path="url(#p19289f2eb7)" style="fill: #fa8072; fill-opacity: 0.5; stroke: #fcfcfc; stroke-linejoin: miter"/>
   </g>
   <g id="patch_30">
    <path d="M 361.879036 478.654375 
L 372.514297 478.654375 
L 372.514297 464.17159 
L 361.879036 464.17159 
z
" clip-path="url(#p19289f2eb7)" style="fill: #fa8072; fill-opacity: 0.5; stroke: #fcfcfc; stroke-linejoin: miter"/>
   </g>
   <g id="patch_31">
    <path d="M 372.514297 478.654375 
L 383.149558 478.654375 
L 383.149558 459.343995 
L 372.514297 459.343995 
z
" clip-path="url(#p19289f2eb7)" style="fill: #fa8072; fill-opacity: 0.5; stroke: #fcfcfc; stroke-linejoin: miter"/>
   </g>
   <g id="patch_32">
    <path d="M 383.149558 478.654375 
L 393.784818 478.654375 
L 393.784818 478.654375 
L 383.149558 478.654375 
z
" clip-path="url(#p19289f2eb7)" style="fill: #fa8072; fill-opacity: 0.5; stroke: #fcfcfc; stroke-linejoin: miter"/>
   </g>
   <g id="patch_33">
    <path d="M 393.784818 478.654375 
L 404.420079 478.654375 
L 404.420079 468.999185 
L 393.784818 468.999185 
z
" clip-path="url(#p19289f2eb7)" style="fill: #fa8072; fill-opacity: 0.5; stroke: #fcfcfc; stroke-linejoin: miter"/>
   </g>
   <g id="patch_34">
    <path d="M 404.420079 478.654375 
L 415.05534 478.654375 
L 415.05534 468.999185 
L 404.420079 468.999185 
z
" clip-path="url(#p19289f2eb7)" style="fill: #fa8072; fill-opacity: 0.5; stroke: #fcfcfc; stroke-linejoin: miter"/>
   </g>
   <g id="patch_35">
    <path d="M 415.05534 478.654375 
L 425.690601 478.654375 
L 425.690601 478.654375 
L 415.05534 478.654375 
z
" clip-path="url(#p19289f2eb7)" style="fill: #fa8072; fill-opacity: 0.5; stroke: #fcfcfc; stroke-linejoin: miter"/>
   </g>
   <g id="patch_36">
    <path d="M 425.690601 478.654375 
L 436.325861 478.654375 
L 436.325861 478.654375 
L 425.690601 478.654375 
z
" clip-path="url(#p19289f2eb7)" style="fill: #fa8072; fill-opacity: 0.5; stroke: #fcfcfc; stroke-linejoin: miter"/>
   </g>
   <g id="patch_37">
    <path d="M 436.325861 478.654375 
L 446.961122 478.654375 
L 446.961122 454.5164 
L 436.325861 454.5164 
z
" clip-path="url(#p19289f2eb7)" style="fill: #fa8072; fill-opacity: 0.5; stroke: #fcfcfc; stroke-linejoin: miter"/>
   </g>
   <g id="patch_38">
    <path d="M 446.961122 478.654375 
L 457.596383 478.654375 
L 457.596383 478.654375 
L 446.961122 478.654375 
z
" clip-path="url(#p19289f2eb7)" style="fill: #fa8072; fill-opacity: 0.5; stroke: #fcfcfc; stroke-linejoin: miter"/>
   </g>
   <g id="patch_39">
    <path d="M 457.596383 478.654375 
L 468.231644 478.654375 
L 468.231644 478.654375 
L 457.596383 478.654375 
z
" clip-path="url(#p19289f2eb7)" style="fill: #fa8072; fill-opacity: 0.5; stroke: #fcfcfc; stroke-linejoin: miter"/>
   </g>
   <g id="patch_40">
    <path d="M 468.231644 478.654375 
L 478.866905 478.654375 
L 478.866905 473.82678 
L 468.231644 473.82678 
z
" clip-path="url(#p19289f2eb7)" style="fill: #fa8072; fill-opacity: 0.5; stroke: #fcfcfc; stroke-linejoin: miter"/>
   </g>
   <g id="patch_41">
    <path d="M 74.726995 478.654375 
L 85.362256 478.654375 
L 85.362256 478.654375 
L 74.726995 478.654375 
z
" clip-path="url(#p19289f2eb7)" style="fill: #8fbc8f; fill-opacity: 0.5; stroke: #fcfcfc; stroke-linejoin: miter"/>
   </g>
   <g id="patch_42">
    <path d="M 85.362256 478.654375 
L 95.997517 478.654375 
L 95.997517 478.654375 
L 85.362256 478.654375 
z
" clip-path="url(#p19289f2eb7)" style="fill: #8fbc8f; fill-opacity: 0.5; stroke: #fcfcfc; stroke-linejoin: miter"/>
   </g>
   <g id="patch_43">
    <path d="M 95.997517 478.654375 
L 106.632778 478.654375 
L 106.632778 478.654375 
L 95.997517 478.654375 
z
" clip-path="url(#p19289f2eb7)" style="fill: #8fbc8f; fill-opacity: 0.5; stroke: #fcfcfc; stroke-linejoin: miter"/>
   </g>
   <g id="patch_44">
    <path d="M 106.632778 478.654375 
L 117.268039 478.654375 
L 117.268039 478.654375 
L 106.632778 478.654375 
z
" clip-path="url(#p19289f2eb7)" style="fill: #8fbc8f; fill-opacity: 0.5; stroke: #fcfcfc; stroke-linejoin: miter"/>
   </g>
   <g id="patch_45">
    <path d="M 117.268039 478.654375 
L 127.903299 478.654375 
L 127.903299 478.654375 
L 117.268039 478.654375 
z
" clip-path="url(#p19289f2eb7)" style="fill: #8fbc8f; fill-opacity: 0.5; stroke: #fcfcfc; stroke-linejoin: miter"/>
   </g>
   <g id="patch_46">
    <path d="M 127.903299 478.654375 
L 138.53856 478.654375 
L 138.53856 478.654375 
L 127.903299 478.654375 
z
" clip-path="url(#p19289f2eb7)" style="fill: #8fbc8f; fill-opacity: 0.5; stroke: #fcfcfc; stroke-linejoin: miter"/>
   </g>
   <g id="patch_47">
    <path d="M 138.53856 478.654375 
L 149.173821 478.654375 
L 149.173821 478.654375 
L 138.53856 478.654375 
z
" clip-path="url(#p19289f2eb7)" style="fill: #8fbc8f; fill-opacity: 0.5; stroke: #fcfcfc; stroke-linejoin: miter"/>
   </g>
   <g id="patch_48">
    <path d="M 149.173821 478.654375 
L 159.809082 478.654375 
L 159.809082 478.654375 
L 149.173821 478.654375 
z
" clip-path="url(#p19289f2eb7)" style="fill: #8fbc8f; fill-opacity: 0.5; stroke: #fcfcfc; stroke-linejoin: miter"/>
   </g>
   <g id="patch_49">
    <path d="M 159.809082 478.654375 
L 170.444342 478.654375 
L 170.444342 343.481716 
L 159.809082 343.481716 
z
" clip-path="url(#p19289f2eb7)" style="fill: #8fbc8f; fill-opacity: 0.5; stroke: #fcfcfc; stroke-linejoin: miter"/>
   </g>
   <g id="patch_50">
    <path d="M 170.444342 478.654375 
L 181.079603 478.654375 
L 181.079603 237.274626 
L 170.444342 237.274626 
z
" clip-path="url(#p19289f2eb7)" style="fill: #8fbc8f; fill-opacity: 0.5; stroke: #fcfcfc; stroke-linejoin: miter"/>
   </g>
   <g id="patch_51">
    <path d="M 181.079603 478.654375 
L 191.714864 478.654375 
L 191.714864 174.515892 
L 181.079603 174.515892 
z
" clip-path="url(#p19289f2eb7)" style="fill: #8fbc8f; fill-opacity: 0.5; stroke: #fcfcfc; stroke-linejoin: miter"/>
   </g>
   <g id="patch_52">
    <path d="M 191.714864 478.654375 
L 202.350125 478.654375 
L 202.350125 92.446777 
L 191.714864 92.446777 
z
" clip-path="url(#p19289f2eb7)" style="fill: #8fbc8f; fill-opacity: 0.5; stroke: #fcfcfc; stroke-linejoin: miter"/>
   </g>
   <g id="patch_53">
    <path d="M 202.350125 478.654375 
L 212.985385 478.654375 
L 212.985385 48.998423 
L 202.350125 48.998423 
z
" clip-path="url(#p19289f2eb7)" style="fill: #8fbc8f; fill-opacity: 0.5; stroke: #fcfcfc; stroke-linejoin: miter"/>
   </g>
   <g id="patch_54">
    <path d="M 212.985385 478.654375 
L 223.620646 478.654375 
L 223.620646 184.171082 
L 212.985385 184.171082 
z
" clip-path="url(#p19289f2eb7)" style="fill: #8fbc8f; fill-opacity: 0.5; stroke: #fcfcfc; stroke-linejoin: miter"/>
   </g>
   <g id="patch_55">
    <path d="M 223.620646 478.654375 
L 234.255907 478.654375 
L 234.255907 266.240196 
L 223.620646 266.240196 
z
" clip-path="url(#p19289f2eb7)" style="fill: #8fbc8f; fill-opacity: 0.5; stroke: #fcfcfc; stroke-linejoin: miter"/>
   </g>
   <g id="patch_56">
    <path d="M 234.255907 478.654375 
L 244.891168 478.654375 
L 244.891168 285.550576 
L 234.255907 285.550576 
z
" clip-path="url(#p19289f2eb7)" style="fill: #8fbc8f; fill-opacity: 0.5; stroke: #fcfcfc; stroke-linejoin: miter"/>
   </g>
   <g id="patch_57">
    <path d="M 244.891168 478.654375 
L 255.526428 478.654375 
L 255.526428 396.585261 
L 244.891168 396.585261 
z
" clip-path="url(#p19289f2eb7)" style="fill: #8fbc8f; fill-opacity: 0.5; stroke: #fcfcfc; stroke-linejoin: miter"/>
   </g>
   <g id="patch_58">
    <path d="M 255.526428 478.654375 
L 266.161689 478.654375 
L 266.161689 454.5164 
L 255.526428 454.5164 
z
" clip-path="url(#p19289f2eb7)" style="fill: #8fbc8f; fill-opacity: 0.5; stroke: #fcfcfc; stroke-linejoin: miter"/>
   </g>
   <g id="patch_59">
    <path d="M 266.161689 478.654375 
L 276.79695 478.654375 
L 276.79695 430.378425 
L 266.161689 430.378425 
z
" clip-path="url(#p19289f2eb7)" style="fill: #8fbc8f; fill-opacity: 0.5; stroke: #fcfcfc; stroke-linejoin: miter"/>
   </g>
   <g id="patch_60">
    <path d="M 276.79695 478.654375 
L 287.432211 478.654375 
L 287.432211 478.654375 
L 276.79695 478.654375 
z
" clip-path="url(#p19289f2eb7)" style="fill: #8fbc8f; fill-opacity: 0.5; stroke: #fcfcfc; stroke-linejoin: miter"/>
   </g>
   <g id="patch_61">
    <path d="M 287.432211 478.654375 
L 298.067472 478.654375 
L 298.067472 478.654375 
L 287.432211 478.654375 
z
" clip-path="url(#p19289f2eb7)" style="fill: #8fbc8f; fill-opacity: 0.5; stroke: #fcfcfc; stroke-linejoin: miter"/>
   </g>
   <g id="patch_62">
    <path d="M 298.067472 478.654375 
L 308.702732 478.654375 
L 308.702732 478.654375 
L 298.067472 478.654375 
z
" clip-path="url(#p19289f2eb7)" style="fill: #8fbc8f; fill-opacity: 0.5; stroke: #fcfcfc; stroke-linejoin: miter"/>
   </g>
   <g id="patch_63">
    <path d="M 308.702732 478.654375 
L 319.337993 478.654375 
L 319.337993 478.654375 
L 308.702732 478.654375 
z
" clip-path="url(#p19289f2eb7)" style="fill: #8fbc8f; fill-opacity: 0.5; stroke: #fcfcfc; stroke-linejoin: miter"/>
   </g>
   <g id="patch_64">
    <path d="M 319.337993 478.654375 
L 329.973254 478.654375 
L 329.973254 478.654375 
L 319.337993 478.654375 
z
" clip-path="url(#p19289f2eb7)" style="fill: #8fbc8f; fill-opacity: 0.5; stroke: #fcfcfc; stroke-linejoin: miter"/>
   </g>
   <g id="patch_65">
    <path d="M 329.973254 478.654375 
L 340.608515 478.654375 
L 340.608515 478.654375 
L 329.973254 478.654375 
z
" clip-path="url(#p19289f2eb7)" style="fill: #8fbc8f; fill-opacity: 0.5; stroke: #fcfcfc; stroke-linejoin: miter"/>
   </g>
   <g id="patch_66">
    <path d="M 340.608515 478.654375 
L 351.243775 478.654375 
L 351.243775 478.654375 
L 340.608515 478.654375 
z
" clip-path="url(#p19289f2eb7)" style="fill: #8fbc8f; fill-opacity: 0.5; stroke: #fcfcfc; stroke-linejoin: miter"/>
   </g>
   <g id="patch_67">
    <path d="M 351.243775 478.654375 
L 361.879036 478.654375 
L 361.879036 478.654375 
L 351.243775 478.654375 
z
" clip-path="url(#p19289f2eb7)" style="fill: #8fbc8f; fill-opacity: 0.5; stroke: #fcfcfc; stroke-linejoin: miter"/>
   </g>
   <g id="patch_68">
    <path d="M 361.879036 478.654375 
L 372.514297 478.654375 
L 372.514297 478.654375 
L 361.879036 478.654375 
z
" clip-path="url(#p19289f2eb7)" style="fill: #8fbc8f; fill-opacity: 0.5; stroke: #fcfcfc; stroke-linejoin: miter"/>
   </g>
   <g id="patch_69">
    <path d="M 372.514297 478.654375 
L 383.149558 478.654375 
L 383.149558 478.654375 
L 372.514297 478.654375 
z
" clip-path="url(#p19289f2eb7)" style="fill: #8fbc8f; fill-opacity: 0.5; stroke: #fcfcfc; stroke-linejoin: miter"/>
   </g>
   <g id="patch_70">
    <path d="M 383.149558 478.654375 
L 393.784818 478.654375 
L 393.784818 478.654375 
L 383.149558 478.654375 
z
" clip-path="url(#p19289f2eb7)" style="fill: #8fbc8f; fill-opacity: 0.5; stroke: #fcfcfc; stroke-linejoin: miter"/>
   </g>
   <g id="patch_71">
    <path d="M 393.784818 478.654375 
L 404.420079 478.654375 
L 404.420079 478.654375 
L 393.784818 478.654375 
z
" clip-path="url(#p19289f2eb7)" style="fill: #8fbc8f; fill-opacity: 0.5; stroke: #fcfcfc; stroke-linejoin: miter"/>
   </g>
   <g id="patch_72">
    <path d="M 404.420079 478.654375 
L 415.05534 478.654375 
L 415.05534 478.654375 
L 404.420079 478.654375 
z
" clip-path="url(#p19289f2eb7)" style="fill: #8fbc8f; fill-opacity: 0.5; stroke: #fcfcfc; stroke-linejoin: miter"/>
   </g>
   <g id="patch_73">
    <path d="M 415.05534 478.654375 
L 425.690601 478.654375 
L 425.690601 478.654375 
L 415.05534 478.654375 
z
" clip-path="url(#p19289f2eb7)" style="fill: #8fbc8f; fill-opacity: 0.5; stroke: #fcfcfc; stroke-linejoin: miter"/>
   </g>
   <g id="patch_74">
    <path d="M 425.690601 478.654375 
L 436.325861 478.654375 
L 436.325861 478.654375 
L 425.690601 478.654375 
z
" clip-path="url(#p19289f2eb7)" style="fill: #8fbc8f; fill-opacity: 0.5; stroke: #fcfcfc; stroke-linejoin: miter"/>
   </g>
   <g id="patch_75">
    <path d="M 436.325861 478.654375 
L 446.961122 478.654375 
L 446.961122 478.654375 
L 436.325861 478.654375 
z
" clip-path="url(#p19289f2eb7)" style="fill: #8fbc8f; fill-opacity: 0.5; stroke: #fcfcfc; stroke-linejoin: miter"/>
   </g>
   <g id="patch_76">
    <path d="M 446.961122 478.654375 
L 457.596383 478.654375 
L 457.596383 478.654375 
L 446.961122 478.654375 
z
" clip-path="url(#p19289f2eb7)" style="fill: #8fbc8f; fill-opacity: 0.5; stroke: #fcfcfc; stroke-linejoin: miter"/>
   </g>
   <g id="patch_77">
    <path d="M 457.596383 478.654375 
L 468.231644 478.654375 
L 468.231644 478.654375 
L 457.596383 478.654375 
z
" clip-path="url(#p19289f2eb7)" style="fill: #8fbc8f; fill-opacity: 0.5; stroke: #fcfcfc; stroke-linejoin: miter"/>
   </g>
   <g id="patch_78">
    <path d="M 468.231644 478.654375 
L 478.866905 478.654375 
L 478.866905 478.654375 
L 468.231644 478.654375 
z
" clip-path="url(#p19289f2eb7)" style="fill: #8fbc8f; fill-opacity: 0.5; stroke: #fcfcfc; stroke-linejoin: miter"/>
   </g>
   <g id="patch_79">
    <path d="M 74.726995 478.654375 
L 85.362256 478.654375 
L 85.362256 473.82678 
L 74.726995 473.82678 
z
" clip-path="url(#p19289f2eb7)" style="fill: #4682b4; fill-opacity: 0.5; stroke: #fcfcfc; stroke-linejoin: miter"/>
   </g>
   <g id="patch_80">
    <path d="M 85.362256 478.654375 
L 95.997517 478.654375 
L 95.997517 473.82678 
L 85.362256 473.82678 
z
" clip-path="url(#p19289f2eb7)" style="fill: #4682b4; fill-opacity: 0.5; stroke: #fcfcfc; stroke-linejoin: miter"/>
   </g>
   <g id="patch_81">
    <path d="M 95.997517 478.654375 
L 106.632778 478.654375 
L 106.632778 464.17159 
L 95.997517 464.17159 
z
" clip-path="url(#p19289f2eb7)" style="fill: #4682b4; fill-opacity: 0.5; stroke: #fcfcfc; stroke-linejoin: miter"/>
   </g>
   <g id="patch_82">
    <path d="M 106.632778 478.654375 
L 117.268039 478.654375 
L 117.268039 435.20602 
L 106.632778 435.20602 
z
" clip-path="url(#p19289f2eb7)" style="fill: #4682b4; fill-opacity: 0.5; stroke: #fcfcfc; stroke-linejoin: miter"/>
   </g>
   <g id="patch_83">
    <path d="M 117.268039 478.654375 
L 127.903299 478.654375 
L 127.903299 382.102476 
L 117.268039 382.102476 
z
" clip-path="url(#p19289f2eb7)" style="fill: #4682b4; fill-opacity: 0.5; stroke: #fcfcfc; stroke-linejoin: miter"/>
   </g>
   <g id="patch_84">
    <path d="M 127.903299 478.654375 
L 138.53856 478.654375 
L 138.53856 406.24045 
L 127.903299 406.24045 
z
" clip-path="url(#p19289f2eb7)" style="fill: #4682b4; fill-opacity: 0.5; stroke: #fcfcfc; stroke-linejoin: miter"/>
   </g>
   <g id="patch_85">
    <path d="M 138.53856 478.654375 
L 149.173821 478.654375 
L 149.173821 377.274881 
L 138.53856 377.274881 
z
" clip-path="url(#p19289f2eb7)" style="fill: #4682b4; fill-opacity: 0.5; stroke: #fcfcfc; stroke-linejoin: miter"/>
   </g>
   <g id="patch_86">
    <path d="M 149.173821 478.654375 
L 159.809082 478.654375 
L 159.809082 391.757666 
L 149.173821 391.757666 
z
" clip-path="url(#p19289f2eb7)" style="fill: #4682b4; fill-opacity: 0.5; stroke: #fcfcfc; stroke-linejoin: miter"/>
   </g>
   <g id="patch_87">
    <path d="M 159.809082 478.654375 
L 170.444342 478.654375 
L 170.444342 473.82678 
L 159.809082 473.82678 
z
" clip-path="url(#p19289f2eb7)" style="fill: #4682b4; fill-opacity: 0.5; stroke: #fcfcfc; stroke-linejoin: miter"/>
   </g>
   <g id="patch_88">
    <path d="M 170.444342 478.654375 
L 181.079603 478.654375 
L 181.079603 478.654375 
L 170.444342 478.654375 
z
" clip-path="url(#p19289f2eb7)" style="fill: #4682b4; fill-opacity: 0.5; stroke: #fcfcfc; stroke-linejoin: miter"/>
   </g>
   <g id="patch_89">
    <path d="M 181.079603 478.654375 
L 191.714864 478.654375 
L 191.714864 478.654375 
L 181.079603 478.654375 
z
" clip-path="url(#p19289f2eb7)" style="fill: #4682b4; fill-opacity: 0.5; stroke: #fcfcfc; stroke-linejoin: miter"/>
   </g>
   <g id="patch_90">
    <path d="M 191.714864 478.654375 
L 202.350125 478.654375 
L 202.350125 478.654375 
L 191.714864 478.654375 
z
" clip-path="url(#p19289f2eb7)" style="fill: #4682b4; fill-opacity: 0.5; stroke: #fcfcfc; stroke-linejoin: miter"/>
   </g>
   <g id="patch_91">
    <path d="M 202.350125 478.654375 
L 212.985385 478.654375 
L 212.985385 478.654375 
L 202.350125 478.654375 
z
" clip-path="url(#p19289f2eb7)" style="fill: #4682b4; fill-opacity: 0.5; stroke: #fcfcfc; stroke-linejoin: miter"/>
   </g>
   <g id="patch_92">
    <path d="M 212.985385 478.654375 
L 223.620646 478.654375 
L 223.620646 478.654375 
L 212.985385 478.654375 
z
" clip-path="url(#p19289f2eb7)" style="fill: #4682b4; fill-opacity: 0.5; stroke: #fcfcfc; stroke-linejoin: miter"/>
   </g>
   <g id="patch_93">
    <path d="M 223.620646 478.654375 
L 234.255907 478.654375 
L 234.255907 478.654375 
L 223.620646 478.654375 
z
" clip-path="url(#p19289f2eb7)" style="fill: #4682b4; fill-opacity: 0.5; stroke: #fcfcfc; stroke-linejoin: miter"/>
   </g>
   <g id="patch_94">
    <path d="M 234.255907 478.654375 
L 244.891168 478.654375 
L 244.891168 478.654375 
L 234.255907 478.654375 
z
" clip-path="url(#p19289f2eb7)" style="fill: #4682b4; fill-opacity: 0.5; stroke: #fcfcfc; stroke-linejoin: miter"/>
   </g>
   <g id="patch_95">
    <path d="M 244.891168 478.654375 
L 255.526428 478.654375 
L 255.526428 478.654375 
L 244.891168 478.654375 
z
" clip-path="url(#p19289f2eb7)" style="fill: #4682b4; fill-opacity: 0.5; stroke: #fcfcfc; stroke-linejoin: miter"/>
   </g>
   <g id="patch_96">
    <path d="M 255.526428 478.654375 
L 266.161689 478.654375 
L 266.161689 478.654375 
L 255.526428 478.654375 
z
" clip-path="url(#p19289f2eb7)" style="fill: #4682b4; fill-opacity: 0.5; stroke: #fcfcfc; stroke-linejoin: miter"/>
   </g>
   <g id="patch_97">
    <path d="M 266.161689 478.654375 
L 276.79695 478.654375 
L 276.79695 478.654375 
L 266.161689 478.654375 
z
" clip-path="url(#p19289f2eb7)" style="fill: #4682b4; fill-opacity: 0.5; stroke: #fcfcfc; stroke-linejoin: miter"/>
   </g>
   <g id="patch_98">
    <path d="M 276.79695 478.654375 
L 287.432211 478.654375 
L 287.432211 478.654375 
L 276.79695 478.654375 
z
" clip-path="url(#p19289f2eb7)" style="fill: #4682b4; fill-opacity: 0.5; stroke: #fcfcfc; stroke-linejoin: miter"/>
   </g>
   <g id="patch_99">
    <path d="M 287.432211 478.654375 
L 298.067472 478.654375 
L 298.067472 478.654375 
L 287.432211 478.654375 
z
" clip-path="url(#p19289f2eb7)" style="fill: #4682b4; fill-opacity: 0.5; stroke: #fcfcfc; stroke-linejoin: miter"/>
   </g>
   <g id="patch_100">
    <path d="M 298.067472 478.654375 
L 308.702732 478.654375 
L 308.702732 478.654375 
L 298.067472 478.654375 
z
" clip-path="url(#p19289f2eb7)" style="fill: #4682b4; fill-opacity: 0.5; stroke: #fcfcfc; stroke-linejoin: miter"/>
   </g>
   <g id="patch_101">
    <path d="M 308.702732 478.654375 
L 319.337993 478.654375 
L 319.337993 478.654375 
L 308.702732 478.654375 
z
" clip-path="url(#p19289f2eb7)" style="fill: #4682b4; fill-opacity: 0.5; stroke: #fcfcfc; stroke-linejoin: miter"/>
   </g>
   <g id="patch_102">
    <path d="M 319.337993 478.654375 
L 329.973254 478.654375 
L 329.973254 478.654375 
L 319.337993 478.654375 
z
" clip-path="url(#p19289f2eb7)" style="fill: #4682b4; fill-opacity: 0.5; stroke: #fcfcfc; stroke-linejoin: miter"/>
   </g>
   <g id="patch_103">
    <path d="M 329.973254 478.654375 
L 340.608515 478.654375 
L 340.608515 478.654375 
L 329.973254 478.654375 
z
" clip-path="url(#p19289f2eb7)" style="fill: #4682b4; fill-opacity: 0.5; stroke: #fcfcfc; stroke-linejoin: miter"/>
   </g>
   <g id="patch_104">
    <path d="M 340.608515 478.654375 
L 351.243775 478.654375 
L 351.243775 478.654375 
L 340.608515 478.654375 
z
" clip-path="url(#p19289f2eb7)" style="fill: #4682b4; fill-opacity: 0.5; stroke: #fcfcfc; stroke-linejoin: miter"/>
   </g>
   <g id="patch_105">
    <path d="M 351.243775 478.654375 
L 361.879036 478.654375 
L 361.879036 478.654375 
L 351.243775 478.654375 
z
" clip-path="url(#p19289f2eb7)" style="fill: #4682b4; fill-opacity: 0.5; stroke: #fcfcfc; stroke-linejoin: miter"/>
   </g>
   <g id="patch_106">
    <path d="M 361.879036 478.654375 
L 372.514297 478.654375 
L 372.514297 478.654375 
L 361.879036 478.654375 
z
" clip-path="url(#p19289f2eb7)" style="fill: #4682b4; fill-opacity: 0.5; stroke: #fcfcfc; stroke-linejoin: miter"/>
   </g>
   <g id="patch_107">
    <path d="M 372.514297 478.654375 
L 383.149558 478.654375 
L 383.149558 478.654375 
L 372.514297 478.654375 
z
" clip-path="url(#p19289f2eb7)" style="fill: #4682b4; fill-opacity: 0.5; stroke: #fcfcfc; stroke-linejoin: miter"/>
   </g>
   <g id="patch_108">
    <path d="M 383.149558 478.654375 
L 393.784818 478.654375 
L 393.784818 478.654375 
L 383.149558 478.654375 
z
" clip-path="url(#p19289f2eb7)" style="fill: #4682b4; fill-opacity: 0.5; stroke: #fcfcfc; stroke-linejoin: miter"/>
   </g>
   <g id="patch_109">
    <path d="M 393.784818 478.654375 
L 404.420079 478.654375 
L 404.420079 478.654375 
L 393.784818 478.654375 
z
" clip-path="url(#p19289f2eb7)" style="fill: #4682b4; fill-opacity: 0.5; stroke: #fcfcfc; stroke-linejoin: miter"/>
   </g>
   <g id="patch_110">
    <path d="M 404.420079 478.654375 
L 415.05534 478.654375 
L 415.05534 478.654375 
L 404.420079 478.654375 
z
" clip-path="url(#p19289f2eb7)" style="fill: #4682b4; fill-opacity: 0.5; stroke: #fcfcfc; stroke-linejoin: miter"/>
   </g>
   <g id="patch_111">
    <path d="M 415.05534 478.654375 
L 425.690601 478.654375 
L 425.690601 478.654375 
L 415.05534 478.654375 
z
" clip-path="url(#p19289f2eb7)" style="fill: #4682b4; fill-opacity: 0.5; stroke: #fcfcfc; stroke-linejoin: miter"/>
   </g>
   <g id="patch_112">
    <path d="M 425.690601 478.654375 
L 436.325861 478.654375 
L 436.325861 478.654375 
L 425.690601 478.654375 
z
" clip-path="url(#p19289f2eb7)" style="fill: #4682b4; fill-opacity: 0.5; stroke: #fcfcfc; stroke-linejoin: miter"/>
   </g>
   <g id="patch_113">
    <path d="M 436.325861 478.654375 
L 446.961122 478.654375 
L 446.961122 478.654375 
L 436.325861 478.654375 
z
" clip-path="url(#p19289f2eb7)" style="fill: #4682b4; fill-opacity: 0.5; stroke: #fcfcfc; stroke-linejoin: miter"/>
   </g>
   <g id="patch_114">
    <path d="M 446.961122 478.654375 
L 457.596383 478.654375 
L 457.596383 478.654375 
L 446.961122 478.654375 
z
" clip-path="url(#p19289f2eb7)" style="fill: #4682b4; fill-opacity: 0.5; stroke: #fcfcfc; stroke-linejoin: miter"/>
   </g>
   <g id="patch_115">
    <path d="M 457.596383 478.654375 
L 468.231644 478.654375 
L 468.231644 478.654375 
L 457.596383 478.654375 
z
" clip-path="url(#p19289f2eb7)" style="fill: #4682b4; fill-opacity: 0.5; stroke: #fcfcfc; stroke-linejoin: miter"/>
   </g>
   <g id="patch_116">
    <path d="M 468.231644 478.654375 
L 478.866905 478.654375 
L 478.866905 478.654375 
L 468.231644 478.654375 
z
" clip-path="url(#p19289f2eb7)" style="fill: #4682b4; fill-opacity: 0.5; stroke: #fcfcfc; stroke-linejoin: miter"/>
   </g>
   <g id="matplotlib.axis_1">
    <g id="xtick_1">
     <g id="line2d_1">
      <defs>
       <path id="m3ee2b98316" d="M 0 0 
L 0 3.5 
" style="stroke: #000000; stroke-width: 0.8"/>
      </defs>
      <g>
       <use xlink:href="#m3ee2b98316" x="137.22833" y="478.654375" style="stroke: #000000; stroke-width: 0.8"/>
      </g>
     </g>
     <g id="text_1">
      <text style="font: 16px 'Arial', sans-serif; text-anchor: middle" x="137.22833" y="497.106875" transform="rotate(-0 137.22833 497.106875)">2</text>
     </g>
    </g>
    <g id="xtick_2">
     <g id="line2d_2">
      <g>
       <use xlink:href="#m3ee2b98316" x="232.276216" y="478.654375" style="stroke: #000000; stroke-width: 0.8"/>
      </g>
     </g>
     <g id="text_2">
      <text style="font: 16px 'Arial', sans-serif; text-anchor: middle" x="232.276216" y="497.106875" transform="rotate(-0 232.276216 497.106875)">3</text>
     </g>
    </g>
    <g id="xtick_3">
     <g id="line2d_3">
      <g>
       <use xlink:href="#m3ee2b98316" x="327.324103" y="478.654375" style="stroke: #000000; stroke-width: 0.8"/>
      </g>
     </g>
     <g id="text_3">
      <text style="font: 16px 'Arial', sans-serif; text-anchor: middle" x="327.324103" y="497.106875" transform="rotate(-0 327.324103 497.106875)">4</text>
     </g>
    </g>
    <g id="xtick_4">
     <g id="line2d_4">
      <g>
       <use xlink:href="#m3ee2b98316" x="422.371989" y="478.654375" style="stroke: #000000; stroke-width: 0.8"/>
      </g>
     </g>
     <g id="text_4">
      <text style="font: 16px 'Arial', sans-serif; text-anchor: middle" x="422.371989" y="497.106875" transform="rotate(-0 422.371989 497.106875)">5</text>
     </g>
    </g>
    <g id="text_5">
     <text style="font: 20px 'Arial', sans-serif; text-anchor: middle" x="276.79695" y="518.84625" transform="rotate(-0 276.79695 518.84625)">Burden (log10)</text>
    </g>
   </g>
   <g id="matplotlib.axis_2">
    <g id="ytick_1">
     <g id="line2d_5">
      <defs>
       <path id="m3045050f38" d="M 0 0 
L -3.5 0 
" style="stroke: #000000; stroke-width: 0.8"/>
      </defs>
      <g>
       <use xlink:href="#m3045050f38" x="54.52" y="478.654375" style="stroke: #000000; stroke-width: 0.8"/>
      </g>
     </g>
     <g id="text_6">
      <text style="font: 16px 'Arial', sans-serif; text-anchor: end" x="47.52" y="484.380625" transform="rotate(-0 47.52 484.380625)">0</text>
     </g>
    </g>
    <g id="ytick_2">
     <g id="line2d_6">
      <g>
       <use xlink:href="#m3045050f38" x="54.52" y="382.102476" style="stroke: #000000; stroke-width: 0.8"/>
      </g>
     </g>
     <g id="text_7">
      <text style="font: 16px 'Arial', sans-serif; text-anchor: end" x="47.52" y="387.828726" transform="rotate(-0 47.52 387.828726)">20</text>
     </g>
    </g>
    <g id="ytick_3">
     <g id="line2d_7">
      <g>
       <use xlink:href="#m3045050f38" x="54.52" y="285.550576" style="stroke: #000000; stroke-width: 0.8"/>
      </g>
     </g>
     <g id="text_8">
      <text style="font: 16px 'Arial', sans-serif; text-anchor: end" x="47.52" y="291.276826" transform="rotate(-0 47.52 291.276826)">40</text>
     </g>
    </g>
    <g id="ytick_4">
     <g id="line2d_8">
      <g>
       <use xlink:href="#m3045050f38" x="54.52" y="188.998677" style="stroke: #000000; stroke-width: 0.8"/>
      </g>
     </g>
     <g id="text_9">
      <text style="font: 16px 'Arial', sans-serif; text-anchor: end" x="47.52" y="194.724927" transform="rotate(-0 47.52 194.724927)">60</text>
     </g>
    </g>
    <g id="ytick_5">
     <g id="line2d_9">
      <g>
       <use xlink:href="#m3045050f38" x="54.52" y="92.446777" style="stroke: #000000; stroke-width: 0.8"/>
      </g>
     </g>
     <g id="text_10">
      <text style="font: 16px 'Arial', sans-serif; text-anchor: end" x="47.52" y="98.173027" transform="rotate(-0 47.52 98.173027)">80</text>
     </g>
    </g>
    <g id="text_11">
     <text style="font: 20px 'Arial', sans-serif; text-anchor: middle" x="21.515625" y="253.085" transform="rotate(-90 21.515625 253.085)">Density</text>
    </g>
   </g>
   <g id="line2d_10">
    <path d="M 74.726995 478.654375 
L 210.794201 478.545987 
L 222.979324 478.311313 
L 231.102739 477.984548 
L 239.226154 477.445209 
L 247.34957 476.634506 
L 255.472985 475.528421 
L 263.5964 474.165249 
L 285.935792 470.209047 
L 292.028354 469.424856 
L 298.120915 468.866892 
L 304.213476 468.537847 
L 310.306038 468.406919 
L 320.460307 468.473509 
L 340.768845 468.729117 
L 367.169945 468.878717 
L 377.324214 469.284155 
L 387.478483 469.930547 
L 413.879582 471.776984 
L 432.157267 472.680263 
L 446.373244 473.489085 
L 458.558366 474.431239 
L 478.866905 476.22212 
L 478.866905 476.22212 
" clip-path="url(#p19289f2eb7)" style="fill: none; stroke: #fa8072; stroke-width: 1.5; stroke-linecap: square"/>
   </g>
   <g id="line2d_11">
    <path d="M 74.726995 478.654375 
L 135.65261 478.611919 
L 139.714318 478.355622 
L 141.745171 477.947468 
L 143.776025 477.102289 
L 145.806879 475.48792 
L 147.837733 472.641226 
L 149.868587 468.001256 
L 151.89944 460.996832 
L 153.930294 451.175403 
L 155.961148 438.329905 
L 157.992002 422.566357 
L 160.022856 404.274386 
L 162.053709 384.011279 
L 166.115417 339.822588 
L 172.207979 271.12784 
L 174.238832 249.519567 
L 176.269686 229.676435 
L 178.30054 212.32245 
L 180.331394 197.944297 
L 182.362248 186.533399 
L 184.393101 177.428672 
L 188.454809 160.987768 
L 190.485663 151.064009 
L 192.516517 139.2342 
L 198.609078 100.250105 
L 200.639932 90.473465 
L 202.670786 84.197333 
L 204.70164 82.130914 
L 206.732493 84.751433 
L 208.763347 92.276216 
L 210.794201 104.526214 
L 212.825055 120.784823 
L 214.855909 139.79339 
L 218.917616 179.675255 
L 220.94847 197.739701 
L 222.979324 213.507146 
L 225.010178 226.936154 
L 227.041032 238.44271 
L 231.102739 258.48101 
L 233.133593 268.509389 
L 235.164447 279.403861 
L 237.195301 291.590342 
L 239.226154 305.24198 
L 241.257008 320.246633 
L 249.380424 384.058893 
L 251.411277 398.04219 
L 253.442131 410.401007 
L 255.472985 420.979483 
L 257.503839 429.722762 
L 259.534693 436.630101 
L 261.565546 441.741981 
L 263.5964 445.171393 
L 265.627254 447.160295 
L 267.658108 448.120609 
L 269.688962 448.617961 
L 271.719815 449.279522 
L 273.750669 450.646024 
L 275.781523 453.023186 
L 277.812377 456.398253 
L 283.904938 468.719686 
L 285.935792 472.059405 
L 287.966646 474.590002 
L 289.9975 476.332278 
L 292.028354 477.425776 
L 294.059207 478.052885 
L 296.090061 478.382068 
L 300.151769 478.610326 
L 310.306038 478.65426 
L 478.866905 478.654375 
L 478.866905 478.654375 
" clip-path="url(#p19289f2eb7)" style="fill: none; stroke: #8fbc8f; stroke-width: 1.5; stroke-linecap: square"/>
   </g>
   <g id="line2d_12">
    <path d="M 74.726995 475.570742 
L 78.788703 475.579486 
L 80.819557 475.635322 
L 82.850411 475.577851 
L 84.881265 475.31769 
L 86.912118 474.803205 
L 88.942972 474.009276 
L 90.973826 472.909967 
L 93.00468 471.45394 
L 95.035534 469.558883 
L 97.066387 467.12823 
L 99.097241 464.07935 
L 101.128095 460.366756 
L 103.158949 455.98972 
L 105.189803 450.985007 
L 107.220656 445.413479 
L 109.25151 439.349546 
L 113.313218 426.100735 
L 119.405779 405.636912 
L 121.436633 399.771248 
L 123.467487 395.112922 
L 125.498341 392.09374 
L 127.529195 390.93136 
L 129.560048 391.47882 
L 131.590902 393.183461 
L 133.621756 395.208348 
L 135.65261 396.688446 
L 137.683464 397.018792 
L 139.714318 396.051286 
L 141.745171 394.123655 
L 143.776025 391.927725 
L 145.806879 390.293857 
L 147.837733 389.987337 
L 149.868587 391.578394 
L 151.89944 395.389808 
L 153.930294 401.485537 
L 155.961148 409.664462 
L 157.992002 419.457057 
L 162.053709 440.909777 
L 164.084563 450.881347 
L 166.115417 459.413959 
L 168.146271 466.149824 
L 170.177125 471.05326 
L 172.207979 474.343528 
L 174.238832 476.378029 
L 176.269686 477.537051 
L 178.30054 478.14529 
L 180.331394 478.439304 
L 184.393101 478.623885 
L 196.578224 478.654362 
L 478.866905 478.654375 
L 478.866905 478.654375 
" clip-path="url(#p19289f2eb7)" style="fill: none; stroke: #4682b4; stroke-width: 1.5; stroke-linecap: square"/>
   </g>
   <g id="patch_117">
    <path d="M 54.52 478.654375 
L 54.52 27.515625 
" style="fill: none; stroke: #000000; stroke-width: 0.8; stroke-linejoin: miter; stroke-linecap: square"/>
   </g>
   <g id="patch_118">
    <path d="M 54.52 478.654375 
L 499.0739 478.654375 
" style="fill: none; stroke: #000000; stroke-width: 0.8; stroke-linejoin: miter; stroke-linecap: square"/>
   </g>
   <g id="text_12">
    <text style="font: 20px 'Arial', sans-serif; text-anchor: middle" x="276.79695" y="21.515625" transform="rotate(-0 276.79695 21.515625)">INDELs</text>
   </g>
  </g>
  <g id="legend_1">
   <g id="text_13">
    <text style="font: 22px 'Arial', sans-serif; text-anchor: start" x="493.199687" y="233.006719" transform="rotate(-0 493.199687 233.006719)">Burden</text>
   </g>
   <g id="patch_119">
    <path d="M 492.045625 258.126406 
L 512.045625 258.126406 
L 512.045625 251.126406 
L 492.045625 251.126406 
z
" style="fill: #4682b4; fill-opacity: 0.5; stroke: #fcfcfc; stroke-linejoin: miter"/>
   </g>
   <g id="text_14">
    <text style="font: 22px 'Arial', sans-serif; text-anchor: start" x="520.045625" y="258.126406" transform="rotate(-0 520.045625 258.126406)">Low</text>
   </g>
   <g id="patch_120">
    <path d="M 492.045625 283.246094 
L 512.045625 283.246094 
L 512.045625 276.246094 
L 492.045625 276.246094 
z
" style="fill: #8fbc8f; fill-opacity: 0.5; stroke: #fcfcfc; stroke-linejoin: miter"/>
   </g>
   <g id="text_15">
    <text style="font: 22px 'Arial', sans-serif; text-anchor: start" x="520.045625" y="283.246094" transform="rotate(-0 520.045625 283.246094)">Mid</text>
   </g>
   <g id="patch_121">
    <path d="M 492.045625 308.365781 
L 512.045625 308.365781 
L 512.045625 301.365781 
L 492.045625 301.365781 
z
" style="fill: #fa8072; fill-opacity: 0.5; stroke: #fcfcfc; stroke-linejoin: miter"/>
   </g>
   <g id="text_16">
    <text style="font: 22px 'Arial', sans-serif; text-anchor: start" x="520.045625" y="308.365781" transform="rotate(-0 520.045625 308.365781)">High</text>
   </g>
  </g>
 </g>
 <defs>
  <clipPath id="p19289f2eb7">
   <rect x="54.52" y="27.515625" width="444.5539" height="451.13875"/>
  </clipPath>
 </defs>
</svg>
