<?xml version="1.0" encoding="utf-8" standalone="no"?>
<!DOCTYPE svg PUBLIC "-//W3C//DTD SVG 1.1//EN"
  "http://www.w3.org/Graphics/SVG/1.1/DTD/svg11.dtd">
<svg xmlns:xlink="http://www.w3.org/1999/xlink" width="511.88pt" height="530.255625pt" viewBox="0 0 511.88 530.255625" xmlns="http://www.w3.org/2000/svg" version="1.1">
 <metadata>
  <rdf:RDF xmlns:dc="http://purl.org/dc/elements/1.1/" xmlns:cc="http://creativecommons.org/ns#" xmlns:rdf="http://www.w3.org/1999/02/22-rdf-syntax-ns#">
   <cc:Work>
    <dc:type rdf:resource="http://purl.org/dc/dcmitype/StillImage"/>
    <dc:date>2026-05-25T11:52:13.786860</dc:date>
    <dc:format>image/svg+xml</dc:format>
    <dc:creator>
     <cc:Agent>
      <dc:title>Matplotlib v3.7.3, https://matplotlib.org/</dc:title>
     </cc:Agent>
    </dc:creator>
   </cc:Work>
  </rdf:RDF>
 </metadata>
 <defs>
  <style type="text/css">*{stroke-linejoin: round; stroke-linecap: butt}</style>
 </defs>
 <g id="figure_1">
  <g id="patch_1">
   <path d="M 0 530.255625 
L 511.88 530.255625 
L 511.88 0 
L 0 0 
L 0 530.255625 
z
" style="fill: none"/>
  </g>
  <g id="axes_1">
   <g id="patch_2">
    <path d="M 54.52 478.654375 
L 504.68 478.654375 
L 504.68 27.515625 
L 54.52 27.515625 
L 54.52 478.654375 
z
" style="fill: none"/>
   </g>
   <g id="patch_3">
    <path d="M 74.981818 478.654375 
L 90.138721 478.654375 
L 90.138721 478.654375 
L 74.981818 478.654375 
z
" clip-path="url(#p01f39937e9)" style="fill: #fa8072; fill-opacity: 0.5; stroke: #fcfcfc; stroke-linejoin: miter"/>
   </g>
   <g id="patch_4">
    <path d="M 90.138721 478.654375 
L 105.295623 478.654375 
L 105.295623 478.654375 
L 90.138721 478.654375 
z
" clip-path="url(#p01f39937e9)" style="fill: #fa8072; fill-opacity: 0.5; stroke: #fcfcfc; stroke-linejoin: miter"/>
   </g>
   <g id="patch_5">
    <path d="M 105.295623 478.654375 
L 120.452525 478.654375 
L 120.452525 478.654375 
L 105.295623 478.654375 
z
" clip-path="url(#p01f39937e9)" style="fill: #fa8072; fill-opacity: 0.5; stroke: #fcfcfc; stroke-linejoin: miter"/>
   </g>
   <g id="patch_6">
    <path d="M 120.452525 478.654375 
L 135.609428 478.654375 
L 135.609428 478.654375 
L 120.452525 478.654375 
z
" clip-path="url(#p01f39937e9)" style="fill: #fa8072; fill-opacity: 0.5; stroke: #fcfcfc; stroke-linejoin: miter"/>
   </g>
   <g id="patch_7">
    <path d="M 135.609428 478.654375 
L 150.76633 478.654375 
L 150.76633 478.654375 
L 135.609428 478.654375 
z
" clip-path="url(#p01f39937e9)" style="fill: #fa8072; fill-opacity: 0.5; stroke: #fcfcfc; stroke-linejoin: miter"/>
   </g>
   <g id="patch_8">
    <path d="M 150.76633 478.654375 
L 165.923232 478.654375 
L 165.923232 478.654375 
L 150.76633 478.654375 
z
" clip-path="url(#p01f39937e9)" style="fill: #fa8072; fill-opacity: 0.5; stroke: #fcfcfc; stroke-linejoin: miter"/>
   </g>
   <g id="patch_9">
    <path d="M 165.923232 478.654375 
L 181.080135 478.654375 
L 181.080135 478.654375 
L 165.923232 478.654375 
z
" clip-path="url(#p01f39937e9)" style="fill: #fa8072; fill-opacity: 0.5; stroke: #fcfcfc; stroke-linejoin: miter"/>
   </g>
   <g id="patch_10">
    <path d="M 181.080135 478.654375 
L 196.237037 478.654375 
L 196.237037 478.654375 
L 181.080135 478.654375 
z
" clip-path="url(#p01f39937e9)" style="fill: #fa8072; fill-opacity: 0.5; stroke: #fcfcfc; stroke-linejoin: miter"/>
   </g>
   <g id="patch_11">
    <path d="M 196.237037 478.654375 
L 211.393939 478.654375 
L 211.393939 478.654375 
L 196.237037 478.654375 
z
" clip-path="url(#p01f39937e9)" style="fill: #fa8072; fill-opacity: 0.5; stroke: #fcfcfc; stroke-linejoin: miter"/>
   </g>
   <g id="patch_12">
    <path d="M 211.393939 478.654375 
L 226.550842 478.654375 
L 226.550842 478.654375 
L 211.393939 478.654375 
z
" clip-path="url(#p01f39937e9)" style="fill: #fa8072; fill-opacity: 0.5; stroke: #fcfcfc; stroke-linejoin: miter"/>
   </g>
   <g id="patch_13">
    <path d="M 226.550842 478.654375 
L 241.707744 478.654375 
L 241.707744 478.654375 
L 226.550842 478.654375 
z
" clip-path="url(#p01f39937e9)" style="fill: #fa8072; fill-opacity: 0.5; stroke: #fcfcfc; stroke-linejoin: miter"/>
   </g>
   <g id="patch_14">
    <path d="M 241.707744 478.654375 
L 256.864646 478.654375 
L 256.864646 478.654375 
L 241.707744 478.654375 
z
" clip-path="url(#p01f39937e9)" style="fill: #fa8072; fill-opacity: 0.5; stroke: #fcfcfc; stroke-linejoin: miter"/>
   </g>
   <g id="patch_15">
    <path d="M 256.864646 478.654375 
L 272.021549 478.654375 
L 272.021549 478.654375 
L 256.864646 478.654375 
z
" clip-path="url(#p01f39937e9)" style="fill: #fa8072; fill-opacity: 0.5; stroke: #fcfcfc; stroke-linejoin: miter"/>
   </g>
   <g id="patch_16">
    <path d="M 272.021549 478.654375 
L 287.178451 478.654375 
L 287.178451 478.654375 
L 272.021549 478.654375 
z
" clip-path="url(#p01f39937e9)" style="fill: #fa8072; fill-opacity: 0.5; stroke: #fcfcfc; stroke-linejoin: miter"/>
   </g>
   <g id="patch_17">
    <path d="M 287.178451 478.654375 
L 302.335354 478.654375 
L 302.335354 458.194568 
L 287.178451 458.194568 
z
" clip-path="url(#p01f39937e9)" style="fill: #fa8072; fill-opacity: 0.5; stroke: #fcfcfc; stroke-linejoin: miter"/>
   </g>
   <g id="patch_18">
    <path d="M 302.335354 478.654375 
L 317.492256 478.654375 
L 317.492256 453.079616 
L 302.335354 453.079616 
z
" clip-path="url(#p01f39937e9)" style="fill: #fa8072; fill-opacity: 0.5; stroke: #fcfcfc; stroke-linejoin: miter"/>
   </g>
   <g id="patch_19">
    <path d="M 317.492256 478.654375 
L 332.649158 478.654375 
L 332.649158 453.079616 
L 317.492256 453.079616 
z
" clip-path="url(#p01f39937e9)" style="fill: #fa8072; fill-opacity: 0.5; stroke: #fcfcfc; stroke-linejoin: miter"/>
   </g>
   <g id="patch_20">
    <path d="M 332.649158 478.654375 
L 347.806061 478.654375 
L 347.806061 463.30952 
L 332.649158 463.30952 
z
" clip-path="url(#p01f39937e9)" style="fill: #fa8072; fill-opacity: 0.5; stroke: #fcfcfc; stroke-linejoin: miter"/>
   </g>
   <g id="patch_21">
    <path d="M 347.806061 478.654375 
L 362.962963 478.654375 
L 362.962963 473.539423 
L 347.806061 473.539423 
z
" clip-path="url(#p01f39937e9)" style="fill: #fa8072; fill-opacity: 0.5; stroke: #fcfcfc; stroke-linejoin: miter"/>
   </g>
   <g id="patch_22">
    <path d="M 362.962963 478.654375 
L 378.119865 478.654375 
L 378.119865 478.654375 
L 362.962963 478.654375 
z
" clip-path="url(#p01f39937e9)" style="fill: #fa8072; fill-opacity: 0.5; stroke: #fcfcfc; stroke-linejoin: miter"/>
   </g>
   <g id="patch_23">
    <path d="M 378.119865 478.654375 
L 393.276768 478.654375 
L 393.276768 463.30952 
L 378.119865 463.30952 
z
" clip-path="url(#p01f39937e9)" style="fill: #fa8072; fill-opacity: 0.5; stroke: #fcfcfc; stroke-linejoin: miter"/>
   </g>
   <g id="patch_24">
    <path d="M 393.276768 478.654375 
L 408.43367 478.654375 
L 408.43367 468.424471 
L 393.276768 468.424471 
z
" clip-path="url(#p01f39937e9)" style="fill: #fa8072; fill-opacity: 0.5; stroke: #fcfcfc; stroke-linejoin: miter"/>
   </g>
   <g id="patch_25">
    <path d="M 408.43367 478.654375 
L 423.590572 478.654375 
L 423.590572 473.539423 
L 408.43367 473.539423 
z
" clip-path="url(#p01f39937e9)" style="fill: #fa8072; fill-opacity: 0.5; stroke: #fcfcfc; stroke-linejoin: miter"/>
   </g>
   <g id="patch_26">
    <path d="M 423.590572 478.654375 
L 438.747475 478.654375 
L 438.747475 463.30952 
L 423.590572 463.30952 
z
" clip-path="url(#p01f39937e9)" style="fill: #fa8072; fill-opacity: 0.5; stroke: #fcfcfc; stroke-linejoin: miter"/>
   </g>
   <g id="patch_27">
    <path d="M 438.747475 478.654375 
L 453.904377 478.654375 
L 453.904377 478.654375 
L 438.747475 478.654375 
z
" clip-path="url(#p01f39937e9)" style="fill: #fa8072; fill-opacity: 0.5; stroke: #fcfcfc; stroke-linejoin: miter"/>
   </g>
   <g id="patch_28">
    <path d="M 453.904377 478.654375 
L 469.061279 478.654375 
L 469.061279 463.30952 
L 453.904377 463.30952 
z
" clip-path="url(#p01f39937e9)" style="fill: #fa8072; fill-opacity: 0.5; stroke: #fcfcfc; stroke-linejoin: miter"/>
   </g>
   <g id="patch_29">
    <path d="M 469.061279 478.654375 
L 484.218182 478.654375 
L 484.218182 458.194568 
L 469.061279 458.194568 
z
" clip-path="url(#p01f39937e9)" style="fill: #fa8072; fill-opacity: 0.5; stroke: #fcfcfc; stroke-linejoin: miter"/>
   </g>
   <g id="patch_30">
    <path d="M 74.981818 478.654375 
L 90.138721 478.654375 
L 90.138721 458.194568 
L 74.981818 458.194568 
z
" clip-path="url(#p01f39937e9)" style="fill: #4682b4; fill-opacity: 0.5; stroke: #fcfcfc; stroke-linejoin: miter"/>
   </g>
   <g id="patch_31">
    <path d="M 90.138721 478.654375 
L 105.295623 478.654375 
L 105.295623 437.73476 
L 90.138721 437.73476 
z
" clip-path="url(#p01f39937e9)" style="fill: #4682b4; fill-opacity: 0.5; stroke: #fcfcfc; stroke-linejoin: miter"/>
   </g>
   <g id="patch_32">
    <path d="M 105.295623 478.654375 
L 120.452525 478.654375 
L 120.452525 396.815146 
L 105.295623 396.815146 
z
" clip-path="url(#p01f39937e9)" style="fill: #4682b4; fill-opacity: 0.5; stroke: #fcfcfc; stroke-linejoin: miter"/>
   </g>
   <g id="patch_33">
    <path d="M 120.452525 478.654375 
L 135.609428 478.654375 
L 135.609428 345.665628 
L 120.452525 345.665628 
z
" clip-path="url(#p01f39937e9)" style="fill: #4682b4; fill-opacity: 0.5; stroke: #fcfcfc; stroke-linejoin: miter"/>
   </g>
   <g id="patch_34">
    <path d="M 135.609428 478.654375 
L 150.76633 478.654375 
L 150.76633 314.975917 
L 135.609428 314.975917 
z
" clip-path="url(#p01f39937e9)" style="fill: #4682b4; fill-opacity: 0.5; stroke: #fcfcfc; stroke-linejoin: miter"/>
   </g>
   <g id="patch_35">
    <path d="M 150.76633 478.654375 
L 165.923232 478.654375 
L 165.923232 294.51611 
L 150.76633 294.51611 
z
" clip-path="url(#p01f39937e9)" style="fill: #4682b4; fill-opacity: 0.5; stroke: #fcfcfc; stroke-linejoin: miter"/>
   </g>
   <g id="patch_36">
    <path d="M 165.923232 478.654375 
L 181.080135 478.654375 
L 181.080135 84.803085 
L 165.923232 84.803085 
z
" clip-path="url(#p01f39937e9)" style="fill: #4682b4; fill-opacity: 0.5; stroke: #fcfcfc; stroke-linejoin: miter"/>
   </g>
   <g id="patch_37">
    <path d="M 181.080135 478.654375 
L 196.237037 478.654375 
L 196.237037 84.803085 
L 181.080135 84.803085 
z
" clip-path="url(#p01f39937e9)" style="fill: #4682b4; fill-opacity: 0.5; stroke: #fcfcfc; stroke-linejoin: miter"/>
   </g>
   <g id="patch_38">
    <path d="M 196.237037 478.654375 
L 211.393939 478.654375 
L 211.393939 125.7227 
L 196.237037 125.7227 
z
" clip-path="url(#p01f39937e9)" style="fill: #4682b4; fill-opacity: 0.5; stroke: #fcfcfc; stroke-linejoin: miter"/>
   </g>
   <g id="patch_39">
    <path d="M 211.393939 478.654375 
L 226.550842 478.654375 
L 226.550842 48.998423 
L 211.393939 48.998423 
z
" clip-path="url(#p01f39937e9)" style="fill: #4682b4; fill-opacity: 0.5; stroke: #fcfcfc; stroke-linejoin: miter"/>
   </g>
   <g id="patch_40">
    <path d="M 226.550842 478.654375 
L 241.707744 478.654375 
L 241.707744 217.791832 
L 226.550842 217.791832 
z
" clip-path="url(#p01f39937e9)" style="fill: #4682b4; fill-opacity: 0.5; stroke: #fcfcfc; stroke-linejoin: miter"/>
   </g>
   <g id="patch_41">
    <path d="M 241.707744 478.654375 
L 256.864646 478.654375 
L 256.864646 258.711447 
L 241.707744 258.711447 
z
" clip-path="url(#p01f39937e9)" style="fill: #4682b4; fill-opacity: 0.5; stroke: #fcfcfc; stroke-linejoin: miter"/>
   </g>
   <g id="patch_42">
    <path d="M 256.864646 478.654375 
L 272.021549 478.654375 
L 272.021549 366.125435 
L 256.864646 366.125435 
z
" clip-path="url(#p01f39937e9)" style="fill: #4682b4; fill-opacity: 0.5; stroke: #fcfcfc; stroke-linejoin: miter"/>
   </g>
   <g id="patch_43">
    <path d="M 272.021549 478.654375 
L 287.178451 478.654375 
L 287.178451 350.78058 
L 272.021549 350.78058 
z
" clip-path="url(#p01f39937e9)" style="fill: #4682b4; fill-opacity: 0.5; stroke: #fcfcfc; stroke-linejoin: miter"/>
   </g>
   <g id="patch_44">
    <path d="M 287.178451 478.654375 
L 302.335354 478.654375 
L 302.335354 442.849712 
L 287.178451 442.849712 
z
" clip-path="url(#p01f39937e9)" style="fill: #4682b4; fill-opacity: 0.5; stroke: #fcfcfc; stroke-linejoin: miter"/>
   </g>
   <g id="patch_45">
    <path d="M 302.335354 478.654375 
L 317.492256 478.654375 
L 317.492256 478.654375 
L 302.335354 478.654375 
z
" clip-path="url(#p01f39937e9)" style="fill: #4682b4; fill-opacity: 0.5; stroke: #fcfcfc; stroke-linejoin: miter"/>
   </g>
   <g id="patch_46">
    <path d="M 317.492256 478.654375 
L 332.649158 478.654375 
L 332.649158 478.654375 
L 317.492256 478.654375 
z
" clip-path="url(#p01f39937e9)" style="fill: #4682b4; fill-opacity: 0.5; stroke: #fcfcfc; stroke-linejoin: miter"/>
   </g>
   <g id="patch_47">
    <path d="M 332.649158 478.654375 
L 347.806061 478.654375 
L 347.806061 478.654375 
L 332.649158 478.654375 
z
" clip-path="url(#p01f39937e9)" style="fill: #4682b4; fill-opacity: 0.5; stroke: #fcfcfc; stroke-linejoin: miter"/>
   </g>
   <g id="patch_48">
    <path d="M 347.806061 478.654375 
L 362.962963 478.654375 
L 362.962963 478.654375 
L 347.806061 478.654375 
z
" clip-path="url(#p01f39937e9)" style="fill: #4682b4; fill-opacity: 0.5; stroke: #fcfcfc; stroke-linejoin: miter"/>
   </g>
   <g id="patch_49">
    <path d="M 362.962963 478.654375 
L 378.119865 478.654375 
L 378.119865 478.654375 
L 362.962963 478.654375 
z
" clip-path="url(#p01f39937e9)" style="fill: #4682b4; fill-opacity: 0.5; stroke: #fcfcfc; stroke-linejoin: miter"/>
   </g>
   <g id="patch_50">
    <path d="M 378.119865 478.654375 
L 393.276768 478.654375 
L 393.276768 478.654375 
L 378.119865 478.654375 
z
" clip-path="url(#p01f39937e9)" style="fill: #4682b4; fill-opacity: 0.5; stroke: #fcfcfc; stroke-linejoin: miter"/>
   </g>
   <g id="patch_51">
    <path d="M 393.276768 478.654375 
L 408.43367 478.654375 
L 408.43367 478.654375 
L 393.276768 478.654375 
z
" clip-path="url(#p01f39937e9)" style="fill: #4682b4; fill-opacity: 0.5; stroke: #fcfcfc; stroke-linejoin: miter"/>
   </g>
   <g id="patch_52">
    <path d="M 408.43367 478.654375 
L 423.590572 478.654375 
L 423.590572 478.654375 
L 408.43367 478.654375 
z
" clip-path="url(#p01f39937e9)" style="fill: #4682b4; fill-opacity: 0.5; stroke: #fcfcfc; stroke-linejoin: miter"/>
   </g>
   <g id="patch_53">
    <path d="M 423.590572 478.654375 
L 438.747475 478.654375 
L 438.747475 478.654375 
L 423.590572 478.654375 
z
" clip-path="url(#p01f39937e9)" style="fill: #4682b4; fill-opacity: 0.5; stroke: #fcfcfc; stroke-linejoin: miter"/>
   </g>
   <g id="patch_54">
    <path d="M 438.747475 478.654375 
L 453.904377 478.654375 
L 453.904377 478.654375 
L 438.747475 478.654375 
z
" clip-path="url(#p01f39937e9)" style="fill: #4682b4; fill-opacity: 0.5; stroke: #fcfcfc; stroke-linejoin: miter"/>
   </g>
   <g id="patch_55">
    <path d="M 453.904377 478.654375 
L 469.061279 478.654375 
L 469.061279 478.654375 
L 453.904377 478.654375 
z
" clip-path="url(#p01f39937e9)" style="fill: #4682b4; fill-opacity: 0.5; stroke: #fcfcfc; stroke-linejoin: miter"/>
   </g>
   <g id="patch_56">
    <path d="M 469.061279 478.654375 
L 484.218182 478.654375 
L 484.218182 478.654375 
L 469.061279 478.654375 
z
" clip-path="url(#p01f39937e9)" style="fill: #4682b4; fill-opacity: 0.5; stroke: #fcfcfc; stroke-linejoin: miter"/>
   </g>
   <g id="matplotlib.axis_1">
    <g id="xtick_1">
     <g id="line2d_1">
      <defs>
       <path id="mee0bc41f3b" d="M 0 0 
L 0 3.5 
" style="stroke: #000000; stroke-width: 0.8"/>
      </defs>
      <g>
       <use xlink:href="#mee0bc41f3b" x="102.684662" y="478.654375" style="stroke: #000000; stroke-width: 0.8"/>
      </g>
     </g>
     <g id="text_1">
      <text style="font: 16px 'Arial', sans-serif; text-anchor: middle" x="102.684662" y="497.106875" transform="rotate(-0 102.684662 497.106875)">2.5</text>
     </g>
    </g>
    <g id="xtick_2">
     <g id="line2d_2">
      <g>
       <use xlink:href="#mee0bc41f3b" x="154.071663" y="478.654375" style="stroke: #000000; stroke-width: 0.8"/>
      </g>
     </g>
     <g id="text_2">
      <text style="font: 16px 'Arial', sans-serif; text-anchor: middle" x="154.071663" y="497.106875" transform="rotate(-0 154.071663 497.106875)">3.0</text>
     </g>
    </g>
    <g id="xtick_3">
     <g id="line2d_3">
      <g>
       <use xlink:href="#mee0bc41f3b" x="205.458665" y="478.654375" style="stroke: #000000; stroke-width: 0.8"/>
      </g>
     </g>
     <g id="text_3">
      <text style="font: 16px 'Arial', sans-serif; text-anchor: middle" x="205.458665" y="497.106875" transform="rotate(-0 205.458665 497.106875)">3.5</text>
     </g>
    </g>
    <g id="xtick_4">
     <g id="line2d_4">
      <g>
       <use xlink:href="#mee0bc41f3b" x="256.845667" y="478.654375" style="stroke: #000000; stroke-width: 0.8"/>
      </g>
     </g>
     <g id="text_4">
      <text style="font: 16px 'Arial', sans-serif; text-anchor: middle" x="256.845667" y="497.106875" transform="rotate(-0 256.845667 497.106875)">4.0</text>
     </g>
    </g>
    <g id="xtick_5">
     <g id="line2d_5">
      <g>
       <use xlink:href="#mee0bc41f3b" x="308.232669" y="478.654375" style="stroke: #000000; stroke-width: 0.8"/>
      </g>
     </g>
     <g id="text_5">
      <text style="font: 16px 'Arial', sans-serif; text-anchor: middle" x="308.232669" y="497.106875" transform="rotate(-0 308.232669 497.106875)">4.5</text>
     </g>
    </g>
    <g id="xtick_6">
     <g id="line2d_6">
      <g>
       <use xlink:href="#mee0bc41f3b" x="359.61967" y="478.654375" style="stroke: #000000; stroke-width: 0.8"/>
      </g>
     </g>
     <g id="text_6">
      <text style="font: 16px 'Arial', sans-serif; text-anchor: middle" x="359.61967" y="497.106875" transform="rotate(-0 359.61967 497.106875)">5.0</text>
     </g>
    </g>
    <g id="xtick_7">
     <g id="line2d_7">
      <g>
       <use xlink:href="#mee0bc41f3b" x="411.006672" y="478.654375" style="stroke: #000000; stroke-width: 0.8"/>
      </g>
     </g>
     <g id="text_7">
      <text style="font: 16px 'Arial', sans-serif; text-anchor: middle" x="411.006672" y="497.106875" transform="rotate(-0 411.006672 497.106875)">5.5</text>
     </g>
    </g>
    <g id="xtick_8">
     <g id="line2d_8">
      <g>
       <use xlink:href="#mee0bc41f3b" x="462.393674" y="478.654375" style="stroke: #000000; stroke-width: 0.8"/>
      </g>
     </g>
     <g id="text_8">
      <text style="font: 16px 'Arial', sans-serif; text-anchor: middle" x="462.393674" y="497.106875" transform="rotate(-0 462.393674 497.106875)">6.0</text>
     </g>
    </g>
    <g id="text_9">
     <text style="font: 20px 'Arial', sans-serif; text-anchor: middle" x="279.6" y="518.84625" transform="rotate(-0 279.6 518.84625)">Burden (log10)</text>
    </g>
   </g>
   <g id="matplotlib.axis_2">
    <g id="ytick_1">
     <g id="line2d_9">
      <defs>
       <path id="m49a372edc4" d="M 0 0 
L -3.5 0 
" style="stroke: #000000; stroke-width: 0.8"/>
      </defs>
      <g>
       <use xlink:href="#m49a372edc4" x="54.52" y="478.654375" style="stroke: #000000; stroke-width: 0.8"/>
      </g>
     </g>
     <g id="text_10">
      <text style="font: 16px 'Arial', sans-serif; text-anchor: end" x="47.52" y="484.380625" transform="rotate(-0 47.52 484.380625)">0</text>
     </g>
    </g>
    <g id="ytick_2">
     <g id="line2d_10">
      <g>
       <use xlink:href="#m49a372edc4" x="54.52" y="427.504857" style="stroke: #000000; stroke-width: 0.8"/>
      </g>
     </g>
     <g id="text_11">
      <text style="font: 16px 'Arial', sans-serif; text-anchor: end" x="47.52" y="433.231107" transform="rotate(-0 47.52 433.231107)">10</text>
     </g>
    </g>
    <g id="ytick_3">
     <g id="line2d_11">
      <g>
       <use xlink:href="#m49a372edc4" x="54.52" y="376.355339" style="stroke: #000000; stroke-width: 0.8"/>
      </g>
     </g>
     <g id="text_12">
      <text style="font: 16px 'Arial', sans-serif; text-anchor: end" x="47.52" y="382.081589" transform="rotate(-0 47.52 382.081589)">20</text>
     </g>
    </g>
    <g id="ytick_4">
     <g id="line2d_12">
      <g>
       <use xlink:href="#m49a372edc4" x="54.52" y="325.205821" style="stroke: #000000; stroke-width: 0.8"/>
      </g>
     </g>
     <g id="text_13">
      <text style="font: 16px 'Arial', sans-serif; text-anchor: end" x="47.52" y="330.932071" transform="rotate(-0 47.52 330.932071)">30</text>
     </g>
    </g>
    <g id="ytick_5">
     <g id="line2d_13">
      <g>
       <use xlink:href="#m49a372edc4" x="54.52" y="274.056302" style="stroke: #000000; stroke-width: 0.8"/>
      </g>
     </g>
     <g id="text_14">
      <text style="font: 16px 'Arial', sans-serif; text-anchor: end" x="47.52" y="279.782552" transform="rotate(-0 47.52 279.782552)">40</text>
     </g>
    </g>
    <g id="ytick_6">
     <g id="line2d_14">
      <g>
       <use xlink:href="#m49a372edc4" x="54.52" y="222.906784" style="stroke: #000000; stroke-width: 0.8"/>
      </g>
     </g>
     <g id="text_15">
      <text style="font: 16px 'Arial', sans-serif; text-anchor: end" x="47.52" y="228.633034" transform="rotate(-0 47.52 228.633034)">50</text>
     </g>
    </g>
    <g id="ytick_7">
     <g id="line2d_15">
      <g>
       <use xlink:href="#m49a372edc4" x="54.52" y="171.757266" style="stroke: #000000; stroke-width: 0.8"/>
      </g>
     </g>
     <g id="text_16">
      <text style="font: 16px 'Arial', sans-serif; text-anchor: end" x="47.52" y="177.483516" transform="rotate(-0 47.52 177.483516)">60</text>
     </g>
    </g>
    <g id="ytick_8">
     <g id="line2d_16">
      <g>
       <use xlink:href="#m49a372edc4" x="54.52" y="120.607748" style="stroke: #000000; stroke-width: 0.8"/>
      </g>
     </g>
     <g id="text_17">
      <text style="font: 16px 'Arial', sans-serif; text-anchor: end" x="47.52" y="126.333998" transform="rotate(-0 47.52 126.333998)">70</text>
     </g>
    </g>
    <g id="ytick_9">
     <g id="line2d_17">
      <g>
       <use xlink:href="#m49a372edc4" x="54.52" y="69.45823" style="stroke: #000000; stroke-width: 0.8"/>
      </g>
     </g>
     <g id="text_18">
      <text style="font: 16px 'Arial', sans-serif; text-anchor: end" x="47.52" y="75.18448" transform="rotate(-0 47.52 75.18448)">80</text>
     </g>
    </g>
    <g id="text_19">
     <text style="font: 20px 'Arial', sans-serif; text-anchor: middle" x="21.515625" y="253.085" transform="rotate(-90 21.515625 253.085)">Density</text>
    </g>
   </g>
   <g id="line2d_18">
    <path d="M 74.981818 478.654375 
L 206.595523 478.55703 
L 220.990772 478.309726 
L 231.273093 477.896163 
L 239.498949 477.323492 
L 245.668342 476.703219 
L 251.837734 475.888087 
L 258.007127 474.860551 
L 264.176519 473.619761 
L 272.402376 471.674402 
L 284.74116 468.409732 
L 292.967017 466.307038 
L 299.136409 464.942515 
L 305.305802 463.86592 
L 309.41873 463.344306 
L 313.531658 462.995553 
L 317.644587 462.824838 
L 321.757515 462.829367 
L 325.870443 462.998588 
L 332.039836 463.521149 
L 338.209228 464.291176 
L 348.491549 465.85327 
L 358.773869 467.3741 
L 366.999726 468.334837 
L 373.169118 468.850416 
L 379.338511 469.188258 
L 387.564367 469.402172 
L 397.846688 469.414927 
L 432.806578 469.240428 
L 447.201827 469.438606 
L 457.484148 469.756422 
L 467.766469 470.308342 
L 475.992325 470.962006 
L 484.218182 471.806833 
L 484.218182 471.806833 
" clip-path="url(#p01f39937e9)" style="fill: none; stroke: #fa8072; stroke-width: 1.5; stroke-linecap: square"/>
   </g>
   <g id="line2d_19">
    <path d="M 74.981818 466.448508 
L 77.038282 464.217308 
L 79.094746 461.781361 
L 81.151211 459.150841 
L 85.264139 453.339699 
L 89.377067 446.804986 
L 93.489995 439.467962 
L 95.54646 435.451392 
L 97.602924 431.177376 
L 101.715852 421.829416 
L 105.82878 411.532578 
L 114.054637 390.032403 
L 118.167565 380.13859 
L 122.280493 371.283638 
L 130.50635 354.724413 
L 132.562814 350.105791 
L 134.619278 345.027909 
L 136.675742 339.380162 
L 138.732206 333.072051 
L 140.788671 326.030812 
L 142.845135 318.196613 
L 144.901599 309.517967 
L 146.958063 299.950048 
L 149.014527 289.457837 
L 151.070991 278.024647 
L 153.127455 265.66489 
L 155.18392 252.438466 
L 159.296848 223.922155 
L 165.46624 179.627294 
L 167.522704 165.740375 
L 169.579169 152.861671 
L 171.635633 141.291673 
L 173.692097 131.273028 
L 175.748561 122.975087 
L 177.805025 116.483868 
L 179.861489 111.797018 
L 181.917953 108.823261 
L 183.974418 107.386306 
L 186.030882 107.23383 
L 188.087346 108.052464 
L 190.14381 109.489522 
L 194.256738 112.785373 
L 196.313202 114.016138 
L 198.369667 114.67485 
L 200.426131 114.673664 
L 202.482595 114.046983 
L 204.539059 112.9485 
L 208.651987 110.428124 
L 210.708451 109.690575 
L 212.764915 109.767968 
L 214.82138 110.956353 
L 216.877844 113.468413 
L 218.934308 117.413492 
L 220.990772 122.792431 
L 223.047236 129.507451 
L 225.1037 137.385026 
L 227.160164 146.20754 
L 231.273093 165.801982 
L 235.386021 186.870168 
L 241.555413 220.038976 
L 249.78127 266.449057 
L 253.894198 288.982924 
L 255.950662 299.497934 
L 258.007127 309.299767 
L 260.063591 318.284983 
L 262.120055 326.413616 
L 264.176519 333.715258 
L 266.232983 340.28583 
L 268.289447 346.275914 
L 272.402376 357.278467 
L 276.515304 368.271071 
L 278.571768 374.153292 
L 280.628232 380.41099 
L 284.74116 394.08998 
L 288.854089 408.91648 
L 295.023481 431.22959 
L 297.079945 438.139512 
L 299.136409 444.583601 
L 301.192873 450.471906 
L 303.249338 455.741505 
L 305.305802 460.358095 
L 307.362266 464.315446 
L 309.41873 467.632881 
L 311.475194 470.351141 
L 313.531658 472.527109 
L 315.588122 474.228023 
L 317.644587 475.52577 
L 319.701051 476.49183 
L 321.757515 477.193236 
L 323.813979 477.689769 
L 327.926907 478.262793 
L 332.039836 478.51008 
L 340.265692 478.63984 
L 377.282047 478.654375 
L 484.218182 478.654375 
L 484.218182 478.654375 
" clip-path="url(#p01f39937e9)" style="fill: none; stroke: #4682b4; stroke-width: 1.5; stroke-linecap: square"/>
   </g>
   <g id="patch_57">
    <path d="M 54.52 478.654375 
L 54.52 27.515625 
" style="fill: none; stroke: #000000; stroke-width: 0.8; stroke-linejoin: miter; stroke-linecap: square"/>
   </g>
   <g id="patch_58">
    <path d="M 54.52 478.654375 
L 504.68 478.654375 
" style="fill: none; stroke: #000000; stroke-width: 0.8; stroke-linejoin: miter; stroke-linecap: square"/>
   </g>
   <g id="text_20">
    <text style="font: 20px 'Arial', sans-serif; text-anchor: middle" x="279.6" y="21.515625" transform="rotate(-0 279.6 21.515625)">SBS</text>
   </g>
  </g>
 </g>
 <defs>
  <clipPath id="p01f39937e9">
   <rect x="54.52" y="27.515625" width="450.16" height="451.13875"/>
  </clipPath>
 </defs>
</svg>
