<?xml version="1.0" encoding="utf-8" standalone="no"?>
<!DOCTYPE svg PUBLIC "-//W3C//DTD SVG 1.1//EN"
  "http://www.w3.org/Graphics/SVG/1.1/DTD/svg11.dtd">
<svg xmlns:xlink="http://www.w3.org/1999/xlink" width="511.88pt" height="530.255625pt" viewBox="0 0 511.88 530.255625" xmlns="http://www.w3.org/2000/svg" version="1.1">
 <metadata>
  <rdf:RDF xmlns:dc="http://purl.org/dc/elements/1.1/" xmlns:cc="http://creativecommons.org/ns#" xmlns:rdf="http://www.w3.org/1999/02/22-rdf-syntax-ns#">
   <cc:Work>
    <dc:type rdf:resource="http://purl.org/dc/dcmitype/StillImage"/>
    <dc:date>2026-05-25T11:52:16.921188</dc:date>
    <dc:format>image/svg+xml</dc:format>
    <dc:creator>
     <cc:Agent>
      <dc:title>Matplotlib v3.7.3, https://matplotlib.org/</dc:title>
     </cc:Agent>
    </dc:creator>
   </cc:Work>
  </rdf:RDF>
 </metadata>
 <defs>
  <style type="text/css">*{stroke-linejoin: round; stroke-linecap: butt}</style>
 </defs>
 <g id="figure_1">
  <g id="patch_1">
   <path d="M 0 530.255625 
L 511.88 530.255625 
L 511.88 0 
L 0 0 
L 0 530.255625 
z
" style="fill: none"/>
  </g>
  <g id="axes_1">
   <g id="patch_2">
    <path d="M 54.52 478.654375 
L 504.68 478.654375 
L 504.68 27.515625 
L 54.52 27.515625 
L 54.52 478.654375 
z
" style="fill: none"/>
   </g>
   <g id="patch_3">
    <path d="M 74.981818 478.654375 
L 92.774704 478.654375 
L 92.774704 478.654375 
L 74.981818 478.654375 
z
" clip-path="url(#p672e0fd195)" style="fill: #fa8072; fill-opacity: 0.5; stroke: #fcfcfc; stroke-width: 3; stroke-linejoin: miter"/>
   </g>
   <g id="patch_4">
    <path d="M 92.774704 478.654375 
L 110.567589 478.654375 
L 110.567589 478.654375 
L 92.774704 478.654375 
z
" clip-path="url(#p672e0fd195)" style="fill: #fa8072; fill-opacity: 0.5; stroke: #fcfcfc; stroke-width: 3; stroke-linejoin: miter"/>
   </g>
   <g id="patch_5">
    <path d="M 110.567589 478.654375 
L 128.360474 478.654375 
L 128.360474 478.654375 
L 110.567589 478.654375 
z
" clip-path="url(#p672e0fd195)" style="fill: #fa8072; fill-opacity: 0.5; stroke: #fcfcfc; stroke-width: 3; stroke-linejoin: miter"/>
   </g>
   <g id="patch_6">
    <path d="M 128.360474 478.654375 
L 146.15336 478.654375 
L 146.15336 478.654375 
L 128.360474 478.654375 
z
" clip-path="url(#p672e0fd195)" style="fill: #fa8072; fill-opacity: 0.5; stroke: #fcfcfc; stroke-width: 3; stroke-linejoin: miter"/>
   </g>
   <g id="patch_7">
    <path d="M 146.15336 478.654375 
L 163.946245 478.654375 
L 163.946245 478.654375 
L 146.15336 478.654375 
z
" clip-path="url(#p672e0fd195)" style="fill: #fa8072; fill-opacity: 0.5; stroke: #fcfcfc; stroke-width: 3; stroke-linejoin: miter"/>
   </g>
   <g id="patch_8">
    <path d="M 163.946245 478.654375 
L 181.73913 478.654375 
L 181.73913 478.654375 
L 163.946245 478.654375 
z
" clip-path="url(#p672e0fd195)" style="fill: #fa8072; fill-opacity: 0.5; stroke: #fcfcfc; stroke-width: 3; stroke-linejoin: miter"/>
   </g>
   <g id="patch_9">
    <path d="M 181.73913 478.654375 
L 199.532016 478.654375 
L 199.532016 478.654375 
L 181.73913 478.654375 
z
" clip-path="url(#p672e0fd195)" style="fill: #fa8072; fill-opacity: 0.5; stroke: #fcfcfc; stroke-width: 3; stroke-linejoin: miter"/>
   </g>
   <g id="patch_10">
    <path d="M 199.532016 478.654375 
L 217.324901 478.654375 
L 217.324901 478.654375 
L 199.532016 478.654375 
z
" clip-path="url(#p672e0fd195)" style="fill: #fa8072; fill-opacity: 0.5; stroke: #fcfcfc; stroke-width: 3; stroke-linejoin: miter"/>
   </g>
   <g id="patch_11">
    <path d="M 217.324901 478.654375 
L 235.117787 478.654375 
L 235.117787 478.654375 
L 217.324901 478.654375 
z
" clip-path="url(#p672e0fd195)" style="fill: #fa8072; fill-opacity: 0.5; stroke: #fcfcfc; stroke-width: 3; stroke-linejoin: miter"/>
   </g>
   <g id="patch_12">
    <path d="M 235.117787 478.654375 
L 252.910672 478.654375 
L 252.910672 425.835076 
L 235.117787 425.835076 
z
" clip-path="url(#p672e0fd195)" style="fill: #fa8072; fill-opacity: 0.5; stroke: #fcfcfc; stroke-width: 3; stroke-linejoin: miter"/>
   </g>
   <g id="patch_13">
    <path d="M 252.910672 478.654375 
L 270.703557 478.654375 
L 270.703557 276.980689 
L 252.910672 276.980689 
z
" clip-path="url(#p672e0fd195)" style="fill: #fa8072; fill-opacity: 0.5; stroke: #fcfcfc; stroke-width: 3; stroke-linejoin: miter"/>
   </g>
   <g id="patch_14">
    <path d="M 270.703557 478.654375 
L 288.496443 478.654375 
L 288.496443 334.601742 
L 270.703557 334.601742 
z
" clip-path="url(#p672e0fd195)" style="fill: #fa8072; fill-opacity: 0.5; stroke: #fcfcfc; stroke-width: 3; stroke-linejoin: miter"/>
   </g>
   <g id="patch_15">
    <path d="M 288.496443 478.654375 
L 306.289328 478.654375 
L 306.289328 373.015778 
L 288.496443 373.015778 
z
" clip-path="url(#p672e0fd195)" style="fill: #fa8072; fill-opacity: 0.5; stroke: #fcfcfc; stroke-width: 3; stroke-linejoin: miter"/>
   </g>
   <g id="patch_16">
    <path d="M 306.289328 478.654375 
L 324.082213 478.654375 
L 324.082213 397.02455 
L 306.289328 397.02455 
z
" clip-path="url(#p672e0fd195)" style="fill: #fa8072; fill-opacity: 0.5; stroke: #fcfcfc; stroke-width: 3; stroke-linejoin: miter"/>
   </g>
   <g id="patch_17">
    <path d="M 324.082213 478.654375 
L 341.875099 478.654375 
L 341.875099 421.033322 
L 324.082213 421.033322 
z
" clip-path="url(#p672e0fd195)" style="fill: #fa8072; fill-opacity: 0.5; stroke: #fcfcfc; stroke-width: 3; stroke-linejoin: miter"/>
   </g>
   <g id="patch_18">
    <path d="M 341.875099 478.654375 
L 359.667984 478.654375 
L 359.667984 445.042094 
L 341.875099 445.042094 
z
" clip-path="url(#p672e0fd195)" style="fill: #fa8072; fill-opacity: 0.5; stroke: #fcfcfc; stroke-width: 3; stroke-linejoin: miter"/>
   </g>
   <g id="patch_19">
    <path d="M 359.667984 478.654375 
L 377.46087 478.654375 
L 377.46087 421.033322 
L 359.667984 421.033322 
z
" clip-path="url(#p672e0fd195)" style="fill: #fa8072; fill-opacity: 0.5; stroke: #fcfcfc; stroke-width: 3; stroke-linejoin: miter"/>
   </g>
   <g id="patch_20">
    <path d="M 377.46087 478.654375 
L 395.253755 478.654375 
L 395.253755 449.843848 
L 377.46087 449.843848 
z
" clip-path="url(#p672e0fd195)" style="fill: #fa8072; fill-opacity: 0.5; stroke: #fcfcfc; stroke-width: 3; stroke-linejoin: miter"/>
   </g>
   <g id="patch_21">
    <path d="M 395.253755 478.654375 
L 413.04664 478.654375 
L 413.04664 459.447357 
L 395.253755 459.447357 
z
" clip-path="url(#p672e0fd195)" style="fill: #fa8072; fill-opacity: 0.5; stroke: #fcfcfc; stroke-width: 3; stroke-linejoin: miter"/>
   </g>
   <g id="patch_22">
    <path d="M 413.04664 478.654375 
L 430.839526 478.654375 
L 430.839526 478.654375 
L 413.04664 478.654375 
z
" clip-path="url(#p672e0fd195)" style="fill: #fa8072; fill-opacity: 0.5; stroke: #fcfcfc; stroke-width: 3; stroke-linejoin: miter"/>
   </g>
   <g id="patch_23">
    <path d="M 430.839526 478.654375 
L 448.632411 478.654375 
L 448.632411 473.852621 
L 430.839526 473.852621 
z
" clip-path="url(#p672e0fd195)" style="fill: #fa8072; fill-opacity: 0.5; stroke: #fcfcfc; stroke-width: 3; stroke-linejoin: miter"/>
   </g>
   <g id="patch_24">
    <path d="M 448.632411 478.654375 
L 466.425296 478.654375 
L 466.425296 478.654375 
L 448.632411 478.654375 
z
" clip-path="url(#p672e0fd195)" style="fill: #fa8072; fill-opacity: 0.5; stroke: #fcfcfc; stroke-width: 3; stroke-linejoin: miter"/>
   </g>
   <g id="patch_25">
    <path d="M 466.425296 478.654375 
L 484.218182 478.654375 
L 484.218182 469.050866 
L 466.425296 469.050866 
z
" clip-path="url(#p672e0fd195)" style="fill: #fa8072; fill-opacity: 0.5; stroke: #fcfcfc; stroke-width: 3; stroke-linejoin: miter"/>
   </g>
   <g id="patch_26">
    <path d="M 74.981818 478.654375 
L 92.774704 478.654375 
L 92.774704 469.050866 
L 74.981818 469.050866 
z
" clip-path="url(#p672e0fd195)" style="fill: #4682b4; fill-opacity: 0.5; stroke: #fcfcfc; stroke-width: 3; stroke-linejoin: miter"/>
   </g>
   <g id="patch_27">
    <path d="M 92.774704 478.654375 
L 110.567589 478.654375 
L 110.567589 440.24034 
L 92.774704 440.24034 
z
" clip-path="url(#p672e0fd195)" style="fill: #4682b4; fill-opacity: 0.5; stroke: #fcfcfc; stroke-width: 3; stroke-linejoin: miter"/>
   </g>
   <g id="patch_28">
    <path d="M 110.567589 478.654375 
L 128.360474 478.654375 
L 128.360474 430.636831 
L 110.567589 430.636831 
z
" clip-path="url(#p672e0fd195)" style="fill: #4682b4; fill-opacity: 0.5; stroke: #fcfcfc; stroke-width: 3; stroke-linejoin: miter"/>
   </g>
   <g id="patch_29">
    <path d="M 128.360474 478.654375 
L 146.15336 478.654375 
L 146.15336 334.601742 
L 128.360474 334.601742 
z
" clip-path="url(#p672e0fd195)" style="fill: #4682b4; fill-opacity: 0.5; stroke: #fcfcfc; stroke-width: 3; stroke-linejoin: miter"/>
   </g>
   <g id="patch_30">
    <path d="M 146.15336 478.654375 
L 163.946245 478.654375 
L 163.946245 200.152618 
L 146.15336 200.152618 
z
" clip-path="url(#p672e0fd195)" style="fill: #4682b4; fill-opacity: 0.5; stroke: #fcfcfc; stroke-width: 3; stroke-linejoin: miter"/>
   </g>
   <g id="patch_31">
    <path d="M 163.946245 478.654375 
L 181.73913 478.654375 
L 181.73913 128.126302 
L 163.946245 128.126302 
z
" clip-path="url(#p672e0fd195)" style="fill: #4682b4; fill-opacity: 0.5; stroke: #fcfcfc; stroke-width: 3; stroke-linejoin: miter"/>
   </g>
   <g id="patch_32">
    <path d="M 181.73913 478.654375 
L 199.532016 478.654375 
L 199.532016 65.703495 
L 181.73913 65.703495 
z
" clip-path="url(#p672e0fd195)" style="fill: #4682b4; fill-opacity: 0.5; stroke: #fcfcfc; stroke-width: 3; stroke-linejoin: miter"/>
   </g>
   <g id="patch_33">
    <path d="M 199.532016 478.654375 
L 217.324901 478.654375 
L 217.324901 84.910512 
L 199.532016 84.910512 
z
" clip-path="url(#p672e0fd195)" style="fill: #4682b4; fill-opacity: 0.5; stroke: #fcfcfc; stroke-width: 3; stroke-linejoin: miter"/>
   </g>
   <g id="patch_34">
    <path d="M 217.324901 478.654375 
L 235.117787 478.654375 
L 235.117787 224.161391 
L 217.324901 224.161391 
z
" clip-path="url(#p672e0fd195)" style="fill: #4682b4; fill-opacity: 0.5; stroke: #fcfcfc; stroke-width: 3; stroke-linejoin: miter"/>
   </g>
   <g id="patch_35">
    <path d="M 235.117787 478.654375 
L 252.910672 478.654375 
L 252.910672 276.980689 
L 235.117787 276.980689 
z
" clip-path="url(#p672e0fd195)" style="fill: #4682b4; fill-opacity: 0.5; stroke: #fcfcfc; stroke-width: 3; stroke-linejoin: miter"/>
   </g>
   <g id="patch_36">
    <path d="M 252.910672 478.654375 
L 270.703557 478.654375 
L 270.703557 478.654375 
L 252.910672 478.654375 
z
" clip-path="url(#p672e0fd195)" style="fill: #4682b4; fill-opacity: 0.5; stroke: #fcfcfc; stroke-width: 3; stroke-linejoin: miter"/>
   </g>
   <g id="patch_37">
    <path d="M 270.703557 478.654375 
L 288.496443 478.654375 
L 288.496443 478.654375 
L 270.703557 478.654375 
z
" clip-path="url(#p672e0fd195)" style="fill: #4682b4; fill-opacity: 0.5; stroke: #fcfcfc; stroke-width: 3; stroke-linejoin: miter"/>
   </g>
   <g id="patch_38">
    <path d="M 288.496443 478.654375 
L 306.289328 478.654375 
L 306.289328 478.654375 
L 288.496443 478.654375 
z
" clip-path="url(#p672e0fd195)" style="fill: #4682b4; fill-opacity: 0.5; stroke: #fcfcfc; stroke-width: 3; stroke-linejoin: miter"/>
   </g>
   <g id="patch_39">
    <path d="M 306.289328 478.654375 
L 324.082213 478.654375 
L 324.082213 478.654375 
L 306.289328 478.654375 
z
" clip-path="url(#p672e0fd195)" style="fill: #4682b4; fill-opacity: 0.5; stroke: #fcfcfc; stroke-width: 3; stroke-linejoin: miter"/>
   </g>
   <g id="patch_40">
    <path d="M 324.082213 478.654375 
L 341.875099 478.654375 
L 341.875099 478.654375 
L 324.082213 478.654375 
z
" clip-path="url(#p672e0fd195)" style="fill: #4682b4; fill-opacity: 0.5; stroke: #fcfcfc; stroke-width: 3; stroke-linejoin: miter"/>
   </g>
   <g id="patch_41">
    <path d="M 341.875099 478.654375 
L 359.667984 478.654375 
L 359.667984 478.654375 
L 341.875099 478.654375 
z
" clip-path="url(#p672e0fd195)" style="fill: #4682b4; fill-opacity: 0.5; stroke: #fcfcfc; stroke-width: 3; stroke-linejoin: miter"/>
   </g>
   <g id="patch_42">
    <path d="M 359.667984 478.654375 
L 377.46087 478.654375 
L 377.46087 478.654375 
L 359.667984 478.654375 
z
" clip-path="url(#p672e0fd195)" style="fill: #4682b4; fill-opacity: 0.5; stroke: #fcfcfc; stroke-width: 3; stroke-linejoin: miter"/>
   </g>
   <g id="patch_43">
    <path d="M 377.46087 478.654375 
L 395.253755 478.654375 
L 395.253755 478.654375 
L 377.46087 478.654375 
z
" clip-path="url(#p672e0fd195)" style="fill: #4682b4; fill-opacity: 0.5; stroke: #fcfcfc; stroke-width: 3; stroke-linejoin: miter"/>
   </g>
   <g id="patch_44">
    <path d="M 395.253755 478.654375 
L 413.04664 478.654375 
L 413.04664 478.654375 
L 395.253755 478.654375 
z
" clip-path="url(#p672e0fd195)" style="fill: #4682b4; fill-opacity: 0.5; stroke: #fcfcfc; stroke-width: 3; stroke-linejoin: miter"/>
   </g>
   <g id="patch_45">
    <path d="M 413.04664 478.654375 
L 430.839526 478.654375 
L 430.839526 478.654375 
L 413.04664 478.654375 
z
" clip-path="url(#p672e0fd195)" style="fill: #4682b4; fill-opacity: 0.5; stroke: #fcfcfc; stroke-width: 3; stroke-linejoin: miter"/>
   </g>
   <g id="patch_46">
    <path d="M 430.839526 478.654375 
L 448.632411 478.654375 
L 448.632411 478.654375 
L 430.839526 478.654375 
z
" clip-path="url(#p672e0fd195)" style="fill: #4682b4; fill-opacity: 0.5; stroke: #fcfcfc; stroke-width: 3; stroke-linejoin: miter"/>
   </g>
   <g id="patch_47">
    <path d="M 448.632411 478.654375 
L 466.425296 478.654375 
L 466.425296 478.654375 
L 448.632411 478.654375 
z
" clip-path="url(#p672e0fd195)" style="fill: #4682b4; fill-opacity: 0.5; stroke: #fcfcfc; stroke-width: 3; stroke-linejoin: miter"/>
   </g>
   <g id="patch_48">
    <path d="M 466.425296 478.654375 
L 484.218182 478.654375 
L 484.218182 478.654375 
L 466.425296 478.654375 
z
" clip-path="url(#p672e0fd195)" style="fill: #4682b4; fill-opacity: 0.5; stroke: #fcfcfc; stroke-width: 3; stroke-linejoin: miter"/>
   </g>
   <g id="matplotlib.axis_1">
    <g id="xtick_1">
     <g id="line2d_1">
      <defs>
       <path id="m4916d5b8c4" d="M 0 0 
L 0 3.5 
" style="stroke: #000000; stroke-width: 0.8"/>
      </defs>
      <g>
       <use xlink:href="#m4916d5b8c4" x="74.981818" y="478.654375" style="stroke: #000000; stroke-width: 0.8"/>
      </g>
     </g>
     <g id="text_1">
      <text style="font: 16px 'Arial', sans-serif; text-anchor: middle" x="74.981818" y="497.106875" transform="rotate(-0 74.981818 497.106875)">0.0</text>
     </g>
    </g>
    <g id="xtick_2">
     <g id="line2d_2">
      <g>
       <use xlink:href="#m4916d5b8c4" x="125.871522" y="478.654375" style="stroke: #000000; stroke-width: 0.8"/>
      </g>
     </g>
     <g id="text_2">
      <text style="font: 16px 'Arial', sans-serif; text-anchor: middle" x="125.871522" y="497.106875" transform="rotate(-0 125.871522 497.106875)">0.5</text>
     </g>
    </g>
    <g id="xtick_3">
     <g id="line2d_3">
      <g>
       <use xlink:href="#m4916d5b8c4" x="176.761226" y="478.654375" style="stroke: #000000; stroke-width: 0.8"/>
      </g>
     </g>
     <g id="text_3">
      <text style="font: 16px 'Arial', sans-serif; text-anchor: middle" x="176.761226" y="497.106875" transform="rotate(-0 176.761226 497.106875)">1.0</text>
     </g>
    </g>
    <g id="xtick_4">
     <g id="line2d_4">
      <g>
       <use xlink:href="#m4916d5b8c4" x="227.650931" y="478.654375" style="stroke: #000000; stroke-width: 0.8"/>
      </g>
     </g>
     <g id="text_4">
      <text style="font: 16px 'Arial', sans-serif; text-anchor: middle" x="227.650931" y="497.106875" transform="rotate(-0 227.650931 497.106875)">1.5</text>
     </g>
    </g>
    <g id="xtick_5">
     <g id="line2d_5">
      <g>
       <use xlink:href="#m4916d5b8c4" x="278.540635" y="478.654375" style="stroke: #000000; stroke-width: 0.8"/>
      </g>
     </g>
     <g id="text_5">
      <text style="font: 16px 'Arial', sans-serif; text-anchor: middle" x="278.540635" y="497.106875" transform="rotate(-0 278.540635 497.106875)">2.0</text>
     </g>
    </g>
    <g id="xtick_6">
     <g id="line2d_6">
      <g>
       <use xlink:href="#m4916d5b8c4" x="329.430339" y="478.654375" style="stroke: #000000; stroke-width: 0.8"/>
      </g>
     </g>
     <g id="text_6">
      <text style="font: 16px 'Arial', sans-serif; text-anchor: middle" x="329.430339" y="497.106875" transform="rotate(-0 329.430339 497.106875)">2.5</text>
     </g>
    </g>
    <g id="xtick_7">
     <g id="line2d_7">
      <g>
       <use xlink:href="#m4916d5b8c4" x="380.320043" y="478.654375" style="stroke: #000000; stroke-width: 0.8"/>
      </g>
     </g>
     <g id="text_7">
      <text style="font: 16px 'Arial', sans-serif; text-anchor: middle" x="380.320043" y="497.106875" transform="rotate(-0 380.320043 497.106875)">3.0</text>
     </g>
    </g>
    <g id="xtick_8">
     <g id="line2d_8">
      <g>
       <use xlink:href="#m4916d5b8c4" x="431.209747" y="478.654375" style="stroke: #000000; stroke-width: 0.8"/>
      </g>
     </g>
     <g id="text_8">
      <text style="font: 16px 'Arial', sans-serif; text-anchor: middle" x="431.209747" y="497.106875" transform="rotate(-0 431.209747 497.106875)">3.5</text>
     </g>
    </g>
    <g id="xtick_9">
     <g id="line2d_9">
      <g>
       <use xlink:href="#m4916d5b8c4" x="482.099451" y="478.654375" style="stroke: #000000; stroke-width: 0.8"/>
      </g>
     </g>
     <g id="text_9">
      <text style="font: 16px 'Arial', sans-serif; text-anchor: middle" x="482.099451" y="497.106875" transform="rotate(-0 482.099451 497.106875)">4.0</text>
     </g>
    </g>
    <g id="text_10">
     <text style="font: 20px 'Arial', sans-serif; text-anchor: middle" x="279.6" y="518.84625" transform="rotate(-0 279.6 518.84625)">Burden (log10)</text>
    </g>
   </g>
   <g id="matplotlib.axis_2">
    <g id="ytick_1">
     <g id="line2d_10">
      <defs>
       <path id="md5dd5d56c9" d="M 0 0 
L -3.5 0 
" style="stroke: #000000; stroke-width: 0.8"/>
      </defs>
      <g>
       <use xlink:href="#md5dd5d56c9" x="54.52" y="478.654375" style="stroke: #000000; stroke-width: 0.8"/>
      </g>
     </g>
     <g id="text_11">
      <text style="font: 16px 'Arial', sans-serif; text-anchor: end" x="47.52" y="484.380625" transform="rotate(-0 47.52 484.380625)">0</text>
     </g>
    </g>
    <g id="ytick_2">
     <g id="line2d_11">
      <g>
       <use xlink:href="#md5dd5d56c9" x="54.52" y="382.619287" style="stroke: #000000; stroke-width: 0.8"/>
      </g>
     </g>
     <g id="text_12">
      <text style="font: 16px 'Arial', sans-serif; text-anchor: end" x="47.52" y="388.345537" transform="rotate(-0 47.52 388.345537)">20</text>
     </g>
    </g>
    <g id="ytick_3">
     <g id="line2d_12">
      <g>
       <use xlink:href="#md5dd5d56c9" x="54.52" y="286.584198" style="stroke: #000000; stroke-width: 0.8"/>
      </g>
     </g>
     <g id="text_13">
      <text style="font: 16px 'Arial', sans-serif; text-anchor: end" x="47.52" y="292.310448" transform="rotate(-0 47.52 292.310448)">40</text>
     </g>
    </g>
    <g id="ytick_4">
     <g id="line2d_13">
      <g>
       <use xlink:href="#md5dd5d56c9" x="54.52" y="190.54911" style="stroke: #000000; stroke-width: 0.8"/>
      </g>
     </g>
     <g id="text_14">
      <text style="font: 16px 'Arial', sans-serif; text-anchor: end" x="47.52" y="196.27536" transform="rotate(-0 47.52 196.27536)">60</text>
     </g>
    </g>
    <g id="ytick_5">
     <g id="line2d_14">
      <g>
       <use xlink:href="#md5dd5d56c9" x="54.52" y="94.514021" style="stroke: #000000; stroke-width: 0.8"/>
      </g>
     </g>
     <g id="text_15">
      <text style="font: 16px 'Arial', sans-serif; text-anchor: end" x="47.52" y="100.240271" transform="rotate(-0 47.52 100.240271)">80</text>
     </g>
    </g>
    <g id="text_16">
     <text style="font: 20px 'Arial', sans-serif; text-anchor: middle" x="21.515625" y="253.085" transform="rotate(-90 21.515625 253.085)">Density</text>
    </g>
   </g>
   <g id="line2d_15">
    <path d="M 74.981818 478.654375 
L 192.200274 478.547597 
L 198.369667 478.288404 
L 202.482595 477.877622 
L 204.539059 477.545647 
L 206.595523 477.093084 
L 208.651987 476.48524 
L 210.708451 475.680906 
L 212.764915 474.632334 
L 214.82138 473.285651 
L 216.877844 471.581839 
L 218.934308 469.458356 
L 220.990772 466.851449 
L 223.047236 463.699156 
L 225.1037 459.944917 
L 227.160164 455.54165 
L 229.216629 450.456051 
L 231.273093 444.672836 
L 233.329557 438.198575 
L 235.386021 431.064752 
L 237.442485 423.329721 
L 241.555413 406.425443 
L 249.78127 370.745721 
L 251.837734 362.404977 
L 253.894198 354.636174 
L 255.950662 347.589778 
L 258.007127 341.39418 
L 260.063591 336.150517 
L 262.120055 331.929045 
L 264.176519 328.767239 
L 266.232983 326.66968 
L 268.289447 325.609645 
L 270.345911 325.532222 
L 272.402376 326.358677 
L 274.45884 327.991747 
L 276.515304 330.321485 
L 278.571768 333.231289 
L 280.628232 336.603742 
L 282.684696 340.325943 
L 286.797624 348.416741 
L 297.079945 369.230523 
L 303.249338 380.953953 
L 309.41873 392.027824 
L 313.531658 399.023545 
L 317.644587 405.579099 
L 321.757515 411.510932 
L 323.813979 414.182096 
L 325.870443 416.628999 
L 327.926907 418.836825 
L 329.983371 420.797081 
L 332.039836 422.508296 
L 334.0963 423.976227 
L 336.152764 425.2136 
L 338.209228 426.239466 
L 340.265692 427.078263 
L 342.322156 427.758682 
L 346.435085 428.772965 
L 356.717405 430.820892 
L 360.830333 432.030018 
L 364.943262 433.669218 
L 369.05619 435.771845 
L 373.169118 438.302687 
L 377.282047 441.179352 
L 383.451439 445.918609 
L 401.959616 460.655576 
L 406.072545 463.657154 
L 410.185473 466.42166 
L 414.298401 468.876442 
L 418.411329 470.959315 
L 422.524258 472.631646 
L 426.637186 473.887515 
L 430.750114 474.755759 
L 434.863042 475.293874 
L 438.975971 475.575292 
L 445.145363 475.674105 
L 453.37122 475.468106 
L 463.65354 474.929048 
L 471.879397 474.501783 
L 478.048789 474.414266 
L 482.161718 474.544718 
L 484.218182 474.672454 
L 484.218182 474.672454 
" clip-path="url(#p672e0fd195)" style="fill: none; stroke: #fa8072; stroke-width: 1.5; stroke-linecap: square"/>
   </g>
   <g id="line2d_16">
    <path d="M 74.981818 471.511589 
L 77.038282 471.469701 
L 83.207675 471.687485 
L 85.264139 471.356507 
L 87.320603 470.534986 
L 89.377067 469.091373 
L 91.433531 466.962655 
L 93.489995 464.174603 
L 95.54646 460.847235 
L 101.715852 449.802147 
L 103.772316 446.506391 
L 105.82878 443.602751 
L 109.941709 438.634178 
L 111.998173 436.155261 
L 114.054637 433.339094 
L 116.111101 429.965216 
L 118.167565 425.888271 
L 120.224029 421.046067 
L 122.280493 415.441557 
L 124.336958 409.109044 
L 126.393422 402.077705 
L 128.449886 394.342674 
L 130.50635 385.848047 
L 132.562814 376.48141 
L 134.619278 366.078179 
L 136.675742 354.436057 
L 138.732206 341.342435 
L 140.788671 326.617407 
L 142.845135 310.170802 
L 144.901599 292.064363 
L 149.014527 252.159716 
L 153.127455 211.567015 
L 155.18392 193.063333 
L 157.240384 176.777816 
L 159.296848 163.202035 
L 161.353312 152.482978 
L 163.409776 144.38503 
L 165.46624 138.324853 
L 167.522704 133.476356 
L 169.579169 128.926032 
L 171.635633 123.845769 
L 173.692097 117.644865 
L 175.748561 110.067575 
L 177.805025 101.216555 
L 183.974418 72.007212 
L 186.030882 63.557886 
L 188.087346 56.714814 
L 190.14381 51.857587 
L 192.200274 49.234301 
L 194.256738 48.998423 
L 196.313202 51.242812 
L 198.369667 56.01115 
L 200.426131 63.279385 
L 202.482595 72.914704 
L 204.539059 84.631405 
L 206.595523 97.967788 
L 212.764915 141.126534 
L 214.82138 154.326725 
L 216.877844 166.161992 
L 218.934308 176.533572 
L 220.990772 185.592733 
L 223.047236 193.672936 
L 229.216629 216.210305 
L 231.273093 224.397414 
L 233.329557 233.440333 
L 235.386021 243.642893 
L 237.442485 255.324344 
L 239.498949 268.783413 
L 241.555413 284.223107 
L 243.611878 301.660864 
L 245.668342 320.858944 
L 253.894198 402.240197 
L 255.950662 419.679309 
L 258.007127 434.678823 
L 260.063591 447.010026 
L 262.120055 456.700737 
L 264.176519 463.982093 
L 266.232983 469.21416 
L 268.289447 472.810293 
L 270.345911 475.175061 
L 272.402376 476.663084 
L 274.45884 477.5592 
L 276.515304 478.075744 
L 278.571768 478.360767 
L 282.684696 478.587476 
L 290.910553 478.652257 
L 467.766469 478.654375 
L 484.218182 478.654375 
L 484.218182 478.654375 
" clip-path="url(#p672e0fd195)" style="fill: none; stroke: #4682b4; stroke-width: 1.5; stroke-linecap: square"/>
   </g>
   <g id="patch_49">
    <path d="M 54.52 478.654375 
L 54.52 27.515625 
" style="fill: none; stroke: #000000; stroke-width: 0.8; stroke-linejoin: miter; stroke-linecap: square"/>
   </g>
   <g id="patch_50">
    <path d="M 54.52 478.654375 
L 504.68 478.654375 
" style="fill: none; stroke: #000000; stroke-width: 0.8; stroke-linejoin: miter; stroke-linecap: square"/>
   </g>
   <g id="text_17">
    <text style="font: 20px 'Arial', sans-serif; text-anchor: middle" x="279.6" y="21.515625" transform="rotate(-0 279.6 21.515625)">DBS</text>
   </g>
  </g>
 </g>
 <defs>
  <clipPath id="p672e0fd195">
   <rect x="54.52" y="27.515625" width="450.16" height="451.13875"/>
  </clipPath>
 </defs>
</svg>
