<?xml version="1.0" encoding="utf-8" standalone="no"?>
<!DOCTYPE svg PUBLIC "-//W3C//DTD SVG 1.1//EN"
  "http://www.w3.org/Graphics/SVG/1.1/DTD/svg11.dtd">
<svg xmlns:xlink="http://www.w3.org/1999/xlink" width="420.305625pt" height="566.914775pt" viewBox="0 0 420.305625 566.914775" xmlns="http://www.w3.org/2000/svg" version="1.1">
 <metadata>
  <rdf:RDF xmlns:dc="http://purl.org/dc/elements/1.1/" xmlns:cc="http://creativecommons.org/ns#" xmlns:rdf="http://www.w3.org/1999/02/22-rdf-syntax-ns#">
   <cc:Work>
    <dc:type rdf:resource="http://purl.org/dc/dcmitype/StillImage"/>
    <dc:date>2026-05-25T12:57:08.770226</dc:date>
    <dc:format>image/svg+xml</dc:format>
    <dc:creator>
     <cc:Agent>
      <dc:title>Matplotlib v3.7.3, https://matplotlib.org/</dc:title>
     </cc:Agent>
    </dc:creator>
   </cc:Work>
  </rdf:RDF>
 </metadata>
 <defs>
  <style type="text/css">*{stroke-linejoin: round; stroke-linecap: butt}</style>
 </defs>
 <g id="figure_1">
  <g id="patch_1">
   <path d="M 0 566.914775 
L 420.305625 566.914775 
L 420.305625 0 
L 0 0 
L 0 566.914775 
z
" style="fill: none"/>
  </g>
  <g id="axes_1">
   <g id="patch_2">
    <path d="M 60.460625 474.216 
L 413.105625 474.216 
L 413.105625 70.703 
L 60.460625 70.703 
L 60.460625 474.216 
z
" style="fill: none"/>
   </g>
   <g id="patch_3">
    <path d="M 76.489943 474.216 
L 213.884099 474.216 
L 213.884099 107.386 
L 76.489943 107.386 
z
" clip-path="url(#p4f808f1ed8)" style="fill: #d3d3d3"/>
   </g>
   <g id="patch_4">
    <path d="M 76.489943 474.216 
L 213.884099 474.216 
L 213.884099 323.667272 
L 76.489943 323.667272 
z
" clip-path="url(#p4f808f1ed8)" style="fill: #ff6347"/>
   </g>
   <g id="patch_5">
    <path d="M 259.682151 474.216 
L 397.076307 474.216 
L 397.076307 387.27941 
L 259.682151 387.27941 
z
" clip-path="url(#p4f808f1ed8)" style="fill: #d3d3d3"/>
   </g>
   <g id="patch_6">
    <path d="M 259.682151 474.216 
L 397.076307 474.216 
L 397.076307 465.734382 
L 259.682151 465.734382 
z
" clip-path="url(#p4f808f1ed8)" style="fill: #4682b4"/>
   </g>
   <g id="matplotlib.axis_1"/>
   <g id="matplotlib.axis_2">
    <g id="ytick_1">
     <g id="line2d_1">
      <defs>
       <path id="m0a2d90e7fc" d="M 0 0 
L -3.5 0 
" style="stroke: #000000; stroke-width: 0.8"/>
      </defs>
      <g>
       <use xlink:href="#m0a2d90e7fc" x="60.460625" y="474.216" style="stroke: #000000; stroke-width: 0.8"/>
      </g>
     </g>
     <g id="text_1">
      <text style="font: 12px 'Arial', sans-serif; text-anchor: end" x="53.460625" y="478.510688" transform="rotate(-0 53.460625 478.510688)">0</text>
     </g>
    </g>
    <g id="ytick_2">
     <g id="line2d_2">
      <g>
       <use xlink:href="#m0a2d90e7fc" x="60.460625" y="421.205884" style="stroke: #000000; stroke-width: 0.8"/>
      </g>
     </g>
     <g id="text_2">
      <text style="font: 12px 'Arial', sans-serif; text-anchor: end" x="53.460625" y="425.500572" transform="rotate(-0 53.460625 425.500572)">25</text>
     </g>
    </g>
    <g id="ytick_3">
     <g id="line2d_3">
      <g>
       <use xlink:href="#m0a2d90e7fc" x="60.460625" y="368.195769" style="stroke: #000000; stroke-width: 0.8"/>
      </g>
     </g>
     <g id="text_3">
      <text style="font: 12px 'Arial', sans-serif; text-anchor: end" x="53.460625" y="372.490456" transform="rotate(-0 53.460625 372.490456)">50</text>
     </g>
    </g>
    <g id="ytick_4">
     <g id="line2d_4">
      <g>
       <use xlink:href="#m0a2d90e7fc" x="60.460625" y="315.185653" style="stroke: #000000; stroke-width: 0.8"/>
      </g>
     </g>
     <g id="text_4">
      <text style="font: 12px 'Arial', sans-serif; text-anchor: end" x="53.460625" y="319.480341" transform="rotate(-0 53.460625 319.480341)">75</text>
     </g>
    </g>
    <g id="ytick_5">
     <g id="line2d_5">
      <g>
       <use xlink:href="#m0a2d90e7fc" x="60.460625" y="262.175538" style="stroke: #000000; stroke-width: 0.8"/>
      </g>
     </g>
     <g id="text_5">
      <text style="font: 12px 'Arial', sans-serif; text-anchor: end" x="53.460625" y="266.470225" transform="rotate(-0 53.460625 266.470225)">100</text>
     </g>
    </g>
    <g id="ytick_6">
     <g id="line2d_6">
      <g>
       <use xlink:href="#m0a2d90e7fc" x="60.460625" y="209.165422" style="stroke: #000000; stroke-width: 0.8"/>
      </g>
     </g>
     <g id="text_6">
      <text style="font: 12px 'Arial', sans-serif; text-anchor: end" x="53.460625" y="213.460109" transform="rotate(-0 53.460625 213.460109)">125</text>
     </g>
    </g>
    <g id="ytick_7">
     <g id="line2d_7">
      <g>
       <use xlink:href="#m0a2d90e7fc" x="60.460625" y="156.155306" style="stroke: #000000; stroke-width: 0.8"/>
      </g>
     </g>
     <g id="text_7">
      <text style="font: 12px 'Arial', sans-serif; text-anchor: end" x="53.460625" y="160.449994" transform="rotate(-0 53.460625 160.449994)">150</text>
     </g>
    </g>
    <g id="ytick_8">
     <g id="line2d_8">
      <g>
       <use xlink:href="#m0a2d90e7fc" x="60.460625" y="103.145191" style="stroke: #000000; stroke-width: 0.8"/>
      </g>
     </g>
     <g id="text_8">
      <text style="font: 12px 'Arial', sans-serif; text-anchor: end" x="53.460625" y="107.439878" transform="rotate(-0 53.460625 107.439878)">175</text>
     </g>
    </g>
    <g id="text_9">
     <text style="font: 24px 'Arial', sans-serif; text-anchor: middle" x="24.67125" y="272.4595" transform="rotate(-90 24.67125 272.4595)">Number of Samples</text>
    </g>
   </g>
   <g id="patch_7">
    <path d="M 60.460625 474.216 
L 60.460625 70.703 
" style="fill: none; stroke: #000000; stroke-width: 0.8; stroke-linejoin: miter; stroke-linecap: square"/>
   </g>
   <g id="text_10">
    <text style="font: 24px 'Arial', sans-serif; text-anchor: middle" x="145.187021" y="405.151636" transform="rotate(-0 145.187021 405.151636)">71 (41%)</text>
   </g>
   <g id="text_11">
    <text style="font: 24px 'Arial', sans-serif; text-anchor: middle" x="145.187021" y="221.736636" transform="rotate(-0 145.187021 221.736636)">102 (59%)</text>
   </g>
   <g id="text_12">
    <text style="font: 24px 'Arial', sans-serif; text-anchor: middle" x="328.379229" y="476.185191" transform="rotate(-0 328.379229 476.185191)">4 (10%)</text>
   </g>
   <g id="text_13">
    <text style="font: 24px 'Arial', sans-serif; text-anchor: middle" x="328.379229" y="432.716896" transform="rotate(-0 328.379229 432.716896)">37 (90%)</text>
   </g>
   <g id="text_14">
    <text style="font: 24px 'Arial', sans-serif" transform="translate(141.641875 24.68625)">COSMIC Therapy</text>
    <text style="font: 24px 'Arial', sans-serif" transform="translate(131.39125 50.703)">Signature Detection</text>
   </g>
   <g id="legend_1">
    <g id="patch_8">
     <path d="M 68.91625 559.714775 
L 404.65 559.714775 
Q 408.25 559.714775 408.25 556.114775 
L 408.25 506.99165 
Q 408.25 503.39165 404.65 503.39165 
L 68.91625 503.39165 
Q 65.31625 503.39165 65.31625 506.99165 
L 65.31625 556.114775 
Q 65.31625 559.714775 68.91625 559.714775 
z
" style="fill: #ffffff; opacity: 0.8; stroke: #cccccc; stroke-linejoin: miter"/>
    </g>
    <g id="patch_9">
     <path d="M 72.51625 523.475713 
L 108.51625 523.475713 
L 108.51625 510.875713 
L 72.51625 510.875713 
z
" style="fill: #ff6347"/>
    </g>
    <g id="text_15">
     <text style="font: 18px 'Arial', sans-serif; text-anchor: start" x="122.91625" y="523.475713" transform="rotate(-0 122.91625 523.475713)">Platinums: SBS31 / SBS35 / DBS5</text>
    </g>
    <g id="patch_10">
     <path d="M 72.51625 548.937275 
L 108.51625 548.937275 
L 108.51625 536.337275 
L 72.51625 536.337275 
z
" style="fill: #4682b4"/>
    </g>
    <g id="text_16">
     <text style="font: 18px 'Arial', sans-serif; text-anchor: start" x="122.91625" y="548.937275" transform="rotate(-0 122.91625 548.937275)">Other: SBS11 / SBS17b / SBS87</text>
    </g>
   </g>
  </g>
 </g>
 <defs>
  <clipPath id="p4f808f1ed8">
   <rect x="60.460625" y="70.703" width="352.645" height="403.513"/>
  </clipPath>
 </defs>
</svg>
