<?xml version="1.0" encoding="utf-8" standalone="no"?>
<!DOCTYPE svg PUBLIC "-//W3C//DTD SVG 1.1//EN"
  "http://www.w3.org/Graphics/SVG/1.1/DTD/svg11.dtd">
<svg xmlns:xlink="http://www.w3.org/1999/xlink" width="511.88pt" height="530.255625pt" viewBox="0 0 511.88 530.255625" xmlns="http://www.w3.org/2000/svg" version="1.1">
 <metadata>
  <rdf:RDF xmlns:dc="http://purl.org/dc/elements/1.1/" xmlns:cc="http://creativecommons.org/ns#" xmlns:rdf="http://www.w3.org/1999/02/22-rdf-syntax-ns#">
   <cc:Work>
    <dc:type rdf:resource="http://purl.org/dc/dcmitype/StillImage"/>
    <dc:date>2026-05-21T21:55:52.294353</dc:date>
    <dc:format>image/svg+xml</dc:format>
    <dc:creator>
     <cc:Agent>
      <dc:title>Matplotlib v3.7.3, https://matplotlib.org/</dc:title>
     </cc:Agent>
    </dc:creator>
   </cc:Work>
  </rdf:RDF>
 </metadata>
 <defs>
  <style type="text/css">*{stroke-linejoin: round; stroke-linecap: butt}</style>
 </defs>
 <g id="figure_1">
  <g id="patch_1">
   <path d="M 0 530.255625 
L 511.88 530.255625 
L 511.88 0 
L 0 0 
L 0 530.255625 
z
" style="fill: none"/>
  </g>
  <g id="axes_1">
   <g id="patch_2">
    <path d="M 54.52 478.654375 
L 504.68 478.654375 
L 504.68 27.515625 
L 54.52 27.515625 
L 54.52 478.654375 
z
" style="fill: none"/>
   </g>
   <g id="patch_3">
    <path d="M 74.981818 478.654375 
L 90.138721 478.654375 
L 90.138721 478.654375 
L 74.981818 478.654375 
z
" clip-path="url(#p235c36af39)" style="fill: #fa8072; fill-opacity: 0.5; stroke: #fcfcfc; stroke-linejoin: miter"/>
   </g>
   <g id="patch_4">
    <path d="M 90.138721 478.654375 
L 105.295623 478.654375 
L 105.295623 478.654375 
L 90.138721 478.654375 
z
" clip-path="url(#p235c36af39)" style="fill: #fa8072; fill-opacity: 0.5; stroke: #fcfcfc; stroke-linejoin: miter"/>
   </g>
   <g id="patch_5">
    <path d="M 105.295623 478.654375 
L 120.452525 478.654375 
L 120.452525 478.654375 
L 105.295623 478.654375 
z
" clip-path="url(#p235c36af39)" style="fill: #fa8072; fill-opacity: 0.5; stroke: #fcfcfc; stroke-linejoin: miter"/>
   </g>
   <g id="patch_6">
    <path d="M 120.452525 478.654375 
L 135.609428 478.654375 
L 135.609428 478.654375 
L 120.452525 478.654375 
z
" clip-path="url(#p235c36af39)" style="fill: #fa8072; fill-opacity: 0.5; stroke: #fcfcfc; stroke-linejoin: miter"/>
   </g>
   <g id="patch_7">
    <path d="M 135.609428 478.654375 
L 150.76633 478.654375 
L 150.76633 478.654375 
L 135.609428 478.654375 
z
" clip-path="url(#p235c36af39)" style="fill: #fa8072; fill-opacity: 0.5; stroke: #fcfcfc; stroke-linejoin: miter"/>
   </g>
   <g id="patch_8">
    <path d="M 150.76633 478.654375 
L 165.923232 478.654375 
L 165.923232 478.654375 
L 150.76633 478.654375 
z
" clip-path="url(#p235c36af39)" style="fill: #fa8072; fill-opacity: 0.5; stroke: #fcfcfc; stroke-linejoin: miter"/>
   </g>
   <g id="patch_9">
    <path d="M 165.923232 478.654375 
L 181.080135 478.654375 
L 181.080135 478.654375 
L 165.923232 478.654375 
z
" clip-path="url(#p235c36af39)" style="fill: #fa8072; fill-opacity: 0.5; stroke: #fcfcfc; stroke-linejoin: miter"/>
   </g>
   <g id="patch_10">
    <path d="M 181.080135 478.654375 
L 196.237037 478.654375 
L 196.237037 478.654375 
L 181.080135 478.654375 
z
" clip-path="url(#p235c36af39)" style="fill: #fa8072; fill-opacity: 0.5; stroke: #fcfcfc; stroke-linejoin: miter"/>
   </g>
   <g id="patch_11">
    <path d="M 196.237037 478.654375 
L 211.393939 478.654375 
L 211.393939 478.654375 
L 196.237037 478.654375 
z
" clip-path="url(#p235c36af39)" style="fill: #fa8072; fill-opacity: 0.5; stroke: #fcfcfc; stroke-linejoin: miter"/>
   </g>
   <g id="patch_12">
    <path d="M 211.393939 478.654375 
L 226.550842 478.654375 
L 226.550842 478.654375 
L 211.393939 478.654375 
z
" clip-path="url(#p235c36af39)" style="fill: #fa8072; fill-opacity: 0.5; stroke: #fcfcfc; stroke-linejoin: miter"/>
   </g>
   <g id="patch_13">
    <path d="M 226.550842 478.654375 
L 241.707744 478.654375 
L 241.707744 478.654375 
L 226.550842 478.654375 
z
" clip-path="url(#p235c36af39)" style="fill: #fa8072; fill-opacity: 0.5; stroke: #fcfcfc; stroke-linejoin: miter"/>
   </g>
   <g id="patch_14">
    <path d="M 241.707744 478.654375 
L 256.864646 478.654375 
L 256.864646 478.654375 
L 241.707744 478.654375 
z
" clip-path="url(#p235c36af39)" style="fill: #fa8072; fill-opacity: 0.5; stroke: #fcfcfc; stroke-linejoin: miter"/>
   </g>
   <g id="patch_15">
    <path d="M 256.864646 478.654375 
L 272.021549 478.654375 
L 272.021549 478.654375 
L 256.864646 478.654375 
z
" clip-path="url(#p235c36af39)" style="fill: #fa8072; fill-opacity: 0.5; stroke: #fcfcfc; stroke-linejoin: miter"/>
   </g>
   <g id="patch_16">
    <path d="M 272.021549 478.654375 
L 287.178451 478.654375 
L 287.178451 478.654375 
L 272.021549 478.654375 
z
" clip-path="url(#p235c36af39)" style="fill: #fa8072; fill-opacity: 0.5; stroke: #fcfcfc; stroke-linejoin: miter"/>
   </g>
   <g id="patch_17">
    <path d="M 287.178451 478.654375 
L 302.335354 478.654375 
L 302.335354 458.194568 
L 287.178451 458.194568 
z
" clip-path="url(#p235c36af39)" style="fill: #fa8072; fill-opacity: 0.5; stroke: #fcfcfc; stroke-linejoin: miter"/>
   </g>
   <g id="patch_18">
    <path d="M 302.335354 478.654375 
L 317.492256 478.654375 
L 317.492256 453.079616 
L 302.335354 453.079616 
z
" clip-path="url(#p235c36af39)" style="fill: #fa8072; fill-opacity: 0.5; stroke: #fcfcfc; stroke-linejoin: miter"/>
   </g>
   <g id="patch_19">
    <path d="M 317.492256 478.654375 
L 332.649158 478.654375 
L 332.649158 453.079616 
L 317.492256 453.079616 
z
" clip-path="url(#p235c36af39)" style="fill: #fa8072; fill-opacity: 0.5; stroke: #fcfcfc; stroke-linejoin: miter"/>
   </g>
   <g id="patch_20">
    <path d="M 332.649158 478.654375 
L 347.806061 478.654375 
L 347.806061 463.30952 
L 332.649158 463.30952 
z
" clip-path="url(#p235c36af39)" style="fill: #fa8072; fill-opacity: 0.5; stroke: #fcfcfc; stroke-linejoin: miter"/>
   </g>
   <g id="patch_21">
    <path d="M 347.806061 478.654375 
L 362.962963 478.654375 
L 362.962963 473.539423 
L 347.806061 473.539423 
z
" clip-path="url(#p235c36af39)" style="fill: #fa8072; fill-opacity: 0.5; stroke: #fcfcfc; stroke-linejoin: miter"/>
   </g>
   <g id="patch_22">
    <path d="M 362.962963 478.654375 
L 378.119865 478.654375 
L 378.119865 478.654375 
L 362.962963 478.654375 
z
" clip-path="url(#p235c36af39)" style="fill: #fa8072; fill-opacity: 0.5; stroke: #fcfcfc; stroke-linejoin: miter"/>
   </g>
   <g id="patch_23">
    <path d="M 378.119865 478.654375 
L 393.276768 478.654375 
L 393.276768 463.30952 
L 378.119865 463.30952 
z
" clip-path="url(#p235c36af39)" style="fill: #fa8072; fill-opacity: 0.5; stroke: #fcfcfc; stroke-linejoin: miter"/>
   </g>
   <g id="patch_24">
    <path d="M 393.276768 478.654375 
L 408.43367 478.654375 
L 408.43367 468.424471 
L 393.276768 468.424471 
z
" clip-path="url(#p235c36af39)" style="fill: #fa8072; fill-opacity: 0.5; stroke: #fcfcfc; stroke-linejoin: miter"/>
   </g>
   <g id="patch_25">
    <path d="M 408.43367 478.654375 
L 423.590572 478.654375 
L 423.590572 473.539423 
L 408.43367 473.539423 
z
" clip-path="url(#p235c36af39)" style="fill: #fa8072; fill-opacity: 0.5; stroke: #fcfcfc; stroke-linejoin: miter"/>
   </g>
   <g id="patch_26">
    <path d="M 423.590572 478.654375 
L 438.747475 478.654375 
L 438.747475 463.30952 
L 423.590572 463.30952 
z
" clip-path="url(#p235c36af39)" style="fill: #fa8072; fill-opacity: 0.5; stroke: #fcfcfc; stroke-linejoin: miter"/>
   </g>
   <g id="patch_27">
    <path d="M 438.747475 478.654375 
L 453.904377 478.654375 
L 453.904377 478.654375 
L 438.747475 478.654375 
z
" clip-path="url(#p235c36af39)" style="fill: #fa8072; fill-opacity: 0.5; stroke: #fcfcfc; stroke-linejoin: miter"/>
   </g>
   <g id="patch_28">
    <path d="M 453.904377 478.654375 
L 469.061279 478.654375 
L 469.061279 463.30952 
L 453.904377 463.30952 
z
" clip-path="url(#p235c36af39)" style="fill: #fa8072; fill-opacity: 0.5; stroke: #fcfcfc; stroke-linejoin: miter"/>
   </g>
   <g id="patch_29">
    <path d="M 469.061279 478.654375 
L 484.218182 478.654375 
L 484.218182 458.194568 
L 469.061279 458.194568 
z
" clip-path="url(#p235c36af39)" style="fill: #fa8072; fill-opacity: 0.5; stroke: #fcfcfc; stroke-linejoin: miter"/>
   </g>
   <g id="patch_30">
    <path d="M 74.981818 478.654375 
L 90.138721 478.654375 
L 90.138721 458.194568 
L 74.981818 458.194568 
z
" clip-path="url(#p235c36af39)" style="fill: #4682b4; fill-opacity: 0.5; stroke: #fcfcfc; stroke-linejoin: miter"/>
   </g>
   <g id="patch_31">
    <path d="M 90.138721 478.654375 
L 105.295623 478.654375 
L 105.295623 437.73476 
L 90.138721 437.73476 
z
" clip-path="url(#p235c36af39)" style="fill: #4682b4; fill-opacity: 0.5; stroke: #fcfcfc; stroke-linejoin: miter"/>
   </g>
   <g id="patch_32">
    <path d="M 105.295623 478.654375 
L 120.452525 478.654375 
L 120.452525 396.815146 
L 105.295623 396.815146 
z
" clip-path="url(#p235c36af39)" style="fill: #4682b4; fill-opacity: 0.5; stroke: #fcfcfc; stroke-linejoin: miter"/>
   </g>
   <g id="patch_33">
    <path d="M 120.452525 478.654375 
L 135.609428 478.654375 
L 135.609428 345.665628 
L 120.452525 345.665628 
z
" clip-path="url(#p235c36af39)" style="fill: #4682b4; fill-opacity: 0.5; stroke: #fcfcfc; stroke-linejoin: miter"/>
   </g>
   <g id="patch_34">
    <path d="M 135.609428 478.654375 
L 150.76633 478.654375 
L 150.76633 314.975917 
L 135.609428 314.975917 
z
" clip-path="url(#p235c36af39)" style="fill: #4682b4; fill-opacity: 0.5; stroke: #fcfcfc; stroke-linejoin: miter"/>
   </g>
   <g id="patch_35">
    <path d="M 150.76633 478.654375 
L 165.923232 478.654375 
L 165.923232 294.51611 
L 150.76633 294.51611 
z
" clip-path="url(#p235c36af39)" style="fill: #4682b4; fill-opacity: 0.5; stroke: #fcfcfc; stroke-linejoin: miter"/>
   </g>
   <g id="patch_36">
    <path d="M 165.923232 478.654375 
L 181.080135 478.654375 
L 181.080135 84.803085 
L 165.923232 84.803085 
z
" clip-path="url(#p235c36af39)" style="fill: #4682b4; fill-opacity: 0.5; stroke: #fcfcfc; stroke-linejoin: miter"/>
   </g>
   <g id="patch_37">
    <path d="M 181.080135 478.654375 
L 196.237037 478.654375 
L 196.237037 84.803085 
L 181.080135 84.803085 
z
" clip-path="url(#p235c36af39)" style="fill: #4682b4; fill-opacity: 0.5; stroke: #fcfcfc; stroke-linejoin: miter"/>
   </g>
   <g id="patch_38">
    <path d="M 196.237037 478.654375 
L 211.393939 478.654375 
L 211.393939 125.7227 
L 196.237037 125.7227 
z
" clip-path="url(#p235c36af39)" style="fill: #4682b4; fill-opacity: 0.5; stroke: #fcfcfc; stroke-linejoin: miter"/>
   </g>
   <g id="patch_39">
    <path d="M 211.393939 478.654375 
L 226.550842 478.654375 
L 226.550842 48.998423 
L 211.393939 48.998423 
z
" clip-path="url(#p235c36af39)" style="fill: #4682b4; fill-opacity: 0.5; stroke: #fcfcfc; stroke-linejoin: miter"/>
   </g>
   <g id="patch_40">
    <path d="M 226.550842 478.654375 
L 241.707744 478.654375 
L 241.707744 217.791832 
L 226.550842 217.791832 
z
" clip-path="url(#p235c36af39)" style="fill: #4682b4; fill-opacity: 0.5; stroke: #fcfcfc; stroke-linejoin: miter"/>
   </g>
   <g id="patch_41">
    <path d="M 241.707744 478.654375 
L 256.864646 478.654375 
L 256.864646 258.711447 
L 241.707744 258.711447 
z
" clip-path="url(#p235c36af39)" style="fill: #4682b4; fill-opacity: 0.5; stroke: #fcfcfc; stroke-linejoin: miter"/>
   </g>
   <g id="patch_42">
    <path d="M 256.864646 478.654375 
L 272.021549 478.654375 
L 272.021549 366.125435 
L 256.864646 366.125435 
z
" clip-path="url(#p235c36af39)" style="fill: #4682b4; fill-opacity: 0.5; stroke: #fcfcfc; stroke-linejoin: miter"/>
   </g>
   <g id="patch_43">
    <path d="M 272.021549 478.654375 
L 287.178451 478.654375 
L 287.178451 350.78058 
L 272.021549 350.78058 
z
" clip-path="url(#p235c36af39)" style="fill: #4682b4; fill-opacity: 0.5; stroke: #fcfcfc; stroke-linejoin: miter"/>
   </g>
   <g id="patch_44">
    <path d="M 287.178451 478.654375 
L 302.335354 478.654375 
L 302.335354 442.849712 
L 287.178451 442.849712 
z
" clip-path="url(#p235c36af39)" style="fill: #4682b4; fill-opacity: 0.5; stroke: #fcfcfc; stroke-linejoin: miter"/>
   </g>
   <g id="patch_45">
    <path d="M 302.335354 478.654375 
L 317.492256 478.654375 
L 317.492256 478.654375 
L 302.335354 478.654375 
z
" clip-path="url(#p235c36af39)" style="fill: #4682b4; fill-opacity: 0.5; stroke: #fcfcfc; stroke-linejoin: miter"/>
   </g>
   <g id="patch_46">
    <path d="M 317.492256 478.654375 
L 332.649158 478.654375 
L 332.649158 478.654375 
L 317.492256 478.654375 
z
" clip-path="url(#p235c36af39)" style="fill: #4682b4; fill-opacity: 0.5; stroke: #fcfcfc; stroke-linejoin: miter"/>
   </g>
   <g id="patch_47">
    <path d="M 332.649158 478.654375 
L 347.806061 478.654375 
L 347.806061 478.654375 
L 332.649158 478.654375 
z
" clip-path="url(#p235c36af39)" style="fill: #4682b4; fill-opacity: 0.5; stroke: #fcfcfc; stroke-linejoin: miter"/>
   </g>
   <g id="patch_48">
    <path d="M 347.806061 478.654375 
L 362.962963 478.654375 
L 362.962963 478.654375 
L 347.806061 478.654375 
z
" clip-path="url(#p235c36af39)" style="fill: #4682b4; fill-opacity: 0.5; stroke: #fcfcfc; stroke-linejoin: miter"/>
   </g>
   <g id="patch_49">
    <path d="M 362.962963 478.654375 
L 378.119865 478.654375 
L 378.119865 478.654375 
L 362.962963 478.654375 
z
" clip-path="url(#p235c36af39)" style="fill: #4682b4; fill-opacity: 0.5; stroke: #fcfcfc; stroke-linejoin: miter"/>
   </g>
   <g id="patch_50">
    <path d="M 378.119865 478.654375 
L 393.276768 478.654375 
L 393.276768 478.654375 
L 378.119865 478.654375 
z
" clip-path="url(#p235c36af39)" style="fill: #4682b4; fill-opacity: 0.5; stroke: #fcfcfc; stroke-linejoin: miter"/>
   </g>
   <g id="patch_51">
    <path d="M 393.276768 478.654375 
L 408.43367 478.654375 
L 408.43367 478.654375 
L 393.276768 478.654375 
z
" clip-path="url(#p235c36af39)" style="fill: #4682b4; fill-opacity: 0.5; stroke: #fcfcfc; stroke-linejoin: miter"/>
   </g>
   <g id="patch_52">
    <path d="M 408.43367 478.654375 
L 423.590572 478.654375 
L 423.590572 478.654375 
L 408.43367 478.654375 
z
" clip-path="url(#p235c36af39)" style="fill: #4682b4; fill-opacity: 0.5; stroke: #fcfcfc; stroke-linejoin: miter"/>
   </g>
   <g id="patch_53">
    <path d="M 423.590572 478.654375 
L 438.747475 478.654375 
L 438.747475 478.654375 
L 423.590572 478.654375 
z
" clip-path="url(#p235c36af39)" style="fill: #4682b4; fill-opacity: 0.5; stroke: #fcfcfc; stroke-linejoin: miter"/>
   </g>
   <g id="patch_54">
    <path d="M 438.747475 478.654375 
L 453.904377 478.654375 
L 453.904377 478.654375 
L 438.747475 478.654375 
z
" clip-path="url(#p235c36af39)" style="fill: #4682b4; fill-opacity: 0.5; stroke: #fcfcfc; stroke-linejoin: miter"/>
   </g>
   <g id="patch_55">
    <path d="M 453.904377 478.654375 
L 469.061279 478.654375 
L 469.061279 478.654375 
L 453.904377 478.654375 
z
" clip-path="url(#p235c36af39)" style="fill: #4682b4; fill-opacity: 0.5; stroke: #fcfcfc; stroke-linejoin: miter"/>
   </g>
   <g id="patch_56">
    <path d="M 469.061279 478.654375 
L 484.218182 478.654375 
L 484.218182 478.654375 
L 469.061279 478.654375 
z
" clip-path="url(#p235c36af39)" style="fill: #4682b4; fill-opacity: 0.5; stroke: #fcfcfc; stroke-linejoin: miter"/>
   </g>
   <g id="matplotlib.axis_1">
    <g id="xtick_1">
     <g id="line2d_1">
      <defs>
       <path id="mb1c73e1218" d="M 0 0 
L 0 3.5 
" style="stroke: #000000; stroke-width: 0.8"/>
      </defs>
      <g>
       <use xlink:href="#mb1c73e1218" x="102.684662" y="478.654375" style="stroke: #000000; stroke-width: 0.8"/>
      </g>
     </g>
     <g id="text_1">
      <!-- 2.5 -->
      <g transform="translate(91.564662 497.106875) scale(0.16 -0.16)">
       <defs>
        <path id="ArialMT-32" d="M 3222 541 
L 3222 0 
L 194 0 
Q 188 203 259 391 
Q 375 700 629 1000 
Q 884 1300 1366 1694 
Q 2113 2306 2375 2664 
Q 2638 3022 2638 3341 
Q 2638 3675 2398 3904 
Q 2159 4134 1775 4134 
Q 1369 4134 1125 3890 
Q 881 3647 878 3216 
L 300 3275 
Q 359 3922 746 4261 
Q 1134 4600 1788 4600 
Q 2447 4600 2831 4234 
Q 3216 3869 3216 3328 
Q 3216 3053 3103 2787 
Q 2991 2522 2730 2228 
Q 2469 1934 1863 1422 
Q 1356 997 1212 845 
Q 1069 694 975 541 
L 3222 541 
z
" transform="scale(0.015625)"/>
        <path id="ArialMT-2e" d="M 581 0 
L 581 641 
L 1222 641 
L 1222 0 
L 581 0 
z
" transform="scale(0.015625)"/>
        <path id="ArialMT-35" d="M 266 1200 
L 856 1250 
Q 922 819 1161 601 
Q 1400 384 1738 384 
Q 2144 384 2425 690 
Q 2706 997 2706 1503 
Q 2706 1984 2436 2262 
Q 2166 2541 1728 2541 
Q 1456 2541 1237 2417 
Q 1019 2294 894 2097 
L 366 2166 
L 809 4519 
L 3088 4519 
L 3088 3981 
L 1259 3981 
L 1013 2750 
Q 1425 3038 1878 3038 
Q 2478 3038 2890 2622 
Q 3303 2206 3303 1553 
Q 3303 931 2941 478 
Q 2500 -78 1738 -78 
Q 1113 -78 717 272 
Q 322 622 266 1200 
z
" transform="scale(0.015625)"/>
       </defs>
       <use xlink:href="#ArialMT-32"/>
       <use xlink:href="#ArialMT-2e" x="55.615234"/>
       <use xlink:href="#ArialMT-35" x="83.398438"/>
      </g>
     </g>
    </g>
    <g id="xtick_2">
     <g id="line2d_2">
      <g>
       <use xlink:href="#mb1c73e1218" x="154.071663" y="478.654375" style="stroke: #000000; stroke-width: 0.8"/>
      </g>
     </g>
     <g id="text_2">
      <!-- 3.0 -->
      <g transform="translate(142.951663 497.106875) scale(0.16 -0.16)">
       <defs>
        <path id="ArialMT-33" d="M 269 1209 
L 831 1284 
Q 928 806 1161 595 
Q 1394 384 1728 384 
Q 2125 384 2398 659 
Q 2672 934 2672 1341 
Q 2672 1728 2419 1979 
Q 2166 2231 1775 2231 
Q 1616 2231 1378 2169 
L 1441 2663 
Q 1497 2656 1531 2656 
Q 1891 2656 2178 2843 
Q 2466 3031 2466 3422 
Q 2466 3731 2256 3934 
Q 2047 4138 1716 4138 
Q 1388 4138 1169 3931 
Q 950 3725 888 3313 
L 325 3413 
Q 428 3978 793 4289 
Q 1159 4600 1703 4600 
Q 2078 4600 2393 4439 
Q 2709 4278 2876 4000 
Q 3044 3722 3044 3409 
Q 3044 3113 2884 2869 
Q 2725 2625 2413 2481 
Q 2819 2388 3044 2092 
Q 3269 1797 3269 1353 
Q 3269 753 2831 336 
Q 2394 -81 1725 -81 
Q 1122 -81 723 278 
Q 325 638 269 1209 
z
" transform="scale(0.015625)"/>
        <path id="ArialMT-30" d="M 266 2259 
Q 266 3072 433 3567 
Q 600 4063 929 4331 
Q 1259 4600 1759 4600 
Q 2128 4600 2406 4451 
Q 2684 4303 2865 4023 
Q 3047 3744 3150 3342 
Q 3253 2941 3253 2259 
Q 3253 1453 3087 958 
Q 2922 463 2592 192 
Q 2263 -78 1759 -78 
Q 1097 -78 719 397 
Q 266 969 266 2259 
z
M 844 2259 
Q 844 1131 1108 757 
Q 1372 384 1759 384 
Q 2147 384 2411 759 
Q 2675 1134 2675 2259 
Q 2675 3391 2411 3762 
Q 2147 4134 1753 4134 
Q 1366 4134 1134 3806 
Q 844 3388 844 2259 
z
" transform="scale(0.015625)"/>
       </defs>
       <use xlink:href="#ArialMT-33"/>
       <use xlink:href="#ArialMT-2e" x="55.615234"/>
       <use xlink:href="#ArialMT-30" x="83.398438"/>
      </g>
     </g>
    </g>
    <g id="xtick_3">
     <g id="line2d_3">
      <g>
       <use xlink:href="#mb1c73e1218" x="205.458665" y="478.654375" style="stroke: #000000; stroke-width: 0.8"/>
      </g>
     </g>
     <g id="text_3">
      <!-- 3.5 -->
      <g transform="translate(194.338665 497.106875) scale(0.16 -0.16)">
       <use xlink:href="#ArialMT-33"/>
       <use xlink:href="#ArialMT-2e" x="55.615234"/>
       <use xlink:href="#ArialMT-35" x="83.398438"/>
      </g>
     </g>
    </g>
    <g id="xtick_4">
     <g id="line2d_4">
      <g>
       <use xlink:href="#mb1c73e1218" x="256.845667" y="478.654375" style="stroke: #000000; stroke-width: 0.8"/>
      </g>
     </g>
     <g id="text_4">
      <!-- 4.0 -->
      <g transform="translate(245.725667 497.106875) scale(0.16 -0.16)">
       <defs>
        <path id="ArialMT-34" d="M 2069 0 
L 2069 1097 
L 81 1097 
L 81 1613 
L 2172 4581 
L 2631 4581 
L 2631 1613 
L 3250 1613 
L 3250 1097 
L 2631 1097 
L 2631 0 
L 2069 0 
z
M 2069 1613 
L 2069 3678 
L 634 1613 
L 2069 1613 
z
" transform="scale(0.015625)"/>
       </defs>
       <use xlink:href="#ArialMT-34"/>
       <use xlink:href="#ArialMT-2e" x="55.615234"/>
       <use xlink:href="#ArialMT-30" x="83.398438"/>
      </g>
     </g>
    </g>
    <g id="xtick_5">
     <g id="line2d_5">
      <g>
       <use xlink:href="#mb1c73e1218" x="308.232669" y="478.654375" style="stroke: #000000; stroke-width: 0.8"/>
      </g>
     </g>
     <g id="text_5">
      <!-- 4.5 -->
      <g transform="translate(297.112669 497.106875) scale(0.16 -0.16)">
       <use xlink:href="#ArialMT-34"/>
       <use xlink:href="#ArialMT-2e" x="55.615234"/>
       <use xlink:href="#ArialMT-35" x="83.398438"/>
      </g>
     </g>
    </g>
    <g id="xtick_6">
     <g id="line2d_6">
      <g>
       <use xlink:href="#mb1c73e1218" x="359.61967" y="478.654375" style="stroke: #000000; stroke-width: 0.8"/>
      </g>
     </g>
     <g id="text_6">
      <!-- 5.0 -->
      <g transform="translate(348.49967 497.106875) scale(0.16 -0.16)">
       <use xlink:href="#ArialMT-35"/>
       <use xlink:href="#ArialMT-2e" x="55.615234"/>
       <use xlink:href="#ArialMT-30" x="83.398438"/>
      </g>
     </g>
    </g>
    <g id="xtick_7">
     <g id="line2d_7">
      <g>
       <use xlink:href="#mb1c73e1218" x="411.006672" y="478.654375" style="stroke: #000000; stroke-width: 0.8"/>
      </g>
     </g>
     <g id="text_7">
      <!-- 5.5 -->
      <g transform="translate(399.886672 497.106875) scale(0.16 -0.16)">
       <use xlink:href="#ArialMT-35"/>
       <use xlink:href="#ArialMT-2e" x="55.615234"/>
       <use xlink:href="#ArialMT-35" x="83.398438"/>
      </g>
     </g>
    </g>
    <g id="xtick_8">
     <g id="line2d_8">
      <g>
       <use xlink:href="#mb1c73e1218" x="462.393674" y="478.654375" style="stroke: #000000; stroke-width: 0.8"/>
      </g>
     </g>
     <g id="text_8">
      <!-- 6.0 -->
      <g transform="translate(451.273674 497.106875) scale(0.16 -0.16)">
       <defs>
        <path id="ArialMT-36" d="M 3184 3459 
L 2625 3416 
Q 2550 3747 2413 3897 
Q 2184 4138 1850 4138 
Q 1581 4138 1378 3988 
Q 1113 3794 959 3422 
Q 806 3050 800 2363 
Q 1003 2672 1297 2822 
Q 1591 2972 1913 2972 
Q 2475 2972 2870 2558 
Q 3266 2144 3266 1488 
Q 3266 1056 3080 686 
Q 2894 316 2569 119 
Q 2244 -78 1831 -78 
Q 1128 -78 684 439 
Q 241 956 241 2144 
Q 241 3472 731 4075 
Q 1159 4600 1884 4600 
Q 2425 4600 2770 4297 
Q 3116 3994 3184 3459 
z
M 888 1484 
Q 888 1194 1011 928 
Q 1134 663 1356 523 
Q 1578 384 1822 384 
Q 2178 384 2434 671 
Q 2691 959 2691 1453 
Q 2691 1928 2437 2201 
Q 2184 2475 1800 2475 
Q 1419 2475 1153 2201 
Q 888 1928 888 1484 
z
" transform="scale(0.015625)"/>
       </defs>
       <use xlink:href="#ArialMT-36"/>
       <use xlink:href="#ArialMT-2e" x="55.615234"/>
       <use xlink:href="#ArialMT-30" x="83.398438"/>
      </g>
     </g>
    </g>
    <g id="text_9">
     <!-- Burden (log10) -->
     <g transform="translate(213.453125 518.84625) scale(0.2 -0.2)">
      <defs>
       <path id="ArialMT-42" d="M 469 0 
L 469 4581 
L 2188 4581 
Q 2713 4581 3030 4442 
Q 3347 4303 3526 4014 
Q 3706 3725 3706 3409 
Q 3706 3116 3547 2856 
Q 3388 2597 3066 2438 
Q 3481 2316 3704 2022 
Q 3928 1728 3928 1328 
Q 3928 1006 3792 729 
Q 3656 453 3456 303 
Q 3256 153 2954 76 
Q 2653 0 2216 0 
L 469 0 
z
M 1075 2656 
L 2066 2656 
Q 2469 2656 2644 2709 
Q 2875 2778 2992 2937 
Q 3109 3097 3109 3338 
Q 3109 3566 3000 3739 
Q 2891 3913 2687 3977 
Q 2484 4041 1991 4041 
L 1075 4041 
L 1075 2656 
z
M 1075 541 
L 2216 541 
Q 2509 541 2628 563 
Q 2838 600 2978 687 
Q 3119 775 3209 942 
Q 3300 1109 3300 1328 
Q 3300 1584 3169 1773 
Q 3038 1963 2805 2039 
Q 2572 2116 2134 2116 
L 1075 2116 
L 1075 541 
z
" transform="scale(0.015625)"/>
       <path id="ArialMT-75" d="M 2597 0 
L 2597 488 
Q 2209 -75 1544 -75 
Q 1250 -75 995 37 
Q 741 150 617 320 
Q 494 491 444 738 
Q 409 903 409 1263 
L 409 3319 
L 972 3319 
L 972 1478 
Q 972 1038 1006 884 
Q 1059 663 1231 536 
Q 1403 409 1656 409 
Q 1909 409 2131 539 
Q 2353 669 2445 892 
Q 2538 1116 2538 1541 
L 2538 3319 
L 3100 3319 
L 3100 0 
L 2597 0 
z
" transform="scale(0.015625)"/>
       <path id="ArialMT-72" d="M 416 0 
L 416 3319 
L 922 3319 
L 922 2816 
Q 1116 3169 1280 3281 
Q 1444 3394 1641 3394 
Q 1925 3394 2219 3213 
L 2025 2691 
Q 1819 2813 1613 2813 
Q 1428 2813 1281 2702 
Q 1134 2591 1072 2394 
Q 978 2094 978 1738 
L 978 0 
L 416 0 
z
" transform="scale(0.015625)"/>
       <path id="ArialMT-64" d="M 2575 0 
L 2575 419 
Q 2259 -75 1647 -75 
Q 1250 -75 917 144 
Q 584 363 401 755 
Q 219 1147 219 1656 
Q 219 2153 384 2558 
Q 550 2963 881 3178 
Q 1213 3394 1622 3394 
Q 1922 3394 2156 3267 
Q 2391 3141 2538 2938 
L 2538 4581 
L 3097 4581 
L 3097 0 
L 2575 0 
z
M 797 1656 
Q 797 1019 1065 703 
Q 1334 388 1700 388 
Q 2069 388 2326 689 
Q 2584 991 2584 1609 
Q 2584 2291 2321 2609 
Q 2059 2928 1675 2928 
Q 1300 2928 1048 2622 
Q 797 2316 797 1656 
z
" transform="scale(0.015625)"/>
       <path id="ArialMT-65" d="M 2694 1069 
L 3275 997 
Q 3138 488 2766 206 
Q 2394 -75 1816 -75 
Q 1088 -75 661 373 
Q 234 822 234 1631 
Q 234 2469 665 2931 
Q 1097 3394 1784 3394 
Q 2450 3394 2872 2941 
Q 3294 2488 3294 1666 
Q 3294 1616 3291 1516 
L 816 1516 
Q 847 969 1125 678 
Q 1403 388 1819 388 
Q 2128 388 2347 550 
Q 2566 713 2694 1069 
z
M 847 1978 
L 2700 1978 
Q 2663 2397 2488 2606 
Q 2219 2931 1791 2931 
Q 1403 2931 1139 2672 
Q 875 2413 847 1978 
z
" transform="scale(0.015625)"/>
       <path id="ArialMT-6e" d="M 422 0 
L 422 3319 
L 928 3319 
L 928 2847 
Q 1294 3394 1984 3394 
Q 2284 3394 2536 3286 
Q 2788 3178 2913 3003 
Q 3038 2828 3088 2588 
Q 3119 2431 3119 2041 
L 3119 0 
L 2556 0 
L 2556 2019 
Q 2556 2363 2490 2533 
Q 2425 2703 2258 2804 
Q 2091 2906 1866 2906 
Q 1506 2906 1245 2678 
Q 984 2450 984 1813 
L 984 0 
L 422 0 
z
" transform="scale(0.015625)"/>
       <path id="ArialMT-20" transform="scale(0.015625)"/>
       <path id="ArialMT-28" d="M 1497 -1347 
Q 1031 -759 709 28 
Q 388 816 388 1659 
Q 388 2403 628 3084 
Q 909 3875 1497 4659 
L 1900 4659 
Q 1522 4009 1400 3731 
Q 1209 3300 1100 2831 
Q 966 2247 966 1656 
Q 966 153 1900 -1347 
L 1497 -1347 
z
" transform="scale(0.015625)"/>
       <path id="ArialMT-6c" d="M 409 0 
L 409 4581 
L 972 4581 
L 972 0 
L 409 0 
z
" transform="scale(0.015625)"/>
       <path id="ArialMT-6f" d="M 213 1659 
Q 213 2581 725 3025 
Q 1153 3394 1769 3394 
Q 2453 3394 2887 2945 
Q 3322 2497 3322 1706 
Q 3322 1066 3130 698 
Q 2938 331 2570 128 
Q 2203 -75 1769 -75 
Q 1072 -75 642 372 
Q 213 819 213 1659 
z
M 791 1659 
Q 791 1022 1069 705 
Q 1347 388 1769 388 
Q 2188 388 2466 706 
Q 2744 1025 2744 1678 
Q 2744 2294 2464 2611 
Q 2184 2928 1769 2928 
Q 1347 2928 1069 2612 
Q 791 2297 791 1659 
z
" transform="scale(0.015625)"/>
       <path id="ArialMT-67" d="M 319 -275 
L 866 -356 
Q 900 -609 1056 -725 
Q 1266 -881 1628 -881 
Q 2019 -881 2231 -725 
Q 2444 -569 2519 -288 
Q 2563 -116 2559 434 
Q 2191 0 1641 0 
Q 956 0 581 494 
Q 206 988 206 1678 
Q 206 2153 378 2554 
Q 550 2956 876 3175 
Q 1203 3394 1644 3394 
Q 2231 3394 2613 2919 
L 2613 3319 
L 3131 3319 
L 3131 450 
Q 3131 -325 2973 -648 
Q 2816 -972 2473 -1159 
Q 2131 -1347 1631 -1347 
Q 1038 -1347 672 -1080 
Q 306 -813 319 -275 
z
M 784 1719 
Q 784 1066 1043 766 
Q 1303 466 1694 466 
Q 2081 466 2343 764 
Q 2606 1063 2606 1700 
Q 2606 2309 2336 2618 
Q 2066 2928 1684 2928 
Q 1309 2928 1046 2623 
Q 784 2319 784 1719 
z
" transform="scale(0.015625)"/>
       <path id="ArialMT-31" d="M 2384 0 
L 1822 0 
L 1822 3584 
Q 1619 3391 1289 3197 
Q 959 3003 697 2906 
L 697 3450 
Q 1169 3672 1522 3987 
Q 1875 4303 2022 4600 
L 2384 4600 
L 2384 0 
z
" transform="scale(0.015625)"/>
       <path id="ArialMT-29" d="M 791 -1347 
L 388 -1347 
Q 1322 153 1322 1656 
Q 1322 2244 1188 2822 
Q 1081 3291 891 3722 
Q 769 4003 388 4659 
L 791 4659 
Q 1378 3875 1659 3084 
Q 1900 2403 1900 1659 
Q 1900 816 1576 28 
Q 1253 -759 791 -1347 
z
" transform="scale(0.015625)"/>
      </defs>
      <use xlink:href="#ArialMT-42"/>
      <use xlink:href="#ArialMT-75" x="66.699219"/>
      <use xlink:href="#ArialMT-72" x="122.314453"/>
      <use xlink:href="#ArialMT-64" x="155.615234"/>
      <use xlink:href="#ArialMT-65" x="211.230469"/>
      <use xlink:href="#ArialMT-6e" x="266.845703"/>
      <use xlink:href="#ArialMT-20" x="322.460938"/>
      <use xlink:href="#ArialMT-28" x="350.244141"/>
      <use xlink:href="#ArialMT-6c" x="383.544922"/>
      <use xlink:href="#ArialMT-6f" x="405.761719"/>
      <use xlink:href="#ArialMT-67" x="461.376953"/>
      <use xlink:href="#ArialMT-31" x="516.992188"/>
      <use xlink:href="#ArialMT-30" x="572.607422"/>
      <use xlink:href="#ArialMT-29" x="628.222656"/>
     </g>
    </g>
   </g>
   <g id="matplotlib.axis_2">
    <g id="ytick_1">
     <g id="line2d_9">
      <defs>
       <path id="m8ae067f11c" d="M 0 0 
L -3.5 0 
" style="stroke: #000000; stroke-width: 0.8"/>
      </defs>
      <g>
       <use xlink:href="#m8ae067f11c" x="54.52" y="478.654375" style="stroke: #000000; stroke-width: 0.8"/>
      </g>
     </g>
     <g id="text_10">
      <!-- 0 -->
      <g transform="translate(38.6225 484.380625) scale(0.16 -0.16)">
       <use xlink:href="#ArialMT-30"/>
      </g>
     </g>
    </g>
    <g id="ytick_2">
     <g id="line2d_10">
      <g>
       <use xlink:href="#m8ae067f11c" x="54.52" y="427.504857" style="stroke: #000000; stroke-width: 0.8"/>
      </g>
     </g>
     <g id="text_11">
      <!-- 10 -->
      <g transform="translate(29.725 433.231107) scale(0.16 -0.16)">
       <use xlink:href="#ArialMT-31"/>
       <use xlink:href="#ArialMT-30" x="55.615234"/>
      </g>
     </g>
    </g>
    <g id="ytick_3">
     <g id="line2d_11">
      <g>
       <use xlink:href="#m8ae067f11c" x="54.52" y="376.355339" style="stroke: #000000; stroke-width: 0.8"/>
      </g>
     </g>
     <g id="text_12">
      <!-- 20 -->
      <g transform="translate(29.725 382.081589) scale(0.16 -0.16)">
       <use xlink:href="#ArialMT-32"/>
       <use xlink:href="#ArialMT-30" x="55.615234"/>
      </g>
     </g>
    </g>
    <g id="ytick_4">
     <g id="line2d_12">
      <g>
       <use xlink:href="#m8ae067f11c" x="54.52" y="325.205821" style="stroke: #000000; stroke-width: 0.8"/>
      </g>
     </g>
     <g id="text_13">
      <!-- 30 -->
      <g transform="translate(29.725 330.932071) scale(0.16 -0.16)">
       <use xlink:href="#ArialMT-33"/>
       <use xlink:href="#ArialMT-30" x="55.615234"/>
      </g>
     </g>
    </g>
    <g id="ytick_5">
     <g id="line2d_13">
      <g>
       <use xlink:href="#m8ae067f11c" x="54.52" y="274.056302" style="stroke: #000000; stroke-width: 0.8"/>
      </g>
     </g>
     <g id="text_14">
      <!-- 40 -->
      <g transform="translate(29.725 279.782552) scale(0.16 -0.16)">
       <use xlink:href="#ArialMT-34"/>
       <use xlink:href="#ArialMT-30" x="55.615234"/>
      </g>
     </g>
    </g>
    <g id="ytick_6">
     <g id="line2d_14">
      <g>
       <use xlink:href="#m8ae067f11c" x="54.52" y="222.906784" style="stroke: #000000; stroke-width: 0.8"/>
      </g>
     </g>
     <g id="text_15">
      <!-- 50 -->
      <g transform="translate(29.725 228.633034) scale(0.16 -0.16)">
       <use xlink:href="#ArialMT-35"/>
       <use xlink:href="#ArialMT-30" x="55.615234"/>
      </g>
     </g>
    </g>
    <g id="ytick_7">
     <g id="line2d_15">
      <g>
       <use xlink:href="#m8ae067f11c" x="54.52" y="171.757266" style="stroke: #000000; stroke-width: 0.8"/>
      </g>
     </g>
     <g id="text_16">
      <!-- 60 -->
      <g transform="translate(29.725 177.483516) scale(0.16 -0.16)">
       <use xlink:href="#ArialMT-36"/>
       <use xlink:href="#ArialMT-30" x="55.615234"/>
      </g>
     </g>
    </g>
    <g id="ytick_8">
     <g id="line2d_16">
      <g>
       <use xlink:href="#m8ae067f11c" x="54.52" y="120.607748" style="stroke: #000000; stroke-width: 0.8"/>
      </g>
     </g>
     <g id="text_17">
      <!-- 70 -->
      <g transform="translate(29.725 126.333998) scale(0.16 -0.16)">
       <defs>
        <path id="ArialMT-37" d="M 303 3981 
L 303 4522 
L 3269 4522 
L 3269 4084 
Q 2831 3619 2401 2847 
Q 1972 2075 1738 1259 
Q 1569 684 1522 0 
L 944 0 
Q 953 541 1156 1306 
Q 1359 2072 1739 2783 
Q 2119 3494 2547 3981 
L 303 3981 
z
" transform="scale(0.015625)"/>
       </defs>
       <use xlink:href="#ArialMT-37"/>
       <use xlink:href="#ArialMT-30" x="55.615234"/>
      </g>
     </g>
    </g>
    <g id="ytick_9">
     <g id="line2d_17">
      <g>
       <use xlink:href="#m8ae067f11c" x="54.52" y="69.45823" style="stroke: #000000; stroke-width: 0.8"/>
      </g>
     </g>
     <g id="text_18">
      <!-- 80 -->
      <g transform="translate(29.725 75.18448) scale(0.16 -0.16)">
       <defs>
        <path id="ArialMT-38" d="M 1131 2484 
Q 781 2613 612 2850 
Q 444 3088 444 3419 
Q 444 3919 803 4259 
Q 1163 4600 1759 4600 
Q 2359 4600 2725 4251 
Q 3091 3903 3091 3403 
Q 3091 3084 2923 2848 
Q 2756 2613 2416 2484 
Q 2838 2347 3058 2040 
Q 3278 1734 3278 1309 
Q 3278 722 2862 322 
Q 2447 -78 1769 -78 
Q 1091 -78 675 323 
Q 259 725 259 1325 
Q 259 1772 486 2073 
Q 713 2375 1131 2484 
z
M 1019 3438 
Q 1019 3113 1228 2906 
Q 1438 2700 1772 2700 
Q 2097 2700 2305 2904 
Q 2513 3109 2513 3406 
Q 2513 3716 2298 3927 
Q 2084 4138 1766 4138 
Q 1444 4138 1231 3931 
Q 1019 3725 1019 3438 
z
M 838 1322 
Q 838 1081 952 856 
Q 1066 631 1291 507 
Q 1516 384 1775 384 
Q 2178 384 2440 643 
Q 2703 903 2703 1303 
Q 2703 1709 2433 1975 
Q 2163 2241 1756 2241 
Q 1359 2241 1098 1978 
Q 838 1716 838 1322 
z
" transform="scale(0.015625)"/>
       </defs>
       <use xlink:href="#ArialMT-38"/>
       <use xlink:href="#ArialMT-30" x="55.615234"/>
      </g>
     </g>
    </g>
    <g id="text_19">
     <!-- Density -->
     <g transform="translate(21.515625 286.42875) rotate(-90) scale(0.2 -0.2)">
      <defs>
       <path id="ArialMT-44" d="M 494 0 
L 494 4581 
L 2072 4581 
Q 2606 4581 2888 4516 
Q 3281 4425 3559 4188 
Q 3922 3881 4101 3404 
Q 4281 2928 4281 2316 
Q 4281 1794 4159 1391 
Q 4038 988 3847 723 
Q 3656 459 3429 307 
Q 3203 156 2883 78 
Q 2563 0 2147 0 
L 494 0 
z
M 1100 541 
L 2078 541 
Q 2531 541 2789 625 
Q 3047 709 3200 863 
Q 3416 1078 3536 1442 
Q 3656 1806 3656 2325 
Q 3656 3044 3420 3430 
Q 3184 3816 2847 3947 
Q 2603 4041 2063 4041 
L 1100 4041 
L 1100 541 
z
" transform="scale(0.015625)"/>
       <path id="ArialMT-73" d="M 197 991 
L 753 1078 
Q 800 744 1014 566 
Q 1228 388 1613 388 
Q 2000 388 2187 545 
Q 2375 703 2375 916 
Q 2375 1106 2209 1216 
Q 2094 1291 1634 1406 
Q 1016 1563 777 1677 
Q 538 1791 414 1992 
Q 291 2194 291 2438 
Q 291 2659 392 2848 
Q 494 3038 669 3163 
Q 800 3259 1026 3326 
Q 1253 3394 1513 3394 
Q 1903 3394 2198 3281 
Q 2494 3169 2634 2976 
Q 2775 2784 2828 2463 
L 2278 2388 
Q 2241 2644 2061 2787 
Q 1881 2931 1553 2931 
Q 1166 2931 1000 2803 
Q 834 2675 834 2503 
Q 834 2394 903 2306 
Q 972 2216 1119 2156 
Q 1203 2125 1616 2013 
Q 2213 1853 2448 1751 
Q 2684 1650 2818 1456 
Q 2953 1263 2953 975 
Q 2953 694 2789 445 
Q 2625 197 2315 61 
Q 2006 -75 1616 -75 
Q 969 -75 630 194 
Q 291 463 197 991 
z
" transform="scale(0.015625)"/>
       <path id="ArialMT-69" d="M 425 3934 
L 425 4581 
L 988 4581 
L 988 3934 
L 425 3934 
z
M 425 0 
L 425 3319 
L 988 3319 
L 988 0 
L 425 0 
z
" transform="scale(0.015625)"/>
       <path id="ArialMT-74" d="M 1650 503 
L 1731 6 
Q 1494 -44 1306 -44 
Q 1000 -44 831 53 
Q 663 150 594 308 
Q 525 466 525 972 
L 525 2881 
L 113 2881 
L 113 3319 
L 525 3319 
L 525 4141 
L 1084 4478 
L 1084 3319 
L 1650 3319 
L 1650 2881 
L 1084 2881 
L 1084 941 
Q 1084 700 1114 631 
Q 1144 563 1211 522 
Q 1278 481 1403 481 
Q 1497 481 1650 503 
z
" transform="scale(0.015625)"/>
       <path id="ArialMT-79" d="M 397 -1278 
L 334 -750 
Q 519 -800 656 -800 
Q 844 -800 956 -737 
Q 1069 -675 1141 -563 
Q 1194 -478 1313 -144 
Q 1328 -97 1363 -6 
L 103 3319 
L 709 3319 
L 1400 1397 
Q 1534 1031 1641 628 
Q 1738 1016 1872 1384 
L 2581 3319 
L 3144 3319 
L 1881 -56 
Q 1678 -603 1566 -809 
Q 1416 -1088 1222 -1217 
Q 1028 -1347 759 -1347 
Q 597 -1347 397 -1278 
z
" transform="scale(0.015625)"/>
      </defs>
      <use xlink:href="#ArialMT-44"/>
      <use xlink:href="#ArialMT-65" x="72.216797"/>
      <use xlink:href="#ArialMT-6e" x="127.832031"/>
      <use xlink:href="#ArialMT-73" x="183.447266"/>
      <use xlink:href="#ArialMT-69" x="233.447266"/>
      <use xlink:href="#ArialMT-74" x="255.664062"/>
      <use xlink:href="#ArialMT-79" x="283.447266"/>
     </g>
    </g>
   </g>
   <g id="line2d_18">
    <path d="M 74.981818 478.654375 
L 206.595523 478.55703 
L 220.990772 478.309726 
L 231.273093 477.896163 
L 239.498949 477.323492 
L 245.668342 476.703219 
L 251.837734 475.888087 
L 258.007127 474.860551 
L 264.176519 473.619761 
L 272.402376 471.674402 
L 284.74116 468.409732 
L 292.967017 466.307038 
L 299.136409 464.942515 
L 305.305802 463.86592 
L 309.41873 463.344306 
L 313.531658 462.995553 
L 317.644587 462.824838 
L 321.757515 462.829367 
L 325.870443 462.998588 
L 332.039836 463.521149 
L 338.209228 464.291176 
L 348.491549 465.85327 
L 358.773869 467.3741 
L 366.999726 468.334837 
L 373.169118 468.850416 
L 379.338511 469.188258 
L 387.564367 469.402172 
L 397.846688 469.414927 
L 432.806578 469.240428 
L 447.201827 469.438606 
L 457.484148 469.756422 
L 467.766469 470.308342 
L 475.992325 470.962006 
L 484.218182 471.806833 
L 484.218182 471.806833 
" clip-path="url(#p235c36af39)" style="fill: none; stroke: #fa8072; stroke-width: 1.5; stroke-linecap: square"/>
   </g>
   <g id="line2d_19">
    <path d="M 74.981818 466.448508 
L 77.038282 464.217308 
L 79.094746 461.781361 
L 81.151211 459.150841 
L 85.264139 453.339699 
L 89.377067 446.804986 
L 93.489995 439.467962 
L 95.54646 435.451391 
L 97.602924 431.177376 
L 101.715852 421.829415 
L 105.82878 411.532578 
L 114.054637 390.032403 
L 118.167565 380.13859 
L 122.280493 371.283638 
L 130.50635 354.724413 
L 132.562814 350.105791 
L 134.619278 345.027909 
L 136.675742 339.380162 
L 138.732206 333.072051 
L 140.788671 326.030812 
L 142.845135 318.196612 
L 144.901599 309.517967 
L 146.958063 299.950048 
L 149.014527 289.457837 
L 151.070991 278.024647 
L 153.127455 265.66489 
L 155.18392 252.438466 
L 159.296848 223.922155 
L 165.46624 179.627294 
L 167.522704 165.740375 
L 169.579169 152.861671 
L 171.635633 141.291673 
L 173.692097 131.273028 
L 175.748561 122.975087 
L 177.805025 116.483868 
L 179.861489 111.797019 
L 181.917953 108.823261 
L 183.974418 107.386306 
L 186.030882 107.23383 
L 188.087346 108.052465 
L 190.14381 109.489522 
L 194.256738 112.785373 
L 196.313202 114.016138 
L 198.369667 114.67485 
L 200.426131 114.673664 
L 202.482595 114.046983 
L 204.539059 112.9485 
L 208.651987 110.428124 
L 210.708451 109.690575 
L 212.764915 109.767968 
L 214.82138 110.956353 
L 216.877844 113.468413 
L 218.934308 117.413492 
L 220.990772 122.792431 
L 223.047236 129.507451 
L 225.1037 137.385026 
L 227.160164 146.20754 
L 231.273093 165.801982 
L 235.386021 186.870168 
L 241.555413 220.038976 
L 249.78127 266.449057 
L 253.894198 288.982924 
L 255.950662 299.497934 
L 258.007127 309.299767 
L 260.063591 318.284983 
L 262.120055 326.413616 
L 264.176519 333.715258 
L 266.232983 340.28583 
L 268.289447 346.275914 
L 272.402376 357.278467 
L 276.515304 368.271071 
L 278.571768 374.153292 
L 280.628232 380.41099 
L 284.74116 394.08998 
L 288.854089 408.91648 
L 295.023481 431.22959 
L 297.079945 438.139512 
L 299.136409 444.583601 
L 301.192873 450.471906 
L 303.249338 455.741505 
L 305.305802 460.358095 
L 307.362266 464.315446 
L 309.41873 467.632881 
L 311.475194 470.351141 
L 313.531658 472.527109 
L 315.588122 474.228023 
L 317.644587 475.52577 
L 319.701051 476.49183 
L 321.757515 477.193236 
L 323.813979 477.689769 
L 327.926907 478.262793 
L 332.039836 478.51008 
L 340.265692 478.63984 
L 377.282047 478.654375 
L 484.218182 478.654375 
L 484.218182 478.654375 
" clip-path="url(#p235c36af39)" style="fill: none; stroke: #4682b4; stroke-width: 1.5; stroke-linecap: square"/>
   </g>
   <g id="patch_57">
    <path d="M 54.52 478.654375 
L 54.52 27.515625 
" style="fill: none; stroke: #000000; stroke-width: 0.8; stroke-linejoin: miter; stroke-linecap: square"/>
   </g>
   <g id="patch_58">
    <path d="M 54.52 478.654375 
L 504.68 478.654375 
" style="fill: none; stroke: #000000; stroke-width: 0.8; stroke-linejoin: miter; stroke-linecap: square"/>
   </g>
   <g id="text_20">
    <!-- SBS -->
    <g transform="translate(259.589063 21.515625) scale(0.2 -0.2)">
     <defs>
      <path id="ArialMT-53" d="M 288 1472 
L 859 1522 
Q 900 1178 1048 958 
Q 1197 738 1509 602 
Q 1822 466 2213 466 
Q 2559 466 2825 569 
Q 3091 672 3220 851 
Q 3350 1031 3350 1244 
Q 3350 1459 3225 1620 
Q 3100 1781 2813 1891 
Q 2628 1963 1997 2114 
Q 1366 2266 1113 2400 
Q 784 2572 623 2826 
Q 463 3081 463 3397 
Q 463 3744 659 4045 
Q 856 4347 1234 4503 
Q 1613 4659 2075 4659 
Q 2584 4659 2973 4495 
Q 3363 4331 3572 4012 
Q 3781 3694 3797 3291 
L 3216 3247 
Q 3169 3681 2898 3903 
Q 2628 4125 2100 4125 
Q 1550 4125 1298 3923 
Q 1047 3722 1047 3438 
Q 1047 3191 1225 3031 
Q 1400 2872 2139 2705 
Q 2878 2538 3153 2413 
Q 3553 2228 3743 1945 
Q 3934 1663 3934 1294 
Q 3934 928 3725 604 
Q 3516 281 3123 101 
Q 2731 -78 2241 -78 
Q 1619 -78 1198 103 
Q 778 284 539 648 
Q 300 1013 288 1472 
z
" transform="scale(0.015625)"/>
     </defs>
     <use xlink:href="#ArialMT-53"/>
     <use xlink:href="#ArialMT-42" x="66.699219"/>
     <use xlink:href="#ArialMT-53" x="133.398438"/>
    </g>
   </g>
  </g>
 </g>
 <defs>
  <clipPath id="p235c36af39">
   <rect x="54.52" y="27.515625" width="450.16" height="451.13875"/>
  </clipPath>
 </defs>
</svg>
