<?xml version="1.0" encoding="utf-8" standalone="no"?>
<!DOCTYPE svg PUBLIC "-//W3C//DTD SVG 1.1//EN"
  "http://www.w3.org/Graphics/SVG/1.1/DTD/svg11.dtd">
<svg xmlns:xlink="http://www.w3.org/1999/xlink" width="406.32pt" height="355.423044pt" viewBox="0 0 406.32 355.423044" xmlns="http://www.w3.org/2000/svg" version="1.1">
 <metadata>
  <rdf:RDF xmlns:dc="http://purl.org/dc/elements/1.1/" xmlns:cc="http://creativecommons.org/ns#" xmlns:rdf="http://www.w3.org/1999/02/22-rdf-syntax-ns#">
   <cc:Work>
    <dc:type rdf:resource="http://purl.org/dc/dcmitype/StillImage"/>
    <dc:date>2026-05-25T13:34:01.964881</dc:date>
    <dc:format>image/svg+xml</dc:format>
    <dc:creator>
     <cc:Agent>
      <dc:title>Matplotlib v3.7.3, https://matplotlib.org/</dc:title>
     </cc:Agent>
    </dc:creator>
   </cc:Work>
  </rdf:RDF>
 </metadata>
 <defs>
  <style type="text/css">*{stroke-linejoin: round; stroke-linecap: butt}</style>
 </defs>
 <g id="figure_1">
  <g id="patch_1">
   <path d="M 0 355.423044 
L 406.32 355.423044 
L 406.32 0 
L 0 0 
L 0 355.423044 
z
" style="fill: none"/>
  </g>
  <g id="axes_1">
   <g id="patch_2">
    <path d="M 42 322.932419 
L 399.12 322.932419 
L 399.12 56.820419 
L 42 56.820419 
L 42 322.932419 
z
" style="fill: none"/>
   </g>
   <g id="patch_3">
    <path d="M 42 322.932419 
L 65.808 322.932419 
L 65.808 108.860606 
L 42 108.860606 
z
" clip-path="url(#p70a7e261fb)" style="fill: #d3d5d4"/>
   </g>
   <g id="patch_4">
    <path d="M 184.848 322.932419 
L 208.656 322.932419 
L 208.656 129.729242 
L 184.848 129.729242 
z
" clip-path="url(#p70a7e261fb)" style="fill: #d3d5d4"/>
   </g>
   <g id="patch_5">
    <path d="M 327.696 322.932419 
L 351.504 322.932419 
L 351.504 118.958333 
L 327.696 118.958333 
z
" clip-path="url(#p70a7e261fb)" style="fill: #d3d5d4"/>
   </g>
   <g id="patch_6">
    <path d="M 65.808 322.932419 
L 89.616 322.932419 
L 89.616 107.50007 
L 65.808 107.50007 
z
" clip-path="url(#p70a7e261fb)" style="fill: #878e99"/>
   </g>
   <g id="patch_7">
    <path d="M 208.656 322.932419 
L 232.464 322.932419 
L 232.464 123.809768 
L 208.656 123.809768 
z
" clip-path="url(#p70a7e261fb)" style="fill: #878e99"/>
   </g>
   <g id="patch_8">
    <path d="M 351.504 322.932419 
L 375.312 322.932419 
L 375.312 120.538539 
L 351.504 120.538539 
z
" clip-path="url(#p70a7e261fb)" style="fill: #878e99"/>
   </g>
   <g id="patch_9">
    <path d="M 89.616 322.932419 
L 113.424 322.932419 
L 113.424 102.398061 
L 89.616 102.398061 
z
" clip-path="url(#p70a7e261fb)" style="fill: #9db5b2"/>
   </g>
   <g id="patch_10">
    <path d="M 232.464 322.932419 
L 256.272 322.932419 
L 256.272 110.635358 
L 232.464 110.635358 
z
" clip-path="url(#p70a7e261fb)" style="fill: #9db5b2"/>
   </g>
   <g id="patch_11">
    <path d="M 375.312 322.932419 
L 399.12 322.932419 
L 399.12 119.790631 
L 375.312 119.790631 
z
" clip-path="url(#p70a7e261fb)" style="fill: #9db5b2"/>
   </g>
   <g id="matplotlib.axis_1">
    <g id="xtick_1">
     <g id="line2d_1">
      <defs>
       <path id="m9fce10ab4a" d="M 0 0 
L 0 3.5 
" style="stroke: #000000; stroke-width: 0.8"/>
      </defs>
      <g>
       <use xlink:href="#m9fce10ab4a" x="77.712" y="322.932419" style="stroke: #000000; stroke-width: 0.8"/>
      </g>
     </g>
     <g id="text_1">
      <text style="font: 20px 'Arial', sans-serif; text-anchor: middle" x="77.712" y="344.248044" transform="rotate(-0 77.712 344.248044)">All</text>
     </g>
    </g>
    <g id="xtick_2">
     <g id="line2d_2">
      <g>
       <use xlink:href="#m9fce10ab4a" x="220.56" y="322.932419" style="stroke: #000000; stroke-width: 0.8"/>
      </g>
     </g>
     <g id="text_2">
      <text style="font: 20px 'Arial', sans-serif; text-anchor: middle" x="220.56" y="344.248044" transform="rotate(-0 220.56 344.248044)">&gt;5%</text>
     </g>
    </g>
    <g id="xtick_3">
     <g id="line2d_3">
      <g>
       <use xlink:href="#m9fce10ab4a" x="363.408" y="322.932419" style="stroke: #000000; stroke-width: 0.8"/>
      </g>
     </g>
     <g id="text_3">
      <text style="font: 20px 'Arial', sans-serif; text-anchor: middle" x="363.408" y="344.248044" transform="rotate(-0 363.408 344.248044)">&gt;2%</text>
     </g>
    </g>
   </g>
   <g id="matplotlib.axis_2">
    <g id="ytick_1">
     <g id="line2d_4">
      <defs>
       <path id="m0cee320374" d="M 0 0 
L -3.5 0 
" style="stroke: #000000; stroke-width: 0.8"/>
      </defs>
      <g>
       <use xlink:href="#m0cee320374" x="42" y="322.932419" style="stroke: #000000; stroke-width: 0.8"/>
      </g>
     </g>
     <g id="text_4">
      <text style="font: 20px 'Arial', sans-serif; text-anchor: end" x="35" y="330.090231" transform="rotate(-0 35 330.090231)">0.0</text>
     </g>
    </g>
    <g id="ytick_2">
     <g id="line2d_5">
      <g>
       <use xlink:href="#m0cee320374" x="42" y="274.463329" style="stroke: #000000; stroke-width: 0.8"/>
      </g>
     </g>
     <g id="text_5">
      <text style="font: 20px 'Arial', sans-serif; text-anchor: end" x="35" y="281.621142" transform="rotate(-0 35 281.621142)">0.2</text>
     </g>
    </g>
    <g id="ytick_3">
     <g id="line2d_6">
      <g>
       <use xlink:href="#m0cee320374" x="42" y="225.994239" style="stroke: #000000; stroke-width: 0.8"/>
      </g>
     </g>
     <g id="text_6">
      <text style="font: 20px 'Arial', sans-serif; text-anchor: end" x="35" y="233.152052" transform="rotate(-0 35 233.152052)">0.4</text>
     </g>
    </g>
    <g id="ytick_4">
     <g id="line2d_7">
      <g>
       <use xlink:href="#m0cee320374" x="42" y="177.52515" style="stroke: #000000; stroke-width: 0.8"/>
      </g>
     </g>
     <g id="text_7">
      <text style="font: 20px 'Arial', sans-serif; text-anchor: end" x="35" y="184.682962" transform="rotate(-0 35 184.682962)">0.6</text>
     </g>
    </g>
    <g id="ytick_5">
     <g id="line2d_8">
      <g>
       <use xlink:href="#m0cee320374" x="42" y="129.05606" style="stroke: #000000; stroke-width: 0.8"/>
      </g>
     </g>
     <g id="text_8">
      <text style="font: 20px 'Arial', sans-serif; text-anchor: end" x="35" y="136.213873" transform="rotate(-0 35 136.213873)">0.8</text>
     </g>
    </g>
    <g id="ytick_6">
     <g id="line2d_9">
      <g>
       <use xlink:href="#m0cee320374" x="42" y="80.586971" style="stroke: #000000; stroke-width: 0.8"/>
      </g>
     </g>
     <g id="text_9">
      <text style="font: 20px 'Arial', sans-serif; text-anchor: end" x="35" y="87.744783" transform="rotate(-0 35 87.744783)">1.0</text>
     </g>
    </g>
   </g>
   <g id="LineCollection_1">
    <path d="M 53.904 148.228794 
L 53.904 69.492419 
" clip-path="url(#p70a7e261fb)" style="fill: none; stroke: #000000; stroke-width: 1.5"/>
    <path d="M 196.752 164.350688 
L 196.752 95.107796 
" clip-path="url(#p70a7e261fb)" style="fill: none; stroke: #000000; stroke-width: 1.5"/>
    <path d="M 339.6 133.159119 
L 339.6 104.757548 
" clip-path="url(#p70a7e261fb)" style="fill: none; stroke: #000000; stroke-width: 1.5"/>
   </g>
   <g id="LineCollection_2">
    <path d="M 77.712 133.594928 
L 77.712 81.405212 
" clip-path="url(#p70a7e261fb)" style="fill: none; stroke: #000000; stroke-width: 1.5"/>
    <path d="M 220.56 145.162789 
L 220.56 102.456746 
" clip-path="url(#p70a7e261fb)" style="fill: none; stroke: #000000; stroke-width: 1.5"/>
    <path d="M 363.408 136.320735 
L 363.408 104.756343 
" clip-path="url(#p70a7e261fb)" style="fill: none; stroke: #000000; stroke-width: 1.5"/>
   </g>
   <g id="LineCollection_3">
    <path d="M 101.52 127.23108 
L 101.52 77.565042 
" clip-path="url(#p70a7e261fb)" style="fill: none; stroke: #000000; stroke-width: 1.5"/>
    <path d="M 244.368 140.933484 
L 244.368 80.337232 
" clip-path="url(#p70a7e261fb)" style="fill: none; stroke: #000000; stroke-width: 1.5"/>
    <path d="M 387.216 149.842184 
L 387.216 89.739077 
" clip-path="url(#p70a7e261fb)" style="fill: none; stroke: #000000; stroke-width: 1.5"/>
   </g>
   <g id="patch_12">
    <path d="M 42 322.932419 
L 42 56.820419 
" style="fill: none; stroke: #000000; stroke-width: 0.8; stroke-linejoin: miter; stroke-linecap: square"/>
   </g>
   <g id="patch_13">
    <path d="M 42 322.932419 
L 399.12 322.932419 
" style="fill: none; stroke: #000000; stroke-width: 0.8; stroke-linejoin: miter; stroke-linecap: square"/>
   </g>
   <g id="legend_1">
    <g id="patch_14">
     <path d="M 51.8 53.218437 
L 382.709688 53.218437 
Q 385.509688 53.218437 385.509688 50.418437 
L 385.509688 10 
Q 385.509688 7.2 382.709688 7.2 
L 51.8 7.2 
Q 49 7.2 49 10 
L 49 50.418437 
Q 49 53.218437 51.8 53.218437 
z
" style="fill: #ffffff; opacity: 0.8; stroke: #cccccc; stroke-linejoin: miter"/>
    </g>
    <g id="text_10">
     <text style="font: 16px 'Arial', sans-serif; text-anchor: start" x="101.936094" y="24.4475" transform="rotate(-0 101.936094 24.4475)">Average Cross-Validated Scores</text>
    </g>
    <g id="patch_15">
     <path d="M 54.6 44.835937 
L 82.6 44.835937 
L 82.6 35.035937 
L 54.6 35.035937 
z
" style="fill: #d3d5d4"/>
    </g>
    <g id="text_11">
     <text style="font: 14px 'Arial', sans-serif; text-anchor: start" x="93.8" y="44.835937" transform="rotate(-0 93.8 44.835937)">Recall</text>
    </g>
    <g id="patch_16">
     <path d="M 160.7025 44.835937 
L 188.7025 44.835937 
L 188.7025 35.035937 
L 160.7025 35.035937 
z
" style="fill: #878e99"/>
    </g>
    <g id="text_12">
     <text style="font: 14px 'Arial', sans-serif; text-anchor: start" x="199.9025" y="44.835937" transform="rotate(-0 199.9025 44.835937)">F1-score</text>
    </g>
    <g id="patch_17">
     <path d="M 283.1325 44.835937 
L 311.1325 44.835937 
L 311.1325 35.035937 
L 283.1325 35.035937 
z
" style="fill: #9db5b2"/>
    </g>
    <g id="text_13">
     <text style="font: 14px 'Arial', sans-serif; text-anchor: start" x="322.3325" y="44.835937" transform="rotate(-0 322.3325 44.835937)">Precision</text>
    </g>
   </g>
  </g>
 </g>
 <defs>
  <clipPath id="p70a7e261fb">
   <rect x="42" y="56.820419" width="357.12" height="266.112"/>
  </clipPath>
 </defs>
</svg>
