<?xml version="1.0" encoding="utf-8" standalone="no"?>
<!DOCTYPE svg PUBLIC "-//W3C//DTD SVG 1.1//EN"
  "http://www.w3.org/Graphics/SVG/1.1/DTD/svg11.dtd">
<svg xmlns:xlink="http://www.w3.org/1999/xlink" width="152.39952pt" height="728.39952pt" viewBox="0 0 152.39952 728.39952" xmlns="http://www.w3.org/2000/svg" version="1.1">
 <metadata>
  <rdf:RDF xmlns:dc="http://purl.org/dc/elements/1.1/" xmlns:cc="http://creativecommons.org/ns#" xmlns:rdf="http://www.w3.org/1999/02/22-rdf-syntax-ns#">
   <cc:Work>
    <dc:type rdf:resource="http://purl.org/dc/dcmitype/StillImage"/>
    <dc:date>2026-05-21T21:08:53.006658</dc:date>
    <dc:format>image/svg+xml</dc:format>
    <dc:creator>
     <cc:Agent>
      <dc:title>Matplotlib v3.7.3, https://matplotlib.org/</dc:title>
     </cc:Agent>
    </dc:creator>
   </cc:Work>
  </rdf:RDF>
 </metadata>
 <defs>
  <style type="text/css">*{stroke-linejoin: round; stroke-linecap: butt}</style>
 </defs>
 <g id="figure_1">
  <g id="patch_1">
   <path d="M 0 728.39952 
L 152.39952 728.39952 
L 152.39952 0 
L 0 0 
L 0 728.39952 
z
" style="fill: none"/>
  </g>
  <g id="axes_1">
   <g id="patch_2">
    <path d="M 77.576563 721.19952 
L 108.387801 721.19952 
L 108.387801 7.2 
L 77.576563 7.2 
L 77.576563 721.19952 
z
" style="fill: none"/>
   </g>
   <g id="QuadMesh_1">
    <path d="M 77.576563 7.2 
L 108.387801 7.2 
L 108.387801 25.049988 
L 77.576563 25.049988 
L 77.576563 7.2 
" clip-path="url(#ped80af77a4)" style="fill: #6f9dc4"/>
    <path d="M 77.576563 25.049988 
L 108.387801 25.049988 
L 108.387801 42.899976 
L 77.576563 42.899976 
L 77.576563 25.049988 
" clip-path="url(#ped80af77a4)" style="fill: #ffffff"/>
    <path d="M 77.576563 42.899976 
L 108.387801 42.899976 
L 108.387801 60.749964 
L 77.576563 60.749964 
L 77.576563 42.899976 
" clip-path="url(#ped80af77a4)" style="fill: #4681b3"/>
    <path d="M 77.576563 60.749964 
L 108.387801 60.749964 
L 108.387801 78.599952 
L 77.576563 78.599952 
L 77.576563 60.749964 
" clip-path="url(#ped80af77a4)" style="fill: #ffffff"/>
    <path d="M 77.576563 78.599952 
L 108.387801 78.599952 
L 108.387801 96.44994 
L 77.576563 96.44994 
L 77.576563 78.599952 
" clip-path="url(#ped80af77a4)" style="fill: #ffffff"/>
    <path d="M 77.576563 96.44994 
L 108.387801 96.44994 
L 108.387801 114.299928 
L 77.576563 114.299928 
L 77.576563 96.44994 
" clip-path="url(#ped80af77a4)" style="fill: #d6e3ee"/>
    <path d="M 77.576563 114.299928 
L 108.387801 114.299928 
L 108.387801 132.149916 
L 77.576563 132.149916 
L 77.576563 114.299928 
" clip-path="url(#ped80af77a4)" style="fill: #ffffff"/>
    <path d="M 77.576563 132.149916 
L 108.387801 132.149916 
L 108.387801 149.999904 
L 77.576563 149.999904 
L 77.576563 132.149916 
" clip-path="url(#ped80af77a4)" style="fill: #ffffff"/>
    <path d="M 77.576563 149.999904 
L 108.387801 149.999904 
L 108.387801 167.849892 
L 77.576563 167.849892 
L 77.576563 149.999904 
" clip-path="url(#ped80af77a4)" style="fill: #ffffff"/>
    <path d="M 77.576563 167.849892 
L 108.387801 167.849892 
L 108.387801 185.69988 
L 77.576563 185.69988 
L 77.576563 167.849892 
" clip-path="url(#ped80af77a4)" style="fill: #ffffff"/>
    <path d="M 77.576563 185.69988 
L 108.387801 185.69988 
L 108.387801 203.549868 
L 77.576563 203.549868 
L 77.576563 185.69988 
" clip-path="url(#ped80af77a4)" style="fill: #ffffff"/>
    <path d="M 77.576563 203.549868 
L 108.387801 203.549868 
L 108.387801 221.399856 
L 77.576563 221.399856 
L 77.576563 203.549868 
" clip-path="url(#ped80af77a4)" style="fill: #ffffff"/>
    <path d="M 77.576563 221.399856 
L 108.387801 221.399856 
L 108.387801 239.249844 
L 77.576563 239.249844 
L 77.576563 221.399856 
" clip-path="url(#ped80af77a4)" style="fill: #ffffff"/>
    <path d="M 77.576563 239.249844 
L 108.387801 239.249844 
L 108.387801 257.099832 
L 77.576563 257.099832 
L 77.576563 239.249844 
" clip-path="url(#ped80af77a4)" style="fill: #ffffff"/>
    <path d="M 77.576563 257.099832 
L 108.387801 257.099832 
L 108.387801 274.94982 
L 77.576563 274.94982 
L 77.576563 257.099832 
" clip-path="url(#ped80af77a4)" style="fill: #ffffff"/>
    <path d="M 77.576563 274.94982 
L 108.387801 274.94982 
L 108.387801 292.799808 
L 77.576563 292.799808 
L 77.576563 274.94982 
" clip-path="url(#ped80af77a4)" style="fill: #c1d5e6"/>
    <path d="M 77.576563 292.799808 
L 108.387801 292.799808 
L 108.387801 310.649796 
L 77.576563 310.649796 
L 77.576563 292.799808 
" clip-path="url(#ped80af77a4)" style="fill: #ffffff"/>
    <path d="M 77.576563 310.649796 
L 108.387801 310.649796 
L 108.387801 328.499784 
L 77.576563 328.499784 
L 77.576563 310.649796 
" clip-path="url(#ped80af77a4)" style="fill: #ffffff"/>
    <path d="M 77.576563 328.499784 
L 108.387801 328.499784 
L 108.387801 346.349772 
L 77.576563 346.349772 
L 77.576563 328.499784 
" clip-path="url(#ped80af77a4)" style="fill: #ffffff"/>
    <path d="M 77.576563 346.349772 
L 108.387801 346.349772 
L 108.387801 364.19976 
L 77.576563 364.19976 
L 77.576563 346.349772 
" clip-path="url(#ped80af77a4)" style="fill: #ffffff"/>
    <path d="M 77.576563 364.19976 
L 108.387801 364.19976 
L 108.387801 382.049748 
L 77.576563 382.049748 
L 77.576563 364.19976 
" clip-path="url(#ped80af77a4)" style="fill: #ffffff"/>
    <path d="M 77.576563 382.049748 
L 108.387801 382.049748 
L 108.387801 399.899736 
L 77.576563 399.899736 
L 77.576563 382.049748 
" clip-path="url(#ped80af77a4)" style="fill: #eaf1f7"/>
    <path d="M 77.576563 399.899736 
L 108.387801 399.899736 
L 108.387801 417.749724 
L 77.576563 417.749724 
L 77.576563 399.899736 
" clip-path="url(#ped80af77a4)" style="fill: #ffffff"/>
    <path d="M 77.576563 417.749724 
L 108.387801 417.749724 
L 108.387801 435.599712 
L 77.576563 435.599712 
L 77.576563 417.749724 
" clip-path="url(#ped80af77a4)" style="fill: #ffffff"/>
    <path d="M 77.576563 435.599712 
L 108.387801 435.599712 
L 108.387801 453.4497 
L 77.576563 453.4497 
L 77.576563 435.599712 
" clip-path="url(#ped80af77a4)" style="fill: #ffffff"/>
    <path d="M 77.576563 453.4497 
L 108.387801 453.4497 
L 108.387801 471.299688 
L 77.576563 471.299688 
L 77.576563 453.4497 
" clip-path="url(#ped80af77a4)" style="fill: #ffffff"/>
    <path d="M 77.576563 471.299688 
L 108.387801 471.299688 
L 108.387801 489.149676 
L 77.576563 489.149676 
L 77.576563 471.299688 
" clip-path="url(#ped80af77a4)" style="fill: #ffffff"/>
    <path d="M 77.576563 489.149676 
L 108.387801 489.149676 
L 108.387801 506.999664 
L 77.576563 506.999664 
L 77.576563 489.149676 
" clip-path="url(#ped80af77a4)" style="fill: #ffffff"/>
    <path d="M 77.576563 506.999664 
L 108.387801 506.999664 
L 108.387801 524.849652 
L 77.576563 524.849652 
L 77.576563 506.999664 
" clip-path="url(#ped80af77a4)" style="fill: #ffffff"/>
    <path d="M 77.576563 524.849652 
L 108.387801 524.849652 
L 108.387801 542.69964 
L 77.576563 542.69964 
L 77.576563 524.849652 
" clip-path="url(#ped80af77a4)" style="fill: #ffffff"/>
    <path d="M 77.576563 542.69964 
L 108.387801 542.69964 
L 108.387801 560.549628 
L 77.576563 560.549628 
L 77.576563 542.69964 
" clip-path="url(#ped80af77a4)" style="fill: #ffffff"/>
    <path d="M 77.576563 560.549628 
L 108.387801 560.549628 
L 108.387801 578.399616 
L 77.576563 578.399616 
L 77.576563 560.549628 
" clip-path="url(#ped80af77a4)" style="fill: #ffffff"/>
    <path d="M 77.576563 578.399616 
L 108.387801 578.399616 
L 108.387801 596.249604 
L 77.576563 596.249604 
L 77.576563 578.399616 
" clip-path="url(#ped80af77a4)" style="fill: #ffffff"/>
    <path d="M 77.576563 596.249604 
L 108.387801 596.249604 
L 108.387801 614.099592 
L 77.576563 614.099592 
L 77.576563 596.249604 
" clip-path="url(#ped80af77a4)" style="fill: #ffffff"/>
    <path d="M 77.576563 614.099592 
L 108.387801 614.099592 
L 108.387801 631.94958 
L 77.576563 631.94958 
L 77.576563 614.099592 
" clip-path="url(#ped80af77a4)" style="fill: #ffffff"/>
    <path d="M 77.576563 631.94958 
L 108.387801 631.94958 
L 108.387801 649.799568 
L 77.576563 649.799568 
L 77.576563 631.94958 
" clip-path="url(#ped80af77a4)" style="fill: #ffffff"/>
    <path d="M 77.576563 649.799568 
L 108.387801 649.799568 
L 108.387801 667.649556 
L 77.576563 667.649556 
L 77.576563 649.799568 
" clip-path="url(#ped80af77a4)" style="fill: #ffffff"/>
    <path d="M 77.576563 667.649556 
L 108.387801 667.649556 
L 108.387801 685.499544 
L 77.576563 685.499544 
L 77.576563 667.649556 
" clip-path="url(#ped80af77a4)" style="fill: #ffffff"/>
    <path d="M 77.576563 685.499544 
L 108.387801 685.499544 
L 108.387801 703.349532 
L 77.576563 703.349532 
L 77.576563 685.499544 
" clip-path="url(#ped80af77a4)" style="fill: #ffffff"/>
    <path d="M 77.576563 703.349532 
L 108.387801 703.349532 
L 108.387801 721.19952 
L 77.576563 721.19952 
L 77.576563 703.349532 
" clip-path="url(#ped80af77a4)" style="fill: #ffffff"/>
   </g>
   <g id="matplotlib.axis_1"/>
   <g id="matplotlib.axis_2">
    <g id="ytick_1">
     <g id="line2d_1">
      <defs>
       <path id="mac30372358" d="M 0 0 
L -3.5 0 
" style="stroke: #000000; stroke-width: 0.8"/>
      </defs>
      <g>
       <use xlink:href="#mac30372358" x="77.576563" y="16.124994" style="stroke: #000000; stroke-width: 0.8"/>
      </g>
     </g>
     <g id="text_1">
      <!-- SBS1 -->
      <g transform="translate(45.004688 18.71015) scale(0.1 -0.1)">
       <defs>
        <path id="ArialMT-53" d="M 288 1472 
L 859 1522 
Q 900 1178 1048 958 
Q 1197 738 1509 602 
Q 1822 466 2213 466 
Q 2559 466 2825 569 
Q 3091 672 3220 851 
Q 3350 1031 3350 1244 
Q 3350 1459 3225 1620 
Q 3100 1781 2813 1891 
Q 2628 1963 1997 2114 
Q 1366 2266 1113 2400 
Q 784 2572 623 2826 
Q 463 3081 463 3397 
Q 463 3744 659 4045 
Q 856 4347 1234 4503 
Q 1613 4659 2075 4659 
Q 2584 4659 2973 4495 
Q 3363 4331 3572 4012 
Q 3781 3694 3797 3291 
L 3216 3247 
Q 3169 3681 2898 3903 
Q 2628 4125 2100 4125 
Q 1550 4125 1298 3923 
Q 1047 3722 1047 3438 
Q 1047 3191 1225 3031 
Q 1400 2872 2139 2705 
Q 2878 2538 3153 2413 
Q 3553 2228 3743 1945 
Q 3934 1663 3934 1294 
Q 3934 928 3725 604 
Q 3516 281 3123 101 
Q 2731 -78 2241 -78 
Q 1619 -78 1198 103 
Q 778 284 539 648 
Q 300 1013 288 1472 
z
" transform="scale(0.015625)"/>
        <path id="ArialMT-42" d="M 469 0 
L 469 4581 
L 2188 4581 
Q 2713 4581 3030 4442 
Q 3347 4303 3526 4014 
Q 3706 3725 3706 3409 
Q 3706 3116 3547 2856 
Q 3388 2597 3066 2438 
Q 3481 2316 3704 2022 
Q 3928 1728 3928 1328 
Q 3928 1006 3792 729 
Q 3656 453 3456 303 
Q 3256 153 2954 76 
Q 2653 0 2216 0 
L 469 0 
z
M 1075 2656 
L 2066 2656 
Q 2469 2656 2644 2709 
Q 2875 2778 2992 2937 
Q 3109 3097 3109 3338 
Q 3109 3566 3000 3739 
Q 2891 3913 2687 3977 
Q 2484 4041 1991 4041 
L 1075 4041 
L 1075 2656 
z
M 1075 541 
L 2216 541 
Q 2509 541 2628 563 
Q 2838 600 2978 687 
Q 3119 775 3209 942 
Q 3300 1109 3300 1328 
Q 3300 1584 3169 1773 
Q 3038 1963 2805 2039 
Q 2572 2116 2134 2116 
L 1075 2116 
L 1075 541 
z
" transform="scale(0.015625)"/>
        <path id="ArialMT-31" d="M 2384 0 
L 1822 0 
L 1822 3584 
Q 1619 3391 1289 3197 
Q 959 3003 697 2906 
L 697 3450 
Q 1169 3672 1522 3987 
Q 1875 4303 2022 4600 
L 2384 4600 
L 2384 0 
z
" transform="scale(0.015625)"/>
       </defs>
       <use xlink:href="#ArialMT-53"/>
       <use xlink:href="#ArialMT-42" x="66.699219"/>
       <use xlink:href="#ArialMT-53" x="133.398438"/>
       <use xlink:href="#ArialMT-31" x="200.097656"/>
      </g>
     </g>
    </g>
    <g id="ytick_2">
     <g id="line2d_2">
      <g>
       <use xlink:href="#mac30372358" x="77.576563" y="33.974982" style="stroke: #000000; stroke-width: 0.8"/>
      </g>
     </g>
     <g id="text_2">
      <!-- SBS2 -->
      <g transform="translate(45.004688 36.560138) scale(0.1 -0.1)">
       <defs>
        <path id="ArialMT-32" d="M 3222 541 
L 3222 0 
L 194 0 
Q 188 203 259 391 
Q 375 700 629 1000 
Q 884 1300 1366 1694 
Q 2113 2306 2375 2664 
Q 2638 3022 2638 3341 
Q 2638 3675 2398 3904 
Q 2159 4134 1775 4134 
Q 1369 4134 1125 3890 
Q 881 3647 878 3216 
L 300 3275 
Q 359 3922 746 4261 
Q 1134 4600 1788 4600 
Q 2447 4600 2831 4234 
Q 3216 3869 3216 3328 
Q 3216 3053 3103 2787 
Q 2991 2522 2730 2228 
Q 2469 1934 1863 1422 
Q 1356 997 1212 845 
Q 1069 694 975 541 
L 3222 541 
z
" transform="scale(0.015625)"/>
       </defs>
       <use xlink:href="#ArialMT-53"/>
       <use xlink:href="#ArialMT-42" x="66.699219"/>
       <use xlink:href="#ArialMT-53" x="133.398438"/>
       <use xlink:href="#ArialMT-32" x="200.097656"/>
      </g>
     </g>
    </g>
    <g id="ytick_3">
     <g id="line2d_3">
      <g>
       <use xlink:href="#mac30372358" x="77.576563" y="51.82497" style="stroke: #000000; stroke-width: 0.8"/>
      </g>
     </g>
     <g id="text_3">
      <!-- SBS5 -->
      <g transform="translate(45.004688 54.410126) scale(0.1 -0.1)">
       <defs>
        <path id="ArialMT-35" d="M 266 1200 
L 856 1250 
Q 922 819 1161 601 
Q 1400 384 1738 384 
Q 2144 384 2425 690 
Q 2706 997 2706 1503 
Q 2706 1984 2436 2262 
Q 2166 2541 1728 2541 
Q 1456 2541 1237 2417 
Q 1019 2294 894 2097 
L 366 2166 
L 809 4519 
L 3088 4519 
L 3088 3981 
L 1259 3981 
L 1013 2750 
Q 1425 3038 1878 3038 
Q 2478 3038 2890 2622 
Q 3303 2206 3303 1553 
Q 3303 931 2941 478 
Q 2500 -78 1738 -78 
Q 1113 -78 717 272 
Q 322 622 266 1200 
z
" transform="scale(0.015625)"/>
       </defs>
       <use xlink:href="#ArialMT-53"/>
       <use xlink:href="#ArialMT-42" x="66.699219"/>
       <use xlink:href="#ArialMT-53" x="133.398438"/>
       <use xlink:href="#ArialMT-35" x="200.097656"/>
      </g>
     </g>
    </g>
    <g id="ytick_4">
     <g id="line2d_4">
      <g>
       <use xlink:href="#mac30372358" x="77.576563" y="69.674958" style="stroke: #000000; stroke-width: 0.8"/>
      </g>
     </g>
     <g id="text_4">
      <!-- SBS7a -->
      <g transform="translate(39.44375 72.260114) scale(0.1 -0.1)">
       <defs>
        <path id="ArialMT-37" d="M 303 3981 
L 303 4522 
L 3269 4522 
L 3269 4084 
Q 2831 3619 2401 2847 
Q 1972 2075 1738 1259 
Q 1569 684 1522 0 
L 944 0 
Q 953 541 1156 1306 
Q 1359 2072 1739 2783 
Q 2119 3494 2547 3981 
L 303 3981 
z
" transform="scale(0.015625)"/>
        <path id="ArialMT-61" d="M 2588 409 
Q 2275 144 1986 34 
Q 1697 -75 1366 -75 
Q 819 -75 525 192 
Q 231 459 231 875 
Q 231 1119 342 1320 
Q 453 1522 633 1644 
Q 813 1766 1038 1828 
Q 1203 1872 1538 1913 
Q 2219 1994 2541 2106 
Q 2544 2222 2544 2253 
Q 2544 2597 2384 2738 
Q 2169 2928 1744 2928 
Q 1347 2928 1158 2789 
Q 969 2650 878 2297 
L 328 2372 
Q 403 2725 575 2942 
Q 747 3159 1072 3276 
Q 1397 3394 1825 3394 
Q 2250 3394 2515 3294 
Q 2781 3194 2906 3042 
Q 3031 2891 3081 2659 
Q 3109 2516 3109 2141 
L 3109 1391 
Q 3109 606 3145 398 
Q 3181 191 3288 0 
L 2700 0 
Q 2613 175 2588 409 
z
M 2541 1666 
Q 2234 1541 1622 1453 
Q 1275 1403 1131 1340 
Q 988 1278 909 1158 
Q 831 1038 831 891 
Q 831 666 1001 516 
Q 1172 366 1500 366 
Q 1825 366 2078 508 
Q 2331 650 2450 897 
Q 2541 1088 2541 1459 
L 2541 1666 
z
" transform="scale(0.015625)"/>
       </defs>
       <use xlink:href="#ArialMT-53"/>
       <use xlink:href="#ArialMT-42" x="66.699219"/>
       <use xlink:href="#ArialMT-53" x="133.398438"/>
       <use xlink:href="#ArialMT-37" x="200.097656"/>
       <use xlink:href="#ArialMT-61" x="255.712891"/>
      </g>
     </g>
    </g>
    <g id="ytick_5">
     <g id="line2d_5">
      <g>
       <use xlink:href="#mac30372358" x="77.576563" y="87.524946" style="stroke: #000000; stroke-width: 0.8"/>
      </g>
     </g>
     <g id="text_5">
      <!-- SBS7b -->
      <g transform="translate(39.44375 90.110102) scale(0.1 -0.1)">
       <defs>
        <path id="ArialMT-62" d="M 941 0 
L 419 0 
L 419 4581 
L 981 4581 
L 981 2947 
Q 1338 3394 1891 3394 
Q 2197 3394 2470 3270 
Q 2744 3147 2920 2923 
Q 3097 2700 3197 2384 
Q 3297 2069 3297 1709 
Q 3297 856 2875 390 
Q 2453 -75 1863 -75 
Q 1275 -75 941 416 
L 941 0 
z
M 934 1684 
Q 934 1088 1097 822 
Q 1363 388 1816 388 
Q 2184 388 2453 708 
Q 2722 1028 2722 1663 
Q 2722 2313 2464 2622 
Q 2206 2931 1841 2931 
Q 1472 2931 1203 2611 
Q 934 2291 934 1684 
z
" transform="scale(0.015625)"/>
       </defs>
       <use xlink:href="#ArialMT-53"/>
       <use xlink:href="#ArialMT-42" x="66.699219"/>
       <use xlink:href="#ArialMT-53" x="133.398438"/>
       <use xlink:href="#ArialMT-37" x="200.097656"/>
       <use xlink:href="#ArialMT-62" x="255.712891"/>
      </g>
     </g>
    </g>
    <g id="ytick_6">
     <g id="line2d_6">
      <g>
       <use xlink:href="#mac30372358" x="77.576563" y="105.374934" style="stroke: #000000; stroke-width: 0.8"/>
      </g>
     </g>
     <g id="text_6">
      <!-- SBS8 -->
      <g transform="translate(45.004688 107.96009) scale(0.1 -0.1)">
       <defs>
        <path id="ArialMT-38" d="M 1131 2484 
Q 781 2613 612 2850 
Q 444 3088 444 3419 
Q 444 3919 803 4259 
Q 1163 4600 1759 4600 
Q 2359 4600 2725 4251 
Q 3091 3903 3091 3403 
Q 3091 3084 2923 2848 
Q 2756 2613 2416 2484 
Q 2838 2347 3058 2040 
Q 3278 1734 3278 1309 
Q 3278 722 2862 322 
Q 2447 -78 1769 -78 
Q 1091 -78 675 323 
Q 259 725 259 1325 
Q 259 1772 486 2073 
Q 713 2375 1131 2484 
z
M 1019 3438 
Q 1019 3113 1228 2906 
Q 1438 2700 1772 2700 
Q 2097 2700 2305 2904 
Q 2513 3109 2513 3406 
Q 2513 3716 2298 3927 
Q 2084 4138 1766 4138 
Q 1444 4138 1231 3931 
Q 1019 3725 1019 3438 
z
M 838 1322 
Q 838 1081 952 856 
Q 1066 631 1291 507 
Q 1516 384 1775 384 
Q 2178 384 2440 643 
Q 2703 903 2703 1303 
Q 2703 1709 2433 1975 
Q 2163 2241 1756 2241 
Q 1359 2241 1098 1978 
Q 838 1716 838 1322 
z
" transform="scale(0.015625)"/>
       </defs>
       <use xlink:href="#ArialMT-53"/>
       <use xlink:href="#ArialMT-42" x="66.699219"/>
       <use xlink:href="#ArialMT-53" x="133.398438"/>
       <use xlink:href="#ArialMT-38" x="200.097656"/>
      </g>
     </g>
    </g>
    <g id="ytick_7">
     <g id="line2d_7">
      <g>
       <use xlink:href="#mac30372358" x="77.576563" y="123.224922" style="stroke: #000000; stroke-width: 0.8"/>
      </g>
     </g>
     <g id="text_7">
      <!-- SBS10a -->
      <g transform="translate(33.882813 125.810078) scale(0.1 -0.1)">
       <defs>
        <path id="ArialMT-30" d="M 266 2259 
Q 266 3072 433 3567 
Q 600 4063 929 4331 
Q 1259 4600 1759 4600 
Q 2128 4600 2406 4451 
Q 2684 4303 2865 4023 
Q 3047 3744 3150 3342 
Q 3253 2941 3253 2259 
Q 3253 1453 3087 958 
Q 2922 463 2592 192 
Q 2263 -78 1759 -78 
Q 1097 -78 719 397 
Q 266 969 266 2259 
z
M 844 2259 
Q 844 1131 1108 757 
Q 1372 384 1759 384 
Q 2147 384 2411 759 
Q 2675 1134 2675 2259 
Q 2675 3391 2411 3762 
Q 2147 4134 1753 4134 
Q 1366 4134 1134 3806 
Q 844 3388 844 2259 
z
" transform="scale(0.015625)"/>
       </defs>
       <use xlink:href="#ArialMT-53"/>
       <use xlink:href="#ArialMT-42" x="66.699219"/>
       <use xlink:href="#ArialMT-53" x="133.398438"/>
       <use xlink:href="#ArialMT-31" x="200.097656"/>
       <use xlink:href="#ArialMT-30" x="255.712891"/>
       <use xlink:href="#ArialMT-61" x="311.328125"/>
      </g>
     </g>
    </g>
    <g id="ytick_8">
     <g id="line2d_8">
      <g>
       <use xlink:href="#mac30372358" x="77.576563" y="141.07491" style="stroke: #000000; stroke-width: 0.8"/>
      </g>
     </g>
     <g id="text_8">
      <!-- SBS10b -->
      <g transform="translate(33.882813 143.660066) scale(0.1 -0.1)">
       <use xlink:href="#ArialMT-53"/>
       <use xlink:href="#ArialMT-42" x="66.699219"/>
       <use xlink:href="#ArialMT-53" x="133.398438"/>
       <use xlink:href="#ArialMT-31" x="200.097656"/>
       <use xlink:href="#ArialMT-30" x="255.712891"/>
       <use xlink:href="#ArialMT-62" x="311.328125"/>
      </g>
     </g>
    </g>
    <g id="ytick_9">
     <g id="line2d_9">
      <g>
       <use xlink:href="#mac30372358" x="77.576563" y="158.924898" style="stroke: #000000; stroke-width: 0.8"/>
      </g>
     </g>
     <g id="text_9">
      <!-- SBS11 -->
      <g transform="translate(40.18125 161.510054) scale(0.1 -0.1)">
       <use xlink:href="#ArialMT-53"/>
       <use xlink:href="#ArialMT-42" x="66.699219"/>
       <use xlink:href="#ArialMT-53" x="133.398438"/>
       <use xlink:href="#ArialMT-31" x="200.097656"/>
       <use xlink:href="#ArialMT-31" x="248.337891"/>
      </g>
     </g>
    </g>
    <g id="ytick_10">
     <g id="line2d_10">
      <g>
       <use xlink:href="#mac30372358" x="77.576563" y="176.774886" style="stroke: #000000; stroke-width: 0.8"/>
      </g>
     </g>
     <g id="text_10">
      <!-- SBS12 -->
      <g transform="translate(39.44375 179.360042) scale(0.1 -0.1)">
       <use xlink:href="#ArialMT-53"/>
       <use xlink:href="#ArialMT-42" x="66.699219"/>
       <use xlink:href="#ArialMT-53" x="133.398438"/>
       <use xlink:href="#ArialMT-31" x="200.097656"/>
       <use xlink:href="#ArialMT-32" x="255.712891"/>
      </g>
     </g>
    </g>
    <g id="ytick_11">
     <g id="line2d_11">
      <g>
       <use xlink:href="#mac30372358" x="77.576563" y="194.624874" style="stroke: #000000; stroke-width: 0.8"/>
      </g>
     </g>
     <g id="text_11">
      <!-- SBS13 -->
      <g transform="translate(39.44375 197.21003) scale(0.1 -0.1)">
       <defs>
        <path id="ArialMT-33" d="M 269 1209 
L 831 1284 
Q 928 806 1161 595 
Q 1394 384 1728 384 
Q 2125 384 2398 659 
Q 2672 934 2672 1341 
Q 2672 1728 2419 1979 
Q 2166 2231 1775 2231 
Q 1616 2231 1378 2169 
L 1441 2663 
Q 1497 2656 1531 2656 
Q 1891 2656 2178 2843 
Q 2466 3031 2466 3422 
Q 2466 3731 2256 3934 
Q 2047 4138 1716 4138 
Q 1388 4138 1169 3931 
Q 950 3725 888 3313 
L 325 3413 
Q 428 3978 793 4289 
Q 1159 4600 1703 4600 
Q 2078 4600 2393 4439 
Q 2709 4278 2876 4000 
Q 3044 3722 3044 3409 
Q 3044 3113 2884 2869 
Q 2725 2625 2413 2481 
Q 2819 2388 3044 2092 
Q 3269 1797 3269 1353 
Q 3269 753 2831 336 
Q 2394 -81 1725 -81 
Q 1122 -81 723 278 
Q 325 638 269 1209 
z
" transform="scale(0.015625)"/>
       </defs>
       <use xlink:href="#ArialMT-53"/>
       <use xlink:href="#ArialMT-42" x="66.699219"/>
       <use xlink:href="#ArialMT-53" x="133.398438"/>
       <use xlink:href="#ArialMT-31" x="200.097656"/>
       <use xlink:href="#ArialMT-33" x="255.712891"/>
      </g>
     </g>
    </g>
    <g id="ytick_12">
     <g id="line2d_12">
      <g>
       <use xlink:href="#mac30372358" x="77.576563" y="212.474862" style="stroke: #000000; stroke-width: 0.8"/>
      </g>
     </g>
     <g id="text_12">
      <!-- SBS14 -->
      <g transform="translate(39.44375 215.060018) scale(0.1 -0.1)">
       <defs>
        <path id="ArialMT-34" d="M 2069 0 
L 2069 1097 
L 81 1097 
L 81 1613 
L 2172 4581 
L 2631 4581 
L 2631 1613 
L 3250 1613 
L 3250 1097 
L 2631 1097 
L 2631 0 
L 2069 0 
z
M 2069 1613 
L 2069 3678 
L 634 1613 
L 2069 1613 
z
" transform="scale(0.015625)"/>
       </defs>
       <use xlink:href="#ArialMT-53"/>
       <use xlink:href="#ArialMT-42" x="66.699219"/>
       <use xlink:href="#ArialMT-53" x="133.398438"/>
       <use xlink:href="#ArialMT-31" x="200.097656"/>
       <use xlink:href="#ArialMT-34" x="255.712891"/>
      </g>
     </g>
    </g>
    <g id="ytick_13">
     <g id="line2d_13">
      <g>
       <use xlink:href="#mac30372358" x="77.576563" y="230.32485" style="stroke: #000000; stroke-width: 0.8"/>
      </g>
     </g>
     <g id="text_13">
      <!-- SBS15 -->
      <g transform="translate(39.44375 232.910006) scale(0.1 -0.1)">
       <use xlink:href="#ArialMT-53"/>
       <use xlink:href="#ArialMT-42" x="66.699219"/>
       <use xlink:href="#ArialMT-53" x="133.398438"/>
       <use xlink:href="#ArialMT-31" x="200.097656"/>
       <use xlink:href="#ArialMT-35" x="255.712891"/>
      </g>
     </g>
    </g>
    <g id="ytick_14">
     <g id="line2d_14">
      <g>
       <use xlink:href="#mac30372358" x="77.576563" y="248.174838" style="stroke: #000000; stroke-width: 0.8"/>
      </g>
     </g>
     <g id="text_14">
      <!-- SBS17a -->
      <g transform="translate(33.882813 250.759994) scale(0.1 -0.1)">
       <use xlink:href="#ArialMT-53"/>
       <use xlink:href="#ArialMT-42" x="66.699219"/>
       <use xlink:href="#ArialMT-53" x="133.398438"/>
       <use xlink:href="#ArialMT-31" x="200.097656"/>
       <use xlink:href="#ArialMT-37" x="255.712891"/>
       <use xlink:href="#ArialMT-61" x="311.328125"/>
      </g>
     </g>
    </g>
    <g id="ytick_15">
     <g id="line2d_15">
      <g>
       <use xlink:href="#mac30372358" x="77.576563" y="266.024826" style="stroke: #000000; stroke-width: 0.8"/>
      </g>
     </g>
     <g id="text_15">
      <!-- SBS17b -->
      <g transform="translate(33.882813 268.609982) scale(0.1 -0.1)">
       <use xlink:href="#ArialMT-53"/>
       <use xlink:href="#ArialMT-42" x="66.699219"/>
       <use xlink:href="#ArialMT-53" x="133.398438"/>
       <use xlink:href="#ArialMT-31" x="200.097656"/>
       <use xlink:href="#ArialMT-37" x="255.712891"/>
       <use xlink:href="#ArialMT-62" x="311.328125"/>
      </g>
     </g>
    </g>
    <g id="ytick_16">
     <g id="line2d_16">
      <g>
       <use xlink:href="#mac30372358" x="77.576563" y="283.874814" style="stroke: #000000; stroke-width: 0.8"/>
      </g>
     </g>
     <g id="text_16">
      <!-- SBS18 -->
      <g transform="translate(39.44375 286.45997) scale(0.1 -0.1)">
       <use xlink:href="#ArialMT-53"/>
       <use xlink:href="#ArialMT-42" x="66.699219"/>
       <use xlink:href="#ArialMT-53" x="133.398438"/>
       <use xlink:href="#ArialMT-31" x="200.097656"/>
       <use xlink:href="#ArialMT-38" x="255.712891"/>
      </g>
     </g>
    </g>
    <g id="ytick_17">
     <g id="line2d_17">
      <g>
       <use xlink:href="#mac30372358" x="77.576563" y="301.724802" style="stroke: #000000; stroke-width: 0.8"/>
      </g>
     </g>
     <g id="text_17">
      <!-- SBS20 -->
      <g transform="translate(39.44375 304.309958) scale(0.1 -0.1)">
       <use xlink:href="#ArialMT-53"/>
       <use xlink:href="#ArialMT-42" x="66.699219"/>
       <use xlink:href="#ArialMT-53" x="133.398438"/>
       <use xlink:href="#ArialMT-32" x="200.097656"/>
       <use xlink:href="#ArialMT-30" x="255.712891"/>
      </g>
     </g>
    </g>
    <g id="ytick_18">
     <g id="line2d_18">
      <g>
       <use xlink:href="#mac30372358" x="77.576563" y="319.57479" style="stroke: #000000; stroke-width: 0.8"/>
      </g>
     </g>
     <g id="text_18">
      <!-- SBS31 -->
      <g transform="translate(39.44375 322.159946) scale(0.1 -0.1)">
       <use xlink:href="#ArialMT-53"/>
       <use xlink:href="#ArialMT-42" x="66.699219"/>
       <use xlink:href="#ArialMT-53" x="133.398438"/>
       <use xlink:href="#ArialMT-33" x="200.097656"/>
       <use xlink:href="#ArialMT-31" x="255.712891"/>
      </g>
     </g>
    </g>
    <g id="ytick_19">
     <g id="line2d_19">
      <g>
       <use xlink:href="#mac30372358" x="77.576563" y="337.424778" style="stroke: #000000; stroke-width: 0.8"/>
      </g>
     </g>
     <g id="text_19">
      <!-- SBS33 -->
      <g transform="translate(39.44375 340.009934) scale(0.1 -0.1)">
       <use xlink:href="#ArialMT-53"/>
       <use xlink:href="#ArialMT-42" x="66.699219"/>
       <use xlink:href="#ArialMT-53" x="133.398438"/>
       <use xlink:href="#ArialMT-33" x="200.097656"/>
       <use xlink:href="#ArialMT-33" x="255.712891"/>
      </g>
     </g>
    </g>
    <g id="ytick_20">
     <g id="line2d_20">
      <g>
       <use xlink:href="#mac30372358" x="77.576563" y="355.274766" style="stroke: #000000; stroke-width: 0.8"/>
      </g>
     </g>
     <g id="text_20">
      <!-- SBS35 -->
      <g transform="translate(39.44375 357.859922) scale(0.1 -0.1)">
       <use xlink:href="#ArialMT-53"/>
       <use xlink:href="#ArialMT-42" x="66.699219"/>
       <use xlink:href="#ArialMT-53" x="133.398438"/>
       <use xlink:href="#ArialMT-33" x="200.097656"/>
       <use xlink:href="#ArialMT-35" x="255.712891"/>
      </g>
     </g>
    </g>
    <g id="ytick_21">
     <g id="line2d_21">
      <g>
       <use xlink:href="#mac30372358" x="77.576563" y="373.124754" style="stroke: #000000; stroke-width: 0.8"/>
      </g>
     </g>
     <g id="text_21">
      <!-- SBS39 -->
      <g transform="translate(39.44375 375.70991) scale(0.1 -0.1)">
       <defs>
        <path id="ArialMT-39" d="M 350 1059 
L 891 1109 
Q 959 728 1153 556 
Q 1347 384 1650 384 
Q 1909 384 2104 503 
Q 2300 622 2425 820 
Q 2550 1019 2634 1356 
Q 2719 1694 2719 2044 
Q 2719 2081 2716 2156 
Q 2547 1888 2255 1720 
Q 1963 1553 1622 1553 
Q 1053 1553 659 1965 
Q 266 2378 266 3053 
Q 266 3750 677 4175 
Q 1088 4600 1706 4600 
Q 2153 4600 2523 4359 
Q 2894 4119 3086 3673 
Q 3278 3228 3278 2384 
Q 3278 1506 3087 986 
Q 2897 466 2520 194 
Q 2144 -78 1638 -78 
Q 1100 -78 759 220 
Q 419 519 350 1059 
z
M 2653 3081 
Q 2653 3566 2395 3850 
Q 2138 4134 1775 4134 
Q 1400 4134 1122 3828 
Q 844 3522 844 3034 
Q 844 2597 1108 2323 
Q 1372 2050 1759 2050 
Q 2150 2050 2401 2323 
Q 2653 2597 2653 3081 
z
" transform="scale(0.015625)"/>
       </defs>
       <use xlink:href="#ArialMT-53"/>
       <use xlink:href="#ArialMT-42" x="66.699219"/>
       <use xlink:href="#ArialMT-53" x="133.398438"/>
       <use xlink:href="#ArialMT-33" x="200.097656"/>
       <use xlink:href="#ArialMT-39" x="255.712891"/>
      </g>
     </g>
    </g>
    <g id="ytick_22">
     <g id="line2d_22">
      <g>
       <use xlink:href="#mac30372358" x="77.576563" y="390.974742" style="stroke: #000000; stroke-width: 0.8"/>
      </g>
     </g>
     <g id="text_22">
      <!-- SBS43 -->
      <g transform="translate(39.44375 393.559898) scale(0.1 -0.1)">
       <use xlink:href="#ArialMT-53"/>
       <use xlink:href="#ArialMT-42" x="66.699219"/>
       <use xlink:href="#ArialMT-53" x="133.398438"/>
       <use xlink:href="#ArialMT-34" x="200.097656"/>
       <use xlink:href="#ArialMT-33" x="255.712891"/>
      </g>
     </g>
    </g>
    <g id="ytick_23">
     <g id="line2d_23">
      <g>
       <use xlink:href="#mac30372358" x="77.576563" y="408.82473" style="stroke: #000000; stroke-width: 0.8"/>
      </g>
     </g>
     <g id="text_23">
      <!-- SBS44 -->
      <g transform="translate(39.44375 411.409886) scale(0.1 -0.1)">
       <use xlink:href="#ArialMT-53"/>
       <use xlink:href="#ArialMT-42" x="66.699219"/>
       <use xlink:href="#ArialMT-53" x="133.398438"/>
       <use xlink:href="#ArialMT-34" x="200.097656"/>
       <use xlink:href="#ArialMT-34" x="255.712891"/>
      </g>
     </g>
    </g>
    <g id="ytick_24">
     <g id="line2d_24">
      <g>
       <use xlink:href="#mac30372358" x="77.576563" y="426.674718" style="stroke: #000000; stroke-width: 0.8"/>
      </g>
     </g>
     <g id="text_24">
      <!-- SBS45 -->
      <g transform="translate(39.44375 429.259874) scale(0.1 -0.1)">
       <use xlink:href="#ArialMT-53"/>
       <use xlink:href="#ArialMT-42" x="66.699219"/>
       <use xlink:href="#ArialMT-53" x="133.398438"/>
       <use xlink:href="#ArialMT-34" x="200.097656"/>
       <use xlink:href="#ArialMT-35" x="255.712891"/>
      </g>
     </g>
    </g>
    <g id="ytick_25">
     <g id="line2d_25">
      <g>
       <use xlink:href="#mac30372358" x="77.576563" y="444.524706" style="stroke: #000000; stroke-width: 0.8"/>
      </g>
     </g>
     <g id="text_25">
      <!-- SBS46 -->
      <g transform="translate(39.44375 447.109862) scale(0.1 -0.1)">
       <defs>
        <path id="ArialMT-36" d="M 3184 3459 
L 2625 3416 
Q 2550 3747 2413 3897 
Q 2184 4138 1850 4138 
Q 1581 4138 1378 3988 
Q 1113 3794 959 3422 
Q 806 3050 800 2363 
Q 1003 2672 1297 2822 
Q 1591 2972 1913 2972 
Q 2475 2972 2870 2558 
Q 3266 2144 3266 1488 
Q 3266 1056 3080 686 
Q 2894 316 2569 119 
Q 2244 -78 1831 -78 
Q 1128 -78 684 439 
Q 241 956 241 2144 
Q 241 3472 731 4075 
Q 1159 4600 1884 4600 
Q 2425 4600 2770 4297 
Q 3116 3994 3184 3459 
z
M 888 1484 
Q 888 1194 1011 928 
Q 1134 663 1356 523 
Q 1578 384 1822 384 
Q 2178 384 2434 671 
Q 2691 959 2691 1453 
Q 2691 1928 2437 2201 
Q 2184 2475 1800 2475 
Q 1419 2475 1153 2201 
Q 888 1928 888 1484 
z
" transform="scale(0.015625)"/>
       </defs>
       <use xlink:href="#ArialMT-53"/>
       <use xlink:href="#ArialMT-42" x="66.699219"/>
       <use xlink:href="#ArialMT-53" x="133.398438"/>
       <use xlink:href="#ArialMT-34" x="200.097656"/>
       <use xlink:href="#ArialMT-36" x="255.712891"/>
      </g>
     </g>
    </g>
    <g id="ytick_26">
     <g id="line2d_26">
      <g>
       <use xlink:href="#mac30372358" x="77.576563" y="462.374694" style="stroke: #000000; stroke-width: 0.8"/>
      </g>
     </g>
     <g id="text_26">
      <!-- SBS53 -->
      <g transform="translate(39.44375 464.95985) scale(0.1 -0.1)">
       <use xlink:href="#ArialMT-53"/>
       <use xlink:href="#ArialMT-42" x="66.699219"/>
       <use xlink:href="#ArialMT-53" x="133.398438"/>
       <use xlink:href="#ArialMT-35" x="200.097656"/>
       <use xlink:href="#ArialMT-33" x="255.712891"/>
      </g>
     </g>
    </g>
    <g id="ytick_27">
     <g id="line2d_27">
      <g>
       <use xlink:href="#mac30372358" x="77.576563" y="480.224682" style="stroke: #000000; stroke-width: 0.8"/>
      </g>
     </g>
     <g id="text_27">
      <!-- SBS54 -->
      <g transform="translate(39.44375 482.809838) scale(0.1 -0.1)">
       <use xlink:href="#ArialMT-53"/>
       <use xlink:href="#ArialMT-42" x="66.699219"/>
       <use xlink:href="#ArialMT-53" x="133.398438"/>
       <use xlink:href="#ArialMT-35" x="200.097656"/>
       <use xlink:href="#ArialMT-34" x="255.712891"/>
      </g>
     </g>
    </g>
    <g id="ytick_28">
     <g id="line2d_28">
      <g>
       <use xlink:href="#mac30372358" x="77.576563" y="498.07467" style="stroke: #000000; stroke-width: 0.8"/>
      </g>
     </g>
     <g id="text_28">
      <!-- SBS57 -->
      <g transform="translate(39.44375 500.659826) scale(0.1 -0.1)">
       <use xlink:href="#ArialMT-53"/>
       <use xlink:href="#ArialMT-42" x="66.699219"/>
       <use xlink:href="#ArialMT-53" x="133.398438"/>
       <use xlink:href="#ArialMT-35" x="200.097656"/>
       <use xlink:href="#ArialMT-37" x="255.712891"/>
      </g>
     </g>
    </g>
    <g id="ytick_29">
     <g id="line2d_29">
      <g>
       <use xlink:href="#mac30372358" x="77.576563" y="515.924658" style="stroke: #000000; stroke-width: 0.8"/>
      </g>
     </g>
     <g id="text_29">
      <!-- SBS60 -->
      <g transform="translate(39.44375 518.509814) scale(0.1 -0.1)">
       <use xlink:href="#ArialMT-53"/>
       <use xlink:href="#ArialMT-42" x="66.699219"/>
       <use xlink:href="#ArialMT-53" x="133.398438"/>
       <use xlink:href="#ArialMT-36" x="200.097656"/>
       <use xlink:href="#ArialMT-30" x="255.712891"/>
      </g>
     </g>
    </g>
    <g id="ytick_30">
     <g id="line2d_30">
      <g>
       <use xlink:href="#mac30372358" x="77.576563" y="533.774646" style="stroke: #000000; stroke-width: 0.8"/>
      </g>
     </g>
     <g id="text_30">
      <!-- SBS84 -->
      <g transform="translate(39.44375 536.359802) scale(0.1 -0.1)">
       <use xlink:href="#ArialMT-53"/>
       <use xlink:href="#ArialMT-42" x="66.699219"/>
       <use xlink:href="#ArialMT-53" x="133.398438"/>
       <use xlink:href="#ArialMT-38" x="200.097656"/>
       <use xlink:href="#ArialMT-34" x="255.712891"/>
      </g>
     </g>
    </g>
    <g id="ytick_31">
     <g id="line2d_31">
      <g>
       <use xlink:href="#mac30372358" x="77.576563" y="551.624634" style="stroke: #000000; stroke-width: 0.8"/>
      </g>
     </g>
     <g id="text_31">
      <!-- SBS87 -->
      <g transform="translate(39.44375 554.20979) scale(0.1 -0.1)">
       <use xlink:href="#ArialMT-53"/>
       <use xlink:href="#ArialMT-42" x="66.699219"/>
       <use xlink:href="#ArialMT-53" x="133.398438"/>
       <use xlink:href="#ArialMT-38" x="200.097656"/>
       <use xlink:href="#ArialMT-37" x="255.712891"/>
      </g>
     </g>
    </g>
    <g id="ytick_32">
     <g id="line2d_32">
      <g>
       <use xlink:href="#mac30372358" x="77.576563" y="569.474622" style="stroke: #000000; stroke-width: 0.8"/>
      </g>
     </g>
     <g id="text_32">
      <!-- SBS288L1/H3 -->
      <g transform="translate(7.2 572.059778) scale(0.1 -0.1)">
       <defs>
        <path id="ArialMT-4c" d="M 469 0 
L 469 4581 
L 1075 4581 
L 1075 541 
L 3331 541 
L 3331 0 
L 469 0 
z
" transform="scale(0.015625)"/>
        <path id="ArialMT-2f" d="M 0 -78 
L 1328 4659 
L 1778 4659 
L 453 -78 
L 0 -78 
z
" transform="scale(0.015625)"/>
        <path id="ArialMT-48" d="M 513 0 
L 513 4581 
L 1119 4581 
L 1119 2700 
L 3500 2700 
L 3500 4581 
L 4106 4581 
L 4106 0 
L 3500 0 
L 3500 2159 
L 1119 2159 
L 1119 0 
L 513 0 
z
" transform="scale(0.015625)"/>
       </defs>
       <use xlink:href="#ArialMT-53"/>
       <use xlink:href="#ArialMT-42" x="66.699219"/>
       <use xlink:href="#ArialMT-53" x="133.398438"/>
       <use xlink:href="#ArialMT-32" x="200.097656"/>
       <use xlink:href="#ArialMT-38" x="255.712891"/>
       <use xlink:href="#ArialMT-38" x="311.328125"/>
       <use xlink:href="#ArialMT-4c" x="366.943359"/>
       <use xlink:href="#ArialMT-31" x="422.558594"/>
       <use xlink:href="#ArialMT-2f" x="478.173828"/>
       <use xlink:href="#ArialMT-48" x="505.957031"/>
       <use xlink:href="#ArialMT-33" x="578.173828"/>
      </g>
     </g>
    </g>
    <g id="ytick_33">
     <g id="line2d_33">
      <g>
       <use xlink:href="#mac30372358" x="77.576563" y="587.32461" style="stroke: #000000; stroke-width: 0.8"/>
      </g>
     </g>
     <g id="text_33">
      <!-- SBS288L2 -->
      <g transform="translate(22.760938 589.909766) scale(0.1 -0.1)">
       <use xlink:href="#ArialMT-53"/>
       <use xlink:href="#ArialMT-42" x="66.699219"/>
       <use xlink:href="#ArialMT-53" x="133.398438"/>
       <use xlink:href="#ArialMT-32" x="200.097656"/>
       <use xlink:href="#ArialMT-38" x="255.712891"/>
       <use xlink:href="#ArialMT-38" x="311.328125"/>
       <use xlink:href="#ArialMT-4c" x="366.943359"/>
       <use xlink:href="#ArialMT-32" x="422.558594"/>
      </g>
     </g>
    </g>
    <g id="ytick_34">
     <g id="line2d_34">
      <g>
       <use xlink:href="#mac30372358" x="77.576563" y="605.174598" style="stroke: #000000; stroke-width: 0.8"/>
      </g>
     </g>
     <g id="text_34">
      <!-- SBS288L3 -->
      <g transform="translate(22.760938 607.759754) scale(0.1 -0.1)">
       <use xlink:href="#ArialMT-53"/>
       <use xlink:href="#ArialMT-42" x="66.699219"/>
       <use xlink:href="#ArialMT-53" x="133.398438"/>
       <use xlink:href="#ArialMT-32" x="200.097656"/>
       <use xlink:href="#ArialMT-38" x="255.712891"/>
       <use xlink:href="#ArialMT-38" x="311.328125"/>
       <use xlink:href="#ArialMT-4c" x="366.943359"/>
       <use xlink:href="#ArialMT-33" x="422.558594"/>
      </g>
     </g>
    </g>
    <g id="ytick_35">
     <g id="line2d_35">
      <g>
       <use xlink:href="#mac30372358" x="77.576563" y="623.024586" style="stroke: #000000; stroke-width: 0.8"/>
      </g>
     </g>
     <g id="text_35">
      <!-- SBS288L4 -->
      <g transform="translate(22.760938 625.609742) scale(0.1 -0.1)">
       <use xlink:href="#ArialMT-53"/>
       <use xlink:href="#ArialMT-42" x="66.699219"/>
       <use xlink:href="#ArialMT-53" x="133.398438"/>
       <use xlink:href="#ArialMT-32" x="200.097656"/>
       <use xlink:href="#ArialMT-38" x="255.712891"/>
       <use xlink:href="#ArialMT-38" x="311.328125"/>
       <use xlink:href="#ArialMT-4c" x="366.943359"/>
       <use xlink:href="#ArialMT-34" x="422.558594"/>
      </g>
     </g>
    </g>
    <g id="ytick_36">
     <g id="line2d_36">
      <g>
       <use xlink:href="#mac30372358" x="77.576563" y="640.874574" style="stroke: #000000; stroke-width: 0.8"/>
      </g>
     </g>
     <g id="text_36">
      <!-- SBS288L5 -->
      <g transform="translate(22.760938 643.45973) scale(0.1 -0.1)">
       <use xlink:href="#ArialMT-53"/>
       <use xlink:href="#ArialMT-42" x="66.699219"/>
       <use xlink:href="#ArialMT-53" x="133.398438"/>
       <use xlink:href="#ArialMT-32" x="200.097656"/>
       <use xlink:href="#ArialMT-38" x="255.712891"/>
       <use xlink:href="#ArialMT-38" x="311.328125"/>
       <use xlink:href="#ArialMT-4c" x="366.943359"/>
       <use xlink:href="#ArialMT-35" x="422.558594"/>
      </g>
     </g>
    </g>
    <g id="ytick_37">
     <g id="line2d_37">
      <g>
       <use xlink:href="#mac30372358" x="77.576563" y="658.724562" style="stroke: #000000; stroke-width: 0.8"/>
      </g>
     </g>
     <g id="text_37">
      <!-- SBS288H1 -->
      <g transform="translate(21.1 661.309718) scale(0.1 -0.1)">
       <use xlink:href="#ArialMT-53"/>
       <use xlink:href="#ArialMT-42" x="66.699219"/>
       <use xlink:href="#ArialMT-53" x="133.398438"/>
       <use xlink:href="#ArialMT-32" x="200.097656"/>
       <use xlink:href="#ArialMT-38" x="255.712891"/>
       <use xlink:href="#ArialMT-38" x="311.328125"/>
       <use xlink:href="#ArialMT-48" x="366.943359"/>
       <use xlink:href="#ArialMT-31" x="439.160156"/>
      </g>
     </g>
    </g>
    <g id="ytick_38">
     <g id="line2d_38">
      <g>
       <use xlink:href="#mac30372358" x="77.576563" y="676.57455" style="stroke: #000000; stroke-width: 0.8"/>
      </g>
     </g>
     <g id="text_38">
      <!-- SBS288H2 -->
      <g transform="translate(21.1 679.159706) scale(0.1 -0.1)">
       <use xlink:href="#ArialMT-53"/>
       <use xlink:href="#ArialMT-42" x="66.699219"/>
       <use xlink:href="#ArialMT-53" x="133.398438"/>
       <use xlink:href="#ArialMT-32" x="200.097656"/>
       <use xlink:href="#ArialMT-38" x="255.712891"/>
       <use xlink:href="#ArialMT-38" x="311.328125"/>
       <use xlink:href="#ArialMT-48" x="366.943359"/>
       <use xlink:href="#ArialMT-32" x="439.160156"/>
      </g>
     </g>
    </g>
    <g id="ytick_39">
     <g id="line2d_39">
      <g>
       <use xlink:href="#mac30372358" x="77.576563" y="694.424538" style="stroke: #000000; stroke-width: 0.8"/>
      </g>
     </g>
     <g id="text_39">
      <!-- SBS288H4 -->
      <g transform="translate(21.1 697.009694) scale(0.1 -0.1)">
       <use xlink:href="#ArialMT-53"/>
       <use xlink:href="#ArialMT-42" x="66.699219"/>
       <use xlink:href="#ArialMT-53" x="133.398438"/>
       <use xlink:href="#ArialMT-32" x="200.097656"/>
       <use xlink:href="#ArialMT-38" x="255.712891"/>
       <use xlink:href="#ArialMT-38" x="311.328125"/>
       <use xlink:href="#ArialMT-48" x="366.943359"/>
       <use xlink:href="#ArialMT-34" x="439.160156"/>
      </g>
     </g>
    </g>
    <g id="ytick_40">
     <g id="line2d_40">
      <g>
       <use xlink:href="#mac30372358" x="77.576563" y="712.274526" style="stroke: #000000; stroke-width: 0.8"/>
      </g>
     </g>
     <g id="text_40">
      <!-- SBS288H5 -->
      <g transform="translate(21.1 714.859682) scale(0.1 -0.1)">
       <use xlink:href="#ArialMT-53"/>
       <use xlink:href="#ArialMT-42" x="66.699219"/>
       <use xlink:href="#ArialMT-53" x="133.398438"/>
       <use xlink:href="#ArialMT-32" x="200.097656"/>
       <use xlink:href="#ArialMT-38" x="255.712891"/>
       <use xlink:href="#ArialMT-38" x="311.328125"/>
       <use xlink:href="#ArialMT-48" x="366.943359"/>
       <use xlink:href="#ArialMT-35" x="439.160156"/>
      </g>
     </g>
    </g>
   </g>
   <g id="text_41">
    <!-- 406 -->
    <g style="fill: #ffffff" transform="translate(84.640776 18.71015) scale(0.1 -0.1)">
     <use xlink:href="#ArialMT-34"/>
     <use xlink:href="#ArialMT-30" x="55.615234"/>
     <use xlink:href="#ArialMT-36" x="111.230469"/>
    </g>
   </g>
   <g id="text_42">
    <!-- 28 -->
    <g style="fill: #262626" transform="translate(87.421244 36.560138) scale(0.1 -0.1)">
     <use xlink:href="#ArialMT-32"/>
     <use xlink:href="#ArialMT-38" x="55.615234"/>
    </g>
   </g>
   <g id="text_43">
    <!-- 563 -->
    <g style="fill: #ffffff" transform="translate(84.640776 54.410126) scale(0.1 -0.1)">
     <use xlink:href="#ArialMT-35"/>
     <use xlink:href="#ArialMT-36" x="55.615234"/>
     <use xlink:href="#ArialMT-33" x="111.230469"/>
    </g>
   </g>
   <g id="text_44">
    <!-- 0 -->
    <g style="fill: #262626" transform="translate(90.201713 72.260114) scale(0.1 -0.1)">
     <use xlink:href="#ArialMT-30"/>
    </g>
   </g>
   <g id="text_45">
    <!-- 0 -->
    <g style="fill: #262626" transform="translate(90.201713 90.110102) scale(0.1 -0.1)">
     <use xlink:href="#ArialMT-30"/>
    </g>
   </g>
   <g id="text_46">
    <!-- 128 -->
    <g style="fill: #262626" transform="translate(84.640776 107.96009) scale(0.1 -0.1)">
     <use xlink:href="#ArialMT-31"/>
     <use xlink:href="#ArialMT-32" x="55.615234"/>
     <use xlink:href="#ArialMT-38" x="111.230469"/>
    </g>
   </g>
   <g id="text_47">
    <!-- 0 -->
    <g style="fill: #262626" transform="translate(90.201713 125.810078) scale(0.1 -0.1)">
     <use xlink:href="#ArialMT-30"/>
    </g>
   </g>
   <g id="text_48">
    <!-- 0 -->
    <g style="fill: #262626" transform="translate(90.201713 143.660066) scale(0.1 -0.1)">
     <use xlink:href="#ArialMT-30"/>
    </g>
   </g>
   <g id="text_49">
    <!-- 1 -->
    <g style="fill: #262626" transform="translate(90.201713 161.510054) scale(0.1 -0.1)">
     <use xlink:href="#ArialMT-31"/>
    </g>
   </g>
   <g id="text_50">
    <!-- 5 -->
    <g style="fill: #262626" transform="translate(90.201713 179.360042) scale(0.1 -0.1)">
     <use xlink:href="#ArialMT-35"/>
    </g>
   </g>
   <g id="text_51">
    <!-- 28 -->
    <g style="fill: #262626" transform="translate(87.421244 197.21003) scale(0.1 -0.1)">
     <use xlink:href="#ArialMT-32"/>
     <use xlink:href="#ArialMT-38" x="55.615234"/>
    </g>
   </g>
   <g id="text_52">
    <!-- 0 -->
    <g style="fill: #262626" transform="translate(90.201713 215.060018) scale(0.1 -0.1)">
     <use xlink:href="#ArialMT-30"/>
    </g>
   </g>
   <g id="text_53">
    <!-- 2 -->
    <g style="fill: #262626" transform="translate(90.201713 232.910006) scale(0.1 -0.1)">
     <use xlink:href="#ArialMT-32"/>
    </g>
   </g>
   <g id="text_54">
    <!-- 6 -->
    <g style="fill: #262626" transform="translate(90.201713 250.759994) scale(0.1 -0.1)">
     <use xlink:href="#ArialMT-36"/>
    </g>
   </g>
   <g id="text_55">
    <!-- 10 -->
    <g style="fill: #262626" transform="translate(87.421244 268.609982) scale(0.1 -0.1)">
     <use xlink:href="#ArialMT-31"/>
     <use xlink:href="#ArialMT-30" x="55.615234"/>
    </g>
   </g>
   <g id="text_56">
    <!-- 177 -->
    <g style="fill: #262626" transform="translate(84.640776 286.45997) scale(0.1 -0.1)">
     <use xlink:href="#ArialMT-31"/>
     <use xlink:href="#ArialMT-37" x="55.615234"/>
     <use xlink:href="#ArialMT-37" x="111.230469"/>
    </g>
   </g>
   <g id="text_57">
    <!-- 0 -->
    <g style="fill: #262626" transform="translate(90.201713 304.309958) scale(0.1 -0.1)">
     <use xlink:href="#ArialMT-30"/>
    </g>
   </g>
   <g id="text_58">
    <!-- 55 -->
    <g style="fill: #262626" transform="translate(87.421244 322.159946) scale(0.1 -0.1)">
     <use xlink:href="#ArialMT-35"/>
     <use xlink:href="#ArialMT-35" x="55.615234"/>
    </g>
   </g>
   <g id="text_59">
    <!-- 8 -->
    <g style="fill: #262626" transform="translate(90.201713 340.009934) scale(0.1 -0.1)">
     <use xlink:href="#ArialMT-38"/>
    </g>
   </g>
   <g id="text_60">
    <!-- 32 -->
    <g style="fill: #262626" transform="translate(87.421244 357.859922) scale(0.1 -0.1)">
     <use xlink:href="#ArialMT-33"/>
     <use xlink:href="#ArialMT-32" x="55.615234"/>
    </g>
   </g>
   <g id="text_61">
    <!-- 24 -->
    <g style="fill: #262626" transform="translate(87.421244 375.70991) scale(0.1 -0.1)">
     <use xlink:href="#ArialMT-32"/>
     <use xlink:href="#ArialMT-34" x="55.615234"/>
    </g>
   </g>
   <g id="text_62">
    <!-- 81 -->
    <g style="fill: #262626" transform="translate(87.421244 393.559898) scale(0.1 -0.1)">
     <use xlink:href="#ArialMT-38"/>
     <use xlink:href="#ArialMT-31" x="55.615234"/>
    </g>
   </g>
   <g id="text_63">
    <!-- 2 -->
    <g style="fill: #262626" transform="translate(90.201713 411.409886) scale(0.1 -0.1)">
     <use xlink:href="#ArialMT-32"/>
    </g>
   </g>
   <g id="text_64">
    <!-- 0 -->
    <g style="fill: #262626" transform="translate(90.201713 429.259874) scale(0.1 -0.1)">
     <use xlink:href="#ArialMT-30"/>
    </g>
   </g>
   <g id="text_65">
    <!-- 32 -->
    <g style="fill: #262626" transform="translate(87.421244 447.109862) scale(0.1 -0.1)">
     <use xlink:href="#ArialMT-33"/>
     <use xlink:href="#ArialMT-32" x="55.615234"/>
    </g>
   </g>
   <g id="text_66">
    <!-- 7 -->
    <g style="fill: #262626" transform="translate(90.201713 464.95985) scale(0.1 -0.1)">
     <use xlink:href="#ArialMT-37"/>
    </g>
   </g>
   <g id="text_67">
    <!-- 28 -->
    <g style="fill: #262626" transform="translate(87.421244 482.809838) scale(0.1 -0.1)">
     <use xlink:href="#ArialMT-32"/>
     <use xlink:href="#ArialMT-38" x="55.615234"/>
    </g>
   </g>
   <g id="text_68">
    <!-- 3 -->
    <g style="fill: #262626" transform="translate(90.201713 500.659826) scale(0.1 -0.1)">
     <use xlink:href="#ArialMT-33"/>
    </g>
   </g>
   <g id="text_69">
    <!-- 18 -->
    <g style="fill: #262626" transform="translate(87.421244 518.509814) scale(0.1 -0.1)">
     <use xlink:href="#ArialMT-31"/>
     <use xlink:href="#ArialMT-38" x="55.615234"/>
    </g>
   </g>
   <g id="text_70">
    <!-- 0 -->
    <g style="fill: #262626" transform="translate(90.201713 536.359802) scale(0.1 -0.1)">
     <use xlink:href="#ArialMT-30"/>
    </g>
   </g>
   <g id="text_71">
    <!-- 8 -->
    <g style="fill: #262626" transform="translate(90.201713 554.20979) scale(0.1 -0.1)">
     <use xlink:href="#ArialMT-38"/>
    </g>
   </g>
   <g id="text_72">
    <!-- 22 -->
    <g style="fill: #262626" transform="translate(87.421244 572.059778) scale(0.1 -0.1)">
     <use xlink:href="#ArialMT-32"/>
     <use xlink:href="#ArialMT-32" x="55.615234"/>
    </g>
   </g>
   <g id="text_73">
    <!-- 31 -->
    <g style="fill: #262626" transform="translate(87.421244 589.909766) scale(0.1 -0.1)">
     <use xlink:href="#ArialMT-33"/>
     <use xlink:href="#ArialMT-31" x="55.615234"/>
    </g>
   </g>
   <g id="text_74">
    <!-- 18 -->
    <g style="fill: #262626" transform="translate(87.421244 607.759754) scale(0.1 -0.1)">
     <use xlink:href="#ArialMT-31"/>
     <use xlink:href="#ArialMT-38" x="55.615234"/>
    </g>
   </g>
   <g id="text_75">
    <!-- 24 -->
    <g style="fill: #262626" transform="translate(87.421244 625.609742) scale(0.1 -0.1)">
     <use xlink:href="#ArialMT-32"/>
     <use xlink:href="#ArialMT-34" x="55.615234"/>
    </g>
   </g>
   <g id="text_76">
    <!-- 23 -->
    <g style="fill: #262626" transform="translate(87.421244 643.45973) scale(0.1 -0.1)">
     <use xlink:href="#ArialMT-32"/>
     <use xlink:href="#ArialMT-33" x="55.615234"/>
    </g>
   </g>
   <g id="text_77">
    <!-- 0 -->
    <g style="fill: #262626" transform="translate(90.201713 661.309718) scale(0.1 -0.1)">
     <use xlink:href="#ArialMT-30"/>
    </g>
   </g>
   <g id="text_78">
    <!-- 0 -->
    <g style="fill: #262626" transform="translate(90.201713 679.159706) scale(0.1 -0.1)">
     <use xlink:href="#ArialMT-30"/>
    </g>
   </g>
   <g id="text_79">
    <!-- 0 -->
    <g style="fill: #262626" transform="translate(90.201713 697.009694) scale(0.1 -0.1)">
     <use xlink:href="#ArialMT-30"/>
    </g>
   </g>
   <g id="text_80">
    <!-- 0 -->
    <g style="fill: #262626" transform="translate(90.201713 714.859682) scale(0.1 -0.1)">
     <use xlink:href="#ArialMT-30"/>
    </g>
   </g>
  </g>
  <g id="axes_2">
   <g id="patch_3">
    <path d="M 114.388281 721.19952 
L 145.19952 721.19952 
L 145.19952 7.2 
L 114.388281 7.2 
L 114.388281 721.19952 
z
" style="fill: none"/>
   </g>
   <g id="QuadMesh_2">
    <path d="M 114.388281 7.2 
L 145.19952 7.2 
L 145.19952 25.049988 
L 114.388281 25.049988 
L 114.388281 7.2 
" clip-path="url(#p260e2fa5fe)" style="fill: #fea9b8"/>
    <path d="M 114.388281 25.049988 
L 145.19952 25.049988 
L 145.19952 42.899976 
L 114.388281 42.899976 
L 114.388281 25.049988 
" clip-path="url(#p260e2fa5fe)" style="fill: #ffffff"/>
    <path d="M 114.388281 42.899976 
L 145.19952 42.899976 
L 145.19952 60.749964 
L 114.388281 60.749964 
L 114.388281 42.899976 
" clip-path="url(#p260e2fa5fe)" style="fill: #fe90a3"/>
    <path d="M 114.388281 60.749964 
L 145.19952 60.749964 
L 145.19952 78.599952 
L 114.388281 78.599952 
L 114.388281 60.749964 
" clip-path="url(#p260e2fa5fe)" style="fill: #ffffff"/>
    <path d="M 114.388281 78.599952 
L 145.19952 78.599952 
L 145.19952 96.44994 
L 114.388281 96.44994 
L 114.388281 78.599952 
" clip-path="url(#p260e2fa5fe)" style="fill: #ffffff"/>
    <path d="M 114.388281 96.44994 
L 145.19952 96.44994 
L 145.19952 114.299928 
L 114.388281 114.299928 
L 114.388281 96.44994 
" clip-path="url(#p260e2fa5fe)" style="fill: #ffffff"/>
    <path d="M 114.388281 114.299928 
L 145.19952 114.299928 
L 145.19952 132.149916 
L 114.388281 132.149916 
L 114.388281 114.299928 
" clip-path="url(#p260e2fa5fe)" style="fill: #ffe6eb"/>
    <path d="M 114.388281 132.149916 
L 145.19952 132.149916 
L 145.19952 149.999904 
L 114.388281 149.999904 
L 114.388281 132.149916 
" clip-path="url(#p260e2fa5fe)" style="fill: #fff3f5"/>
    <path d="M 114.388281 149.999904 
L 145.19952 149.999904 
L 145.19952 167.849892 
L 114.388281 167.849892 
L 114.388281 149.999904 
" clip-path="url(#p260e2fa5fe)" style="fill: #ffffff"/>
    <path d="M 114.388281 167.849892 
L 145.19952 167.849892 
L 145.19952 185.69988 
L 114.388281 185.69988 
L 114.388281 167.849892 
" clip-path="url(#p260e2fa5fe)" style="fill: #ffffff"/>
    <path d="M 114.388281 185.69988 
L 145.19952 185.69988 
L 145.19952 203.549868 
L 114.388281 203.549868 
L 114.388281 185.69988 
" clip-path="url(#p260e2fa5fe)" style="fill: #ffffff"/>
    <path d="M 114.388281 203.549868 
L 145.19952 203.549868 
L 145.19952 221.399856 
L 114.388281 221.399856 
L 114.388281 203.549868 
" clip-path="url(#p260e2fa5fe)" style="fill: #ffe6eb"/>
    <path d="M 114.388281 221.399856 
L 145.19952 221.399856 
L 145.19952 239.249844 
L 114.388281 239.249844 
L 114.388281 221.399856 
" clip-path="url(#p260e2fa5fe)" style="fill: #ffffff"/>
    <path d="M 114.388281 239.249844 
L 145.19952 239.249844 
L 145.19952 257.099832 
L 114.388281 257.099832 
L 114.388281 239.249844 
" clip-path="url(#p260e2fa5fe)" style="fill: #ffffff"/>
    <path d="M 114.388281 257.099832 
L 145.19952 257.099832 
L 145.19952 274.94982 
L 114.388281 274.94982 
L 114.388281 257.099832 
" clip-path="url(#p260e2fa5fe)" style="fill: #ffffff"/>
    <path d="M 114.388281 274.94982 
L 145.19952 274.94982 
L 145.19952 292.799808 
L 114.388281 292.799808 
L 114.388281 274.94982 
" clip-path="url(#p260e2fa5fe)" style="fill: #ffffff"/>
    <path d="M 114.388281 292.799808 
L 145.19952 292.799808 
L 145.19952 310.649796 
L 114.388281 310.649796 
L 114.388281 292.799808 
" clip-path="url(#p260e2fa5fe)" style="fill: #ffffff"/>
    <path d="M 114.388281 310.649796 
L 145.19952 310.649796 
L 145.19952 328.499784 
L 114.388281 328.499784 
L 114.388281 310.649796 
" clip-path="url(#p260e2fa5fe)" style="fill: #ffffff"/>
    <path d="M 114.388281 328.499784 
L 145.19952 328.499784 
L 145.19952 346.349772 
L 114.388281 346.349772 
L 114.388281 328.499784 
" clip-path="url(#p260e2fa5fe)" style="fill: #ffffff"/>
    <path d="M 114.388281 346.349772 
L 145.19952 346.349772 
L 145.19952 364.19976 
L 114.388281 364.19976 
L 114.388281 346.349772 
" clip-path="url(#p260e2fa5fe)" style="fill: #ffffff"/>
    <path d="M 114.388281 364.19976 
L 145.19952 364.19976 
L 145.19952 382.049748 
L 114.388281 382.049748 
L 114.388281 364.19976 
" clip-path="url(#p260e2fa5fe)" style="fill: #ffffff"/>
    <path d="M 114.388281 382.049748 
L 145.19952 382.049748 
L 145.19952 399.899736 
L 114.388281 399.899736 
L 114.388281 382.049748 
" clip-path="url(#p260e2fa5fe)" style="fill: #ffffff"/>
    <path d="M 114.388281 399.899736 
L 145.19952 399.899736 
L 145.19952 417.749724 
L 114.388281 417.749724 
L 114.388281 399.899736 
" clip-path="url(#p260e2fa5fe)" style="fill: #fff3f5"/>
    <path d="M 114.388281 417.749724 
L 145.19952 417.749724 
L 145.19952 435.599712 
L 114.388281 435.599712 
L 114.388281 417.749724 
" clip-path="url(#p260e2fa5fe)" style="fill: #ffffff"/>
    <path d="M 114.388281 435.599712 
L 145.19952 435.599712 
L 145.19952 453.4497 
L 114.388281 453.4497 
L 114.388281 435.599712 
" clip-path="url(#p260e2fa5fe)" style="fill: #ffffff"/>
    <path d="M 114.388281 453.4497 
L 145.19952 453.4497 
L 145.19952 471.299688 
L 114.388281 471.299688 
L 114.388281 453.4497 
" clip-path="url(#p260e2fa5fe)" style="fill: #ffffff"/>
    <path d="M 114.388281 471.299688 
L 145.19952 471.299688 
L 145.19952 489.149676 
L 114.388281 489.149676 
L 114.388281 471.299688 
" clip-path="url(#p260e2fa5fe)" style="fill: #ffffff"/>
    <path d="M 114.388281 489.149676 
L 145.19952 489.149676 
L 145.19952 506.999664 
L 114.388281 506.999664 
L 114.388281 489.149676 
" clip-path="url(#p260e2fa5fe)" style="fill: #ffffff"/>
    <path d="M 114.388281 506.999664 
L 145.19952 506.999664 
L 145.19952 524.849652 
L 114.388281 524.849652 
L 114.388281 506.999664 
" clip-path="url(#p260e2fa5fe)" style="fill: #ffffff"/>
    <path d="M 114.388281 524.849652 
L 145.19952 524.849652 
L 145.19952 542.69964 
L 114.388281 542.69964 
L 114.388281 524.849652 
" clip-path="url(#p260e2fa5fe)" style="fill: #ffffff"/>
    <path d="M 114.388281 542.69964 
L 145.19952 542.69964 
L 145.19952 560.549628 
L 114.388281 560.549628 
L 114.388281 542.69964 
" clip-path="url(#p260e2fa5fe)" style="fill: #ffffff"/>
    <path d="M 114.388281 560.549628 
L 145.19952 560.549628 
L 145.19952 578.399616 
L 114.388281 578.399616 
L 114.388281 560.549628 
" clip-path="url(#p260e2fa5fe)" style="fill: #fff3f5"/>
    <path d="M 114.388281 578.399616 
L 145.19952 578.399616 
L 145.19952 596.249604 
L 114.388281 596.249604 
L 114.388281 578.399616 
" clip-path="url(#p260e2fa5fe)" style="fill: #ffffff"/>
    <path d="M 114.388281 596.249604 
L 145.19952 596.249604 
L 145.19952 614.099592 
L 114.388281 614.099592 
L 114.388281 596.249604 
" clip-path="url(#p260e2fa5fe)" style="fill: #ffffff"/>
    <path d="M 114.388281 614.099592 
L 145.19952 614.099592 
L 145.19952 631.94958 
L 114.388281 631.94958 
L 114.388281 614.099592 
" clip-path="url(#p260e2fa5fe)" style="fill: #ffffff"/>
    <path d="M 114.388281 631.94958 
L 145.19952 631.94958 
L 145.19952 649.799568 
L 114.388281 649.799568 
L 114.388281 631.94958 
" clip-path="url(#p260e2fa5fe)" style="fill: #ffffff"/>
    <path d="M 114.388281 649.799568 
L 145.19952 649.799568 
L 145.19952 667.649556 
L 114.388281 667.649556 
L 114.388281 649.799568 
" clip-path="url(#p260e2fa5fe)" style="fill: #fff3f5"/>
    <path d="M 114.388281 667.649556 
L 145.19952 667.649556 
L 145.19952 685.499544 
L 114.388281 685.499544 
L 114.388281 667.649556 
" clip-path="url(#p260e2fa5fe)" style="fill: #ffe6eb"/>
    <path d="M 114.388281 685.499544 
L 145.19952 685.499544 
L 145.19952 703.349532 
L 114.388281 703.349532 
L 114.388281 685.499544 
" clip-path="url(#p260e2fa5fe)" style="fill: #fff3f5"/>
    <path d="M 114.388281 703.349532 
L 145.19952 703.349532 
L 145.19952 721.19952 
L 114.388281 721.19952 
L 114.388281 703.349532 
" clip-path="url(#p260e2fa5fe)" style="fill: #ffffff"/>
   </g>
   <g id="matplotlib.axis_3"/>
   <g id="matplotlib.axis_4"/>
   <g id="text_81">
    <!-- 27 -->
    <g style="fill: #262626" transform="translate(124.232963 18.71015) scale(0.1 -0.1)">
     <use xlink:href="#ArialMT-32"/>
     <use xlink:href="#ArialMT-37" x="55.615234"/>
    </g>
   </g>
   <g id="text_82">
    <!-- 0 -->
    <g style="fill: #262626" transform="translate(127.013432 36.560138) scale(0.1 -0.1)">
     <use xlink:href="#ArialMT-30"/>
    </g>
   </g>
   <g id="text_83">
    <!-- 34 -->
    <g style="fill: #262626" transform="translate(124.232963 54.410126) scale(0.1 -0.1)">
     <use xlink:href="#ArialMT-33"/>
     <use xlink:href="#ArialMT-34" x="55.615234"/>
    </g>
   </g>
   <g id="text_84">
    <!-- 1 -->
    <g style="fill: #262626" transform="translate(127.013432 72.260114) scale(0.1 -0.1)">
     <use xlink:href="#ArialMT-31"/>
    </g>
   </g>
   <g id="text_85">
    <!-- 1 -->
    <g style="fill: #262626" transform="translate(127.013432 90.110102) scale(0.1 -0.1)">
     <use xlink:href="#ArialMT-31"/>
    </g>
   </g>
   <g id="text_86">
    <!-- 0 -->
    <g style="fill: #262626" transform="translate(127.013432 107.96009) scale(0.1 -0.1)">
     <use xlink:href="#ArialMT-30"/>
    </g>
   </g>
   <g id="text_87">
    <!-- 7 -->
    <g style="fill: #262626" transform="translate(127.013432 125.810078) scale(0.1 -0.1)">
     <use xlink:href="#ArialMT-37"/>
    </g>
   </g>
   <g id="text_88">
    <!-- 5 -->
    <g style="fill: #262626" transform="translate(127.013432 143.660066) scale(0.1 -0.1)">
     <use xlink:href="#ArialMT-35"/>
    </g>
   </g>
   <g id="text_89">
    <!-- 1 -->
    <g style="fill: #262626" transform="translate(127.013432 161.510054) scale(0.1 -0.1)">
     <use xlink:href="#ArialMT-31"/>
    </g>
   </g>
   <g id="text_90">
    <!-- 0 -->
    <g style="fill: #262626" transform="translate(127.013432 179.360042) scale(0.1 -0.1)">
     <use xlink:href="#ArialMT-30"/>
    </g>
   </g>
   <g id="text_91">
    <!-- 0 -->
    <g style="fill: #262626" transform="translate(127.013432 197.21003) scale(0.1 -0.1)">
     <use xlink:href="#ArialMT-30"/>
    </g>
   </g>
   <g id="text_92">
    <!-- 8 -->
    <g style="fill: #262626" transform="translate(127.013432 215.060018) scale(0.1 -0.1)">
     <use xlink:href="#ArialMT-38"/>
    </g>
   </g>
   <g id="text_93">
    <!-- 3 -->
    <g style="fill: #262626" transform="translate(127.013432 232.910006) scale(0.1 -0.1)">
     <use xlink:href="#ArialMT-33"/>
    </g>
   </g>
   <g id="text_94">
    <!-- 0 -->
    <g style="fill: #262626" transform="translate(127.013432 250.759994) scale(0.1 -0.1)">
     <use xlink:href="#ArialMT-30"/>
    </g>
   </g>
   <g id="text_95">
    <!-- 0 -->
    <g style="fill: #262626" transform="translate(127.013432 268.609982) scale(0.1 -0.1)">
     <use xlink:href="#ArialMT-30"/>
    </g>
   </g>
   <g id="text_96">
    <!-- 0 -->
    <g style="fill: #262626" transform="translate(127.013432 286.45997) scale(0.1 -0.1)">
     <use xlink:href="#ArialMT-30"/>
    </g>
   </g>
   <g id="text_97">
    <!-- 3 -->
    <g style="fill: #262626" transform="translate(127.013432 304.309958) scale(0.1 -0.1)">
     <use xlink:href="#ArialMT-33"/>
    </g>
   </g>
   <g id="text_98">
    <!-- 3 -->
    <g style="fill: #262626" transform="translate(127.013432 322.159946) scale(0.1 -0.1)">
     <use xlink:href="#ArialMT-33"/>
    </g>
   </g>
   <g id="text_99">
    <!-- 0 -->
    <g style="fill: #262626" transform="translate(127.013432 340.009934) scale(0.1 -0.1)">
     <use xlink:href="#ArialMT-30"/>
    </g>
   </g>
   <g id="text_100">
    <!-- 3 -->
    <g style="fill: #262626" transform="translate(127.013432 357.859922) scale(0.1 -0.1)">
     <use xlink:href="#ArialMT-33"/>
    </g>
   </g>
   <g id="text_101">
    <!-- 0 -->
    <g style="fill: #262626" transform="translate(127.013432 375.70991) scale(0.1 -0.1)">
     <use xlink:href="#ArialMT-30"/>
    </g>
   </g>
   <g id="text_102">
    <!-- 0 -->
    <g style="fill: #262626" transform="translate(127.013432 393.559898) scale(0.1 -0.1)">
     <use xlink:href="#ArialMT-30"/>
    </g>
   </g>
   <g id="text_103">
    <!-- 4 -->
    <g style="fill: #262626" transform="translate(127.013432 411.409886) scale(0.1 -0.1)">
     <use xlink:href="#ArialMT-34"/>
    </g>
   </g>
   <g id="text_104">
    <!-- 1 -->
    <g style="fill: #262626" transform="translate(127.013432 429.259874) scale(0.1 -0.1)">
     <use xlink:href="#ArialMT-31"/>
    </g>
   </g>
   <g id="text_105">
    <!-- 1 -->
    <g style="fill: #262626" transform="translate(127.013432 447.109862) scale(0.1 -0.1)">
     <use xlink:href="#ArialMT-31"/>
    </g>
   </g>
   <g id="text_106">
    <!-- 0 -->
    <g style="fill: #262626" transform="translate(127.013432 464.95985) scale(0.1 -0.1)">
     <use xlink:href="#ArialMT-30"/>
    </g>
   </g>
   <g id="text_107">
    <!-- 1 -->
    <g style="fill: #262626" transform="translate(127.013432 482.809838) scale(0.1 -0.1)">
     <use xlink:href="#ArialMT-31"/>
    </g>
   </g>
   <g id="text_108">
    <!-- 1 -->
    <g style="fill: #262626" transform="translate(127.013432 500.659826) scale(0.1 -0.1)">
     <use xlink:href="#ArialMT-31"/>
    </g>
   </g>
   <g id="text_109">
    <!-- 0 -->
    <g style="fill: #262626" transform="translate(127.013432 518.509814) scale(0.1 -0.1)">
     <use xlink:href="#ArialMT-30"/>
    </g>
   </g>
   <g id="text_110">
    <!-- 1 -->
    <g style="fill: #262626" transform="translate(127.013432 536.359802) scale(0.1 -0.1)">
     <use xlink:href="#ArialMT-31"/>
    </g>
   </g>
   <g id="text_111">
    <!-- 0 -->
    <g style="fill: #262626" transform="translate(127.013432 554.20979) scale(0.1 -0.1)">
     <use xlink:href="#ArialMT-30"/>
    </g>
   </g>
   <g id="text_112">
    <!-- 6 -->
    <g style="fill: #262626" transform="translate(127.013432 572.059778) scale(0.1 -0.1)">
     <use xlink:href="#ArialMT-36"/>
    </g>
   </g>
   <g id="text_113">
    <!-- 0 -->
    <g style="fill: #262626" transform="translate(127.013432 589.909766) scale(0.1 -0.1)">
     <use xlink:href="#ArialMT-30"/>
    </g>
   </g>
   <g id="text_114">
    <!-- 0 -->
    <g style="fill: #262626" transform="translate(127.013432 607.759754) scale(0.1 -0.1)">
     <use xlink:href="#ArialMT-30"/>
    </g>
   </g>
   <g id="text_115">
    <!-- 0 -->
    <g style="fill: #262626" transform="translate(127.013432 625.609742) scale(0.1 -0.1)">
     <use xlink:href="#ArialMT-30"/>
    </g>
   </g>
   <g id="text_116">
    <!-- 0 -->
    <g style="fill: #262626" transform="translate(127.013432 643.45973) scale(0.1 -0.1)">
     <use xlink:href="#ArialMT-30"/>
    </g>
   </g>
   <g id="text_117">
    <!-- 4 -->
    <g style="fill: #262626" transform="translate(127.013432 661.309718) scale(0.1 -0.1)">
     <use xlink:href="#ArialMT-34"/>
    </g>
   </g>
   <g id="text_118">
    <!-- 8 -->
    <g style="fill: #262626" transform="translate(127.013432 679.159706) scale(0.1 -0.1)">
     <use xlink:href="#ArialMT-38"/>
    </g>
   </g>
   <g id="text_119">
    <!-- 4 -->
    <g style="fill: #262626" transform="translate(127.013432 697.009694) scale(0.1 -0.1)">
     <use xlink:href="#ArialMT-34"/>
    </g>
   </g>
   <g id="text_120">
    <!-- 1 -->
    <g style="fill: #262626" transform="translate(127.013432 714.859682) scale(0.1 -0.1)">
     <use xlink:href="#ArialMT-31"/>
    </g>
   </g>
  </g>
 </g>
 <defs>
  <clipPath id="ped80af77a4">
   <rect x="77.576563" y="7.2" width="30.811239" height="713.99952"/>
  </clipPath>
  <clipPath id="p260e2fa5fe">
   <rect x="114.388281" y="7.2" width="30.811239" height="713.99952"/>
  </clipPath>
 </defs>
</svg>
