<?xml version="1.0" encoding="utf-8" standalone="no"?>
<!DOCTYPE svg PUBLIC "-//W3C//DTD SVG 1.1//EN"
  "http://www.w3.org/Graphics/SVG/1.1/DTD/svg11.dtd">
<svg xmlns:xlink="http://www.w3.org/1999/xlink" width="152.39952pt" height="224.39952pt" viewBox="0 0 152.39952 224.39952" xmlns="http://www.w3.org/2000/svg" version="1.1">
 <metadata>
  <rdf:RDF xmlns:dc="http://purl.org/dc/elements/1.1/" xmlns:cc="http://creativecommons.org/ns#" xmlns:rdf="http://www.w3.org/1999/02/22-rdf-syntax-ns#">
   <cc:Work>
    <dc:type rdf:resource="http://purl.org/dc/dcmitype/StillImage"/>
    <dc:date>2026-05-25T11:55:50.905151</dc:date>
    <dc:format>image/svg+xml</dc:format>
    <dc:creator>
     <cc:Agent>
      <dc:title>Matplotlib v3.7.3, https://matplotlib.org/</dc:title>
     </cc:Agent>
    </dc:creator>
   </cc:Work>
  </rdf:RDF>
 </metadata>
 <defs>
  <style type="text/css">*{stroke-linejoin: round; stroke-linecap: butt}</style>
 </defs>
 <g id="figure_1">
  <g id="patch_1">
   <path d="M 0 224.39952 
L 152.39952 224.39952 
L 152.39952 0 
L 0 0 
L 0 224.39952 
z
" style="fill: none"/>
  </g>
  <g id="axes_1">
   <g id="patch_2">
    <path d="M 72.567188 217.19952 
L 105.883114 217.19952 
L 105.883114 7.2 
L 72.567188 7.2 
L 72.567188 217.19952 
z
" style="fill: none"/>
   </g>
   <g id="QuadMesh_1">
    <path d="M 72.567188 7.2 
L 105.883114 7.2 
L 105.883114 24.69996 
L 72.567188 24.69996 
L 72.567188 7.2 
" clip-path="url(#p93c53c889b)" style="fill: #ffffff"/>
    <path d="M 72.567188 24.69996 
L 105.883114 24.69996 
L 105.883114 42.19992 
L 72.567188 42.19992 
L 72.567188 24.69996 
" clip-path="url(#p93c53c889b)" style="fill: #eaf1f7"/>
    <path d="M 72.567188 42.19992 
L 105.883114 42.19992 
L 105.883114 59.69988 
L 72.567188 59.69988 
L 72.567188 42.19992 
" clip-path="url(#p93c53c889b)" style="fill: #eaf1f7"/>
    <path d="M 72.567188 59.69988 
L 105.883114 59.69988 
L 105.883114 77.19984 
L 72.567188 77.19984 
L 72.567188 59.69988 
" clip-path="url(#p93c53c889b)" style="fill: #eaf1f7"/>
    <path d="M 72.567188 77.19984 
L 105.883114 77.19984 
L 105.883114 94.6998 
L 72.567188 94.6998 
L 72.567188 77.19984 
" clip-path="url(#p93c53c889b)" style="fill: #ffffff"/>
    <path d="M 72.567188 94.6998 
L 105.883114 94.6998 
L 105.883114 112.19976 
L 72.567188 112.19976 
L 72.567188 94.6998 
" clip-path="url(#p93c53c889b)" style="fill: #ffffff"/>
    <path d="M 72.567188 112.19976 
L 105.883114 112.19976 
L 105.883114 129.69972 
L 72.567188 129.69972 
L 72.567188 112.19976 
" clip-path="url(#p93c53c889b)" style="fill: #ffffff"/>
    <path d="M 72.567188 129.69972 
L 105.883114 129.69972 
L 105.883114 147.19968 
L 72.567188 147.19968 
L 72.567188 129.69972 
" clip-path="url(#p93c53c889b)" style="fill: #ffffff"/>
    <path d="M 72.567188 147.19968 
L 105.883114 147.19968 
L 105.883114 164.69964 
L 72.567188 164.69964 
L 72.567188 147.19968 
" clip-path="url(#p93c53c889b)" style="fill: #ffffff"/>
    <path d="M 72.567188 164.69964 
L 105.883114 164.69964 
L 105.883114 182.1996 
L 72.567188 182.1996 
L 72.567188 164.69964 
" clip-path="url(#p93c53c889b)" style="fill: #4681b3"/>
    <path d="M 72.567188 182.1996 
L 105.883114 182.1996 
L 105.883114 199.69956 
L 72.567188 199.69956 
L 72.567188 182.1996 
" clip-path="url(#p93c53c889b)" style="fill: #ffffff"/>
    <path d="M 72.567188 199.69956 
L 105.883114 199.69956 
L 105.883114 217.19952 
L 72.567188 217.19952 
L 72.567188 199.69956 
" clip-path="url(#p93c53c889b)" style="fill: #ffffff"/>
   </g>
   <g id="matplotlib.axis_1"/>
   <g id="matplotlib.axis_2">
    <g id="ytick_1">
     <g id="line2d_1">
      <defs>
       <path id="m7cb9974b37" d="M 0 0 
L -3.5 0 
" style="stroke: #000000; stroke-width: 0.8"/>
      </defs>
      <g>
       <use xlink:href="#m7cb9974b37" x="72.567188" y="15.94998" style="stroke: #000000; stroke-width: 0.8"/>
      </g>
     </g>
     <g id="text_1">
      <text style="font: 10px 'Arial', sans-serif; text-anchor: end" x="65.567188" y="18.535136" transform="rotate(-0 65.567188 18.535136)">DBS1</text>
     </g>
    </g>
    <g id="ytick_2">
     <g id="line2d_2">
      <g>
       <use xlink:href="#m7cb9974b37" x="72.567188" y="33.44994" style="stroke: #000000; stroke-width: 0.8"/>
      </g>
     </g>
     <g id="text_2">
      <text style="font: 10px 'Arial', sans-serif; text-anchor: end" x="65.567188" y="36.035096" transform="rotate(-0 65.567188 36.035096)">DBS2</text>
     </g>
    </g>
    <g id="ytick_3">
     <g id="line2d_3">
      <g>
       <use xlink:href="#m7cb9974b37" x="72.567188" y="50.9499" style="stroke: #000000; stroke-width: 0.8"/>
      </g>
     </g>
     <g id="text_3">
      <text style="font: 10px 'Arial', sans-serif; text-anchor: end" x="65.567188" y="53.535056" transform="rotate(-0 65.567188 53.535056)">DBS4</text>
     </g>
    </g>
    <g id="ytick_4">
     <g id="line2d_4">
      <g>
       <use xlink:href="#m7cb9974b37" x="72.567188" y="68.44986" style="stroke: #000000; stroke-width: 0.8"/>
      </g>
     </g>
     <g id="text_4">
      <text style="font: 10px 'Arial', sans-serif; text-anchor: end" x="65.567188" y="71.035016" transform="rotate(-0 65.567188 71.035016)">DBS5</text>
     </g>
    </g>
    <g id="ytick_5">
     <g id="line2d_5">
      <g>
       <use xlink:href="#m7cb9974b37" x="72.567188" y="85.94982" style="stroke: #000000; stroke-width: 0.8"/>
      </g>
     </g>
     <g id="text_5">
      <text style="font: 10px 'Arial', sans-serif; text-anchor: end" x="65.567188" y="88.534976" transform="rotate(-0 65.567188 88.534976)">DBS6</text>
     </g>
    </g>
    <g id="ytick_6">
     <g id="line2d_6">
      <g>
       <use xlink:href="#m7cb9974b37" x="72.567188" y="103.44978" style="stroke: #000000; stroke-width: 0.8"/>
      </g>
     </g>
     <g id="text_6">
      <text style="font: 10px 'Arial', sans-serif; text-anchor: end" x="65.567188" y="106.034936" transform="rotate(-0 65.567188 106.034936)">DBS7</text>
     </g>
    </g>
    <g id="ytick_7">
     <g id="line2d_7">
      <g>
       <use xlink:href="#m7cb9974b37" x="72.567188" y="120.94974" style="stroke: #000000; stroke-width: 0.8"/>
      </g>
     </g>
     <g id="text_7">
      <text style="font: 10px 'Arial', sans-serif; text-anchor: end" x="65.567188" y="123.534896" transform="rotate(-0 65.567188 123.534896)">DBS9</text>
     </g>
    </g>
    <g id="ytick_8">
     <g id="line2d_8">
      <g>
       <use xlink:href="#m7cb9974b37" x="72.567188" y="138.4497" style="stroke: #000000; stroke-width: 0.8"/>
      </g>
     </g>
     <g id="text_8">
      <text style="font: 10px 'Arial', sans-serif; text-anchor: end" x="65.567188" y="141.034856" transform="rotate(-0 65.567188 141.034856)">DBS10</text>
     </g>
    </g>
    <g id="ytick_9">
     <g id="line2d_9">
      <g>
       <use xlink:href="#m7cb9974b37" x="72.567188" y="155.94966" style="stroke: #000000; stroke-width: 0.8"/>
      </g>
     </g>
     <g id="text_9">
      <text style="font: 10px 'Arial', sans-serif; text-anchor: end" x="65.567188" y="158.534816" transform="rotate(-0 65.567188 158.534816)">DBS11</text>
     </g>
    </g>
    <g id="ytick_10">
     <g id="line2d_10">
      <g>
       <use xlink:href="#m7cb9974b37" x="72.567188" y="173.44962" style="stroke: #000000; stroke-width: 0.8"/>
      </g>
     </g>
     <g id="text_10">
      <text style="font: 10px 'Arial', sans-serif; text-anchor: end" x="65.567188" y="176.034776" transform="rotate(-0 65.567188 176.034776)">DBS78L1/H1</text>
     </g>
    </g>
    <g id="ytick_11">
     <g id="line2d_11">
      <g>
       <use xlink:href="#m7cb9974b37" x="72.567188" y="190.94958" style="stroke: #000000; stroke-width: 0.8"/>
      </g>
     </g>
     <g id="text_11">
      <text style="font: 10px 'Arial', sans-serif; text-anchor: end" x="65.567188" y="193.534736" transform="rotate(-0 65.567188 193.534736)">DBS78H2</text>
     </g>
    </g>
    <g id="ytick_12">
     <g id="line2d_12">
      <g>
       <use xlink:href="#m7cb9974b37" x="72.567188" y="208.44954" style="stroke: #000000; stroke-width: 0.8"/>
      </g>
     </g>
     <g id="text_12">
      <text style="font: 10px 'Arial', sans-serif; text-anchor: end" x="65.567188" y="211.034696" transform="rotate(-0 65.567188 211.034696)">DBS78H3</text>
     </g>
    </g>
   </g>
   <g id="text_13">
    <text style="fill: #262626; font: 10px 'Arial', sans-serif; text-anchor: middle" x="89.225151" y="18.535136" transform="rotate(-0 89.225151 18.535136)">1</text>
   </g>
   <g id="text_14">
    <text style="fill: #262626; font: 10px 'Arial', sans-serif; text-anchor: middle" x="89.225151" y="36.035096" transform="rotate(-0 89.225151 36.035096)">5</text>
   </g>
   <g id="text_15">
    <text style="fill: #262626; font: 10px 'Arial', sans-serif; text-anchor: middle" x="89.225151" y="53.535056" transform="rotate(-0 89.225151 53.535056)">5</text>
   </g>
   <g id="text_16">
    <text style="fill: #262626; font: 10px 'Arial', sans-serif; text-anchor: middle" x="89.225151" y="71.035016" transform="rotate(-0 89.225151 71.035016)">5</text>
   </g>
   <g id="text_17">
    <text style="fill: #262626; font: 10px 'Arial', sans-serif; text-anchor: middle" x="89.225151" y="88.534976" transform="rotate(-0 89.225151 88.534976)">4</text>
   </g>
   <g id="text_18">
    <text style="fill: #262626; font: 10px 'Arial', sans-serif; text-anchor: middle" x="89.225151" y="106.034936" transform="rotate(-0 89.225151 106.034936)">1</text>
   </g>
   <g id="text_19">
    <text style="fill: #262626; font: 10px 'Arial', sans-serif; text-anchor: middle" x="89.225151" y="123.534896" transform="rotate(-0 89.225151 123.534896)">1</text>
   </g>
   <g id="text_20">
    <text style="fill: #262626; font: 10px 'Arial', sans-serif; text-anchor: middle" x="89.225151" y="141.034856" transform="rotate(-0 89.225151 141.034856)">1</text>
   </g>
   <g id="text_21">
    <text style="fill: #262626; font: 10px 'Arial', sans-serif; text-anchor: middle" x="89.225151" y="158.534816" transform="rotate(-0 89.225151 158.534816)">3</text>
   </g>
   <g id="text_22">
    <text style="fill: #ffffff; font: 10px 'Arial', sans-serif; text-anchor: middle" x="89.225151" y="176.034776" transform="rotate(-0 89.225151 176.034776)">32</text>
   </g>
   <g id="text_23">
    <text style="fill: #262626; font: 10px 'Arial', sans-serif; text-anchor: middle" x="89.225151" y="193.534736" transform="rotate(-0 89.225151 193.534736)">1</text>
   </g>
   <g id="text_24">
    <text style="fill: #262626; font: 10px 'Arial', sans-serif; text-anchor: middle" x="89.225151" y="211.034696" transform="rotate(-0 89.225151 211.034696)">1</text>
   </g>
  </g>
  <g id="axes_2">
   <g id="patch_3">
    <path d="M 111.883594 217.19952 
L 145.19952 217.19952 
L 145.19952 7.2 
L 111.883594 7.2 
L 111.883594 217.19952 
z
" style="fill: none"/>
   </g>
   <g id="QuadMesh_2">
    <path d="M 111.883594 7.2 
L 145.19952 7.2 
L 145.19952 24.69996 
L 111.883594 24.69996 
L 111.883594 7.2 
" clip-path="url(#pb03172a973)" style="fill: #ffdae0"/>
    <path d="M 111.883594 24.69996 
L 145.19952 24.69996 
L 145.19952 42.19992 
L 111.883594 42.19992 
L 111.883594 24.69996 
" clip-path="url(#pb03172a973)" style="fill: #ffdae0"/>
    <path d="M 111.883594 42.19992 
L 145.19952 42.19992 
L 145.19952 59.69988 
L 111.883594 59.69988 
L 111.883594 42.19992 
" clip-path="url(#pb03172a973)" style="fill: #ffced6"/>
    <path d="M 111.883594 59.69988 
L 145.19952 59.69988 
L 145.19952 77.19984 
L 111.883594 77.19984 
L 111.883594 59.69988 
" clip-path="url(#pb03172a973)" style="fill: #fff3f5"/>
    <path d="M 111.883594 77.19984 
L 145.19952 77.19984 
L 145.19952 94.6998 
L 111.883594 94.6998 
L 111.883594 77.19984 
" clip-path="url(#pb03172a973)" style="fill: #ffffff"/>
    <path d="M 111.883594 94.6998 
L 145.19952 94.6998 
L 145.19952 112.19976 
L 111.883594 112.19976 
L 111.883594 94.6998 
" clip-path="url(#pb03172a973)" style="fill: #ffffff"/>
    <path d="M 111.883594 112.19976 
L 145.19952 112.19976 
L 145.19952 129.69972 
L 111.883594 129.69972 
L 111.883594 112.19976 
" clip-path="url(#pb03172a973)" style="fill: #ffdae0"/>
    <path d="M 111.883594 129.69972 
L 145.19952 129.69972 
L 145.19952 147.19968 
L 111.883594 147.19968 
L 111.883594 129.69972 
" clip-path="url(#pb03172a973)" style="fill: #feb5c2"/>
    <path d="M 111.883594 147.19968 
L 145.19952 147.19968 
L 145.19952 164.69964 
L 111.883594 164.69964 
L 111.883594 147.19968 
" clip-path="url(#pb03172a973)" style="fill: #ffffff"/>
    <path d="M 111.883594 164.69964 
L 145.19952 164.69964 
L 145.19952 182.1996 
L 111.883594 182.1996 
L 111.883594 164.69964 
" clip-path="url(#pb03172a973)" style="fill: #fe90a3"/>
    <path d="M 111.883594 182.1996 
L 145.19952 182.1996 
L 145.19952 199.69956 
L 111.883594 199.69956 
L 111.883594 182.1996 
" clip-path="url(#pb03172a973)" style="fill: #ffced6"/>
    <path d="M 111.883594 199.69956 
L 145.19952 199.69956 
L 145.19952 217.19952 
L 111.883594 217.19952 
L 111.883594 199.69956 
" clip-path="url(#pb03172a973)" style="fill: #fe9dae"/>
   </g>
   <g id="matplotlib.axis_3"/>
   <g id="matplotlib.axis_4"/>
   <g id="text_25">
    <text style="fill: #262626; font: 10px 'Arial', sans-serif; text-anchor: middle" x="128.541557" y="18.535136" transform="rotate(-0 128.541557 18.535136)">4</text>
   </g>
   <g id="text_26">
    <text style="fill: #262626; font: 10px 'Arial', sans-serif; text-anchor: middle" x="128.541557" y="36.035096" transform="rotate(-0 128.541557 36.035096)">5</text>
   </g>
   <g id="text_27">
    <text style="fill: #262626; font: 10px 'Arial', sans-serif; text-anchor: middle" x="128.541557" y="53.535056" transform="rotate(-0 128.541557 53.535056)">6</text>
   </g>
   <g id="text_28">
    <text style="fill: #262626; font: 10px 'Arial', sans-serif; text-anchor: middle" x="128.541557" y="71.035016" transform="rotate(-0 128.541557 71.035016)">2</text>
   </g>
   <g id="text_29">
    <text style="fill: #262626; font: 10px 'Arial', sans-serif; text-anchor: middle" x="128.541557" y="88.534976" transform="rotate(-0 128.541557 88.534976)">1</text>
   </g>
   <g id="text_30">
    <text style="fill: #262626; font: 10px 'Arial', sans-serif; text-anchor: middle" x="128.541557" y="106.034936" transform="rotate(-0 128.541557 106.034936)">1</text>
   </g>
   <g id="text_31">
    <text style="fill: #262626; font: 10px 'Arial', sans-serif; text-anchor: middle" x="128.541557" y="123.534896" transform="rotate(-0 128.541557 123.534896)">4</text>
   </g>
   <g id="text_32">
    <text style="fill: #262626; font: 10px 'Arial', sans-serif; text-anchor: middle" x="128.541557" y="141.034856" transform="rotate(-0 128.541557 141.034856)">8</text>
   </g>
   <g id="text_33">
    <text style="fill: #262626; font: 10px 'Arial', sans-serif; text-anchor: middle" x="128.541557" y="158.534816" transform="rotate(-0 128.541557 158.534816)">0</text>
   </g>
   <g id="text_34">
    <text style="fill: #262626; font: 10px 'Arial', sans-serif; text-anchor: middle" x="128.541557" y="176.034776" transform="rotate(-0 128.541557 176.034776)">13</text>
   </g>
   <g id="text_35">
    <text style="fill: #262626; font: 10px 'Arial', sans-serif; text-anchor: middle" x="128.541557" y="193.534736" transform="rotate(-0 128.541557 193.534736)">6</text>
   </g>
   <g id="text_36">
    <text style="fill: #262626; font: 10px 'Arial', sans-serif; text-anchor: middle" x="128.541557" y="211.034696" transform="rotate(-0 128.541557 211.034696)">11</text>
   </g>
  </g>
 </g>
 <defs>
  <clipPath id="p93c53c889b">
   <rect x="72.567188" y="7.2" width="33.315926" height="209.99952"/>
  </clipPath>
  <clipPath id="pb03172a973">
   <rect x="111.883594" y="7.2" width="33.315926" height="209.99952"/>
  </clipPath>
 </defs>
</svg>
