<?xml version="1.0" encoding="utf-8" standalone="no"?>
<!DOCTYPE svg PUBLIC "-//W3C//DTD SVG 1.1//EN"
  "http://www.w3.org/Graphics/SVG/1.1/DTD/svg11.dtd">
<svg xmlns:xlink="http://www.w3.org/1999/xlink" width="881.78985pt" height="854.666839pt" viewBox="0 0 881.78985 854.666839" xmlns="http://www.w3.org/2000/svg" version="1.1">
 <metadata>
  <rdf:RDF xmlns:dc="http://purl.org/dc/elements/1.1/" xmlns:cc="http://creativecommons.org/ns#" xmlns:rdf="http://www.w3.org/1999/02/22-rdf-syntax-ns#">
   <cc:Work>
    <dc:type rdf:resource="http://purl.org/dc/dcmitype/StillImage"/>
    <dc:date>2026-05-25T10:59:06.100799</dc:date>
    <dc:format>image/svg+xml</dc:format>
    <dc:creator>
     <cc:Agent>
      <dc:title>Matplotlib v3.7.3, https://matplotlib.org/</dc:title>
     </cc:Agent>
    </dc:creator>
   </cc:Work>
  </rdf:RDF>
 </metadata>
 <defs>
  <style type="text/css">*{stroke-linejoin: round; stroke-linecap: butt}</style>
 </defs>
 <g id="figure_1">
  <g id="patch_1">
   <path d="M 0 854.666839 
L 881.78985 854.666839 
L 881.78985 0 
L 0 0 
L 0 854.666839 
z
" style="fill: none"/>
  </g>
  <g id="axes_1">
   <g id="patch_2">
    <path d="M 108.77985 436.990649 
L 346.457978 436.990649 
L 346.457978 79.0605 
L 108.77985 79.0605 
L 108.77985 436.990649 
z
" style="fill: none"/>
   </g>
   <g id="matplotlib.axis_1">
    <g id="xtick_1"/>
   </g>
   <g id="matplotlib.axis_2">
    <g id="ytick_1">
     <g id="text_1">
      <text style="fill: #262626; font: 24px 'Arial', 'DejaVu Sans', 'Liberation Sans', 'Bitstream Vera Sans', sans-serif; text-anchor: end" x="99.27985" y="435.430907" transform="rotate(-0 99.27985 435.430907)">−5</text>
     </g>
    </g>
    <g id="ytick_2">
     <g id="text_2">
      <text style="fill: #262626; font: 24px 'Arial', 'DejaVu Sans', 'Liberation Sans', 'Bitstream Vera Sans', sans-serif; text-anchor: end" x="99.27985" y="382.736811" transform="rotate(-0 99.27985 382.736811)">0</text>
     </g>
    </g>
    <g id="ytick_3">
     <g id="text_3">
      <text style="fill: #262626; font: 24px 'Arial', 'DejaVu Sans', 'Liberation Sans', 'Bitstream Vera Sans', sans-serif; text-anchor: end" x="99.27985" y="330.042715" transform="rotate(-0 99.27985 330.042715)">5</text>
     </g>
    </g>
    <g id="ytick_4">
     <g id="text_4">
      <text style="fill: #262626; font: 24px 'Arial', 'DejaVu Sans', 'Liberation Sans', 'Bitstream Vera Sans', sans-serif; text-anchor: end" x="99.27985" y="277.34862" transform="rotate(-0 99.27985 277.34862)">10</text>
     </g>
    </g>
    <g id="ytick_5">
     <g id="text_5">
      <text style="fill: #262626; font: 24px 'Arial', 'DejaVu Sans', 'Liberation Sans', 'Bitstream Vera Sans', sans-serif; text-anchor: end" x="99.27985" y="224.654524" transform="rotate(-0 99.27985 224.654524)">15</text>
     </g>
    </g>
    <g id="ytick_6">
     <g id="text_6">
      <text style="fill: #262626; font: 24px 'Arial', 'DejaVu Sans', 'Liberation Sans', 'Bitstream Vera Sans', sans-serif; text-anchor: end" x="99.27985" y="171.960428" transform="rotate(-0 99.27985 171.960428)">20</text>
     </g>
    </g>
    <g id="ytick_7">
     <g id="text_7">
      <text style="fill: #262626; font: 24px 'Arial', 'DejaVu Sans', 'Liberation Sans', 'Bitstream Vera Sans', sans-serif; text-anchor: end" x="99.27985" y="119.266332" transform="rotate(-0 99.27985 119.266332)">25</text>
     </g>
    </g>
    <g id="text_8">
     <text style="fill: #262626; font: 34px 'Arial', 'DejaVu Sans', 'Liberation Sans', 'Bitstream Vera Sans', sans-serif; text-anchor: middle" x="60.760163" y="258.025575" transform="rotate(-90 60.760163 258.025575)">Expression (log2)</text>
    </g>
   </g>
   <g id="PolyCollection_1">
    <defs>
     <path id="madb2b73b20" d="M 238.383415 -431.183301 
L 216.854413 -431.183301 
L 214.461823 -433.646616 
L 211.690395 -436.109931 
L 208.517957 -438.573246 
L 204.929929 -441.036562 
L 200.921279 -443.499877 
L 196.498344 -445.963192 
L 191.68037 -448.426507 
L 186.500644 -450.889822 
L 181.007073 -453.353138 
L 175.262121 -455.816453 
L 169.342012 -458.279768 
L 163.335166 -460.743083 
L 157.339884 -463.206399 
L 151.461358 -465.669714 
L 145.808099 -468.133029 
L 140.487986 -470.596344 
L 135.604111 -473.05966 
L 131.250667 -475.522975 
L 127.509113 -477.98629 
L 124.444835 -480.449605 
L 122.104522 -482.91292 
L 120.514391 -485.376236 
L 119.679392 -487.839551 
L 119.583401 -490.302866 
L 120.190414 -492.766181 
L 121.446622 -495.229497 
L 123.283244 -497.692812 
L 125.619937 -500.156127 
L 128.368555 -502.619442 
L 131.437047 -505.082757 
L 134.73326 -507.546073 
L 138.168454 -510.009388 
L 141.660346 -512.472703 
L 145.135557 -514.936018 
L 148.531366 -517.399334 
L 151.796739 -519.862649 
L 154.892641 -522.325964 
L 157.791678 -524.789279 
L 160.477161 -527.252594 
L 162.941722 -529.71591 
L 165.185597 -532.179225 
L 167.21475 -534.64254 
L 169.038968 -537.105855 
L 170.670078 -539.569171 
L 172.120392 -542.032486 
L 173.401483 -544.495801 
L 174.523356 -546.959116 
L 175.494035 -549.422432 
L 176.319559 -551.885747 
L 177.004367 -554.349062 
L 177.551976 -556.812377 
L 177.965887 -559.275692 
L 178.250609 -561.739008 
L 178.412679 -564.202323 
L 178.461585 -566.665638 
L 178.410493 -569.128953 
L 178.276698 -571.592269 
L 178.081742 -574.055584 
L 177.851195 -576.518899 
L 177.614072 -578.982214 
L 177.401958 -581.445529 
L 177.247859 -583.908845 
L 177.184894 -586.37216 
L 177.244884 -588.835475 
L 177.456963 -591.29879 
L 177.846275 -593.762106 
L 178.432866 -596.225421 
L 179.230813 -598.688736 
L 180.247654 -601.152051 
L 181.484142 -603.615366 
L 182.934316 -606.078682 
L 184.585879 -608.541997 
L 186.420847 -611.005312 
L 188.41641 -613.468627 
L 190.545953 -615.931943 
L 192.780168 -618.395258 
L 195.088197 -620.858573 
L 197.438741 -623.321888 
L 199.801096 -625.785204 
L 202.146058 -628.248519 
L 204.446687 -630.711834 
L 206.678907 -633.175149 
L 208.821926 -635.638464 
L 210.858502 -638.10178 
L 212.775041 -640.565095 
L 214.561568 -643.02841 
L 216.211575 -645.491725 
L 217.721781 -647.955041 
L 219.091819 -650.418356 
L 220.323875 -652.881671 
L 221.422302 -655.344986 
L 222.393219 -657.808301 
L 223.244122 -660.271617 
L 223.983508 -662.734932 
L 224.620529 -665.198247 
L 225.164678 -667.661562 
L 225.625513 -670.124878 
L 226.012429 -672.588193 
L 226.334468 -675.051508 
L 228.90336 -675.051508 
L 228.90336 -675.051508 
L 229.225399 -672.588193 
L 229.612316 -670.124878 
L 230.073151 -667.661562 
L 230.617299 -665.198247 
L 231.25432 -662.734932 
L 231.993706 -660.271617 
L 232.844609 -657.808301 
L 233.815526 -655.344986 
L 234.913953 -652.881671 
L 236.146009 -650.418356 
L 237.516048 -647.955041 
L 239.026254 -645.491725 
L 240.676261 -643.02841 
L 242.462787 -640.565095 
L 244.379326 -638.10178 
L 246.415902 -635.638464 
L 248.558922 -633.175149 
L 250.791141 -630.711834 
L 253.091771 -628.248519 
L 255.436732 -625.785204 
L 257.799087 -623.321888 
L 260.149632 -620.858573 
L 262.45766 -618.395258 
L 264.691875 -615.931943 
L 266.821418 -613.468627 
L 268.816981 -611.005312 
L 270.651949 -608.541997 
L 272.303512 -606.078682 
L 273.753686 -603.615366 
L 274.990174 -601.152051 
L 276.007016 -598.688736 
L 276.804962 -596.225421 
L 277.391553 -593.762106 
L 277.780865 -591.29879 
L 277.992944 -588.835475 
L 278.052934 -586.37216 
L 277.989969 -583.908845 
L 277.83587 -581.445529 
L 277.623756 -578.982214 
L 277.386634 -576.518899 
L 277.156086 -574.055584 
L 276.961131 -571.592269 
L 276.827335 -569.128953 
L 276.776243 -566.665638 
L 276.825149 -564.202323 
L 276.987219 -561.739008 
L 277.271941 -559.275692 
L 277.685853 -556.812377 
L 278.233461 -554.349062 
L 278.918269 -551.885747 
L 279.743794 -549.422432 
L 280.714472 -546.959116 
L 281.836346 -544.495801 
L 283.117437 -542.032486 
L 284.56775 -539.569171 
L 286.19886 -537.105855 
L 288.023078 -534.64254 
L 290.052231 -532.179225 
L 292.296106 -529.71591 
L 294.760667 -527.252594 
L 297.446151 -524.789279 
L 300.345187 -522.325964 
L 303.441089 -519.862649 
L 306.706462 -517.399334 
L 310.102271 -514.936018 
L 313.577482 -512.472703 
L 317.069375 -510.009388 
L 320.504569 -507.546073 
L 323.800781 -505.082757 
L 326.869273 -502.619442 
L 329.617891 -500.156127 
L 331.954585 -497.692812 
L 333.791207 -495.229497 
L 335.047414 -492.766181 
L 335.654427 -490.302866 
L 335.558437 -487.839551 
L 334.723437 -485.376236 
L 333.133307 -482.91292 
L 330.792993 -480.449605 
L 327.728716 -477.98629 
L 323.987161 -475.522975 
L 319.633718 -473.05966 
L 314.749842 -470.596344 
L 309.429729 -468.133029 
L 303.776471 -465.669714 
L 297.897944 -463.206399 
L 291.902663 -460.743083 
L 285.895816 -458.279768 
L 279.975707 -455.816453 
L 274.230756 -453.353138 
L 268.737185 -450.889822 
L 263.557458 -448.426507 
L 258.739485 -445.963192 
L 254.31655 -443.499877 
L 250.3079 -441.036562 
L 246.719871 -438.573246 
L 243.547433 -436.109931 
L 240.776005 -433.646616 
L 238.383415 -431.183301 
z
" style="stroke: #6c6c6c; stroke-width: 1.25"/>
    </defs>
    <g clip-path="url(#p43c90f341d)">
     <use xlink:href="#madb2b73b20" x="0" y="854.666839" style="fill: #d98e96; stroke: #6c6c6c; stroke-width: 1.25"/>
    </g>
   </g>
   <g id="patch_3">
    <path d="M 200.610036 374.147436 
L 254.627792 374.147436 
L 254.627792 289.60779 
L 200.610036 289.60779 
L 200.610036 374.147436 
L 200.610036 374.147436 
z
" clip-path="url(#p43c90f341d)" style="fill: none; stroke: #4c4c4c; stroke-width: 2; stroke-linejoin: miter"/>
   </g>
   <g id="line2d_1">
    <path d="M 227.618914 374.147436 
L 227.618914 374.147436 
" clip-path="url(#p43c90f341d)" style="fill: none; stroke: #4c4c4c; stroke-width: 2"/>
   </g>
   <g id="line2d_2">
    <path d="M 227.618914 289.60779 
L 227.618914 228.951434 
" clip-path="url(#p43c90f341d)" style="fill: none; stroke: #4c4c4c; stroke-width: 2"/>
   </g>
   <g id="line2d_3">
    <path d="M 214.114475 374.147436 
L 241.123353 374.147436 
" clip-path="url(#p43c90f341d)" style="fill: none; stroke: #4c4c4c; stroke-linecap: round"/>
   </g>
   <g id="line2d_4">
    <path d="M 214.114475 228.951434 
L 241.123353 228.951434 
" clip-path="url(#p43c90f341d)" style="fill: none; stroke: #4c4c4c; stroke-linecap: round"/>
   </g>
   <g id="line2d_5"/>
   <g id="line2d_6">
    <path d="M 108.77985 374.147436 
L 346.457978 374.147436 
" clip-path="url(#p43c90f341d)" style="fill: none; stroke-dasharray: 2.96,1.28; stroke-dashoffset: 0; stroke: #808080; stroke-width: 0.8"/>
   </g>
   <g id="line2d_7">
    <path d="M 227.618914 152.832234 
L 227.618914 147.562824 
" style="fill: none; stroke: #000000; stroke-width: 1.5; stroke-linecap: round"/>
   </g>
   <g id="line2d_8">
    <path d="M 227.618914 121.215777 
L 227.618914 115.946367 
" style="fill: none; stroke: #000000; stroke-width: 1.5; stroke-linecap: round"/>
   </g>
   <g id="line2d_9">
    <path d="M 200.610036 349.677056 
L 254.627792 349.677056 
" clip-path="url(#p43c90f341d)" style="fill: none; stroke: #4c4c4c"/>
   </g>
   <g id="patch_4">
    <path d="M 108.77985 436.990649 
L 108.77985 79.0605 
" style="fill: none; stroke: #cccccc; stroke-width: 1.25; stroke-linejoin: miter; stroke-linecap: square"/>
   </g>
   <g id="patch_5">
    <path d="M 108.77985 436.990649 
L 346.457978 436.990649 
" style="fill: none; stroke: #cccccc; stroke-width: 1.25; stroke-linejoin: miter; stroke-linecap: square"/>
   </g>
   <g id="PathCollection_1">
    <defs>
     <path id="C0_0_59c3f59872" d="M 0 5 
C 1.326016 5 2.597899 4.473168 3.535534 3.535534 
C 4.473168 2.597899 5 1.326016 5 -0 
C 5 -1.326016 4.473168 -2.597899 3.535534 -3.535534 
C 2.597899 -4.473168 1.326016 -5 0 -5 
C -1.326016 -5 -2.597899 -4.473168 -3.535534 -3.535534 
C -4.473168 -2.597899 -5 -1.326016 -5 0 
C -5 1.326016 -4.473168 2.597899 -3.535534 3.535534 
C -2.597899 4.473168 -1.326016 5 0 5 
z
"/>
    </defs>
    <g clip-path="url(#p43c90f341d)">
     <use xlink:href="#C0_0_59c3f59872" x="224.53758" y="248.962767" style="fill: none; stroke: #000000"/>
    </g>
    <g clip-path="url(#p43c90f341d)">
     <use xlink:href="#C0_0_59c3f59872" x="228.12387" y="279.873021" style="fill: none; stroke: #000000"/>
    </g>
    <g clip-path="url(#p43c90f341d)">
     <use xlink:href="#C0_0_59c3f59872" x="239.134615" y="334.022411" style="fill: none; stroke: #000000"/>
    </g>
    <g clip-path="url(#p43c90f341d)">
     <use xlink:href="#C0_0_59c3f59872" x="250.832316" y="374.147436" style="fill: none; stroke: #000000"/>
    </g>
    <g clip-path="url(#p43c90f341d)">
     <use xlink:href="#C0_0_59c3f59872" x="242.388652" y="228.951434" style="fill: none; stroke: #000000"/>
    </g>
    <g clip-path="url(#p43c90f341d)">
     <use xlink:href="#C0_0_59c3f59872" x="206.313376" y="246.596531" style="fill: none; stroke: #000000"/>
    </g>
    <g clip-path="url(#p43c90f341d)">
     <use xlink:href="#C0_0_59c3f59872" x="209.777974" y="307.521779" style="fill: none; stroke: #000000"/>
    </g>
    <g clip-path="url(#p43c90f341d)">
     <use xlink:href="#C0_0_59c3f59872" x="238.531397" y="344.56123" style="fill: none; stroke: #000000"/>
    </g>
    <g clip-path="url(#p43c90f341d)">
     <use xlink:href="#C0_0_59c3f59872" x="251.265956" y="256.363768" style="fill: none; stroke: #000000"/>
    </g>
    <g clip-path="url(#p43c90f341d)">
     <use xlink:href="#C0_0_59c3f59872" x="246.719386" y="299.34256" style="fill: none; stroke: #000000"/>
    </g>
    <g clip-path="url(#p43c90f341d)">
     <use xlink:href="#C0_0_59c3f59872" x="243.417243" y="261.626165" style="fill: none; stroke: #000000"/>
    </g>
    <g clip-path="url(#p43c90f341d)">
     <use xlink:href="#C0_0_59c3f59872" x="223.871488" y="374.147436" style="fill: none; stroke: #000000"/>
    </g>
    <g clip-path="url(#p43c90f341d)">
     <use xlink:href="#C0_0_59c3f59872" x="234.053908" y="374.147436" style="fill: none; stroke: #000000"/>
    </g>
    <g clip-path="url(#p43c90f341d)">
     <use xlink:href="#C0_0_59c3f59872" x="254.501489" y="374.147436" style="fill: none; stroke: #000000"/>
    </g>
    <g clip-path="url(#p43c90f341d)">
     <use xlink:href="#C0_0_59c3f59872" x="206.577772" y="374.147436" style="fill: none; stroke: #000000"/>
    </g>
    <g clip-path="url(#p43c90f341d)">
     <use xlink:href="#C0_0_59c3f59872" x="202.572985" y="353.069798" style="fill: none; stroke: #000000"/>
    </g>
    <g clip-path="url(#p43c90f341d)">
     <use xlink:href="#C0_0_59c3f59872" x="209.054124" y="349.677056" style="fill: none; stroke: #000000"/>
    </g>
    <g clip-path="url(#p43c90f341d)">
     <use xlink:href="#C0_0_59c3f59872" x="206.483616" y="353.069798" style="fill: none; stroke: #000000"/>
    </g>
    <g clip-path="url(#p43c90f341d)">
     <use xlink:href="#C0_0_59c3f59872" x="252.019086" y="315.288526" style="fill: none; stroke: #000000"/>
    </g>
    <g clip-path="url(#p43c90f341d)">
     <use xlink:href="#C0_0_59c3f59872" x="202.208971" y="264.145855" style="fill: none; stroke: #000000"/>
    </g>
    <g clip-path="url(#p43c90f341d)">
     <use xlink:href="#C0_0_59c3f59872" x="239.410752" y="363.608617" style="fill: none; stroke: #000000"/>
    </g>
    <g clip-path="url(#p43c90f341d)">
     <use xlink:href="#C0_0_59c3f59872" x="241.282336" y="374.147436" style="fill: none; stroke: #000000"/>
    </g>
    <g clip-path="url(#p43c90f341d)">
     <use xlink:href="#C0_0_59c3f59872" x="249.73771" y="374.147436" style="fill: none; stroke: #000000"/>
    </g>
    <g clip-path="url(#p43c90f341d)">
     <use xlink:href="#C0_0_59c3f59872" x="210.278778" y="374.147436" style="fill: none; stroke: #000000"/>
    </g>
    <g clip-path="url(#p43c90f341d)">
     <use xlink:href="#C0_0_59c3f59872" x="217.25827" y="374.147436" style="fill: none; stroke: #000000"/>
    </g>
    <g clip-path="url(#p43c90f341d)">
     <use xlink:href="#C0_0_59c3f59872" x="252.842128" y="374.147436" style="fill: none; stroke: #000000"/>
    </g>
    <g clip-path="url(#p43c90f341d)">
     <use xlink:href="#C0_0_59c3f59872" x="226.655831" y="374.147436" style="fill: none; stroke: #000000"/>
    </g>
    <g clip-path="url(#p43c90f341d)">
     <use xlink:href="#C0_0_59c3f59872" x="233.890499" y="266.915734" style="fill: none; stroke: #000000"/>
    </g>
    <g clip-path="url(#p43c90f341d)">
     <use xlink:href="#C0_0_59c3f59872" x="217.197221" y="319.245949" style="fill: none; stroke: #000000"/>
    </g>
    <g clip-path="url(#p43c90f341d)">
     <use xlink:href="#C0_0_59c3f59872" x="203.133911" y="311.153964" style="fill: none; stroke: #000000"/>
    </g>
    <g clip-path="url(#p43c90f341d)">
     <use xlink:href="#C0_0_59c3f59872" x="252.900251" y="363.608617" style="fill: none; stroke: #000000"/>
    </g>
   </g>
   <g id="text_9">
    <text style="fill: #262626; font: 26px 'Arial', 'DejaVu Sans', 'Liberation Sans', 'Bitstream Vera Sans', sans-serif; text-anchor: end" x="362.663305" y="138.928991" transform="rotate(-0 362.663305 138.928991)">padj = 0.0108</text>
   </g>
   <g id="text_10">
    <text style="fill: #262626; font: 36px 'Arial', 'DejaVu Sans', 'Liberation Sans', 'Bitstream Vera Sans', sans-serif" transform="translate(135.056727 33.406875)">Signature +</text>
    <text style="fill: #262626; font: 36px 'Arial', 'DejaVu Sans', 'Liberation Sans', 'Bitstream Vera Sans', sans-serif" transform="translate(129.063289 71.9055)">&gt; thresholds</text>
   </g>
  </g>
  <g id="axes_2">
   <g id="patch_6">
    <path d="M 372.845786 436.990649 
L 610.523914 436.990649 
L 610.523914 79.0605 
L 372.845786 79.0605 
L 372.845786 436.990649 
z
" style="fill: none"/>
   </g>
   <g id="matplotlib.axis_3">
    <g id="xtick_2"/>
   </g>
   <g id="matplotlib.axis_4">
    <g id="ytick_8"/>
    <g id="ytick_9"/>
    <g id="ytick_10"/>
    <g id="ytick_11"/>
    <g id="ytick_12"/>
    <g id="ytick_13"/>
    <g id="ytick_14"/>
   </g>
   <g id="PolyCollection_2">
    <defs>
     <path id="m9c3324731f" d="M 503.95801 -433.606291 
L 479.41169 -433.606291 
L 476.279047 -436.310525 
L 472.595363 -439.01476 
L 468.333963 -441.718995 
L 463.486014 -444.423229 
L 458.064714 -447.127464 
L 452.108774 -449.831698 
L 445.684769 -452.535933 
L 438.887985 -455.240167 
L 431.841439 -457.944402 
L 424.692892 -460.648636 
L 417.609855 -463.352871 
L 410.772766 -466.057105 
L 404.366705 -468.76134 
L 398.572199 -471.465574 
L 393.555778 -474.169809 
L 389.461027 -476.874043 
L 386.400847 -479.578278 
L 384.451562 -482.282512 
L 383.649337 -484.986747 
L 383.989196 -487.690981 
L 385.426637 -490.395216 
L 387.88166 -493.09945 
L 391.244776 -495.803685 
L 395.384428 -498.507919 
L 400.155156 -501.212154 
L 405.405822 -503.916388 
L 410.987268 -506.620623 
L 416.758903 -509.324858 
L 422.59384 -512.029092 
L 428.382412 -514.733327 
L 434.034046 -517.437561 
L 439.477623 -520.141796 
L 444.660584 -522.84603 
L 449.547077 -525.550265 
L 454.115518 -528.254499 
L 458.355871 -530.958734 
L 462.266944 -533.662968 
L 465.85392 -536.367203 
L 469.126269 -539.071437 
L 472.096097 -541.775672 
L 474.776964 -544.479906 
L 477.183091 -547.184141 
L 479.328912 -549.888375 
L 481.228857 -552.59261 
L 482.897276 -555.296844 
L 484.348435 -558.001079 
L 485.596508 -560.705313 
L 486.655535 -563.409548 
L 487.539331 -566.113782 
L 488.261348 -568.818017 
L 488.834501 -571.522251 
L 489.271005 -574.226486 
L 489.582224 -576.930721 
L 489.778589 -579.634955 
L 489.869574 -582.33919 
L 489.863765 -585.043424 
L 489.769008 -587.747659 
L 489.592622 -590.451893 
L 489.341669 -593.156128 
L 489.023233 -595.860362 
L 488.644707 -598.564597 
L 488.214025 -601.268831 
L 487.739842 -603.973066 
L 487.23162 -606.6773 
L 486.699629 -609.381535 
L 486.154851 -612.085769 
L 485.608792 -614.790004 
L 485.073234 -617.494238 
L 484.559937 -620.198473 
L 484.080319 -622.902707 
L 483.645137 -625.606942 
L 483.264192 -628.311176 
L 482.946075 -631.015411 
L 482.697948 -633.719645 
L 482.525388 -636.42388 
L 482.432265 -639.128115 
L 482.420671 -641.832349 
L 482.490883 -644.536584 
L 482.641362 -647.240818 
L 482.868787 -649.945053 
L 483.168124 -652.649287 
L 483.532748 -655.353522 
L 483.954602 -658.057756 
L 484.424423 -660.761991 
L 484.932007 -663.466225 
L 485.46654 -666.17046 
L 486.016955 -668.874694 
L 486.572313 -671.578929 
L 487.122183 -674.283163 
L 487.657003 -676.987398 
L 488.168378 -679.691632 
L 488.649327 -682.395867 
L 489.094436 -685.100101 
L 489.499924 -687.804336 
L 489.863621 -690.50857 
L 490.184868 -693.212805 
L 490.46434 -695.917039 
L 490.703837 -698.621274 
L 490.906032 -701.325508 
L 492.463668 -701.325508 
L 492.463668 -701.325508 
L 492.665863 -698.621274 
L 492.90536 -695.917039 
L 493.184832 -693.212805 
L 493.506079 -690.50857 
L 493.869776 -687.804336 
L 494.275264 -685.100101 
L 494.720373 -682.395867 
L 495.201322 -679.691632 
L 495.712697 -676.987398 
L 496.247517 -674.283163 
L 496.797387 -671.578929 
L 497.352745 -668.874694 
L 497.90316 -666.17046 
L 498.437693 -663.466225 
L 498.945277 -660.761991 
L 499.415098 -658.057756 
L 499.836952 -655.353522 
L 500.201576 -652.649287 
L 500.500913 -649.945053 
L 500.728338 -647.240818 
L 500.878817 -644.536584 
L 500.949029 -641.832349 
L 500.937435 -639.128115 
L 500.844312 -636.42388 
L 500.671752 -633.719645 
L 500.423625 -631.015411 
L 500.105508 -628.311176 
L 499.724563 -625.606942 
L 499.289381 -622.902707 
L 498.809763 -620.198473 
L 498.296466 -617.494238 
L 497.760908 -614.790004 
L 497.214849 -612.085769 
L 496.670071 -609.381535 
L 496.13808 -606.6773 
L 495.629858 -603.973066 
L 495.155675 -601.268831 
L 494.724993 -598.564597 
L 494.346467 -595.860362 
L 494.028031 -593.156128 
L 493.777078 -590.451893 
L 493.600692 -587.747659 
L 493.505935 -585.043424 
L 493.500126 -582.33919 
L 493.591111 -579.634955 
L 493.787476 -576.930721 
L 494.098695 -574.226486 
L 494.535199 -571.522251 
L 495.108352 -568.818017 
L 495.830369 -566.113782 
L 496.714165 -563.409548 
L 497.773192 -560.705313 
L 499.021265 -558.001079 
L 500.472424 -555.296844 
L 502.140843 -552.59261 
L 504.040788 -549.888375 
L 506.186609 -547.184141 
L 508.592736 -544.479906 
L 511.273603 -541.775672 
L 514.243431 -539.071437 
L 517.51578 -536.367203 
L 521.102756 -533.662968 
L 525.013829 -530.958734 
L 529.254182 -528.254499 
L 533.822623 -525.550265 
L 538.709116 -522.84603 
L 543.892077 -520.141796 
L 549.335654 -517.437561 
L 554.987288 -514.733327 
L 560.77586 -512.029092 
L 566.610797 -509.324858 
L 572.382432 -506.620623 
L 577.963878 -503.916388 
L 583.214544 -501.212154 
L 587.985272 -498.507919 
L 592.124924 -495.803685 
L 595.48804 -493.09945 
L 597.943063 -490.395216 
L 599.380504 -487.690981 
L 599.720363 -484.986747 
L 598.918138 -482.282512 
L 596.968853 -479.578278 
L 593.908673 -476.874043 
L 589.813922 -474.169809 
L 584.797501 -471.465574 
L 579.002995 -468.76134 
L 572.596934 -466.057105 
L 565.759845 -463.352871 
L 558.676808 -460.648636 
L 551.528261 -457.944402 
L 544.481715 -455.240167 
L 537.684931 -452.535933 
L 531.260926 -449.831698 
L 525.304986 -447.127464 
L 519.883686 -444.423229 
L 515.035737 -441.718995 
L 510.774337 -439.01476 
L 507.090653 -436.310525 
L 503.95801 -433.606291 
z
" style="stroke: #7f7f7f; stroke-width: 1.25"/>
    </defs>
    <g clip-path="url(#p55cf808281)">
     <use xlink:href="#m9c3324731f" x="0" y="854.666839" style="fill: #d3d3d3; stroke: #7f7f7f; stroke-width: 1.25"/>
    </g>
   </g>
   <g id="patch_7">
    <path d="M 464.675972 374.147436 
L 518.693728 374.147436 
L 518.693728 353.069798 
L 464.675972 353.069798 
L 464.675972 374.147436 
L 464.675972 374.147436 
z
" clip-path="url(#p55cf808281)" style="fill: none; stroke: #4c4c4c; stroke-width: 2; stroke-linejoin: miter"/>
   </g>
   <g id="line2d_10">
    <path d="M 491.68485 374.147436 
L 491.68485 374.147436 
" clip-path="url(#p55cf808281)" style="fill: none; stroke: #4c4c4c; stroke-width: 2"/>
   </g>
   <g id="line2d_11">
    <path d="M 491.68485 353.069798 
L 491.68485 323.483592 
" clip-path="url(#p55cf808281)" style="fill: none; stroke: #4c4c4c; stroke-width: 2"/>
   </g>
   <g id="line2d_12">
    <path d="M 478.180411 374.147436 
L 505.189289 374.147436 
" clip-path="url(#p55cf808281)" style="fill: none; stroke: #4c4c4c; stroke-linecap: round"/>
   </g>
   <g id="line2d_13">
    <path d="M 478.180411 323.483592 
L 505.189289 323.483592 
" clip-path="url(#p55cf808281)" style="fill: none; stroke: #4c4c4c; stroke-linecap: round"/>
   </g>
   <g id="line2d_14"/>
   <g id="line2d_15">
    <path d="M 372.845786 374.147436 
L 610.523914 374.147436 
" clip-path="url(#p55cf808281)" style="fill: none; stroke-dasharray: 2.96,1.28; stroke-dashoffset: 0; stroke: #808080; stroke-width: 0.8"/>
   </g>
   <g id="line2d_16">
    <path d="M 491.68485 152.832234 
L 491.68485 147.562824 
" style="fill: none; stroke: #000000; stroke-width: 1.5; stroke-linecap: round"/>
   </g>
   <g id="line2d_17">
    <path d="M 464.675972 374.147436 
L 518.693728 374.147436 
" clip-path="url(#p55cf808281)" style="fill: none; stroke: #4c4c4c"/>
   </g>
   <g id="patch_8">
    <path d="M 372.845786 436.990649 
L 372.845786 79.0605 
" style="fill: none; stroke: #cccccc; stroke-width: 1.25; stroke-linejoin: miter; stroke-linecap: square"/>
   </g>
   <g id="patch_9">
    <path d="M 372.845786 436.990649 
L 610.523914 436.990649 
" style="fill: none; stroke: #cccccc; stroke-width: 1.25; stroke-linejoin: miter; stroke-linecap: square"/>
   </g>
   <g id="PathCollection_2">
    <defs>
     <path id="C1_0_77159444ed" d="M 0 5 
C 1.326016 5 2.597899 4.473168 3.535534 3.535534 
C 4.473168 2.597899 5 1.326016 5 -0 
C 5 -1.326016 4.473168 -2.597899 3.535534 -3.535534 
C 2.597899 -4.473168 1.326016 -5 0 -5 
C -1.326016 -5 -2.597899 -4.473168 -3.535534 -3.535534 
C -4.473168 -2.597899 -5 -1.326016 -5 0 
C -5 1.326016 -4.473168 2.597899 -3.535534 3.535534 
C -2.597899 4.473168 -1.326016 5 0 5 
z
"/>
    </defs>
    <g clip-path="url(#p55cf808281)">
     <use xlink:href="#C1_0_77159444ed" x="466.950663" y="374.147436" style="fill: none; stroke: #000000"/>
    </g>
    <g clip-path="url(#p55cf808281)">
     <use xlink:href="#C1_0_77159444ed" x="474.567163" y="374.147436" style="fill: none; stroke: #000000"/>
    </g>
    <g clip-path="url(#p55cf808281)">
     <use xlink:href="#C1_0_77159444ed" x="502.337313" y="374.147436" style="fill: none; stroke: #000000"/>
    </g>
    <g clip-path="url(#p55cf808281)">
     <use xlink:href="#C1_0_77159444ed" x="481.241602" y="374.147436" style="fill: none; stroke: #000000"/>
    </g>
    <g clip-path="url(#p55cf808281)">
     <use xlink:href="#C1_0_77159444ed" x="495.484899" y="374.147436" style="fill: none; stroke: #000000"/>
    </g>
    <g clip-path="url(#p55cf808281)">
     <use xlink:href="#C1_0_77159444ed" x="475.904654" y="346.904984" style="fill: none; stroke: #000000"/>
    </g>
    <g clip-path="url(#p55cf808281)">
     <use xlink:href="#C1_0_77159444ed" x="505.168991" y="331.070404" style="fill: none; stroke: #000000"/>
    </g>
    <g clip-path="url(#p55cf808281)">
     <use xlink:href="#C1_0_77159444ed" x="509.467509" y="374.147436" style="fill: none; stroke: #000000"/>
    </g>
    <g clip-path="url(#p55cf808281)">
     <use xlink:href="#C1_0_77159444ed" x="515.542182" y="340.74017" style="fill: none; stroke: #000000"/>
    </g>
    <g clip-path="url(#p55cf808281)">
     <use xlink:href="#C1_0_77159444ed" x="517.196545" y="374.147436" style="fill: none; stroke: #000000"/>
    </g>
    <g clip-path="url(#p55cf808281)">
     <use xlink:href="#C1_0_77159444ed" x="498.764361" y="374.147436" style="fill: none; stroke: #000000"/>
    </g>
    <g clip-path="url(#p55cf808281)">
     <use xlink:href="#C1_0_77159444ed" x="507.792964" y="374.147436" style="fill: none; stroke: #000000"/>
    </g>
    <g clip-path="url(#p55cf808281)">
     <use xlink:href="#C1_0_77159444ed" x="479.283404" y="323.483592" style="fill: none; stroke: #000000"/>
    </g>
    <g clip-path="url(#p55cf808281)">
     <use xlink:href="#C1_0_77159444ed" x="488.37019" y="357.443803" style="fill: none; stroke: #000000"/>
    </g>
    <g clip-path="url(#p55cf808281)">
     <use xlink:href="#C1_0_77159444ed" x="466.16419" y="353.069798" style="fill: none; stroke: #000000"/>
    </g>
    <g clip-path="url(#p55cf808281)">
     <use xlink:href="#C1_0_77159444ed" x="496.497051" y="200.254443" style="fill: none; stroke: #000000"/>
    </g>
    <g clip-path="url(#p55cf808281)">
     <use xlink:href="#C1_0_77159444ed" x="493.197715" y="357.443803" style="fill: none; stroke: #000000"/>
    </g>
    <g clip-path="url(#p55cf808281)">
     <use xlink:href="#C1_0_77159444ed" x="499.63819" y="374.147436" style="fill: none; stroke: #000000"/>
    </g>
    <g clip-path="url(#p55cf808281)">
     <use xlink:href="#C1_0_77159444ed" x="517.420046" y="374.147436" style="fill: none; stroke: #000000"/>
    </g>
    <g clip-path="url(#p55cf808281)">
     <use xlink:href="#C1_0_77159444ed" x="471.239034" y="374.147436" style="fill: none; stroke: #000000"/>
    </g>
    <g clip-path="url(#p55cf808281)">
     <use xlink:href="#C1_0_77159444ed" x="483.401908" y="374.147436" style="fill: none; stroke: #000000"/>
    </g>
    <g clip-path="url(#p55cf808281)">
     <use xlink:href="#C1_0_77159444ed" x="467.464886" y="227.349501" style="fill: none; stroke: #000000"/>
    </g>
    <g clip-path="url(#p55cf808281)">
     <use xlink:href="#C1_0_77159444ed" x="466.103326" y="374.147436" style="fill: none; stroke: #000000"/>
    </g>
    <g clip-path="url(#p55cf808281)">
     <use xlink:href="#C1_0_77159444ed" x="487.645011" y="374.147436" style="fill: none; stroke: #000000"/>
    </g>
    <g clip-path="url(#p55cf808281)">
     <use xlink:href="#C1_0_77159444ed" x="509.999352" y="374.147436" style="fill: none; stroke: #000000"/>
    </g>
   </g>
   <g id="text_11">
    <text style="fill: #262626; font: 26px 'Arial', 'DejaVu Sans', 'Liberation Sans', 'Bitstream Vera Sans', sans-serif; text-anchor: middle" x="491.68485" y="107.312534" transform="rotate(-0 491.68485 107.312534)">padj = 8.79e-09</text>
   </g>
   <g id="text_12">
    <text style="fill: #262626; font: 36px 'Arial', 'DejaVu Sans', 'Liberation Sans', 'Bitstream Vera Sans', sans-serif" transform="translate(403.64235 33.406875)">Signature -</text>
    <text style="fill: #262626; font: 36px 'Arial', 'DejaVu Sans', 'Liberation Sans', 'Bitstream Vera Sans', sans-serif" transform="translate(393.129225 71.9055)">&gt; thresholds</text>
   </g>
  </g>
  <g id="axes_3">
   <g id="patch_10">
    <path d="M 636.911722 436.990649 
L 874.58985 436.990649 
L 874.58985 79.0605 
L 636.911722 79.0605 
L 636.911722 436.990649 
z
" style="fill: none"/>
   </g>
   <g id="matplotlib.axis_5">
    <g id="xtick_3"/>
   </g>
   <g id="matplotlib.axis_6">
    <g id="ytick_15"/>
    <g id="ytick_16"/>
    <g id="ytick_17"/>
    <g id="ytick_18"/>
    <g id="ytick_19"/>
    <g id="ytick_20"/>
    <g id="ytick_21"/>
   </g>
   <g id="PolyCollection_3">
    <defs>
     <path id="m638985ac0f" d="M 769.027941 -457.327531 
L 742.473631 -457.327531 
L 740.094079 -458.296429 
L 737.414659 -459.265326 
L 734.42376 -460.234223 
L 731.114647 -461.20312 
L 727.486427 -462.172018 
L 723.544939 -463.140915 
L 719.303528 -464.109812 
L 714.783656 -465.078709 
L 710.015289 -466.047607 
L 705.037031 -467.016504 
L 699.895948 -467.985401 
L 694.647085 -468.954298 
L 689.352631 -469.923196 
L 684.080764 -470.892093 
L 678.904179 -471.86099 
L 673.898345 -472.829887 
L 669.13954 -473.798785 
L 664.70274 -474.767682 
L 660.659437 -475.736579 
L 657.075469 -476.705476 
L 654.008973 -477.674374 
L 651.508522 -478.643271 
L 649.611558 -479.612168 
L 648.343167 -480.581065 
L 647.715273 -481.549963 
L 647.726268 -482.51886 
L 648.361111 -483.487757 
L 649.591877 -484.456654 
L 651.378735 -485.425552 
L 653.671301 -486.394449 
L 656.41031 -487.363346 
L 659.529528 -488.332243 
L 662.957811 -489.301141 
L 666.621236 -490.270038 
L 670.445208 -491.238935 
L 674.356466 -492.207832 
L 678.284919 -493.17673 
L 682.165254 -494.145627 
L 685.938268 -495.114524 
L 689.55191 -496.083421 
L 692.962012 -497.052319 
L 696.132715 -498.021216 
L 699.036614 -498.990113 
L 701.654641 -499.95901 
L 703.975732 -500.927908 
L 705.996306 -501.896805 
L 707.719614 -502.865702 
L 709.154987 -503.834599 
L 710.317027 -504.803497 
L 711.224777 -505.772394 
L 711.900898 -506.741291 
L 712.370871 -507.710188 
L 712.662249 -508.679086 
L 712.803958 -509.647983 
L 712.825663 -510.61688 
L 712.757191 -511.585777 
L 712.628014 -512.554675 
L 712.466787 -513.523572 
L 712.300933 -514.492469 
L 712.156278 -515.461367 
L 712.056723 -516.430264 
L 712.023957 -517.399161 
L 712.077212 -518.368058 
L 712.233048 -519.336956 
L 712.505188 -520.305853 
L 712.904393 -521.27475 
L 713.438381 -522.243647 
L 714.111801 -523.212545 
L 714.926256 -524.181442 
L 715.880382 -525.150339 
L 716.969981 -526.119236 
L 718.188201 -527.088134 
L 719.525777 -528.057031 
L 720.971309 -529.025928 
L 722.511577 -529.994825 
L 724.13189 -530.963723 
L 725.816459 -531.93262 
L 727.548771 -532.901517 
L 729.311981 -533.870414 
L 731.089274 -534.839312 
L 732.864231 -535.808209 
L 734.621149 -536.777106 
L 736.345335 -537.746003 
L 738.023358 -538.714901 
L 739.64325 -539.683798 
L 741.194661 -540.652695 
L 742.668958 -541.621592 
L 744.059282 -542.59049 
L 745.360544 -543.559387 
L 746.569385 -544.528284 
L 747.684092 -545.497181 
L 748.70448 -546.466079 
L 749.631746 -547.434976 
L 750.468301 -548.403873 
L 751.217592 -549.37277 
L 751.883912 -550.341668 
L 752.472214 -551.310565 
L 752.987929 -552.279462 
L 753.436795 -553.248359 
L 758.064777 -553.248359 
L 758.064777 -553.248359 
L 758.513643 -552.279462 
L 759.029358 -551.310565 
L 759.61766 -550.341668 
L 760.283979 -549.37277 
L 761.03327 -548.403873 
L 761.869825 -547.434976 
L 762.797091 -546.466079 
L 763.817479 -545.497181 
L 764.932186 -544.528284 
L 766.141027 -543.559387 
L 767.442289 -542.59049 
L 768.832613 -541.621592 
L 770.306911 -540.652695 
L 771.858321 -539.683798 
L 773.478213 -538.714901 
L 775.156236 -537.746003 
L 776.880423 -536.777106 
L 778.63734 -535.808209 
L 780.412297 -534.839312 
L 782.189591 -533.870414 
L 783.9528 -532.901517 
L 785.685113 -531.93262 
L 787.369681 -530.963723 
L 788.989995 -529.994825 
L 790.530262 -529.025928 
L 791.975794 -528.057031 
L 793.313371 -527.088134 
L 794.531591 -526.119236 
L 795.621189 -525.150339 
L 796.575316 -524.181442 
L 797.389771 -523.212545 
L 798.063191 -522.243647 
L 798.597179 -521.27475 
L 798.996383 -520.305853 
L 799.268524 -519.336956 
L 799.42436 -518.368058 
L 799.477614 -517.399161 
L 799.444849 -516.430264 
L 799.345294 -515.461367 
L 799.200639 -514.492469 
L 799.034785 -513.523572 
L 798.873558 -512.554675 
L 798.744381 -511.585777 
L 798.675909 -510.61688 
L 798.697614 -509.647983 
L 798.839323 -508.679086 
L 799.130701 -507.710188 
L 799.600674 -506.741291 
L 800.276794 -505.772394 
L 801.184544 -504.803497 
L 802.346584 -503.834599 
L 803.781957 -502.865702 
L 805.505266 -501.896805 
L 807.52584 -500.927908 
L 809.84693 -499.95901 
L 812.464957 -498.990113 
L 815.368856 -498.021216 
L 818.539559 -497.052319 
L 821.949662 -496.083421 
L 825.563304 -495.114524 
L 829.336318 -494.145627 
L 833.216653 -493.17673 
L 837.145106 -492.207832 
L 841.056364 -491.238935 
L 844.880336 -490.270038 
L 848.543761 -489.301141 
L 851.972044 -488.332243 
L 855.091262 -487.363346 
L 857.830271 -486.394449 
L 860.122837 -485.425552 
L 861.909694 -484.456654 
L 863.140461 -483.487757 
L 863.775304 -482.51886 
L 863.786299 -481.549963 
L 863.158404 -480.581065 
L 861.890014 -479.612168 
L 859.993049 -478.643271 
L 857.492599 -477.674374 
L 854.426102 -476.705476 
L 850.842135 -475.736579 
L 846.798831 -474.767682 
L 842.362032 -473.798785 
L 837.603227 -472.829887 
L 832.597392 -471.86099 
L 827.420807 -470.892093 
L 822.148941 -469.923196 
L 816.854487 -468.954298 
L 811.605623 -467.985401 
L 806.464541 -467.016504 
L 801.486282 -466.047607 
L 796.717916 -465.078709 
L 792.198044 -464.109812 
L 787.956633 -463.140915 
L 784.015145 -462.172018 
L 780.386925 -461.20312 
L 777.077812 -460.234223 
L 774.086912 -459.265326 
L 771.407493 -458.296429 
L 769.027941 -457.327531 
z
" style="stroke: #4d4d4d; stroke-width: 1.25"/>
    </defs>
    <g clip-path="url(#pba3a258cd3)">
     <use xlink:href="#m638985ac0f" x="0" y="854.666839" style="fill: #808080; stroke: #4d4d4d; stroke-width: 1.25"/>
    </g>
   </g>
   <g id="patch_11">
    <path d="M 728.741908 374.147436 
L 782.759664 374.147436 
L 782.759664 346.68007 
L 728.741908 346.68007 
L 728.741908 374.147436 
L 728.741908 374.147436 
z
" clip-path="url(#pba3a258cd3)" style="fill: none; stroke: #4c4c4c; stroke-width: 2; stroke-linejoin: miter"/>
   </g>
   <g id="line2d_18">
    <path d="M 755.750786 374.147436 
L 755.750786 374.147436 
" clip-path="url(#pba3a258cd3)" style="fill: none; stroke: #4c4c4c; stroke-width: 2"/>
   </g>
   <g id="line2d_19">
    <path d="M 755.750786 346.68007 
L 755.750786 324.610352 
" clip-path="url(#pba3a258cd3)" style="fill: none; stroke: #4c4c4c; stroke-width: 2"/>
   </g>
   <g id="line2d_20">
    <path d="M 742.246347 374.147436 
L 769.255225 374.147436 
" clip-path="url(#pba3a258cd3)" style="fill: none; stroke: #4c4c4c; stroke-linecap: round"/>
   </g>
   <g id="line2d_21">
    <path d="M 742.246347 324.610352 
L 769.255225 324.610352 
" clip-path="url(#pba3a258cd3)" style="fill: none; stroke: #4c4c4c; stroke-linecap: round"/>
   </g>
   <g id="line2d_22"/>
   <g id="line2d_23">
    <path d="M 636.911722 374.147436 
L 874.58985 374.147436 
" clip-path="url(#pba3a258cd3)" style="fill: none; stroke-dasharray: 2.96,1.28; stroke-dashoffset: 0; stroke: #808080; stroke-width: 0.8"/>
   </g>
   <g id="line2d_24">
    <path d="M 755.750786 121.215777 
L 755.750786 115.946367 
" style="fill: none; stroke: #000000; stroke-width: 1.5; stroke-linecap: round"/>
   </g>
   <g id="line2d_25">
    <path d="M 728.741908 374.147436 
L 782.759664 374.147436 
" clip-path="url(#pba3a258cd3)" style="fill: none; stroke: #4c4c4c"/>
   </g>
   <g id="patch_12">
    <path d="M 636.911722 436.990649 
L 636.911722 79.0605 
" style="fill: none; stroke: #cccccc; stroke-width: 1.25; stroke-linejoin: miter; stroke-linecap: square"/>
   </g>
   <g id="patch_13">
    <path d="M 636.911722 436.990649 
L 874.58985 436.990649 
" style="fill: none; stroke: #cccccc; stroke-width: 1.25; stroke-linejoin: miter; stroke-linecap: square"/>
   </g>
   <g id="PathCollection_3">
    <defs>
     <path id="C2_0_f29076991a" d="M 0 5 
C 1.326016 5 2.597899 4.473168 3.535534 3.535534 
C 4.473168 2.597899 5 1.326016 5 -0 
C 5 -1.326016 4.473168 -2.597899 3.535534 -3.535534 
C 2.597899 -4.473168 1.326016 -5 0 -5 
C -1.326016 -5 -2.597899 -4.473168 -3.535534 -3.535534 
C -4.473168 -2.597899 -5 -1.326016 -5 0 
C -5 1.326016 -4.473168 2.597899 -3.535534 3.535534 
C -2.597899 4.473168 -1.326016 5 0 5 
z
"/>
    </defs>
    <g clip-path="url(#pba3a258cd3)">
     <use xlink:href="#C2_0_f29076991a" x="740.519276" y="324.610352" style="fill: none; stroke: #000000"/>
    </g>
    <g clip-path="url(#pba3a258cd3)">
     <use xlink:href="#C2_0_f29076991a" x="770.617828" y="374.147436" style="fill: none; stroke: #000000"/>
    </g>
    <g clip-path="url(#pba3a258cd3)">
     <use xlink:href="#C2_0_f29076991a" x="777.904561" y="337.689112" style="fill: none; stroke: #000000"/>
    </g>
    <g clip-path="url(#pba3a258cd3)">
     <use xlink:href="#C2_0_f29076991a" x="754.711599" y="363.608617" style="fill: none; stroke: #000000"/>
    </g>
    <g clip-path="url(#pba3a258cd3)">
     <use xlink:href="#C2_0_f29076991a" x="739.369592" y="374.147436" style="fill: none; stroke: #000000"/>
    </g>
    <g clip-path="url(#pba3a258cd3)">
     <use xlink:href="#C2_0_f29076991a" x="749.378575" y="349.677056" style="fill: none; stroke: #000000"/>
    </g>
    <g clip-path="url(#pba3a258cd3)">
     <use xlink:href="#C2_0_f29076991a" x="734.408533" y="374.147436" style="fill: none; stroke: #000000"/>
    </g>
    <g clip-path="url(#pba3a258cd3)">
     <use xlink:href="#C2_0_f29076991a" x="774.228163" y="374.147436" style="fill: none; stroke: #000000"/>
    </g>
    <g clip-path="url(#pba3a258cd3)">
     <use xlink:href="#C2_0_f29076991a" x="736.408847" y="374.147436" style="fill: none; stroke: #000000"/>
    </g>
    <g clip-path="url(#pba3a258cd3)">
     <use xlink:href="#C2_0_f29076991a" x="738.644462" y="374.147436" style="fill: none; stroke: #000000"/>
    </g>
    <g clip-path="url(#pba3a258cd3)">
     <use xlink:href="#C2_0_f29076991a" x="757.283632" y="332.973423" style="fill: none; stroke: #000000"/>
    </g>
    <g clip-path="url(#pba3a258cd3)">
     <use xlink:href="#C2_0_f29076991a" x="782.675895" y="374.147436" style="fill: none; stroke: #000000"/>
    </g>
   </g>
   <g id="text_13">
    <text style="fill: #262626; font: 36px 'Arial', 'DejaVu Sans', 'Liberation Sans', 'Bitstream Vera Sans', sans-serif" transform="translate(667.708286 33.406875)">Signature -</text>
    <text style="fill: #262626; font: 36px 'Arial', 'DejaVu Sans', 'Liberation Sans', 'Bitstream Vera Sans', sans-serif" transform="translate(657.195161 71.9055)">&lt; thresholds</text>
   </g>
  </g>
  <g id="axes_4">
   <g id="patch_14">
    <path d="M 108.77985 807.880798 
L 346.457978 807.880798 
L 346.457978 449.950649 
L 108.77985 449.950649 
L 108.77985 807.880798 
z
" style="fill: none"/>
   </g>
   <g id="matplotlib.axis_7">
    <g id="xtick_4"/>
   </g>
   <g id="matplotlib.axis_8">
    <g id="ytick_22">
     <g id="text_14">
      <text style="fill: #262626; font: 24px 'Arial', 'DejaVu Sans', 'Liberation Sans', 'Bitstream Vera Sans', sans-serif; text-anchor: end" x="99.27985" y="806.321056" transform="rotate(-0 99.27985 806.321056)">−5</text>
     </g>
    </g>
    <g id="ytick_23">
     <g id="text_15">
      <text style="fill: #262626; font: 24px 'Arial', 'DejaVu Sans', 'Liberation Sans', 'Bitstream Vera Sans', sans-serif; text-anchor: end" x="99.27985" y="753.62696" transform="rotate(-0 99.27985 753.62696)">0</text>
     </g>
    </g>
    <g id="ytick_24">
     <g id="text_16">
      <text style="fill: #262626; font: 24px 'Arial', 'DejaVu Sans', 'Liberation Sans', 'Bitstream Vera Sans', sans-serif; text-anchor: end" x="99.27985" y="700.932864" transform="rotate(-0 99.27985 700.932864)">5</text>
     </g>
    </g>
    <g id="ytick_25">
     <g id="text_17">
      <text style="fill: #262626; font: 24px 'Arial', 'DejaVu Sans', 'Liberation Sans', 'Bitstream Vera Sans', sans-serif; text-anchor: end" x="99.27985" y="648.238769" transform="rotate(-0 99.27985 648.238769)">10</text>
     </g>
    </g>
    <g id="ytick_26">
     <g id="text_18">
      <text style="fill: #262626; font: 24px 'Arial', 'DejaVu Sans', 'Liberation Sans', 'Bitstream Vera Sans', sans-serif; text-anchor: end" x="99.27985" y="595.544673" transform="rotate(-0 99.27985 595.544673)">15</text>
     </g>
    </g>
    <g id="ytick_27">
     <g id="text_19">
      <text style="fill: #262626; font: 24px 'Arial', 'DejaVu Sans', 'Liberation Sans', 'Bitstream Vera Sans', sans-serif; text-anchor: end" x="99.27985" y="542.850577" transform="rotate(-0 99.27985 542.850577)">20</text>
     </g>
    </g>
    <g id="ytick_28">
     <g id="text_20">
      <text style="fill: #262626; font: 24px 'Arial', 'DejaVu Sans', 'Liberation Sans', 'Bitstream Vera Sans', sans-serif; text-anchor: end" x="99.27985" y="490.156481" transform="rotate(-0 99.27985 490.156481)">25</text>
     </g>
    </g>
    <g id="text_21">
     <text style="fill: #262626; font: 34px 'Arial', 'DejaVu Sans', 'Liberation Sans', 'Bitstream Vera Sans', sans-serif; text-anchor: middle" x="60.760163" y="628.915724" transform="rotate(-90 60.760163 628.915724)">Expression (log2)</text>
    </g>
   </g>
   <g id="PolyCollection_4">
    <defs>
     <path id="m260928ba19" d="M 229.025632 -112.384849 
L 226.212197 -112.384849 
L 225.755879 -114.431896 
L 225.176242 -116.478943 
L 224.447875 -118.52599 
L 223.542396 -120.573037 
L 222.428718 -122.620084 
L 221.073525 -124.667131 
L 219.441988 -126.714177 
L 217.498748 -128.761224 
L 215.209174 -130.808271 
L 212.540915 -132.855318 
L 209.465708 -134.902365 
L 205.961417 -136.949412 
L 202.014213 -138.996459 
L 197.620831 -141.043506 
L 192.790746 -143.090553 
L 187.548147 -145.1376 
L 181.933532 -147.184646 
L 176.004762 -149.231693 
L 169.837417 -151.27874 
L 163.52431 -153.325787 
L 157.17406 -155.372834 
L 150.908687 -157.419881 
L 144.860239 -159.466928 
L 139.166545 -161.513975 
L 133.966248 -163.561022 
L 129.393361 -165.608069 
L 125.571612 -167.655115 
L 122.608909 -169.702162 
L 120.592249 -171.749209 
L 119.583401 -173.796256 
L 119.615632 -175.843303 
L 120.691709 -177.89035 
L 122.783318 -179.937397 
L 125.831951 -181.984444 
L 129.751218 -184.031491 
L 134.430455 -186.078538 
L 139.739406 -188.125584 
L 145.533696 -190.172631 
L 151.660795 -192.219678 
L 157.966107 -194.266725 
L 164.298876 -196.313772 
L 170.517599 -198.360819 
L 176.494701 -200.407866 
L 182.120282 -202.454913 
L 187.304814 -204.50196 
L 191.980756 -206.549007 
L 196.103089 -208.596053 
L 199.648858 -210.6431 
L 202.615845 -212.690147 
L 205.02051 -214.737194 
L 206.895382 -216.784241 
L 208.286071 -218.831288 
L 209.248053 -220.878335 
L 209.843408 -222.925382 
L 210.137628 -224.972429 
L 210.196616 -227.019476 
L 210.083995 -229.066522 
L 209.858786 -231.113569 
L 209.573534 -233.160616 
L 209.27292 -235.207663 
L 208.992887 -237.25471 
L 208.760292 -239.301757 
L 208.593055 -241.348804 
L 208.50078 -243.395851 
L 208.485776 -245.442898 
L 208.544406 -247.489945 
L 208.668648 -249.536991 
L 208.847774 -251.584038 
L 209.070014 -253.631085 
L 209.324094 -255.678132 
L 209.600538 -257.725179 
L 209.892661 -259.772226 
L 210.197176 -261.819273 
L 210.514388 -263.86632 
L 210.847998 -265.913367 
L 211.204527 -267.960414 
L 211.59246 -270.00746 
L 212.021181 -272.054507 
L 212.499817 -274.101554 
L 213.036113 -276.148601 
L 213.635439 -278.195648 
L 214.300017 -280.242695 
L 215.028455 -282.289742 
L 215.8156 -284.336789 
L 216.652733 -286.383836 
L 217.528057 -288.430883 
L 218.427433 -290.477929 
L 219.335276 -292.524976 
L 220.235532 -294.572023 
L 221.112625 -296.61907 
L 221.952323 -298.666117 
L 222.742434 -300.713164 
L 223.473295 -302.760211 
L 224.138051 -304.807258 
L 224.732707 -306.854305 
L 225.255988 -308.901352 
L 225.709051 -310.948398 
L 226.095074 -312.995445 
L 226.418798 -315.042492 
L 228.81903 -315.042492 
L 228.81903 -315.042492 
L 229.142755 -312.995445 
L 229.528778 -310.948398 
L 229.98184 -308.901352 
L 230.505122 -306.854305 
L 231.099777 -304.807258 
L 231.764533 -302.760211 
L 232.495394 -300.713164 
L 233.285505 -298.666117 
L 234.125204 -296.61907 
L 235.002297 -294.572023 
L 235.902552 -292.524976 
L 236.810395 -290.477929 
L 237.709771 -288.430883 
L 238.585095 -286.383836 
L 239.422228 -284.336789 
L 240.209374 -282.289742 
L 240.937811 -280.242695 
L 241.60239 -278.195648 
L 242.201715 -276.148601 
L 242.738012 -274.101554 
L 243.216648 -272.054507 
L 243.645368 -270.00746 
L 244.033302 -267.960414 
L 244.389831 -265.913367 
L 244.72344 -263.86632 
L 245.040652 -261.819273 
L 245.345167 -259.772226 
L 245.637291 -257.725179 
L 245.913735 -255.678132 
L 246.167814 -253.631085 
L 246.390054 -251.584038 
L 246.569181 -249.536991 
L 246.693423 -247.489945 
L 246.752052 -245.442898 
L 246.737049 -243.395851 
L 246.644773 -241.348804 
L 246.477536 -239.301757 
L 246.244941 -237.25471 
L 245.964909 -235.207663 
L 245.664294 -233.160616 
L 245.379042 -231.113569 
L 245.153834 -229.066522 
L 245.041213 -227.019476 
L 245.100201 -224.972429 
L 245.39442 -222.925382 
L 245.989776 -220.878335 
L 246.951758 -218.831288 
L 248.342446 -216.784241 
L 250.217318 -214.737194 
L 252.621983 -212.690147 
L 255.58897 -210.6431 
L 259.13474 -208.596053 
L 263.257072 -206.549007 
L 267.933014 -204.50196 
L 273.117546 -202.454913 
L 278.743127 -200.407866 
L 284.72023 -198.360819 
L 290.938953 -196.313772 
L 297.271721 -194.266725 
L 303.577033 -192.219678 
L 309.704132 -190.172631 
L 315.498423 -188.125584 
L 320.807373 -186.078538 
L 325.486611 -184.031491 
L 329.405878 -181.984444 
L 332.45451 -179.937397 
L 334.546119 -177.89035 
L 335.622196 -175.843303 
L 335.654427 -173.796256 
L 334.645579 -171.749209 
L 332.62892 -169.702162 
L 329.666216 -167.655115 
L 325.844467 -165.608069 
L 321.27158 -163.561022 
L 316.071284 -161.513975 
L 310.377589 -159.466928 
L 304.329142 -157.419881 
L 298.063769 -155.372834 
L 291.713518 -153.325787 
L 285.400411 -151.27874 
L 279.233067 -149.231693 
L 273.304297 -147.184646 
L 267.689681 -145.1376 
L 262.447082 -143.090553 
L 257.616998 -141.043506 
L 253.223616 -138.996459 
L 249.276412 -136.949412 
L 245.77212 -134.902365 
L 242.696914 -132.855318 
L 240.028655 -130.808271 
L 237.73908 -128.761224 
L 235.79584 -126.714177 
L 234.164304 -124.667131 
L 232.809111 -122.620084 
L 231.695432 -120.573037 
L 230.789953 -118.52599 
L 230.061587 -116.478943 
L 229.48195 -114.431896 
L 229.025632 -112.384849 
z
" style="stroke: #6c6c6c; stroke-width: 1.25"/>
    </defs>
    <g clip-path="url(#pb78b4dbcfa)">
     <use xlink:href="#m260928ba19" x="0" y="854.666839" style="fill: #d98e96; stroke: #6c6c6c; stroke-width: 1.25"/>
    </g>
   </g>
   <g id="patch_15">
    <path d="M 200.610036 683.575177 
L 254.627792 683.575177 
L 254.627792 666.670665 
L 200.610036 666.670665 
L 200.610036 683.575177 
L 200.610036 683.575177 
z
" clip-path="url(#pb78b4dbcfa)" style="fill: none; stroke: #4c4c4c; stroke-width: 2; stroke-linejoin: miter"/>
   </g>
   <g id="line2d_26">
    <path d="M 227.618914 683.575177 
L 227.618914 707.256314 
" clip-path="url(#pb78b4dbcfa)" style="fill: none; stroke: #4c4c4c; stroke-width: 2"/>
   </g>
   <g id="line2d_27">
    <path d="M 227.618914 666.670665 
L 227.618914 660.374793 
" clip-path="url(#pb78b4dbcfa)" style="fill: none; stroke: #4c4c4c; stroke-width: 2"/>
   </g>
   <g id="line2d_28">
    <path d="M 214.114475 707.256314 
L 241.123353 707.256314 
" clip-path="url(#pb78b4dbcfa)" style="fill: none; stroke: #4c4c4c; stroke-linecap: round"/>
   </g>
   <g id="line2d_29">
    <path d="M 214.114475 660.374793 
L 241.123353 660.374793 
" clip-path="url(#pb78b4dbcfa)" style="fill: none; stroke: #4c4c4c; stroke-linecap: round"/>
   </g>
   <g id="line2d_30"/>
   <g id="line2d_31">
    <path d="M 108.77985 745.037585 
L 346.457978 745.037585 
" clip-path="url(#pb78b4dbcfa)" style="fill: none; stroke-dasharray: 2.96,1.28; stroke-dashoffset: 0; stroke: #808080; stroke-width: 0.8"/>
   </g>
   <g id="line2d_32">
    <path d="M 227.618914 523.722383 
L 227.618914 518.452973 
" style="fill: none; stroke: #000000; stroke-width: 1.5; stroke-linecap: round"/>
   </g>
   <g id="line2d_33">
    <path d="M 227.618914 492.105926 
L 227.618914 486.836516 
" style="fill: none; stroke: #000000; stroke-width: 1.5; stroke-linecap: round"/>
   </g>
   <g id="line2d_34">
    <path d="M 200.610036 676.453114 
L 254.627792 676.453114 
" clip-path="url(#pb78b4dbcfa)" style="fill: none; stroke: #4c4c4c"/>
   </g>
   <g id="patch_16">
    <path d="M 108.77985 807.880798 
L 108.77985 449.950649 
" style="fill: none; stroke: #cccccc; stroke-width: 1.25; stroke-linejoin: miter; stroke-linecap: square"/>
   </g>
   <g id="patch_17">
    <path d="M 108.77985 807.880798 
L 346.457978 807.880798 
" style="fill: none; stroke: #cccccc; stroke-width: 1.25; stroke-linejoin: miter; stroke-linecap: square"/>
   </g>
   <g id="PathCollection_4">
    <defs>
     <path id="C3_0_660b77c54c" d="M 0 5 
C 1.326016 5 2.597899 4.473168 3.535534 3.535534 
C 4.473168 2.597899 5 1.326016 5 -0 
C 5 -1.326016 4.473168 -2.597899 3.535534 -3.535534 
C 2.597899 -4.473168 1.326016 -5 0 -5 
C -1.326016 -5 -2.597899 -4.473168 -3.535534 -3.535534 
C -4.473168 -2.597899 -5 -1.326016 -5 0 
C -5 1.326016 -4.473168 2.597899 -3.535534 3.535534 
C -2.597899 4.473168 -1.326016 5 0 5 
z
"/>
    </defs>
    <g clip-path="url(#pb78b4dbcfa)">
     <use xlink:href="#C3_0_660b77c54c" x="227.216728" y="625.066784" style="fill: none; stroke: #000000"/>
    </g>
    <g clip-path="url(#pb78b4dbcfa)">
     <use xlink:href="#C3_0_660b77c54c" x="215.020017" y="613.751501" style="fill: none; stroke: #000000"/>
    </g>
    <g clip-path="url(#pb78b4dbcfa)">
     <use xlink:href="#C3_0_660b77c54c" x="240.276087" y="660.374793" style="fill: none; stroke: #000000"/>
    </g>
    <g clip-path="url(#pb78b4dbcfa)">
     <use xlink:href="#C3_0_660b77c54c" x="250.335145" y="678.796868" style="fill: none; stroke: #000000"/>
    </g>
    <g clip-path="url(#pb78b4dbcfa)">
     <use xlink:href="#C3_0_660b77c54c" x="243.97886" y="574.650024" style="fill: none; stroke: #000000"/>
    </g>
    <g clip-path="url(#pb78b4dbcfa)">
     <use xlink:href="#C3_0_660b77c54c" x="241.233747" y="577.685529" style="fill: none; stroke: #000000"/>
    </g>
    <g clip-path="url(#pb78b4dbcfa)">
     <use xlink:href="#C3_0_660b77c54c" x="243.986848" y="680.660951" style="fill: none; stroke: #000000"/>
    </g>
    <g clip-path="url(#pb78b4dbcfa)">
     <use xlink:href="#C3_0_660b77c54c" x="208.313857" y="683.041474" style="fill: none; stroke: #000000"/>
    </g>
    <g clip-path="url(#pb78b4dbcfa)">
     <use xlink:href="#C3_0_660b77c54c" x="200.773784" y="675.019186" style="fill: none; stroke: #000000"/>
    </g>
    <g clip-path="url(#pb78b4dbcfa)">
     <use xlink:href="#C3_0_660b77c54c" x="232.751675" y="668.956074" style="fill: none; stroke: #000000"/>
    </g>
    <g clip-path="url(#pb78b4dbcfa)">
     <use xlink:href="#C3_0_660b77c54c" x="217.432747" y="683.041474" style="fill: none; stroke: #000000"/>
    </g>
    <g clip-path="url(#pb78b4dbcfa)">
     <use xlink:href="#C3_0_660b77c54c" x="212.364901" y="665.180433" style="fill: none; stroke: #000000"/>
    </g>
    <g clip-path="url(#pb78b4dbcfa)">
     <use xlink:href="#C3_0_660b77c54c" x="206.195632" y="694.373741" style="fill: none; stroke: #000000"/>
    </g>
    <g clip-path="url(#pb78b4dbcfa)">
     <use xlink:href="#C3_0_660b77c54c" x="202.768957" y="698.040442" style="fill: none; stroke: #000000"/>
    </g>
    <g clip-path="url(#pb78b4dbcfa)">
     <use xlink:href="#C3_0_660b77c54c" x="227.92328" y="669.580996" style="fill: none; stroke: #000000"/>
    </g>
    <g clip-path="url(#pb78b4dbcfa)">
     <use xlink:href="#C3_0_660b77c54c" x="204.598294" y="707.256314" style="fill: none; stroke: #000000"/>
    </g>
    <g clip-path="url(#pb78b4dbcfa)">
     <use xlink:href="#C3_0_660b77c54c" x="210.968683" y="687.501623" style="fill: none; stroke: #000000"/>
    </g>
    <g clip-path="url(#pb78b4dbcfa)">
     <use xlink:href="#C3_0_660b77c54c" x="202.921943" y="690.136098" style="fill: none; stroke: #000000"/>
    </g>
    <g clip-path="url(#pb78b4dbcfa)">
     <use xlink:href="#C3_0_660b77c54c" x="208.687118" y="613.870921" style="fill: none; stroke: #000000"/>
    </g>
    <g clip-path="url(#pb78b4dbcfa)">
     <use xlink:href="#C3_0_660b77c54c" x="235.148202" y="596.566249" style="fill: none; stroke: #000000"/>
    </g>
    <g clip-path="url(#pb78b4dbcfa)">
     <use xlink:href="#C3_0_660b77c54c" x="228.838821" y="692.826206" style="fill: none; stroke: #000000"/>
    </g>
    <g clip-path="url(#pb78b4dbcfa)">
     <use xlink:href="#C3_0_660b77c54c" x="200.867342" y="676.453114" style="fill: none; stroke: #000000"/>
    </g>
    <g clip-path="url(#pb78b4dbcfa)">
     <use xlink:href="#C3_0_660b77c54c" x="237.758686" y="669.475042" style="fill: none; stroke: #000000"/>
    </g>
    <g clip-path="url(#pb78b4dbcfa)">
     <use xlink:href="#C3_0_660b77c54c" x="212.315769" y="681.108168" style="fill: none; stroke: #000000"/>
    </g>
    <g clip-path="url(#pb78b4dbcfa)">
     <use xlink:href="#C3_0_660b77c54c" x="247.355075" y="676.453114" style="fill: none; stroke: #000000"/>
    </g>
    <g clip-path="url(#pb78b4dbcfa)">
     <use xlink:href="#C3_0_660b77c54c" x="239.667872" y="669.687693" style="fill: none; stroke: #000000"/>
    </g>
    <g clip-path="url(#pb78b4dbcfa)">
     <use xlink:href="#C3_0_660b77c54c" x="244.753822" y="668.160896" style="fill: none; stroke: #000000"/>
    </g>
    <g clip-path="url(#pb78b4dbcfa)">
     <use xlink:href="#C3_0_660b77c54c" x="212.383353" y="690.552681" style="fill: none; stroke: #000000"/>
    </g>
    <g clip-path="url(#pb78b4dbcfa)">
     <use xlink:href="#C3_0_660b77c54c" x="225.818876" y="684.108881" style="fill: none; stroke: #000000"/>
    </g>
    <g clip-path="url(#pb78b4dbcfa)">
     <use xlink:href="#C3_0_660b77c54c" x="221.094098" y="679.804144" style="fill: none; stroke: #000000"/>
    </g>
    <g clip-path="url(#pb78b4dbcfa)">
     <use xlink:href="#C3_0_660b77c54c" x="225.203011" y="683.041474" style="fill: none; stroke: #000000"/>
    </g>
   </g>
   <g id="text_22">
    <text style="fill: #262626; font: 26px 'Arial', 'DejaVu Sans', 'Liberation Sans', 'Bitstream Vera Sans', sans-serif; text-anchor: end" x="362.663305" y="509.81914" transform="rotate(-0 362.663305 509.81914)">padj = 0.0016</text>
   </g>
   <g id="text_23">
    <text style="fill: #262626; font: 26px 'Arial', 'DejaVu Sans', 'Liberation Sans', 'Bitstream Vera Sans', sans-serif; text-anchor: middle" x="227.618914" y="842.299339" transform="rotate(-0 227.618914 842.299339)">n = 62</text>
   </g>
  </g>
  <g id="axes_5">
   <g id="patch_18">
    <path d="M 372.845786 807.880798 
L 610.523914 807.880798 
L 610.523914 449.950649 
L 372.845786 449.950649 
L 372.845786 807.880798 
z
" style="fill: none"/>
   </g>
   <g id="matplotlib.axis_9">
    <g id="xtick_5"/>
   </g>
   <g id="matplotlib.axis_10">
    <g id="ytick_29"/>
    <g id="ytick_30"/>
    <g id="ytick_31"/>
    <g id="ytick_32"/>
    <g id="ytick_33"/>
    <g id="ytick_34"/>
    <g id="ytick_35"/>
   </g>
   <g id="PolyCollection_5">
    <defs>
     <path id="m57c9cf8234" d="M 492.579418 -86.262786 
L 490.790282 -86.262786 
L 490.480227 -88.070999 
L 490.101087 -89.879213 
L 489.651868 -91.687426 
L 489.136932 -93.495639 
L 488.567014 -95.303853 
L 487.959663 -97.112066 
L 487.338866 -98.920279 
L 486.733736 -100.728493 
L 486.176269 -102.536706 
L 485.698315 -104.344919 
L 485.328114 -106.153133 
L 485.086785 -107.961346 
L 484.985279 -109.769559 
L 485.022187 -111.577773 
L 485.182737 -113.385986 
L 485.439083 -115.194199 
L 485.751824 -117.002413 
L 486.07251 -118.810626 
L 486.346753 -120.618839 
L 486.517535 -122.427053 
L 486.528336 -124.235266 
L 486.325764 -126.043479 
L 485.861527 -127.851693 
L 485.093676 -129.659906 
L 483.987168 -131.468119 
L 482.513882 -133.276333 
L 480.652241 -135.084546 
L 478.386627 -136.892759 
L 475.706761 -138.700973 
L 472.6072 -140.509186 
L 469.087067 -142.317399 
L 465.150111 -144.125613 
L 460.805124 -145.933826 
L 456.066758 -147.742039 
L 450.956708 -149.550253 
L 445.505264 -151.358466 
L 439.753187 -153.166679 
L 433.753871 -154.974893 
L 427.575699 -156.783106 
L 421.30439 -158.591319 
L 415.04503 -160.399533 
L 408.923311 -162.207746 
L 403.085357 -164.015959 
L 397.695509 -165.824173 
L 392.931481 -167.632386 
L 388.976615 -169.440599 
L 386.009322 -171.248813 
L 384.190397 -173.057026 
L 383.649337 -174.865239 
L 384.471269 -176.673453 
L 386.686214 -178.481666 
L 390.262314 -180.289879 
L 395.104228 -182.098093 
L 401.057203 -183.906306 
L 407.916584 -185.714519 
L 415.441743 -187.522733 
L 423.372848 -189.330946 
L 431.448548 -191.139159 
L 439.422677 -192.947373 
L 447.078299 -194.755586 
L 454.237967 -196.563799 
L 460.769581 -198.372013 
L 466.587869 -200.180226 
L 471.651975 -201.988439 
L 475.960001 -203.796652 
L 479.541521 -205.604866 
L 482.44913 -207.413079 
L 484.749951 -209.221292 
L 486.517907 -211.029506 
L 487.827285 -212.837719 
L 488.747928 -214.645932 
L 489.342193 -216.454146 
L 489.663598 -218.262359 
L 489.75697 -220.070572 
L 489.659782 -221.878786 
L 489.404289 -223.686999 
L 489.020007 -225.495212 
L 488.536102 -227.303426 
L 487.983258 -229.111639 
L 487.39469 -230.919852 
L 486.806093 -232.728066 
L 486.254494 -234.536279 
L 485.776164 -236.344492 
L 485.403898 -238.152706 
L 485.164131 -239.960919 
L 485.074378 -241.769132 
L 485.141475 -243.577346 
L 485.360934 -245.385559 
L 485.71757 -247.193772 
L 486.18731 -249.001986 
L 486.739924 -250.810199 
L 487.342254 -252.618412 
L 487.961476 -254.426626 
L 488.567962 -256.234839 
L 489.137416 -258.043052 
L 489.65211 -259.851266 
L 490.101205 -261.659479 
L 490.480284 -263.467692 
L 490.790308 -265.275906 
L 492.579392 -265.275906 
L 492.579392 -265.275906 
L 492.889416 -263.467692 
L 493.268495 -261.659479 
L 493.71759 -259.851266 
L 494.232284 -258.043052 
L 494.801738 -256.234839 
L 495.408224 -254.426626 
L 496.027446 -252.618412 
L 496.629776 -250.810199 
L 497.18239 -249.001986 
L 497.65213 -247.193772 
L 498.008766 -245.385559 
L 498.228225 -243.577346 
L 498.295322 -241.769132 
L 498.205569 -239.960919 
L 497.965802 -238.152706 
L 497.593536 -236.344492 
L 497.115206 -234.536279 
L 496.563607 -232.728066 
L 495.97501 -230.919852 
L 495.386442 -229.111639 
L 494.833598 -227.303426 
L 494.349693 -225.495212 
L 493.965411 -223.686999 
L 493.709918 -221.878786 
L 493.61273 -220.070572 
L 493.706102 -218.262359 
L 494.027507 -216.454146 
L 494.621772 -214.645932 
L 495.542415 -212.837719 
L 496.851793 -211.029506 
L 498.619749 -209.221292 
L 500.92057 -207.413079 
L 503.828179 -205.604866 
L 507.409699 -203.796652 
L 511.717725 -201.988439 
L 516.781831 -200.180226 
L 522.600119 -198.372013 
L 529.131733 -196.563799 
L 536.291401 -194.755586 
L 543.947023 -192.947373 
L 551.921152 -191.139159 
L 559.996852 -189.330946 
L 567.927957 -187.522733 
L 575.453116 -185.714519 
L 582.312497 -183.906306 
L 588.265472 -182.098093 
L 593.107386 -180.289879 
L 596.683486 -178.481666 
L 598.898431 -176.673453 
L 599.720363 -174.865239 
L 599.179303 -173.057026 
L 597.360378 -171.248813 
L 594.393085 -169.440599 
L 590.438219 -167.632386 
L 585.674191 -165.824173 
L 580.284343 -164.015959 
L 574.446389 -162.207746 
L 568.32467 -160.399533 
L 562.06531 -158.591319 
L 555.794001 -156.783106 
L 549.615829 -154.974893 
L 543.616513 -153.166679 
L 537.864436 -151.358466 
L 532.412992 -149.550253 
L 527.302942 -147.742039 
L 522.564576 -145.933826 
L 518.219589 -144.125613 
L 514.282633 -142.317399 
L 510.7625 -140.509186 
L 507.662939 -138.700973 
L 504.983073 -136.892759 
L 502.717459 -135.084546 
L 500.855818 -133.276333 
L 499.382532 -131.468119 
L 498.276024 -129.659906 
L 497.508173 -127.851693 
L 497.043936 -126.043479 
L 496.841364 -124.235266 
L 496.852165 -122.427053 
L 497.022947 -120.618839 
L 497.29719 -118.810626 
L 497.617876 -117.002413 
L 497.930617 -115.194199 
L 498.186963 -113.385986 
L 498.347513 -111.577773 
L 498.384421 -109.769559 
L 498.282915 -107.961346 
L 498.041586 -106.153133 
L 497.671385 -104.344919 
L 497.193431 -102.536706 
L 496.635964 -100.728493 
L 496.030834 -98.920279 
L 495.410037 -97.112066 
L 494.802686 -95.303853 
L 494.232768 -93.495639 
L 493.717832 -91.687426 
L 493.268613 -89.879213 
L 492.889473 -88.070999 
L 492.579418 -86.262786 
z
" style="stroke: #7f7f7f; stroke-width: 1.25"/>
    </defs>
    <g clip-path="url(#p32688a8bbe)">
     <use xlink:href="#m57c9cf8234" x="0" y="854.666839" style="fill: #d3d3d3; stroke: #7f7f7f; stroke-width: 1.25"/>
    </g>
   </g>
   <g id="patch_19">
    <path d="M 464.675972 689.730626 
L 518.693728 689.730626 
L 518.693728 672.632054 
L 464.675972 672.632054 
L 464.675972 689.730626 
L 464.675972 689.730626 
z
" clip-path="url(#p32688a8bbe)" style="fill: none; stroke: #4c4c4c; stroke-width: 2; stroke-linejoin: miter"/>
   </g>
   <g id="line2d_35">
    <path d="M 491.68485 689.730626 
L 491.68485 710.028386 
" clip-path="url(#p32688a8bbe)" style="fill: none; stroke: #4c4c4c; stroke-width: 2"/>
   </g>
   <g id="line2d_36">
    <path d="M 491.68485 672.632054 
L 491.68485 662.289422 
" clip-path="url(#p32688a8bbe)" style="fill: none; stroke: #4c4c4c; stroke-width: 2"/>
   </g>
   <g id="line2d_37">
    <path d="M 478.180411 710.028386 
L 505.189289 710.028386 
" clip-path="url(#p32688a8bbe)" style="fill: none; stroke: #4c4c4c; stroke-linecap: round"/>
   </g>
   <g id="line2d_38">
    <path d="M 478.180411 662.289422 
L 505.189289 662.289422 
" clip-path="url(#p32688a8bbe)" style="fill: none; stroke: #4c4c4c; stroke-linecap: round"/>
   </g>
   <g id="line2d_39"/>
   <g id="line2d_40">
    <path d="M 372.845786 745.037585 
L 610.523914 745.037585 
" clip-path="url(#p32688a8bbe)" style="fill: none; stroke-dasharray: 2.96,1.28; stroke-dashoffset: 0; stroke: #808080; stroke-width: 0.8"/>
   </g>
   <g id="line2d_41">
    <path d="M 491.68485 523.722383 
L 491.68485 518.452973 
" style="fill: none; stroke: #000000; stroke-width: 1.5; stroke-linecap: round"/>
   </g>
   <g id="line2d_42">
    <path d="M 464.675972 678.223053 
L 518.693728 678.223053 
" clip-path="url(#p32688a8bbe)" style="fill: none; stroke: #4c4c4c"/>
   </g>
   <g id="patch_20">
    <path d="M 372.845786 807.880798 
L 372.845786 449.950649 
" style="fill: none; stroke: #cccccc; stroke-width: 1.25; stroke-linejoin: miter; stroke-linecap: square"/>
   </g>
   <g id="patch_21">
    <path d="M 372.845786 807.880798 
L 610.523914 807.880798 
" style="fill: none; stroke: #cccccc; stroke-width: 1.25; stroke-linejoin: miter; stroke-linecap: square"/>
   </g>
   <g id="PathCollection_5">
    <defs>
     <path id="C4_0_facdb203fe" d="M 0 5 
C 1.326016 5 2.597899 4.473168 3.535534 3.535534 
C 4.473168 2.597899 5 1.326016 5 -0 
C 5 -1.326016 4.473168 -2.597899 3.535534 -3.535534 
C 2.597899 -4.473168 1.326016 -5 0 -5 
C -1.326016 -5 -2.597899 -4.473168 -3.535534 -3.535534 
C -4.473168 -2.597899 -5 -1.326016 -5 0 
C -5 1.326016 -4.473168 2.597899 -3.535534 3.535534 
C -2.597899 4.473168 -1.326016 5 0 5 
z
"/>
    </defs>
    <g clip-path="url(#p32688a8bbe)">
     <use xlink:href="#C4_0_facdb203fe" x="510.302651" y="685.865174" style="fill: none; stroke: #000000"/>
    </g>
    <g clip-path="url(#p32688a8bbe)">
     <use xlink:href="#C4_0_facdb203fe" x="466.383898" y="677.670108" style="fill: none; stroke: #000000"/>
    </g>
    <g clip-path="url(#p32688a8bbe)">
     <use xlink:href="#C4_0_facdb203fe" x="515.539894" y="672.632054" style="fill: none; stroke: #000000"/>
    </g>
    <g clip-path="url(#p32688a8bbe)">
     <use xlink:href="#C4_0_facdb203fe" x="511.406289" y="677.670108" style="fill: none; stroke: #000000"/>
    </g>
    <g clip-path="url(#p32688a8bbe)">
     <use xlink:href="#C4_0_facdb203fe" x="481.865111" y="695.500501" style="fill: none; stroke: #000000"/>
    </g>
    <g clip-path="url(#p32688a8bbe)">
     <use xlink:href="#C4_0_facdb203fe" x="466.124485" y="689.730626" style="fill: none; stroke: #000000"/>
    </g>
    <g clip-path="url(#p32688a8bbe)">
     <use xlink:href="#C4_0_facdb203fe" x="508.410755" y="662.289422" style="fill: none; stroke: #000000"/>
    </g>
    <g clip-path="url(#p32688a8bbe)">
     <use xlink:href="#C4_0_facdb203fe" x="484.629302" y="678.223053" style="fill: none; stroke: #000000"/>
    </g>
    <g clip-path="url(#p32688a8bbe)">
     <use xlink:href="#C4_0_facdb203fe" x="486.398498" y="702.882309" style="fill: none; stroke: #000000"/>
    </g>
    <g clip-path="url(#p32688a8bbe)">
     <use xlink:href="#C4_0_facdb203fe" x="516.623089" y="672.502655" style="fill: none; stroke: #000000"/>
    </g>
    <g clip-path="url(#p32688a8bbe)">
     <use xlink:href="#C4_0_facdb203fe" x="516.960265" y="696.096825" style="fill: none; stroke: #000000"/>
    </g>
    <g clip-path="url(#p32688a8bbe)">
     <use xlink:href="#C4_0_facdb203fe" x="482.462159" y="676.621119" style="fill: none; stroke: #000000"/>
    </g>
    <g clip-path="url(#p32688a8bbe)">
     <use xlink:href="#C4_0_facdb203fe" x="514.494967" y="677.852197" style="fill: none; stroke: #000000"/>
    </g>
    <g clip-path="url(#p32688a8bbe)">
     <use xlink:href="#C4_0_facdb203fe" x="499.94034" y="695.500501" style="fill: none; stroke: #000000"/>
    </g>
    <g clip-path="url(#p32688a8bbe)">
     <use xlink:href="#C4_0_facdb203fe" x="517.320238" y="689.335687" style="fill: none; stroke: #000000"/>
    </g>
    <g clip-path="url(#p32688a8bbe)">
     <use xlink:href="#C4_0_facdb203fe" x="476.417488" y="686.178675" style="fill: none; stroke: #000000"/>
    </g>
    <g clip-path="url(#p32688a8bbe)">
     <use xlink:href="#C4_0_facdb203fe" x="508.051436" y="710.028386" style="fill: none; stroke: #000000"/>
    </g>
    <g clip-path="url(#p32688a8bbe)">
     <use xlink:href="#C4_0_facdb203fe" x="491.56331" y="683.041474" style="fill: none; stroke: #000000"/>
    </g>
    <g clip-path="url(#p32688a8bbe)">
     <use xlink:href="#C4_0_facdb203fe" x="496.634479" y="669.580996" style="fill: none; stroke: #000000"/>
    </g>
    <g clip-path="url(#p32688a8bbe)">
     <use xlink:href="#C4_0_facdb203fe" x="484.161761" y="677.312343" style="fill: none; stroke: #000000"/>
    </g>
    <g clip-path="url(#p32688a8bbe)">
     <use xlink:href="#C4_0_facdb203fe" x="476.279183" y="666.951354" style="fill: none; stroke: #000000"/>
    </g>
    <g clip-path="url(#p32688a8bbe)">
     <use xlink:href="#C4_0_facdb203fe" x="499.090044" y="612.757402" style="fill: none; stroke: #000000"/>
    </g>
    <g clip-path="url(#p32688a8bbe)">
     <use xlink:href="#C4_0_facdb203fe" x="486.247569" y="745.037585" style="fill: none; stroke: #000000"/>
    </g>
    <g clip-path="url(#p32688a8bbe)">
     <use xlink:href="#C4_0_facdb203fe" x="502.6016" y="681.56894" style="fill: none; stroke: #000000"/>
    </g>
    <g clip-path="url(#p32688a8bbe)">
     <use xlink:href="#C4_0_facdb203fe" x="495.536237" y="671.748568" style="fill: none; stroke: #000000"/>
    </g>
   </g>
   <g id="text_24">
    <text style="fill: #262626; font: 26px 'Arial', 'DejaVu Sans', 'Liberation Sans', 'Bitstream Vera Sans', sans-serif; text-anchor: middle" x="491.68485" y="478.202683" transform="rotate(-0 491.68485 478.202683)">padj = 9.63e-08</text>
   </g>
   <g id="text_25">
    <text style="fill: #262626; font: 26px 'Arial', 'DejaVu Sans', 'Liberation Sans', 'Bitstream Vera Sans', sans-serif; text-anchor: middle" x="491.68485" y="842.299339" transform="rotate(-0 491.68485 842.299339)">n = 50</text>
   </g>
  </g>
  <g id="axes_6">
   <g id="patch_22">
    <path d="M 636.911722 807.880798 
L 874.58985 807.880798 
L 874.58985 449.950649 
L 636.911722 449.950649 
L 636.911722 807.880798 
z
" style="fill: none"/>
   </g>
   <g id="matplotlib.axis_11">
    <g id="xtick_6"/>
   </g>
   <g id="matplotlib.axis_12">
    <g id="ytick_36"/>
    <g id="ytick_37"/>
    <g id="ytick_38"/>
    <g id="ytick_39"/>
    <g id="ytick_40"/>
    <g id="ytick_41"/>
    <g id="ytick_42"/>
   </g>
   <g id="PolyCollection_6">
    <defs>
     <path id="m274b68a4a1" d="M 759.093057 -79.789303 
L 752.408515 -79.789303 
L 751.74151 -81.179063 
L 750.982937 -82.568823 
L 750.129812 -83.958582 
L 749.181269 -85.348342 
L 748.138968 -86.738101 
L 747.007456 -88.127861 
L 745.794451 -89.51762 
L 744.511023 -90.90738 
L 743.171647 -92.29714 
L 741.794098 -93.686899 
L 740.399184 -95.076659 
L 739.010311 -96.466418 
L 737.652866 -97.856178 
L 736.35346 -99.245938 
L 735.139036 -100.635697 
L 734.035876 -102.025457 
L 733.068568 -103.415216 
L 732.258964 -104.804976 
L 731.625182 -106.194735 
L 731.180711 -107.584495 
L 730.933656 -108.974255 
L 730.886163 -110.364014 
L 731.034053 -111.753774 
L 731.366676 -113.143533 
L 731.866994 -114.533293 
L 732.511876 -115.923052 
L 733.272592 -117.312812 
L 734.115467 -118.702572 
L 735.002667 -120.092331 
L 735.893074 -121.482091 
L 736.743214 -122.87185 
L 737.508203 -124.26161 
L 738.142682 -125.651369 
L 738.601731 -127.041129 
L 738.841731 -128.430889 
L 738.821192 -129.820648 
L 738.501538 -131.210408 
L 737.847863 -132.600167 
L 736.829666 -133.989927 
L 735.421575 -135.379686 
L 733.604061 -136.769446 
L 731.364159 -138.159206 
L 728.696153 -139.548965 
L 725.602246 -140.938725 
L 722.093158 -142.328484 
L 718.188622 -143.718244 
L 713.917747 -145.108003 
L 709.319191 -146.497763 
L 704.441103 -147.887523 
L 699.340795 -149.277282 
L 694.084106 -150.667042 
L 688.744448 -152.056801 
L 683.401521 -153.446561 
L 678.139718 -154.836321 
L 673.046243 -156.22608 
L 668.208999 -157.61584 
L 663.714318 -159.005599 
L 659.644606 -160.395359 
L 656.076 -161.785118 
L 653.076139 -163.174878 
L 650.70214 -164.564638 
L 648.998879 -165.954397 
L 647.99765 -167.344157 
L 647.715273 -168.733916 
L 648.153682 -170.123676 
L 649.300032 -171.513435 
L 651.127293 -172.903195 
L 653.595325 -174.292955 
L 656.65236 -175.682714 
L 660.236829 -177.072474 
L 664.279446 -178.462233 
L 668.705443 -179.851993 
L 673.436863 -181.241752 
L 678.394817 -182.631512 
L 683.501602 -184.021272 
L 688.682618 -185.411031 
L 693.868018 -186.800791 
L 698.994044 -188.19055 
L 704.00404 -189.58031 
L 708.849119 -190.970069 
L 713.48852 -192.359829 
L 717.889655 -193.749589 
L 722.027905 -195.139348 
L 725.886201 -196.529108 
L 729.454423 -197.918867 
L 732.728701 -199.308627 
L 735.710616 -200.698386 
L 738.406384 -202.088146 
L 740.826034 -203.477906 
L 742.982609 -204.867665 
L 744.891429 -206.257425 
L 746.569404 -207.647184 
L 748.034439 -209.036944 
L 749.304898 -210.426704 
L 750.399167 -211.816463 
L 751.335281 -213.206223 
L 752.130629 -214.595982 
L 752.801728 -215.985742 
L 753.364052 -217.375501 
L 758.137519 -217.375501 
L 758.137519 -217.375501 
L 758.699844 -215.985742 
L 759.370943 -214.595982 
L 760.166291 -213.206223 
L 761.102405 -211.816463 
L 762.196674 -210.426704 
L 763.467133 -209.036944 
L 764.932167 -207.647184 
L 766.610143 -206.257425 
L 768.518963 -204.867665 
L 770.675538 -203.477906 
L 773.095188 -202.088146 
L 775.790956 -200.698386 
L 778.772871 -199.308627 
L 782.047148 -197.918867 
L 785.615371 -196.529108 
L 789.473666 -195.139348 
L 793.611917 -193.749589 
L 798.013052 -192.359829 
L 802.652453 -190.970069 
L 807.497532 -189.58031 
L 812.507527 -188.19055 
L 817.633554 -186.800791 
L 822.818954 -185.411031 
L 827.99997 -184.021272 
L 833.106755 -182.631512 
L 838.064709 -181.241752 
L 842.796129 -179.851993 
L 847.222126 -178.462233 
L 851.264743 -177.072474 
L 854.849212 -175.682714 
L 857.906247 -174.292955 
L 860.374278 -172.903195 
L 862.20154 -171.513435 
L 863.347889 -170.123676 
L 863.786299 -168.733916 
L 863.503921 -167.344157 
L 862.502693 -165.954397 
L 860.799432 -164.564638 
L 858.425433 -163.174878 
L 855.425572 -161.785118 
L 851.856966 -160.395359 
L 847.787254 -159.005599 
L 843.292573 -157.61584 
L 838.455329 -156.22608 
L 833.361853 -154.836321 
L 828.100051 -153.446561 
L 822.757124 -152.056801 
L 817.417466 -150.667042 
L 812.160776 -149.277282 
L 807.060468 -147.887523 
L 802.182381 -146.497763 
L 797.583825 -145.108003 
L 793.31295 -143.718244 
L 789.408413 -142.328484 
L 785.899325 -140.938725 
L 782.805419 -139.548965 
L 780.137413 -138.159206 
L 777.89751 -136.769446 
L 776.079997 -135.379686 
L 774.671905 -133.989927 
L 773.653709 -132.600167 
L 773.000034 -131.210408 
L 772.68038 -129.820648 
L 772.659841 -128.430889 
L 772.89984 -127.041129 
L 773.358889 -125.651369 
L 773.993369 -124.26161 
L 774.758357 -122.87185 
L 775.608497 -121.482091 
L 776.498904 -120.092331 
L 777.386104 -118.702572 
L 778.228979 -117.312812 
L 778.989695 -115.923052 
L 779.634578 -114.533293 
L 780.134896 -113.143533 
L 780.467519 -111.753774 
L 780.615409 -110.364014 
L 780.567916 -108.974255 
L 780.320861 -107.584495 
L 779.876389 -106.194735 
L 779.242607 -104.804976 
L 778.433003 -103.415216 
L 777.465696 -102.025457 
L 776.362536 -100.635697 
L 775.148111 -99.245938 
L 773.848706 -97.856178 
L 772.491261 -96.466418 
L 771.102387 -95.076659 
L 769.707474 -93.686899 
L 768.329924 -92.29714 
L 766.990548 -90.90738 
L 765.707121 -89.51762 
L 764.494116 -88.127861 
L 763.362604 -86.738101 
L 762.320303 -85.348342 
L 761.37176 -83.958582 
L 760.518635 -82.568823 
L 759.760062 -81.179063 
L 759.093057 -79.789303 
z
" style="stroke: #4d4d4d; stroke-width: 1.25"/>
    </defs>
    <g clip-path="url(#p4cdbe682ca)">
     <use xlink:href="#m274b68a4a1" x="0" y="854.666839" style="fill: #808080; stroke: #4d4d4d; stroke-width: 1.25"/>
    </g>
   </g>
   <g id="patch_23">
    <path d="M 728.741908 696.251992 
L 782.759664 696.251992 
L 782.759664 682.895088 
L 728.741908 682.895088 
L 728.741908 696.251992 
L 728.741908 696.251992 
z
" clip-path="url(#p4cdbe682ca)" style="fill: none; stroke: #4c4c4c; stroke-width: 2; stroke-linejoin: miter"/>
   </g>
   <g id="line2d_43">
    <path d="M 755.750786 696.251992 
L 755.750786 696.717495 
" clip-path="url(#p4cdbe682ca)" style="fill: none; stroke: #4c4c4c; stroke-width: 2"/>
   </g>
   <g id="line2d_44">
    <path d="M 755.750786 682.895088 
L 755.750786 667.131289 
" clip-path="url(#p4cdbe682ca)" style="fill: none; stroke: #4c4c4c; stroke-width: 2"/>
   </g>
   <g id="line2d_45">
    <path d="M 742.246347 696.717495 
L 769.255225 696.717495 
" clip-path="url(#p4cdbe682ca)" style="fill: none; stroke: #4c4c4c; stroke-linecap: round"/>
   </g>
   <g id="line2d_46">
    <path d="M 742.246347 667.131289 
L 769.255225 667.131289 
" clip-path="url(#p4cdbe682ca)" style="fill: none; stroke: #4c4c4c; stroke-linecap: round"/>
   </g>
   <g id="line2d_47"/>
   <g id="line2d_48">
    <path d="M 636.911722 745.037585 
L 874.58985 745.037585 
" clip-path="url(#p4cdbe682ca)" style="fill: none; stroke-dasharray: 2.96,1.28; stroke-dashoffset: 0; stroke: #808080; stroke-width: 0.8"/>
   </g>
   <g id="line2d_49">
    <path d="M 755.750786 492.105926 
L 755.750786 486.836516 
" style="fill: none; stroke: #000000; stroke-width: 1.5; stroke-linecap: round"/>
   </g>
   <g id="line2d_50">
    <path d="M 728.741908 686.021924 
L 782.759664 686.021924 
" clip-path="url(#p4cdbe682ca)" style="fill: none; stroke: #4c4c4c"/>
   </g>
   <g id="patch_24">
    <path d="M 636.911722 807.880798 
L 636.911722 449.950649 
" style="fill: none; stroke: #cccccc; stroke-width: 1.25; stroke-linejoin: miter; stroke-linecap: square"/>
   </g>
   <g id="patch_25">
    <path d="M 636.911722 807.880798 
L 874.58985 807.880798 
" style="fill: none; stroke: #cccccc; stroke-width: 1.25; stroke-linejoin: miter; stroke-linecap: square"/>
   </g>
   <g id="PathCollection_6">
    <defs>
     <path id="C5_0_f8bafb689c" d="M 0 5 
C 1.326016 5 2.597899 4.473168 3.535534 3.535534 
C 4.473168 2.597899 5 1.326016 5 -0 
C 5 -1.326016 4.473168 -2.597899 3.535534 -3.535534 
C 2.597899 -4.473168 1.326016 -5 0 -5 
C -1.326016 -5 -2.597899 -4.473168 -3.535534 -3.535534 
C -4.473168 -2.597899 -5 -1.326016 -5 0 
C -5 1.326016 -4.473168 2.597899 -3.535534 3.535534 
C -2.597899 4.473168 -1.326016 5 0 5 
z
"/>
    </defs>
    <g clip-path="url(#p4cdbe682ca)">
     <use xlink:href="#C5_0_f8bafb689c" x="750.022874" y="667.131289" style="fill: none; stroke: #000000"/>
    </g>
    <g clip-path="url(#p4cdbe682ca)">
     <use xlink:href="#C5_0_f8bafb689c" x="768.028351" y="679.191807" style="fill: none; stroke: #000000"/>
    </g>
    <g clip-path="url(#p4cdbe682ca)">
     <use xlink:href="#C5_0_f8bafb689c" x="755.250753" y="685.865174" style="fill: none; stroke: #000000"/>
    </g>
    <g clip-path="url(#p4cdbe682ca)">
     <use xlink:href="#C5_0_f8bafb689c" x="742.84703" y="696.717495" style="fill: none; stroke: #000000"/>
    </g>
    <g clip-path="url(#p4cdbe682ca)">
     <use xlink:href="#C5_0_f8bafb689c" x="747.244886" y="686.178675" style="fill: none; stroke: #000000"/>
    </g>
    <g clip-path="url(#p4cdbe682ca)">
     <use xlink:href="#C5_0_f8bafb689c" x="782.689618" y="683.565812" style="fill: none; stroke: #000000"/>
    </g>
    <g clip-path="url(#p4cdbe682ca)">
     <use xlink:href="#C5_0_f8bafb689c" x="731.939429" y="680.882915" style="fill: none; stroke: #000000"/>
    </g>
    <g clip-path="url(#p4cdbe682ca)">
     <use xlink:href="#C5_0_f8bafb689c" x="740.676453" y="745.037585" style="fill: none; stroke: #000000"/>
    </g>
    <g clip-path="url(#p4cdbe682ca)">
     <use xlink:href="#C5_0_f8bafb689c" x="758.623078" y="696.096825" style="fill: none; stroke: #000000"/>
    </g>
    <g clip-path="url(#p4cdbe682ca)">
     <use xlink:href="#C5_0_f8bafb689c" x="766.543502" y="692.826206" style="fill: none; stroke: #000000"/>
    </g>
    <g clip-path="url(#p4cdbe682ca)">
     <use xlink:href="#C5_0_f8bafb689c" x="762.850927" y="685.865174" style="fill: none; stroke: #000000"/>
    </g>
    <g clip-path="url(#p4cdbe682ca)">
     <use xlink:href="#C5_0_f8bafb689c" x="763.572357" y="745.037585" style="fill: none; stroke: #000000"/>
    </g>
   </g>
   <g id="text_26">
    <text style="fill: #262626; font: 26px 'Arial', 'DejaVu Sans', 'Liberation Sans', 'Bitstream Vera Sans', sans-serif; text-anchor: middle" x="755.750786" y="842.299339" transform="rotate(-0 755.750786 842.299339)">n = 24</text>
   </g>
  </g>
  <g id="patch_26">
   <path d="M 227.618914 147.562824 
Q 359.651882 147.562824 491.68485 147.562824 
" style="fill: none; stroke: #000000; stroke-width: 1.5; stroke-linecap: round"/>
  </g>
  <g id="patch_27">
   <path d="M 227.618914 115.946367 
Q 359.651882 115.946367 491.68485 115.946367 
" style="fill: none; stroke: #000000; stroke-width: 1.5; stroke-linecap: round"/>
  </g>
  <g id="patch_28">
   <path d="M 491.68485 115.946367 
Q 623.717818 115.946367 755.750786 115.946367 
" style="fill: none; stroke: #000000; stroke-width: 1.5; stroke-linecap: round"/>
  </g>
  <g id="patch_29">
   <path d="M 227.618914 518.452973 
Q 359.651882 518.452973 491.68485 518.452973 
" style="fill: none; stroke: #000000; stroke-width: 1.5; stroke-linecap: round"/>
  </g>
  <g id="patch_30">
   <path d="M 227.618914 486.836516 
Q 359.651882 486.836516 491.68485 486.836516 
" style="fill: none; stroke: #000000; stroke-width: 1.5; stroke-linecap: round"/>
  </g>
  <g id="patch_31">
   <path d="M 491.68485 486.836516 
Q 623.717818 486.836516 755.750786 486.836516 
" style="fill: none; stroke: #000000; stroke-width: 1.5; stroke-linecap: round"/>
  </g>
  <g id="text_27">
   <text style="fill: #262626; font: 700 36px 'Arial', 'DejaVu Sans', 'Liberation Sans', 'Bitstream Vera Sans', sans-serif" transform="translate(32.968125 329.119312) rotate(-90)">GSTA1</text>
  </g>
  <g id="text_28">
   <text style="fill: #262626; font: 700 36px 'Arial', 'DejaVu Sans', 'Liberation Sans', 'Bitstream Vera Sans', sans-serif" transform="translate(32.968125 712.603687) rotate(-90)">ABCC2</text>
  </g>
 </g>
 <defs>
  <clipPath id="p43c90f341d">
   <rect x="108.77985" y="79.0605" width="237.678128" height="357.930149"/>
  </clipPath>
  <clipPath id="p55cf808281">
   <rect x="372.845786" y="79.0605" width="237.678128" height="357.930149"/>
  </clipPath>
  <clipPath id="pba3a258cd3">
   <rect x="636.911722" y="79.0605" width="237.678128" height="357.930149"/>
  </clipPath>
  <clipPath id="pb78b4dbcfa">
   <rect x="108.77985" y="449.950649" width="237.678128" height="357.930149"/>
  </clipPath>
  <clipPath id="p32688a8bbe">
   <rect x="372.845786" y="449.950649" width="237.678128" height="357.930149"/>
  </clipPath>
  <clipPath id="p4cdbe682ca">
   <rect x="636.911722" y="449.950649" width="237.678128" height="357.930149"/>
  </clipPath>
 </defs>
</svg>
