<?xml version="1.0" encoding="utf-8" standalone="no"?>
<!DOCTYPE svg PUBLIC "-//W3C//DTD SVG 1.1//EN"
  "http://www.w3.org/Graphics/SVG/1.1/DTD/svg11.dtd">
<svg xmlns:xlink="http://www.w3.org/1999/xlink" width="1721.224063pt" height="532.716563pt" viewBox="0 0 1721.224063 532.716563" xmlns="http://www.w3.org/2000/svg" version="1.1">
 <metadata>
  <rdf:RDF xmlns:dc="http://purl.org/dc/elements/1.1/" xmlns:cc="http://creativecommons.org/ns#" xmlns:rdf="http://www.w3.org/1999/02/22-rdf-syntax-ns#">
   <cc:Work>
    <dc:type rdf:resource="http://purl.org/dc/dcmitype/StillImage"/>
    <dc:date>2026-06-03T16:23:33.854739</dc:date>
    <dc:format>image/svg+xml</dc:format>
    <dc:creator>
     <cc:Agent>
      <dc:title>Matplotlib v3.7.3, https://matplotlib.org/</dc:title>
     </cc:Agent>
    </dc:creator>
   </cc:Work>
  </rdf:RDF>
 </metadata>
 <defs>
  <style type="text/css">*{stroke-linejoin: round; stroke-linecap: butt}</style>
 </defs>
 <g id="figure_1">
  <g id="patch_1">
   <path d="M 0 532.716563 
L 1721.224063 532.716563 
L 1721.224063 0 
L 0 0 
L 0 532.716563 
z
" style="fill: none"/>
  </g>
  <g id="axes_1">
   <g id="patch_2">
    <path d="M 244.794063 525.516562 
L 1714.024063 525.516562 
L 1714.024063 141.376562 
L 244.794063 141.376562 
L 244.794063 525.516562 
z
" style="fill: none"/>
   </g>
   <g id="patch_3">
    <path d="M 244.794063 529.88179 
L 1714.024063 529.88179 
L 1714.024063 486.229517 
L 244.794063 486.229517 
z
" clip-path="url(#p3c8ff38fbf)" style="fill: #d3d3d3; opacity: 0.95"/>
   </g>
   <g id="patch_4">
    <path d="M 244.794063 442.577244 
L 1714.024063 442.577244 
L 1714.024063 398.924972 
L 244.794063 398.924972 
z
" clip-path="url(#p3c8ff38fbf)" style="fill: #d3d3d3; opacity: 0.95"/>
   </g>
   <g id="patch_5">
    <path d="M 244.794063 355.272699 
L 1714.024063 355.272699 
L 1714.024063 311.620426 
L 244.794063 311.620426 
z
" clip-path="url(#p3c8ff38fbf)" style="fill: #d3d3d3; opacity: 0.95"/>
   </g>
   <g id="patch_6">
    <path d="M 244.794063 267.968153 
L 1714.024063 267.968153 
L 1714.024063 224.315881 
L 244.794063 224.315881 
z
" clip-path="url(#p3c8ff38fbf)" style="fill: #d3d3d3; opacity: 0.95"/>
   </g>
   <g id="patch_7">
    <path d="M 244.794063 180.663608 
L 1714.024063 180.663608 
L 1714.024063 137.011335 
L 244.794063 137.011335 
z
" clip-path="url(#p3c8ff38fbf)" style="fill: #d3d3d3; opacity: 0.95"/>
   </g>
   <g id="matplotlib.axis_1">
    <g id="xtick_1">
     <g id="line2d_1">
      <defs>
       <path id="m98a154268d" d="M 0 0 
L 0 -3.5 
" style="stroke: #000000; stroke-width: 0.8"/>
      </defs>
      <g>
       <use xlink:href="#m98a154268d" x="274.178663" y="141.376562" style="stroke: #000000; stroke-width: 0.8"/>
      </g>
     </g>
     <g id="text_1">
      <text style="font: 26px 'Arial', sans-serif" transform="translate(280.900069 134.376562) rotate(-90)">CN25</text>
     </g>
    </g>
    <g id="xtick_2">
     <g id="line2d_2">
      <g>
       <use xlink:href="#m98a154268d" x="332.947863" y="141.376562" style="stroke: #000000; stroke-width: 0.8"/>
      </g>
     </g>
     <g id="text_2">
      <text style="fill: #006400; font: 700 26px 'Arial', sans-serif" transform="translate(339.68755 134.376562) rotate(-90)">SBS288L3</text>
     </g>
    </g>
    <g id="xtick_3">
     <g id="line2d_3">
      <g>
       <use xlink:href="#m98a154268d" x="391.717063" y="141.376562" style="stroke: #000000; stroke-width: 0.8"/>
      </g>
     </g>
     <g id="text_3">
      <text style="font: 26px 'Arial', sans-serif" transform="translate(398.438469 134.376562) rotate(-90)">ID9</text>
     </g>
    </g>
    <g id="xtick_4">
     <g id="line2d_4">
      <g>
       <use xlink:href="#m98a154268d" x="450.486263" y="141.376562" style="stroke: #000000; stroke-width: 0.8"/>
      </g>
     </g>
     <g id="text_4">
      <text style="font: 26px 'Arial', sans-serif" transform="translate(457.207669 134.376562) rotate(-90)">SBS13</text>
     </g>
    </g>
    <g id="xtick_5">
     <g id="line2d_5">
      <g>
       <use xlink:href="#m98a154268d" x="509.255463" y="141.376562" style="stroke: #000000; stroke-width: 0.8"/>
      </g>
     </g>
     <g id="text_5">
      <text style="font: 26px 'Arial', sans-serif" transform="translate(515.976869 134.376562) rotate(-90)">SBS2</text>
     </g>
    </g>
    <g id="xtick_6">
     <g id="line2d_6">
      <g>
       <use xlink:href="#m98a154268d" x="568.024662" y="141.376562" style="stroke: #000000; stroke-width: 0.8"/>
      </g>
     </g>
     <g id="text_6">
      <text style="fill: #006400; font: 700 26px 'Arial', sans-serif" transform="translate(574.76435 134.376562) rotate(-90)">SBS288L5</text>
     </g>
    </g>
    <g id="xtick_7">
     <g id="line2d_7">
      <g>
       <use xlink:href="#m98a154268d" x="626.793863" y="141.376562" style="stroke: #000000; stroke-width: 0.8"/>
      </g>
     </g>
     <g id="text_7">
      <text style="fill: #006400; font: 700 26px 'Arial', sans-serif" transform="translate(633.53355 134.376562) rotate(-90)">SBS288L2</text>
     </g>
    </g>
    <g id="xtick_8">
     <g id="line2d_8">
      <g>
       <use xlink:href="#m98a154268d" x="685.563063" y="141.376562" style="stroke: #000000; stroke-width: 0.8"/>
      </g>
     </g>
     <g id="text_8">
      <text style="fill: #006400; font: 700 26px 'Arial', sans-serif" transform="translate(692.30275 134.376562) rotate(-90)">CNV48A</text>
     </g>
    </g>
    <g id="xtick_9">
     <g id="line2d_9">
      <g>
       <use xlink:href="#m98a154268d" x="744.332263" y="141.376562" style="stroke: #000000; stroke-width: 0.8"/>
      </g>
     </g>
     <g id="text_9">
      <text style="font: 26px 'Arial', sans-serif" transform="translate(751.053669 134.376562) rotate(-90)">SBS12</text>
     </g>
    </g>
    <g id="xtick_10">
     <g id="line2d_10">
      <g>
       <use xlink:href="#m98a154268d" x="803.101463" y="141.376562" style="stroke: #000000; stroke-width: 0.8"/>
      </g>
     </g>
     <g id="text_10">
      <text style="font: 26px 'Arial', sans-serif" transform="translate(809.822869 134.376562) rotate(-90)">SBS39</text>
     </g>
    </g>
    <g id="xtick_11">
     <g id="line2d_11">
      <g>
       <use xlink:href="#m98a154268d" x="861.870662" y="141.376562" style="stroke: #000000; stroke-width: 0.8"/>
      </g>
     </g>
     <g id="text_11">
      <text style="fill: #006400; font: 700 26px 'Arial', sans-serif" transform="translate(868.61035 134.376562) rotate(-90)">DBS78H3</text>
     </g>
    </g>
    <g id="xtick_12">
     <g id="line2d_12">
      <g>
       <use xlink:href="#m98a154268d" x="920.639863" y="141.376562" style="stroke: #000000; stroke-width: 0.8"/>
      </g>
     </g>
     <g id="text_12">
      <text style="fill: #006400; font: 700 26px 'Arial', sans-serif" transform="translate(927.37955 134.376562) rotate(-90)">DBS78H2</text>
     </g>
    </g>
    <g id="xtick_13">
     <g id="line2d_13">
      <g>
       <use xlink:href="#m98a154268d" x="979.409063" y="141.376562" style="stroke: #000000; stroke-width: 0.8"/>
      </g>
     </g>
     <g id="text_13">
      <text style="font: 26px 'Arial', sans-serif" transform="translate(986.130469 134.376562) rotate(-90)">CN5</text>
     </g>
    </g>
    <g id="xtick_14">
     <g id="line2d_14">
      <g>
       <use xlink:href="#m98a154268d" x="1038.178263" y="141.376562" style="stroke: #000000; stroke-width: 0.8"/>
      </g>
     </g>
     <g id="text_14">
      <text style="font: 26px 'Arial', sans-serif" transform="translate(1044.899669 134.376562) rotate(-90)">DBS5</text>
     </g>
    </g>
    <g id="xtick_15">
     <g id="line2d_15">
      <g>
       <use xlink:href="#m98a154268d" x="1096.947463" y="141.376562" style="stroke: #000000; stroke-width: 0.8"/>
      </g>
     </g>
     <g id="text_15">
      <text style="font: 26px 'Arial', sans-serif" transform="translate(1103.668869 134.376562) rotate(-90)">DBS4</text>
     </g>
    </g>
    <g id="xtick_16">
     <g id="line2d_16">
      <g>
       <use xlink:href="#m98a154268d" x="1155.716663" y="141.376562" style="stroke: #000000; stroke-width: 0.8"/>
      </g>
     </g>
     <g id="text_16">
      <text style="font: 26px 'Arial', sans-serif" transform="translate(1162.438069 134.376562) rotate(-90)">DBS9</text>
     </g>
    </g>
    <g id="xtick_17">
     <g id="line2d_17">
      <g>
       <use xlink:href="#m98a154268d" x="1214.485863" y="141.376562" style="stroke: #000000; stroke-width: 0.8"/>
      </g>
     </g>
     <g id="text_17">
      <text style="fill: #006400; font: 700 26px 'Arial', sans-serif" transform="translate(1221.22555 134.376562) rotate(-90)">SBS288L4</text>
     </g>
    </g>
    <g id="xtick_18">
     <g id="line2d_18">
      <g>
       <use xlink:href="#m98a154268d" x="1273.255063" y="141.376562" style="stroke: #000000; stroke-width: 0.8"/>
      </g>
     </g>
     <g id="text_18">
      <text style="font: 26px 'Arial', sans-serif" transform="translate(1279.976469 134.376562) rotate(-90)">DBS2</text>
     </g>
    </g>
    <g id="xtick_19">
     <g id="line2d_19">
      <g>
       <use xlink:href="#m98a154268d" x="1332.024263" y="141.376562" style="stroke: #000000; stroke-width: 0.8"/>
      </g>
     </g>
     <g id="text_19">
      <text style="font: 26px 'Arial', sans-serif" transform="translate(1338.745669 134.376562) rotate(-90)">SBS31</text>
     </g>
    </g>
    <g id="xtick_20">
     <g id="line2d_20">
      <g>
       <use xlink:href="#m98a154268d" x="1390.793463" y="141.376562" style="stroke: #000000; stroke-width: 0.8"/>
      </g>
     </g>
     <g id="text_20">
      <text style="font: 26px 'Arial', sans-serif" transform="translate(1397.514869 134.376562) rotate(-90)">DBS6</text>
     </g>
    </g>
    <g id="xtick_21">
     <g id="line2d_21">
      <g>
       <use xlink:href="#m98a154268d" x="1449.562662" y="141.376562" style="stroke: #000000; stroke-width: 0.8"/>
      </g>
     </g>
     <g id="text_21">
      <text style="font: 26px 'Arial', sans-serif" transform="translate(1456.284069 134.376562) rotate(-90)">SBS35</text>
     </g>
    </g>
    <g id="xtick_22">
     <g id="line2d_22">
      <g>
       <use xlink:href="#m98a154268d" x="1508.331863" y="141.376562" style="stroke: #000000; stroke-width: 0.8"/>
      </g>
     </g>
     <g id="text_22">
      <text style="font: 26px 'Arial', sans-serif" transform="translate(1515.053269 134.376562) rotate(-90)">ID5</text>
     </g>
    </g>
    <g id="xtick_23">
     <g id="line2d_23">
      <g>
       <use xlink:href="#m98a154268d" x="1567.101063" y="141.376562" style="stroke: #000000; stroke-width: 0.8"/>
      </g>
     </g>
     <g id="text_23">
      <text style="font: 26px 'Arial', sans-serif" transform="translate(1573.822469 134.376562) rotate(-90)">SBS1</text>
     </g>
    </g>
    <g id="xtick_24">
     <g id="line2d_24">
      <g>
       <use xlink:href="#m98a154268d" x="1625.870263" y="141.376562" style="stroke: #000000; stroke-width: 0.8"/>
      </g>
     </g>
     <g id="text_24">
      <text style="font: 26px 'Arial', sans-serif" transform="translate(1632.591669 134.376562) rotate(-90)">ID8</text>
     </g>
    </g>
    <g id="xtick_25">
     <g id="line2d_25">
      <g>
       <use xlink:href="#m98a154268d" x="1684.639463" y="141.376562" style="stroke: #000000; stroke-width: 0.8"/>
      </g>
     </g>
     <g id="text_25">
      <text style="font: 26px 'Arial', sans-serif" transform="translate(1691.360869 134.376562) rotate(-90)">ID3</text>
     </g>
    </g>
   </g>
   <g id="matplotlib.axis_2">
    <g id="ytick_1">
     <g id="line2d_26">
      <defs>
       <path id="m58cc5e1f6e" d="M 0 0 
L -3.5 0 
" style="stroke: #000000; stroke-width: 0.8"/>
      </defs>
      <g>
       <use xlink:href="#m58cc5e1f6e" x="244.794063" y="508.055653" style="stroke: #000000; stroke-width: 0.8"/>
      </g>
     </g>
     <g id="text_26">
      <text style="font: 26px 'Arial', sans-serif; text-anchor: end" x="237.794063" y="517.36081" transform="rotate(-0 237.794063 517.36081)">Hydrazines</text>
     </g>
    </g>
    <g id="ytick_2">
     <g id="line2d_27">
      <g>
       <use xlink:href="#m58cc5e1f6e" x="244.794063" y="464.403381" style="stroke: #000000; stroke-width: 0.8"/>
      </g>
     </g>
     <g id="text_27">
      <text style="font: 26px 'Arial', sans-serif; text-anchor: end" x="237.794063" y="473.708537" transform="rotate(-0 237.794063 473.708537)">Anthracyclines</text>
     </g>
    </g>
    <g id="ytick_3">
     <g id="line2d_28">
      <g>
       <use xlink:href="#m58cc5e1f6e" x="244.794063" y="420.751108" style="stroke: #000000; stroke-width: 0.8"/>
      </g>
     </g>
     <g id="text_28">
      <text style="font: 26px 'Arial', sans-serif; text-anchor: end" x="237.794063" y="430.056264" transform="rotate(-0 237.794063 430.056264)">Mustard Gases</text>
     </g>
    </g>
    <g id="ytick_4">
     <g id="line2d_29">
      <g>
       <use xlink:href="#m58cc5e1f6e" x="244.794063" y="377.098835" style="stroke: #000000; stroke-width: 0.8"/>
      </g>
     </g>
     <g id="text_29">
      <text style="font: 26px 'Arial', sans-serif; text-anchor: end" x="237.794063" y="386.403991" transform="rotate(-0 237.794063 386.403991)">Antimetabolites</text>
     </g>
    </g>
    <g id="ytick_5">
     <g id="line2d_30">
      <g>
       <use xlink:href="#m58cc5e1f6e" x="244.794063" y="333.446562" style="stroke: #000000; stroke-width: 0.8"/>
      </g>
     </g>
     <g id="text_30">
      <text style="font: 26px 'Arial', sans-serif; text-anchor: end" x="237.794063" y="342.910156" transform="rotate(-0 237.794063 342.910156)">Camptothecins</text>
     </g>
    </g>
    <g id="ytick_6">
     <g id="line2d_31">
      <g>
       <use xlink:href="#m58cc5e1f6e" x="244.794063" y="289.79429" style="stroke: #000000; stroke-width: 0.8"/>
      </g>
     </g>
     <g id="text_31">
      <text style="font: 26px 'Arial', sans-serif; text-anchor: end" x="237.794063" y="299.266009" transform="rotate(-0 237.794063 299.266009)">Other Alkylators</text>
     </g>
    </g>
    <g id="ytick_7">
     <g id="line2d_32">
      <g>
       <use xlink:href="#m58cc5e1f6e" x="244.794063" y="246.142017" style="stroke: #000000; stroke-width: 0.8"/>
      </g>
     </g>
     <g id="text_32">
      <text style="font: 26px 'Arial', sans-serif; text-anchor: end" x="237.794063" y="255.447173" transform="rotate(-0 237.794063 255.447173)">Platinums</text>
     </g>
    </g>
    <g id="ytick_8">
     <g id="line2d_33">
      <g>
       <use xlink:href="#m58cc5e1f6e" x="244.794063" y="202.489744" style="stroke: #000000; stroke-width: 0.8"/>
      </g>
     </g>
     <g id="text_33">
      <text style="font: 26px 'Arial', sans-serif; text-anchor: end" x="237.794063" y="211.794901" transform="rotate(-0 237.794063 211.794901)">Radiation</text>
     </g>
    </g>
    <g id="ytick_9">
     <g id="line2d_34">
      <g>
       <use xlink:href="#m58cc5e1f6e" x="244.794063" y="158.837472" style="stroke: #000000; stroke-width: 0.8"/>
      </g>
     </g>
     <g id="text_34">
      <text style="font: 26px 'Arial', sans-serif; text-anchor: end" x="237.794063" y="168.142628" transform="rotate(-0 237.794063 168.142628)">Podophyllotoxins</text>
     </g>
    </g>
    <g id="text_35">
     <text style="font: 32px 'Arial', sans-serif; text-anchor: middle" x="30.495" y="333.446562" transform="rotate(-90 30.495 333.446562)">Therapy Classes</text>
    </g>
   </g>
   <g id="PathCollection_1">
    <path d="M 274.178663 522.822395 
C 278.094848 522.822395 281.851164 521.266478 284.620326 518.497317 
C 287.389487 515.728155 288.945404 511.971839 288.945404 508.055653 
C 288.945404 504.139468 287.389487 500.383152 284.620326 497.61399 
C 281.851164 494.844829 278.094848 493.288911 274.178663 493.288911 
C 270.262477 493.288911 266.506161 494.844829 263.736999 497.61399 
C 260.967838 500.383152 259.411921 504.139468 259.411921 508.055653 
C 259.411921 511.971839 260.967838 515.728155 263.736999 518.497317 
C 266.506161 521.266478 270.262477 522.822395 274.178663 522.822395 
z
" clip-path="url(#p3c8ff38fbf)" style="fill: #6680bd; stroke: #6680bd; stroke-width: 2"/>
    <path d="M 332.947863 531.88126 
C 339.266487 531.88126 345.327168 529.370844 349.795111 524.902901 
C 354.263053 520.434959 356.773469 514.374278 356.773469 508.055653 
C 356.773469 501.737029 354.263053 495.676348 349.795111 491.208405 
C 345.327168 486.740463 339.266487 484.230047 332.947863 484.230047 
C 326.629238 484.230047 320.568557 486.740463 316.100614 491.208405 
C 311.632672 495.676348 309.122256 501.737029 309.122256 508.055653 
C 309.122256 514.374278 311.632672 520.434959 316.100614 524.902901 
C 320.568557 529.370844 326.629238 531.88126 332.947863 531.88126 
z
" clip-path="url(#p3c8ff38fbf)" style="fill: #b66d57; stroke: #b66d57; stroke-width: 2"/>
    <path d="M 391.717063 481.631007 
C 396.285882 481.631007 400.66819 479.815796 403.898834 476.585152 
C 407.129478 473.354509 408.944689 468.972201 408.944689 464.403381 
C 408.944689 459.834561 407.129478 455.452253 403.898834 452.221609 
C 400.66819 448.990966 396.285882 447.175754 391.717063 447.175754 
C 387.148243 447.175754 382.765935 448.990966 379.535291 452.221609 
C 376.304647 455.452253 374.489436 459.834561 374.489436 464.403381 
C 374.489436 468.972201 376.304647 473.354509 379.535291 476.585152 
C 382.765935 479.815796 387.148243 481.631007 391.717063 481.631007 
z
" clip-path="url(#p3c8ff38fbf)" style="fill: #8598bd; stroke: #8598bd; stroke-width: 2"/>
    <path d="M 450.486263 481.891704 
C 455.12422 481.891704 459.572843 480.049024 462.852374 476.769493 
C 466.131906 473.489961 467.974586 469.041338 467.974586 464.403381 
C 467.974586 459.765423 466.131906 455.3168 462.852374 452.037269 
C 459.572843 448.757738 455.12422 446.915057 450.486263 446.915057 
C 445.848305 446.915057 441.399682 448.757738 438.120151 452.037269 
C 434.840619 455.3168 432.997939 459.765423 432.997939 464.403381 
C 432.997939 469.041338 434.840619 473.489961 438.120151 476.769493 
C 441.399682 480.049024 445.848305 481.891704 450.486263 481.891704 
z
" clip-path="url(#p3c8ff38fbf)" style="fill: #9ba3b0; stroke: #9ba3b0; stroke-width: 2"/>
    <path d="M 509.255463 480.011161 
C 513.394694 480.011161 517.364951 478.366627 520.29183 475.439748 
C 523.218709 472.512869 524.863243 468.542612 524.863243 464.403381 
C 524.863243 460.264149 523.218709 456.293892 520.29183 453.367013 
C 517.364951 450.440134 513.394694 448.7956 509.255463 448.7956 
C 505.116231 448.7956 501.145974 450.440134 498.219095 453.367013 
C 495.292216 456.293892 493.647682 460.264149 493.647682 464.403381 
C 493.647682 468.542612 495.292216 472.512869 498.219095 475.439748 
C 501.145974 478.366627 505.116231 480.011161 509.255463 480.011161 
z
" clip-path="url(#p3c8ff38fbf)" style="fill: #718abf; stroke: #718abf; stroke-width: 2"/>
    <path d="M 568.024662 478.830334 
C 571.850735 478.830334 575.520617 477.31022 578.226059 474.604778 
C 580.931501 471.899335 582.451616 468.229454 582.451616 464.403381 
C 582.451616 460.577308 580.931501 456.907426 578.226059 454.201984 
C 575.520617 451.496542 571.850735 449.976427 568.024662 449.976427 
C 564.19859 449.976427 560.528708 451.496542 557.823266 454.201984 
C 555.117824 456.907426 553.597709 460.577308 553.597709 464.403381 
C 553.597709 468.229454 555.117824 471.899335 557.823266 474.604778 
C 560.528708 477.31022 564.19859 478.830334 568.024662 478.830334 
z
" clip-path="url(#p3c8ff38fbf)" style="fill: #b66f58; stroke: #b66f58; stroke-width: 2"/>
    <path d="M 626.793863 434.612074 
C 630.469834 434.612074 633.995741 433.151595 636.595045 430.552291 
C 639.19435 427.952987 640.654828 424.427079 640.654828 420.751108 
C 640.654828 417.075137 639.19435 413.549229 636.595045 410.949925 
C 633.995741 408.350621 630.469834 406.890142 626.793863 406.890142 
C 623.117891 406.890142 619.591984 408.350621 616.99268 410.949925 
C 614.393375 413.549229 612.932897 417.075137 612.932897 420.751108 
C 612.932897 424.427079 614.393375 427.952987 616.99268 430.552291 
C 619.591984 433.151595 623.117891 434.612074 626.793863 434.612074 
z
" clip-path="url(#p3c8ff38fbf)" style="fill: #af9f97; stroke: #af9f97; stroke-width: 2"/>
    <path d="M 391.717063 435.705804 
C 395.683094 435.705804 399.487221 434.130083 402.291629 431.325675 
C 405.096037 428.521267 406.671758 424.71714 406.671758 420.751108 
C 406.671758 416.785076 405.096037 412.980949 402.291629 410.176541 
C 399.487221 407.372133 395.683094 405.796412 391.717063 405.796412 
C 387.751031 405.796412 383.946904 407.372133 381.142496 410.176541 
C 378.338088 412.980949 376.762367 416.785076 376.762367 420.751108 
C 376.762367 424.71714 378.338088 428.521267 381.142496 431.325675 
C 383.946904 434.130083 387.751031 435.705804 391.717063 435.705804 
z
" clip-path="url(#p3c8ff38fbf)" style="fill: #8598bd; stroke: #8598bd; stroke-width: 2"/>
    <path d="M 568.024662 434.698032 
C 571.72343 434.698032 575.271204 433.228496 577.886627 430.613073 
C 580.502051 427.997649 581.971587 424.449875 581.971587 420.751108 
C 581.971587 417.05234 580.502051 413.504567 577.886627 410.889143 
C 575.271204 408.27372 571.72343 406.804184 568.024662 406.804184 
C 564.325895 406.804184 560.778121 408.27372 558.162698 410.889143 
C 555.547274 413.504567 554.077738 417.05234 554.077738 420.751108 
C 554.077738 424.449875 555.547274 427.997649 558.162698 430.613073 
C 560.778121 433.228496 564.325895 434.698032 568.024662 434.698032 
z
" clip-path="url(#p3c8ff38fbf)" style="fill: #b66f58; stroke: #b66f58; stroke-width: 2"/>
    <path d="M 685.563063 391.835533 
C 689.47128 391.835533 693.219954 390.282782 695.983482 387.519254 
C 698.747009 384.755727 700.299761 381.007053 700.299761 377.098835 
C 700.299761 373.190617 698.747009 369.441944 695.983482 366.678416 
C 693.219954 363.914889 689.47128 362.362137 685.563063 362.362137 
C 681.654845 362.362137 677.906171 363.914889 675.142643 366.678416 
C 672.379116 369.441944 670.826364 373.190617 670.826364 377.098835 
C 670.826364 381.007053 672.379116 384.755727 675.142643 387.519254 
C 677.906171 390.282782 681.654845 391.835533 685.563063 391.835533 
z
" clip-path="url(#p3c8ff38fbf)" style="fill: #4f69b4; stroke: #4f69b4; stroke-width: 2"/>
    <path d="M 744.332263 400.519196 
C 750.543415 400.519196 756.501011 398.051479 760.892958 393.659531 
C 765.284906 389.267583 767.752623 383.309988 767.752623 377.098835 
C 767.752623 370.887683 765.284906 364.930087 760.892958 360.538139 
C 756.501011 356.146191 750.543415 353.678474 744.332263 353.678474 
C 738.12111 353.678474 732.163514 356.146191 727.771567 360.538139 
C 723.379619 364.930087 720.911902 370.887683 720.911902 377.098835 
C 720.911902 383.309988 723.379619 389.267583 727.771567 393.659531 
C 732.163514 398.051479 738.12111 400.519196 744.332263 400.519196 
z
" clip-path="url(#p3c8ff38fbf)" style="fill: #b7725b; stroke: #b7725b; stroke-width: 2"/>
    <path d="M 803.101463 392.82804 
C 807.272896 392.82804 811.274041 391.170712 814.22369 388.221062 
C 817.173339 385.271413 818.830667 381.270269 818.830667 377.098835 
C 818.830667 372.927401 817.173339 368.926257 814.22369 365.976608 
C 811.274041 363.026959 807.272896 361.369631 803.101463 361.369631 
C 798.930029 361.369631 794.928884 363.026959 791.979235 365.976608 
C 789.029586 368.926257 787.372258 372.927401 787.372258 377.098835 
C 787.372258 381.270269 789.029586 385.271413 791.979235 388.221062 
C 794.928884 391.170712 798.930029 392.82804 803.101463 392.82804 
z
" clip-path="url(#p3c8ff38fbf)" style="fill: #b09e95; stroke: #b09e95; stroke-width: 2"/>
    <path d="M 861.870662 401.140061 
C 868.24647 401.140061 874.361999 398.606926 878.870376 394.098549 
C 883.378753 389.590172 885.911888 383.474643 885.911888 377.098835 
C 885.911888 370.723028 883.378753 364.607498 878.870376 360.099122 
C 874.361999 355.590745 868.24647 353.05761 861.870662 353.05761 
C 855.494855 353.05761 849.379326 355.590745 844.870949 360.099122 
C 840.362572 364.607498 837.829437 370.723028 837.829437 377.098835 
C 837.829437 383.474643 840.362572 389.590172 844.870949 394.098549 
C 849.379326 398.606926 855.494855 401.140061 861.870662 401.140061 
z
" clip-path="url(#p3c8ff38fbf)" style="fill: #8d9db9; stroke: #8d9db9; stroke-width: 2"/>
    <path d="M 920.639863 390.945199 
C 924.311961 390.945199 927.834154 389.486258 930.43072 386.889693 
C 933.027286 384.293127 934.486226 380.770934 934.486226 377.098835 
C 934.486226 373.426737 933.027286 369.904544 930.43072 367.307978 
C 927.834154 364.711412 924.311961 363.252472 920.639863 363.252472 
C 916.967764 363.252472 913.445571 364.711412 910.849005 367.307978 
C 908.252439 369.904544 906.793499 373.426737 906.793499 377.098835 
C 906.793499 380.770934 908.252439 384.293127 910.849005 386.889693 
C 913.445571 389.486258 916.967764 390.945199 920.639863 390.945199 
z
" clip-path="url(#p3c8ff38fbf)" style="fill: #b87962; stroke: #b87962; stroke-width: 2"/>
    <path d="M 979.409063 393.630777 
C 983.793385 393.630777 987.998727 391.888867 991.098911 388.788683 
C 994.199095 385.688499 995.941004 381.483157 995.941004 377.098835 
C 995.941004 372.714513 994.199095 368.509171 991.098911 365.408987 
C 987.998727 362.308803 983.793385 360.566894 979.409063 360.566894 
C 975.02474 360.566894 970.819398 362.308803 967.719214 365.408987 
C 964.61903 368.509171 962.877121 372.714513 962.877121 377.098835 
C 962.877121 381.483157 964.61903 385.688499 967.719214 388.788683 
C 970.819398 391.888867 975.02474 393.630777 979.409063 393.630777 
z
" clip-path="url(#p3c8ff38fbf)" style="fill: #748dbf; stroke: #748dbf; stroke-width: 2"/>
    <path d="M 1038.178263 390.798202 
C 1041.811377 390.798202 1045.296178 389.35475 1047.865177 386.78575 
C 1050.434177 384.21675 1051.877629 380.73195 1051.877629 377.098835 
C 1051.877629 373.465721 1050.434177 369.98092 1047.865177 367.41192 
C 1045.296178 364.84292 1041.811377 363.399469 1038.178263 363.399469 
C 1034.545148 363.399469 1031.060347 364.84292 1028.491348 367.41192 
C 1025.922348 369.98092 1024.478896 373.465721 1024.478896 377.098835 
C 1024.478896 380.73195 1025.922348 384.21675 1028.491348 386.78575 
C 1031.060347 389.35475 1034.545148 390.798202 1038.178263 390.798202 
z
" clip-path="url(#p3c8ff38fbf)" style="fill: #b98974; stroke: #b98974; stroke-width: 2"/>
    <path d="M 1096.947463 349.727576 
C 1101.265238 349.727576 1105.406749 348.012105 1108.459877 344.958977 
C 1111.513005 341.905849 1113.228476 337.764338 1113.228476 333.446562 
C 1113.228476 329.128787 1111.513005 324.987276 1108.459877 321.934148 
C 1105.406749 318.88102 1101.265238 317.165549 1096.947463 317.165549 
C 1092.629687 317.165549 1088.488176 318.88102 1085.435048 321.934148 
C 1082.38192 324.987276 1080.666449 329.128787 1080.666449 333.446562 
C 1080.666449 337.764338 1082.38192 341.905849 1085.435048 344.958977 
C 1088.488176 348.012105 1092.629687 349.727576 1096.947463 349.727576 
z
" clip-path="url(#p3c8ff38fbf)" style="fill: #ada19a; stroke: #ada19a; stroke-width: 2"/>
    <path d="M 1155.716663 349.623951 
C 1160.006956 349.623951 1164.122108 347.919399 1167.155803 344.885703 
C 1170.189499 341.852008 1171.894051 337.736856 1171.894051 333.446562 
C 1171.894051 329.156269 1170.189499 325.041117 1167.155803 322.007422 
C 1164.122108 318.973726 1160.006956 317.269174 1155.716663 317.269174 
C 1151.426369 317.269174 1147.311217 318.973726 1144.277522 322.007422 
C 1141.243826 325.041117 1139.539274 329.156269 1139.539274 333.446562 
C 1139.539274 337.736856 1141.243826 341.852008 1144.277522 344.885703 
C 1147.311217 347.919399 1151.426369 349.623951 1155.716663 349.623951 
z
" clip-path="url(#p3c8ff38fbf)" style="fill: #a8a4a2; stroke: #a8a4a2; stroke-width: 2"/>
    <path d="M 626.793863 348.348673 
C 630.745948 348.348673 634.536699 346.778493 637.331246 343.983946 
C 640.125793 341.189399 641.695973 337.398648 641.695973 333.446562 
C 641.695973 329.494477 640.125793 325.703726 637.331246 322.909179 
C 634.536699 320.114632 630.745948 318.544452 626.793863 318.544452 
C 622.841777 318.544452 619.051026 320.114632 616.256479 322.909179 
C 613.461932 325.703726 611.891752 329.494477 611.891752 333.446562 
C 611.891752 337.398648 613.461932 341.189399 616.256479 343.983946 
C 619.051026 346.778493 622.841777 348.348673 626.793863 348.348673 
z
" clip-path="url(#p3c8ff38fbf)" style="fill: #af9f97; stroke: #af9f97; stroke-width: 2"/>
    <path d="M 391.717063 349.360851 
C 395.937581 349.360851 399.985807 347.684021 402.970164 344.699664 
C 405.954521 341.715307 407.631351 337.667081 407.631351 333.446562 
C 407.631351 329.226044 405.954521 325.177818 402.970164 322.193461 
C 399.985807 319.209104 395.937581 317.532274 391.717063 317.532274 
C 387.496544 317.532274 383.448318 319.209104 380.463961 322.193461 
C 377.479604 325.177818 375.802774 329.226044 375.802774 333.446562 
C 375.802774 337.667081 377.479604 341.715307 380.463961 344.699664 
C 383.448318 347.684021 387.496544 349.360851 391.717063 349.360851 
z
" clip-path="url(#p3c8ff38fbf)" style="fill: #8598bd; stroke: #8598bd; stroke-width: 2"/>
    <path d="M 1214.485863 350.72632 
C 1219.068508 350.72632 1223.464077 348.905616 1226.704496 345.665196 
C 1229.944916 342.424777 1231.76562 338.029208 1231.76562 333.446562 
C 1231.76562 328.863917 1229.944916 324.468348 1226.704496 321.227929 
C 1223.464077 317.987509 1219.068508 316.166805 1214.485863 316.166805 
C 1209.903217 316.166805 1205.507648 317.987509 1202.267229 321.227929 
C 1199.026809 324.468348 1197.206105 328.863917 1197.206105 333.446562 
C 1197.206105 338.029208 1199.026809 342.424777 1202.267229 345.665196 
C 1205.507648 348.905616 1209.903217 350.72632 1214.485863 350.72632 
z
" clip-path="url(#p3c8ff38fbf)" style="fill: #919fb7; stroke: #919fb7; stroke-width: 2"/>
    <path d="M 803.101463 350.526476 
C 807.631109 350.526476 811.975842 348.726829 815.178785 345.523885 
C 818.381729 342.320942 820.181376 337.976209 820.181376 333.446562 
C 820.181376 328.916916 818.381729 324.572183 815.178785 321.36924 
C 811.975842 318.166296 807.631109 316.366649 803.101463 316.366649 
C 798.571816 316.366649 794.227083 318.166296 791.02414 321.36924 
C 787.821196 324.572183 786.021549 328.916916 786.021549 333.446562 
C 786.021549 337.976209 787.821196 342.320942 791.02414 345.523885 
C 794.227083 348.726829 798.571816 350.526476 803.101463 350.526476 
z
" clip-path="url(#p3c8ff38fbf)" style="fill: #b09e95; stroke: #b09e95; stroke-width: 2"/>
    <path d="M 803.101463 305.187696 
C 807.183842 305.187696 811.099566 303.56575 813.986244 300.679072 
C 816.872922 297.792394 818.494869 293.876669 818.494869 289.79429 
C 818.494869 285.711911 816.872922 281.796186 813.986244 278.909508 
C 811.099566 276.02283 807.183842 274.400884 803.101463 274.400884 
C 799.019083 274.400884 795.103359 276.02283 792.216681 278.909508 
C 789.330003 281.796186 787.708056 285.711911 787.708056 289.79429 
C 787.708056 293.876669 789.330003 297.792394 792.216681 300.679072 
C 795.103359 303.56575 799.019083 305.187696 803.101463 305.187696 
z
" clip-path="url(#p3c8ff38fbf)" style="fill: #b09e95; stroke: #b09e95; stroke-width: 2"/>
    <path d="M 1096.947463 303.44782 
C 1100.568421 303.44782 1104.041562 302.009198 1106.601966 299.448793 
C 1109.16237 296.888389 1110.600992 293.415248 1110.600992 289.79429 
C 1110.600992 286.173331 1109.16237 282.700191 1106.601966 280.139786 
C 1104.041562 277.579382 1100.568421 276.14076 1096.947463 276.14076 
C 1093.326504 276.14076 1089.853363 277.579382 1087.292959 280.139786 
C 1084.732555 282.700191 1083.293933 286.173331 1083.293933 289.79429 
C 1083.293933 293.415248 1084.732555 296.888389 1087.292959 299.448793 
C 1089.853363 302.009198 1093.326504 303.44782 1096.947463 303.44782 
z
" clip-path="url(#p3c8ff38fbf)" style="fill: #ada19a; stroke: #ada19a; stroke-width: 2"/>
    <path d="M 1273.255063 265.768628 
C 1278.460101 265.768628 1283.452655 263.700645 1287.133172 260.020127 
C 1290.81369 256.339609 1292.881674 251.347055 1292.881674 246.142017 
C 1292.881674 240.936979 1290.81369 235.944425 1287.133172 232.263907 
C 1283.452655 228.583389 1278.460101 226.515406 1273.255063 226.515406 
C 1268.050024 226.515406 1263.05747 228.583389 1259.376953 232.263907 
C 1255.696435 235.944425 1253.628451 240.936979 1253.628451 246.142017 
C 1253.628451 251.347055 1255.696435 256.339609 1259.376953 260.020127 
C 1263.05747 263.700645 1268.050024 265.768628 1273.255063 265.768628 
z
" clip-path="url(#p3c8ff38fbf)" style="fill: #9fa4ad; stroke: #9fa4ad; stroke-width: 2"/>
    <path d="M 1332.024263 270.823871 
C 1338.569967 270.823871 1344.848457 268.223235 1349.476969 263.594724 
C 1354.105481 258.966212 1356.706117 252.687721 1356.706117 246.142017 
C 1356.706117 239.596313 1354.105481 233.317822 1349.476969 228.689311 
C 1344.848457 224.060799 1338.569967 221.460163 1332.024263 221.460163 
C 1325.478558 221.460163 1319.200068 224.060799 1314.571556 228.689311 
C 1309.943044 233.317822 1307.342408 239.596313 1307.342408 246.142017 
C 1307.342408 252.687721 1309.943044 258.966212 1314.571556 263.594724 
C 1319.200068 268.223235 1325.478558 270.823871 1332.024263 270.823871 
z
" clip-path="url(#p3c8ff38fbf)" style="fill: #b56c56; stroke: #b56c56; stroke-width: 2"/>
    <path d="M 1038.178263 268.37905 
C 1044.075593 268.37905 1049.732177 266.036016 1053.902219 261.865974 
C 1058.072261 257.695932 1060.415296 252.039347 1060.415296 246.142017 
C 1060.415296 240.244687 1058.072261 234.588102 1053.902219 230.41806 
C 1049.732177 226.248018 1044.075593 223.904984 1038.178263 223.904984 
C 1032.280932 223.904984 1026.624348 226.248018 1022.454306 230.41806 
C 1018.284264 234.588102 1015.941229 240.244687 1015.941229 246.142017 
C 1015.941229 252.039347 1018.284264 257.695932 1022.454306 261.865974 
C 1026.624348 266.036016 1032.280932 268.37905 1038.178263 268.37905 
z
" clip-path="url(#p3c8ff38fbf)" style="fill: #b98974; stroke: #b98974; stroke-width: 2"/>
    <path d="M 1390.793463 263.029027 
C 1395.27195 263.029027 1399.567613 261.249705 1402.734381 258.082936 
C 1405.90115 254.916167 1407.680472 250.620504 1407.680472 246.142017 
C 1407.680472 241.66353 1405.90115 237.367867 1402.734381 234.201098 
C 1399.567613 231.034329 1395.27195 229.255008 1390.793463 229.255008 
C 1386.314975 229.255008 1382.019312 231.034329 1378.852544 234.201098 
C 1375.685775 237.367867 1373.906453 241.66353 1373.906453 246.142017 
C 1373.906453 250.620504 1375.685775 254.916167 1378.852544 258.082936 
C 1382.019312 261.249705 1386.314975 263.029027 1390.793463 263.029027 
z
" clip-path="url(#p3c8ff38fbf)" style="fill: #5e78bb; stroke: #5e78bb; stroke-width: 2"/>
    <path d="M 1449.562662 271.230048 
C 1456.216086 271.230048 1462.597898 268.586615 1467.302579 263.881934 
C 1472.00726 259.177253 1474.650694 252.795441 1474.650694 246.142017 
C 1474.650694 239.488593 1472.00726 233.106781 1467.302579 228.4021 
C 1462.597898 223.697419 1456.216086 221.053986 1449.562662 221.053986 
C 1442.909239 221.053986 1436.527427 223.697419 1431.822746 228.4021 
C 1427.118065 233.106781 1424.474631 239.488593 1424.474631 246.142017 
C 1424.474631 252.795441 1427.118065 259.177253 1431.822746 263.881934 
C 1436.527427 268.586615 1442.909239 271.230048 1449.562662 271.230048 
z
" clip-path="url(#p3c8ff38fbf)" style="fill: #ab5140; stroke: #ab5140; stroke-width: 2"/>
    <path d="M 568.024662 267.522035 
C 573.694709 267.522035 579.133289 265.269301 583.142618 261.259972 
C 587.151947 257.250644 589.40468 251.812064 589.40468 246.142017 
C 589.40468 240.47197 587.151947 235.03339 583.142618 231.024062 
C 579.133289 227.014733 573.694709 224.761999 568.024662 224.761999 
C 562.354616 224.761999 556.916036 227.014733 552.906707 231.024062 
C 548.897378 235.03339 546.644645 240.47197 546.644645 246.142017 
C 546.644645 251.812064 548.897378 257.250644 552.906707 261.259972 
C 556.916036 265.269301 562.354616 267.522035 568.024662 267.522035 
z
" clip-path="url(#p3c8ff38fbf)" style="fill: #b66f58; stroke: #b66f58; stroke-width: 2"/>
    <path d="M 920.639863 272.135342 
C 927.533373 272.135342 934.145471 269.396521 939.019919 264.522073 
C 943.894366 259.647625 946.633187 253.035527 946.633187 246.142017 
C 946.633187 239.248507 943.894366 232.636409 939.019919 227.761961 
C 934.145471 222.887513 927.533373 220.148692 920.639863 220.148692 
C 913.746352 220.148692 907.134254 222.887513 902.259806 227.761961 
C 897.385359 232.636409 894.646538 239.248507 894.646538 246.142017 
C 894.646538 253.035527 897.385359 259.647625 902.259806 264.522073 
C 907.134254 269.396521 913.746352 272.135342 920.639863 272.135342 
z
" clip-path="url(#p3c8ff38fbf)" style="fill: #b87962; stroke: #b87962; stroke-width: 2"/>
    <path d="M 1508.331863 261.00395 
C 1512.273293 261.00395 1516.053824 259.438003 1518.840836 256.650991 
C 1521.627849 253.863978 1523.193796 250.083448 1523.193796 246.142017 
C 1523.193796 242.200586 1521.627849 238.420056 1518.840836 235.633043 
C 1516.053824 232.846031 1512.273293 231.280084 1508.331863 231.280084 
C 1504.390432 231.280084 1500.609901 232.846031 1497.822889 235.633043 
C 1495.035876 238.420056 1493.469929 242.200586 1493.469929 246.142017 
C 1493.469929 250.083448 1495.035876 253.863978 1497.822889 256.650991 
C 1500.609901 259.438003 1504.390432 261.00395 1508.331863 261.00395 
z
" clip-path="url(#p3c8ff38fbf)" style="fill: #9da4ae; stroke: #9da4ae; stroke-width: 2"/>
    <path d="M 391.717063 217.386065 
C 395.667613 217.386065 399.456891 215.816495 402.250352 213.023034 
C 405.043813 210.229573 406.613383 206.440295 406.613383 202.489744 
C 406.613383 198.539194 405.043813 194.749916 402.250352 191.956455 
C 399.456891 189.162994 395.667613 187.593424 391.717063 187.593424 
C 387.766512 187.593424 383.977234 189.162994 381.183773 191.956455 
C 378.390312 194.749916 376.820742 198.539194 376.820742 202.489744 
C 376.820742 206.440295 378.390312 210.229573 381.183773 213.023034 
C 383.977234 215.816495 387.766512 217.386065 391.717063 217.386065 
z
" clip-path="url(#p3c8ff38fbf)" style="fill: #8598bd; stroke: #8598bd; stroke-width: 2"/>
    <path d="M 685.563063 219.191638 
C 689.992456 219.191638 694.24103 217.431821 697.373085 214.299766 
C 700.505139 211.167712 702.264956 206.919138 702.264956 202.489744 
C 702.264956 198.06035 700.505139 193.811777 697.373085 190.679722 
C 694.24103 187.547668 689.992456 185.787851 685.563063 185.787851 
C 681.133669 185.787851 676.885095 187.547668 673.75304 190.679722 
C 670.620986 193.811777 668.861169 198.06035 668.861169 202.489744 
C 668.861169 206.919138 670.620986 211.167712 673.75304 214.299766 
C 676.885095 217.431821 681.133669 219.191638 685.563063 219.191638 
z
" clip-path="url(#p3c8ff38fbf)" style="fill: #4f69b4; stroke: #4f69b4; stroke-width: 2"/>
    <path d="M 1567.101063 216.589842 
C 1570.840452 216.589842 1574.42719 215.104167 1577.071337 212.460019 
C 1579.715485 209.815871 1581.20116 206.229134 1581.20116 202.489744 
C 1581.20116 198.750355 1579.715485 195.163617 1577.071337 192.51947 
C 1574.42719 189.875322 1570.840452 188.389646 1567.101063 188.389646 
C 1563.361673 188.389646 1559.774935 189.875322 1557.130788 192.51947 
C 1554.48664 195.163617 1553.000965 198.750355 1553.000965 202.489744 
C 1553.000965 206.229134 1554.48664 209.815871 1557.130788 212.460019 
C 1559.774935 215.104167 1563.361673 216.589842 1567.101063 216.589842 
z
" clip-path="url(#p3c8ff38fbf)" style="fill: #758ebf; stroke: #758ebf; stroke-width: 2"/>
    <path d="M 1625.870263 226.308606 
C 1632.187098 226.308606 1638.246064 223.7989 1642.712741 219.332223 
C 1647.179419 214.865545 1649.689124 208.80658 1649.689124 202.489744 
C 1649.689124 196.172908 1647.179419 190.113943 1642.712741 185.647266 
C 1638.246064 181.180588 1632.187098 178.670883 1625.870263 178.670883 
C 1619.553427 178.670883 1613.494461 181.180588 1609.027784 185.647266 
C 1604.561106 190.113943 1602.051401 196.172908 1602.051401 202.489744 
C 1602.051401 208.80658 1604.561106 214.865545 1609.027784 219.332223 
C 1613.494461 223.7989 1619.553427 226.308606 1625.870263 226.308606 
z
" clip-path="url(#p3c8ff38fbf)" style="fill: #b5998a; stroke: #b5998a; stroke-width: 2"/>
    <path d="M 1508.331863 224.918131 
C 1514.27994 224.918131 1519.985201 222.554935 1524.191127 218.349009 
C 1528.397053 214.143083 1530.760249 208.437822 1530.760249 202.489744 
C 1530.760249 196.541667 1528.397053 190.836406 1524.191127 186.63048 
C 1519.985201 182.424554 1514.27994 180.061358 1508.331863 180.061358 
C 1502.383785 180.061358 1496.678524 182.424554 1492.472598 186.63048 
C 1488.266672 190.836406 1485.903476 196.541667 1485.903476 202.489744 
C 1485.903476 208.437822 1488.266672 214.143083 1492.472598 218.349009 
C 1496.678524 222.554935 1502.383785 224.918131 1508.331863 224.918131 
z
" clip-path="url(#p3c8ff38fbf)" style="fill: #9da4ae; stroke: #9da4ae; stroke-width: 2"/>
    <path d="M 1155.716663 221.675212 
C 1160.804708 221.675212 1165.685046 219.65371 1169.282837 216.055919 
C 1172.880629 212.458127 1174.902131 207.57779 1174.902131 202.489744 
C 1174.902131 197.401699 1172.880629 192.521361 1169.282837 188.92357 
C 1165.685046 185.325778 1160.804708 183.304276 1155.716663 183.304276 
C 1150.628617 183.304276 1145.748279 185.325778 1142.150488 188.92357 
C 1138.552696 192.521361 1136.531194 197.401699 1136.531194 202.489744 
C 1136.531194 207.57779 1138.552696 212.458127 1142.150488 216.055919 
C 1145.748279 219.65371 1150.628617 221.675212 1155.716663 221.675212 
z
" clip-path="url(#p3c8ff38fbf)" style="fill: #a8a4a2; stroke: #a8a4a2; stroke-width: 2"/>
    <path d="M 332.947863 220.42385 
C 337.704043 220.42385 342.266063 218.5342 345.62919 215.171072 
C 348.992318 211.807945 350.881968 207.245925 350.881968 202.489744 
C 350.881968 197.733564 348.992318 193.171544 345.62919 189.808416 
C 342.266063 186.445289 337.704043 184.555638 332.947863 184.555638 
C 328.191682 184.555638 323.629662 186.445289 320.266535 189.808416 
C 316.903407 193.171544 315.013757 197.733564 315.013757 202.489744 
C 315.013757 207.245925 316.903407 211.807945 320.266535 215.171072 
C 323.629662 218.5342 328.191682 220.42385 332.947863 220.42385 
z
" clip-path="url(#p3c8ff38fbf)" style="fill: #b66d57; stroke: #b66d57; stroke-width: 2"/>
    <path d="M 626.793863 215.952376 
C 630.364194 215.952376 633.788775 214.533868 636.313381 212.009263 
C 638.837987 209.484657 640.256494 206.060076 640.256494 202.489744 
C 640.256494 198.919413 638.837987 195.494832 636.313381 192.970226 
C 633.788775 190.44562 630.364194 189.027112 626.793863 189.027112 
C 623.223531 189.027112 619.79895 190.44562 617.274344 192.970226 
C 614.749738 195.494832 613.331231 198.919413 613.331231 202.489744 
C 613.331231 206.060076 614.749738 209.484657 617.274344 212.009263 
C 619.79895 214.533868 623.223531 215.952376 626.793863 215.952376 
z
" clip-path="url(#p3c8ff38fbf)" style="fill: #af9f97; stroke: #af9f97; stroke-width: 2"/>
    <path d="M 1096.947463 217.506929 
C 1100.930066 217.506929 1104.750089 215.924623 1107.566215 213.108497 
C 1110.382342 210.292371 1111.964647 206.472348 1111.964647 202.489744 
C 1111.964647 198.50714 1110.382342 194.687118 1107.566215 191.870991 
C 1104.750089 189.054865 1100.930066 187.47256 1096.947463 187.47256 
C 1092.964859 187.47256 1089.144836 189.054865 1086.32871 191.870991 
C 1083.512583 194.687118 1081.930278 198.50714 1081.930278 202.489744 
C 1081.930278 206.472348 1083.512583 210.292371 1086.32871 213.108497 
C 1089.144836 215.924623 1092.964859 217.506929 1096.947463 217.506929 
z
" clip-path="url(#p3c8ff38fbf)" style="fill: #ada19a; stroke: #ada19a; stroke-width: 2"/>
    <path d="M 626.793863 172.439564 
C 630.40118 172.439564 633.861236 171.006362 636.411994 168.455603 
C 638.962753 165.904845 640.395955 162.444789 640.395955 158.837472 
C 640.395955 155.230154 638.962753 151.770098 636.411994 149.21934 
C 633.861236 146.668581 630.40118 145.235379 626.793863 145.235379 
C 623.186545 145.235379 619.726489 146.668581 617.175731 149.21934 
C 614.624972 151.770098 613.19177 155.230154 613.19177 158.837472 
C 613.19177 162.444789 614.624972 165.904845 617.175731 168.455603 
C 619.726489 171.006362 623.186545 172.439564 626.793863 172.439564 
z
" clip-path="url(#p3c8ff38fbf)" style="fill: #af9f97; stroke: #af9f97; stroke-width: 2"/>
    <path d="M 1684.639463 176.915453 
C 1689.433799 176.915453 1694.032418 175.010643 1697.422526 171.620535 
C 1700.812634 168.230427 1702.717444 163.631808 1702.717444 158.837472 
C 1702.717444 154.043135 1700.812634 149.444516 1697.422526 146.054408 
C 1694.032418 142.6643 1689.433799 140.75949 1684.639463 140.75949 
C 1679.845126 140.75949 1675.246507 142.6643 1671.856399 146.054408 
C 1668.466291 149.444516 1666.561481 154.043135 1666.561481 158.837472 
C 1666.561481 163.631808 1668.466291 168.230427 1671.856399 171.620535 
C 1675.246507 175.010643 1679.845126 176.915453 1684.639463 176.915453 
z
" clip-path="url(#p3c8ff38fbf)" style="fill: #b49a8d; stroke: #b49a8d; stroke-width: 2"/>
   </g>
   <g id="patch_8">
    <path d="M 244.794063 525.516562 
L 244.794063 141.376562 
" style="fill: none; stroke: #000000; stroke-width: 0.8; stroke-linejoin: miter; stroke-linecap: square"/>
   </g>
   <g id="patch_9">
    <path d="M 1714.024063 525.516562 
L 1714.024063 141.376562 
" style="fill: none; stroke: #000000; stroke-width: 0.8; stroke-linejoin: miter; stroke-linecap: square"/>
   </g>
   <g id="patch_10">
    <path d="M 244.794063 525.516562 
L 1714.024063 525.516562 
" style="fill: none; stroke: #000000; stroke-width: 0.8; stroke-linejoin: miter; stroke-linecap: square"/>
   </g>
   <g id="patch_11">
    <path d="M 244.794063 141.376562 
L 1714.024063 141.376562 
" style="fill: none; stroke: #000000; stroke-width: 0.8; stroke-linejoin: miter; stroke-linecap: square"/>
   </g>
   <g id="text_36">
    <text style="font: 32px 'Arial', sans-serif; text-anchor: middle" x="274.178663" y="516.328153" transform="rotate(-0 274.178663 516.328153)">0.9</text>
   </g>
   <g id="text_37">
    <text style="font: 32px 'Arial', sans-serif; text-anchor: middle" x="332.947863" y="516.328153" transform="rotate(-0 332.947863 516.328153)">2.3</text>
   </g>
   <g id="text_38">
    <text style="font: 32px 'Arial', sans-serif; text-anchor: middle" x="391.717063" y="472.675881" transform="rotate(-0 391.717063 472.675881)">1.2</text>
   </g>
   <g id="text_39">
    <text style="font: 32px 'Arial', sans-serif; text-anchor: middle" x="450.486263" y="472.675881" transform="rotate(-0 450.486263 472.675881)">1.2</text>
   </g>
   <g id="text_40">
    <text style="font: 32px 'Arial', sans-serif; text-anchor: middle" x="509.255463" y="472.675881" transform="rotate(-0 509.255463 472.675881)">1.0</text>
   </g>
   <g id="text_41">
    <text style="font: 32px 'Arial', sans-serif; text-anchor: middle" x="568.024662" y="472.675881" transform="rotate(-0 568.024662 472.675881)">0.8</text>
   </g>
   <g id="text_42">
    <text style="font: 32px 'Arial', sans-serif; text-anchor: middle" x="626.793863" y="429.023608" transform="rotate(-0 626.793863 429.023608)">0.8</text>
   </g>
   <g id="text_43">
    <text style="font: 32px 'Arial', sans-serif; text-anchor: middle" x="391.717063" y="429.023608" transform="rotate(-0 391.717063 429.023608)">0.9</text>
   </g>
   <g id="text_44">
    <text style="font: 32px 'Arial', sans-serif; text-anchor: middle" x="568.024662" y="429.023608" transform="rotate(-0 568.024662 429.023608)">0.8</text>
   </g>
   <g id="text_45">
    <text style="font: 32px 'Arial', sans-serif; text-anchor: middle" x="685.563063" y="385.371335" transform="rotate(-0 685.563063 385.371335)">0.9</text>
   </g>
   <g id="text_46">
    <text style="font: 32px 'Arial', sans-serif; text-anchor: middle" x="744.332263" y="385.371335" transform="rotate(-0 744.332263 385.371335)">2.2</text>
   </g>
   <g id="text_47">
    <text style="font: 32px 'Arial', sans-serif; text-anchor: middle" x="803.101463" y="385.371335" transform="rotate(-0 803.101463 385.371335)">1.0</text>
   </g>
   <g id="text_48">
    <text style="font: 32px 'Arial', sans-serif; text-anchor: middle" x="861.870662" y="385.371335" transform="rotate(-0 861.870662 385.371335)">2.3</text>
   </g>
   <g id="text_49">
    <text style="font: 32px 'Arial', sans-serif; text-anchor: middle" x="920.639863" y="385.371335" transform="rotate(-0 920.639863 385.371335)">0.8</text>
   </g>
   <g id="text_50">
    <text style="font: 32px 'Arial', sans-serif; text-anchor: middle" x="979.409063" y="385.371335" transform="rotate(-0 979.409063 385.371335)">1.1</text>
   </g>
   <g id="text_51">
    <text style="font: 32px 'Arial', sans-serif; text-anchor: middle" x="1038.178263" y="385.371335" transform="rotate(-0 1038.178263 385.371335)">0.8</text>
   </g>
   <g id="text_52">
    <text style="font: 32px 'Arial', sans-serif; text-anchor: middle" x="1096.947463" y="341.719062" transform="rotate(-0 1096.947463 341.719062)">1.1</text>
   </g>
   <g id="text_53">
    <text style="font: 32px 'Arial', sans-serif; text-anchor: middle" x="1155.716663" y="341.719062" transform="rotate(-0 1155.716663 341.719062)">1.0</text>
   </g>
   <g id="text_54">
    <text style="font: 32px 'Arial', sans-serif; text-anchor: middle" x="626.793863" y="341.719062" transform="rotate(-0 626.793863 341.719062)">0.9</text>
   </g>
   <g id="text_55">
    <text style="font: 32px 'Arial', sans-serif; text-anchor: middle" x="391.717063" y="341.719062" transform="rotate(-0 391.717063 341.719062)">1.0</text>
   </g>
   <g id="text_56">
    <text style="font: 32px 'Arial', sans-serif; text-anchor: middle" x="1214.485863" y="341.719062" transform="rotate(-0 1214.485863 341.719062)">1.2</text>
   </g>
   <g id="text_57">
    <text style="font: 32px 'Arial', sans-serif; text-anchor: middle" x="803.101463" y="341.719062" transform="rotate(-0 803.101463 341.719062)">1.2</text>
   </g>
   <g id="text_58">
    <text style="font: 32px 'Arial', sans-serif; text-anchor: middle" x="803.101463" y="298.06679" transform="rotate(-0 803.101463 298.06679)">0.9</text>
   </g>
   <g id="text_59">
    <text style="font: 32px 'Arial', sans-serif; text-anchor: middle" x="1096.947463" y="298.06679" transform="rotate(-0 1096.947463 298.06679)">0.7</text>
   </g>
   <g id="text_60">
    <text style="font: 32px 'Arial', sans-serif; text-anchor: middle" x="1273.255063" y="254.414517" transform="rotate(-0 1273.255063 254.414517)">1.5</text>
   </g>
   <g id="text_61">
    <text style="font: 32px 'Arial', sans-serif; text-anchor: middle" x="1332.024263" y="254.414517" transform="rotate(-0 1332.024263 254.414517)">2.4</text>
   </g>
   <g id="text_62">
    <text style="font: 32px 'Arial', sans-serif; text-anchor: middle" x="1038.178263" y="254.414517" transform="rotate(-0 1038.178263 254.414517)">2.0</text>
   </g>
   <g id="text_63">
    <text style="font: 32px 'Arial', sans-serif; text-anchor: middle" x="1390.793463" y="254.414517" transform="rotate(-0 1390.793463 254.414517)">1.1</text>
   </g>
   <g id="text_64">
    <text style="font: 32px 'Arial', sans-serif; text-anchor: middle" x="1449.562662" y="254.414517" transform="rotate(-0 1449.562662 254.414517)">2.5</text>
   </g>
   <g id="text_65">
    <text style="font: 32px 'Arial', sans-serif; text-anchor: middle" x="568.024662" y="254.414517" transform="rotate(-0 568.024662 254.414517)">1.8</text>
   </g>
   <g id="text_66">
    <text style="font: 32px 'Arial', sans-serif; text-anchor: middle" x="920.639863" y="254.414517" transform="rotate(-0 920.639863 254.414517)">2.7</text>
   </g>
   <g id="text_67">
    <text style="font: 32px 'Arial', sans-serif; text-anchor: middle" x="1508.331863" y="254.414517" transform="rotate(-0 1508.331863 254.414517)">0.9</text>
   </g>
   <g id="text_68">
    <text style="font: 32px 'Arial', sans-serif; text-anchor: middle" x="391.717063" y="210.762244" transform="rotate(-0 391.717063 210.762244)">0.9</text>
   </g>
   <g id="text_69">
    <text style="font: 32px 'Arial', sans-serif; text-anchor: middle" x="685.563063" y="210.762244" transform="rotate(-0 685.563063 210.762244)">1.1</text>
   </g>
   <g id="text_70">
    <text style="font: 32px 'Arial', sans-serif; text-anchor: middle" x="1567.101063" y="210.762244" transform="rotate(-0 1567.101063 210.762244)">0.8</text>
   </g>
   <g id="text_71">
    <text style="font: 32px 'Arial', sans-serif; text-anchor: middle" x="1625.870263" y="210.762244" transform="rotate(-0 1625.870263 210.762244)">2.3</text>
   </g>
   <g id="text_72">
    <text style="font: 32px 'Arial', sans-serif; text-anchor: middle" x="1508.331863" y="210.762244" transform="rotate(-0 1508.331863 210.762244)">2.0</text>
   </g>
   <g id="text_73">
    <text style="font: 32px 'Arial', sans-serif; text-anchor: middle" x="1155.716663" y="210.762244" transform="rotate(-0 1155.716663 210.762244)">1.5</text>
   </g>
   <g id="text_74">
    <text style="font: 32px 'Arial', sans-serif; text-anchor: middle" x="332.947863" y="210.762244" transform="rotate(-0 332.947863 210.762244)">1.3</text>
   </g>
   <g id="text_75">
    <text style="font: 32px 'Arial', sans-serif; text-anchor: middle" x="626.793863" y="210.762244" transform="rotate(-0 626.793863 210.762244)">0.7</text>
   </g>
   <g id="text_76">
    <text style="font: 32px 'Arial', sans-serif; text-anchor: middle" x="1096.947463" y="210.762244" transform="rotate(-0 1096.947463 210.762244)">0.9</text>
   </g>
   <g id="text_77">
    <text style="font: 32px 'Arial', sans-serif; text-anchor: middle" x="626.793863" y="167.109972" transform="rotate(-0 626.793863 167.109972)">0.7</text>
   </g>
   <g id="text_78">
    <text style="font: 32px 'Arial', sans-serif; text-anchor: middle" x="1684.639463" y="167.109972" transform="rotate(-0 1684.639463 167.109972)">1.3</text>
   </g>
  </g>
 </g>
 <defs>
  <clipPath id="p3c8ff38fbf">
   <rect x="244.794063" y="141.376562" width="1469.23" height="384.14"/>
  </clipPath>
 </defs>
</svg>
