<?xml version="1.0" encoding="utf-8" standalone="no"?>
<!DOCTYPE svg PUBLIC "-//W3C//DTD SVG 1.1//EN"
  "http://www.w3.org/Graphics/SVG/1.1/DTD/svg11.dtd">
<svg xmlns:xlink="http://www.w3.org/1999/xlink" width="600.004274pt" height="424.05975pt" viewBox="0 0 600.004274 424.05975" xmlns="http://www.w3.org/2000/svg" version="1.1">
 <metadata>
  <rdf:RDF xmlns:dc="http://purl.org/dc/elements/1.1/" xmlns:cc="http://creativecommons.org/ns#" xmlns:rdf="http://www.w3.org/1999/02/22-rdf-syntax-ns#">
   <cc:Work>
    <dc:type rdf:resource="http://purl.org/dc/dcmitype/StillImage"/>
    <dc:date>2026-05-20T23:10:38.296349</dc:date>
    <dc:format>image/svg+xml</dc:format>
    <dc:creator>
     <cc:Agent>
      <dc:title>Matplotlib v3.7.3, https://matplotlib.org/</dc:title>
     </cc:Agent>
    </dc:creator>
   </cc:Work>
  </rdf:RDF>
 </metadata>
 <defs>
  <style type="text/css">*{stroke-linejoin: round; stroke-linecap: butt}</style>
 </defs>
 <g id="figure_1">
  <g id="patch_1">
   <path d="M 0 424.05975 
L 600.004274 424.05975 
L 600.004274 0 
L 0 0 
L 0 424.05975 
z
" style="fill: none"/>
  </g>
  <g id="axes_1">
   <g id="patch_2">
    <path d="M 31.319688 366.9235 
L 592.748778 366.9235 
L 592.748778 65.337 
L 31.319688 65.337 
L 31.319688 366.9235 
z
" style="fill: none"/>
   </g>
   <g id="matplotlib.axis_1">
    <g id="xtick_1">
     <g id="line2d_1">
      <defs>
       <path id="m90347b402b" d="M 0 0 
L 0 3.5 
" style="stroke: #000000; stroke-width: 0.8"/>
      </defs>
      <g>
       <use xlink:href="#m90347b402b" x="56.839192" y="366.9235" style="stroke: #000000; stroke-width: 0.8"/>
      </g>
     </g>
     <g id="text_1">
      <!-- 1 -->
      <g transform="translate(51.278254 388.239125) scale(0.2 -0.2)">
       <defs>
        <path id="ArialMT-31" d="M 2384 0 
L 1822 0 
L 1822 3584 
Q 1619 3391 1289 3197 
Q 959 3003 697 2906 
L 697 3450 
Q 1169 3672 1522 3987 
Q 1875 4303 2022 4600 
L 2384 4600 
L 2384 0 
z
" transform="scale(0.015625)"/>
       </defs>
       <use xlink:href="#ArialMT-31"/>
      </g>
     </g>
    </g>
    <g id="xtick_2">
     <g id="line2d_2">
      <g>
       <use xlink:href="#m90347b402b" x="90.865197" y="366.9235" style="stroke: #000000; stroke-width: 0.8"/>
      </g>
     </g>
     <g id="text_2">
      <!-- 2 -->
      <g transform="translate(85.30426 388.239125) scale(0.2 -0.2)">
       <defs>
        <path id="ArialMT-32" d="M 3222 541 
L 3222 0 
L 194 0 
Q 188 203 259 391 
Q 375 700 629 1000 
Q 884 1300 1366 1694 
Q 2113 2306 2375 2664 
Q 2638 3022 2638 3341 
Q 2638 3675 2398 3904 
Q 2159 4134 1775 4134 
Q 1369 4134 1125 3890 
Q 881 3647 878 3216 
L 300 3275 
Q 359 3922 746 4261 
Q 1134 4600 1788 4600 
Q 2447 4600 2831 4234 
Q 3216 3869 3216 3328 
Q 3216 3053 3103 2787 
Q 2991 2522 2730 2228 
Q 2469 1934 1863 1422 
Q 1356 997 1212 845 
Q 1069 694 975 541 
L 3222 541 
z
" transform="scale(0.015625)"/>
       </defs>
       <use xlink:href="#ArialMT-32"/>
      </g>
     </g>
    </g>
    <g id="xtick_3">
     <g id="line2d_3">
      <g>
       <use xlink:href="#m90347b402b" x="124.891203" y="366.9235" style="stroke: #000000; stroke-width: 0.8"/>
      </g>
     </g>
     <g id="text_3">
      <!-- 3 -->
      <g transform="translate(119.330265 388.239125) scale(0.2 -0.2)">
       <defs>
        <path id="ArialMT-33" d="M 269 1209 
L 831 1284 
Q 928 806 1161 595 
Q 1394 384 1728 384 
Q 2125 384 2398 659 
Q 2672 934 2672 1341 
Q 2672 1728 2419 1979 
Q 2166 2231 1775 2231 
Q 1616 2231 1378 2169 
L 1441 2663 
Q 1497 2656 1531 2656 
Q 1891 2656 2178 2843 
Q 2466 3031 2466 3422 
Q 2466 3731 2256 3934 
Q 2047 4138 1716 4138 
Q 1388 4138 1169 3931 
Q 950 3725 888 3313 
L 325 3413 
Q 428 3978 793 4289 
Q 1159 4600 1703 4600 
Q 2078 4600 2393 4439 
Q 2709 4278 2876 4000 
Q 3044 3722 3044 3409 
Q 3044 3113 2884 2869 
Q 2725 2625 2413 2481 
Q 2819 2388 3044 2092 
Q 3269 1797 3269 1353 
Q 3269 753 2831 336 
Q 2394 -81 1725 -81 
Q 1122 -81 723 278 
Q 325 638 269 1209 
z
" transform="scale(0.015625)"/>
       </defs>
       <use xlink:href="#ArialMT-33"/>
      </g>
     </g>
    </g>
    <g id="xtick_4">
     <g id="line2d_4">
      <g>
       <use xlink:href="#m90347b402b" x="158.917208" y="366.9235" style="stroke: #000000; stroke-width: 0.8"/>
      </g>
     </g>
     <g id="text_4">
      <!-- 4 -->
      <g transform="translate(153.356271 388.239125) scale(0.2 -0.2)">
       <defs>
        <path id="ArialMT-34" d="M 2069 0 
L 2069 1097 
L 81 1097 
L 81 1613 
L 2172 4581 
L 2631 4581 
L 2631 1613 
L 3250 1613 
L 3250 1097 
L 2631 1097 
L 2631 0 
L 2069 0 
z
M 2069 1613 
L 2069 3678 
L 634 1613 
L 2069 1613 
z
" transform="scale(0.015625)"/>
       </defs>
       <use xlink:href="#ArialMT-34"/>
      </g>
     </g>
    </g>
    <g id="xtick_5">
     <g id="line2d_5">
      <g>
       <use xlink:href="#m90347b402b" x="192.943214" y="366.9235" style="stroke: #000000; stroke-width: 0.8"/>
      </g>
     </g>
     <g id="text_5">
      <!-- 5 -->
      <g transform="translate(187.382276 388.239125) scale(0.2 -0.2)">
       <defs>
        <path id="ArialMT-35" d="M 266 1200 
L 856 1250 
Q 922 819 1161 601 
Q 1400 384 1738 384 
Q 2144 384 2425 690 
Q 2706 997 2706 1503 
Q 2706 1984 2436 2262 
Q 2166 2541 1728 2541 
Q 1456 2541 1237 2417 
Q 1019 2294 894 2097 
L 366 2166 
L 809 4519 
L 3088 4519 
L 3088 3981 
L 1259 3981 
L 1013 2750 
Q 1425 3038 1878 3038 
Q 2478 3038 2890 2622 
Q 3303 2206 3303 1553 
Q 3303 931 2941 478 
Q 2500 -78 1738 -78 
Q 1113 -78 717 272 
Q 322 622 266 1200 
z
" transform="scale(0.015625)"/>
       </defs>
       <use xlink:href="#ArialMT-35"/>
      </g>
     </g>
    </g>
    <g id="xtick_6">
     <g id="line2d_6">
      <g>
       <use xlink:href="#m90347b402b" x="226.969219" y="366.9235" style="stroke: #000000; stroke-width: 0.8"/>
      </g>
     </g>
     <g id="text_6">
      <!-- 6 -->
      <g transform="translate(221.408282 388.239125) scale(0.2 -0.2)">
       <defs>
        <path id="ArialMT-36" d="M 3184 3459 
L 2625 3416 
Q 2550 3747 2413 3897 
Q 2184 4138 1850 4138 
Q 1581 4138 1378 3988 
Q 1113 3794 959 3422 
Q 806 3050 800 2363 
Q 1003 2672 1297 2822 
Q 1591 2972 1913 2972 
Q 2475 2972 2870 2558 
Q 3266 2144 3266 1488 
Q 3266 1056 3080 686 
Q 2894 316 2569 119 
Q 2244 -78 1831 -78 
Q 1128 -78 684 439 
Q 241 956 241 2144 
Q 241 3472 731 4075 
Q 1159 4600 1884 4600 
Q 2425 4600 2770 4297 
Q 3116 3994 3184 3459 
z
M 888 1484 
Q 888 1194 1011 928 
Q 1134 663 1356 523 
Q 1578 384 1822 384 
Q 2178 384 2434 671 
Q 2691 959 2691 1453 
Q 2691 1928 2437 2201 
Q 2184 2475 1800 2475 
Q 1419 2475 1153 2201 
Q 888 1928 888 1484 
z
" transform="scale(0.015625)"/>
       </defs>
       <use xlink:href="#ArialMT-36"/>
      </g>
     </g>
    </g>
    <g id="xtick_7">
     <g id="line2d_7">
      <g>
       <use xlink:href="#m90347b402b" x="260.995225" y="366.9235" style="stroke: #000000; stroke-width: 0.8"/>
      </g>
     </g>
     <g id="text_7">
      <!-- 7 -->
      <g transform="translate(255.434287 388.239125) scale(0.2 -0.2)">
       <defs>
        <path id="ArialMT-37" d="M 303 3981 
L 303 4522 
L 3269 4522 
L 3269 4084 
Q 2831 3619 2401 2847 
Q 1972 2075 1738 1259 
Q 1569 684 1522 0 
L 944 0 
Q 953 541 1156 1306 
Q 1359 2072 1739 2783 
Q 2119 3494 2547 3981 
L 303 3981 
z
" transform="scale(0.015625)"/>
       </defs>
       <use xlink:href="#ArialMT-37"/>
      </g>
     </g>
    </g>
    <g id="xtick_8">
     <g id="line2d_8">
      <g>
       <use xlink:href="#m90347b402b" x="295.02123" y="366.9235" style="stroke: #000000; stroke-width: 0.8"/>
      </g>
     </g>
     <g id="text_8">
      <!-- 8 -->
      <g transform="translate(289.460293 388.239125) scale(0.2 -0.2)">
       <defs>
        <path id="ArialMT-38" d="M 1131 2484 
Q 781 2613 612 2850 
Q 444 3088 444 3419 
Q 444 3919 803 4259 
Q 1163 4600 1759 4600 
Q 2359 4600 2725 4251 
Q 3091 3903 3091 3403 
Q 3091 3084 2923 2848 
Q 2756 2613 2416 2484 
Q 2838 2347 3058 2040 
Q 3278 1734 3278 1309 
Q 3278 722 2862 322 
Q 2447 -78 1769 -78 
Q 1091 -78 675 323 
Q 259 725 259 1325 
Q 259 1772 486 2073 
Q 713 2375 1131 2484 
z
M 1019 3438 
Q 1019 3113 1228 2906 
Q 1438 2700 1772 2700 
Q 2097 2700 2305 2904 
Q 2513 3109 2513 3406 
Q 2513 3716 2298 3927 
Q 2084 4138 1766 4138 
Q 1444 4138 1231 3931 
Q 1019 3725 1019 3438 
z
M 838 1322 
Q 838 1081 952 856 
Q 1066 631 1291 507 
Q 1516 384 1775 384 
Q 2178 384 2440 643 
Q 2703 903 2703 1303 
Q 2703 1709 2433 1975 
Q 2163 2241 1756 2241 
Q 1359 2241 1098 1978 
Q 838 1716 838 1322 
z
" transform="scale(0.015625)"/>
       </defs>
       <use xlink:href="#ArialMT-38"/>
      </g>
     </g>
    </g>
    <g id="xtick_9">
     <g id="line2d_9">
      <g>
       <use xlink:href="#m90347b402b" x="329.047236" y="366.9235" style="stroke: #000000; stroke-width: 0.8"/>
      </g>
     </g>
     <g id="text_9">
      <!-- 9 -->
      <g transform="translate(323.486298 388.239125) scale(0.2 -0.2)">
       <defs>
        <path id="ArialMT-39" d="M 350 1059 
L 891 1109 
Q 959 728 1153 556 
Q 1347 384 1650 384 
Q 1909 384 2104 503 
Q 2300 622 2425 820 
Q 2550 1019 2634 1356 
Q 2719 1694 2719 2044 
Q 2719 2081 2716 2156 
Q 2547 1888 2255 1720 
Q 1963 1553 1622 1553 
Q 1053 1553 659 1965 
Q 266 2378 266 3053 
Q 266 3750 677 4175 
Q 1088 4600 1706 4600 
Q 2153 4600 2523 4359 
Q 2894 4119 3086 3673 
Q 3278 3228 3278 2384 
Q 3278 1506 3087 986 
Q 2897 466 2520 194 
Q 2144 -78 1638 -78 
Q 1100 -78 759 220 
Q 419 519 350 1059 
z
M 2653 3081 
Q 2653 3566 2395 3850 
Q 2138 4134 1775 4134 
Q 1400 4134 1122 3828 
Q 844 3522 844 3034 
Q 844 2597 1108 2323 
Q 1372 2050 1759 2050 
Q 2150 2050 2401 2323 
Q 2653 2597 2653 3081 
z
" transform="scale(0.015625)"/>
       </defs>
       <use xlink:href="#ArialMT-39"/>
      </g>
     </g>
    </g>
    <g id="xtick_10">
     <g id="line2d_10">
      <g>
       <use xlink:href="#m90347b402b" x="363.073241" y="366.9235" style="stroke: #000000; stroke-width: 0.8"/>
      </g>
     </g>
     <g id="text_10">
      <!-- 10 -->
      <g transform="translate(351.951366 388.239125) scale(0.2 -0.2)">
       <defs>
        <path id="ArialMT-30" d="M 266 2259 
Q 266 3072 433 3567 
Q 600 4063 929 4331 
Q 1259 4600 1759 4600 
Q 2128 4600 2406 4451 
Q 2684 4303 2865 4023 
Q 3047 3744 3150 3342 
Q 3253 2941 3253 2259 
Q 3253 1453 3087 958 
Q 2922 463 2592 192 
Q 2263 -78 1759 -78 
Q 1097 -78 719 397 
Q 266 969 266 2259 
z
M 844 2259 
Q 844 1131 1108 757 
Q 1372 384 1759 384 
Q 2147 384 2411 759 
Q 2675 1134 2675 2259 
Q 2675 3391 2411 3762 
Q 2147 4134 1753 4134 
Q 1366 4134 1134 3806 
Q 844 3388 844 2259 
z
" transform="scale(0.015625)"/>
       </defs>
       <use xlink:href="#ArialMT-31"/>
       <use xlink:href="#ArialMT-30" x="55.615234"/>
      </g>
     </g>
    </g>
    <g id="xtick_11">
     <g id="line2d_11">
      <g>
       <use xlink:href="#m90347b402b" x="397.099247" y="366.9235" style="stroke: #000000; stroke-width: 0.8"/>
      </g>
     </g>
     <g id="text_11">
      <!-- 11 -->
      <g transform="translate(386.714872 388.239125) scale(0.2 -0.2)">
       <use xlink:href="#ArialMT-31"/>
       <use xlink:href="#ArialMT-31" x="48.240234"/>
      </g>
     </g>
    </g>
    <g id="xtick_12">
     <g id="line2d_12">
      <g>
       <use xlink:href="#m90347b402b" x="431.125252" y="366.9235" style="stroke: #000000; stroke-width: 0.8"/>
      </g>
     </g>
     <g id="text_12">
      <!-- 12 -->
      <g transform="translate(420.003377 388.239125) scale(0.2 -0.2)">
       <use xlink:href="#ArialMT-31"/>
       <use xlink:href="#ArialMT-32" x="55.615234"/>
      </g>
     </g>
    </g>
    <g id="xtick_13">
     <g id="line2d_13">
      <g>
       <use xlink:href="#m90347b402b" x="465.151258" y="366.9235" style="stroke: #000000; stroke-width: 0.8"/>
      </g>
     </g>
     <g id="text_13">
      <!-- 13 -->
      <g transform="translate(454.029383 388.239125) scale(0.2 -0.2)">
       <use xlink:href="#ArialMT-31"/>
       <use xlink:href="#ArialMT-33" x="55.615234"/>
      </g>
     </g>
    </g>
    <g id="xtick_14">
     <g id="line2d_14">
      <g>
       <use xlink:href="#m90347b402b" x="499.177263" y="366.9235" style="stroke: #000000; stroke-width: 0.8"/>
      </g>
     </g>
     <g id="text_14">
      <!-- 14 -->
      <g transform="translate(488.055388 388.239125) scale(0.2 -0.2)">
       <use xlink:href="#ArialMT-31"/>
       <use xlink:href="#ArialMT-34" x="55.615234"/>
      </g>
     </g>
    </g>
    <g id="xtick_15">
     <g id="line2d_15">
      <g>
       <use xlink:href="#m90347b402b" x="533.203269" y="366.9235" style="stroke: #000000; stroke-width: 0.8"/>
      </g>
     </g>
     <g id="text_15">
      <!-- 15 -->
      <g transform="translate(522.081394 388.239125) scale(0.2 -0.2)">
       <use xlink:href="#ArialMT-31"/>
       <use xlink:href="#ArialMT-35" x="55.615234"/>
      </g>
     </g>
    </g>
    <g id="xtick_16">
     <g id="line2d_16">
      <g>
       <use xlink:href="#m90347b402b" x="567.229274" y="366.9235" style="stroke: #000000; stroke-width: 0.8"/>
      </g>
     </g>
     <g id="text_16">
      <!-- 16 -->
      <g transform="translate(556.107399 388.239125) scale(0.2 -0.2)">
       <use xlink:href="#ArialMT-31"/>
       <use xlink:href="#ArialMT-36" x="55.615234"/>
      </g>
     </g>
    </g>
    <g id="text_17">
     <!-- Number of Drugs Received -->
     <g transform="translate(179.375952 412.229438) scale(0.22 -0.22)">
      <defs>
       <path id="ArialMT-4e" d="M 488 0 
L 488 4581 
L 1109 4581 
L 3516 984 
L 3516 4581 
L 4097 4581 
L 4097 0 
L 3475 0 
L 1069 3600 
L 1069 0 
L 488 0 
z
" transform="scale(0.015625)"/>
       <path id="ArialMT-75" d="M 2597 0 
L 2597 488 
Q 2209 -75 1544 -75 
Q 1250 -75 995 37 
Q 741 150 617 320 
Q 494 491 444 738 
Q 409 903 409 1263 
L 409 3319 
L 972 3319 
L 972 1478 
Q 972 1038 1006 884 
Q 1059 663 1231 536 
Q 1403 409 1656 409 
Q 1909 409 2131 539 
Q 2353 669 2445 892 
Q 2538 1116 2538 1541 
L 2538 3319 
L 3100 3319 
L 3100 0 
L 2597 0 
z
" transform="scale(0.015625)"/>
       <path id="ArialMT-6d" d="M 422 0 
L 422 3319 
L 925 3319 
L 925 2853 
Q 1081 3097 1340 3245 
Q 1600 3394 1931 3394 
Q 2300 3394 2536 3241 
Q 2772 3088 2869 2813 
Q 3263 3394 3894 3394 
Q 4388 3394 4653 3120 
Q 4919 2847 4919 2278 
L 4919 0 
L 4359 0 
L 4359 2091 
Q 4359 2428 4304 2576 
Q 4250 2725 4106 2815 
Q 3963 2906 3769 2906 
Q 3419 2906 3187 2673 
Q 2956 2441 2956 1928 
L 2956 0 
L 2394 0 
L 2394 2156 
Q 2394 2531 2256 2718 
Q 2119 2906 1806 2906 
Q 1569 2906 1367 2781 
Q 1166 2656 1075 2415 
Q 984 2175 984 1722 
L 984 0 
L 422 0 
z
" transform="scale(0.015625)"/>
       <path id="ArialMT-62" d="M 941 0 
L 419 0 
L 419 4581 
L 981 4581 
L 981 2947 
Q 1338 3394 1891 3394 
Q 2197 3394 2470 3270 
Q 2744 3147 2920 2923 
Q 3097 2700 3197 2384 
Q 3297 2069 3297 1709 
Q 3297 856 2875 390 
Q 2453 -75 1863 -75 
Q 1275 -75 941 416 
L 941 0 
z
M 934 1684 
Q 934 1088 1097 822 
Q 1363 388 1816 388 
Q 2184 388 2453 708 
Q 2722 1028 2722 1663 
Q 2722 2313 2464 2622 
Q 2206 2931 1841 2931 
Q 1472 2931 1203 2611 
Q 934 2291 934 1684 
z
" transform="scale(0.015625)"/>
       <path id="ArialMT-65" d="M 2694 1069 
L 3275 997 
Q 3138 488 2766 206 
Q 2394 -75 1816 -75 
Q 1088 -75 661 373 
Q 234 822 234 1631 
Q 234 2469 665 2931 
Q 1097 3394 1784 3394 
Q 2450 3394 2872 2941 
Q 3294 2488 3294 1666 
Q 3294 1616 3291 1516 
L 816 1516 
Q 847 969 1125 678 
Q 1403 388 1819 388 
Q 2128 388 2347 550 
Q 2566 713 2694 1069 
z
M 847 1978 
L 2700 1978 
Q 2663 2397 2488 2606 
Q 2219 2931 1791 2931 
Q 1403 2931 1139 2672 
Q 875 2413 847 1978 
z
" transform="scale(0.015625)"/>
       <path id="ArialMT-72" d="M 416 0 
L 416 3319 
L 922 3319 
L 922 2816 
Q 1116 3169 1280 3281 
Q 1444 3394 1641 3394 
Q 1925 3394 2219 3213 
L 2025 2691 
Q 1819 2813 1613 2813 
Q 1428 2813 1281 2702 
Q 1134 2591 1072 2394 
Q 978 2094 978 1738 
L 978 0 
L 416 0 
z
" transform="scale(0.015625)"/>
       <path id="ArialMT-20" transform="scale(0.015625)"/>
       <path id="ArialMT-6f" d="M 213 1659 
Q 213 2581 725 3025 
Q 1153 3394 1769 3394 
Q 2453 3394 2887 2945 
Q 3322 2497 3322 1706 
Q 3322 1066 3130 698 
Q 2938 331 2570 128 
Q 2203 -75 1769 -75 
Q 1072 -75 642 372 
Q 213 819 213 1659 
z
M 791 1659 
Q 791 1022 1069 705 
Q 1347 388 1769 388 
Q 2188 388 2466 706 
Q 2744 1025 2744 1678 
Q 2744 2294 2464 2611 
Q 2184 2928 1769 2928 
Q 1347 2928 1069 2612 
Q 791 2297 791 1659 
z
" transform="scale(0.015625)"/>
       <path id="ArialMT-66" d="M 556 0 
L 556 2881 
L 59 2881 
L 59 3319 
L 556 3319 
L 556 3672 
Q 556 4006 616 4169 
Q 697 4388 901 4523 
Q 1106 4659 1475 4659 
Q 1713 4659 2000 4603 
L 1916 4113 
Q 1741 4144 1584 4144 
Q 1328 4144 1222 4034 
Q 1116 3925 1116 3625 
L 1116 3319 
L 1763 3319 
L 1763 2881 
L 1116 2881 
L 1116 0 
L 556 0 
z
" transform="scale(0.015625)"/>
       <path id="ArialMT-44" d="M 494 0 
L 494 4581 
L 2072 4581 
Q 2606 4581 2888 4516 
Q 3281 4425 3559 4188 
Q 3922 3881 4101 3404 
Q 4281 2928 4281 2316 
Q 4281 1794 4159 1391 
Q 4038 988 3847 723 
Q 3656 459 3429 307 
Q 3203 156 2883 78 
Q 2563 0 2147 0 
L 494 0 
z
M 1100 541 
L 2078 541 
Q 2531 541 2789 625 
Q 3047 709 3200 863 
Q 3416 1078 3536 1442 
Q 3656 1806 3656 2325 
Q 3656 3044 3420 3430 
Q 3184 3816 2847 3947 
Q 2603 4041 2063 4041 
L 1100 4041 
L 1100 541 
z
" transform="scale(0.015625)"/>
       <path id="ArialMT-67" d="M 319 -275 
L 866 -356 
Q 900 -609 1056 -725 
Q 1266 -881 1628 -881 
Q 2019 -881 2231 -725 
Q 2444 -569 2519 -288 
Q 2563 -116 2559 434 
Q 2191 0 1641 0 
Q 956 0 581 494 
Q 206 988 206 1678 
Q 206 2153 378 2554 
Q 550 2956 876 3175 
Q 1203 3394 1644 3394 
Q 2231 3394 2613 2919 
L 2613 3319 
L 3131 3319 
L 3131 450 
Q 3131 -325 2973 -648 
Q 2816 -972 2473 -1159 
Q 2131 -1347 1631 -1347 
Q 1038 -1347 672 -1080 
Q 306 -813 319 -275 
z
M 784 1719 
Q 784 1066 1043 766 
Q 1303 466 1694 466 
Q 2081 466 2343 764 
Q 2606 1063 2606 1700 
Q 2606 2309 2336 2618 
Q 2066 2928 1684 2928 
Q 1309 2928 1046 2623 
Q 784 2319 784 1719 
z
" transform="scale(0.015625)"/>
       <path id="ArialMT-73" d="M 197 991 
L 753 1078 
Q 800 744 1014 566 
Q 1228 388 1613 388 
Q 2000 388 2187 545 
Q 2375 703 2375 916 
Q 2375 1106 2209 1216 
Q 2094 1291 1634 1406 
Q 1016 1563 777 1677 
Q 538 1791 414 1992 
Q 291 2194 291 2438 
Q 291 2659 392 2848 
Q 494 3038 669 3163 
Q 800 3259 1026 3326 
Q 1253 3394 1513 3394 
Q 1903 3394 2198 3281 
Q 2494 3169 2634 2976 
Q 2775 2784 2828 2463 
L 2278 2388 
Q 2241 2644 2061 2787 
Q 1881 2931 1553 2931 
Q 1166 2931 1000 2803 
Q 834 2675 834 2503 
Q 834 2394 903 2306 
Q 972 2216 1119 2156 
Q 1203 2125 1616 2013 
Q 2213 1853 2448 1751 
Q 2684 1650 2818 1456 
Q 2953 1263 2953 975 
Q 2953 694 2789 445 
Q 2625 197 2315 61 
Q 2006 -75 1616 -75 
Q 969 -75 630 194 
Q 291 463 197 991 
z
" transform="scale(0.015625)"/>
       <path id="ArialMT-52" d="M 503 0 
L 503 4581 
L 2534 4581 
Q 3147 4581 3465 4457 
Q 3784 4334 3975 4021 
Q 4166 3709 4166 3331 
Q 4166 2844 3850 2509 
Q 3534 2175 2875 2084 
Q 3116 1969 3241 1856 
Q 3506 1613 3744 1247 
L 4541 0 
L 3778 0 
L 3172 953 
Q 2906 1366 2734 1584 
Q 2563 1803 2427 1890 
Q 2291 1978 2150 2013 
Q 2047 2034 1813 2034 
L 1109 2034 
L 1109 0 
L 503 0 
z
M 1109 2559 
L 2413 2559 
Q 2828 2559 3062 2645 
Q 3297 2731 3419 2920 
Q 3541 3109 3541 3331 
Q 3541 3656 3305 3865 
Q 3069 4075 2559 4075 
L 1109 4075 
L 1109 2559 
z
" transform="scale(0.015625)"/>
       <path id="ArialMT-63" d="M 2588 1216 
L 3141 1144 
Q 3050 572 2676 248 
Q 2303 -75 1759 -75 
Q 1078 -75 664 370 
Q 250 816 250 1647 
Q 250 2184 428 2587 
Q 606 2991 970 3192 
Q 1334 3394 1763 3394 
Q 2303 3394 2647 3120 
Q 2991 2847 3088 2344 
L 2541 2259 
Q 2463 2594 2264 2762 
Q 2066 2931 1784 2931 
Q 1359 2931 1093 2626 
Q 828 2322 828 1663 
Q 828 994 1084 691 
Q 1341 388 1753 388 
Q 2084 388 2306 591 
Q 2528 794 2588 1216 
z
" transform="scale(0.015625)"/>
       <path id="ArialMT-69" d="M 425 3934 
L 425 4581 
L 988 4581 
L 988 3934 
L 425 3934 
z
M 425 0 
L 425 3319 
L 988 3319 
L 988 0 
L 425 0 
z
" transform="scale(0.015625)"/>
       <path id="ArialMT-76" d="M 1344 0 
L 81 3319 
L 675 3319 
L 1388 1331 
Q 1503 1009 1600 663 
Q 1675 925 1809 1294 
L 2547 3319 
L 3125 3319 
L 1869 0 
L 1344 0 
z
" transform="scale(0.015625)"/>
       <path id="ArialMT-64" d="M 2575 0 
L 2575 419 
Q 2259 -75 1647 -75 
Q 1250 -75 917 144 
Q 584 363 401 755 
Q 219 1147 219 1656 
Q 219 2153 384 2558 
Q 550 2963 881 3178 
Q 1213 3394 1622 3394 
Q 1922 3394 2156 3267 
Q 2391 3141 2538 2938 
L 2538 4581 
L 3097 4581 
L 3097 0 
L 2575 0 
z
M 797 1656 
Q 797 1019 1065 703 
Q 1334 388 1700 388 
Q 2069 388 2326 689 
Q 2584 991 2584 1609 
Q 2584 2291 2321 2609 
Q 2059 2928 1675 2928 
Q 1300 2928 1048 2622 
Q 797 2316 797 1656 
z
" transform="scale(0.015625)"/>
      </defs>
      <use xlink:href="#ArialMT-4e"/>
      <use xlink:href="#ArialMT-75" x="72.216797"/>
      <use xlink:href="#ArialMT-6d" x="127.832031"/>
      <use xlink:href="#ArialMT-62" x="211.132812"/>
      <use xlink:href="#ArialMT-65" x="266.748047"/>
      <use xlink:href="#ArialMT-72" x="322.363281"/>
      <use xlink:href="#ArialMT-20" x="355.664062"/>
      <use xlink:href="#ArialMT-6f" x="383.447266"/>
      <use xlink:href="#ArialMT-66" x="439.0625"/>
      <use xlink:href="#ArialMT-20" x="466.845703"/>
      <use xlink:href="#ArialMT-44" x="494.628906"/>
      <use xlink:href="#ArialMT-72" x="566.845703"/>
      <use xlink:href="#ArialMT-75" x="600.146484"/>
      <use xlink:href="#ArialMT-67" x="655.761719"/>
      <use xlink:href="#ArialMT-73" x="711.376953"/>
      <use xlink:href="#ArialMT-20" x="761.376953"/>
      <use xlink:href="#ArialMT-52" x="789.160156"/>
      <use xlink:href="#ArialMT-65" x="861.376953"/>
      <use xlink:href="#ArialMT-63" x="916.992188"/>
      <use xlink:href="#ArialMT-65" x="966.992188"/>
      <use xlink:href="#ArialMT-69" x="1022.607422"/>
      <use xlink:href="#ArialMT-76" x="1044.824219"/>
      <use xlink:href="#ArialMT-65" x="1094.824219"/>
      <use xlink:href="#ArialMT-64" x="1150.439453"/>
     </g>
    </g>
   </g>
   <g id="matplotlib.axis_2">
    <g id="text_18">
     <!-- Cumulative % of Patients -->
     <g transform="translate(22.947188 339.015719) rotate(-90) scale(0.22 -0.22)">
      <defs>
       <path id="ArialMT-43" d="M 3763 1606 
L 4369 1453 
Q 4178 706 3683 314 
Q 3188 -78 2472 -78 
Q 1731 -78 1267 223 
Q 803 525 561 1097 
Q 319 1669 319 2325 
Q 319 3041 592 3573 
Q 866 4106 1370 4382 
Q 1875 4659 2481 4659 
Q 3169 4659 3637 4309 
Q 4106 3959 4291 3325 
L 3694 3184 
Q 3534 3684 3231 3912 
Q 2928 4141 2469 4141 
Q 1941 4141 1586 3887 
Q 1231 3634 1087 3207 
Q 944 2781 944 2328 
Q 944 1744 1114 1308 
Q 1284 872 1643 656 
Q 2003 441 2422 441 
Q 2931 441 3284 734 
Q 3638 1028 3763 1606 
z
" transform="scale(0.015625)"/>
       <path id="ArialMT-6c" d="M 409 0 
L 409 4581 
L 972 4581 
L 972 0 
L 409 0 
z
" transform="scale(0.015625)"/>
       <path id="ArialMT-61" d="M 2588 409 
Q 2275 144 1986 34 
Q 1697 -75 1366 -75 
Q 819 -75 525 192 
Q 231 459 231 875 
Q 231 1119 342 1320 
Q 453 1522 633 1644 
Q 813 1766 1038 1828 
Q 1203 1872 1538 1913 
Q 2219 1994 2541 2106 
Q 2544 2222 2544 2253 
Q 2544 2597 2384 2738 
Q 2169 2928 1744 2928 
Q 1347 2928 1158 2789 
Q 969 2650 878 2297 
L 328 2372 
Q 403 2725 575 2942 
Q 747 3159 1072 3276 
Q 1397 3394 1825 3394 
Q 2250 3394 2515 3294 
Q 2781 3194 2906 3042 
Q 3031 2891 3081 2659 
Q 3109 2516 3109 2141 
L 3109 1391 
Q 3109 606 3145 398 
Q 3181 191 3288 0 
L 2700 0 
Q 2613 175 2588 409 
z
M 2541 1666 
Q 2234 1541 1622 1453 
Q 1275 1403 1131 1340 
Q 988 1278 909 1158 
Q 831 1038 831 891 
Q 831 666 1001 516 
Q 1172 366 1500 366 
Q 1825 366 2078 508 
Q 2331 650 2450 897 
Q 2541 1088 2541 1459 
L 2541 1666 
z
" transform="scale(0.015625)"/>
       <path id="ArialMT-74" d="M 1650 503 
L 1731 6 
Q 1494 -44 1306 -44 
Q 1000 -44 831 53 
Q 663 150 594 308 
Q 525 466 525 972 
L 525 2881 
L 113 2881 
L 113 3319 
L 525 3319 
L 525 4141 
L 1084 4478 
L 1084 3319 
L 1650 3319 
L 1650 2881 
L 1084 2881 
L 1084 941 
Q 1084 700 1114 631 
Q 1144 563 1211 522 
Q 1278 481 1403 481 
Q 1497 481 1650 503 
z
" transform="scale(0.015625)"/>
       <path id="ArialMT-25" d="M 372 3481 
Q 372 3972 619 4315 
Q 866 4659 1334 4659 
Q 1766 4659 2048 4351 
Q 2331 4044 2331 3447 
Q 2331 2866 2045 2552 
Q 1759 2238 1341 2238 
Q 925 2238 648 2547 
Q 372 2856 372 3481 
z
M 1350 4272 
Q 1141 4272 1002 4090 
Q 863 3909 863 3425 
Q 863 2984 1003 2804 
Q 1144 2625 1350 2625 
Q 1563 2625 1702 2806 
Q 1841 2988 1841 3469 
Q 1841 3913 1700 4092 
Q 1559 4272 1350 4272 
z
M 1353 -169 
L 3859 4659 
L 4316 4659 
L 1819 -169 
L 1353 -169 
z
M 3334 1075 
Q 3334 1569 3581 1911 
Q 3828 2253 4300 2253 
Q 4731 2253 5014 1945 
Q 5297 1638 5297 1041 
Q 5297 459 5011 145 
Q 4725 -169 4303 -169 
Q 3888 -169 3611 142 
Q 3334 453 3334 1075 
z
M 4316 1866 
Q 4103 1866 3964 1684 
Q 3825 1503 3825 1019 
Q 3825 581 3965 400 
Q 4106 219 4313 219 
Q 4528 219 4667 400 
Q 4806 581 4806 1063 
Q 4806 1506 4665 1686 
Q 4525 1866 4316 1866 
z
" transform="scale(0.015625)"/>
       <path id="ArialMT-50" d="M 494 0 
L 494 4581 
L 2222 4581 
Q 2678 4581 2919 4538 
Q 3256 4481 3484 4323 
Q 3713 4166 3852 3881 
Q 3991 3597 3991 3256 
Q 3991 2672 3619 2267 
Q 3247 1863 2275 1863 
L 1100 1863 
L 1100 0 
L 494 0 
z
M 1100 2403 
L 2284 2403 
Q 2872 2403 3119 2622 
Q 3366 2841 3366 3238 
Q 3366 3525 3220 3729 
Q 3075 3934 2838 4000 
Q 2684 4041 2272 4041 
L 1100 4041 
L 1100 2403 
z
" transform="scale(0.015625)"/>
       <path id="ArialMT-6e" d="M 422 0 
L 422 3319 
L 928 3319 
L 928 2847 
Q 1294 3394 1984 3394 
Q 2284 3394 2536 3286 
Q 2788 3178 2913 3003 
Q 3038 2828 3088 2588 
Q 3119 2431 3119 2041 
L 3119 0 
L 2556 0 
L 2556 2019 
Q 2556 2363 2490 2533 
Q 2425 2703 2258 2804 
Q 2091 2906 1866 2906 
Q 1506 2906 1245 2678 
Q 984 2450 984 1813 
L 984 0 
L 422 0 
z
" transform="scale(0.015625)"/>
      </defs>
      <use xlink:href="#ArialMT-43"/>
      <use xlink:href="#ArialMT-75" x="72.216797"/>
      <use xlink:href="#ArialMT-6d" x="127.832031"/>
      <use xlink:href="#ArialMT-75" x="211.132812"/>
      <use xlink:href="#ArialMT-6c" x="266.748047"/>
      <use xlink:href="#ArialMT-61" x="288.964844"/>
      <use xlink:href="#ArialMT-74" x="344.580078"/>
      <use xlink:href="#ArialMT-69" x="372.363281"/>
      <use xlink:href="#ArialMT-76" x="394.580078"/>
      <use xlink:href="#ArialMT-65" x="444.580078"/>
      <use xlink:href="#ArialMT-20" x="500.195312"/>
      <use xlink:href="#ArialMT-25" x="527.978516"/>
      <use xlink:href="#ArialMT-20" x="616.894531"/>
      <use xlink:href="#ArialMT-6f" x="644.677734"/>
      <use xlink:href="#ArialMT-66" x="700.292969"/>
      <use xlink:href="#ArialMT-20" x="728.076172"/>
      <use xlink:href="#ArialMT-50" x="755.859375"/>
      <use xlink:href="#ArialMT-61" x="822.558594"/>
      <use xlink:href="#ArialMT-74" x="878.173828"/>
      <use xlink:href="#ArialMT-69" x="905.957031"/>
      <use xlink:href="#ArialMT-65" x="928.173828"/>
      <use xlink:href="#ArialMT-6e" x="983.789062"/>
      <use xlink:href="#ArialMT-74" x="1039.404297"/>
      <use xlink:href="#ArialMT-73" x="1067.1875"/>
     </g>
    </g>
   </g>
   <g id="line2d_17">
    <path d="M 56.839192 353.215023 
L 56.839192 290.746012 
L 90.865197 289.589179 
L 90.865197 276.86401 
L 124.891203 275.707177 
L 124.891203 241.002171 
L 158.917208 239.845337 
L 158.917208 214.395 
L 192.943214 213.238166 
L 192.943214 186.630995 
L 226.969219 185.474162 
L 226.969219 165.807992 
L 260.995225 164.651158 
L 260.995225 143.828155 
L 295.02123 142.671321 
L 295.02123 119.534651 
L 329.047236 118.377817 
L 329.047236 107.966315 
L 363.073241 106.809482 
L 363.073241 98.711647 
L 397.099247 97.554814 
L 397.099247 94.084313 
L 431.125252 92.92748 
L 431.125252 83.672811 
L 465.151258 82.515978 
L 533.203269 81.359144 
L 533.203269 80.202311 
L 567.229274 79.045477 
L 567.229274 79.045477 
" clip-path="url(#pdae261d80c)" style="fill: none; stroke: #1f77b4; stroke-width: 1.5; stroke-linecap: square"/>
    <defs>
     <path id="m3e838a8cb3" d="M 0 3 
C 0.795609 3 1.55874 2.683901 2.12132 2.12132 
C 2.683901 1.55874 3 0.795609 3 0 
C 3 -0.795609 2.683901 -1.55874 2.12132 -2.12132 
C 1.55874 -2.683901 0.795609 -3 0 -3 
C -0.795609 -3 -1.55874 -2.683901 -2.12132 -2.12132 
C -2.683901 -1.55874 -3 -0.795609 -3 0 
C -3 0.795609 -2.683901 1.55874 -2.12132 2.12132 
C -1.55874 2.683901 -0.795609 3 0 3 
z
" style="stroke: #1f77b4"/>
    </defs>
    <g clip-path="url(#pdae261d80c)">
     <use xlink:href="#m3e838a8cb3" x="56.839192" y="353.215023" style="fill: #1f77b4; stroke: #1f77b4"/>
     <use xlink:href="#m3e838a8cb3" x="56.839192" y="352.058189" style="fill: #1f77b4; stroke: #1f77b4"/>
     <use xlink:href="#m3e838a8cb3" x="56.839192" y="350.901356" style="fill: #1f77b4; stroke: #1f77b4"/>
     <use xlink:href="#m3e838a8cb3" x="56.839192" y="349.744522" style="fill: #1f77b4; stroke: #1f77b4"/>
     <use xlink:href="#m3e838a8cb3" x="56.839192" y="348.587689" style="fill: #1f77b4; stroke: #1f77b4"/>
     <use xlink:href="#m3e838a8cb3" x="56.839192" y="347.430855" style="fill: #1f77b4; stroke: #1f77b4"/>
     <use xlink:href="#m3e838a8cb3" x="56.839192" y="346.274022" style="fill: #1f77b4; stroke: #1f77b4"/>
     <use xlink:href="#m3e838a8cb3" x="56.839192" y="345.117188" style="fill: #1f77b4; stroke: #1f77b4"/>
     <use xlink:href="#m3e838a8cb3" x="56.839192" y="343.960355" style="fill: #1f77b4; stroke: #1f77b4"/>
     <use xlink:href="#m3e838a8cb3" x="56.839192" y="342.803521" style="fill: #1f77b4; stroke: #1f77b4"/>
     <use xlink:href="#m3e838a8cb3" x="56.839192" y="341.646687" style="fill: #1f77b4; stroke: #1f77b4"/>
     <use xlink:href="#m3e838a8cb3" x="56.839192" y="340.489854" style="fill: #1f77b4; stroke: #1f77b4"/>
     <use xlink:href="#m3e838a8cb3" x="56.839192" y="339.33302" style="fill: #1f77b4; stroke: #1f77b4"/>
     <use xlink:href="#m3e838a8cb3" x="56.839192" y="338.176187" style="fill: #1f77b4; stroke: #1f77b4"/>
     <use xlink:href="#m3e838a8cb3" x="56.839192" y="337.019353" style="fill: #1f77b4; stroke: #1f77b4"/>
     <use xlink:href="#m3e838a8cb3" x="56.839192" y="335.86252" style="fill: #1f77b4; stroke: #1f77b4"/>
     <use xlink:href="#m3e838a8cb3" x="56.839192" y="334.705686" style="fill: #1f77b4; stroke: #1f77b4"/>
     <use xlink:href="#m3e838a8cb3" x="56.839192" y="333.548853" style="fill: #1f77b4; stroke: #1f77b4"/>
     <use xlink:href="#m3e838a8cb3" x="56.839192" y="332.392019" style="fill: #1f77b4; stroke: #1f77b4"/>
     <use xlink:href="#m3e838a8cb3" x="56.839192" y="331.235186" style="fill: #1f77b4; stroke: #1f77b4"/>
     <use xlink:href="#m3e838a8cb3" x="56.839192" y="330.078352" style="fill: #1f77b4; stroke: #1f77b4"/>
     <use xlink:href="#m3e838a8cb3" x="56.839192" y="328.921519" style="fill: #1f77b4; stroke: #1f77b4"/>
     <use xlink:href="#m3e838a8cb3" x="56.839192" y="327.764685" style="fill: #1f77b4; stroke: #1f77b4"/>
     <use xlink:href="#m3e838a8cb3" x="56.839192" y="326.607852" style="fill: #1f77b4; stroke: #1f77b4"/>
     <use xlink:href="#m3e838a8cb3" x="56.839192" y="325.451018" style="fill: #1f77b4; stroke: #1f77b4"/>
     <use xlink:href="#m3e838a8cb3" x="56.839192" y="324.294185" style="fill: #1f77b4; stroke: #1f77b4"/>
     <use xlink:href="#m3e838a8cb3" x="56.839192" y="323.137351" style="fill: #1f77b4; stroke: #1f77b4"/>
     <use xlink:href="#m3e838a8cb3" x="56.839192" y="321.980518" style="fill: #1f77b4; stroke: #1f77b4"/>
     <use xlink:href="#m3e838a8cb3" x="56.839192" y="320.823684" style="fill: #1f77b4; stroke: #1f77b4"/>
     <use xlink:href="#m3e838a8cb3" x="56.839192" y="319.66685" style="fill: #1f77b4; stroke: #1f77b4"/>
     <use xlink:href="#m3e838a8cb3" x="56.839192" y="318.510017" style="fill: #1f77b4; stroke: #1f77b4"/>
     <use xlink:href="#m3e838a8cb3" x="56.839192" y="317.353183" style="fill: #1f77b4; stroke: #1f77b4"/>
     <use xlink:href="#m3e838a8cb3" x="56.839192" y="316.19635" style="fill: #1f77b4; stroke: #1f77b4"/>
     <use xlink:href="#m3e838a8cb3" x="56.839192" y="315.039516" style="fill: #1f77b4; stroke: #1f77b4"/>
     <use xlink:href="#m3e838a8cb3" x="56.839192" y="313.882683" style="fill: #1f77b4; stroke: #1f77b4"/>
     <use xlink:href="#m3e838a8cb3" x="56.839192" y="312.725849" style="fill: #1f77b4; stroke: #1f77b4"/>
     <use xlink:href="#m3e838a8cb3" x="56.839192" y="311.569016" style="fill: #1f77b4; stroke: #1f77b4"/>
     <use xlink:href="#m3e838a8cb3" x="56.839192" y="310.412182" style="fill: #1f77b4; stroke: #1f77b4"/>
     <use xlink:href="#m3e838a8cb3" x="56.839192" y="309.255349" style="fill: #1f77b4; stroke: #1f77b4"/>
     <use xlink:href="#m3e838a8cb3" x="56.839192" y="308.098515" style="fill: #1f77b4; stroke: #1f77b4"/>
     <use xlink:href="#m3e838a8cb3" x="56.839192" y="306.941682" style="fill: #1f77b4; stroke: #1f77b4"/>
     <use xlink:href="#m3e838a8cb3" x="56.839192" y="305.784848" style="fill: #1f77b4; stroke: #1f77b4"/>
     <use xlink:href="#m3e838a8cb3" x="56.839192" y="304.628015" style="fill: #1f77b4; stroke: #1f77b4"/>
     <use xlink:href="#m3e838a8cb3" x="56.839192" y="303.471181" style="fill: #1f77b4; stroke: #1f77b4"/>
     <use xlink:href="#m3e838a8cb3" x="56.839192" y="302.314348" style="fill: #1f77b4; stroke: #1f77b4"/>
     <use xlink:href="#m3e838a8cb3" x="56.839192" y="301.157514" style="fill: #1f77b4; stroke: #1f77b4"/>
     <use xlink:href="#m3e838a8cb3" x="56.839192" y="300.000681" style="fill: #1f77b4; stroke: #1f77b4"/>
     <use xlink:href="#m3e838a8cb3" x="56.839192" y="298.843847" style="fill: #1f77b4; stroke: #1f77b4"/>
     <use xlink:href="#m3e838a8cb3" x="56.839192" y="297.687014" style="fill: #1f77b4; stroke: #1f77b4"/>
     <use xlink:href="#m3e838a8cb3" x="56.839192" y="296.53018" style="fill: #1f77b4; stroke: #1f77b4"/>
     <use xlink:href="#m3e838a8cb3" x="56.839192" y="295.373346" style="fill: #1f77b4; stroke: #1f77b4"/>
     <use xlink:href="#m3e838a8cb3" x="56.839192" y="294.216513" style="fill: #1f77b4; stroke: #1f77b4"/>
     <use xlink:href="#m3e838a8cb3" x="56.839192" y="293.059679" style="fill: #1f77b4; stroke: #1f77b4"/>
     <use xlink:href="#m3e838a8cb3" x="56.839192" y="291.902846" style="fill: #1f77b4; stroke: #1f77b4"/>
     <use xlink:href="#m3e838a8cb3" x="56.839192" y="290.746012" style="fill: #1f77b4; stroke: #1f77b4"/>
     <use xlink:href="#m3e838a8cb3" x="90.865197" y="289.589179" style="fill: #1f77b4; stroke: #1f77b4"/>
     <use xlink:href="#m3e838a8cb3" x="90.865197" y="288.432345" style="fill: #1f77b4; stroke: #1f77b4"/>
     <use xlink:href="#m3e838a8cb3" x="90.865197" y="287.275512" style="fill: #1f77b4; stroke: #1f77b4"/>
     <use xlink:href="#m3e838a8cb3" x="90.865197" y="286.118678" style="fill: #1f77b4; stroke: #1f77b4"/>
     <use xlink:href="#m3e838a8cb3" x="90.865197" y="284.961845" style="fill: #1f77b4; stroke: #1f77b4"/>
     <use xlink:href="#m3e838a8cb3" x="90.865197" y="283.805011" style="fill: #1f77b4; stroke: #1f77b4"/>
     <use xlink:href="#m3e838a8cb3" x="90.865197" y="282.648178" style="fill: #1f77b4; stroke: #1f77b4"/>
     <use xlink:href="#m3e838a8cb3" x="90.865197" y="281.491344" style="fill: #1f77b4; stroke: #1f77b4"/>
     <use xlink:href="#m3e838a8cb3" x="90.865197" y="280.334511" style="fill: #1f77b4; stroke: #1f77b4"/>
     <use xlink:href="#m3e838a8cb3" x="90.865197" y="279.177677" style="fill: #1f77b4; stroke: #1f77b4"/>
     <use xlink:href="#m3e838a8cb3" x="90.865197" y="278.020844" style="fill: #1f77b4; stroke: #1f77b4"/>
     <use xlink:href="#m3e838a8cb3" x="90.865197" y="276.86401" style="fill: #1f77b4; stroke: #1f77b4"/>
     <use xlink:href="#m3e838a8cb3" x="124.891203" y="275.707177" style="fill: #1f77b4; stroke: #1f77b4"/>
     <use xlink:href="#m3e838a8cb3" x="124.891203" y="274.550343" style="fill: #1f77b4; stroke: #1f77b4"/>
     <use xlink:href="#m3e838a8cb3" x="124.891203" y="273.393509" style="fill: #1f77b4; stroke: #1f77b4"/>
     <use xlink:href="#m3e838a8cb3" x="124.891203" y="272.236676" style="fill: #1f77b4; stroke: #1f77b4"/>
     <use xlink:href="#m3e838a8cb3" x="124.891203" y="271.079842" style="fill: #1f77b4; stroke: #1f77b4"/>
     <use xlink:href="#m3e838a8cb3" x="124.891203" y="269.923009" style="fill: #1f77b4; stroke: #1f77b4"/>
     <use xlink:href="#m3e838a8cb3" x="124.891203" y="268.766175" style="fill: #1f77b4; stroke: #1f77b4"/>
     <use xlink:href="#m3e838a8cb3" x="124.891203" y="267.609342" style="fill: #1f77b4; stroke: #1f77b4"/>
     <use xlink:href="#m3e838a8cb3" x="124.891203" y="266.452508" style="fill: #1f77b4; stroke: #1f77b4"/>
     <use xlink:href="#m3e838a8cb3" x="124.891203" y="265.295675" style="fill: #1f77b4; stroke: #1f77b4"/>
     <use xlink:href="#m3e838a8cb3" x="124.891203" y="264.138841" style="fill: #1f77b4; stroke: #1f77b4"/>
     <use xlink:href="#m3e838a8cb3" x="124.891203" y="262.982008" style="fill: #1f77b4; stroke: #1f77b4"/>
     <use xlink:href="#m3e838a8cb3" x="124.891203" y="261.825174" style="fill: #1f77b4; stroke: #1f77b4"/>
     <use xlink:href="#m3e838a8cb3" x="124.891203" y="260.668341" style="fill: #1f77b4; stroke: #1f77b4"/>
     <use xlink:href="#m3e838a8cb3" x="124.891203" y="259.511507" style="fill: #1f77b4; stroke: #1f77b4"/>
     <use xlink:href="#m3e838a8cb3" x="124.891203" y="258.354674" style="fill: #1f77b4; stroke: #1f77b4"/>
     <use xlink:href="#m3e838a8cb3" x="124.891203" y="257.19784" style="fill: #1f77b4; stroke: #1f77b4"/>
     <use xlink:href="#m3e838a8cb3" x="124.891203" y="256.041007" style="fill: #1f77b4; stroke: #1f77b4"/>
     <use xlink:href="#m3e838a8cb3" x="124.891203" y="254.884173" style="fill: #1f77b4; stroke: #1f77b4"/>
     <use xlink:href="#m3e838a8cb3" x="124.891203" y="253.72734" style="fill: #1f77b4; stroke: #1f77b4"/>
     <use xlink:href="#m3e838a8cb3" x="124.891203" y="252.570506" style="fill: #1f77b4; stroke: #1f77b4"/>
     <use xlink:href="#m3e838a8cb3" x="124.891203" y="251.413673" style="fill: #1f77b4; stroke: #1f77b4"/>
     <use xlink:href="#m3e838a8cb3" x="124.891203" y="250.256839" style="fill: #1f77b4; stroke: #1f77b4"/>
     <use xlink:href="#m3e838a8cb3" x="124.891203" y="249.100005" style="fill: #1f77b4; stroke: #1f77b4"/>
     <use xlink:href="#m3e838a8cb3" x="124.891203" y="247.943172" style="fill: #1f77b4; stroke: #1f77b4"/>
     <use xlink:href="#m3e838a8cb3" x="124.891203" y="246.786338" style="fill: #1f77b4; stroke: #1f77b4"/>
     <use xlink:href="#m3e838a8cb3" x="124.891203" y="245.629505" style="fill: #1f77b4; stroke: #1f77b4"/>
     <use xlink:href="#m3e838a8cb3" x="124.891203" y="244.472671" style="fill: #1f77b4; stroke: #1f77b4"/>
     <use xlink:href="#m3e838a8cb3" x="124.891203" y="243.315838" style="fill: #1f77b4; stroke: #1f77b4"/>
     <use xlink:href="#m3e838a8cb3" x="124.891203" y="242.159004" style="fill: #1f77b4; stroke: #1f77b4"/>
     <use xlink:href="#m3e838a8cb3" x="124.891203" y="241.002171" style="fill: #1f77b4; stroke: #1f77b4"/>
     <use xlink:href="#m3e838a8cb3" x="158.917208" y="239.845337" style="fill: #1f77b4; stroke: #1f77b4"/>
     <use xlink:href="#m3e838a8cb3" x="158.917208" y="238.688504" style="fill: #1f77b4; stroke: #1f77b4"/>
     <use xlink:href="#m3e838a8cb3" x="158.917208" y="237.53167" style="fill: #1f77b4; stroke: #1f77b4"/>
     <use xlink:href="#m3e838a8cb3" x="158.917208" y="236.374837" style="fill: #1f77b4; stroke: #1f77b4"/>
     <use xlink:href="#m3e838a8cb3" x="158.917208" y="235.218003" style="fill: #1f77b4; stroke: #1f77b4"/>
     <use xlink:href="#m3e838a8cb3" x="158.917208" y="234.06117" style="fill: #1f77b4; stroke: #1f77b4"/>
     <use xlink:href="#m3e838a8cb3" x="158.917208" y="232.904336" style="fill: #1f77b4; stroke: #1f77b4"/>
     <use xlink:href="#m3e838a8cb3" x="158.917208" y="231.747503" style="fill: #1f77b4; stroke: #1f77b4"/>
     <use xlink:href="#m3e838a8cb3" x="158.917208" y="230.590669" style="fill: #1f77b4; stroke: #1f77b4"/>
     <use xlink:href="#m3e838a8cb3" x="158.917208" y="229.433836" style="fill: #1f77b4; stroke: #1f77b4"/>
     <use xlink:href="#m3e838a8cb3" x="158.917208" y="228.277002" style="fill: #1f77b4; stroke: #1f77b4"/>
     <use xlink:href="#m3e838a8cb3" x="158.917208" y="227.120168" style="fill: #1f77b4; stroke: #1f77b4"/>
     <use xlink:href="#m3e838a8cb3" x="158.917208" y="225.963335" style="fill: #1f77b4; stroke: #1f77b4"/>
     <use xlink:href="#m3e838a8cb3" x="158.917208" y="224.806501" style="fill: #1f77b4; stroke: #1f77b4"/>
     <use xlink:href="#m3e838a8cb3" x="158.917208" y="223.649668" style="fill: #1f77b4; stroke: #1f77b4"/>
     <use xlink:href="#m3e838a8cb3" x="158.917208" y="222.492834" style="fill: #1f77b4; stroke: #1f77b4"/>
     <use xlink:href="#m3e838a8cb3" x="158.917208" y="221.336001" style="fill: #1f77b4; stroke: #1f77b4"/>
     <use xlink:href="#m3e838a8cb3" x="158.917208" y="220.179167" style="fill: #1f77b4; stroke: #1f77b4"/>
     <use xlink:href="#m3e838a8cb3" x="158.917208" y="219.022334" style="fill: #1f77b4; stroke: #1f77b4"/>
     <use xlink:href="#m3e838a8cb3" x="158.917208" y="217.8655" style="fill: #1f77b4; stroke: #1f77b4"/>
     <use xlink:href="#m3e838a8cb3" x="158.917208" y="216.708667" style="fill: #1f77b4; stroke: #1f77b4"/>
     <use xlink:href="#m3e838a8cb3" x="158.917208" y="215.551833" style="fill: #1f77b4; stroke: #1f77b4"/>
     <use xlink:href="#m3e838a8cb3" x="158.917208" y="214.395" style="fill: #1f77b4; stroke: #1f77b4"/>
     <use xlink:href="#m3e838a8cb3" x="192.943214" y="213.238166" style="fill: #1f77b4; stroke: #1f77b4"/>
     <use xlink:href="#m3e838a8cb3" x="192.943214" y="212.081333" style="fill: #1f77b4; stroke: #1f77b4"/>
     <use xlink:href="#m3e838a8cb3" x="192.943214" y="210.924499" style="fill: #1f77b4; stroke: #1f77b4"/>
     <use xlink:href="#m3e838a8cb3" x="192.943214" y="209.767666" style="fill: #1f77b4; stroke: #1f77b4"/>
     <use xlink:href="#m3e838a8cb3" x="192.943214" y="208.610832" style="fill: #1f77b4; stroke: #1f77b4"/>
     <use xlink:href="#m3e838a8cb3" x="192.943214" y="207.453999" style="fill: #1f77b4; stroke: #1f77b4"/>
     <use xlink:href="#m3e838a8cb3" x="192.943214" y="206.297165" style="fill: #1f77b4; stroke: #1f77b4"/>
     <use xlink:href="#m3e838a8cb3" x="192.943214" y="205.140332" style="fill: #1f77b4; stroke: #1f77b4"/>
     <use xlink:href="#m3e838a8cb3" x="192.943214" y="203.983498" style="fill: #1f77b4; stroke: #1f77b4"/>
     <use xlink:href="#m3e838a8cb3" x="192.943214" y="202.826664" style="fill: #1f77b4; stroke: #1f77b4"/>
     <use xlink:href="#m3e838a8cb3" x="192.943214" y="201.669831" style="fill: #1f77b4; stroke: #1f77b4"/>
     <use xlink:href="#m3e838a8cb3" x="192.943214" y="200.512997" style="fill: #1f77b4; stroke: #1f77b4"/>
     <use xlink:href="#m3e838a8cb3" x="192.943214" y="199.356164" style="fill: #1f77b4; stroke: #1f77b4"/>
     <use xlink:href="#m3e838a8cb3" x="192.943214" y="198.19933" style="fill: #1f77b4; stroke: #1f77b4"/>
     <use xlink:href="#m3e838a8cb3" x="192.943214" y="197.042497" style="fill: #1f77b4; stroke: #1f77b4"/>
     <use xlink:href="#m3e838a8cb3" x="192.943214" y="195.885663" style="fill: #1f77b4; stroke: #1f77b4"/>
     <use xlink:href="#m3e838a8cb3" x="192.943214" y="194.72883" style="fill: #1f77b4; stroke: #1f77b4"/>
     <use xlink:href="#m3e838a8cb3" x="192.943214" y="193.571996" style="fill: #1f77b4; stroke: #1f77b4"/>
     <use xlink:href="#m3e838a8cb3" x="192.943214" y="192.415163" style="fill: #1f77b4; stroke: #1f77b4"/>
     <use xlink:href="#m3e838a8cb3" x="192.943214" y="191.258329" style="fill: #1f77b4; stroke: #1f77b4"/>
     <use xlink:href="#m3e838a8cb3" x="192.943214" y="190.101496" style="fill: #1f77b4; stroke: #1f77b4"/>
     <use xlink:href="#m3e838a8cb3" x="192.943214" y="188.944662" style="fill: #1f77b4; stroke: #1f77b4"/>
     <use xlink:href="#m3e838a8cb3" x="192.943214" y="187.787829" style="fill: #1f77b4; stroke: #1f77b4"/>
     <use xlink:href="#m3e838a8cb3" x="192.943214" y="186.630995" style="fill: #1f77b4; stroke: #1f77b4"/>
     <use xlink:href="#m3e838a8cb3" x="226.969219" y="185.474162" style="fill: #1f77b4; stroke: #1f77b4"/>
     <use xlink:href="#m3e838a8cb3" x="226.969219" y="184.317328" style="fill: #1f77b4; stroke: #1f77b4"/>
     <use xlink:href="#m3e838a8cb3" x="226.969219" y="183.160495" style="fill: #1f77b4; stroke: #1f77b4"/>
     <use xlink:href="#m3e838a8cb3" x="226.969219" y="182.003661" style="fill: #1f77b4; stroke: #1f77b4"/>
     <use xlink:href="#m3e838a8cb3" x="226.969219" y="180.846827" style="fill: #1f77b4; stroke: #1f77b4"/>
     <use xlink:href="#m3e838a8cb3" x="226.969219" y="179.689994" style="fill: #1f77b4; stroke: #1f77b4"/>
     <use xlink:href="#m3e838a8cb3" x="226.969219" y="178.53316" style="fill: #1f77b4; stroke: #1f77b4"/>
     <use xlink:href="#m3e838a8cb3" x="226.969219" y="177.376327" style="fill: #1f77b4; stroke: #1f77b4"/>
     <use xlink:href="#m3e838a8cb3" x="226.969219" y="176.219493" style="fill: #1f77b4; stroke: #1f77b4"/>
     <use xlink:href="#m3e838a8cb3" x="226.969219" y="175.06266" style="fill: #1f77b4; stroke: #1f77b4"/>
     <use xlink:href="#m3e838a8cb3" x="226.969219" y="173.905826" style="fill: #1f77b4; stroke: #1f77b4"/>
     <use xlink:href="#m3e838a8cb3" x="226.969219" y="172.748993" style="fill: #1f77b4; stroke: #1f77b4"/>
     <use xlink:href="#m3e838a8cb3" x="226.969219" y="171.592159" style="fill: #1f77b4; stroke: #1f77b4"/>
     <use xlink:href="#m3e838a8cb3" x="226.969219" y="170.435326" style="fill: #1f77b4; stroke: #1f77b4"/>
     <use xlink:href="#m3e838a8cb3" x="226.969219" y="169.278492" style="fill: #1f77b4; stroke: #1f77b4"/>
     <use xlink:href="#m3e838a8cb3" x="226.969219" y="168.121659" style="fill: #1f77b4; stroke: #1f77b4"/>
     <use xlink:href="#m3e838a8cb3" x="226.969219" y="166.964825" style="fill: #1f77b4; stroke: #1f77b4"/>
     <use xlink:href="#m3e838a8cb3" x="226.969219" y="165.807992" style="fill: #1f77b4; stroke: #1f77b4"/>
     <use xlink:href="#m3e838a8cb3" x="260.995225" y="164.651158" style="fill: #1f77b4; stroke: #1f77b4"/>
     <use xlink:href="#m3e838a8cb3" x="260.995225" y="163.494325" style="fill: #1f77b4; stroke: #1f77b4"/>
     <use xlink:href="#m3e838a8cb3" x="260.995225" y="162.337491" style="fill: #1f77b4; stroke: #1f77b4"/>
     <use xlink:href="#m3e838a8cb3" x="260.995225" y="161.180658" style="fill: #1f77b4; stroke: #1f77b4"/>
     <use xlink:href="#m3e838a8cb3" x="260.995225" y="160.023824" style="fill: #1f77b4; stroke: #1f77b4"/>
     <use xlink:href="#m3e838a8cb3" x="260.995225" y="158.866991" style="fill: #1f77b4; stroke: #1f77b4"/>
     <use xlink:href="#m3e838a8cb3" x="260.995225" y="157.710157" style="fill: #1f77b4; stroke: #1f77b4"/>
     <use xlink:href="#m3e838a8cb3" x="260.995225" y="156.553323" style="fill: #1f77b4; stroke: #1f77b4"/>
     <use xlink:href="#m3e838a8cb3" x="260.995225" y="155.39649" style="fill: #1f77b4; stroke: #1f77b4"/>
     <use xlink:href="#m3e838a8cb3" x="260.995225" y="154.239656" style="fill: #1f77b4; stroke: #1f77b4"/>
     <use xlink:href="#m3e838a8cb3" x="260.995225" y="153.082823" style="fill: #1f77b4; stroke: #1f77b4"/>
     <use xlink:href="#m3e838a8cb3" x="260.995225" y="151.925989" style="fill: #1f77b4; stroke: #1f77b4"/>
     <use xlink:href="#m3e838a8cb3" x="260.995225" y="150.769156" style="fill: #1f77b4; stroke: #1f77b4"/>
     <use xlink:href="#m3e838a8cb3" x="260.995225" y="149.612322" style="fill: #1f77b4; stroke: #1f77b4"/>
     <use xlink:href="#m3e838a8cb3" x="260.995225" y="148.455489" style="fill: #1f77b4; stroke: #1f77b4"/>
     <use xlink:href="#m3e838a8cb3" x="260.995225" y="147.298655" style="fill: #1f77b4; stroke: #1f77b4"/>
     <use xlink:href="#m3e838a8cb3" x="260.995225" y="146.141822" style="fill: #1f77b4; stroke: #1f77b4"/>
     <use xlink:href="#m3e838a8cb3" x="260.995225" y="144.984988" style="fill: #1f77b4; stroke: #1f77b4"/>
     <use xlink:href="#m3e838a8cb3" x="260.995225" y="143.828155" style="fill: #1f77b4; stroke: #1f77b4"/>
     <use xlink:href="#m3e838a8cb3" x="295.02123" y="142.671321" style="fill: #1f77b4; stroke: #1f77b4"/>
     <use xlink:href="#m3e838a8cb3" x="295.02123" y="141.514488" style="fill: #1f77b4; stroke: #1f77b4"/>
     <use xlink:href="#m3e838a8cb3" x="295.02123" y="140.357654" style="fill: #1f77b4; stroke: #1f77b4"/>
     <use xlink:href="#m3e838a8cb3" x="295.02123" y="139.200821" style="fill: #1f77b4; stroke: #1f77b4"/>
     <use xlink:href="#m3e838a8cb3" x="295.02123" y="138.043987" style="fill: #1f77b4; stroke: #1f77b4"/>
     <use xlink:href="#m3e838a8cb3" x="295.02123" y="136.887154" style="fill: #1f77b4; stroke: #1f77b4"/>
     <use xlink:href="#m3e838a8cb3" x="295.02123" y="135.73032" style="fill: #1f77b4; stroke: #1f77b4"/>
     <use xlink:href="#m3e838a8cb3" x="295.02123" y="134.573486" style="fill: #1f77b4; stroke: #1f77b4"/>
     <use xlink:href="#m3e838a8cb3" x="295.02123" y="133.416653" style="fill: #1f77b4; stroke: #1f77b4"/>
     <use xlink:href="#m3e838a8cb3" x="295.02123" y="132.259819" style="fill: #1f77b4; stroke: #1f77b4"/>
     <use xlink:href="#m3e838a8cb3" x="295.02123" y="131.102986" style="fill: #1f77b4; stroke: #1f77b4"/>
     <use xlink:href="#m3e838a8cb3" x="295.02123" y="129.946152" style="fill: #1f77b4; stroke: #1f77b4"/>
     <use xlink:href="#m3e838a8cb3" x="295.02123" y="128.789319" style="fill: #1f77b4; stroke: #1f77b4"/>
     <use xlink:href="#m3e838a8cb3" x="295.02123" y="127.632485" style="fill: #1f77b4; stroke: #1f77b4"/>
     <use xlink:href="#m3e838a8cb3" x="295.02123" y="126.475652" style="fill: #1f77b4; stroke: #1f77b4"/>
     <use xlink:href="#m3e838a8cb3" x="295.02123" y="125.318818" style="fill: #1f77b4; stroke: #1f77b4"/>
     <use xlink:href="#m3e838a8cb3" x="295.02123" y="124.161985" style="fill: #1f77b4; stroke: #1f77b4"/>
     <use xlink:href="#m3e838a8cb3" x="295.02123" y="123.005151" style="fill: #1f77b4; stroke: #1f77b4"/>
     <use xlink:href="#m3e838a8cb3" x="295.02123" y="121.848318" style="fill: #1f77b4; stroke: #1f77b4"/>
     <use xlink:href="#m3e838a8cb3" x="295.02123" y="120.691484" style="fill: #1f77b4; stroke: #1f77b4"/>
     <use xlink:href="#m3e838a8cb3" x="295.02123" y="119.534651" style="fill: #1f77b4; stroke: #1f77b4"/>
     <use xlink:href="#m3e838a8cb3" x="329.047236" y="118.377817" style="fill: #1f77b4; stroke: #1f77b4"/>
     <use xlink:href="#m3e838a8cb3" x="329.047236" y="117.220984" style="fill: #1f77b4; stroke: #1f77b4"/>
     <use xlink:href="#m3e838a8cb3" x="329.047236" y="116.06415" style="fill: #1f77b4; stroke: #1f77b4"/>
     <use xlink:href="#m3e838a8cb3" x="329.047236" y="114.907317" style="fill: #1f77b4; stroke: #1f77b4"/>
     <use xlink:href="#m3e838a8cb3" x="329.047236" y="113.750483" style="fill: #1f77b4; stroke: #1f77b4"/>
     <use xlink:href="#m3e838a8cb3" x="329.047236" y="112.59365" style="fill: #1f77b4; stroke: #1f77b4"/>
     <use xlink:href="#m3e838a8cb3" x="329.047236" y="111.436816" style="fill: #1f77b4; stroke: #1f77b4"/>
     <use xlink:href="#m3e838a8cb3" x="329.047236" y="110.279982" style="fill: #1f77b4; stroke: #1f77b4"/>
     <use xlink:href="#m3e838a8cb3" x="329.047236" y="109.123149" style="fill: #1f77b4; stroke: #1f77b4"/>
     <use xlink:href="#m3e838a8cb3" x="329.047236" y="107.966315" style="fill: #1f77b4; stroke: #1f77b4"/>
     <use xlink:href="#m3e838a8cb3" x="363.073241" y="106.809482" style="fill: #1f77b4; stroke: #1f77b4"/>
     <use xlink:href="#m3e838a8cb3" x="363.073241" y="105.652648" style="fill: #1f77b4; stroke: #1f77b4"/>
     <use xlink:href="#m3e838a8cb3" x="363.073241" y="104.495815" style="fill: #1f77b4; stroke: #1f77b4"/>
     <use xlink:href="#m3e838a8cb3" x="363.073241" y="103.338981" style="fill: #1f77b4; stroke: #1f77b4"/>
     <use xlink:href="#m3e838a8cb3" x="363.073241" y="102.182148" style="fill: #1f77b4; stroke: #1f77b4"/>
     <use xlink:href="#m3e838a8cb3" x="363.073241" y="101.025314" style="fill: #1f77b4; stroke: #1f77b4"/>
     <use xlink:href="#m3e838a8cb3" x="363.073241" y="99.868481" style="fill: #1f77b4; stroke: #1f77b4"/>
     <use xlink:href="#m3e838a8cb3" x="363.073241" y="98.711647" style="fill: #1f77b4; stroke: #1f77b4"/>
     <use xlink:href="#m3e838a8cb3" x="397.099247" y="97.554814" style="fill: #1f77b4; stroke: #1f77b4"/>
     <use xlink:href="#m3e838a8cb3" x="397.099247" y="96.39798" style="fill: #1f77b4; stroke: #1f77b4"/>
     <use xlink:href="#m3e838a8cb3" x="397.099247" y="95.241147" style="fill: #1f77b4; stroke: #1f77b4"/>
     <use xlink:href="#m3e838a8cb3" x="397.099247" y="94.084313" style="fill: #1f77b4; stroke: #1f77b4"/>
     <use xlink:href="#m3e838a8cb3" x="431.125252" y="92.92748" style="fill: #1f77b4; stroke: #1f77b4"/>
     <use xlink:href="#m3e838a8cb3" x="431.125252" y="91.770646" style="fill: #1f77b4; stroke: #1f77b4"/>
     <use xlink:href="#m3e838a8cb3" x="431.125252" y="90.613813" style="fill: #1f77b4; stroke: #1f77b4"/>
     <use xlink:href="#m3e838a8cb3" x="431.125252" y="89.456979" style="fill: #1f77b4; stroke: #1f77b4"/>
     <use xlink:href="#m3e838a8cb3" x="431.125252" y="88.300145" style="fill: #1f77b4; stroke: #1f77b4"/>
     <use xlink:href="#m3e838a8cb3" x="431.125252" y="87.143312" style="fill: #1f77b4; stroke: #1f77b4"/>
     <use xlink:href="#m3e838a8cb3" x="431.125252" y="85.986478" style="fill: #1f77b4; stroke: #1f77b4"/>
     <use xlink:href="#m3e838a8cb3" x="431.125252" y="84.829645" style="fill: #1f77b4; stroke: #1f77b4"/>
     <use xlink:href="#m3e838a8cb3" x="431.125252" y="83.672811" style="fill: #1f77b4; stroke: #1f77b4"/>
     <use xlink:href="#m3e838a8cb3" x="465.151258" y="82.515978" style="fill: #1f77b4; stroke: #1f77b4"/>
     <use xlink:href="#m3e838a8cb3" x="533.203269" y="81.359144" style="fill: #1f77b4; stroke: #1f77b4"/>
     <use xlink:href="#m3e838a8cb3" x="533.203269" y="80.202311" style="fill: #1f77b4; stroke: #1f77b4"/>
     <use xlink:href="#m3e838a8cb3" x="567.229274" y="79.045477" style="fill: #1f77b4; stroke: #1f77b4"/>
    </g>
   </g>
   <g id="patch_3">
    <path d="M 31.319688 366.9235 
L 592.748778 366.9235 
" style="fill: none; stroke: #000000; stroke-width: 0.8; stroke-linejoin: miter; stroke-linecap: square"/>
   </g>
   <g id="text_19">
    <g id="text_20">
     <!-- 23% -->
     <g transform="translate(36.825129 284.017749) scale(0.2 -0.2)">
      <use xlink:href="#ArialMT-32"/>
      <use xlink:href="#ArialMT-33" x="55.615234"/>
      <use xlink:href="#ArialMT-25" x="111.230469"/>
     </g>
    </g>
    <g id="text_21">
     <!-- 28% -->
     <g transform="translate(70.851135 270.135746) scale(0.2 -0.2)">
      <use xlink:href="#ArialMT-32"/>
      <use xlink:href="#ArialMT-38" x="55.615234"/>
      <use xlink:href="#ArialMT-25" x="111.230469"/>
     </g>
    </g>
    <g id="text_22">
     <!-- 41% -->
     <g transform="translate(104.87714 234.273907) scale(0.2 -0.2)">
      <use xlink:href="#ArialMT-34"/>
      <use xlink:href="#ArialMT-31" x="55.615234"/>
      <use xlink:href="#ArialMT-25" x="111.230469"/>
     </g>
    </g>
    <g id="text_23">
     <!-- 51% -->
     <g transform="translate(138.903146 207.666736) scale(0.2 -0.2)">
      <use xlink:href="#ArialMT-35"/>
      <use xlink:href="#ArialMT-31" x="55.615234"/>
      <use xlink:href="#ArialMT-25" x="111.230469"/>
     </g>
    </g>
    <g id="text_24">
     <!-- 61% -->
     <g transform="translate(172.929151 179.902731) scale(0.2 -0.2)">
      <use xlink:href="#ArialMT-36"/>
      <use xlink:href="#ArialMT-31" x="55.615234"/>
      <use xlink:href="#ArialMT-25" x="111.230469"/>
     </g>
    </g>
    <g id="text_25">
     <!-- 68% -->
     <g transform="translate(206.955157 159.079728) scale(0.2 -0.2)">
      <use xlink:href="#ArialMT-36"/>
      <use xlink:href="#ArialMT-38" x="55.615234"/>
      <use xlink:href="#ArialMT-25" x="111.230469"/>
     </g>
    </g>
    <g id="text_26">
     <!-- 76% -->
     <g transform="translate(240.981162 137.099891) scale(0.2 -0.2)">
      <use xlink:href="#ArialMT-37"/>
      <use xlink:href="#ArialMT-36" x="55.615234"/>
      <use xlink:href="#ArialMT-25" x="111.230469"/>
     </g>
    </g>
    <g id="text_27">
     <!-- 85% -->
     <g transform="translate(275.007168 112.806387) scale(0.2 -0.2)">
      <use xlink:href="#ArialMT-38"/>
      <use xlink:href="#ArialMT-35" x="55.615234"/>
      <use xlink:href="#ArialMT-25" x="111.230469"/>
     </g>
    </g>
    <g id="text_28">
     <!-- 89% -->
     <g transform="translate(309.033173 95.731524) scale(0.2 -0.2)">
      <use xlink:href="#ArialMT-38"/>
      <use xlink:href="#ArialMT-39" x="55.615234"/>
      <use xlink:href="#ArialMT-25" x="111.230469"/>
     </g>
    </g>
    <g id="text_29">
     <!-- 93% -->
     <g transform="translate(343.059179 80.970328) scale(0.2 -0.2)">
      <use xlink:href="#ArialMT-39"/>
      <use xlink:href="#ArialMT-33" x="55.615234"/>
      <use xlink:href="#ArialMT-25" x="111.230469"/>
     </g>
    </g>
    <g id="text_30">
     <!-- 95% -->
     <g transform="translate(377.085184 68.083203) scale(0.2 -0.2)">
      <use xlink:href="#ArialMT-39"/>
      <use xlink:href="#ArialMT-35" x="55.615234"/>
      <use xlink:href="#ArialMT-25" x="111.230469"/>
     </g>
    </g>
    <g id="text_31">
     <!-- 98% -->
     <g transform="translate(411.11119 52.165173) scale(0.2 -0.2)">
      <use xlink:href="#ArialMT-39"/>
      <use xlink:href="#ArialMT-38" x="55.615234"/>
      <use xlink:href="#ArialMT-25" x="111.230469"/>
     </g>
    </g>
    <g id="text_32">
     <!-- 99% -->
     <g transform="translate(445.137195 73.03445) scale(0.2 -0.2)">
      <use xlink:href="#ArialMT-39"/>
      <use xlink:href="#ArialMT-39" x="55.615234"/>
      <use xlink:href="#ArialMT-25" x="111.230469"/>
     </g>
    </g>
    <g id="text_33">
     <!-- 100% -->
     <g transform="translate(507.628269 70.720783) scale(0.2 -0.2)">
      <use xlink:href="#ArialMT-31"/>
      <use xlink:href="#ArialMT-30" x="55.615234"/>
      <use xlink:href="#ArialMT-30" x="111.230469"/>
      <use xlink:href="#ArialMT-25" x="166.845703"/>
     </g>
    </g>
    <g id="text_34">
     <!-- 100% -->
     <g transform="translate(541.654274 53.044367) scale(0.2 -0.2)">
      <use xlink:href="#ArialMT-31"/>
      <use xlink:href="#ArialMT-30" x="55.615234"/>
      <use xlink:href="#ArialMT-30" x="111.230469"/>
      <use xlink:href="#ArialMT-25" x="166.845703"/>
     </g>
    </g>
    <g id="text_35">
     <!-- Cumulative Therapy Burden -->
     <g transform="translate(152.012358 24.67125) scale(0.24 -0.24)">
      <defs>
       <path id="Arial-BoldMT-43" d="M 3397 1684 
L 4294 1400 
Q 4088 650 3608 286 
Q 3128 -78 2391 -78 
Q 1478 -78 890 545 
Q 303 1169 303 2250 
Q 303 3394 893 4026 
Q 1484 4659 2447 4659 
Q 3288 4659 3813 4163 
Q 4125 3869 4281 3319 
L 3366 3100 
Q 3284 3456 3026 3662 
Q 2769 3869 2400 3869 
Q 1891 3869 1573 3503 
Q 1256 3138 1256 2319 
Q 1256 1450 1568 1081 
Q 1881 713 2381 713 
Q 2750 713 3015 947 
Q 3281 1181 3397 1684 
z
" transform="scale(0.015625)"/>
       <path id="Arial-BoldMT-75" d="M 2644 0 
L 2644 497 
Q 2463 231 2167 78 
Q 1872 -75 1544 -75 
Q 1209 -75 943 72 
Q 678 219 559 484 
Q 441 750 441 1219 
L 441 3319 
L 1319 3319 
L 1319 1794 
Q 1319 1094 1367 936 
Q 1416 778 1544 686 
Q 1672 594 1869 594 
Q 2094 594 2272 717 
Q 2450 841 2515 1023 
Q 2581 1206 2581 1919 
L 2581 3319 
L 3459 3319 
L 3459 0 
L 2644 0 
z
" transform="scale(0.015625)"/>
       <path id="Arial-BoldMT-6d" d="M 394 3319 
L 1203 3319 
L 1203 2866 
Q 1638 3394 2238 3394 
Q 2556 3394 2790 3262 
Q 3025 3131 3175 2866 
Q 3394 3131 3647 3262 
Q 3900 3394 4188 3394 
Q 4553 3394 4806 3245 
Q 5059 3097 5184 2809 
Q 5275 2597 5275 2122 
L 5275 0 
L 4397 0 
L 4397 1897 
Q 4397 2391 4306 2534 
Q 4184 2722 3931 2722 
Q 3747 2722 3584 2609 
Q 3422 2497 3350 2280 
Q 3278 2063 3278 1594 
L 3278 0 
L 2400 0 
L 2400 1819 
Q 2400 2303 2353 2443 
Q 2306 2584 2207 2653 
Q 2109 2722 1941 2722 
Q 1738 2722 1575 2612 
Q 1413 2503 1342 2297 
Q 1272 2091 1272 1613 
L 1272 0 
L 394 0 
L 394 3319 
z
" transform="scale(0.015625)"/>
       <path id="Arial-BoldMT-6c" d="M 459 0 
L 459 4581 
L 1338 4581 
L 1338 0 
L 459 0 
z
" transform="scale(0.015625)"/>
       <path id="Arial-BoldMT-61" d="M 1116 2306 
L 319 2450 
Q 453 2931 781 3162 
Q 1109 3394 1756 3394 
Q 2344 3394 2631 3255 
Q 2919 3116 3036 2902 
Q 3153 2688 3153 2116 
L 3144 1091 
Q 3144 653 3186 445 
Q 3228 238 3344 0 
L 2475 0 
Q 2441 88 2391 259 
Q 2369 338 2359 363 
Q 2134 144 1878 34 
Q 1622 -75 1331 -75 
Q 819 -75 523 203 
Q 228 481 228 906 
Q 228 1188 362 1408 
Q 497 1628 739 1745 
Q 981 1863 1438 1950 
Q 2053 2066 2291 2166 
L 2291 2253 
Q 2291 2506 2166 2614 
Q 2041 2722 1694 2722 
Q 1459 2722 1328 2630 
Q 1197 2538 1116 2306 
z
M 2291 1594 
Q 2122 1538 1756 1459 
Q 1391 1381 1278 1306 
Q 1106 1184 1106 997 
Q 1106 813 1243 678 
Q 1381 544 1594 544 
Q 1831 544 2047 700 
Q 2206 819 2256 991 
Q 2291 1103 2291 1419 
L 2291 1594 
z
" transform="scale(0.015625)"/>
       <path id="Arial-BoldMT-74" d="M 1981 3319 
L 1981 2619 
L 1381 2619 
L 1381 1281 
Q 1381 875 1398 808 
Q 1416 741 1477 697 
Q 1538 653 1625 653 
Q 1747 653 1978 738 
L 2053 56 
Q 1747 -75 1359 -75 
Q 1122 -75 931 4 
Q 741 84 652 211 
Q 563 338 528 553 
Q 500 706 500 1172 
L 500 2619 
L 97 2619 
L 97 3319 
L 500 3319 
L 500 3978 
L 1381 4491 
L 1381 3319 
L 1981 3319 
z
" transform="scale(0.015625)"/>
       <path id="Arial-BoldMT-69" d="M 459 3769 
L 459 4581 
L 1338 4581 
L 1338 3769 
L 459 3769 
z
M 459 0 
L 459 3319 
L 1338 3319 
L 1338 0 
L 459 0 
z
" transform="scale(0.015625)"/>
       <path id="Arial-BoldMT-76" d="M 1372 0 
L 34 3319 
L 956 3319 
L 1581 1625 
L 1763 1059 
Q 1834 1275 1853 1344 
Q 1897 1484 1947 1625 
L 2578 3319 
L 3481 3319 
L 2163 0 
L 1372 0 
z
" transform="scale(0.015625)"/>
       <path id="Arial-BoldMT-65" d="M 2381 1056 
L 3256 909 
Q 3088 428 2723 176 
Q 2359 -75 1813 -75 
Q 947 -75 531 491 
Q 203 944 203 1634 
Q 203 2459 634 2926 
Q 1066 3394 1725 3394 
Q 2466 3394 2894 2905 
Q 3322 2416 3303 1406 
L 1103 1406 
Q 1113 1016 1316 798 
Q 1519 581 1822 581 
Q 2028 581 2168 693 
Q 2309 806 2381 1056 
z
M 2431 1944 
Q 2422 2325 2234 2523 
Q 2047 2722 1778 2722 
Q 1491 2722 1303 2513 
Q 1116 2303 1119 1944 
L 2431 1944 
z
" transform="scale(0.015625)"/>
       <path id="Arial-BoldMT-20" transform="scale(0.015625)"/>
       <path id="Arial-BoldMT-54" d="M 1497 0 
L 1497 3806 
L 138 3806 
L 138 4581 
L 3778 4581 
L 3778 3806 
L 2422 3806 
L 2422 0 
L 1497 0 
z
" transform="scale(0.015625)"/>
       <path id="Arial-BoldMT-68" d="M 1334 4581 
L 1334 2897 
Q 1759 3394 2350 3394 
Q 2653 3394 2897 3281 
Q 3141 3169 3264 2994 
Q 3388 2819 3433 2606 
Q 3478 2394 3478 1947 
L 3478 0 
L 2600 0 
L 2600 1753 
Q 2600 2275 2550 2415 
Q 2500 2556 2373 2639 
Q 2247 2722 2056 2722 
Q 1838 2722 1666 2615 
Q 1494 2509 1414 2295 
Q 1334 2081 1334 1663 
L 1334 0 
L 456 0 
L 456 4581 
L 1334 4581 
z
" transform="scale(0.015625)"/>
       <path id="Arial-BoldMT-72" d="M 1300 0 
L 422 0 
L 422 3319 
L 1238 3319 
L 1238 2847 
Q 1447 3181 1614 3287 
Q 1781 3394 1994 3394 
Q 2294 3394 2572 3228 
L 2300 2463 
Q 2078 2606 1888 2606 
Q 1703 2606 1575 2504 
Q 1447 2403 1373 2137 
Q 1300 1872 1300 1025 
L 1300 0 
z
" transform="scale(0.015625)"/>
       <path id="Arial-BoldMT-70" d="M 434 3319 
L 1253 3319 
L 1253 2831 
Q 1413 3081 1684 3237 
Q 1956 3394 2288 3394 
Q 2866 3394 3269 2941 
Q 3672 2488 3672 1678 
Q 3672 847 3265 386 
Q 2859 -75 2281 -75 
Q 2006 -75 1782 34 
Q 1559 144 1313 409 
L 1313 -1263 
L 434 -1263 
L 434 3319 
z
M 1303 1716 
Q 1303 1156 1525 889 
Q 1747 622 2066 622 
Q 2372 622 2575 867 
Q 2778 1113 2778 1672 
Q 2778 2194 2568 2447 
Q 2359 2700 2050 2700 
Q 1728 2700 1515 2451 
Q 1303 2203 1303 1716 
z
" transform="scale(0.015625)"/>
       <path id="Arial-BoldMT-79" d="M 44 3319 
L 978 3319 
L 1772 963 
L 2547 3319 
L 3456 3319 
L 2284 125 
L 2075 -453 
Q 1959 -744 1854 -897 
Q 1750 -1050 1614 -1145 
Q 1478 -1241 1279 -1294 
Q 1081 -1347 831 -1347 
Q 578 -1347 334 -1294 
L 256 -606 
Q 463 -647 628 -647 
Q 934 -647 1081 -467 
Q 1228 -288 1306 -9 
L 44 3319 
z
" transform="scale(0.015625)"/>
       <path id="Arial-BoldMT-42" d="M 469 4581 
L 2300 4581 
Q 2844 4581 3111 4536 
Q 3378 4491 3589 4347 
Q 3800 4203 3940 3964 
Q 4081 3725 4081 3428 
Q 4081 3106 3907 2837 
Q 3734 2569 3438 2434 
Q 3856 2313 4081 2019 
Q 4306 1725 4306 1328 
Q 4306 1016 4161 720 
Q 4016 425 3764 248 
Q 3513 72 3144 31 
Q 2913 6 2028 0 
L 469 0 
L 469 4581 
z
M 1394 3819 
L 1394 2759 
L 2000 2759 
Q 2541 2759 2672 2775 
Q 2909 2803 3045 2939 
Q 3181 3075 3181 3297 
Q 3181 3509 3064 3642 
Q 2947 3775 2716 3803 
Q 2578 3819 1925 3819 
L 1394 3819 
z
M 1394 1997 
L 1394 772 
L 2250 772 
Q 2750 772 2884 800 
Q 3091 838 3220 983 
Q 3350 1128 3350 1372 
Q 3350 1578 3250 1722 
Q 3150 1866 2961 1931 
Q 2772 1997 2141 1997 
L 1394 1997 
z
" transform="scale(0.015625)"/>
       <path id="Arial-BoldMT-64" d="M 3503 0 
L 2688 0 
L 2688 488 
Q 2484 203 2207 64 
Q 1931 -75 1650 -75 
Q 1078 -75 670 386 
Q 263 847 263 1672 
Q 263 2516 659 2955 
Q 1056 3394 1663 3394 
Q 2219 3394 2625 2931 
L 2625 4581 
L 3503 4581 
L 3503 0 
z
M 1159 1731 
Q 1159 1200 1306 963 
Q 1519 619 1900 619 
Q 2203 619 2415 876 
Q 2628 1134 2628 1647 
Q 2628 2219 2422 2470 
Q 2216 2722 1894 2722 
Q 1581 2722 1370 2473 
Q 1159 2225 1159 1731 
z
" transform="scale(0.015625)"/>
       <path id="Arial-BoldMT-6e" d="M 3478 0 
L 2600 0 
L 2600 1694 
Q 2600 2231 2544 2389 
Q 2488 2547 2361 2634 
Q 2234 2722 2056 2722 
Q 1828 2722 1647 2597 
Q 1466 2472 1398 2265 
Q 1331 2059 1331 1503 
L 1331 0 
L 453 0 
L 453 3319 
L 1269 3319 
L 1269 2831 
Q 1703 3394 2363 3394 
Q 2653 3394 2893 3289 
Q 3134 3184 3257 3021 
Q 3381 2859 3429 2653 
Q 3478 2447 3478 2063 
L 3478 0 
z
" transform="scale(0.015625)"/>
      </defs>
      <use xlink:href="#Arial-BoldMT-43"/>
      <use xlink:href="#Arial-BoldMT-75" x="72.216797"/>
      <use xlink:href="#Arial-BoldMT-6d" x="133.300781"/>
      <use xlink:href="#Arial-BoldMT-75" x="222.216797"/>
      <use xlink:href="#Arial-BoldMT-6c" x="283.300781"/>
      <use xlink:href="#Arial-BoldMT-61" x="311.083984"/>
      <use xlink:href="#Arial-BoldMT-74" x="366.699219"/>
      <use xlink:href="#Arial-BoldMT-69" x="400"/>
      <use xlink:href="#Arial-BoldMT-76" x="427.783203"/>
      <use xlink:href="#Arial-BoldMT-65" x="483.398438"/>
      <use xlink:href="#Arial-BoldMT-20" x="539.013672"/>
      <use xlink:href="#Arial-BoldMT-54" x="566.796875"/>
      <use xlink:href="#Arial-BoldMT-68" x="627.880859"/>
      <use xlink:href="#Arial-BoldMT-65" x="688.964844"/>
      <use xlink:href="#Arial-BoldMT-72" x="744.580078"/>
      <use xlink:href="#Arial-BoldMT-61" x="783.496094"/>
      <use xlink:href="#Arial-BoldMT-70" x="839.111328"/>
      <use xlink:href="#Arial-BoldMT-79" x="900.195312"/>
      <use xlink:href="#Arial-BoldMT-20" x="955.810547"/>
      <use xlink:href="#Arial-BoldMT-42" x="983.59375"/>
      <use xlink:href="#Arial-BoldMT-75" x="1055.810547"/>
      <use xlink:href="#Arial-BoldMT-72" x="1116.894531"/>
      <use xlink:href="#Arial-BoldMT-64" x="1155.810547"/>
      <use xlink:href="#Arial-BoldMT-65" x="1216.894531"/>
      <use xlink:href="#Arial-BoldMT-6e" x="1272.509766"/>
     </g>
     <!--  -->
     <g transform="translate(312.034233 50.337) scale(0.24 -0.24)"/>
    </g>
   </g>
  </g>
  <defs>
   <clipPath id="pdae261d80c">
    <rect x="31.319688" y="65.337" width="561.429091" height="301.5865"/>
   </clipPath>
  </defs>
 </g>
</svg>
