<?xml version="1.0" encoding="utf-8" standalone="no"?>
<!DOCTYPE svg PUBLIC "-//W3C//DTD SVG 1.1//EN"
  "http://www.w3.org/Graphics/SVG/1.1/DTD/svg11.dtd">
<svg xmlns:xlink="http://www.w3.org/1999/xlink" width="601.135756pt" height="300.845888pt" viewBox="0 0 601.135756 300.845888" xmlns="http://www.w3.org/2000/svg" version="1.1">
 <metadata>
  <rdf:RDF xmlns:dc="http://purl.org/dc/elements/1.1/" xmlns:cc="http://creativecommons.org/ns#" xmlns:rdf="http://www.w3.org/1999/02/22-rdf-syntax-ns#">
   <cc:Work>
    <dc:type rdf:resource="http://purl.org/dc/dcmitype/StillImage"/>
    <dc:date>2026-05-20T23:44:08.688546</dc:date>
    <dc:format>image/svg+xml</dc:format>
    <dc:creator>
     <cc:Agent>
      <dc:title>Matplotlib v3.7.3, https://matplotlib.org/</dc:title>
     </cc:Agent>
    </dc:creator>
   </cc:Work>
  </rdf:RDF>
 </metadata>
 <defs>
  <style type="text/css">*{stroke-linejoin: round; stroke-linecap: butt}</style>
 </defs>
 <g id="figure_1">
  <g id="patch_1">
   <path d="M 0 300.845888 
L 601.135756 300.845888 
L 601.135756 0 
L 0 0 
L 0 300.845888 
z
" style="fill: none"/>
  </g>
  <g id="axes_1">
   <g id="patch_2">
    <path d="M 43.545313 281.000575 
L 561.945312 281.000575 
L 561.945312 79.400575 
L 43.545313 79.400575 
L 43.545313 281.000575 
z
" style="fill: none"/>
   </g>
   <g id="patch_3">
    <path d="M 43.545313 281.000575 
L 72.345313 281.000575 
L 72.345313 79.400575 
L 43.545313 79.400575 
z
" clip-path="url(#p7be2ed79df)" style="fill: #b0c4de; stroke: #b0c4de; stroke-linejoin: miter"/>
   </g>
   <g id="patch_4">
    <path d="M 101.145313 281.000575 
L 129.945312 281.000575 
L 129.945312 79.400575 
L 101.145313 79.400575 
z
" clip-path="url(#p7be2ed79df)" style="fill: #b0c4de; stroke: #b0c4de; stroke-linejoin: miter"/>
   </g>
   <g id="patch_5">
    <path d="M 158.745313 281.000575 
L 187.545313 281.000575 
L 187.545313 79.400575 
L 158.745313 79.400575 
z
" clip-path="url(#p7be2ed79df)" style="fill: #b0c4de; stroke: #b0c4de; stroke-linejoin: miter"/>
   </g>
   <g id="patch_6">
    <path d="M 216.345312 281.000575 
L 245.145312 281.000575 
L 245.145312 79.400575 
L 216.345312 79.400575 
z
" clip-path="url(#p7be2ed79df)" style="fill: #b0c4de; stroke: #b0c4de; stroke-linejoin: miter"/>
   </g>
   <g id="patch_7">
    <path d="M 273.945312 281.000575 
L 302.745313 281.000575 
L 302.745313 79.400575 
L 273.945312 79.400575 
z
" clip-path="url(#p7be2ed79df)" style="fill: #b0c4de; stroke: #b0c4de; stroke-linejoin: miter"/>
   </g>
   <g id="patch_8">
    <path d="M 331.545313 281.000575 
L 360.345313 281.000575 
L 360.345313 79.400575 
L 331.545313 79.400575 
z
" clip-path="url(#p7be2ed79df)" style="fill: #b0c4de; stroke: #b0c4de; stroke-linejoin: miter"/>
   </g>
   <g id="patch_9">
    <path d="M 389.145312 281.000575 
L 417.945312 281.000575 
L 417.945312 79.400575 
L 389.145312 79.400575 
z
" clip-path="url(#p7be2ed79df)" style="fill: #b0c4de; stroke: #b0c4de; stroke-linejoin: miter"/>
   </g>
   <g id="patch_10">
    <path d="M 446.745312 281.000575 
L 475.545312 281.000575 
L 475.545312 79.400575 
L 446.745312 79.400575 
z
" clip-path="url(#p7be2ed79df)" style="fill: #b0c4de; stroke: #b0c4de; stroke-linejoin: miter"/>
   </g>
   <g id="patch_11">
    <path d="M 504.345312 281.000575 
L 533.145312 281.000575 
L 533.145312 79.400575 
L 504.345312 79.400575 
z
" clip-path="url(#p7be2ed79df)" style="fill: #b0c4de; stroke: #b0c4de; stroke-linejoin: miter"/>
   </g>
   <g id="patch_12">
    <path d="M 72.345313 281.000575 
L 101.145313 281.000575 
L 101.145313 79.400575 
L 72.345313 79.400575 
z
" clip-path="url(#p7be2ed79df)" style="fill: #ffe4e1; stroke: #ffe4e1; stroke-linejoin: miter"/>
   </g>
   <g id="patch_13">
    <path d="M 129.945312 281.000575 
L 158.745313 281.000575 
L 158.745313 79.400575 
L 129.945312 79.400575 
z
" clip-path="url(#p7be2ed79df)" style="fill: #ffe4e1; stroke: #ffe4e1; stroke-linejoin: miter"/>
   </g>
   <g id="patch_14">
    <path d="M 187.545313 281.000575 
L 216.345313 281.000575 
L 216.345313 79.400575 
L 187.545313 79.400575 
z
" clip-path="url(#p7be2ed79df)" style="fill: #ffe4e1; stroke: #ffe4e1; stroke-linejoin: miter"/>
   </g>
   <g id="patch_15">
    <path d="M 245.145312 281.000575 
L 273.945312 281.000575 
L 273.945312 79.400575 
L 245.145312 79.400575 
z
" clip-path="url(#p7be2ed79df)" style="fill: #ffe4e1; stroke: #ffe4e1; stroke-linejoin: miter"/>
   </g>
   <g id="patch_16">
    <path d="M 302.745313 281.000575 
L 331.545313 281.000575 
L 331.545313 79.400575 
L 302.745313 79.400575 
z
" clip-path="url(#p7be2ed79df)" style="fill: #ffe4e1; stroke: #ffe4e1; stroke-linejoin: miter"/>
   </g>
   <g id="patch_17">
    <path d="M 360.345312 281.000575 
L 389.145312 281.000575 
L 389.145312 79.400575 
L 360.345312 79.400575 
z
" clip-path="url(#p7be2ed79df)" style="fill: #ffe4e1; stroke: #ffe4e1; stroke-linejoin: miter"/>
   </g>
   <g id="patch_18">
    <path d="M 417.945312 281.000575 
L 446.745313 281.000575 
L 446.745313 79.400575 
L 417.945312 79.400575 
z
" clip-path="url(#p7be2ed79df)" style="fill: #ffe4e1; stroke: #ffe4e1; stroke-linejoin: miter"/>
   </g>
   <g id="patch_19">
    <path d="M 475.545312 281.000575 
L 504.345312 281.000575 
L 504.345312 79.400575 
L 475.545312 79.400575 
z
" clip-path="url(#p7be2ed79df)" style="fill: #ffe4e1; stroke: #ffe4e1; stroke-linejoin: miter"/>
   </g>
   <g id="patch_20">
    <path d="M 533.145312 281.000575 
L 561.945312 281.000575 
L 561.945312 79.400575 
L 533.145312 79.400575 
z
" clip-path="url(#p7be2ed79df)" style="fill: #ffe4e1; stroke: #ffe4e1; stroke-linejoin: miter"/>
   </g>
   <g id="LineCollection_1">
    <path d="M 43.545313 281.000575 
L 561.945312 281.000575 
" clip-path="url(#p7be2ed79df)" style="fill: none; stroke-dasharray: 1.85,0.8; stroke-dashoffset: 0; stroke: #000000; stroke-width: 0.5"/>
    <path d="M 43.545313 230.600575 
L 561.945312 230.600575 
" clip-path="url(#p7be2ed79df)" style="fill: none; stroke-dasharray: 1.85,0.8; stroke-dashoffset: 0; stroke: #000000; stroke-width: 0.5"/>
    <path d="M 43.545313 180.200575 
L 561.945312 180.200575 
" clip-path="url(#p7be2ed79df)" style="fill: none; stroke-dasharray: 1.85,0.8; stroke-dashoffset: 0; stroke: #000000; stroke-width: 0.5"/>
    <path d="M 43.545313 129.800575 
L 561.945312 129.800575 
" clip-path="url(#p7be2ed79df)" style="fill: none; stroke-dasharray: 1.85,0.8; stroke-dashoffset: 0; stroke: #000000; stroke-width: 0.5"/>
    <path d="M 43.545313 79.400575 
L 561.945312 79.400575 
" clip-path="url(#p7be2ed79df)" style="fill: none; stroke-dasharray: 1.85,0.8; stroke-dashoffset: 0; stroke: #000000; stroke-width: 0.5"/>
   </g>
   <g id="PathCollection_1">
    <defs>
     <path id="m3b66736567" d="M 0 0.612372 
C 0.162403 0.612372 0.318176 0.547849 0.433013 0.433013 
C 0.547849 0.318176 0.612372 0.162403 0.612372 0 
C 0.612372 -0.162403 0.547849 -0.318176 0.433013 -0.433013 
C 0.318176 -0.547849 0.162403 -0.612372 0 -0.612372 
C -0.162403 -0.612372 -0.318176 -0.547849 -0.433013 -0.433013 
C -0.547849 -0.318176 -0.612372 -0.162403 -0.612372 0 
C -0.612372 0.162403 -0.547849 0.318176 -0.433013 0.433013 
C -0.318176 0.547849 -0.162403 0.612372 0 0.612372 
z
" style="stroke: #000000"/>
    </defs>
    <g clip-path="url(#p7be2ed79df)">
     <use xlink:href="#m3b66736567" x="46.425313" y="205.766995" style="stroke: #000000"/>
     <use xlink:href="#m3b66736567" x="48.729313" y="203.905007" style="stroke: #000000"/>
     <use xlink:href="#m3b66736567" x="51.033313" y="203.375955" style="stroke: #000000"/>
     <use xlink:href="#m3b66736567" x="53.337313" y="193.723601" style="stroke: #000000"/>
     <use xlink:href="#m3b66736567" x="55.641313" y="192.194778" style="stroke: #000000"/>
     <use xlink:href="#m3b66736567" x="57.945313" y="182.944058" style="stroke: #000000"/>
     <use xlink:href="#m3b66736567" x="60.249313" y="181.752499" style="stroke: #000000"/>
     <use xlink:href="#m3b66736567" x="62.553313" y="174.160594" style="stroke: #000000"/>
     <use xlink:href="#m3b66736567" x="64.857313" y="171.040191" style="stroke: #000000"/>
     <use xlink:href="#m3b66736567" x="67.161313" y="170.709626" style="stroke: #000000"/>
     <use xlink:href="#m3b66736567" x="69.465313" y="163.757874" style="stroke: #000000"/>
    </g>
   </g>
   <g id="PathCollection_2">
    <g clip-path="url(#p7be2ed79df)">
     <use xlink:href="#m3b66736567" x="75.225313" y="201.279866" style="stroke: #000000"/>
     <use xlink:href="#m3b66736567" x="76.580607" y="200.848746" style="stroke: #000000"/>
     <use xlink:href="#m3b66736567" x="77.935901" y="199.806694" style="stroke: #000000"/>
     <use xlink:href="#m3b66736567" x="79.291195" y="196.658409" style="stroke: #000000"/>
     <use xlink:href="#m3b66736567" x="80.646489" y="192.96614" style="stroke: #000000"/>
     <use xlink:href="#m3b66736567" x="82.001783" y="189.195346" style="stroke: #000000"/>
     <use xlink:href="#m3b66736567" x="83.357077" y="185.102302" style="stroke: #000000"/>
     <use xlink:href="#m3b66736567" x="84.712371" y="180.067341" style="stroke: #000000"/>
     <use xlink:href="#m3b66736567" x="86.067665" y="179.365373" style="stroke: #000000"/>
     <use xlink:href="#m3b66736567" x="87.42296" y="179.307275" style="stroke: #000000"/>
     <use xlink:href="#m3b66736567" x="88.778254" y="175.308081" style="stroke: #000000"/>
     <use xlink:href="#m3b66736567" x="90.133548" y="173.163201" style="stroke: #000000"/>
     <use xlink:href="#m3b66736567" x="91.488842" y="171.522711" style="stroke: #000000"/>
     <use xlink:href="#m3b66736567" x="92.844136" y="170.504923" style="stroke: #000000"/>
     <use xlink:href="#m3b66736567" x="94.19943" y="169.925665" style="stroke: #000000"/>
     <use xlink:href="#m3b66736567" x="95.554724" y="169.301569" style="stroke: #000000"/>
     <use xlink:href="#m3b66736567" x="96.910018" y="168.00892" style="stroke: #000000"/>
     <use xlink:href="#m3b66736567" x="98.265312" y="162.416853" style="stroke: #000000"/>
    </g>
   </g>
   <g id="PathCollection_3">
    <g clip-path="url(#p7be2ed79df)">
     <use xlink:href="#m3b66736567" x="104.025313" y="215.183085" style="stroke: #000000"/>
     <use xlink:href="#m3b66736567" x="104.745313" y="202.521664" style="stroke: #000000"/>
     <use xlink:href="#m3b66736567" x="105.465313" y="197.062714" style="stroke: #000000"/>
     <use xlink:href="#m3b66736567" x="106.185313" y="189.586221" style="stroke: #000000"/>
     <use xlink:href="#m3b66736567" x="106.905313" y="187.623756" style="stroke: #000000"/>
     <use xlink:href="#m3b66736567" x="107.625313" y="186.679382" style="stroke: #000000"/>
     <use xlink:href="#m3b66736567" x="108.345313" y="184.783304" style="stroke: #000000"/>
     <use xlink:href="#m3b66736567" x="109.065313" y="183.507889" style="stroke: #000000"/>
     <use xlink:href="#m3b66736567" x="109.785313" y="181.058077" style="stroke: #000000"/>
     <use xlink:href="#m3b66736567" x="110.505313" y="180.499589" style="stroke: #000000"/>
     <use xlink:href="#m3b66736567" x="111.225313" y="179.562601" style="stroke: #000000"/>
     <use xlink:href="#m3b66736567" x="111.945312" y="177.491757" style="stroke: #000000"/>
     <use xlink:href="#m3b66736567" x="112.665312" y="176.679283" style="stroke: #000000"/>
     <use xlink:href="#m3b66736567" x="113.385312" y="175.025955" style="stroke: #000000"/>
     <use xlink:href="#m3b66736567" x="114.105313" y="174.339041" style="stroke: #000000"/>
     <use xlink:href="#m3b66736567" x="114.825313" y="172.104652" style="stroke: #000000"/>
     <use xlink:href="#m3b66736567" x="115.545313" y="171.593976" style="stroke: #000000"/>
     <use xlink:href="#m3b66736567" x="116.265312" y="169.46287" style="stroke: #000000"/>
     <use xlink:href="#m3b66736567" x="116.985312" y="169.398207" style="stroke: #000000"/>
     <use xlink:href="#m3b66736567" x="117.705313" y="168.86515" style="stroke: #000000"/>
     <use xlink:href="#m3b66736567" x="118.425313" y="161.723914" style="stroke: #000000"/>
     <use xlink:href="#m3b66736567" x="119.145313" y="158.769069" style="stroke: #000000"/>
     <use xlink:href="#m3b66736567" x="119.865313" y="131.060875" style="stroke: #000000"/>
     <use xlink:href="#m3b66736567" x="120.585313" y="121.833942" style="stroke: #000000"/>
     <use xlink:href="#m3b66736567" x="121.305312" y="120.260224" style="stroke: #000000"/>
     <use xlink:href="#m3b66736567" x="122.025312" y="73.779471" style="stroke: #000000"/>
     <use xlink:href="#m3b66736567" x="122.745312" y="70.759842" style="stroke: #000000"/>
     <use xlink:href="#m3b66736567" x="123.465312" y="51.727096" style="stroke: #000000"/>
     <use xlink:href="#m3b66736567" x="124.185312" y="51.27515" style="stroke: #000000"/>
     <use xlink:href="#m3b66736567" x="124.905313" y="45.222058" style="stroke: #000000"/>
     <use xlink:href="#m3b66736567" x="125.625312" y="44.553494" style="stroke: #000000"/>
     <use xlink:href="#m3b66736567" x="126.345313" y="42.694525" style="stroke: #000000"/>
     <use xlink:href="#m3b66736567" x="127.065313" y="41.582465" style="stroke: #000000"/>
    </g>
   </g>
   <g id="PathCollection_4">
    <g clip-path="url(#p7be2ed79df)">
     <use xlink:href="#m3b66736567" x="132.825312" y="201.438767" style="stroke: #000000"/>
     <use xlink:href="#m3b66736567" x="134.471027" y="197.013802" style="stroke: #000000"/>
     <use xlink:href="#m3b66736567" x="136.116741" y="195.794383" style="stroke: #000000"/>
     <use xlink:href="#m3b66736567" x="137.762455" y="190.090775" style="stroke: #000000"/>
     <use xlink:href="#m3b66736567" x="139.40817" y="178.432901" style="stroke: #000000"/>
     <use xlink:href="#m3b66736567" x="141.053884" y="177.652555" style="stroke: #000000"/>
     <use xlink:href="#m3b66736567" x="142.699598" y="169.402819" style="stroke: #000000"/>
     <use xlink:href="#m3b66736567" x="144.345312" y="165.304713" style="stroke: #000000"/>
     <use xlink:href="#m3b66736567" x="145.991027" y="163.032224" style="stroke: #000000"/>
     <use xlink:href="#m3b66736567" x="147.636741" y="162.785359" style="stroke: #000000"/>
     <use xlink:href="#m3b66736567" x="149.282455" y="162.27983" style="stroke: #000000"/>
     <use xlink:href="#m3b66736567" x="150.92817" y="159.842118" style="stroke: #000000"/>
     <use xlink:href="#m3b66736567" x="152.573884" y="158.8259" style="stroke: #000000"/>
     <use xlink:href="#m3b66736567" x="154.219598" y="151.35198" style="stroke: #000000"/>
     <use xlink:href="#m3b66736567" x="155.865313" y="136.32819" style="stroke: #000000"/>
    </g>
   </g>
   <g id="PathCollection_5">
    <g clip-path="url(#p7be2ed79df)">
     <use xlink:href="#m3b66736567" x="161.625313" y="208.479106" style="stroke: #000000"/>
     <use xlink:href="#m3b66736567" x="165.465312" y="201.841139" style="stroke: #000000"/>
     <use xlink:href="#m3b66736567" x="169.305312" y="195.564541" style="stroke: #000000"/>
     <use xlink:href="#m3b66736567" x="173.145312" y="193.597845" style="stroke: #000000"/>
     <use xlink:href="#m3b66736567" x="176.985313" y="191.947889" style="stroke: #000000"/>
     <use xlink:href="#m3b66736567" x="180.825312" y="190.974909" style="stroke: #000000"/>
     <use xlink:href="#m3b66736567" x="184.665313" y="157.455616" style="stroke: #000000"/>
    </g>
   </g>
   <g id="PathCollection_6">
    <g clip-path="url(#p7be2ed79df)">
     <use xlink:href="#m3b66736567" x="190.425312" y="212.746563" style="stroke: #000000"/>
     <use xlink:href="#m3b66736567" x="192.985312" y="209.928449" style="stroke: #000000"/>
     <use xlink:href="#m3b66736567" x="195.545312" y="195.022571" style="stroke: #000000"/>
     <use xlink:href="#m3b66736567" x="198.105312" y="189.784308" style="stroke: #000000"/>
     <use xlink:href="#m3b66736567" x="200.665312" y="186.842501" style="stroke: #000000"/>
     <use xlink:href="#m3b66736567" x="203.225312" y="186.801607" style="stroke: #000000"/>
     <use xlink:href="#m3b66736567" x="205.785313" y="161.222998" style="stroke: #000000"/>
     <use xlink:href="#m3b66736567" x="208.345312" y="159.382037" style="stroke: #000000"/>
     <use xlink:href="#m3b66736567" x="210.905313" y="141.828781" style="stroke: #000000"/>
     <use xlink:href="#m3b66736567" x="213.465312" y="122.137913" style="stroke: #000000"/>
    </g>
   </g>
   <g id="PathCollection_7">
    <g clip-path="url(#p7be2ed79df)">
     <use xlink:href="#m3b66736567" x="219.225312" y="195.640887" style="stroke: #000000"/>
     <use xlink:href="#m3b66736567" x="222.105312" y="180.746048" style="stroke: #000000"/>
     <use xlink:href="#m3b66736567" x="224.985312" y="175.902096" style="stroke: #000000"/>
     <use xlink:href="#m3b66736567" x="227.865313" y="175.557195" style="stroke: #000000"/>
     <use xlink:href="#m3b66736567" x="230.745313" y="172.021307" style="stroke: #000000"/>
     <use xlink:href="#m3b66736567" x="233.625313" y="171.639912" style="stroke: #000000"/>
     <use xlink:href="#m3b66736567" x="236.505313" y="167.72937" style="stroke: #000000"/>
     <use xlink:href="#m3b66736567" x="239.385312" y="167.461787" style="stroke: #000000"/>
     <use xlink:href="#m3b66736567" x="242.265312" y="162.33654" style="stroke: #000000"/>
    </g>
   </g>
   <g id="PathCollection_8">
    <g clip-path="url(#p7be2ed79df)">
     <use xlink:href="#m3b66736567" x="248.025312" y="222.162881" style="stroke: #000000"/>
     <use xlink:href="#m3b66736567" x="249.79762" y="197.928378" style="stroke: #000000"/>
     <use xlink:href="#m3b66736567" x="251.569928" y="175.989178" style="stroke: #000000"/>
     <use xlink:href="#m3b66736567" x="253.342236" y="171.025282" style="stroke: #000000"/>
     <use xlink:href="#m3b66736567" x="255.114543" y="170.940991" style="stroke: #000000"/>
     <use xlink:href="#m3b66736567" x="256.886851" y="168.424024" style="stroke: #000000"/>
     <use xlink:href="#m3b66736567" x="258.659159" y="163.499214" style="stroke: #000000"/>
     <use xlink:href="#m3b66736567" x="260.431466" y="161.672007" style="stroke: #000000"/>
     <use xlink:href="#m3b66736567" x="262.203774" y="159.074846" style="stroke: #000000"/>
     <use xlink:href="#m3b66736567" x="263.976082" y="156.45523" style="stroke: #000000"/>
     <use xlink:href="#m3b66736567" x="265.748389" y="154.092955" style="stroke: #000000"/>
     <use xlink:href="#m3b66736567" x="267.520697" y="147.712545" style="stroke: #000000"/>
     <use xlink:href="#m3b66736567" x="269.293005" y="134.411265" style="stroke: #000000"/>
     <use xlink:href="#m3b66736567" x="271.065313" y="128.76054" style="stroke: #000000"/>
    </g>
   </g>
   <g id="PathCollection_9">
    <g clip-path="url(#p7be2ed79df)">
     <use xlink:href="#m3b66736567" x="276.825312" y="223.596091" style="stroke: #000000"/>
     <use xlink:href="#m3b66736567" x="280.665312" y="191.074008" style="stroke: #000000"/>
     <use xlink:href="#m3b66736567" x="284.505313" y="186.43696" style="stroke: #000000"/>
     <use xlink:href="#m3b66736567" x="288.345312" y="186.356746" style="stroke: #000000"/>
     <use xlink:href="#m3b66736567" x="292.185312" y="186.088173" style="stroke: #000000"/>
     <use xlink:href="#m3b66736567" x="296.025312" y="179.6582" style="stroke: #000000"/>
     <use xlink:href="#m3b66736567" x="299.865313" y="169.127778" style="stroke: #000000"/>
    </g>
   </g>
   <g id="PathCollection_10">
    <g clip-path="url(#p7be2ed79df)">
     <use xlink:href="#m3b66736567" x="305.625313" y="197.507918" style="stroke: #000000"/>
     <use xlink:href="#m3b66736567" x="307.929312" y="186.924519" style="stroke: #000000"/>
     <use xlink:href="#m3b66736567" x="310.233313" y="177.625673" style="stroke: #000000"/>
     <use xlink:href="#m3b66736567" x="312.537312" y="177.37857" style="stroke: #000000"/>
     <use xlink:href="#m3b66736567" x="314.841313" y="170.675375" style="stroke: #000000"/>
     <use xlink:href="#m3b66736567" x="317.145312" y="169.091365" style="stroke: #000000"/>
     <use xlink:href="#m3b66736567" x="319.449313" y="165.651727" style="stroke: #000000"/>
     <use xlink:href="#m3b66736567" x="321.753312" y="161.513804" style="stroke: #000000"/>
     <use xlink:href="#m3b66736567" x="324.057313" y="158.754884" style="stroke: #000000"/>
     <use xlink:href="#m3b66736567" x="326.361312" y="150.491478" style="stroke: #000000"/>
     <use xlink:href="#m3b66736567" x="328.665313" y="149.99172" style="stroke: #000000"/>
    </g>
   </g>
   <g id="PathCollection_11">
    <g clip-path="url(#p7be2ed79df)">
     <use xlink:href="#m3b66736567" x="334.425312" y="193.500532" style="stroke: #000000"/>
     <use xlink:href="#m3b66736567" x="336.985312" y="185.216008" style="stroke: #000000"/>
     <use xlink:href="#m3b66736567" x="339.545312" y="184.524047" style="stroke: #000000"/>
     <use xlink:href="#m3b66736567" x="342.105313" y="184.231466" style="stroke: #000000"/>
     <use xlink:href="#m3b66736567" x="344.665312" y="184.005577" style="stroke: #000000"/>
     <use xlink:href="#m3b66736567" x="347.225312" y="179.489346" style="stroke: #000000"/>
     <use xlink:href="#m3b66736567" x="349.785312" y="173.701082" style="stroke: #000000"/>
     <use xlink:href="#m3b66736567" x="352.345312" y="164.423734" style="stroke: #000000"/>
     <use xlink:href="#m3b66736567" x="354.905313" y="161.488083" style="stroke: #000000"/>
     <use xlink:href="#m3b66736567" x="357.465312" y="143.560296" style="stroke: #000000"/>
    </g>
   </g>
   <g id="PathCollection_12">
    <g clip-path="url(#p7be2ed79df)">
     <use xlink:href="#m3b66736567" x="363.225312" y="236.428935" style="stroke: #000000"/>
     <use xlink:href="#m3b66736567" x="364.272585" y="195.473276" style="stroke: #000000"/>
     <use xlink:href="#m3b66736567" x="365.319858" y="178.474752" style="stroke: #000000"/>
     <use xlink:href="#m3b66736567" x="366.367131" y="172.27756" style="stroke: #000000"/>
     <use xlink:href="#m3b66736567" x="367.414403" y="166.812947" style="stroke: #000000"/>
     <use xlink:href="#m3b66736567" x="368.461676" y="164.237137" style="stroke: #000000"/>
     <use xlink:href="#m3b66736567" x="369.508949" y="161.652574" style="stroke: #000000"/>
     <use xlink:href="#m3b66736567" x="370.556222" y="159.405397" style="stroke: #000000"/>
     <use xlink:href="#m3b66736567" x="371.603494" y="159.320835" style="stroke: #000000"/>
     <use xlink:href="#m3b66736567" x="372.650767" y="159.317925" style="stroke: #000000"/>
     <use xlink:href="#m3b66736567" x="373.69804" y="156.570426" style="stroke: #000000"/>
     <use xlink:href="#m3b66736567" x="374.745313" y="155.658014" style="stroke: #000000"/>
     <use xlink:href="#m3b66736567" x="375.792585" y="154.817626" style="stroke: #000000"/>
     <use xlink:href="#m3b66736567" x="376.839858" y="153.415939" style="stroke: #000000"/>
     <use xlink:href="#m3b66736567" x="377.887131" y="153.056688" style="stroke: #000000"/>
     <use xlink:href="#m3b66736567" x="378.934403" y="151.062702" style="stroke: #000000"/>
     <use xlink:href="#m3b66736567" x="379.981676" y="150.551833" style="stroke: #000000"/>
     <use xlink:href="#m3b66736567" x="381.028949" y="147.049693" style="stroke: #000000"/>
     <use xlink:href="#m3b66736567" x="382.076222" y="145.6625" style="stroke: #000000"/>
     <use xlink:href="#m3b66736567" x="383.123494" y="144.747836" style="stroke: #000000"/>
     <use xlink:href="#m3b66736567" x="384.170767" y="140.172017" style="stroke: #000000"/>
     <use xlink:href="#m3b66736567" x="385.21804" y="136.402629" style="stroke: #000000"/>
     <use xlink:href="#m3b66736567" x="386.265312" y="134.34422" style="stroke: #000000"/>
    </g>
   </g>
   <g id="PathCollection_13">
    <g clip-path="url(#p7be2ed79df)">
     <use xlink:href="#m3b66736567" x="392.025312" y="226.970209" style="stroke: #000000"/>
     <use xlink:href="#m3b66736567" x="393.945312" y="222.788308" style="stroke: #000000"/>
     <use xlink:href="#m3b66736567" x="395.865312" y="212.546971" style="stroke: #000000"/>
     <use xlink:href="#m3b66736567" x="397.785313" y="208.561756" style="stroke: #000000"/>
     <use xlink:href="#m3b66736567" x="399.705312" y="203.972046" style="stroke: #000000"/>
     <use xlink:href="#m3b66736567" x="401.625313" y="197.391623" style="stroke: #000000"/>
     <use xlink:href="#m3b66736567" x="403.545312" y="196.466964" style="stroke: #000000"/>
     <use xlink:href="#m3b66736567" x="405.465312" y="195.216738" style="stroke: #000000"/>
     <use xlink:href="#m3b66736567" x="407.385312" y="193.458959" style="stroke: #000000"/>
     <use xlink:href="#m3b66736567" x="409.305312" y="190.607234" style="stroke: #000000"/>
     <use xlink:href="#m3b66736567" x="411.225313" y="187.224436" style="stroke: #000000"/>
     <use xlink:href="#m3b66736567" x="413.145312" y="186.557836" style="stroke: #000000"/>
     <use xlink:href="#m3b66736567" x="415.065313" y="143.775246" style="stroke: #000000"/>
    </g>
   </g>
   <g id="PathCollection_14">
    <g clip-path="url(#p7be2ed79df)">
     <use xlink:href="#m3b66736567" x="420.825312" y="189.854651" style="stroke: #000000"/>
     <use xlink:href="#m3b66736567" x="422.180607" y="187.079135" style="stroke: #000000"/>
     <use xlink:href="#m3b66736567" x="423.535901" y="185.979692" style="stroke: #000000"/>
     <use xlink:href="#m3b66736567" x="424.891195" y="182.427817" style="stroke: #000000"/>
     <use xlink:href="#m3b66736567" x="426.246489" y="179.999865" style="stroke: #000000"/>
     <use xlink:href="#m3b66736567" x="427.601783" y="177.923203" style="stroke: #000000"/>
     <use xlink:href="#m3b66736567" x="428.957077" y="175.747451" style="stroke: #000000"/>
     <use xlink:href="#m3b66736567" x="430.312371" y="174.327485" style="stroke: #000000"/>
     <use xlink:href="#m3b66736567" x="431.667665" y="169.274036" style="stroke: #000000"/>
     <use xlink:href="#m3b66736567" x="433.02296" y="168.623434" style="stroke: #000000"/>
     <use xlink:href="#m3b66736567" x="434.378254" y="161.510587" style="stroke: #000000"/>
     <use xlink:href="#m3b66736567" x="435.733548" y="161.027056" style="stroke: #000000"/>
     <use xlink:href="#m3b66736567" x="437.088842" y="160.012667" style="stroke: #000000"/>
     <use xlink:href="#m3b66736567" x="438.444136" y="145.181314" style="stroke: #000000"/>
     <use xlink:href="#m3b66736567" x="439.79943" y="134.021198" style="stroke: #000000"/>
     <use xlink:href="#m3b66736567" x="441.154724" y="126.141427" style="stroke: #000000"/>
     <use xlink:href="#m3b66736567" x="442.510018" y="82.828073" style="stroke: #000000"/>
     <use xlink:href="#m3b66736567" x="443.865313" y="79.443002" style="stroke: #000000"/>
    </g>
   </g>
   <g id="PathCollection_15">
    <g clip-path="url(#p7be2ed79df)">
     <use xlink:href="#m3b66736567" x="449.625312" y="217.053698" style="stroke: #000000"/>
     <use xlink:href="#m3b66736567" x="455.385312" y="216.931983" style="stroke: #000000"/>
     <use xlink:href="#m3b66736567" x="461.145312" y="213.528984" style="stroke: #000000"/>
     <use xlink:href="#m3b66736567" x="466.905312" y="205.453436" style="stroke: #000000"/>
     <use xlink:href="#m3b66736567" x="472.665312" y="204.561823" style="stroke: #000000"/>
    </g>
   </g>
   <g id="PathCollection_16">
    <g clip-path="url(#p7be2ed79df)">
     <use xlink:href="#m3b66736567" x="478.425312" y="211.862392" style="stroke: #000000"/>
     <use xlink:href="#m3b66736567" x="480.985312" y="189.047719" style="stroke: #000000"/>
     <use xlink:href="#m3b66736567" x="483.545312" y="187.676845" style="stroke: #000000"/>
     <use xlink:href="#m3b66736567" x="486.105312" y="185.861959" style="stroke: #000000"/>
     <use xlink:href="#m3b66736567" x="488.665312" y="185.599353" style="stroke: #000000"/>
     <use xlink:href="#m3b66736567" x="491.225312" y="185.254042" style="stroke: #000000"/>
     <use xlink:href="#m3b66736567" x="493.785312" y="183.826529" style="stroke: #000000"/>
     <use xlink:href="#m3b66736567" x="496.345312" y="177.52516" style="stroke: #000000"/>
     <use xlink:href="#m3b66736567" x="498.905312" y="176.75015" style="stroke: #000000"/>
     <use xlink:href="#m3b66736567" x="501.465312" y="164.663883" style="stroke: #000000"/>
    </g>
   </g>
   <g id="PathCollection_17">
    <g clip-path="url(#p7be2ed79df)">
     <use xlink:href="#m3b66736567" x="507.225313" y="226.589531" style="stroke: #000000"/>
     <use xlink:href="#m3b66736567" x="510.516741" y="212.981744" style="stroke: #000000"/>
     <use xlink:href="#m3b66736567" x="513.80817" y="209.205992" style="stroke: #000000"/>
     <use xlink:href="#m3b66736567" x="517.099598" y="187.847599" style="stroke: #000000"/>
     <use xlink:href="#m3b66736567" x="520.391027" y="187.245272" style="stroke: #000000"/>
     <use xlink:href="#m3b66736567" x="523.682455" y="182.211428" style="stroke: #000000"/>
     <use xlink:href="#m3b66736567" x="526.973884" y="170.763556" style="stroke: #000000"/>
     <use xlink:href="#m3b66736567" x="530.265312" y="170.74393" style="stroke: #000000"/>
    </g>
   </g>
   <g id="PathCollection_18">
    <g clip-path="url(#p7be2ed79df)">
     <use xlink:href="#m3b66736567" x="536.025313" y="229.476413" style="stroke: #000000"/>
     <use xlink:href="#m3b66736567" x="536.505312" y="229.333351" style="stroke: #000000"/>
     <use xlink:href="#m3b66736567" x="536.985312" y="218.921287" style="stroke: #000000"/>
     <use xlink:href="#m3b66736567" x="537.465312" y="208.755828" style="stroke: #000000"/>
     <use xlink:href="#m3b66736567" x="537.945312" y="196.706534" style="stroke: #000000"/>
     <use xlink:href="#m3b66736567" x="538.425312" y="191.819057" style="stroke: #000000"/>
     <use xlink:href="#m3b66736567" x="538.905313" y="191.538269" style="stroke: #000000"/>
     <use xlink:href="#m3b66736567" x="539.385313" y="190.962553" style="stroke: #000000"/>
     <use xlink:href="#m3b66736567" x="539.865312" y="189.447467" style="stroke: #000000"/>
     <use xlink:href="#m3b66736567" x="540.345312" y="189.047719" style="stroke: #000000"/>
     <use xlink:href="#m3b66736567" x="540.825312" y="175.698194" style="stroke: #000000"/>
     <use xlink:href="#m3b66736567" x="541.305313" y="175.624516" style="stroke: #000000"/>
     <use xlink:href="#m3b66736567" x="541.785312" y="174.942616" style="stroke: #000000"/>
     <use xlink:href="#m3b66736567" x="542.265312" y="174.023434" style="stroke: #000000"/>
     <use xlink:href="#m3b66736567" x="542.745313" y="173.617035" style="stroke: #000000"/>
     <use xlink:href="#m3b66736567" x="543.225312" y="169.444375" style="stroke: #000000"/>
     <use xlink:href="#m3b66736567" x="543.705312" y="168.968919" style="stroke: #000000"/>
     <use xlink:href="#m3b66736567" x="544.185312" y="168.86515" style="stroke: #000000"/>
     <use xlink:href="#m3b66736567" x="544.665312" y="164.405369" style="stroke: #000000"/>
     <use xlink:href="#m3b66736567" x="545.145312" y="162.734278" style="stroke: #000000"/>
     <use xlink:href="#m3b66736567" x="545.625312" y="161.273849" style="stroke: #000000"/>
     <use xlink:href="#m3b66736567" x="546.105312" y="160.867182" style="stroke: #000000"/>
     <use xlink:href="#m3b66736567" x="546.585312" y="159.889858" style="stroke: #000000"/>
     <use xlink:href="#m3b66736567" x="547.065313" y="159.370366" style="stroke: #000000"/>
     <use xlink:href="#m3b66736567" x="547.545312" y="158.523557" style="stroke: #000000"/>
     <use xlink:href="#m3b66736567" x="548.025312" y="158.51514" style="stroke: #000000"/>
     <use xlink:href="#m3b66736567" x="548.505312" y="157.947512" style="stroke: #000000"/>
     <use xlink:href="#m3b66736567" x="548.985312" y="155.364566" style="stroke: #000000"/>
     <use xlink:href="#m3b66736567" x="549.465312" y="154.903082" style="stroke: #000000"/>
     <use xlink:href="#m3b66736567" x="549.945312" y="154.362773" style="stroke: #000000"/>
     <use xlink:href="#m3b66736567" x="550.425313" y="154.323362" style="stroke: #000000"/>
     <use xlink:href="#m3b66736567" x="550.905312" y="152.583114" style="stroke: #000000"/>
     <use xlink:href="#m3b66736567" x="551.385312" y="151.896609" style="stroke: #000000"/>
     <use xlink:href="#m3b66736567" x="551.865312" y="149.88934" style="stroke: #000000"/>
     <use xlink:href="#m3b66736567" x="552.345312" y="149.671019" style="stroke: #000000"/>
     <use xlink:href="#m3b66736567" x="552.825312" y="147.403078" style="stroke: #000000"/>
     <use xlink:href="#m3b66736567" x="553.305312" y="146.675776" style="stroke: #000000"/>
     <use xlink:href="#m3b66736567" x="553.785312" y="146.030461" style="stroke: #000000"/>
     <use xlink:href="#m3b66736567" x="554.265312" y="145.954476" style="stroke: #000000"/>
     <use xlink:href="#m3b66736567" x="554.745312" y="144.917485" style="stroke: #000000"/>
     <use xlink:href="#m3b66736567" x="555.225312" y="144.535014" style="stroke: #000000"/>
     <use xlink:href="#m3b66736567" x="555.705312" y="144.028477" style="stroke: #000000"/>
     <use xlink:href="#m3b66736567" x="556.185312" y="143.861246" style="stroke: #000000"/>
     <use xlink:href="#m3b66736567" x="556.665312" y="143.819637" style="stroke: #000000"/>
     <use xlink:href="#m3b66736567" x="557.145312" y="143.499469" style="stroke: #000000"/>
     <use xlink:href="#m3b66736567" x="557.625312" y="142.390869" style="stroke: #000000"/>
     <use xlink:href="#m3b66736567" x="558.105312" y="140.269304" style="stroke: #000000"/>
     <use xlink:href="#m3b66736567" x="558.585312" y="138.6885" style="stroke: #000000"/>
     <use xlink:href="#m3b66736567" x="559.065312" y="90.471808" style="stroke: #000000"/>
    </g>
   </g>
   <g id="matplotlib.axis_1">
    <g id="xtick_1">
     <g id="line2d_1"/>
     <g id="text_1">
      <!-- 11 -->
      <g transform="translate(52.753125 291.658388) scale(0.1 -0.1)">
       <defs>
        <path id="ArialMT-31" d="M 2384 0 
L 1822 0 
L 1822 3584 
Q 1619 3391 1289 3197 
Q 959 3003 697 2906 
L 697 3450 
Q 1169 3672 1522 3987 
Q 1875 4303 2022 4600 
L 2384 4600 
L 2384 0 
z
" transform="scale(0.015625)"/>
       </defs>
       <use xlink:href="#ArialMT-31"/>
       <use xlink:href="#ArialMT-31" x="48.240234"/>
      </g>
     </g>
    </g>
    <g id="xtick_2">
     <g id="line2d_2"/>
     <g id="text_2">
      <!-- 18 -->
      <g transform="translate(81.184375 291.658388) scale(0.1 -0.1)">
       <defs>
        <path id="ArialMT-38" d="M 1131 2484 
Q 781 2613 612 2850 
Q 444 3088 444 3419 
Q 444 3919 803 4259 
Q 1163 4600 1759 4600 
Q 2359 4600 2725 4251 
Q 3091 3903 3091 3403 
Q 3091 3084 2923 2848 
Q 2756 2613 2416 2484 
Q 2838 2347 3058 2040 
Q 3278 1734 3278 1309 
Q 3278 722 2862 322 
Q 2447 -78 1769 -78 
Q 1091 -78 675 323 
Q 259 725 259 1325 
Q 259 1772 486 2073 
Q 713 2375 1131 2484 
z
M 1019 3438 
Q 1019 3113 1228 2906 
Q 1438 2700 1772 2700 
Q 2097 2700 2305 2904 
Q 2513 3109 2513 3406 
Q 2513 3716 2298 3927 
Q 2084 4138 1766 4138 
Q 1444 4138 1231 3931 
Q 1019 3725 1019 3438 
z
M 838 1322 
Q 838 1081 952 856 
Q 1066 631 1291 507 
Q 1516 384 1775 384 
Q 2178 384 2440 643 
Q 2703 903 2703 1303 
Q 2703 1709 2433 1975 
Q 2163 2241 1756 2241 
Q 1359 2241 1098 1978 
Q 838 1716 838 1322 
z
" transform="scale(0.015625)"/>
       </defs>
       <use xlink:href="#ArialMT-31"/>
       <use xlink:href="#ArialMT-38" x="55.615234"/>
      </g>
     </g>
    </g>
    <g id="xtick_3">
     <g id="line2d_3"/>
     <g id="text_3">
      <!-- 33 -->
      <g transform="translate(109.984375 291.658388) scale(0.1 -0.1)">
       <defs>
        <path id="ArialMT-33" d="M 269 1209 
L 831 1284 
Q 928 806 1161 595 
Q 1394 384 1728 384 
Q 2125 384 2398 659 
Q 2672 934 2672 1341 
Q 2672 1728 2419 1979 
Q 2166 2231 1775 2231 
Q 1616 2231 1378 2169 
L 1441 2663 
Q 1497 2656 1531 2656 
Q 1891 2656 2178 2843 
Q 2466 3031 2466 3422 
Q 2466 3731 2256 3934 
Q 2047 4138 1716 4138 
Q 1388 4138 1169 3931 
Q 950 3725 888 3313 
L 325 3413 
Q 428 3978 793 4289 
Q 1159 4600 1703 4600 
Q 2078 4600 2393 4439 
Q 2709 4278 2876 4000 
Q 3044 3722 3044 3409 
Q 3044 3113 2884 2869 
Q 2725 2625 2413 2481 
Q 2819 2388 3044 2092 
Q 3269 1797 3269 1353 
Q 3269 753 2831 336 
Q 2394 -81 1725 -81 
Q 1122 -81 723 278 
Q 325 638 269 1209 
z
" transform="scale(0.015625)"/>
       </defs>
       <use xlink:href="#ArialMT-33"/>
       <use xlink:href="#ArialMT-33" x="55.615234"/>
      </g>
     </g>
    </g>
    <g id="xtick_4">
     <g id="line2d_4"/>
     <g id="text_4">
      <!-- 15 -->
      <g transform="translate(138.784375 291.658388) scale(0.1 -0.1)">
       <defs>
        <path id="ArialMT-35" d="M 266 1200 
L 856 1250 
Q 922 819 1161 601 
Q 1400 384 1738 384 
Q 2144 384 2425 690 
Q 2706 997 2706 1503 
Q 2706 1984 2436 2262 
Q 2166 2541 1728 2541 
Q 1456 2541 1237 2417 
Q 1019 2294 894 2097 
L 366 2166 
L 809 4519 
L 3088 4519 
L 3088 3981 
L 1259 3981 
L 1013 2750 
Q 1425 3038 1878 3038 
Q 2478 3038 2890 2622 
Q 3303 2206 3303 1553 
Q 3303 931 2941 478 
Q 2500 -78 1738 -78 
Q 1113 -78 717 272 
Q 322 622 266 1200 
z
" transform="scale(0.015625)"/>
       </defs>
       <use xlink:href="#ArialMT-31"/>
       <use xlink:href="#ArialMT-35" x="55.615234"/>
      </g>
     </g>
    </g>
    <g id="xtick_5">
     <g id="line2d_5"/>
     <g id="text_5">
      <!-- 7 -->
      <g transform="translate(170.364844 291.658388) scale(0.1 -0.1)">
       <defs>
        <path id="ArialMT-37" d="M 303 3981 
L 303 4522 
L 3269 4522 
L 3269 4084 
Q 2831 3619 2401 2847 
Q 1972 2075 1738 1259 
Q 1569 684 1522 0 
L 944 0 
Q 953 541 1156 1306 
Q 1359 2072 1739 2783 
Q 2119 3494 2547 3981 
L 303 3981 
z
" transform="scale(0.015625)"/>
       </defs>
       <use xlink:href="#ArialMT-37"/>
      </g>
     </g>
    </g>
    <g id="xtick_6">
     <g id="line2d_6"/>
     <g id="text_6">
      <!-- 10 -->
      <g transform="translate(196.384375 291.658388) scale(0.1 -0.1)">
       <defs>
        <path id="ArialMT-30" d="M 266 2259 
Q 266 3072 433 3567 
Q 600 4063 929 4331 
Q 1259 4600 1759 4600 
Q 2128 4600 2406 4451 
Q 2684 4303 2865 4023 
Q 3047 3744 3150 3342 
Q 3253 2941 3253 2259 
Q 3253 1453 3087 958 
Q 2922 463 2592 192 
Q 2263 -78 1759 -78 
Q 1097 -78 719 397 
Q 266 969 266 2259 
z
M 844 2259 
Q 844 1131 1108 757 
Q 1372 384 1759 384 
Q 2147 384 2411 759 
Q 2675 1134 2675 2259 
Q 2675 3391 2411 3762 
Q 2147 4134 1753 4134 
Q 1366 4134 1134 3806 
Q 844 3388 844 2259 
z
" transform="scale(0.015625)"/>
       </defs>
       <use xlink:href="#ArialMT-31"/>
       <use xlink:href="#ArialMT-30" x="55.615234"/>
      </g>
     </g>
    </g>
    <g id="xtick_7">
     <g id="line2d_7"/>
     <g id="text_7">
      <!-- 9 -->
      <g transform="translate(227.964844 291.658388) scale(0.1 -0.1)">
       <defs>
        <path id="ArialMT-39" d="M 350 1059 
L 891 1109 
Q 959 728 1153 556 
Q 1347 384 1650 384 
Q 1909 384 2104 503 
Q 2300 622 2425 820 
Q 2550 1019 2634 1356 
Q 2719 1694 2719 2044 
Q 2719 2081 2716 2156 
Q 2547 1888 2255 1720 
Q 1963 1553 1622 1553 
Q 1053 1553 659 1965 
Q 266 2378 266 3053 
Q 266 3750 677 4175 
Q 1088 4600 1706 4600 
Q 2153 4600 2523 4359 
Q 2894 4119 3086 3673 
Q 3278 3228 3278 2384 
Q 3278 1506 3087 986 
Q 2897 466 2520 194 
Q 2144 -78 1638 -78 
Q 1100 -78 759 220 
Q 419 519 350 1059 
z
M 2653 3081 
Q 2653 3566 2395 3850 
Q 2138 4134 1775 4134 
Q 1400 4134 1122 3828 
Q 844 3522 844 3034 
Q 844 2597 1108 2323 
Q 1372 2050 1759 2050 
Q 2150 2050 2401 2323 
Q 2653 2597 2653 3081 
z
" transform="scale(0.015625)"/>
       </defs>
       <use xlink:href="#ArialMT-39"/>
      </g>
     </g>
    </g>
    <g id="xtick_8">
     <g id="line2d_8"/>
     <g id="text_8">
      <!-- 14 -->
      <g transform="translate(253.984375 291.658388) scale(0.1 -0.1)">
       <defs>
        <path id="ArialMT-34" d="M 2069 0 
L 2069 1097 
L 81 1097 
L 81 1613 
L 2172 4581 
L 2631 4581 
L 2631 1613 
L 3250 1613 
L 3250 1097 
L 2631 1097 
L 2631 0 
L 2069 0 
z
M 2069 1613 
L 2069 3678 
L 634 1613 
L 2069 1613 
z
" transform="scale(0.015625)"/>
       </defs>
       <use xlink:href="#ArialMT-31"/>
       <use xlink:href="#ArialMT-34" x="55.615234"/>
      </g>
     </g>
    </g>
    <g id="xtick_9">
     <g id="line2d_9"/>
     <g id="text_9">
      <!-- 7 -->
      <g transform="translate(285.564844 291.658388) scale(0.1 -0.1)">
       <use xlink:href="#ArialMT-37"/>
      </g>
     </g>
    </g>
    <g id="xtick_10">
     <g id="line2d_10"/>
     <g id="text_10">
      <!-- 11 -->
      <g transform="translate(311.953125 291.658388) scale(0.1 -0.1)">
       <use xlink:href="#ArialMT-31"/>
       <use xlink:href="#ArialMT-31" x="48.240234"/>
      </g>
     </g>
    </g>
    <g id="xtick_11">
     <g id="line2d_11"/>
     <g id="text_11">
      <!-- 10 -->
      <g transform="translate(340.384375 291.658388) scale(0.1 -0.1)">
       <use xlink:href="#ArialMT-31"/>
       <use xlink:href="#ArialMT-30" x="55.615234"/>
      </g>
     </g>
    </g>
    <g id="xtick_12">
     <g id="line2d_12"/>
     <g id="text_12">
      <!-- 23 -->
      <g transform="translate(369.184375 291.658388) scale(0.1 -0.1)">
       <defs>
        <path id="ArialMT-32" d="M 3222 541 
L 3222 0 
L 194 0 
Q 188 203 259 391 
Q 375 700 629 1000 
Q 884 1300 1366 1694 
Q 2113 2306 2375 2664 
Q 2638 3022 2638 3341 
Q 2638 3675 2398 3904 
Q 2159 4134 1775 4134 
Q 1369 4134 1125 3890 
Q 881 3647 878 3216 
L 300 3275 
Q 359 3922 746 4261 
Q 1134 4600 1788 4600 
Q 2447 4600 2831 4234 
Q 3216 3869 3216 3328 
Q 3216 3053 3103 2787 
Q 2991 2522 2730 2228 
Q 2469 1934 1863 1422 
Q 1356 997 1212 845 
Q 1069 694 975 541 
L 3222 541 
z
" transform="scale(0.015625)"/>
       </defs>
       <use xlink:href="#ArialMT-32"/>
       <use xlink:href="#ArialMT-33" x="55.615234"/>
      </g>
     </g>
    </g>
    <g id="xtick_13">
     <g id="line2d_13"/>
     <g id="text_13">
      <!-- 13 -->
      <g transform="translate(397.984375 291.658388) scale(0.1 -0.1)">
       <use xlink:href="#ArialMT-31"/>
       <use xlink:href="#ArialMT-33" x="55.615234"/>
      </g>
     </g>
    </g>
    <g id="xtick_14">
     <g id="line2d_14"/>
     <g id="text_14">
      <!-- 18 -->
      <g transform="translate(426.784375 291.658388) scale(0.1 -0.1)">
       <use xlink:href="#ArialMT-31"/>
       <use xlink:href="#ArialMT-38" x="55.615234"/>
      </g>
     </g>
    </g>
    <g id="xtick_15">
     <g id="line2d_15"/>
     <g id="text_15">
      <!-- 5 -->
      <g transform="translate(458.364844 291.658388) scale(0.1 -0.1)">
       <use xlink:href="#ArialMT-35"/>
      </g>
     </g>
    </g>
    <g id="xtick_16">
     <g id="line2d_16"/>
     <g id="text_16">
      <!-- 10 -->
      <g transform="translate(484.384375 291.658388) scale(0.1 -0.1)">
       <use xlink:href="#ArialMT-31"/>
       <use xlink:href="#ArialMT-30" x="55.615234"/>
      </g>
     </g>
    </g>
    <g id="xtick_17">
     <g id="line2d_17"/>
     <g id="text_17">
      <!-- 8 -->
      <g transform="translate(515.964844 291.658388) scale(0.1 -0.1)">
       <use xlink:href="#ArialMT-38"/>
      </g>
     </g>
    </g>
    <g id="xtick_18">
     <g id="line2d_18"/>
     <g id="text_18">
      <!-- 49 -->
      <g transform="translate(541.984375 291.658388) scale(0.1 -0.1)">
       <use xlink:href="#ArialMT-34"/>
       <use xlink:href="#ArialMT-39" x="55.615234"/>
      </g>
     </g>
    </g>
   </g>
   <g id="matplotlib.axis_2">
    <g id="ytick_1">
     <g id="line2d_19"/>
     <g id="text_19">
      <!-- 0.01 -->
      <g transform="translate(20.584375 284.579481) scale(0.1 -0.1)">
       <defs>
        <path id="ArialMT-2e" d="M 581 0 
L 581 641 
L 1222 641 
L 1222 0 
L 581 0 
z
" transform="scale(0.015625)"/>
       </defs>
       <use xlink:href="#ArialMT-30"/>
       <use xlink:href="#ArialMT-2e" x="55.615234"/>
       <use xlink:href="#ArialMT-30" x="83.398438"/>
       <use xlink:href="#ArialMT-31" x="139.013672"/>
      </g>
     </g>
    </g>
    <g id="ytick_2">
     <g id="line2d_20"/>
     <g id="text_20">
      <!-- 0.1 -->
      <g transform="translate(26.145313 234.179481) scale(0.1 -0.1)">
       <use xlink:href="#ArialMT-30"/>
       <use xlink:href="#ArialMT-2e" x="55.615234"/>
       <use xlink:href="#ArialMT-31" x="83.398438"/>
      </g>
     </g>
    </g>
    <g id="ytick_3">
     <g id="line2d_21"/>
     <g id="text_21">
      <!-- 1 -->
      <g transform="translate(34.484375 183.779481) scale(0.1 -0.1)">
       <use xlink:href="#ArialMT-31"/>
      </g>
     </g>
    </g>
    <g id="ytick_4">
     <g id="line2d_22"/>
     <g id="text_22">
      <!-- 10 -->
      <g transform="translate(28.923438 133.379481) scale(0.1 -0.1)">
       <use xlink:href="#ArialMT-31"/>
       <use xlink:href="#ArialMT-30" x="55.615234"/>
      </g>
     </g>
    </g>
    <g id="ytick_5">
     <g id="line2d_23"/>
     <g id="text_23">
      <!-- 100 -->
      <g transform="translate(23.3625 82.979481) scale(0.1 -0.1)">
       <use xlink:href="#ArialMT-31"/>
       <use xlink:href="#ArialMT-30" x="55.615234"/>
       <use xlink:href="#ArialMT-30" x="111.230469"/>
      </g>
     </g>
    </g>
    <g id="text_24">
     <!-- Somatic Mutations / Megabase -->
     <g transform="translate(14.479688 248.8412) rotate(-90) scale(0.1 -0.1)">
      <defs>
       <path id="ArialMT-53" d="M 288 1472 
L 859 1522 
Q 900 1178 1048 958 
Q 1197 738 1509 602 
Q 1822 466 2213 466 
Q 2559 466 2825 569 
Q 3091 672 3220 851 
Q 3350 1031 3350 1244 
Q 3350 1459 3225 1620 
Q 3100 1781 2813 1891 
Q 2628 1963 1997 2114 
Q 1366 2266 1113 2400 
Q 784 2572 623 2826 
Q 463 3081 463 3397 
Q 463 3744 659 4045 
Q 856 4347 1234 4503 
Q 1613 4659 2075 4659 
Q 2584 4659 2973 4495 
Q 3363 4331 3572 4012 
Q 3781 3694 3797 3291 
L 3216 3247 
Q 3169 3681 2898 3903 
Q 2628 4125 2100 4125 
Q 1550 4125 1298 3923 
Q 1047 3722 1047 3438 
Q 1047 3191 1225 3031 
Q 1400 2872 2139 2705 
Q 2878 2538 3153 2413 
Q 3553 2228 3743 1945 
Q 3934 1663 3934 1294 
Q 3934 928 3725 604 
Q 3516 281 3123 101 
Q 2731 -78 2241 -78 
Q 1619 -78 1198 103 
Q 778 284 539 648 
Q 300 1013 288 1472 
z
" transform="scale(0.015625)"/>
       <path id="ArialMT-6f" d="M 213 1659 
Q 213 2581 725 3025 
Q 1153 3394 1769 3394 
Q 2453 3394 2887 2945 
Q 3322 2497 3322 1706 
Q 3322 1066 3130 698 
Q 2938 331 2570 128 
Q 2203 -75 1769 -75 
Q 1072 -75 642 372 
Q 213 819 213 1659 
z
M 791 1659 
Q 791 1022 1069 705 
Q 1347 388 1769 388 
Q 2188 388 2466 706 
Q 2744 1025 2744 1678 
Q 2744 2294 2464 2611 
Q 2184 2928 1769 2928 
Q 1347 2928 1069 2612 
Q 791 2297 791 1659 
z
" transform="scale(0.015625)"/>
       <path id="ArialMT-6d" d="M 422 0 
L 422 3319 
L 925 3319 
L 925 2853 
Q 1081 3097 1340 3245 
Q 1600 3394 1931 3394 
Q 2300 3394 2536 3241 
Q 2772 3088 2869 2813 
Q 3263 3394 3894 3394 
Q 4388 3394 4653 3120 
Q 4919 2847 4919 2278 
L 4919 0 
L 4359 0 
L 4359 2091 
Q 4359 2428 4304 2576 
Q 4250 2725 4106 2815 
Q 3963 2906 3769 2906 
Q 3419 2906 3187 2673 
Q 2956 2441 2956 1928 
L 2956 0 
L 2394 0 
L 2394 2156 
Q 2394 2531 2256 2718 
Q 2119 2906 1806 2906 
Q 1569 2906 1367 2781 
Q 1166 2656 1075 2415 
Q 984 2175 984 1722 
L 984 0 
L 422 0 
z
" transform="scale(0.015625)"/>
       <path id="ArialMT-61" d="M 2588 409 
Q 2275 144 1986 34 
Q 1697 -75 1366 -75 
Q 819 -75 525 192 
Q 231 459 231 875 
Q 231 1119 342 1320 
Q 453 1522 633 1644 
Q 813 1766 1038 1828 
Q 1203 1872 1538 1913 
Q 2219 1994 2541 2106 
Q 2544 2222 2544 2253 
Q 2544 2597 2384 2738 
Q 2169 2928 1744 2928 
Q 1347 2928 1158 2789 
Q 969 2650 878 2297 
L 328 2372 
Q 403 2725 575 2942 
Q 747 3159 1072 3276 
Q 1397 3394 1825 3394 
Q 2250 3394 2515 3294 
Q 2781 3194 2906 3042 
Q 3031 2891 3081 2659 
Q 3109 2516 3109 2141 
L 3109 1391 
Q 3109 606 3145 398 
Q 3181 191 3288 0 
L 2700 0 
Q 2613 175 2588 409 
z
M 2541 1666 
Q 2234 1541 1622 1453 
Q 1275 1403 1131 1340 
Q 988 1278 909 1158 
Q 831 1038 831 891 
Q 831 666 1001 516 
Q 1172 366 1500 366 
Q 1825 366 2078 508 
Q 2331 650 2450 897 
Q 2541 1088 2541 1459 
L 2541 1666 
z
" transform="scale(0.015625)"/>
       <path id="ArialMT-74" d="M 1650 503 
L 1731 6 
Q 1494 -44 1306 -44 
Q 1000 -44 831 53 
Q 663 150 594 308 
Q 525 466 525 972 
L 525 2881 
L 113 2881 
L 113 3319 
L 525 3319 
L 525 4141 
L 1084 4478 
L 1084 3319 
L 1650 3319 
L 1650 2881 
L 1084 2881 
L 1084 941 
Q 1084 700 1114 631 
Q 1144 563 1211 522 
Q 1278 481 1403 481 
Q 1497 481 1650 503 
z
" transform="scale(0.015625)"/>
       <path id="ArialMT-69" d="M 425 3934 
L 425 4581 
L 988 4581 
L 988 3934 
L 425 3934 
z
M 425 0 
L 425 3319 
L 988 3319 
L 988 0 
L 425 0 
z
" transform="scale(0.015625)"/>
       <path id="ArialMT-63" d="M 2588 1216 
L 3141 1144 
Q 3050 572 2676 248 
Q 2303 -75 1759 -75 
Q 1078 -75 664 370 
Q 250 816 250 1647 
Q 250 2184 428 2587 
Q 606 2991 970 3192 
Q 1334 3394 1763 3394 
Q 2303 3394 2647 3120 
Q 2991 2847 3088 2344 
L 2541 2259 
Q 2463 2594 2264 2762 
Q 2066 2931 1784 2931 
Q 1359 2931 1093 2626 
Q 828 2322 828 1663 
Q 828 994 1084 691 
Q 1341 388 1753 388 
Q 2084 388 2306 591 
Q 2528 794 2588 1216 
z
" transform="scale(0.015625)"/>
       <path id="ArialMT-20" transform="scale(0.015625)"/>
       <path id="ArialMT-4d" d="M 475 0 
L 475 4581 
L 1388 4581 
L 2472 1338 
Q 2622 884 2691 659 
Q 2769 909 2934 1394 
L 4031 4581 
L 4847 4581 
L 4847 0 
L 4263 0 
L 4263 3834 
L 2931 0 
L 2384 0 
L 1059 3900 
L 1059 0 
L 475 0 
z
" transform="scale(0.015625)"/>
       <path id="ArialMT-75" d="M 2597 0 
L 2597 488 
Q 2209 -75 1544 -75 
Q 1250 -75 995 37 
Q 741 150 617 320 
Q 494 491 444 738 
Q 409 903 409 1263 
L 409 3319 
L 972 3319 
L 972 1478 
Q 972 1038 1006 884 
Q 1059 663 1231 536 
Q 1403 409 1656 409 
Q 1909 409 2131 539 
Q 2353 669 2445 892 
Q 2538 1116 2538 1541 
L 2538 3319 
L 3100 3319 
L 3100 0 
L 2597 0 
z
" transform="scale(0.015625)"/>
       <path id="ArialMT-6e" d="M 422 0 
L 422 3319 
L 928 3319 
L 928 2847 
Q 1294 3394 1984 3394 
Q 2284 3394 2536 3286 
Q 2788 3178 2913 3003 
Q 3038 2828 3088 2588 
Q 3119 2431 3119 2041 
L 3119 0 
L 2556 0 
L 2556 2019 
Q 2556 2363 2490 2533 
Q 2425 2703 2258 2804 
Q 2091 2906 1866 2906 
Q 1506 2906 1245 2678 
Q 984 2450 984 1813 
L 984 0 
L 422 0 
z
" transform="scale(0.015625)"/>
       <path id="ArialMT-73" d="M 197 991 
L 753 1078 
Q 800 744 1014 566 
Q 1228 388 1613 388 
Q 2000 388 2187 545 
Q 2375 703 2375 916 
Q 2375 1106 2209 1216 
Q 2094 1291 1634 1406 
Q 1016 1563 777 1677 
Q 538 1791 414 1992 
Q 291 2194 291 2438 
Q 291 2659 392 2848 
Q 494 3038 669 3163 
Q 800 3259 1026 3326 
Q 1253 3394 1513 3394 
Q 1903 3394 2198 3281 
Q 2494 3169 2634 2976 
Q 2775 2784 2828 2463 
L 2278 2388 
Q 2241 2644 2061 2787 
Q 1881 2931 1553 2931 
Q 1166 2931 1000 2803 
Q 834 2675 834 2503 
Q 834 2394 903 2306 
Q 972 2216 1119 2156 
Q 1203 2125 1616 2013 
Q 2213 1853 2448 1751 
Q 2684 1650 2818 1456 
Q 2953 1263 2953 975 
Q 2953 694 2789 445 
Q 2625 197 2315 61 
Q 2006 -75 1616 -75 
Q 969 -75 630 194 
Q 291 463 197 991 
z
" transform="scale(0.015625)"/>
       <path id="ArialMT-2f" d="M 0 -78 
L 1328 4659 
L 1778 4659 
L 453 -78 
L 0 -78 
z
" transform="scale(0.015625)"/>
       <path id="ArialMT-65" d="M 2694 1069 
L 3275 997 
Q 3138 488 2766 206 
Q 2394 -75 1816 -75 
Q 1088 -75 661 373 
Q 234 822 234 1631 
Q 234 2469 665 2931 
Q 1097 3394 1784 3394 
Q 2450 3394 2872 2941 
Q 3294 2488 3294 1666 
Q 3294 1616 3291 1516 
L 816 1516 
Q 847 969 1125 678 
Q 1403 388 1819 388 
Q 2128 388 2347 550 
Q 2566 713 2694 1069 
z
M 847 1978 
L 2700 1978 
Q 2663 2397 2488 2606 
Q 2219 2931 1791 2931 
Q 1403 2931 1139 2672 
Q 875 2413 847 1978 
z
" transform="scale(0.015625)"/>
       <path id="ArialMT-67" d="M 319 -275 
L 866 -356 
Q 900 -609 1056 -725 
Q 1266 -881 1628 -881 
Q 2019 -881 2231 -725 
Q 2444 -569 2519 -288 
Q 2563 -116 2559 434 
Q 2191 0 1641 0 
Q 956 0 581 494 
Q 206 988 206 1678 
Q 206 2153 378 2554 
Q 550 2956 876 3175 
Q 1203 3394 1644 3394 
Q 2231 3394 2613 2919 
L 2613 3319 
L 3131 3319 
L 3131 450 
Q 3131 -325 2973 -648 
Q 2816 -972 2473 -1159 
Q 2131 -1347 1631 -1347 
Q 1038 -1347 672 -1080 
Q 306 -813 319 -275 
z
M 784 1719 
Q 784 1066 1043 766 
Q 1303 466 1694 466 
Q 2081 466 2343 764 
Q 2606 1063 2606 1700 
Q 2606 2309 2336 2618 
Q 2066 2928 1684 2928 
Q 1309 2928 1046 2623 
Q 784 2319 784 1719 
z
" transform="scale(0.015625)"/>
       <path id="ArialMT-62" d="M 941 0 
L 419 0 
L 419 4581 
L 981 4581 
L 981 2947 
Q 1338 3394 1891 3394 
Q 2197 3394 2470 3270 
Q 2744 3147 2920 2923 
Q 3097 2700 3197 2384 
Q 3297 2069 3297 1709 
Q 3297 856 2875 390 
Q 2453 -75 1863 -75 
Q 1275 -75 941 416 
L 941 0 
z
M 934 1684 
Q 934 1088 1097 822 
Q 1363 388 1816 388 
Q 2184 388 2453 708 
Q 2722 1028 2722 1663 
Q 2722 2313 2464 2622 
Q 2206 2931 1841 2931 
Q 1472 2931 1203 2611 
Q 934 2291 934 1684 
z
" transform="scale(0.015625)"/>
      </defs>
      <use xlink:href="#ArialMT-53"/>
      <use xlink:href="#ArialMT-6f" x="66.699219"/>
      <use xlink:href="#ArialMT-6d" x="122.314453"/>
      <use xlink:href="#ArialMT-61" x="205.615234"/>
      <use xlink:href="#ArialMT-74" x="261.230469"/>
      <use xlink:href="#ArialMT-69" x="289.013672"/>
      <use xlink:href="#ArialMT-63" x="311.230469"/>
      <use xlink:href="#ArialMT-20" x="361.230469"/>
      <use xlink:href="#ArialMT-4d" x="389.013672"/>
      <use xlink:href="#ArialMT-75" x="472.314453"/>
      <use xlink:href="#ArialMT-74" x="527.929688"/>
      <use xlink:href="#ArialMT-61" x="555.712891"/>
      <use xlink:href="#ArialMT-74" x="611.328125"/>
      <use xlink:href="#ArialMT-69" x="639.111328"/>
      <use xlink:href="#ArialMT-6f" x="661.328125"/>
      <use xlink:href="#ArialMT-6e" x="716.943359"/>
      <use xlink:href="#ArialMT-73" x="772.558594"/>
      <use xlink:href="#ArialMT-20" x="822.558594"/>
      <use xlink:href="#ArialMT-2f" x="850.341797"/>
      <use xlink:href="#ArialMT-20" x="878.125"/>
      <use xlink:href="#ArialMT-4d" x="905.908203"/>
      <use xlink:href="#ArialMT-65" x="989.208984"/>
      <use xlink:href="#ArialMT-67" x="1044.824219"/>
      <use xlink:href="#ArialMT-61" x="1100.439453"/>
      <use xlink:href="#ArialMT-62" x="1156.054688"/>
      <use xlink:href="#ArialMT-61" x="1211.669922"/>
      <use xlink:href="#ArialMT-73" x="1267.285156"/>
      <use xlink:href="#ArialMT-65" x="1317.285156"/>
     </g>
    </g>
   </g>
   <g id="LineCollection_2">
    <path d="M 46.425313 182.944058 
L 69.465313 182.944058 
" clip-path="url(#p7be2ed79df)" style="fill: none; stroke: #ff0000; stroke-width: 1.5"/>
   </g>
   <g id="LineCollection_3">
    <path d="M 75.225313 179.336324 
L 98.265312 179.336324 
" clip-path="url(#p7be2ed79df)" style="fill: none; stroke: #ff0000; stroke-width: 1.5"/>
   </g>
   <g id="LineCollection_4">
    <path d="M 104.025313 171.593976 
L 127.065313 171.593976 
" clip-path="url(#p7be2ed79df)" style="fill: none; stroke: #ff0000; stroke-width: 1.5"/>
   </g>
   <g id="LineCollection_5">
    <path d="M 132.825312 165.304713 
L 155.865313 165.304713 
" clip-path="url(#p7be2ed79df)" style="fill: none; stroke: #ff0000; stroke-width: 1.5"/>
   </g>
   <g id="LineCollection_6">
    <path d="M 161.625313 193.597845 
L 184.665313 193.597845 
" clip-path="url(#p7be2ed79df)" style="fill: none; stroke: #ff0000; stroke-width: 1.5"/>
   </g>
   <g id="LineCollection_7">
    <path d="M 190.425312 186.822054 
L 213.465312 186.822054 
" clip-path="url(#p7be2ed79df)" style="fill: none; stroke: #ff0000; stroke-width: 1.5"/>
   </g>
   <g id="LineCollection_8">
    <path d="M 219.225312 172.021307 
L 242.265312 172.021307 
" clip-path="url(#p7be2ed79df)" style="fill: none; stroke: #ff0000; stroke-width: 1.5"/>
   </g>
   <g id="LineCollection_9">
    <path d="M 248.025312 162.58561 
L 271.065313 162.58561 
" clip-path="url(#p7be2ed79df)" style="fill: none; stroke: #ff0000; stroke-width: 1.5"/>
   </g>
   <g id="LineCollection_10">
    <path d="M 276.825312 186.356746 
L 299.865313 186.356746 
" clip-path="url(#p7be2ed79df)" style="fill: none; stroke: #ff0000; stroke-width: 1.5"/>
   </g>
   <g id="LineCollection_11">
    <path d="M 305.625313 169.091365 
L 328.665313 169.091365 
" clip-path="url(#p7be2ed79df)" style="fill: none; stroke: #ff0000; stroke-width: 1.5"/>
   </g>
   <g id="LineCollection_12">
    <path d="M 334.425312 181.747462 
L 357.465312 181.747462 
" clip-path="url(#p7be2ed79df)" style="fill: none; stroke: #ff0000; stroke-width: 1.5"/>
   </g>
   <g id="LineCollection_13">
    <path d="M 363.225312 155.658014 
L 386.265312 155.658014 
" clip-path="url(#p7be2ed79df)" style="fill: none; stroke: #ff0000; stroke-width: 1.5"/>
   </g>
   <g id="LineCollection_14">
    <path d="M 392.025312 196.466964 
L 415.065313 196.466964 
" clip-path="url(#p7be2ed79df)" style="fill: none; stroke: #ff0000; stroke-width: 1.5"/>
   </g>
   <g id="LineCollection_15">
    <path d="M 420.825312 168.948735 
L 443.865313 168.948735 
" clip-path="url(#p7be2ed79df)" style="fill: none; stroke: #ff0000; stroke-width: 1.5"/>
   </g>
   <g id="LineCollection_16">
    <path d="M 449.625312 213.528984 
L 472.665312 213.528984 
" clip-path="url(#p7be2ed79df)" style="fill: none; stroke: #ff0000; stroke-width: 1.5"/>
   </g>
   <g id="LineCollection_17">
    <path d="M 478.425312 185.426697 
L 501.465312 185.426697 
" clip-path="url(#p7be2ed79df)" style="fill: none; stroke: #ff0000; stroke-width: 1.5"/>
   </g>
   <g id="LineCollection_18">
    <path d="M 507.225313 187.546436 
L 530.265312 187.546436 
" clip-path="url(#p7be2ed79df)" style="fill: none; stroke: #ff0000; stroke-width: 1.5"/>
   </g>
   <g id="LineCollection_19">
    <path d="M 536.025313 158.523557 
L 559.065312 158.523557 
" clip-path="url(#p7be2ed79df)" style="fill: none; stroke: #ff0000; stroke-width: 1.5"/>
   </g>
   <g id="line2d_24">
    <path d="M 101.145313 281.000575 
L 101.145313 79.400575 
" clip-path="url(#p7be2ed79df)" style="fill: none; stroke: #000000; stroke-width: 1.5; stroke-linecap: square"/>
   </g>
   <g id="line2d_25">
    <path d="M 158.745313 281.000575 
L 158.745313 79.400575 
" clip-path="url(#p7be2ed79df)" style="fill: none; stroke: #000000; stroke-width: 1.5; stroke-linecap: square"/>
   </g>
   <g id="line2d_26">
    <path d="M 216.345312 281.000575 
L 216.345312 79.400575 
" clip-path="url(#p7be2ed79df)" style="fill: none; stroke: #000000; stroke-width: 1.5; stroke-linecap: square"/>
   </g>
   <g id="line2d_27">
    <path d="M 273.945312 281.000575 
L 273.945312 79.400575 
" clip-path="url(#p7be2ed79df)" style="fill: none; stroke: #000000; stroke-width: 1.5; stroke-linecap: square"/>
   </g>
   <g id="line2d_28">
    <path d="M 331.545313 281.000575 
L 331.545313 79.400575 
" clip-path="url(#p7be2ed79df)" style="fill: none; stroke: #000000; stroke-width: 1.5; stroke-linecap: square"/>
   </g>
   <g id="line2d_29">
    <path d="M 389.145312 281.000575 
L 389.145312 79.400575 
" clip-path="url(#p7be2ed79df)" style="fill: none; stroke: #000000; stroke-width: 1.5; stroke-linecap: square"/>
   </g>
   <g id="line2d_30">
    <path d="M 446.745312 281.000575 
L 446.745312 79.400575 
" clip-path="url(#p7be2ed79df)" style="fill: none; stroke: #000000; stroke-width: 1.5; stroke-linecap: square"/>
   </g>
   <g id="line2d_31">
    <path d="M 504.345312 281.000575 
L 504.345312 79.400575 
" clip-path="url(#p7be2ed79df)" style="fill: none; stroke: #000000; stroke-width: 1.5; stroke-linecap: square"/>
   </g>
   <g id="line2d_32">
    <path d="M 561.945312 281.000575 
L 561.945312 79.400575 
" clip-path="url(#p7be2ed79df)" style="fill: none; stroke: #000000; stroke-width: 1.5; stroke-linecap: square"/>
   </g>
   <g id="patch_21">
    <path d="M 43.545313 281.000575 
L 43.545313 79.400575 
" style="fill: none; stroke: #000000; stroke-width: 0.8; stroke-linejoin: miter; stroke-linecap: square"/>
   </g>
   <g id="patch_22">
    <path d="M 561.945312 281.000575 
L 561.945312 79.400575 
" style="fill: none; stroke: #000000; stroke-width: 0.8; stroke-linejoin: miter; stroke-linecap: square"/>
   </g>
   <g id="patch_23">
    <path d="M 43.545313 281.000575 
L 561.945312 281.000575 
" style="fill: none; stroke: #000000; stroke-width: 0.8; stroke-linejoin: miter; stroke-linecap: square"/>
   </g>
   <g id="patch_24">
    <path d="M 43.545313 79.400575 
L 561.945312 79.400575 
" style="fill: none; stroke: #000000; stroke-width: 0.8; stroke-linejoin: miter; stroke-linecap: square"/>
   </g>
   <g id="text_25">
    <!-- Ewing -->
    <g transform="translate(76.450865 65.959947) rotate(-35) scale(0.1 -0.1)">
     <defs>
      <path id="ArialMT-45" d="M 506 0 
L 506 4581 
L 3819 4581 
L 3819 4041 
L 1113 4041 
L 1113 2638 
L 3647 2638 
L 3647 2100 
L 1113 2100 
L 1113 541 
L 3925 541 
L 3925 0 
L 506 0 
z
" transform="scale(0.015625)"/>
      <path id="ArialMT-77" d="M 1034 0 
L 19 3319 
L 600 3319 
L 1128 1403 
L 1325 691 
Q 1338 744 1497 1375 
L 2025 3319 
L 2603 3319 
L 3100 1394 
L 3266 759 
L 3456 1400 
L 4025 3319 
L 4572 3319 
L 3534 0 
L 2950 0 
L 2422 1988 
L 2294 2553 
L 1622 0 
L 1034 0 
z
" transform="scale(0.015625)"/>
     </defs>
     <use xlink:href="#ArialMT-45"/>
     <use xlink:href="#ArialMT-77" x="66.699219"/>
     <use xlink:href="#ArialMT-69" x="138.916016"/>
     <use xlink:href="#ArialMT-6e" x="161.132812"/>
     <use xlink:href="#ArialMT-67" x="216.748047"/>
    </g>
    <!-- Sarcoma -->
    <g transform="translate(82.584727 74.72001) rotate(-35) scale(0.1 -0.1)">
     <defs>
      <path id="ArialMT-72" d="M 416 0 
L 416 3319 
L 922 3319 
L 922 2816 
Q 1116 3169 1280 3281 
Q 1444 3394 1641 3394 
Q 1925 3394 2219 3213 
L 2025 2691 
Q 1819 2813 1613 2813 
Q 1428 2813 1281 2702 
Q 1134 2591 1072 2394 
Q 978 2094 978 1738 
L 978 0 
L 416 0 
z
" transform="scale(0.015625)"/>
     </defs>
     <use xlink:href="#ArialMT-53"/>
     <use xlink:href="#ArialMT-61" x="66.699219"/>
     <use xlink:href="#ArialMT-72" x="122.314453"/>
     <use xlink:href="#ArialMT-63" x="155.615234"/>
     <use xlink:href="#ArialMT-6f" x="205.615234"/>
     <use xlink:href="#ArialMT-6d" x="261.230469"/>
     <use xlink:href="#ArialMT-61" x="344.53125"/>
    </g>
   </g>
   <g id="text_26">
    <!-- High-grade -->
    <g transform="translate(134.050865 65.959947) rotate(-35) scale(0.1 -0.1)">
     <defs>
      <path id="ArialMT-48" d="M 513 0 
L 513 4581 
L 1119 4581 
L 1119 2700 
L 3500 2700 
L 3500 4581 
L 4106 4581 
L 4106 0 
L 3500 0 
L 3500 2159 
L 1119 2159 
L 1119 0 
L 513 0 
z
" transform="scale(0.015625)"/>
      <path id="ArialMT-68" d="M 422 0 
L 422 4581 
L 984 4581 
L 984 2938 
Q 1378 3394 1978 3394 
Q 2347 3394 2619 3248 
Q 2891 3103 3008 2847 
Q 3125 2591 3125 2103 
L 3125 0 
L 2563 0 
L 2563 2103 
Q 2563 2525 2380 2717 
Q 2197 2909 1863 2909 
Q 1613 2909 1392 2779 
Q 1172 2650 1078 2428 
Q 984 2206 984 1816 
L 984 0 
L 422 0 
z
" transform="scale(0.015625)"/>
      <path id="ArialMT-2d" d="M 203 1375 
L 203 1941 
L 1931 1941 
L 1931 1375 
L 203 1375 
z
" transform="scale(0.015625)"/>
      <path id="ArialMT-64" d="M 2575 0 
L 2575 419 
Q 2259 -75 1647 -75 
Q 1250 -75 917 144 
Q 584 363 401 755 
Q 219 1147 219 1656 
Q 219 2153 384 2558 
Q 550 2963 881 3178 
Q 1213 3394 1622 3394 
Q 1922 3394 2156 3267 
Q 2391 3141 2538 2938 
L 2538 4581 
L 3097 4581 
L 3097 0 
L 2575 0 
z
M 797 1656 
Q 797 1019 1065 703 
Q 1334 388 1700 388 
Q 2069 388 2326 689 
Q 2584 991 2584 1609 
Q 2584 2291 2321 2609 
Q 2059 2928 1675 2928 
Q 1300 2928 1048 2622 
Q 797 2316 797 1656 
z
" transform="scale(0.015625)"/>
     </defs>
     <use xlink:href="#ArialMT-48"/>
     <use xlink:href="#ArialMT-69" x="72.216797"/>
     <use xlink:href="#ArialMT-67" x="94.433594"/>
     <use xlink:href="#ArialMT-68" x="150.048828"/>
     <use xlink:href="#ArialMT-2d" x="205.664062"/>
     <use xlink:href="#ArialMT-67" x="238.964844"/>
     <use xlink:href="#ArialMT-72" x="294.580078"/>
     <use xlink:href="#ArialMT-61" x="327.880859"/>
     <use xlink:href="#ArialMT-64" x="383.496094"/>
     <use xlink:href="#ArialMT-65" x="439.111328"/>
    </g>
    <!-- Glioma -->
    <g transform="translate(140.184727 74.72001) rotate(-35) scale(0.1 -0.1)">
     <defs>
      <path id="ArialMT-47" d="M 2638 1797 
L 2638 2334 
L 4578 2338 
L 4578 638 
Q 4131 281 3656 101 
Q 3181 -78 2681 -78 
Q 2006 -78 1454 211 
Q 903 500 622 1047 
Q 341 1594 341 2269 
Q 341 2938 620 3517 
Q 900 4097 1425 4378 
Q 1950 4659 2634 4659 
Q 3131 4659 3532 4498 
Q 3934 4338 4162 4050 
Q 4391 3763 4509 3300 
L 3963 3150 
Q 3859 3500 3706 3700 
Q 3553 3900 3268 4020 
Q 2984 4141 2638 4141 
Q 2222 4141 1919 4014 
Q 1616 3888 1430 3681 
Q 1244 3475 1141 3228 
Q 966 2803 966 2306 
Q 966 1694 1177 1281 
Q 1388 869 1791 669 
Q 2194 469 2647 469 
Q 3041 469 3416 620 
Q 3791 772 3984 944 
L 3984 1797 
L 2638 1797 
z
" transform="scale(0.015625)"/>
      <path id="ArialMT-6c" d="M 409 0 
L 409 4581 
L 972 4581 
L 972 0 
L 409 0 
z
" transform="scale(0.015625)"/>
     </defs>
     <use xlink:href="#ArialMT-47"/>
     <use xlink:href="#ArialMT-6c" x="77.783203"/>
     <use xlink:href="#ArialMT-69" x="100"/>
     <use xlink:href="#ArialMT-6f" x="122.216797"/>
     <use xlink:href="#ArialMT-6d" x="177.832031"/>
     <use xlink:href="#ArialMT-61" x="261.132812"/>
    </g>
   </g>
   <g id="text_27">
    <!-- Acute -->
    <g transform="translate(191.650865 57.295878) rotate(-35) scale(0.1 -0.1)">
     <defs>
      <path id="ArialMT-41" d="M -9 0 
L 1750 4581 
L 2403 4581 
L 4278 0 
L 3588 0 
L 3053 1388 
L 1138 1388 
L 634 0 
L -9 0 
z
M 1313 1881 
L 2866 1881 
L 2388 3150 
Q 2169 3728 2063 4100 
Q 1975 3659 1816 3225 
L 1313 1881 
z
" transform="scale(0.015625)"/>
     </defs>
     <use xlink:href="#ArialMT-41"/>
     <use xlink:href="#ArialMT-63" x="66.699219"/>
     <use xlink:href="#ArialMT-75" x="116.699219"/>
     <use xlink:href="#ArialMT-74" x="172.314453"/>
     <use xlink:href="#ArialMT-65" x="200.097656"/>
    </g>
    <!-- Monocytic -->
    <g transform="translate(197.717511 65.959947) rotate(-35) scale(0.1 -0.1)">
     <defs>
      <path id="ArialMT-79" d="M 397 -1278 
L 334 -750 
Q 519 -800 656 -800 
Q 844 -800 956 -737 
Q 1069 -675 1141 -563 
Q 1194 -478 1313 -144 
Q 1328 -97 1363 -6 
L 103 3319 
L 709 3319 
L 1400 1397 
Q 1534 1031 1641 628 
Q 1738 1016 1872 1384 
L 2581 3319 
L 3144 3319 
L 1881 -56 
Q 1678 -603 1566 -809 
Q 1416 -1088 1222 -1217 
Q 1028 -1347 759 -1347 
Q 597 -1347 397 -1278 
z
" transform="scale(0.015625)"/>
     </defs>
     <use xlink:href="#ArialMT-4d"/>
     <use xlink:href="#ArialMT-6f" x="83.300781"/>
     <use xlink:href="#ArialMT-6e" x="138.916016"/>
     <use xlink:href="#ArialMT-6f" x="194.53125"/>
     <use xlink:href="#ArialMT-63" x="250.146484"/>
     <use xlink:href="#ArialMT-79" x="300.146484"/>
     <use xlink:href="#ArialMT-74" x="350.146484"/>
     <use xlink:href="#ArialMT-69" x="377.929688"/>
     <use xlink:href="#ArialMT-63" x="400.146484"/>
    </g>
    <!-- Leukemia -->
    <g transform="translate(203.851374 74.72001) rotate(-35) scale(0.1 -0.1)">
     <defs>
      <path id="ArialMT-4c" d="M 469 0 
L 469 4581 
L 1075 4581 
L 1075 541 
L 3331 541 
L 3331 0 
L 469 0 
z
" transform="scale(0.015625)"/>
      <path id="ArialMT-6b" d="M 425 0 
L 425 4581 
L 988 4581 
L 988 1969 
L 2319 3319 
L 3047 3319 
L 1778 2088 
L 3175 0 
L 2481 0 
L 1384 1697 
L 988 1316 
L 988 0 
L 425 0 
z
" transform="scale(0.015625)"/>
     </defs>
     <use xlink:href="#ArialMT-4c"/>
     <use xlink:href="#ArialMT-65" x="55.615234"/>
     <use xlink:href="#ArialMT-75" x="111.230469"/>
     <use xlink:href="#ArialMT-6b" x="166.845703"/>
     <use xlink:href="#ArialMT-65" x="216.845703"/>
     <use xlink:href="#ArialMT-6d" x="272.460938"/>
     <use xlink:href="#ArialMT-69" x="355.761719"/>
     <use xlink:href="#ArialMT-61" x="377.978516"/>
    </g>
   </g>
   <g id="text_28">
    <!-- Embryonal -->
    <g transform="translate(249.250865 65.98114) rotate(-35) scale(0.1 -0.1)">
     <use xlink:href="#ArialMT-45"/>
     <use xlink:href="#ArialMT-6d" x="66.699219"/>
     <use xlink:href="#ArialMT-62" x="150"/>
     <use xlink:href="#ArialMT-72" x="205.615234"/>
     <use xlink:href="#ArialMT-79" x="238.916016"/>
     <use xlink:href="#ArialMT-6f" x="288.916016"/>
     <use xlink:href="#ArialMT-6e" x="344.53125"/>
     <use xlink:href="#ArialMT-61" x="400.146484"/>
     <use xlink:href="#ArialMT-6c" x="455.761719"/>
    </g>
    <!-- Rhabdomyosarcoma -->
    <g transform="translate(255.384727 74.741203) rotate(-35) scale(0.1 -0.1)">
     <defs>
      <path id="ArialMT-52" d="M 503 0 
L 503 4581 
L 2534 4581 
Q 3147 4581 3465 4457 
Q 3784 4334 3975 4021 
Q 4166 3709 4166 3331 
Q 4166 2844 3850 2509 
Q 3534 2175 2875 2084 
Q 3116 1969 3241 1856 
Q 3506 1613 3744 1247 
L 4541 0 
L 3778 0 
L 3172 953 
Q 2906 1366 2734 1584 
Q 2563 1803 2427 1890 
Q 2291 1978 2150 2013 
Q 2047 2034 1813 2034 
L 1109 2034 
L 1109 0 
L 503 0 
z
M 1109 2559 
L 2413 2559 
Q 2828 2559 3062 2645 
Q 3297 2731 3419 2920 
Q 3541 3109 3541 3331 
Q 3541 3656 3305 3865 
Q 3069 4075 2559 4075 
L 1109 4075 
L 1109 2559 
z
" transform="scale(0.015625)"/>
     </defs>
     <use xlink:href="#ArialMT-52"/>
     <use xlink:href="#ArialMT-68" x="72.216797"/>
     <use xlink:href="#ArialMT-61" x="127.832031"/>
     <use xlink:href="#ArialMT-62" x="183.447266"/>
     <use xlink:href="#ArialMT-64" x="239.0625"/>
     <use xlink:href="#ArialMT-6f" x="294.677734"/>
     <use xlink:href="#ArialMT-6d" x="350.292969"/>
     <use xlink:href="#ArialMT-79" x="433.59375"/>
     <use xlink:href="#ArialMT-6f" x="483.59375"/>
     <use xlink:href="#ArialMT-73" x="539.208984"/>
     <use xlink:href="#ArialMT-61" x="589.208984"/>
     <use xlink:href="#ArialMT-72" x="644.824219"/>
     <use xlink:href="#ArialMT-63" x="678.125"/>
     <use xlink:href="#ArialMT-6f" x="728.125"/>
     <use xlink:href="#ArialMT-6d" x="783.740234"/>
     <use xlink:href="#ArialMT-61" x="867.041016"/>
    </g>
   </g>
   <g id="text_29">
    <!-- Alveolar -->
    <g transform="translate(306.850865 66.077135) rotate(-35) scale(0.1 -0.1)">
     <defs>
      <path id="ArialMT-76" d="M 1344 0 
L 81 3319 
L 675 3319 
L 1388 1331 
Q 1503 1009 1600 663 
Q 1675 925 1809 1294 
L 2547 3319 
L 3125 3319 
L 1869 0 
L 1344 0 
z
" transform="scale(0.015625)"/>
     </defs>
     <use xlink:href="#ArialMT-41"/>
     <use xlink:href="#ArialMT-6c" x="66.699219"/>
     <use xlink:href="#ArialMT-76" x="88.916016"/>
     <use xlink:href="#ArialMT-65" x="138.916016"/>
     <use xlink:href="#ArialMT-6f" x="194.53125"/>
     <use xlink:href="#ArialMT-6c" x="250.146484"/>
     <use xlink:href="#ArialMT-61" x="272.363281"/>
     <use xlink:href="#ArialMT-72" x="327.978516"/>
    </g>
    <!-- Rhabdomyosarcoma -->
    <g transform="translate(312.917511 74.741203) rotate(-35) scale(0.1 -0.1)">
     <use xlink:href="#ArialMT-52"/>
     <use xlink:href="#ArialMT-68" x="72.216797"/>
     <use xlink:href="#ArialMT-61" x="127.832031"/>
     <use xlink:href="#ArialMT-62" x="183.447266"/>
     <use xlink:href="#ArialMT-64" x="239.0625"/>
     <use xlink:href="#ArialMT-6f" x="294.677734"/>
     <use xlink:href="#ArialMT-6d" x="350.292969"/>
     <use xlink:href="#ArialMT-79" x="433.59375"/>
     <use xlink:href="#ArialMT-6f" x="483.59375"/>
     <use xlink:href="#ArialMT-73" x="539.208984"/>
     <use xlink:href="#ArialMT-61" x="589.208984"/>
     <use xlink:href="#ArialMT-72" x="644.824219"/>
     <use xlink:href="#ArialMT-63" x="678.125"/>
     <use xlink:href="#ArialMT-6f" x="728.125"/>
     <use xlink:href="#ArialMT-6d" x="783.740234"/>
     <use xlink:href="#ArialMT-61" x="867.041016"/>
    </g>
   </g>
   <g id="text_30">
    <!-- Osteosarcoma -->
    <g transform="translate(364.450865 74.72001) rotate(-35) scale(0.1 -0.1)">
     <defs>
      <path id="ArialMT-4f" d="M 309 2231 
Q 309 3372 921 4017 
Q 1534 4663 2503 4663 
Q 3138 4663 3647 4359 
Q 4156 4056 4423 3514 
Q 4691 2972 4691 2284 
Q 4691 1588 4409 1038 
Q 4128 488 3612 205 
Q 3097 -78 2500 -78 
Q 1853 -78 1343 234 
Q 834 547 571 1087 
Q 309 1628 309 2231 
z
M 934 2222 
Q 934 1394 1379 917 
Q 1825 441 2497 441 
Q 3181 441 3623 922 
Q 4066 1403 4066 2288 
Q 4066 2847 3877 3264 
Q 3688 3681 3323 3911 
Q 2959 4141 2506 4141 
Q 1863 4141 1398 3698 
Q 934 3256 934 2222 
z
" transform="scale(0.015625)"/>
     </defs>
     <use xlink:href="#ArialMT-4f"/>
     <use xlink:href="#ArialMT-73" x="77.783203"/>
     <use xlink:href="#ArialMT-74" x="127.783203"/>
     <use xlink:href="#ArialMT-65" x="155.566406"/>
     <use xlink:href="#ArialMT-6f" x="211.181641"/>
     <use xlink:href="#ArialMT-73" x="266.796875"/>
     <use xlink:href="#ArialMT-61" x="316.796875"/>
     <use xlink:href="#ArialMT-72" x="372.412109"/>
     <use xlink:href="#ArialMT-63" x="405.712891"/>
     <use xlink:href="#ArialMT-6f" x="455.712891"/>
     <use xlink:href="#ArialMT-6d" x="511.328125"/>
     <use xlink:href="#ArialMT-61" x="594.628906"/>
    </g>
   </g>
   <g id="text_31">
    <!-- B-cell -->
    <g transform="translate(422.050865 66.055942) rotate(-35) scale(0.1 -0.1)">
     <defs>
      <path id="ArialMT-42" d="M 469 0 
L 469 4581 
L 2188 4581 
Q 2713 4581 3030 4442 
Q 3347 4303 3526 4014 
Q 3706 3725 3706 3409 
Q 3706 3116 3547 2856 
Q 3388 2597 3066 2438 
Q 3481 2316 3704 2022 
Q 3928 1728 3928 1328 
Q 3928 1006 3792 729 
Q 3656 453 3456 303 
Q 3256 153 2954 76 
Q 2653 0 2216 0 
L 469 0 
z
M 1075 2656 
L 2066 2656 
Q 2469 2656 2644 2709 
Q 2875 2778 2992 2937 
Q 3109 3097 3109 3338 
Q 3109 3566 3000 3739 
Q 2891 3913 2687 3977 
Q 2484 4041 1991 4041 
L 1075 4041 
L 1075 2656 
z
M 1075 541 
L 2216 541 
Q 2509 541 2628 563 
Q 2838 600 2978 687 
Q 3119 775 3209 942 
Q 3300 1109 3300 1328 
Q 3300 1584 3169 1773 
Q 3038 1963 2805 2039 
Q 2572 2116 2134 2116 
L 1075 2116 
L 1075 541 
z
" transform="scale(0.015625)"/>
     </defs>
     <use xlink:href="#ArialMT-42"/>
     <use xlink:href="#ArialMT-2d" x="66.699219"/>
     <use xlink:href="#ArialMT-63" x="100"/>
     <use xlink:href="#ArialMT-65" x="150"/>
     <use xlink:href="#ArialMT-6c" x="205.615234"/>
     <use xlink:href="#ArialMT-6c" x="227.832031"/>
    </g>
    <!-- Leukemia -->
    <g transform="translate(428.117511 74.72001) rotate(-35) scale(0.1 -0.1)">
     <use xlink:href="#ArialMT-4c"/>
     <use xlink:href="#ArialMT-65" x="55.615234"/>
     <use xlink:href="#ArialMT-75" x="111.230469"/>
     <use xlink:href="#ArialMT-6b" x="166.845703"/>
     <use xlink:href="#ArialMT-65" x="216.845703"/>
     <use xlink:href="#ArialMT-6d" x="272.460938"/>
     <use xlink:href="#ArialMT-69" x="355.761719"/>
     <use xlink:href="#ArialMT-61" x="377.978516"/>
    </g>
   </g>
   <g id="text_32">
    <!-- Ependymoma -->
    <g transform="translate(479.650865 74.741203) rotate(-35) scale(0.1 -0.1)">
     <defs>
      <path id="ArialMT-70" d="M 422 -1272 
L 422 3319 
L 934 3319 
L 934 2888 
Q 1116 3141 1344 3267 
Q 1572 3394 1897 3394 
Q 2322 3394 2647 3175 
Q 2972 2956 3137 2557 
Q 3303 2159 3303 1684 
Q 3303 1175 3120 767 
Q 2938 359 2589 142 
Q 2241 -75 1856 -75 
Q 1575 -75 1351 44 
Q 1128 163 984 344 
L 984 -1272 
L 422 -1272 
z
M 931 1641 
Q 931 1000 1190 694 
Q 1450 388 1819 388 
Q 2194 388 2461 705 
Q 2728 1022 2728 1688 
Q 2728 2322 2467 2637 
Q 2206 2953 1844 2953 
Q 1484 2953 1207 2617 
Q 931 2281 931 1641 
z
" transform="scale(0.015625)"/>
     </defs>
     <use xlink:href="#ArialMT-45"/>
     <use xlink:href="#ArialMT-70" x="66.699219"/>
     <use xlink:href="#ArialMT-65" x="122.314453"/>
     <use xlink:href="#ArialMT-6e" x="177.929688"/>
     <use xlink:href="#ArialMT-64" x="233.544922"/>
     <use xlink:href="#ArialMT-79" x="289.160156"/>
     <use xlink:href="#ArialMT-6d" x="339.160156"/>
     <use xlink:href="#ArialMT-6f" x="422.460938"/>
     <use xlink:href="#ArialMT-6d" x="478.076172"/>
     <use xlink:href="#ArialMT-61" x="561.376953"/>
    </g>
   </g>
   <g id="text_33">
    <!-- Neuroblastoma -->
    <g transform="translate(537.250865 74.72001) rotate(-35) scale(0.1 -0.1)">
     <defs>
      <path id="ArialMT-4e" d="M 488 0 
L 488 4581 
L 1109 4581 
L 3516 984 
L 3516 4581 
L 4097 4581 
L 4097 0 
L 3475 0 
L 1069 3600 
L 1069 0 
L 488 0 
z
" transform="scale(0.015625)"/>
     </defs>
     <use xlink:href="#ArialMT-4e"/>
     <use xlink:href="#ArialMT-65" x="72.216797"/>
     <use xlink:href="#ArialMT-75" x="127.832031"/>
     <use xlink:href="#ArialMT-72" x="183.447266"/>
     <use xlink:href="#ArialMT-6f" x="216.748047"/>
     <use xlink:href="#ArialMT-62" x="272.363281"/>
     <use xlink:href="#ArialMT-6c" x="327.978516"/>
     <use xlink:href="#ArialMT-61" x="350.195312"/>
     <use xlink:href="#ArialMT-73" x="405.810547"/>
     <use xlink:href="#ArialMT-74" x="455.810547"/>
     <use xlink:href="#ArialMT-6f" x="483.59375"/>
     <use xlink:href="#ArialMT-6d" x="539.208984"/>
     <use xlink:href="#ArialMT-61" x="622.509766"/>
    </g>
   </g>
   <g id="text_34">
    <!-- p=0.029 -->
    <g transform="translate(284.533594 117.733075) scale(0.1 -0.1)">
     <defs>
      <path id="ArialMT-3d" d="M 3381 2694 
L 356 2694 
L 356 3219 
L 3381 3219 
L 3381 2694 
z
M 3381 1303 
L 356 1303 
L 356 1828 
L 3381 1828 
L 3381 1303 
z
" transform="scale(0.015625)"/>
     </defs>
     <use xlink:href="#ArialMT-70"/>
     <use xlink:href="#ArialMT-3d" x="55.615234"/>
     <use xlink:href="#ArialMT-30" x="114.013672"/>
     <use xlink:href="#ArialMT-2e" x="169.628906"/>
     <use xlink:href="#ArialMT-30" x="197.412109"/>
     <use xlink:href="#ArialMT-32" x="253.027344"/>
     <use xlink:href="#ArialMT-39" x="308.642578"/>
    </g>
   </g>
   <g id="text_35">
    <!-- p=0.006 -->
    <g transform="translate(342.133594 117.733075) scale(0.1 -0.1)">
     <defs>
      <path id="ArialMT-36" d="M 3184 3459 
L 2625 3416 
Q 2550 3747 2413 3897 
Q 2184 4138 1850 4138 
Q 1581 4138 1378 3988 
Q 1113 3794 959 3422 
Q 806 3050 800 2363 
Q 1003 2672 1297 2822 
Q 1591 2972 1913 2972 
Q 2475 2972 2870 2558 
Q 3266 2144 3266 1488 
Q 3266 1056 3080 686 
Q 2894 316 2569 119 
Q 2244 -78 1831 -78 
Q 1128 -78 684 439 
Q 241 956 241 2144 
Q 241 3472 731 4075 
Q 1159 4600 1884 4600 
Q 2425 4600 2770 4297 
Q 3116 3994 3184 3459 
z
M 888 1484 
Q 888 1194 1011 928 
Q 1134 663 1356 523 
Q 1578 384 1822 384 
Q 2178 384 2434 671 
Q 2691 959 2691 1453 
Q 2691 1928 2437 2201 
Q 2184 2475 1800 2475 
Q 1419 2475 1153 2201 
Q 888 1928 888 1484 
z
" transform="scale(0.015625)"/>
     </defs>
     <use xlink:href="#ArialMT-70"/>
     <use xlink:href="#ArialMT-3d" x="55.615234"/>
     <use xlink:href="#ArialMT-30" x="114.013672"/>
     <use xlink:href="#ArialMT-2e" x="169.628906"/>
     <use xlink:href="#ArialMT-30" x="197.412109"/>
     <use xlink:href="#ArialMT-30" x="253.027344"/>
     <use xlink:href="#ArialMT-36" x="308.642578"/>
    </g>
   </g>
   <g id="text_36">
    <!-- p=6.2e-05 -->
    <g transform="translate(395.288281 117.733075) scale(0.1 -0.1)">
     <use xlink:href="#ArialMT-70"/>
     <use xlink:href="#ArialMT-3d" x="55.615234"/>
     <use xlink:href="#ArialMT-36" x="114.013672"/>
     <use xlink:href="#ArialMT-2e" x="169.628906"/>
     <use xlink:href="#ArialMT-32" x="197.412109"/>
     <use xlink:href="#ArialMT-65" x="253.027344"/>
     <use xlink:href="#ArialMT-2d" x="308.642578"/>
     <use xlink:href="#ArialMT-30" x="341.943359"/>
     <use xlink:href="#ArialMT-35" x="397.558594"/>
    </g>
   </g>
   <g id="text_37">
    <!-- p=0.018 -->
    <g transform="translate(457.333594 117.733075) scale(0.1 -0.1)">
     <use xlink:href="#ArialMT-70"/>
     <use xlink:href="#ArialMT-3d" x="55.615234"/>
     <use xlink:href="#ArialMT-30" x="114.013672"/>
     <use xlink:href="#ArialMT-2e" x="169.628906"/>
     <use xlink:href="#ArialMT-30" x="197.412109"/>
     <use xlink:href="#ArialMT-31" x="253.027344"/>
     <use xlink:href="#ArialMT-38" x="308.642578"/>
    </g>
   </g>
   <g id="text_38">
    <!-- p=0.032 -->
    <g transform="translate(514.933594 117.733075) scale(0.1 -0.1)">
     <use xlink:href="#ArialMT-70"/>
     <use xlink:href="#ArialMT-3d" x="55.615234"/>
     <use xlink:href="#ArialMT-30" x="114.013672"/>
     <use xlink:href="#ArialMT-2e" x="169.628906"/>
     <use xlink:href="#ArialMT-30" x="197.412109"/>
     <use xlink:href="#ArialMT-33" x="253.027344"/>
     <use xlink:href="#ArialMT-32" x="308.642578"/>
    </g>
   </g>
  </g>
 </g>
 <defs>
  <clipPath id="p7be2ed79df">
   <rect x="43.545313" y="79.400575" width="518.4" height="201.6"/>
  </clipPath>
 </defs>
</svg>
