<?xml version="1.0" encoding="utf-8" standalone="no"?>
<!DOCTYPE svg PUBLIC "-//W3C//DTD SVG 1.1//EN"
  "http://www.w3.org/Graphics/SVG/1.1/DTD/svg11.dtd">
<svg xmlns:xlink="http://www.w3.org/1999/xlink" width="604.370625pt" height="421.796587pt" viewBox="0 0 604.370625 421.796587" xmlns="http://www.w3.org/2000/svg" version="1.1">
 <metadata>
  <rdf:RDF xmlns:dc="http://purl.org/dc/elements/1.1/" xmlns:cc="http://creativecommons.org/ns#" xmlns:rdf="http://www.w3.org/1999/02/22-rdf-syntax-ns#">
   <cc:Work>
    <dc:type rdf:resource="http://purl.org/dc/dcmitype/StillImage"/>
    <dc:date>2026-05-25T16:47:14.435242</dc:date>
    <dc:format>image/svg+xml</dc:format>
    <dc:creator>
     <cc:Agent>
      <dc:title>Matplotlib v3.7.3, https://matplotlib.org/</dc:title>
     </cc:Agent>
    </dc:creator>
   </cc:Work>
  </rdf:RDF>
 </metadata>
 <defs>
  <style type="text/css">*{stroke-linejoin: round; stroke-linecap: butt}</style>
 </defs>
 <g id="figure_1">
  <g id="patch_1">
   <path d="M 0 421.796587 
L 604.370625 421.796587 
L 604.370625 0 
L 0 0 
L 0 421.796587 
z
" style="fill: none"/>
  </g>
  <g id="axes_1">
   <g id="patch_2">
    <path d="M 29.490625 326.625187 
L 302.833352 326.625187 
L 302.833352 37.947187 
L 29.490625 37.947187 
L 29.490625 326.625187 
z
" style="fill: none"/>
   </g>
   <g id="patch_3">
    <path d="M 41.915294 326.625187 
L 74.1274 326.625187 
L 74.1274 58.440542 
L 41.915294 58.440542 
z
" clip-path="url(#p983badc527)" style="fill: #d3d3d3"/>
   </g>
   <g id="patch_4">
    <path d="M 133.949883 326.625187 
L 166.161989 326.625187 
L 166.161989 68.560718 
L 133.949883 68.560718 
z
" clip-path="url(#p983badc527)" style="fill: #d3d3d3"/>
   </g>
   <g id="patch_5">
    <path d="M 225.984471 326.625187 
L 258.196577 326.625187 
L 258.196577 276.024311 
L 225.984471 276.024311 
z
" clip-path="url(#p983badc527)" style="fill: #d3d3d3"/>
   </g>
   <g id="patch_6">
    <path d="M 74.1274 326.625187 
L 106.339506 326.625187 
L 106.339506 114.101507 
L 74.1274 114.101507 
z
" clip-path="url(#p983badc527)" style="fill: #a9a9a9"/>
   </g>
   <g id="patch_7">
    <path d="M 166.161989 326.625187 
L 198.374095 326.625187 
L 198.374095 139.401945 
L 166.161989 139.401945 
z
" clip-path="url(#p983badc527)" style="fill: #a9a9a9"/>
   </g>
   <g id="patch_8">
    <path d="M 258.196577 326.625187 
L 290.408683 326.625187 
L 290.408683 272.650919 
L 258.196577 272.650919 
z
" clip-path="url(#p983badc527)" style="fill: #a9a9a9"/>
   </g>
   <g id="matplotlib.axis_1">
    <g id="xtick_1">
     <g id="line2d_1">
      <defs>
       <path id="me68560f05d" d="M 0 0 
L 0 3.5 
" style="stroke: #000000; stroke-width: 0.8"/>
      </defs>
      <g>
       <use xlink:href="#me68560f05d" x="74.1274" y="326.625187" style="stroke: #000000; stroke-width: 0.8"/>
      </g>
     </g>
     <g id="text_1">
      <text style="font: 20px 'Arial', sans-serif; text-anchor: middle" x="74.1274" y="347.940812" transform="rotate(-0 74.1274 347.940812)">KiCS</text>
     </g>
    </g>
    <g id="xtick_2">
     <g id="line2d_2">
      <g>
       <use xlink:href="#me68560f05d" x="166.161989" y="326.625187" style="stroke: #000000; stroke-width: 0.8"/>
      </g>
     </g>
     <g id="text_2">
      <text style="font: 20px 'Arial', sans-serif; text-anchor: middle" x="166.161989" y="347.940812" transform="rotate(-0 166.161989 347.940812)">ZERO</text>
     </g>
    </g>
    <g id="xtick_3">
     <g id="line2d_3">
      <g>
       <use xlink:href="#me68560f05d" x="258.196577" y="326.625187" style="stroke: #000000; stroke-width: 0.8"/>
      </g>
     </g>
     <g id="text_3">
      <text style="font: 20px 'Arial', sans-serif; text-anchor: middle" x="258.196577" y="347.940812" transform="rotate(-0 258.196577 347.940812)">MSK</text>
     </g>
    </g>
   </g>
   <g id="matplotlib.axis_2">
    <g id="text_4">
     <text style="font: 20px 'Arial', sans-serif; text-anchor: middle" x="21.515625" y="182.286187" transform="rotate(-90 21.515625 182.286187)">Number of Tumours</text>
    </g>
   </g>
   <g id="patch_9">
    <path d="M 29.490625 326.625187 
L 302.833352 326.625187 
" style="fill: none; stroke: #000000; stroke-width: 0.8; stroke-linejoin: miter; stroke-linecap: square"/>
   </g>
   <g id="text_5">
    <text style="font: 20px 'Arial', sans-serif; text-anchor: middle" x="58.021347" y="53.622195" transform="rotate(-0 58.021347 53.622195)">159</text>
   </g>
   <g id="text_6">
    <text style="font: 20px 'Arial', sans-serif; text-anchor: middle" x="150.055936" y="63.74237" transform="rotate(-0 150.055936 63.74237)">153</text>
   </g>
   <g id="text_7">
    <text style="font: 20px 'Arial', sans-serif; text-anchor: middle" x="242.090524" y="271.205963" transform="rotate(-0 242.090524 271.205963)">30</text>
   </g>
   <g id="text_8">
    <text style="font: 20px 'Arial', sans-serif; text-anchor: middle" x="90.233453" y="109.283159" transform="rotate(-0 90.233453 109.283159)">126</text>
   </g>
   <g id="text_9">
    <text style="font: 20px 'Arial', sans-serif; text-anchor: middle" x="182.268042" y="134.583597" transform="rotate(-0 182.268042 134.583597)">111</text>
   </g>
   <g id="text_10">
    <text style="font: 20px 'Arial', sans-serif; text-anchor: middle" x="274.30263" y="267.832571" transform="rotate(-0 274.30263 267.832571)">32</text>
   </g>
   <g id="text_11">
    <text style="font: 700 22px 'Arial', sans-serif; text-anchor: middle" x="166.161989" y="22.947187" transform="rotate(-0 166.161989 22.947187)">Primary vs. Advanced</text>
   </g>
   <g id="legend_1">
    <g id="line2d_4">
     <path d="M 56.165114 366.618462 
L 76.165114 366.618462 
L 96.165114 366.618462 
" style="fill: none; stroke: #ffffff; stroke-width: 1.5; stroke-linecap: square"/>
     <defs>
      <path id="mb767b234ce" d="M 0 10 
C 2.652031 10 5.195799 8.946337 7.071068 7.071068 
C 8.946337 5.195799 10 2.652031 10 0 
C 10 -2.652031 8.946337 -5.195799 7.071068 -7.071068 
C 5.195799 -8.946337 2.652031 -10 0 -10 
C -2.652031 -10 -5.195799 -8.946337 -7.071068 -7.071068 
C -8.946337 -5.195799 -10 -2.652031 -10 0 
C -10 2.652031 -8.946337 5.195799 -7.071068 7.071068 
C -5.195799 8.946337 -2.652031 10 0 10 
z
" style="stroke: #ffffff"/>
     </defs>
     <g>
      <use xlink:href="#mb767b234ce" x="76.165114" y="366.618462" style="fill: #d3d3d3; stroke: #ffffff"/>
     </g>
    </g>
    <g id="text_12">
     <text style="font: 20px 'Arial', sans-serif; text-anchor: start" x="112.165114" y="373.618462" transform="rotate(-0 112.165114 373.618462)">Primary (n=342)</text>
    </g>
    <g id="line2d_5">
     <path d="M 56.165114 395.387212 
L 76.165114 395.387212 
L 96.165114 395.387212 
" style="fill: none; stroke: #ffffff; stroke-width: 1.5; stroke-linecap: square"/>
     <defs>
      <path id="m0b55df9e61" d="M 0 10 
C 2.652031 10 5.195799 8.946337 7.071068 7.071068 
C 8.946337 5.195799 10 2.652031 10 0 
C 10 -2.652031 8.946337 -5.195799 7.071068 -7.071068 
C 5.195799 -8.946337 2.652031 -10 0 -10 
C -2.652031 -10 -5.195799 -8.946337 -7.071068 -7.071068 
C -8.946337 -5.195799 -10 -2.652031 -10 0 
C -10 2.652031 -8.946337 5.195799 -7.071068 7.071068 
C -5.195799 8.946337 -2.652031 10 0 10 
z
" style="stroke: #ffffff"/>
     </defs>
     <g>
      <use xlink:href="#m0b55df9e61" x="76.165114" y="395.387212" style="fill: #a9a9a9; stroke: #ffffff"/>
     </g>
    </g>
    <g id="text_13">
     <text style="font: 20px 'Arial', sans-serif; text-anchor: start" x="112.165114" y="402.387212" transform="rotate(-0 112.165114 402.387212)">Advanced (n=269)</text>
    </g>
   </g>
  </g>
  <g id="axes_2">
   <g id="patch_10">
    <path d="M 323.827898 326.625187 
L 597.170625 326.625187 
L 597.170625 37.947187 
L 323.827898 37.947187 
L 323.827898 326.625187 
z
" style="fill: none"/>
   </g>
   <g id="patch_11">
    <path d="M 336.252567 326.625187 
L 368.464673 326.625187 
L 368.464673 120.84829 
L 336.252567 120.84829 
z
" clip-path="url(#p9e7a7996b2)" style="fill: #1f78b4"/>
   </g>
   <g id="patch_12">
    <path d="M 428.287155 326.625187 
L 460.499261 326.625187 
L 460.499261 115.788202 
L 428.287155 115.788202 
z
" clip-path="url(#p9e7a7996b2)" style="fill: #1f78b4"/>
   </g>
   <g id="patch_13">
    <path d="M 520.321744 326.625187 
L 552.53385 326.625187 
L 552.53385 303.011445 
L 520.321744 303.011445 
z
" clip-path="url(#p9e7a7996b2)" style="fill: #1f78b4"/>
   </g>
   <g id="patch_14">
    <path d="M 368.464673 326.625187 
L 400.676779 326.625187 
L 400.676779 51.693759 
L 368.464673 51.693759 
z
" clip-path="url(#p9e7a7996b2)" style="fill: #e31a1c"/>
   </g>
   <g id="patch_15">
    <path d="M 460.499261 326.625187 
L 492.711367 326.625187 
L 492.711367 92.17446 
L 460.499261 92.17446 
z
" clip-path="url(#p9e7a7996b2)" style="fill: #e31a1c"/>
   </g>
   <g id="patch_16">
    <path d="M 552.53385 326.625187 
L 584.745956 326.625187 
L 584.745956 245.663785 
L 552.53385 245.663785 
z
" clip-path="url(#p9e7a7996b2)" style="fill: #e31a1c"/>
   </g>
   <g id="matplotlib.axis_3">
    <g id="xtick_4">
     <g id="line2d_6">
      <g>
       <use xlink:href="#me68560f05d" x="368.464673" y="326.625187" style="stroke: #000000; stroke-width: 0.8"/>
      </g>
     </g>
     <g id="text_14">
      <text style="font: 20px 'Arial', sans-serif; text-anchor: middle" x="368.464673" y="347.940812" transform="rotate(-0 368.464673 347.940812)">KiCS</text>
     </g>
    </g>
    <g id="xtick_5">
     <g id="line2d_7">
      <g>
       <use xlink:href="#me68560f05d" x="460.499261" y="326.625187" style="stroke: #000000; stroke-width: 0.8"/>
      </g>
     </g>
     <g id="text_15">
      <text style="font: 20px 'Arial', sans-serif; text-anchor: middle" x="460.499261" y="347.940812" transform="rotate(-0 460.499261 347.940812)">ZERO</text>
     </g>
    </g>
    <g id="xtick_6">
     <g id="line2d_8">
      <g>
       <use xlink:href="#me68560f05d" x="552.53385" y="326.625187" style="stroke: #000000; stroke-width: 0.8"/>
      </g>
     </g>
     <g id="text_16">
      <text style="font: 20px 'Arial', sans-serif; text-anchor: middle" x="552.53385" y="347.940812" transform="rotate(-0 552.53385 347.940812)">MSK</text>
     </g>
    </g>
   </g>
   <g id="matplotlib.axis_4"/>
   <g id="patch_17">
    <path d="M 323.827898 326.625187 
L 597.170625 326.625187 
" style="fill: none; stroke: #000000; stroke-width: 0.8; stroke-linejoin: miter; stroke-linecap: square"/>
   </g>
   <g id="text_17">
    <text style="font: 20px 'Arial', sans-serif; text-anchor: middle" x="352.35862" y="116.029942" transform="rotate(-0 352.35862 116.029942)">122</text>
   </g>
   <g id="text_18">
    <text style="font: 20px 'Arial', sans-serif; text-anchor: middle" x="444.393208" y="110.969854" transform="rotate(-0 444.393208 110.969854)">125</text>
   </g>
   <g id="text_19">
    <text style="font: 20px 'Arial', sans-serif; text-anchor: middle" x="536.427797" y="298.193097" transform="rotate(-0 536.427797 298.193097)">14</text>
   </g>
   <g id="text_20">
    <text style="font: 20px 'Arial', sans-serif; text-anchor: middle" x="384.570726" y="46.875411" transform="rotate(-0 384.570726 46.875411)">163</text>
   </g>
   <g id="text_21">
    <text style="font: 20px 'Arial', sans-serif; text-anchor: middle" x="476.605314" y="87.356112" transform="rotate(-0 476.605314 87.356112)">139</text>
   </g>
   <g id="text_22">
    <text style="font: 20px 'Arial', sans-serif; text-anchor: middle" x="568.639903" y="240.845437" transform="rotate(-0 568.639903 240.845437)">48</text>
   </g>
   <g id="text_23">
    <text style="font: 700 22px 'Arial', sans-serif; text-anchor: middle" x="460.499261" y="22.947187" transform="rotate(-0 460.499261 22.947187)">Pre- vs. Post-Therapy</text>
   </g>
   <g id="legend_2">
    <g id="line2d_9">
     <path d="M 374.968011 366.618462 
L 394.968011 366.618462 
L 414.968011 366.618462 
" style="fill: none; stroke: #ffffff; stroke-width: 1.5; stroke-linecap: square"/>
     <defs>
      <path id="m26f5a27cc3" d="M 0 10 
C 2.652031 10 5.195799 8.946337 7.071068 7.071068 
C 8.946337 5.195799 10 2.652031 10 0 
C 10 -2.652031 8.946337 -5.195799 7.071068 -7.071068 
C 5.195799 -8.946337 2.652031 -10 0 -10 
C -2.652031 -10 -5.195799 -8.946337 -7.071068 -7.071068 
C -8.946337 -5.195799 -10 -2.652031 -10 0 
C -10 2.652031 -8.946337 5.195799 -7.071068 7.071068 
C -5.195799 8.946337 -2.652031 10 0 10 
z
" style="stroke: #ffffff"/>
     </defs>
     <g>
      <use xlink:href="#m26f5a27cc3" x="394.968011" y="366.618462" style="fill: #1f78b4; stroke: #ffffff"/>
     </g>
    </g>
    <g id="text_24">
     <text style="font: 20px 'Arial', sans-serif; text-anchor: start" x="430.968011" y="373.618462" transform="rotate(-0 430.968011 373.618462)">Pre (n=261)</text>
    </g>
    <g id="line2d_10">
     <path d="M 374.968011 395.387212 
L 394.968011 395.387212 
L 414.968011 395.387212 
" style="fill: none; stroke: #ffffff; stroke-width: 1.5; stroke-linecap: square"/>
     <defs>
      <path id="m91047b7083" d="M 0 10 
C 2.652031 10 5.195799 8.946337 7.071068 7.071068 
C 8.946337 5.195799 10 2.652031 10 0 
C 10 -2.652031 8.946337 -5.195799 7.071068 -7.071068 
C 5.195799 -8.946337 2.652031 -10 0 -10 
C -2.652031 -10 -5.195799 -8.946337 -7.071068 -7.071068 
C -8.946337 -5.195799 -10 -2.652031 -10 0 
C -10 2.652031 -8.946337 5.195799 -7.071068 7.071068 
C -5.195799 8.946337 -2.652031 10 0 10 
z
" style="stroke: #ffffff"/>
     </defs>
     <g>
      <use xlink:href="#m91047b7083" x="394.968011" y="395.387212" style="fill: #e31a1c; stroke: #ffffff"/>
     </g>
    </g>
    <g id="text_25">
     <text style="font: 20px 'Arial', sans-serif; text-anchor: start" x="430.968011" y="402.387212" transform="rotate(-0 430.968011 402.387212)">Post (n=350)</text>
    </g>
   </g>
  </g>
 </g>
 <defs>
  <clipPath id="p983badc527">
   <rect x="29.490625" y="37.947187" width="273.342727" height="288.678"/>
  </clipPath>
  <clipPath id="p9e7a7996b2">
   <rect x="323.827898" y="37.947187" width="273.342727" height="288.678"/>
  </clipPath>
 </defs>
</svg>
